<svg width="732" height="447" viewBox="0 0 732 447" fill="none" xmlns="http://www.w3.org/2000/svg">
<mask id="mask0_252_1881" style="mask-type:luminance" maskUnits="userSpaceOnUse" x="0" y="0" width="732" height="447">
<path d="M731.455 0H0V447H731.455V0Z" fill="white"/>
</mask>
<g mask="url(#mask0_252_1881)">
<path d="M-126.426 80.6646C-126.066 80.4363 -125.726 80.179 -125.417 79.8891C-125.236 80.1593 -125.027 80.4086 -124.827 80.6646H-80.8731C3.98308 80.6646 -80.0367 78.6551 -80.0367 77.5044C-80.0367 73.8471 -83.0011 70.8827 -86.6584 70.8827C-86.9354 70.8827 -87.1995 70.9308 -87.467 70.964C-89.0966 66.9125 -93.0471 64.0456 -97.681 64.0456C-99.555 64.0456 -101.292 64.557 -102.838 65.3819C-105.207 61.5533 -109.409 58.9803 -114.242 58.9803C-120.493 58.9803 -125.7 63.2668 -127.205 69.046C-128.659 68.3863 -130.371 68.2 -132.191 68.8441C-134.265 69.5783 -136.044 71.3351 -136.374 73.5092C-137.459 80.6646 -163.277 79.2416 -161.011 80.6646H-126.426Z" fill="#E8DDCE"/>
<path d="M223.923 74.6131C224.282 74.3849 224.622 74.1275 224.932 73.8377C225.113 74.1079 225.321 74.3571 225.521 74.6131H269.475C354.331 74.6131 270.312 72.6037 270.312 71.453C270.312 67.7957 267.347 64.8306 263.69 64.8306C263.413 64.8306 263.15 64.8787 262.881 64.9119C261.252 60.8604 257.302 57.9935 252.668 57.9935C250.794 57.9935 249.056 58.5055 247.511 59.3305C245.142 55.5012 240.939 52.9282 236.106 52.9282C229.855 52.9282 224.648 57.2153 223.143 62.9945C221.689 62.3348 219.977 62.1486 218.157 62.7927C216.084 63.5268 214.305 65.2837 213.975 67.4577C212.889 74.6131 187.072 73.1909 189.338 74.6131H223.923Z" fill="#E8DDCE"/>
<path d="M550.424 80.6646C550.783 80.4363 551.123 80.179 551.433 79.8891C551.614 80.1593 551.823 80.4086 552.022 80.6646H595.976C680.833 80.6646 596.813 78.6551 596.813 77.5044C596.813 73.8471 593.848 70.8827 590.191 70.8827C589.914 70.8827 589.65 70.9308 589.382 70.964C587.753 66.9125 583.802 64.0456 579.168 64.0456C577.294 64.0456 575.557 64.557 574.012 65.3819C571.643 61.5533 567.44 58.9803 562.607 58.9803C556.357 58.9803 551.149 63.2668 549.644 69.046C548.19 68.3863 546.479 68.2 544.658 68.8441C542.585 69.5783 540.806 71.3351 540.476 73.5092C539.39 80.6646 513.573 79.2416 515.838 80.6646H550.424Z" fill="#E8DDCE"/>
<path d="M306.239 98.6042C306.809 98.2425 307.347 97.8355 307.837 97.3763C308.124 97.8043 308.455 98.1985 308.771 98.6042H378.373C512.745 98.6042 379.698 95.423 379.698 93.6005C379.698 87.8091 375.003 83.1136 369.212 83.1136C368.774 83.1136 368.356 83.1908 367.932 83.2429C365.351 76.8278 359.096 72.2874 351.758 72.2874C348.79 72.2874 346.039 73.0974 343.592 74.4039C339.841 68.3409 333.185 64.2658 325.532 64.2658C315.633 64.2658 307.389 71.0534 305.006 80.2054C302.703 79.161 299.992 78.8664 297.109 79.8864C293.827 81.0486 291.01 83.8301 290.488 87.2734C288.769 98.6042 247.886 96.3516 251.473 98.6042H306.239Z" fill="#E8DDCE"/>
<mask id="mask1_252_1881" style="mask-type:luminance" maskUnits="userSpaceOnUse" x="-2" y="-185" width="733" height="733">
<path d="M-1.35449 -184.218H730.1V547.236H-1.35449V-184.218Z" fill="white"/>
</mask>
<g mask="url(#mask1_252_1881)">
<path d="M477.559 129.318C477.559 129.318 487.539 129.447 487.662 135.881C487.662 135.881 492.838 128.337 499.866 131.003C499.866 131.003 493.398 132.872 487.298 139.759C487.298 139.759 481.455 131.189 477.559 129.318Z" fill="#3B342A"/>
<path d="M620.855 131.798C620.855 131.798 631.996 128.526 636.328 130.932C636.328 130.932 644.31 130.939 651.067 133.502C651.067 133.502 643.294 132.901 635.979 134.66C635.979 134.66 625.237 130.8 620.855 131.798Z" fill="#3B342A"/>
<path d="M525.38 117.487C525.38 117.487 535.228 117.603 535.363 123.934C535.363 123.934 540.478 116.52 547.409 119.149C547.409 119.149 541.025 120.984 535.005 127.758C535.005 127.758 529.224 119.322 525.38 117.487Z" fill="#3B342A"/>
<path d="M467.6 81.5613C467.6 81.5613 477.941 80.9672 478.962 86.6152C478.962 86.6152 484.794 80.5953 491.844 83.2693C491.844 83.2693 485.025 84.633 478.597 90.5048C478.597 90.5048 471.644 82.8421 467.6 81.5613Z" fill="#3B342A"/>
<path d="M560.052 154.837C560.052 154.837 571.046 152.193 574.602 155.386C574.602 155.386 582.1 153.948 588.955 156.548C588.955 156.548 581.379 156.416 574.247 159.168C574.247 159.168 564.37 154.381 560.052 154.837Z" fill="#3B342A"/>
</g>
<mask id="mask2_252_1881" style="mask-type:luminance" maskUnits="userSpaceOnUse" x="0" y="-227" width="732" height="733">
<path d="M0 -226.209H731.455V505.245H0V-226.209Z" fill="white"/>
</mask>
<g mask="url(#mask2_252_1881)">
<path d="M112.028 45.8096C112.028 45.8096 123.797 45.1648 124.921 51.6372C124.921 51.6372 131.539 44.708 139.573 47.7553C139.573 47.7553 131.817 49.3321 124.505 56.0698C124.505 56.0698 116.63 47.2958 112.028 45.8096Z" fill="#3B342A"/>
<path d="M64.2939 33.9676C64.2939 33.9676 77.326 30.8631 81.5048 34.6889C81.5048 34.6889 90.3743 32.9123 98.5094 35.998C98.5094 35.998 89.5334 35.8645 81.0838 39.1773C81.0838 39.1773 69.412 33.4537 64.2939 33.9676Z" fill="#3B342A"/>
<path d="M25.7815 48.2555C25.7815 48.2555 37.8092 47.5644 38.9965 54.134C38.9965 54.134 45.7804 47.1319 53.9804 50.2422C53.9804 50.2422 46.0489 51.8284 38.5722 58.6583C38.5722 58.6583 30.4847 49.7453 25.7815 48.2555Z" fill="#3B342A"/>
<path d="M-11.4976 104.361C-11.4976 104.361 2.10041 100.379 7.37271 103.332C7.37271 103.332 17.1065 103.311 25.3585 106.441C25.3585 106.441 15.8722 105.718 6.94574 107.885C6.94574 107.885 -6.15032 103.154 -11.4976 104.361Z" fill="#3B342A"/>
</g>
<path d="M56.0356 370.537C56.0356 370.537 50.9655 354.789 39.2209 350.873C39.2209 350.873 58.236 348.967 64.3884 368.936C64.3884 368.936 70.261 337.451 81.7259 329.062C81.7259 329.062 72.4981 357.916 77.5316 368.936L83.9636 358.418L87.5985 372.644H42.2971L56.0356 370.537Z" fill="#5EE3D4"/>
<path d="M325.83 370.537C325.83 370.537 320.76 354.789 309.015 350.873C309.015 350.873 328.03 348.967 334.183 368.935C334.183 368.935 340.056 337.451 351.521 329.062C351.521 329.062 342.292 357.916 347.326 368.935L353.758 358.418L357.393 372.644H312.091L325.83 370.537Z" fill="#5EE3D4"/>
<path d="M329.048 372.81H63.409C63.3196 372.81 63.2438 372.734 63.2438 372.644C63.2438 372.555 63.3196 372.48 63.409 372.48H329.048C329.137 372.48 329.213 372.555 329.213 372.644C329.213 372.734 329.137 372.81 329.048 372.81Z" fill="#3B342A"/>
<path d="M51.413 333.882C50.4514 333.813 49.512 333.565 48.5529 333.469C47.6412 333.373 46.7438 333.171 45.8548 332.952C44.3359 332.583 43.0513 331.64 41.8054 330.739C40.5353 329.823 39.5502 328.573 38.7362 327.248C38.3115 326.573 38.0079 325.805 37.9357 325.006C37.8885 324.502 38.0732 323.935 38.5261 323.666C38.9552 323.446 39.4577 323.544 39.899 323.671C40.8824 323.967 41.7948 324.452 42.713 324.904C44.0329 325.559 45.3339 326.246 46.6232 326.957C47.779 327.619 48.9687 328.321 49.7745 329.411C50.6378 330.597 51.2906 331.921 51.8693 333.262C53.5753 334.058 55.3008 334.811 57.0208 335.574C57.8649 335.95 58.663 336.421 59.4682 336.871C59.2448 336.376 59.0453 335.868 58.7851 335.392C58.614 335.417 58.4039 335.578 58.2481 335.431C57.736 334.944 57.1737 334.517 56.6437 334.052C55.6959 333.194 54.6143 332.455 53.8862 331.382C53.1923 330.382 52.8083 329.215 52.3484 328.099C51.9376 326.957 51.6242 325.773 51.5239 324.561C51.5079 324.252 51.5114 323.903 51.7215 323.654C51.9916 323.321 52.4651 323.268 52.8656 323.306C53.5519 323.395 54.2727 323.627 54.7214 324.184C55.3815 324.985 55.8808 325.901 56.3871 326.803C57.2826 328.502 58.5477 329.971 59.4725 331.653C59.7691 332.194 60.0457 332.764 60.1448 333.379C60.2318 334.088 59.7479 334.69 59.3261 335.205C59.621 335.868 59.9166 336.53 60.1734 337.209C60.4392 337.475 60.8084 337.622 61.101 337.863C61.9358 338.47 62.6377 339.237 63.2945 340.028C64.2897 341.28 65.0249 342.718 65.65 344.183C66.2482 345.534 74.9451 371.444 75.4385 372.836C75.4775 373.046 75.2427 373.224 75.0504 373.128C74.9257 373.033 74.8874 372.867 74.8201 372.735C73.9532 370.399 64.868 343.528 63.5401 341.407C63.258 341.432 62.9794 341.349 62.6972 341.381C62.1736 341.433 61.6598 341.557 61.1526 341.694C60.6974 342.571 60.2791 343.472 59.754 344.31C59.0927 345.294 58.15 346.065 57.1245 346.645C56.4005 347.077 55.5465 347.361 54.6958 347.264C53.0558 347.033 51.5881 345.763 51.222 344.133C51.1058 343.629 51.3359 343.054 51.8086 342.821C52.4882 342.465 53.2118 342.207 53.9045 341.879C54.8543 341.431 55.8054 340.985 56.7736 340.577C57.624 340.26 58.5103 339.895 59.4381 340C60.2084 340.037 60.9338 340.434 61.42 341.026C61.9896 340.929 62.5587 340.773 63.1418 340.826C62.2305 339.633 61.1753 338.51 59.8484 337.778C58.7172 337.154 57.611 336.48 56.4219 335.971C56.0009 335.802 55.5494 335.978 55.1208 336.016C54.8816 336.068 54.5815 336.024 54.4166 336.242C53.8508 336.935 53.3058 337.646 52.8091 338.391C52.4171 338.962 51.9848 339.558 51.3332 339.849C49.657 340.705 47.6282 340.674 45.8827 340.041C44.9698 339.734 44.0959 339.211 43.5354 338.411C43.2918 338.051 43.0973 337.572 43.3024 337.149C43.5512 336.599 44.1785 336.395 44.7086 336.222C46.8408 335.738 48.9928 335.342 51.1484 334.979C52.1659 334.872 53.2154 335.094 54.1149 335.582C54.4822 335.517 54.8559 335.486 55.2263 335.441C54.0791 334.94 52.9354 334.43 51.8015 333.901C51.6805 333.831 51.5424 333.879 51.413 333.882Z" fill="#3B342A"/>
<path d="M373.852 328.847C373.852 328.847 387.201 276.204 402.563 283.674C417.924 291.143 400.556 372.806 400.556 372.806L374.403 372.442L373.852 328.847Z" fill="#CFBC9F"/>
<path d="M363.702 372.743C363.702 372.743 347.804 304.747 350.001 292.717C352.198 280.687 383.586 337.617 379.536 372.522L363.702 372.743Z" fill="#5EE3D4"/>
<path d="M379.539 372.687C379.529 372.687 379.516 372.684 379.505 372.684C379.416 372.665 379.36 372.58 379.375 372.49C382.377 357.267 374.661 335.77 374.582 335.555C374.55 335.47 374.596 335.377 374.679 335.345C374.781 335.305 374.857 335.359 374.889 335.441C374.968 335.66 382.713 357.238 379.699 372.554C379.683 372.63 379.615 372.686 379.539 372.687Z" fill="#3B342A"/>
<path d="M244.281 413.384C244.281 413.384 248.838 391.815 265.891 396.568C282.944 401.32 284.056 413.384 284.056 413.384H244.281Z" fill="#5EE3D4"/>
<path d="M335.109 413.55H215.658C215.569 413.55 215.493 413.474 215.493 413.385C215.493 413.296 215.569 413.22 215.658 413.22H335.109C335.198 413.22 335.273 413.296 335.273 413.385C335.273 413.474 335.198 413.55 335.109 413.55Z" fill="#3B342A"/>
<path d="M233.406 375.366C232.443 375.33 231.496 375.115 230.534 375.052C229.619 374.988 228.716 374.817 227.82 374.629C226.288 374.313 224.971 373.416 223.695 372.558C222.394 371.686 221.366 370.472 220.506 369.177C220.058 368.517 219.728 367.759 219.628 366.964C219.563 366.461 219.728 365.889 220.171 365.604C220.593 365.369 221.098 365.449 221.544 365.561C222.537 365.823 223.466 366.275 224.399 366.695C225.741 367.303 227.065 367.946 228.378 368.611C229.556 369.233 230.77 369.892 231.613 370.953C232.517 372.108 233.216 373.409 233.841 374.73C235.574 375.466 237.324 376.158 239.07 376.861C239.926 377.206 240.741 377.649 241.561 378.071C241.32 377.584 241.103 377.084 240.827 376.617C240.657 376.648 240.452 376.816 240.291 376.675C239.763 376.206 239.186 375.8 238.64 375.352C237.663 374.529 236.556 373.828 235.791 372.781C235.063 371.806 234.638 370.653 234.14 369.553C233.689 368.426 233.335 367.253 233.193 366.045C233.166 365.737 233.157 365.389 233.358 365.133C233.617 364.791 234.088 364.721 234.49 364.745C235.179 364.81 235.907 365.016 236.374 365.558C237.062 366.334 237.594 367.234 238.131 368.117C239.085 369.784 240.401 371.208 241.383 372.856C241.699 373.387 241.994 373.946 242.115 374.558C242.226 375.263 241.764 375.883 241.361 376.412C241.679 377.063 241.997 377.716 242.277 378.385C242.552 378.641 242.926 378.775 243.227 379.006C244.083 379.584 244.811 380.326 245.495 381.093C246.533 382.31 247.318 383.721 247.994 385.164C248.639 386.493 258.233 412.084 258.774 413.458C258.821 413.667 258.592 413.853 258.397 413.764C258.269 413.674 258.225 413.509 258.153 413.379C257.205 411.075 247.189 384.536 245.788 382.464C245.507 382.498 245.226 382.424 244.945 382.467C244.424 382.537 243.914 382.678 243.412 382.832C242.988 383.725 242.601 384.64 242.106 385.497C241.479 386.503 240.563 387.306 239.558 387.921C238.85 388.379 238.006 388.691 237.153 388.624C235.506 388.451 233.995 387.232 233.573 385.616C233.439 385.117 233.648 384.534 234.113 384.285C234.779 383.906 235.494 383.622 236.175 383.271C237.109 382.79 238.044 382.31 238.997 381.869C239.836 381.522 240.709 381.127 241.64 381.199C242.411 381.21 243.15 381.581 243.656 382.156C244.221 382.039 244.785 381.864 245.37 381.896C244.418 380.736 243.324 379.65 241.972 378.964C240.82 378.38 239.691 377.745 238.485 377.278C238.058 377.125 237.613 377.315 237.186 377.368C236.948 377.429 236.648 377.395 236.49 377.619C235.949 378.332 235.429 379.061 234.959 379.823C234.587 380.407 234.176 381.017 233.535 381.33C231.889 382.245 229.861 382.284 228.094 381.713C227.171 381.438 226.279 380.946 225.691 380.165C225.435 379.814 225.224 379.342 225.415 378.913C225.644 378.354 226.264 378.129 226.788 377.937C228.902 377.379 231.039 376.908 233.18 376.471C234.193 376.329 235.251 376.513 236.167 376.969C236.531 376.892 236.903 376.848 237.272 376.789C236.108 376.329 234.947 375.86 233.795 375.371C233.672 375.305 233.536 375.358 233.406 375.366Z" fill="#3B342A"/>
<path d="M546.559 164.916L618.35 159.836L604.805 279.036L618.689 362.849L627.155 412.29L573.142 411.782L580.482 329.158L563.83 259.395L529.797 228.241L462.144 210.314L474.768 161.868L558.073 149.677" fill="white"/>
<path d="M689.861 228.678C689.861 228.678 682.977 277.575 605.655 277.575L605.654 238.333L607.13 228.678H689.861Z" fill="#5EE3D4"/>
<path d="M479.462 230.668H530.949L491.922 213.398L476.68 186.74L500.484 207.085L541.339 209.774L563.779 226.646L552.858 190.179L550.883 183.582L557.716 182.8L565.362 179.669L579.536 212.047L597.148 180.031L611.708 176.95L612.841 192.209L606.858 233.585H687.949C687.949 233.585 707.343 192.209 676.942 155.26C656.95 130.961 640.406 133.769 640.406 133.769C640.406 133.769 631.052 96.5554 575.378 93.9343C517.323 91.2016 500.845 140.059 500.845 140.059C500.845 140.059 454.743 123.562 436.445 160.587C436.216 161.051 435.993 161.512 435.776 161.971C420.645 193.891 444.138 230.668 479.462 230.668Z" fill="#5EE3D4"/>
<path d="M564.097 259.288L581.06 328.545L573.815 411.825H564.097L573.815 319.876L564.097 259.288Z" fill="#5EE3D4"/>
<path d="M564.096 411.996C564.09 411.996 564.085 411.996 564.078 411.996C563.984 411.986 563.915 411.903 563.925 411.806L573.642 322.116L563.935 259.376L530.856 230.321L491.855 213.556C491.82 213.543 491.791 213.516 491.773 213.482L476.616 186.971C476.57 186.891 476.598 186.786 476.68 186.74C476.764 186.69 476.866 186.716 476.914 186.803L492.043 213.264L531.015 230.015C531.032 230.022 531.048 230.032 531.062 230.046L564.21 259.162C564.241 259.185 564.261 259.223 564.266 259.263L573.984 322.086C573.987 322.103 573.988 322.116 573.986 322.133L564.267 411.845C564.257 411.933 564.184 411.996 564.096 411.996Z" fill="#3B342A"/>
<path d="M564.096 227.28C564.059 227.28 564.023 227.27 563.991 227.246L541.339 209.774L500.608 207.152C500.559 207.149 500.514 207.126 500.484 207.085L483.014 184.567C482.955 184.493 482.97 184.386 483.044 184.329C483.119 184.266 483.227 184.285 483.286 184.359L500.708 206.813L541.414 209.436C541.448 209.439 541.48 209.449 541.508 209.469L563.779 226.646L550.883 183.581C550.856 183.491 550.906 183.394 550.999 183.367C551.084 183.334 551.184 183.39 551.211 183.481L564.261 227.058C564.283 227.132 564.256 227.209 564.193 227.249C564.165 227.27 564.13 227.28 564.096 227.28Z" fill="#3B342A"/>
<path d="M626.737 411.996C626.653 411.996 626.581 411.936 626.567 411.852L605.315 279.021L605.313 241.432L615.94 171.947C615.955 171.853 616.029 171.785 616.135 171.802C616.229 171.819 616.294 171.907 616.279 172L605.654 241.459L605.655 278.994L626.906 411.799C626.921 411.892 626.857 411.98 626.763 411.996C626.755 411.996 626.745 411.996 626.737 411.996Z" fill="#3B342A"/>
<path d="M579.518 212.614C579.472 212.607 579.387 212.574 579.36 212.51L565.617 180.336C565.58 180.249 565.62 180.148 565.708 180.111C565.792 180.068 565.894 180.111 565.932 180.202L579.536 212.047L601.137 171.893C601.18 171.813 601.283 171.783 601.37 171.823C601.452 171.866 601.484 171.97 601.439 172.054L579.669 212.523C579.638 212.58 579.581 212.614 579.518 212.614Z" fill="#3B342A"/>
<path d="M486.955 204.71L500.339 213.734L537.252 228.298L561.066 256.625L530.949 230.172L491.922 213.398L486.955 204.71Z" fill="#5EE3D4"/>
<path d="M507.614 175.586C507.567 175.663 507.468 175.691 507.388 175.649C507.346 175.627 503.248 173.443 500.301 168.008C495.39 158.942 497.374 147.939 499.905 140.304C499.93 140.199 500.032 140.166 500.124 140.195C500.212 140.225 500.263 140.322 500.232 140.411C497.725 147.975 495.753 158.869 500.593 167.824C503.487 173.177 507.506 175.323 507.548 175.346C507.631 175.389 507.663 175.492 507.619 175.578C507.617 175.58 507.616 175.583 507.614 175.586Z" fill="#3B342A"/>
<path d="M627.9 189.355C627.845 189.355 627.789 189.328 627.756 189.278C627.704 189.197 627.728 189.09 627.806 189.04C642.099 179.759 644.606 164.772 644.19 153.831C643.741 141.958 639.848 132.151 639.809 132.054C639.774 131.967 639.816 131.866 639.905 131.83C639.99 131.803 640.091 131.836 640.128 131.927C640.168 132.024 644.08 141.878 644.534 153.811C644.953 164.841 642.425 179.957 627.994 189.328C627.966 189.348 627.932 189.355 627.9 189.355Z" fill="#3B342A"/>
<path d="M521.396 196.785C518.913 196.785 517.256 196.36 517.206 196.346C517.115 196.322 517.06 196.229 517.086 196.138C517.109 196.044 517.209 195.98 517.297 196.017C517.451 196.06 532.683 199.934 540.356 183.458C540.388 183.391 540.458 183.363 540.539 183.36C540.619 183.377 548.685 184.631 557.645 182.461C565.9 180.466 576.636 175.075 580.896 160.711C580.923 160.621 581.021 160.564 581.109 160.598C581.2 160.625 581.252 160.718 581.225 160.812C576.916 175.334 566.063 180.785 557.716 182.8C549.31 184.828 541.689 183.87 540.613 183.719C535.33 194.944 526.569 196.785 521.396 196.785Z" fill="#3B342A"/>
<path d="M610.488 263.509C607.659 263.509 605.956 263.423 605.873 263.42C605.777 263.416 605.702 263.33 605.709 263.234C605.712 263.141 605.791 263.07 605.884 263.07C605.887 263.07 605.891 263.07 605.894 263.07C606.279 263.087 645.859 265.054 665.341 249.362C665.417 249.307 665.53 249.31 665.588 249.389C665.65 249.465 665.637 249.575 665.561 249.637C649.959 262.204 621.583 263.509 610.488 263.509Z" fill="#3B342A"/>
<path d="M551.156 274.864C551.152 274.793 551.183 274.75 551.265 274.718C551.425 274.653 551.461 274.744 551.595 275.074C557.069 288.471 569.341 306.949 596.717 318.904C596.803 318.943 596.836 319.052 596.807 319.129C596.769 319.217 596.666 319.256 596.58 319.218C569.298 307.305 556.955 288.929 551.401 275.498C551.357 275.439 551.314 275.335 551.254 275.172C551.198 275.032 551.16 274.934 551.156 274.864Z" fill="#3B342A"/>
<path d="M471.92 136.844C471.913 136.844 471.905 136.841 471.899 136.841C471.809 136.831 471.748 136.748 471.758 136.659C471.775 136.518 473.66 122.303 485.75 113.774C495.066 107.201 507.829 105.652 523.658 109.179C523.747 109.196 523.802 109.285 523.782 109.371C523.761 109.457 523.669 109.516 523.589 109.495C507.836 106 495.179 107.524 485.942 114.038C473.969 122.481 472.098 136.559 472.081 136.7C472.071 136.783 472.002 136.844 471.92 136.844Z" fill="#3B342A"/>
<path d="M662.498 141.607C662.419 141.607 662.35 141.549 662.337 141.469C660.5 130.059 655.978 121.877 648.901 117.142C638.865 110.436 627.062 113.128 626.946 113.152C626.85 113.169 626.771 113.121 626.75 113.032C626.73 112.943 626.781 112.857 626.871 112.836C626.991 112.805 638.929 110.086 649.083 116.871C656.239 121.657 660.809 129.915 662.66 141.415C662.673 141.504 662.612 141.59 662.526 141.603C662.516 141.603 662.505 141.607 662.498 141.607Z" fill="#3B342A"/>
<path d="M611.326 314.609C611.278 314.609 611.231 314.585 611.199 314.544C611.141 314.475 611.155 314.372 611.226 314.317C621.435 306.279 623.89 296.507 624.151 289.722C624.436 282.367 622.28 276.852 622.259 276.797C622.225 276.711 622.266 276.619 622.349 276.584C622.435 276.56 622.53 276.591 622.561 276.673C622.585 276.732 624.766 282.312 624.481 289.735C624.212 296.589 621.737 306.461 611.426 314.571C611.398 314.595 611.361 314.609 611.326 314.609Z" fill="#3B342A"/>
<path d="M614.544 230.834C614.54 230.834 614.54 230.834 614.54 230.834C614.448 230.831 614.375 230.758 614.375 230.669C614.378 230.579 614.451 230.504 614.54 230.504H614.544C614.685 230.504 619.258 230.477 624.072 227.864C632.2 223.451 634.775 215.176 635.506 209.013C636.828 197.86 631.06 191.525 625.988 188.177C620.477 184.534 614.571 183.528 614.513 183.518C614.423 183.504 614.365 183.419 614.378 183.33C614.392 183.25 614.461 183.192 614.54 183.192C614.551 183.192 614.557 183.195 614.567 183.195C614.626 183.206 620.594 184.222 626.16 187.899C631.314 191.298 637.171 197.73 635.829 209.054C635.091 215.297 632.478 223.681 624.217 228.156C619.337 230.803 614.698 230.834 614.544 230.834Z" fill="#3B342A"/>
<path d="M661.511 409.642C661.511 409.642 656.441 393.894 644.697 389.979C644.697 389.979 663.712 388.073 669.864 408.041C669.864 408.041 675.736 376.556 687.202 368.167C687.202 368.167 677.974 397.021 683.007 408.041L689.439 397.523L693.074 411.749H647.773L661.511 409.642Z" fill="#5EE3D4"/>
<path d="M698.768 412.001H550.856C550.76 412.001 550.681 411.922 550.681 411.826C550.681 411.73 550.76 411.651 550.856 411.651H698.768C698.864 411.651 698.943 411.73 698.943 411.826C698.943 411.922 698.864 412.001 698.768 412.001Z" fill="#3B342A"/>
<path d="M564.47 413.384C564.47 419.157 513.126 423.838 449.789 423.838C386.453 423.838 335.109 419.157 335.109 413.384C335.109 407.611 386.453 402.931 449.789 402.931C513.126 402.931 564.47 407.611 564.47 413.384Z" fill="#CFBC9F"/>
<path d="M501.715 300.22C501.715 300.22 478.517 311.634 473.491 326.524L483.952 343.833L501.227 349.284L501.715 300.22Z" fill="#CFBC9F"/>
<path d="M544.77 413.384L389.749 411.78L389.018 364.635L486.4 373.5L544.77 413.384Z" fill="#287A70"/>
<path d="M466.894 376.028C466.894 376.028 496.38 410.332 504.508 412.869H518.753L466.894 376.028Z" fill="#3B342A"/>
<path d="M389.416 364.635C389.416 364.635 383.287 370.646 383.302 393.057C383.312 407.963 390.179 411.78 390.179 411.78L389.416 364.635Z" fill="#3B342A"/>
<path d="M389.497 377.516L358.891 382.555L367.584 397.404L390.071 400.364L389.497 377.516Z" fill="#D8A253"/>
<path d="M374.41 399.644L364.645 381.608C364.645 381.608 351.519 378.162 339.324 369.885C339.324 369.885 332.178 362.403 329.437 362.354L326.27 364.126L351.938 409.983C351.938 409.983 358.326 408.237 364.713 402.747L374.41 399.644Z" fill="#3B342A"/>
<path d="M368.634 387.175L362.725 392.886L373.811 398.139L368.634 387.175Z" fill="#D8A253"/>
<path d="M389.497 377.516L385.586 399.474L390.071 400.364L389.497 377.516Z" fill="#BC955C"/>
<path d="M538.004 286.963C538.054 291.292 534.585 294.842 530.256 294.892C525.926 294.942 522.377 291.473 522.327 287.144C522.277 282.814 525.745 279.264 530.075 279.214C534.404 279.164 537.954 282.633 538.004 286.963Z" fill="#3B342A"/>
<path d="M545.431 298.276C545.431 298.276 588.545 329.99 564.396 352.481L552.892 343.244L545.431 298.276Z" fill="#CFBC9F"/>
<path d="M545.593 298.274C545.593 298.274 560.337 342.936 556.756 358.473L506.905 357.569C506.905 357.569 494.88 319.011 499.603 303.634C500.212 301.651 500.885 299.735 502.958 299.67L528.199 298.021L545.593 298.274Z" fill="#CFBC9F"/>
<path d="M516.745 289.338C516.356 293.01 515.665 298.331 515.204 299.321C515.204 299.321 515.002 306.005 522.328 305.007C525.57 304.565 529.157 301.911 528.037 298.023C527.562 296.373 526.083 291.066 525.13 286.229L516.745 289.338Z" fill="#D8A253"/>
<path d="M515.459 298.432C515.459 298.439 515.455 298.467 515.455 298.473C520.135 296.391 523.623 292.456 523.852 290.986C523.835 290.902 524.742 288.386 524.725 288.303L516.745 289.337C516.75 289.402 516.716 289.681 516.667 290.044C516.341 293.003 515.861 296.67 515.459 298.432Z" fill="#3B342A"/>
<path d="M516.075 294.803L513.231 298.99C513.231 298.99 511.944 305.574 521.218 305.104C530.492 304.635 530.091 297.628 530.091 297.628L526.954 294.223C526.954 294.223 523.405 295.945 519.664 296.203C516.263 296.437 516.075 294.803 516.075 294.803Z" fill="white"/>
<path d="M514.793 303.708C514.769 303.708 514.741 303.704 514.717 303.691C514.631 303.651 514.591 303.549 514.631 303.459L517.457 297.185C517.494 297.098 517.6 297.049 517.69 297.099C517.776 297.139 517.816 297.241 517.776 297.331L514.949 303.606C514.923 303.668 514.858 303.707 514.793 303.708Z" fill="#3B342A"/>
<path d="M526.964 303.528C526.896 303.529 526.829 303.492 526.801 303.424L523.828 296.713C523.788 296.624 523.828 296.521 523.917 296.481C524.003 296.445 524.113 296.478 524.149 296.571L527.122 303.282C527.161 303.371 527.121 303.474 527.032 303.513C527.012 303.523 526.988 303.528 526.964 303.528Z" fill="#3B342A"/>
<path d="M528.292 302.505C528.227 302.506 528.164 302.469 528.132 302.408L525.039 296.176C524.997 296.091 525.03 295.985 525.118 295.942C525.21 295.889 525.31 295.935 525.352 296.021L528.446 302.253C528.488 302.338 528.456 302.445 528.367 302.487C528.344 302.501 528.315 302.505 528.292 302.505Z" fill="#3B342A"/>
<path d="M522.912 307.891C522.921 308.524 522.416 309.044 521.784 309.053C521.151 309.062 520.63 308.557 520.621 307.925C520.612 307.292 521.118 306.771 521.75 306.762C522.383 306.753 522.903 307.259 522.912 307.891Z" fill="#3B342A"/>
<path d="M522.039 318.066C522.048 318.699 521.543 319.219 520.91 319.228C520.278 319.238 519.757 318.732 519.748 318.1C519.738 317.467 520.244 316.947 520.877 316.938C521.509 316.929 522.029 317.434 522.039 318.066Z" fill="#3B342A"/>
<path d="M521.878 329.8C521.887 330.433 521.382 330.954 520.749 330.963C520.117 330.972 519.596 330.466 519.587 329.834C519.577 329.201 520.083 328.681 520.716 328.672C521.348 328.663 521.868 329.168 521.878 329.8Z" fill="#3B342A"/>
<path d="M521.471 380.068C521.385 380.069 521.309 380.009 521.294 379.923C515.278 344.308 519.328 305.512 519.371 305.123C519.383 305.027 519.478 304.974 519.564 304.966C519.661 304.978 519.73 305.063 519.722 305.159C519.679 305.548 515.631 344.299 521.643 379.863C521.658 379.959 521.595 380.049 521.499 380.068C521.489 380.068 521.481 380.068 521.471 380.068Z" fill="#3B342A"/>
<path d="M545.222 333.352C545.219 333.352 545.216 333.352 545.212 333.352C545.113 333.346 545.04 333.265 545.045 333.169C545.426 325.495 535.925 312.719 535.83 312.59C535.77 312.511 535.786 312.402 535.864 312.346C535.939 312.28 536.049 312.301 536.109 312.38C536.504 312.906 545.785 325.386 545.395 333.184C545.39 333.277 545.315 333.35 545.222 333.352Z" fill="#3B342A"/>
<path d="M506.237 328.957C506.147 328.958 506.071 328.89 506.059 328.801L504.593 315.334C504.582 315.238 504.653 315.151 504.749 315.139C504.756 315.139 504.759 315.139 504.766 315.139C504.855 315.138 504.931 315.205 504.943 315.294L506.409 328.762C506.42 328.858 506.35 328.945 506.254 328.957C506.247 328.957 506.244 328.957 506.237 328.957Z" fill="#3B342A"/>
<path d="M448.051 307.684L458.899 314.022L462.443 314.489L484.635 308.673L501.138 339.144L475.156 346.648L470.72 344.845L461.31 334.76L448.051 307.684Z" fill="#A88551"/>
<path d="M471.02 340.287C470.944 340.288 470.875 340.243 470.849 340.167L462.275 314.546C462.246 314.453 462.294 314.353 462.386 314.323C462.485 314.301 462.579 314.342 462.609 314.435L471.183 340.056C471.213 340.149 471.164 340.249 471.072 340.279C471.055 340.282 471.037 340.286 471.02 340.287Z" fill="#3B342A"/>
<path d="M468.501 342.639C468.426 342.641 468.355 342.594 468.33 342.519L458.733 314.078C458.703 313.986 458.752 313.886 458.844 313.856C458.94 313.84 459.037 313.875 459.067 313.967L468.664 342.408C468.694 342.5 468.645 342.601 468.553 342.631C468.536 342.635 468.518 342.638 468.501 342.639Z" fill="#3B342A"/>
<path d="M558.104 365.813C558.104 365.813 573.136 395.602 556.891 408.429C527.019 432.017 444.599 370.808 444.599 370.808C444.599 370.808 434.942 328.427 468.178 334.208L558.104 365.813Z" fill="#287A70"/>
<path d="M401.273 380.17C401.273 380.17 410.874 389.496 422.884 391.813C434.895 394.131 437.818 391.756 437.818 391.756L401.273 380.17Z" fill="#3B342A"/>
<path d="M404.558 396.867C404.558 396.867 411.323 363.103 408.266 371.809L429.738 374.117L433.268 377.509C427.844 388.044 422.336 396.714 422.336 396.714L404.558 396.867Z" fill="#D8A253"/>
<path d="M422.391 396.638L404.827 396.607C404.827 396.607 393.54 405.777 380.24 412.518C380.24 412.518 370.116 415.18 368.73 417.582L368.749 421.254L421.913 420.992C421.913 420.992 423.497 414.482 421.764 406.138L422.391 396.638Z" fill="#3B342A"/>
<path d="M409.627 396.158L414.959 406.364L422.501 396.269L409.627 396.158Z" fill="#D8A253"/>
<path d="M401.263 380.159L437.807 391.745L447.5 365.613L494.896 343.623C494.896 343.623 476.578 333.801 458.379 325.422C433.818 314.098 401.263 380.159 401.263 380.159Z" fill="#287A70"/>
<path d="M533.9 400.543C533.832 400.543 533.767 400.543 533.698 400.54C527.95 400.396 488.086 372.344 465.015 355.221C462.433 353.305 459.271 352.515 456.085 352.996C452.901 353.48 450.096 355.18 448.19 357.786L425.36 387.856C425.298 387.935 425.192 387.955 425.116 387.893C425.037 387.838 425.021 387.729 425.079 387.649L447.909 357.58C449.869 354.898 452.754 353.147 456.033 352.649C459.298 352.155 462.568 352.965 465.229 354.939C483.77 368.705 527.843 400.042 533.704 400.19C533.77 400.19 533.835 400.193 533.9 400.193C541.272 400.193 547.426 389.971 547.488 389.868C547.539 389.785 547.645 389.758 547.728 389.806C547.811 389.854 547.838 389.963 547.79 390.046C547.728 390.152 541.471 400.543 533.9 400.543Z" fill="#3B342A"/>
<path d="M512.32 408.859C512.292 408.859 512.268 408.856 512.244 408.842C496.662 401.292 460.133 371.665 457.623 369.557L437.941 391.859C437.879 391.935 437.773 391.942 437.694 391.88C437.619 391.819 437.612 391.708 437.673 391.632L457.468 369.196C457.499 369.161 457.54 369.138 457.588 369.134C457.636 369.138 457.681 369.144 457.716 369.175C458.097 369.498 496.374 400.759 512.395 408.526C512.485 408.567 512.519 408.674 512.478 408.76C512.447 408.825 512.385 408.859 512.32 408.859Z" fill="#3B342A"/>
<path d="M407.377 382.097L425.22 391.745L427.473 388.468L407.377 382.097Z" fill="#BC955C"/>
<path d="M554.864 333.7C554.864 333.7 575.139 363.828 568.49 388.939C568.49 388.939 536.418 394.885 521.471 379.894C506.523 364.902 507.374 357.094 507.374 357.094L554.864 333.7Z" fill="#CFBC9F"/>
<path d="M521.471 380.068C521.385 380.069 521.309 380.009 521.294 379.923C515.278 344.308 519.329 305.512 519.371 305.123C519.383 305.027 519.478 304.974 519.564 304.966C519.661 304.978 519.73 305.063 519.722 305.159C519.679 305.548 515.632 344.299 521.643 379.863C521.658 379.959 521.595 380.049 521.499 380.068C521.489 380.068 521.481 380.068 521.471 380.068Z" fill="#3B342A"/>
<path d="M510.232 365.889C510.167 365.89 510.101 365.853 510.073 365.792C510.03 365.703 510.066 365.6 510.151 365.557C516.377 362.499 518.258 353.804 518.277 353.718C518.296 353.621 518.395 353.557 518.484 353.58C518.581 353.599 518.641 353.695 518.622 353.788C518.603 353.877 516.686 362.742 510.307 365.871C510.284 365.885 510.256 365.889 510.232 365.889Z" fill="#3B342A"/>
<path d="M555.894 378.657C545.306 378.813 530.631 377.306 519.858 369.408C519.782 369.351 519.763 369.241 519.82 369.161C519.881 369.085 519.994 369.07 520.067 369.124C538.677 382.768 569.08 377.196 569.385 377.147C569.477 377.108 569.571 377.189 569.589 377.285C569.608 377.381 569.547 377.474 569.451 377.489C569.321 377.515 563.722 378.542 555.894 378.657Z" fill="#3B342A"/>
<path d="M502.53 328.126C502.53 328.126 500.386 326.853 499.092 324.72C497.799 322.586 494.872 318.609 492.598 317.084C490.899 315.945 489.629 315.034 489.143 316.158C488.658 317.282 490.177 319.908 490.479 320.012C490.781 320.115 483.346 315.268 482.368 315.19C481.898 315.153 480.193 314.563 480.743 316.606C480.743 316.606 477.998 315.98 477.968 317.222C477.939 318.464 479.359 319.13 479.359 319.13C479.359 319.13 477.356 318.879 477.694 320.386C478.032 321.892 479.945 323.146 479.945 323.146C479.945 323.146 478.248 323 478.514 324.422C478.78 325.844 486.807 332.835 489.922 334.581C493.037 336.326 495.474 336.926 495.474 336.926L499.517 339.212L502.53 328.126Z" fill="#D8A253"/>
<path d="M487.459 321.467C487.397 321.507 487.311 321.508 487.249 321.462L480.634 316.763C480.548 316.703 480.527 316.583 480.587 316.498C480.655 316.417 480.768 316.392 480.852 316.453L487.467 321.151C487.552 321.212 487.574 321.332 487.514 321.417C487.497 321.437 487.48 321.454 487.459 321.467Z" fill="black"/>
<path d="M485.967 323.178C485.909 323.215 485.832 323.221 485.768 323.181L479.261 319.291C479.171 319.239 479.143 319.123 479.197 319.032C479.245 318.939 479.365 318.91 479.456 318.967L485.963 322.856C486.054 322.909 486.082 323.024 486.028 323.116C486.014 323.143 485.991 323.163 485.967 323.178Z" fill="black"/>
<path d="M484.733 325.785C484.677 325.821 484.606 325.828 484.542 325.792L479.856 323.314C479.764 323.268 479.729 323.152 479.777 323.059C479.831 322.967 479.941 322.926 480.036 322.981L484.721 325.459C484.813 325.505 484.849 325.622 484.801 325.714C484.784 325.744 484.761 325.767 484.733 325.785Z" fill="black"/>
<path d="M489.399 319.188L489.631 319.338C489.643 319.352 490.109 319.512 491.587 320.921C491.677 321.021 491.686 321.169 491.594 321.263C491.502 321.359 491.349 321.364 491.252 321.272C489.843 319.925 489.399 319.188 489.399 319.188Z" fill="black"/>
<path d="M553.516 328.394C553.516 328.394 548.906 334.353 539.927 332.796C532.776 331.555 508.185 328.116 508.185 328.116L502.3 354.546C502.3 354.546 529.907 365.718 553.938 359.661L553.516 328.394Z" fill="#CFBC9F"/>
<path d="M508.185 328.116C508.185 328.116 497.179 341.563 502.301 354.546L508.185 328.116Z" fill="#3B342A"/>
<path d="M502.53 328.126L507.786 329.906L505.152 341.739L499.517 339.212L502.53 328.126Z" fill="white"/>
<path d="M507.393 331.861C507.369 331.862 507.347 331.859 507.323 331.85L502.056 329.799C501.966 329.763 501.923 329.662 501.959 329.572C501.995 329.481 502.092 329.438 502.186 329.473L507.453 331.523C507.543 331.559 507.587 331.661 507.551 331.751C507.526 331.817 507.462 331.86 507.393 331.861Z" fill="#3B342A"/>
<path d="M506.971 333.908C506.951 333.909 506.93 333.906 506.909 333.899L501.48 331.95C501.387 331.917 501.339 331.815 501.371 331.725C501.404 331.632 501.502 331.588 501.596 331.617L507.025 333.567C507.119 333.599 507.166 333.701 507.134 333.791C507.108 333.863 507.044 333.906 506.971 333.908Z" fill="#3B342A"/>
<path d="M554.669 333.933L554.666 333.933C539.341 333.977 508.461 328.345 508.154 328.288C508.058 328.27 507.994 328.178 508.012 328.085C508.03 327.988 508.118 327.914 508.215 327.943C508.525 328 539.37 333.626 554.664 333.583C554.76 333.58 554.841 333.661 554.84 333.757C554.843 333.853 554.765 333.93 554.669 333.933Z" fill="#3B342A"/>
<path d="M541.724 361.644C537.224 361.753 531.871 361.405 525.513 360.395C512.997 358.409 502.351 354.748 502.244 354.713C502.153 354.681 502.103 354.582 502.135 354.489C502.168 354.399 502.263 354.352 502.36 354.38C502.778 354.521 544.829 368.861 560.999 355.793C561.07 355.736 561.18 355.743 561.247 355.821C561.307 355.895 561.297 356.006 561.219 356.069C557.935 358.725 552.074 361.394 541.724 361.644Z" fill="#3B342A"/>
<path d="M525.39 290.197C525.39 290.197 533.489 282.267 524.758 276.042C519.838 272.533 516.854 274.945 513.951 276.46C511.162 277.912 511.546 284.209 516.241 283.687C520.455 283.219 521.879 279.777 521.879 279.777L525.39 290.197Z" fill="#3B342A"/>
<path d="M519.292 278.717C513.468 278.188 514.088 284.438 514.088 284.438C514.088 284.438 514.107 289.427 516.18 291.986C516.347 292.192 516.516 292.382 516.685 292.558C518.397 294.333 521.158 294.3 522.834 292.492C523.004 292.309 523.172 292.11 523.339 291.896C525.366 289.286 525.179 283.85 525.179 283.85C525.179 283.85 525.105 278.042 519.292 278.717Z" fill="#D8A253"/>
<path d="M514.088 284.438C514.088 284.438 515.923 284.36 520.09 282.976C520.09 282.976 525.076 285.666 525.555 284.413C526.541 281.834 520.471 276.269 520.471 276.269L515.771 277.887C515.771 277.887 511.837 282.513 514.088 284.438Z" fill="#3B342A"/>
<path d="M523.761 284.625C523.761 284.625 523.623 282.603 524.707 282.671C525.79 282.738 527.205 286.375 524.728 287.063C522.252 287.752 523.761 284.625 523.761 284.625Z" fill="#D8A253"/>
<path d="M525.089 286.267C525.083 286.267 525.076 286.267 525.066 286.267C524.85 286.263 524.563 286.132 524.464 285.9C524.422 285.8 524.381 285.602 524.588 285.377C524.693 285.262 524.839 285.123 524.973 285.122C524.998 285.121 525.025 285.124 525.049 285.138C525.204 285.208 525.183 285.469 525.177 285.521C525.174 285.566 525.137 285.6 525.093 285.6C525.089 285.6 525.085 285.6 525.082 285.597C525.034 285.594 524.999 285.55 525.005 285.502C525.014 285.409 524.996 285.31 524.975 285.296C524.962 285.296 524.893 285.307 524.72 285.495C524.612 285.609 524.582 285.723 524.624 285.829C524.688 285.973 524.881 286.087 525.07 286.092C525.132 286.094 525.253 286.083 525.306 285.979C525.487 285.603 525.376 284.32 524.828 283.832C524.711 283.727 524.648 283.752 524.621 283.762C524.406 283.844 524.252 284.467 524.205 284.838C524.202 284.883 524.164 284.917 524.119 284.918C524.116 284.918 524.113 284.918 524.109 284.915C524.061 284.909 524.026 284.868 524.032 284.819C524.045 284.71 524.171 283.747 524.561 283.598C524.636 283.566 524.777 283.551 524.943 283.7C525.557 284.246 525.669 285.632 525.465 286.053C525.401 286.188 525.265 286.265 525.089 286.267Z" fill="black"/>
<path d="M515.875 288.412C515.932 288.634 515.837 288.827 515.661 288.844C515.485 288.86 515.296 288.694 515.239 288.472C515.182 288.25 515.277 288.057 515.453 288.041C515.629 288.024 515.817 288.191 515.875 288.412Z" fill="#3A2E1B"/>
<path d="M519.297 287.944C519.351 288.151 519.261 288.331 519.095 288.346C518.93 288.362 518.754 288.206 518.7 287.999C518.647 287.793 518.737 287.613 518.902 287.597C519.067 287.582 519.244 287.737 519.297 287.944Z" fill="#3A2E1B"/>
<path d="M514.646 287.037C514.626 287.037 514.604 287.031 514.587 287.021C514.532 286.987 514.517 286.919 514.548 286.867C514.564 286.839 514.949 286.209 515.529 286.179C515.542 286.175 515.553 286.175 515.567 286.175C515.9 286.171 516.221 286.37 516.521 286.761C516.56 286.813 516.55 286.884 516.502 286.92C516.454 286.965 516.382 286.949 516.344 286.901C516.089 286.564 515.827 286.398 515.569 286.401C515.559 286.401 515.552 286.402 515.542 286.402C515.082 286.427 514.745 286.978 514.742 286.981C514.722 287.016 514.684 287.037 514.646 287.037Z" fill="black"/>
<path d="M517.846 286.688C517.825 286.688 517.804 286.681 517.787 286.671C517.732 286.637 517.717 286.569 517.747 286.517C517.764 286.49 518.148 285.864 518.728 285.83C518.742 285.83 518.756 285.829 518.766 285.829C519.103 285.825 519.421 286.021 519.721 286.409C519.759 286.46 519.75 286.528 519.702 286.567C519.654 286.609 519.582 286.595 519.543 286.548C519.289 286.214 519.03 286.049 518.769 286.052C518.762 286.052 518.751 286.052 518.744 286.052C518.282 286.078 517.944 286.629 517.941 286.632C517.921 286.667 517.883 286.688 517.846 286.688Z" fill="black"/>
<path d="M520.91 291.594C520.728 291.596 520.525 291.557 520.305 291.481C520.246 291.457 520.214 291.396 520.234 291.337C520.254 291.279 520.329 291.247 520.377 291.267C520.781 291.41 521.097 291.406 521.318 291.242C521.693 290.97 521.675 290.328 521.675 290.322C521.674 290.26 521.722 290.207 521.783 290.203C521.787 290.203 521.787 290.203 521.787 290.203C521.848 290.202 521.897 290.253 521.901 290.312C521.902 290.343 521.921 291.081 521.451 291.423C521.301 291.534 521.119 291.591 520.91 291.594Z" fill="black"/>
<path d="M514.373 290.522C512.814 290.54 511.53 289.285 511.512 287.722C511.494 286.163 512.749 284.879 514.308 284.861C515.87 284.843 517.155 286.098 517.173 287.657C517.191 289.219 515.936 290.504 514.373 290.522ZM514.311 285.087C512.875 285.104 511.721 286.285 511.738 287.72C511.755 289.158 512.936 290.312 514.371 290.296C515.809 290.279 516.963 289.098 516.947 287.659C516.93 286.224 515.749 285.07 514.311 285.087Z" fill="black"/>
<path d="M519.781 289.629C518.222 289.647 516.938 288.392 516.92 286.833C516.902 285.27 518.157 283.985 519.716 283.967C521.278 283.949 522.564 285.205 522.582 286.767C522.6 288.326 521.344 289.611 519.781 289.629ZM519.719 284.194C518.284 284.211 517.13 285.392 517.147 286.83C517.163 288.265 518.344 289.419 519.779 289.402C521.217 289.385 522.371 288.205 522.355 286.77C522.338 285.332 521.157 284.178 519.719 284.194Z" fill="black"/>
<path d="M521.954 285.339C521.906 285.339 521.861 285.309 521.847 285.261C521.826 285.203 521.859 285.137 521.917 285.12L523.251 284.678C523.306 284.654 523.375 284.691 523.393 284.749C523.414 284.807 523.381 284.873 523.323 284.89L521.988 285.332C521.978 285.335 521.964 285.339 521.954 285.339Z" fill="black"/>
<path d="M511.653 287.422C511.601 287.422 511.553 287.385 511.542 287.33C511.531 287.269 511.568 287.21 511.629 287.199L513.867 286.758C513.873 286.758 513.88 286.754 513.887 286.754C513.938 286.753 513.987 286.791 513.998 286.845C514.009 286.907 513.972 286.966 513.91 286.977L511.673 287.418C511.666 287.418 511.659 287.422 511.653 287.422Z" fill="black"/>
<path d="M557.932 372.635C556.971 372.558 556.034 372.305 555.075 372.202C554.164 372.1 553.269 371.891 552.382 371.665C550.865 371.286 549.587 370.335 548.347 369.425C547.083 368.499 546.107 367.243 545.302 365.913C544.882 365.234 544.584 364.464 544.517 363.665C544.474 363.16 544.662 362.595 545.117 362.329C545.548 362.112 546.05 362.213 546.49 362.343C547.471 362.646 548.38 363.137 549.295 363.596C550.611 364.26 551.907 364.956 553.191 365.676C554.342 366.346 555.527 367.056 556.325 368.152C557.18 369.344 557.823 370.673 558.393 372.018C560.094 372.826 561.814 373.591 563.528 374.366C564.37 374.747 565.165 375.223 565.967 375.68C565.747 375.183 565.551 374.674 565.294 374.196C565.123 374.22 564.911 374.379 564.757 374.231C564.248 373.741 563.689 373.31 563.162 372.841C562.219 371.977 561.144 371.23 560.423 370.152C559.736 369.147 559.36 367.978 558.908 366.858C558.505 365.713 558.2 364.527 558.108 363.314C558.094 363.005 558.1 362.656 558.312 362.409C558.585 362.078 559.059 362.029 559.459 362.07C560.144 362.163 560.864 362.399 561.308 362.96C561.963 363.765 562.456 364.685 562.956 365.59C563.839 367.296 565.094 368.773 566.007 370.461C566.3 371.005 566.573 371.576 566.668 372.192C566.75 372.902 566.262 373.501 565.836 374.013C566.127 374.677 566.418 375.342 566.67 376.022C566.934 376.29 567.302 376.44 567.593 376.683C568.423 377.296 569.12 378.067 569.771 378.863C570.757 380.121 571.483 381.565 572.097 383.035C572.685 384.39 581.202 410.359 581.686 411.755C581.724 411.965 581.488 412.142 581.296 412.044C581.172 411.948 581.135 411.783 581.068 411.65C580.218 409.308 571.32 382.373 570.007 380.244C569.725 380.267 569.447 380.181 569.164 380.212C568.64 380.26 568.126 380.381 567.617 380.514C567.156 381.388 566.732 382.286 566.201 383.121C565.533 384.1 564.585 384.864 563.555 385.436C562.828 385.864 561.972 386.141 561.122 386.039C559.484 385.797 558.025 384.516 557.67 382.884C557.557 382.38 557.792 381.805 558.266 381.576C558.947 381.225 559.673 380.972 560.368 380.649C561.321 380.208 562.275 379.768 563.246 379.366C564.099 379.056 564.988 378.696 565.915 378.808C566.684 378.851 567.407 379.253 567.889 379.848C568.46 379.755 569.03 379.603 569.613 379.66C568.71 378.461 567.662 377.33 566.341 376.589C565.214 375.957 564.112 375.275 562.927 374.758C562.507 374.587 562.054 374.759 561.625 374.794C561.386 374.844 561.087 374.798 560.92 375.015C560.35 375.705 559.799 376.411 559.297 377.153C558.901 377.721 558.465 378.314 557.811 378.6C556.129 379.445 554.1 379.399 552.359 378.755C551.449 378.441 550.578 377.913 550.024 377.108C549.782 376.746 549.591 376.266 549.799 375.845C550.052 375.296 550.681 375.097 551.212 374.928C553.348 374.458 555.502 374.077 557.66 373.73C558.679 373.63 559.727 373.859 560.623 374.353C560.991 374.291 561.364 374.263 561.735 374.219C560.591 373.711 559.451 373.194 558.321 372.657C558.2 372.586 558.062 372.632 557.932 372.635Z" fill="#3B342A"/>
<path d="M602.973 362.34C603.937 362.304 604.884 362.089 605.846 362.027C606.761 361.963 607.664 361.792 608.56 361.603C610.091 361.288 611.408 360.39 612.685 359.533C613.986 358.661 615.014 357.447 615.874 356.151C616.322 355.491 616.652 354.734 616.752 353.939C616.816 353.436 616.652 352.864 616.208 352.579C615.787 352.344 615.281 352.424 614.836 352.536C613.843 352.798 612.914 353.25 611.981 353.67C610.639 354.279 609.315 354.92 608.002 355.586C606.823 356.207 605.61 356.867 604.767 357.928C603.862 359.083 603.164 360.384 602.539 361.704C600.806 362.44 599.056 363.133 597.31 363.835C596.453 364.181 595.639 364.623 594.819 365.046C595.059 364.558 595.277 364.059 595.553 363.592C595.723 363.623 595.928 363.791 596.088 363.649C596.617 363.181 597.194 362.773 597.74 362.327C598.717 361.503 599.824 360.802 600.589 359.755C601.317 358.78 601.741 357.627 602.24 356.527C602.69 355.4 603.045 354.227 603.187 353.02C603.215 352.712 603.223 352.364 603.021 352.107C602.763 351.765 602.292 351.696 601.89 351.72C601.201 351.784 600.473 351.99 600.005 352.532C599.317 353.309 598.786 354.208 598.249 355.092C597.295 356.759 595.979 358.183 594.996 359.831C594.681 360.362 594.385 360.922 594.264 361.533C594.153 362.238 594.615 362.857 595.019 363.386C594.701 364.038 594.382 364.69 594.102 365.36C593.827 365.616 593.453 365.75 593.153 365.981C592.297 366.558 591.569 367.3 590.885 368.068C589.847 369.284 589.062 370.696 588.386 372.139C587.741 373.468 578.147 399.058 577.606 400.432C577.559 400.641 577.788 400.828 577.983 400.738C578.111 400.648 578.155 400.484 578.226 400.354C579.174 398.049 589.191 371.511 590.591 369.438C590.873 369.472 591.154 369.399 591.435 369.441C591.956 369.511 592.465 369.653 592.968 369.807C593.392 370.7 593.779 371.615 594.274 372.471C594.901 373.477 595.815 374.28 596.821 374.896C597.529 375.353 598.373 375.666 599.226 375.6C600.873 375.426 602.384 374.207 602.807 372.591C602.941 372.092 602.731 371.509 602.267 371.259C601.6 370.88 600.886 370.597 600.205 370.245C599.271 369.764 598.336 369.285 597.383 368.843C596.544 368.497 595.671 368.101 594.74 368.174C593.969 368.185 593.23 368.556 592.724 369.13C592.158 369.014 591.594 368.839 591.01 368.871C591.962 367.711 593.056 366.624 594.407 365.938C595.56 365.355 596.689 364.721 597.895 364.253C598.321 364.099 598.767 364.29 599.194 364.343C599.431 364.403 599.732 364.37 599.889 364.594C600.43 365.306 600.951 366.035 601.421 366.798C601.793 367.381 602.204 367.991 602.845 368.305C604.491 369.219 606.519 369.259 608.286 368.688C609.209 368.412 610.1 367.921 610.688 367.14C610.944 366.789 611.155 366.317 610.965 365.888C610.736 365.329 610.116 365.104 609.592 364.912C607.478 364.353 605.341 363.883 603.2 363.446C602.186 363.303 601.129 363.488 600.213 363.943C599.848 363.866 599.477 363.823 599.108 363.765C600.272 363.304 601.433 362.834 602.584 362.346C602.708 362.28 602.844 362.332 602.973 362.34Z" fill="#3B342A"/>
<mask id="mask3_252_1881" style="mask-type:luminance" maskUnits="userSpaceOnUse" x="0" y="-141" width="732" height="732">
<path d="M0 -140.873H731.455V590.582H0V-140.873Z" fill="white"/>
</mask>
<g mask="url(#mask3_252_1881)">
<path d="M336.275 82.7763C336.295 82.7032 336.292 82.6226 336.221 82.5555C336.232 82.626 336.171 82.7289 336.275 82.7763Z" fill="#CFBC9F"/>
<path d="M336.282 80.6897C336.358 80.6497 336.374 80.5772 336.306 80.5156C336.289 80.5732 336.28 80.6301 336.282 80.6897Z" fill="#CFBC9F"/>
<path d="M356.369 86.2921C355.784 86.2541 355.161 86.1356 354.522 85.9792C354.051 85.8485 353.581 85.7387 353.101 85.5945C351.946 85.2565 350.777 84.9159 349.632 84.7032C348.992 84.5772 348.362 84.4885 347.734 84.4174C347.12 84.3497 346.511 84.3314 345.98 84.4458C345.808 84.4844 345.69 84.5833 345.578 84.6808C345.528 84.7167 345.566 84.7865 345.594 84.8441C345.842 85.2301 346.071 85.6209 346.356 85.9995C346.594 86.3307 346.856 86.6537 347.069 86.9944C347.311 87.3974 347.546 87.8044 347.739 88.2169C347.842 88.4336 347.909 88.6517 347.994 88.8691C348.089 89.138 348.223 89.4062 348.284 89.6764C348.43 90.1505 348.478 90.6144 348.548 91.0797C348.579 91.3466 348.561 91.6032 348.536 91.8545C348.509 92.2568 348.402 92.628 348.244 92.9666C348.154 93.1711 348.051 93.373 347.89 93.5233C347.739 93.6642 347.599 93.8186 347.423 93.9297C347.355 93.969 347.283 94.0069 347.216 94.0489C346.95 94.1877 346.652 94.2764 346.347 94.3225C346.024 94.3611 345.69 94.332 345.369 94.2527C344.996 94.1613 344.645 93.9927 344.32 93.7949C344.095 93.6622 343.896 93.4962 343.691 93.3371C343.17 92.9321 342.704 92.4607 342.268 91.9636C341.646 91.2497 341.08 90.4763 340.509 89.6859C340.232 89.3039 339.977 88.9104 339.695 88.523C339.486 88.2494 339.234 87.9988 339.004 87.734C338.726 87.4062 338.45 87.0743 338.169 86.7431C337.849 86.3713 337.574 85.9751 337.273 85.5891C337.075 85.3419 336.908 85.0811 336.72 84.8285C336.567 84.6246 336.415 84.4201 336.282 84.2074C336.14 83.9677 336.031 83.7191 335.924 83.4706C335.831 83.268 335.752 83.0628 335.705 82.8556C335.605 82.3598 335.575 81.8627 335.567 81.3697C335.596 81.2017 335.561 81.029 335.594 80.8617C335.595 80.7405 335.665 80.6158 335.579 80.4939C335.509 80.3754 335.451 80.2508 335.47 80.1275C335.492 79.837 335.547 79.5512 335.579 79.262C335.614 78.9152 335.701 78.5752 335.81 78.2413C335.974 77.7774 336.09 77.2992 336.396 76.8705C336.702 76.414 337.168 76.0145 337.687 75.6508C338.221 75.2783 338.847 74.9579 339.561 74.7114C340.111 74.5251 340.66 74.343 341.215 74.1702C341.762 74.0104 342.316 73.8546 342.952 73.7883C343.724 73.6907 344.579 73.6995 345.458 73.7862C346.344 73.8729 347.275 74.051 348.206 74.3775C348.634 74.5319 349.067 74.7127 349.454 74.9613C349.869 75.2153 350.235 75.5126 350.561 75.8194C350.895 76.133 351.174 76.4689 351.325 76.7906C351.447 77.0554 351.466 77.3047 351.333 77.4598C351.212 77.6914 350.912 77.793 350.689 77.9474C350.987 78.0558 351.282 78.1431 351.581 78.2644C352.48 78.6145 353.384 79.0805 354.231 79.6805C355.127 80.3158 355.936 81.0981 356.597 81.9365C357.176 82.6612 357.649 83.4374 357.933 84.1844C358.03 84.4702 358.125 84.7635 358.117 85.0053C358.143 85.5877 357.904 86.0083 357.487 86.1769C357.177 86.3131 356.777 86.3158 356.369 86.2921ZM341.006 78.1871C340.827 78.2244 340.639 78.2535 340.482 78.3138C340.698 78.3233 340.833 78.2298 341.006 78.1871ZM336.221 82.5556C336.232 82.626 336.171 82.7289 336.275 82.7763C336.295 82.7032 336.292 82.6226 336.221 82.5556ZM336.306 80.5156C336.289 80.5732 336.28 80.6301 336.282 80.6897C336.358 80.6497 336.374 80.5772 336.306 80.5156Z" fill="#CFBC9F"/>
<path d="M340.139 82.5088C340.137 82.5109 340.135 82.5136 340.133 82.5156C340.011 82.6456 339.809 82.6551 339.677 82.5359C338.986 82.2928 332.016 80.9044 327.24 83.6372C327.086 83.7266 326.888 83.6724 326.796 83.5166C326.706 83.3581 326.757 83.1746 326.921 83.073C331.988 80.1716 339.766 81.6013 340.148 82.0821C340.245 82.2041 340.241 82.3917 340.139 82.5088Z" fill="#3B342A"/>
<path d="M339.414 190.264C339.45 190.246 339.482 190.217 339.484 190.165C339.46 190.194 339.397 190.206 339.414 190.264Z" fill="#CFBC9F"/>
<path d="M340.246 189.543C340.289 189.56 340.323 189.54 340.324 189.492C340.295 189.505 340.269 189.521 340.246 189.543Z" fill="#CFBC9F"/>
<path d="M344.977 199.469C344.789 199.224 344.62 198.935 344.461 198.627C344.35 198.395 344.231 198.168 344.122 197.928C343.856 197.352 343.587 196.77 343.275 196.241C343.103 195.943 342.92 195.661 342.731 195.387C342.545 195.119 342.341 194.871 342.112 194.699C342.037 194.644 341.957 194.632 341.879 194.621C341.848 194.613 341.833 194.653 341.82 194.684C341.752 194.916 341.676 195.143 341.625 195.387C341.575 195.597 341.537 195.813 341.476 196.015C341.399 196.251 341.319 196.485 341.222 196.705C341.172 196.821 341.108 196.924 341.051 197.033C340.977 197.163 340.917 197.31 340.831 197.427C340.693 197.65 340.525 197.83 340.364 198.019C340.269 198.124 340.161 198.205 340.052 198.281C339.883 198.41 339.699 198.496 339.509 198.551C339.397 198.586 339.281 198.615 339.165 198.603C339.057 198.592 338.946 198.59 338.841 198.558C338.802 198.545 338.763 198.529 338.723 198.517C338.575 198.459 338.437 198.372 338.313 198.267C338.186 198.152 338.081 198.009 338.001 197.854C337.909 197.674 337.855 197.476 337.821 197.278C337.795 197.143 337.792 197.005 337.785 196.869C337.765 196.522 337.791 196.174 337.837 195.828C337.906 195.333 338.018 194.841 338.134 194.34C338.19 194.098 338.257 193.86 338.314 193.613C338.35 193.436 338.363 193.248 338.389 193.065C338.423 192.841 338.459 192.617 338.493 192.39C338.53 192.134 338.593 191.887 338.641 191.634C338.671 191.469 338.717 191.313 338.752 191.15C338.78 191.019 338.809 190.888 338.848 190.762C338.894 190.622 338.954 190.492 339.016 190.363C339.065 190.256 339.119 190.154 339.185 190.063C339.348 189.851 339.535 189.668 339.728 189.494C339.806 189.448 339.861 189.374 339.939 189.329C339.988 189.287 340.062 189.272 340.081 189.196C340.104 189.127 340.133 189.06 340.188 189.025C340.312 188.934 340.444 188.856 340.57 188.768C340.721 188.662 340.885 188.58 341.056 188.507C341.297 188.412 341.527 188.292 341.804 188.265C342.091 188.229 342.412 188.275 342.736 188.356C343.069 188.439 343.413 188.577 343.759 188.775C344.024 188.93 344.286 189.085 344.547 189.246C344.8 189.408 345.054 189.574 345.3 189.803C345.606 190.076 345.899 190.42 346.169 190.8C346.442 191.182 346.693 191.614 346.886 192.097C346.973 192.321 347.051 192.556 347.086 192.796C347.129 193.048 347.138 193.297 347.129 193.532C347.12 193.774 347.083 194.001 347.007 194.172C346.944 194.313 346.851 194.406 346.744 194.407C346.61 194.439 346.465 194.355 346.326 194.32C346.387 194.477 346.454 194.624 346.51 194.785C346.683 195.264 346.81 195.784 346.865 196.329C346.922 196.905 346.892 197.499 346.787 198.051C346.7 198.533 346.555 198.989 346.356 199.361C346.276 199.499 346.193 199.638 346.094 199.719C345.872 199.931 345.621 199.981 345.41 199.874C345.248 199.798 345.109 199.64 344.977 199.469ZM342.878 190.554C342.801 190.496 342.724 190.431 342.645 190.39C342.717 190.479 342.801 190.5 342.878 190.554ZM339.483 190.165C339.46 190.193 339.397 190.206 339.414 190.263C339.45 190.246 339.481 190.217 339.483 190.165ZM340.324 189.492C340.295 189.505 340.269 189.521 340.246 189.543C340.289 189.56 340.322 189.54 340.324 189.492Z" fill="#CFBC9F"/>
<path d="M340.859 191.707C340.859 191.707 340.855 191.707 340.854 191.707C340.76 191.703 340.687 191.626 340.688 191.532C340.546 191.173 338.683 187.921 335.942 186.969C335.853 186.939 335.806 186.842 335.836 186.751C335.868 186.66 335.959 186.616 336.056 186.647C338.965 187.656 341.09 191.244 341.032 191.562C341.017 191.643 340.941 191.707 340.859 191.707Z" fill="#3B342A"/>
<g opacity="0.103">
<path d="M115.654 86.2611C115.72 86.299 115.799 86.316 115.882 86.2645C115.812 86.2577 115.726 86.1731 115.654 86.2611Z" fill="#CFBC9F"/>
<path d="M117.671 86.7982C117.69 86.8828 117.757 86.9153 117.833 86.8659C117.782 86.8341 117.729 86.811 117.671 86.7982Z" fill="#CFBC9F"/>
<path d="M107.143 104.8C107.329 104.244 107.602 103.671 107.915 103.093C108.162 102.67 108.388 102.244 108.649 101.816C109.27 100.785 109.896 99.7415 110.393 98.6884C110.678 98.1019 110.924 97.5147 111.153 96.9261C111.374 96.3491 111.548 95.7639 111.572 95.2221C111.579 95.0453 111.512 94.9072 111.447 94.7731C111.425 94.7162 111.348 94.7351 111.285 94.7473C110.848 94.8896 110.412 95.0115 109.973 95.1909C109.591 95.3366 109.213 95.5072 108.83 95.6271C108.379 95.7585 107.925 95.8818 107.477 95.9637C107.241 96.0091 107.013 96.0172 106.781 96.0443C106.498 96.068 106.204 96.129 105.927 96.1195C105.432 96.1398 104.97 96.0687 104.502 96.0179C104.236 95.98 103.992 95.8973 103.756 95.8086C103.373 95.6806 103.042 95.4828 102.754 95.2438C102.579 95.1049 102.411 94.9539 102.307 94.7595C102.209 94.5773 102.095 94.4033 102.032 94.2048C102.011 94.129 101.993 94.0497 101.969 93.9746C101.903 93.6806 101.894 93.3718 101.927 93.0643C101.971 92.7426 102.084 92.4277 102.242 92.1371C102.426 91.7992 102.679 91.5025 102.953 91.2377C103.138 91.0548 103.349 90.9038 103.555 90.7467C104.079 90.3457 104.654 90.0145 105.245 89.7193C106.093 89.3 106.986 88.9499 107.896 88.5977C108.335 88.4277 108.781 88.28 109.227 88.106C109.545 87.9732 109.852 87.7938 110.166 87.6393C110.554 87.4538 110.945 87.2723 111.337 87.0833C111.778 86.8686 112.231 86.7034 112.681 86.5103C112.97 86.3817 113.265 86.2862 113.557 86.169C113.793 86.0728 114.03 85.978 114.269 85.9042C114.537 85.8276 114.805 85.7843 115.073 85.7443C115.292 85.7064 115.51 85.682 115.723 85.6895C116.228 85.7186 116.716 85.8168 117.196 85.934C117.351 86.0051 117.526 86.0152 117.679 86.0891C117.797 86.1209 117.9 86.2205 118.039 86.1683C118.171 86.1311 118.307 86.1067 118.421 86.1561C118.696 86.2516 118.959 86.3776 119.23 86.4819C119.557 86.6038 119.864 86.7751 120.159 86.9648C120.566 87.2418 120.999 87.4754 121.335 87.8805C121.699 88.2922 121.967 88.8442 122.187 89.4389C122.412 90.0498 122.562 90.7365 122.619 91.4903C122.659 92.0694 122.695 92.6471 122.72 93.2275C122.736 93.7971 122.746 94.3721 122.649 95.004C122.546 95.7754 122.321 96.6003 122.013 97.4286C121.705 98.263 121.294 99.1184 120.742 99.9359C120.484 100.31 120.199 100.684 119.86 100.994C119.509 101.331 119.129 101.609 118.749 101.847C118.361 102.09 117.965 102.274 117.615 102.338C117.328 102.39 117.083 102.344 116.966 102.176C116.773 102 116.751 101.684 116.658 101.429C116.477 101.69 116.318 101.953 116.125 102.211C115.558 102.992 114.877 103.748 114.081 104.413C113.239 105.118 112.277 105.703 111.298 106.128C110.449 106.503 109.579 106.763 108.784 106.848C108.483 106.87 108.175 106.886 107.943 106.817C107.373 106.694 107.027 106.356 106.97 105.911C106.917 105.576 107.016 105.188 107.143 104.8ZM118.889 92.0044C118.899 91.8215 118.92 91.6325 118.901 91.4653C118.836 91.6718 118.892 91.8256 118.889 92.0044ZM115.882 86.2645C115.812 86.2577 115.726 86.1731 115.654 86.2611C115.72 86.299 115.799 86.316 115.882 86.2645ZM117.833 86.8659C117.782 86.8341 117.729 86.811 117.671 86.7982C117.69 86.8828 117.757 86.9153 117.833 86.8659Z" fill="#CFBC9F"/>
<path d="M114.93 90.066C114.928 90.0633 114.927 90.0606 114.925 90.0579C114.83 89.9069 114.873 89.7098 115.022 89.6122C115.433 89.0061 118.548 82.618 117.121 77.3035C117.073 77.1321 117.176 76.9554 117.35 76.9059C117.526 76.8592 117.691 76.9547 117.747 77.1396C119.264 82.7779 115.903 89.936 115.341 90.1832C115.199 90.2455 115.018 90.1947 114.93 90.066Z" fill="#3B342A"/>
</g>
<path d="M191.913 176.764C191.917 176.804 191.935 176.843 191.983 176.861C191.964 176.829 191.973 176.767 191.913 176.764Z" fill="#CFBC9F"/>
<path d="M192.327 177.783C192.297 177.818 192.304 177.857 192.35 177.873C192.347 177.842 192.34 177.812 192.327 177.783Z" fill="#CFBC9F"/>
<path d="M181.405 179.062C181.698 178.964 182.025 178.897 182.369 178.846C182.625 178.816 182.876 178.776 183.139 178.75C183.771 178.684 184.409 178.616 185.01 178.492C185.347 178.425 185.673 178.343 185.993 178.252C186.306 178.162 186.608 178.05 186.843 177.888C186.92 177.834 186.957 177.762 186.993 177.693C187.01 177.666 186.977 177.639 186.952 177.617C186.754 177.478 186.564 177.333 186.35 177.205C186.167 177.091 185.975 176.985 185.803 176.862C185.605 176.713 185.408 176.562 185.232 176.399C185.138 176.314 185.062 176.22 184.977 176.132C184.877 176.02 184.758 175.915 184.674 175.796C184.508 175.594 184.392 175.376 184.265 175.164C184.197 175.04 184.154 174.911 184.116 174.783C184.048 174.581 184.027 174.379 184.037 174.182C184.039 174.064 184.05 173.945 184.098 173.84C184.144 173.741 184.181 173.638 184.245 173.548C184.27 173.515 184.297 173.483 184.322 173.449C184.425 173.328 184.552 173.225 184.692 173.141C184.841 173.058 185.009 173.006 185.182 172.98C185.382 172.95 185.588 172.963 185.786 172.994C185.922 173.014 186.053 173.055 186.184 173.092C186.52 173.185 186.841 173.322 187.153 173.477C187.598 173.701 188.03 173.966 188.467 174.238C188.678 174.369 188.881 174.509 189.096 174.642C189.252 174.734 189.426 174.806 189.59 174.889C189.791 174.994 189.993 175.101 190.196 175.206C190.427 175.324 190.64 175.462 190.864 175.59C191.011 175.672 191.144 175.765 191.286 175.851C191.401 175.92 191.517 175.99 191.624 176.067C191.741 176.156 191.844 176.255 191.946 176.355C192.031 176.436 192.111 176.519 192.175 176.611C192.324 176.833 192.437 177.07 192.54 177.309C192.559 177.397 192.61 177.474 192.628 177.562C192.652 177.622 192.642 177.697 192.708 177.739C192.766 177.783 192.82 177.832 192.835 177.896C192.883 178.042 192.913 178.192 192.955 178.34C193.007 178.516 193.032 178.699 193.046 178.884C193.058 179.143 193.097 179.4 193.034 179.67C192.976 179.954 192.828 180.242 192.648 180.523C192.461 180.811 192.22 181.093 191.92 181.356C191.689 181.556 191.458 181.755 191.221 181.95C190.986 182.138 190.748 182.324 190.45 182.484C190.093 182.685 189.674 182.852 189.227 182.986C188.778 183.12 188.288 183.218 187.768 183.246C187.529 183.256 187.281 183.254 187.042 183.21C186.789 183.169 186.552 183.097 186.331 183.013C186.106 182.926 185.903 182.818 185.764 182.692C185.651 182.587 185.593 182.469 185.627 182.366C185.64 182.229 185.766 182.119 185.844 181.999C185.676 182.006 185.515 182.022 185.345 182.023C184.837 182.032 184.302 181.985 183.769 181.861C183.205 181.73 182.654 181.511 182.164 181.233C181.737 180.996 181.351 180.711 181.063 180.403C180.958 180.283 180.854 180.159 180.809 180.039C180.679 179.76 180.713 179.507 180.882 179.342C181.006 179.213 181.201 179.132 181.405 179.062ZM190.521 179.949C190.601 179.894 190.687 179.843 190.751 179.782C190.644 179.821 190.597 179.893 190.521 179.949ZM191.983 176.861C191.964 176.829 191.972 176.767 191.913 176.764C191.917 176.804 191.935 176.843 191.983 176.861ZM192.35 177.873C192.347 177.842 192.339 177.812 192.327 177.783C192.297 177.818 192.304 177.857 192.35 177.873Z" fill="#CFBC9F"/>
<path d="M190.081 177.666C190.081 177.665 190.081 177.663 190.082 177.661C190.115 177.573 190.213 177.529 190.301 177.561C190.686 177.542 194.366 176.826 196.15 174.539C196.207 174.464 196.315 174.451 196.391 174.509C196.466 174.568 196.477 174.668 196.418 174.751C194.525 177.179 190.444 178.035 190.161 177.876C190.09 177.836 190.054 177.744 190.081 177.666Z" fill="#3B342A"/>
<path d="M668.177 133.667C668.182 133.707 668.199 133.746 668.248 133.765C668.228 133.733 668.237 133.67 668.177 133.667Z" fill="#CFBC9F"/>
<path d="M668.591 134.687C668.561 134.721 668.568 134.76 668.614 134.776C668.611 134.745 668.604 134.715 668.591 134.687Z" fill="#CFBC9F"/>
<path d="M657.669 135.965C657.962 135.867 658.289 135.801 658.633 135.749C658.889 135.719 659.14 135.679 659.404 135.653C660.035 135.587 660.673 135.52 661.274 135.395C661.612 135.329 661.937 135.246 662.258 135.155C662.571 135.065 662.872 134.953 663.108 134.791C663.184 134.737 663.221 134.666 663.257 134.596C663.274 134.569 663.242 134.542 663.217 134.52C663.018 134.381 662.829 134.236 662.614 134.108C662.432 133.994 662.239 133.888 662.067 133.765C661.869 133.616 661.672 133.465 661.496 133.302C661.402 133.218 661.326 133.123 661.241 133.035C661.141 132.923 661.022 132.819 660.938 132.699C660.772 132.497 660.656 132.28 660.529 132.067C660.461 131.943 660.418 131.814 660.38 131.686C660.312 131.484 660.291 131.282 660.301 131.085C660.304 130.967 660.314 130.848 660.363 130.743C660.409 130.644 660.445 130.541 660.509 130.452C660.535 130.418 660.562 130.386 660.586 130.352C660.689 130.231 660.816 130.128 660.956 130.045C661.106 129.961 661.274 129.909 661.446 129.883C661.647 129.854 661.852 129.866 662.05 129.898C662.187 129.917 662.317 129.958 662.449 129.995C662.784 130.089 663.105 130.225 663.417 130.38C663.863 130.605 664.294 130.869 664.731 131.141C664.942 131.272 665.145 131.413 665.36 131.545C665.517 131.637 665.69 131.709 665.855 131.793C666.056 131.897 666.257 132.005 666.461 132.11C666.691 132.227 666.904 132.366 667.129 132.494C667.275 132.575 667.408 132.668 667.551 132.754C667.666 132.823 667.781 132.893 667.888 132.97C668.005 133.059 668.109 133.158 668.21 133.258C668.295 133.339 668.375 133.422 668.44 133.514C668.588 133.736 668.701 133.973 668.804 134.212C668.823 134.3 668.875 134.377 668.892 134.465C668.916 134.525 668.906 134.6 668.973 134.642C669.03 134.686 669.084 134.735 669.099 134.799C669.147 134.945 669.177 135.096 669.219 135.243C669.271 135.419 669.297 135.602 669.31 135.787C669.322 136.046 669.362 136.303 669.298 136.573C669.24 136.857 669.093 137.145 668.912 137.426C668.726 137.715 668.484 137.996 668.184 138.259C667.953 138.46 667.722 138.658 667.485 138.853C667.25 139.041 667.012 139.227 666.715 139.387C666.357 139.589 665.938 139.755 665.492 139.889C665.042 140.023 664.552 140.122 664.033 140.149C663.793 140.159 663.545 140.158 663.307 140.114C663.053 140.072 662.816 140 662.596 139.916C662.37 139.829 662.167 139.721 662.029 139.595C661.916 139.49 661.857 139.372 661.891 139.27C661.904 139.132 662.03 139.022 662.108 138.903C661.941 138.909 661.779 138.926 661.609 138.926C661.101 138.935 660.566 138.888 660.033 138.764C659.469 138.633 658.918 138.414 658.428 138.137C658.001 137.899 657.615 137.614 657.327 137.306C657.222 137.186 657.118 137.062 657.073 136.943C656.944 136.663 656.977 136.41 657.146 136.245C657.27 136.116 657.465 136.035 657.669 135.965ZM666.785 136.852C666.865 136.798 666.951 136.746 667.015 136.685C666.908 136.724 666.861 136.796 666.785 136.852ZM668.247 133.764C668.228 133.732 668.237 133.67 668.177 133.667C668.182 133.707 668.199 133.746 668.247 133.764ZM668.614 134.776C668.611 134.745 668.604 134.715 668.591 134.687C668.561 134.721 668.568 134.76 668.614 134.776Z" fill="#CFBC9F"/>
<path d="M666.345 134.569C666.346 134.568 666.346 134.566 666.346 134.565C666.38 134.477 666.477 134.432 666.565 134.464C666.95 134.445 670.63 133.73 672.415 131.442C672.472 131.367 672.579 131.354 672.655 131.412C672.73 131.472 672.742 131.571 672.682 131.654C670.789 134.082 666.708 134.938 666.426 134.779C666.354 134.739 666.319 134.647 666.345 134.569Z" fill="#3B342A"/>
</g>
<mask id="mask4_252_1881" style="mask-type:luminance" maskUnits="userSpaceOnUse" x="54" y="-144" width="732" height="732">
<path d="M54.1819 -143.582H785.636V587.873H54.1819V-143.582Z" fill="white"/>
</mask>
<g mask="url(#mask4_252_1881)">
<g opacity="0.897">
<path d="M575.519 375.012C575.555 374.994 575.586 374.965 575.588 374.913C575.564 374.942 575.502 374.954 575.519 375.012Z" fill="#CFBC9F"/>
<path d="M576.35 374.291C576.393 374.308 576.427 374.289 576.429 374.24C576.399 374.253 576.373 374.269 576.35 374.291Z" fill="#CFBC9F"/>
<path d="M581.081 384.217C580.894 383.972 580.725 383.683 580.566 383.375C580.455 383.143 580.335 382.916 580.226 382.676C579.961 382.1 579.691 381.518 579.379 380.989C579.207 380.691 579.024 380.408 578.835 380.135C578.649 379.867 578.446 379.619 578.217 379.447C578.142 379.392 578.061 379.38 577.983 379.369C577.952 379.361 577.937 379.401 577.924 379.432C577.857 379.664 577.781 379.891 577.729 380.135C577.68 380.345 577.642 380.561 577.58 380.763C577.504 380.999 577.423 381.233 577.326 381.453C577.276 381.569 577.213 381.672 577.156 381.781C577.082 381.911 577.021 382.057 576.935 382.175C576.797 382.398 576.629 382.578 576.468 382.767C576.373 382.872 576.266 382.954 576.157 383.03C575.987 383.159 575.802 383.244 575.613 383.299C575.5 383.334 575.385 383.363 575.269 383.351C575.16 383.34 575.051 383.338 574.946 383.306C574.906 383.292 574.867 383.278 574.827 383.266C574.68 383.208 574.541 383.12 574.417 383.015C574.289 382.899 574.186 382.757 574.106 382.602C574.013 382.422 573.959 382.224 573.924 382.026C573.899 381.891 573.896 381.753 573.889 381.617C573.869 381.27 573.895 380.922 573.942 380.576C574.01 380.081 574.122 379.589 574.238 379.088C574.294 378.846 574.362 378.608 574.418 378.361C574.455 378.183 574.467 377.996 574.493 377.813C574.527 377.589 574.564 377.365 574.598 377.138C574.635 376.882 574.697 376.635 574.746 376.382C574.776 376.217 574.821 376.06 574.857 375.898C574.885 375.767 574.913 375.636 574.952 375.51C574.998 375.37 575.059 375.24 575.12 375.111C575.169 375.004 575.223 374.902 575.29 374.811C575.452 374.599 575.639 374.416 575.832 374.242C575.909 374.196 575.966 374.121 576.044 374.077C576.092 374.035 576.166 374.02 576.184 373.944C576.208 373.875 576.237 373.808 576.293 373.773C576.416 373.682 576.549 373.604 576.675 373.516C576.825 373.41 576.99 373.328 577.16 373.255C577.402 373.16 577.632 373.04 577.908 373.013C578.195 372.977 578.516 373.024 578.84 373.104C579.173 373.187 579.518 373.325 579.863 373.524C580.128 373.678 580.39 373.833 580.651 373.994C580.904 374.156 581.158 374.322 581.404 374.552C581.71 374.825 582.004 375.168 582.274 375.548C582.546 375.93 582.797 376.362 582.99 376.845C583.077 377.069 583.156 377.304 583.191 377.544C583.234 377.796 583.242 378.045 583.233 378.28C583.223 378.522 583.187 378.749 583.112 378.92C583.049 379.061 582.956 379.154 582.848 379.155C582.714 379.187 582.57 379.104 582.431 379.069C582.491 379.225 582.558 379.372 582.614 379.533C582.787 380.012 582.914 380.532 582.969 381.077C583.026 381.653 582.996 382.247 582.892 382.799C582.804 383.281 582.659 383.737 582.461 384.109C582.381 384.247 582.297 384.386 582.198 384.467C581.976 384.679 581.726 384.729 581.515 384.622C581.353 384.547 581.213 384.388 581.081 384.217ZM578.982 375.302C578.904 375.244 578.829 375.179 578.75 375.138C578.821 375.227 578.904 375.248 578.982 375.302ZM575.588 374.913C575.564 374.941 575.502 374.954 575.519 375.011C575.555 374.994 575.586 374.964 575.588 374.913ZM576.428 374.24C576.399 374.253 576.373 374.269 576.35 374.291C576.393 374.308 576.427 374.289 576.428 374.24Z" fill="#CFBC9F"/>
<path d="M576.963 376.454H576.959C576.864 376.451 576.791 376.375 576.793 376.28C576.65 375.921 574.787 372.669 572.046 371.717C571.958 371.687 571.91 371.59 571.941 371.499C571.972 371.408 572.063 371.365 572.161 371.395C575.07 372.404 577.195 375.992 577.136 376.31C577.121 376.391 577.045 376.454 576.963 376.454Z" fill="#3B342A"/>
</g>
<g opacity="0.297">
<path d="M509.779 385.364C509.784 385.404 509.802 385.443 509.85 385.461C509.83 385.429 509.839 385.367 509.779 385.364Z" fill="#CFBC9F"/>
<path d="M510.193 386.383C510.163 386.418 510.171 386.457 510.216 386.473C510.214 386.442 510.206 386.412 510.193 386.383Z" fill="#CFBC9F"/>
<path d="M499.272 387.662C499.565 387.564 499.892 387.498 500.235 387.446C500.491 387.416 500.743 387.376 501.006 387.35C501.637 387.284 502.275 387.216 502.877 387.092C503.214 387.025 503.54 386.943 503.86 386.852C504.173 386.762 504.474 386.65 504.71 386.488C504.787 386.434 504.824 386.362 504.86 386.293C504.877 386.266 504.844 386.239 504.819 386.217C504.621 386.078 504.431 385.933 504.216 385.805C504.034 385.691 503.842 385.585 503.67 385.462C503.471 385.313 503.275 385.162 503.099 384.999C503.005 384.914 502.929 384.82 502.843 384.732C502.743 384.62 502.625 384.515 502.541 384.396C502.375 384.194 502.258 383.976 502.132 383.764C502.063 383.64 502.021 383.511 501.983 383.383C501.915 383.181 501.894 382.979 501.903 382.782C501.906 382.664 501.916 382.545 501.965 382.44C502.011 382.341 502.048 382.238 502.111 382.148C502.137 382.115 502.164 382.083 502.189 382.049C502.291 381.928 502.419 381.825 502.558 381.741C502.708 381.658 502.876 381.606 503.049 381.58C503.249 381.55 503.454 381.563 503.653 381.594C503.789 381.614 503.92 381.655 504.051 381.692C504.386 381.785 504.707 381.922 505.02 382.077C505.465 382.301 505.897 382.566 506.333 382.838C506.545 382.969 506.747 383.109 506.963 383.242C507.119 383.334 507.292 383.406 507.457 383.489C507.658 383.594 507.859 383.701 508.063 383.806C508.293 383.924 508.507 384.062 508.731 384.19C508.877 384.272 509.011 384.365 509.153 384.451C509.268 384.52 509.383 384.59 509.49 384.667C509.607 384.756 509.711 384.855 509.813 384.955C509.898 385.036 509.978 385.119 510.042 385.211C510.191 385.433 510.304 385.67 510.407 385.909C510.426 385.997 510.477 386.074 510.495 386.162C510.518 386.222 510.509 386.297 510.575 386.339C510.633 386.383 510.686 386.432 510.702 386.496C510.749 386.642 510.78 386.792 510.822 386.94C510.874 387.116 510.899 387.299 510.912 387.484C510.925 387.743 510.964 388 510.9 388.27C510.843 388.554 510.695 388.842 510.514 389.123C510.328 389.412 510.086 389.693 509.787 389.956C509.556 390.157 509.324 390.355 509.088 390.55C508.853 390.738 508.614 390.924 508.317 391.084C507.96 391.286 507.54 391.452 507.094 391.586C506.644 391.72 506.155 391.819 505.635 391.846C505.395 391.856 505.148 391.854 504.909 391.81C504.656 391.769 504.419 391.697 504.198 391.613C503.972 391.526 503.769 391.418 503.631 391.292C503.518 391.187 503.46 391.069 503.494 390.967C503.507 390.829 503.632 390.719 503.71 390.599C503.543 390.606 503.382 390.622 503.212 390.623C502.703 390.632 502.169 390.585 501.636 390.461C501.072 390.33 500.52 390.111 500.031 389.833C499.603 389.596 499.217 389.311 498.929 389.003C498.825 388.883 498.72 388.759 498.676 388.639C498.546 388.36 498.579 388.107 498.749 387.942C498.873 387.813 499.068 387.732 499.272 387.662ZM508.388 388.549C508.468 388.494 508.554 388.443 508.618 388.382C508.511 388.421 508.463 388.493 508.388 388.549ZM509.85 385.461C509.83 385.429 509.839 385.367 509.779 385.364C509.784 385.404 509.802 385.443 509.85 385.461ZM510.216 386.473C510.214 386.442 510.206 386.412 510.193 386.383C510.163 386.418 510.171 386.457 510.216 386.473Z" fill="#CFBC9F"/>
<path d="M507.947 386.266C507.948 386.265 507.948 386.263 507.949 386.261C507.982 386.173 508.079 386.129 508.167 386.161C508.553 386.142 512.233 385.426 514.017 383.139C514.074 383.064 514.182 383.051 514.258 383.109C514.333 383.168 514.344 383.268 514.285 383.351C512.392 385.779 508.31 386.635 508.028 386.476C507.957 386.436 507.921 386.344 507.947 386.266Z" fill="#3B342A"/>
</g>
</g>
</g>
</svg>
