<svg width="930" height="930" viewBox="0 0 930 930" fill="none" xmlns="http://www.w3.org/2000/svg">
<g clip-path="url(#clip0_287_925)">
<mask id="mask0_287_925" style="mask-type:luminance" maskUnits="userSpaceOnUse" x="124" y="124" width="681" height="681">
<path d="M294.556 759.173C457.234 853.095 665.25 797.358 759.173 634.679C853.095 472.001 797.358 263.984 634.679 170.062C472.001 76.1392 263.984 131.877 170.062 294.556C76.1393 457.234 131.877 665.25 294.556 759.173Z" fill="white"/>
</mask>
<g mask="url(#mask0_287_925)">
<path d="M544.727 135.297C551.722 139.335 560.667 136.939 564.706 129.944C568.744 122.948 566.348 114.004 559.352 109.965C552.357 105.926 543.413 108.323 539.374 115.318C535.335 122.313 537.732 131.258 544.727 135.297Z" fill="#5EE3D4"/>
<path d="M576.455 153.615C583.45 157.653 592.395 155.257 596.434 148.261C600.472 141.266 598.076 132.322 591.08 128.283C584.085 124.244 575.141 126.641 571.102 133.636C567.063 140.631 569.46 149.576 576.455 153.615Z" fill="#5EE3D4"/>
<path d="M608.141 171.909C615.136 175.947 624.081 173.551 628.119 166.555C632.158 159.56 629.761 150.615 622.766 146.577C615.771 142.538 606.826 144.935 602.787 151.93C598.749 158.925 601.145 167.87 608.141 171.909Z" fill="#5EE3D4"/>
<path d="M449.073 125.18C456.068 129.218 465.013 126.822 469.051 119.826C473.09 112.831 470.693 103.886 463.698 99.8478C456.703 95.8091 447.758 98.2059 443.72 105.201C439.681 112.196 442.078 121.141 449.073 125.18Z" fill="#5EE3D4"/>
<path d="M480.8 143.497C487.796 147.536 496.74 145.139 500.779 138.144C504.818 131.149 502.421 122.204 495.426 118.166C488.43 114.127 479.486 116.524 475.447 123.519C471.408 130.514 473.805 139.459 480.8 143.497Z" fill="#5EE3D4"/>
<path d="M512.486 161.791C519.482 165.83 528.426 163.433 532.465 156.438C536.504 149.443 534.107 140.498 527.112 136.46C520.117 132.421 511.172 134.818 507.133 141.813C503.094 148.808 505.491 157.753 512.486 161.791Z" fill="#5EE3D4"/>
<path d="M544.214 180.11C551.21 184.148 560.154 181.751 564.193 174.756C568.232 167.761 565.835 158.816 558.84 154.778C551.845 150.739 542.9 153.136 538.861 160.131C534.823 167.126 537.219 176.071 544.214 180.11Z" fill="#5EE3D4"/>
<path d="M575.942 198.428C582.937 202.466 591.882 200.07 595.92 193.074C599.959 186.079 597.562 177.135 590.567 173.096C583.572 169.057 574.627 171.454 570.589 178.449C566.55 185.444 568.947 194.389 575.942 198.428Z" fill="#5EE3D4"/>
<path d="M607.67 216.745C614.665 220.784 623.61 218.387 627.649 211.392C631.687 204.397 629.29 195.452 622.295 191.414C615.3 187.375 606.355 189.772 602.317 196.767C598.278 203.762 600.675 212.707 607.67 216.745Z" fill="#5EE3D4"/>
<path d="M378.792 129.712C385.787 133.751 394.732 131.354 398.771 124.359C402.809 117.364 400.413 108.419 393.417 104.381C386.422 100.342 377.477 102.739 373.439 109.734C369.4 116.729 371.797 125.674 378.792 129.712Z" fill="#5EE3D4"/>
<path d="M410.52 148.03C417.515 152.069 426.46 149.672 430.499 142.677C434.537 135.682 432.141 126.737 425.145 122.698C418.15 118.66 409.206 121.056 405.167 128.052C401.128 135.047 403.525 143.992 410.52 148.03Z" fill="#5EE3D4"/>
<path d="M442.206 166.324C449.201 170.363 458.145 167.966 462.184 160.971C466.223 153.976 463.826 145.031 456.831 140.992C449.836 136.954 440.891 139.35 436.852 146.346C432.814 153.341 435.21 162.285 442.206 166.324Z" fill="#5EE3D4"/>
<path d="M473.934 184.642C480.929 188.681 489.874 186.284 493.912 179.289C497.951 172.294 495.554 163.349 488.559 159.31C481.564 155.272 472.619 157.668 468.58 164.663C464.542 171.659 466.938 180.603 473.934 184.642Z" fill="#5EE3D4"/>
<path d="M505.662 202.96C512.657 206.999 521.602 204.602 525.64 197.607C529.679 190.612 527.282 181.667 520.287 177.628C513.292 173.59 504.347 175.986 500.308 182.982C496.27 189.977 498.666 198.921 505.662 202.96Z" fill="#5EE3D4"/>
<path d="M537.389 221.278C544.384 225.317 553.329 222.92 557.368 215.925C561.406 208.93 559.01 199.985 552.015 195.946C545.019 191.908 536.075 194.304 532.036 201.3C527.997 208.295 530.394 217.24 537.389 221.278Z" fill="#5EE3D4"/>
<path d="M569.075 239.572C576.07 243.611 585.015 241.214 589.054 234.219C593.092 227.224 590.696 218.279 583.701 214.24C576.705 210.201 567.761 212.598 563.722 219.593C559.683 226.589 562.08 235.533 569.075 239.572Z" fill="#5EE3D4"/>
<path d="M283.138 119.595C290.133 123.634 299.078 121.237 303.116 114.242C307.155 107.247 304.758 98.302 297.763 94.2633C290.768 90.2247 281.823 92.6214 277.785 99.6166C273.746 106.612 276.143 115.556 283.138 119.595Z" fill="#5EE3D4"/>
<path d="M314.866 137.913C321.861 141.952 330.806 139.555 334.844 132.56C338.883 125.565 336.486 116.62 329.491 112.581C322.496 108.543 313.551 110.939 309.513 117.934C305.474 124.93 307.871 133.874 314.866 137.913Z" fill="#5EE3D4"/>
<path d="M346.551 156.207C353.546 160.246 362.491 157.849 366.53 150.854C370.569 143.859 368.172 134.914 361.177 130.875C354.181 126.836 345.237 129.233 341.198 136.228C337.159 143.224 339.556 152.168 346.551 156.207Z" fill="#5EE3D4"/>
<path d="M378.279 174.525C385.275 178.564 394.219 176.167 398.258 169.172C402.297 162.177 399.9 153.232 392.905 149.194C385.909 145.155 376.965 147.552 372.926 154.547C368.887 161.542 371.284 170.487 378.279 174.525Z" fill="#5EE3D4"/>
<path d="M410.007 192.843C417.002 196.882 425.947 194.485 429.985 187.49C434.024 180.495 431.627 171.55 424.632 167.511C417.637 163.473 408.692 165.869 404.654 172.865C400.615 179.86 403.012 188.804 410.007 192.843Z" fill="#5EE3D4"/>
<path d="M441.735 211.161C448.73 215.2 457.675 212.803 461.713 205.808C465.752 198.813 463.355 189.868 456.36 185.829C449.365 181.791 440.42 184.188 436.382 191.183C432.343 198.178 434.74 207.123 441.735 211.161Z" fill="#5EE3D4"/>
<path d="M473.421 229.455C480.416 233.494 489.361 231.097 493.399 224.102C497.438 217.107 495.041 208.162 488.046 204.123C481.051 200.085 472.106 202.481 468.068 209.476C464.029 216.472 466.426 225.416 473.421 229.455Z" fill="#5EE3D4"/>
<path d="M505.148 247.773C512.144 251.812 521.088 249.415 525.127 242.42C529.166 235.425 526.769 226.48 519.774 222.441C512.779 218.403 503.834 220.799 499.795 227.795C495.757 234.79 498.153 243.734 505.148 247.773Z" fill="#5EE3D4"/>
<path d="M536.877 266.091C543.872 270.13 552.816 267.733 556.855 260.738C560.894 253.743 558.497 244.798 551.502 240.759C544.507 236.721 535.562 239.117 531.523 246.113C527.485 253.108 529.881 262.053 536.877 266.091Z" fill="#5EE3D4"/>
<path d="M568.604 284.409C575.599 288.448 584.544 286.051 588.583 279.056C592.621 272.061 590.225 263.116 583.229 259.078C576.234 255.039 567.289 257.436 563.251 264.431C559.212 271.426 561.609 280.371 568.604 284.409Z" fill="#5EE3D4"/>
<path d="M244.585 142.446C251.58 146.484 260.525 144.088 264.564 137.092C268.602 130.097 266.206 121.153 259.21 117.114C252.215 113.075 243.27 115.472 239.232 122.467C235.193 129.462 237.59 138.407 244.585 142.446Z" fill="#5EE3D4"/>
<path d="M276.271 160.74C283.266 164.778 292.211 162.382 296.25 155.386C300.288 148.391 297.892 139.447 290.896 135.408C283.901 131.369 274.956 133.766 270.918 140.761C266.879 147.756 269.276 156.701 276.271 160.74Z" fill="#5EE3D4"/>
<path d="M307.999 179.058C314.994 183.096 323.938 180.7 327.977 173.705C332.016 166.709 329.619 157.765 322.624 153.726C315.629 149.687 306.684 152.084 302.645 159.079C298.607 166.074 301.003 175.019 307.999 179.058Z" fill="#5EE3D4"/>
<path d="M339.727 197.376C346.722 201.414 355.666 199.018 359.705 192.022C363.744 185.027 361.347 176.083 354.352 172.044C347.357 168.005 338.412 170.402 334.373 177.397C330.335 184.392 332.731 193.337 339.727 197.376Z" fill="#5EE3D4"/>
<path d="M371.455 215.694C378.45 219.732 387.395 217.336 391.433 210.341C395.472 203.345 393.075 194.401 386.08 190.362C379.085 186.323 370.14 188.72 366.101 195.715C362.063 202.71 364.459 211.655 371.455 215.694Z" fill="#5EE3D4"/>
<path d="M403.14 233.988C410.135 238.026 419.08 235.63 423.119 228.634C427.157 221.639 424.761 212.695 417.766 208.656C410.77 204.617 401.826 207.014 397.787 214.009C393.748 221.004 396.145 229.949 403.14 233.988Z" fill="#5EE3D4"/>
<path d="M434.868 252.306C441.863 256.344 450.808 253.948 454.847 246.953C458.885 239.957 456.489 231.013 449.494 226.974C442.498 222.935 433.554 225.332 429.515 232.327C425.476 239.322 427.873 248.267 434.868 252.306Z" fill="#5EE3D4"/>
<path d="M466.596 270.624C473.591 274.662 482.536 272.266 486.574 265.27C490.613 258.275 488.216 249.331 481.221 245.292C474.226 241.253 465.281 243.65 461.243 250.645C457.204 257.64 459.601 266.585 466.596 270.624Z" fill="#5EE3D4"/>
<path d="M498.324 288.942C505.319 292.98 514.264 290.584 518.302 283.589C522.341 276.593 519.944 267.649 512.949 263.61C505.954 259.571 497.009 261.968 492.971 268.963C488.932 275.958 491.329 284.903 498.324 288.942Z" fill="#5EE3D4"/>
<path d="M530.009 307.236C537.004 311.274 545.949 308.878 549.988 301.883C554.027 294.887 551.63 285.943 544.635 281.904C537.639 277.865 528.695 280.262 524.656 287.257C520.617 294.252 523.014 303.197 530.009 307.236Z" fill="#5EE3D4"/>
<path d="M244.072 187.259C251.068 191.297 260.012 188.901 264.051 181.905C268.09 174.91 265.693 165.966 258.698 161.927C251.702 157.888 242.758 160.285 238.719 167.28C234.68 174.275 237.077 183.22 244.072 187.259Z" fill="#5EE3D4"/>
<path d="M275.8 205.577C282.795 209.615 291.74 207.219 295.778 200.224C299.817 193.228 297.42 184.284 290.425 180.245C283.43 176.206 274.485 178.603 270.447 185.598C266.408 192.593 268.805 201.538 275.8 205.577Z" fill="#5EE3D4"/>
<path d="M307.486 223.87C314.481 227.909 323.426 225.512 327.464 218.517C331.503 211.522 329.106 202.577 322.111 198.539C315.116 194.5 306.171 196.897 302.133 203.892C298.094 210.887 300.491 219.832 307.486 223.87Z" fill="#5EE3D4"/>
<path d="M339.213 242.189C346.209 246.227 355.153 243.831 359.192 236.835C363.231 229.84 360.834 220.896 353.839 216.857C346.844 212.818 337.899 215.215 333.86 222.21C329.822 229.205 332.218 238.15 339.213 242.189Z" fill="#5EE3D4"/>
<path d="M370.941 260.507C377.937 264.545 386.881 262.149 390.92 255.153C394.959 248.158 392.562 239.214 385.567 235.175C378.572 231.136 369.627 233.533 365.588 240.528C361.55 247.523 363.946 256.468 370.941 260.507Z" fill="#5EE3D4"/>
<path d="M402.669 278.825C409.665 282.864 418.609 280.467 422.648 273.472C426.687 266.476 424.29 257.532 417.295 253.493C410.3 249.454 401.355 251.851 397.316 258.846C393.278 265.841 395.674 274.786 402.669 278.825Z" fill="#5EE3D4"/>
<path d="M434.355 297.119C441.35 301.157 450.295 298.76 454.334 291.765C458.372 284.77 455.976 275.825 448.98 271.787C441.985 267.748 433.04 270.145 429.002 277.14C424.963 284.135 427.36 293.08 434.355 297.119Z" fill="#5EE3D4"/>
<path d="M466.083 315.437C473.078 319.475 482.023 317.079 486.062 310.083C490.1 303.088 487.704 294.144 480.708 290.105C473.713 286.066 464.768 288.463 460.73 295.458C456.691 302.453 459.088 311.398 466.083 315.437Z" fill="#5EE3D4"/>
<path d="M497.811 333.755C504.806 337.793 513.75 335.397 517.789 328.402C521.828 321.406 519.431 312.462 512.436 308.423C505.441 304.384 496.496 306.781 492.457 313.776C488.419 320.771 490.815 329.716 497.811 333.755Z" fill="#5EE3D4"/>
<path d="M529.539 352.073C536.534 356.112 545.478 353.715 549.517 346.72C553.556 339.724 551.159 330.78 544.164 326.741C537.169 322.702 528.224 325.099 524.185 332.094C520.147 339.09 522.543 348.034 529.539 352.073Z" fill="#5EE3D4"/>
<path d="M205.52 210.11C212.515 214.148 221.459 211.751 225.498 204.756C229.537 197.761 227.14 188.816 220.145 184.778C213.15 180.739 204.205 183.136 200.166 190.131C196.128 197.126 198.524 206.071 205.52 210.11Z" fill="#5EE3D4"/>
<path d="M237.205 228.403C244.2 232.442 253.145 230.045 257.184 223.05C261.222 216.055 258.826 207.11 251.83 203.071C244.835 199.033 235.891 201.43 231.852 208.425C227.813 215.42 230.21 224.365 237.205 228.403Z" fill="#5EE3D4"/>
<path d="M268.933 246.721C275.928 250.76 284.873 248.363 288.912 241.368C292.95 234.373 290.554 225.428 283.558 221.39C276.563 217.351 267.619 219.748 263.58 226.743C259.541 233.738 261.938 242.683 268.933 246.721Z" fill="#5EE3D4"/>
<path d="M300.661 265.039C307.656 269.078 316.601 266.681 320.64 259.686C324.678 252.691 322.282 243.746 315.286 239.708C308.291 235.669 299.347 238.066 295.308 245.061C291.269 252.056 293.666 261.001 300.661 265.039Z" fill="#5EE3D4"/>
<path d="M332.389 283.358C339.384 287.396 348.329 285 352.367 278.004C356.406 271.009 354.009 262.064 347.014 258.026C340.019 253.987 331.074 256.384 327.035 263.379C322.997 270.374 325.394 279.319 332.389 283.358Z" fill="#5EE3D4"/>
<path d="M364.075 301.651C371.07 305.69 380.015 303.293 384.053 296.298C388.092 289.303 385.695 280.358 378.7 276.319C371.705 272.281 362.76 274.678 358.722 281.673C354.683 288.668 357.08 297.613 364.075 301.651Z" fill="#5EE3D4"/>
<path d="M395.802 319.969C402.797 324.008 411.742 321.611 415.781 314.616C419.82 307.621 417.423 298.676 410.428 294.638C403.432 290.599 394.488 292.996 390.449 299.991C386.41 306.986 388.807 315.931 395.802 319.969Z" fill="#5EE3D4"/>
<path d="M427.53 338.288C434.525 342.326 443.47 339.929 447.509 332.934C451.548 325.939 449.151 316.994 442.156 312.956C435.16 308.917 426.216 311.314 422.177 318.309C418.138 325.304 420.535 334.249 427.53 338.288Z" fill="#5EE3D4"/>
<path d="M459.258 356.605C466.254 360.644 475.198 358.247 479.237 351.252C483.276 344.257 480.879 335.312 473.884 331.274C466.888 327.235 457.944 329.632 453.905 336.627C449.866 343.622 452.263 352.567 459.258 356.605Z" fill="#5EE3D4"/>
<path d="M490.944 374.899C497.939 378.938 506.884 376.541 510.922 369.546C514.961 362.551 512.564 353.606 505.569 349.568C498.574 345.529 489.629 347.926 485.591 354.921C481.552 361.916 483.949 370.861 490.944 374.899Z" fill="#5EE3D4"/>
<path d="M205.006 254.922C212.002 258.961 220.946 256.564 224.985 249.569C229.024 242.574 226.627 233.629 219.632 229.59C212.637 225.552 203.692 227.949 199.653 234.944C195.614 241.939 198.011 250.884 205.006 254.922Z" fill="#5EE3D4"/>
<path d="M236.734 273.24C243.73 277.279 252.674 274.882 256.713 267.887C260.752 260.892 258.355 251.947 251.36 247.909C244.365 243.87 235.42 246.267 231.381 253.262C227.343 260.257 229.739 269.202 236.734 273.24Z" fill="#5EE3D4"/>
<path d="M268.42 291.534C275.415 295.573 284.36 293.176 288.399 286.181C292.437 279.186 290.04 270.241 283.045 266.203C276.05 262.164 267.105 264.561 263.067 271.556C259.028 278.551 261.425 287.496 268.42 291.534Z" fill="#5EE3D4"/>
<path d="M300.148 309.852C307.143 313.891 316.088 311.494 320.127 304.499C324.165 297.504 321.768 288.559 314.773 284.521C307.778 280.482 298.833 282.879 294.795 289.874C290.756 296.869 293.153 305.814 300.148 309.852Z" fill="#5EE3D4"/>
<path d="M331.876 328.17C338.871 332.209 347.816 329.812 351.855 322.817C355.893 315.822 353.497 306.877 346.501 302.839C339.506 298.8 330.561 301.197 326.523 308.192C322.484 315.187 324.881 324.132 331.876 328.17Z" fill="#5EE3D4"/>
<path d="M363.604 346.488C370.599 350.527 379.543 348.13 383.582 341.135C387.621 334.14 385.224 325.195 378.229 321.157C371.234 317.118 362.289 319.515 358.25 326.51C354.212 333.505 356.608 342.45 363.604 346.488Z" fill="#5EE3D4"/>
<path d="M395.29 364.782C402.285 368.821 411.229 366.424 415.268 359.429C419.307 352.434 416.91 343.489 409.915 339.451C402.92 335.412 393.975 337.809 389.936 344.804C385.898 351.799 388.294 360.744 395.29 364.782Z" fill="#5EE3D4"/>
<path d="M427.017 383.1C434.012 387.139 442.957 384.742 446.996 377.747C451.034 370.752 448.638 361.807 441.642 357.768C434.647 353.73 425.703 356.127 421.664 363.122C417.625 370.117 420.022 379.062 427.017 383.1Z" fill="#5EE3D4"/>
<path d="M458.745 401.418C465.74 405.457 474.685 403.06 478.724 396.065C482.762 389.07 480.366 380.125 473.37 376.087C466.375 372.048 457.431 374.445 453.392 381.44C449.353 388.435 451.75 397.38 458.745 401.418Z" fill="#5EE3D4"/>
<path d="M490.473 419.736C497.468 423.775 506.413 421.378 510.452 414.383C514.49 407.388 512.094 398.443 505.098 394.405C498.103 390.366 489.159 392.763 485.12 399.758C481.081 406.753 483.478 415.698 490.473 419.736Z" fill="#5EE3D4"/>
<path d="M166.454 277.773C173.449 281.812 182.394 279.415 186.433 272.42C190.471 265.425 188.075 256.48 181.079 252.441C174.084 248.403 165.14 250.799 161.101 257.795C157.062 264.79 159.459 273.734 166.454 277.773Z" fill="#5EE3D4"/>
<path d="M198.14 296.067C205.135 300.105 214.08 297.709 218.118 290.714C222.157 283.718 219.76 274.774 212.765 270.735C205.77 266.696 196.825 269.093 192.786 276.088C188.748 283.083 191.145 292.028 198.14 296.067Z" fill="#5EE3D4"/>
<path d="M229.868 314.385C236.863 318.424 245.808 316.027 249.846 309.032C253.885 302.037 251.488 293.092 244.493 289.053C237.498 285.014 228.553 287.411 224.514 294.406C220.476 301.402 222.873 310.346 229.868 314.385Z" fill="#5EE3D4"/>
<path d="M261.595 332.703C268.59 336.742 277.535 334.345 281.574 327.35C285.612 320.355 283.216 311.41 276.221 307.371C269.225 303.333 260.281 305.729 256.242 312.724C252.203 319.72 254.6 328.664 261.595 332.703Z" fill="#5EE3D4"/>
<path d="M293.323 351.021C300.318 355.06 309.263 352.663 313.302 345.668C317.341 338.673 314.944 329.728 307.949 325.689C300.953 321.651 292.009 324.047 287.97 331.043C283.931 338.038 286.328 346.982 293.323 351.021Z" fill="#5EE3D4"/>
<path d="M325.009 369.315C332.004 373.354 340.949 370.957 344.987 363.962C349.026 356.966 346.629 348.022 339.634 343.983C332.639 339.944 323.694 342.341 319.656 349.336C315.617 356.331 318.014 365.276 325.009 369.315Z" fill="#5EE3D4"/>
<path d="M356.737 387.633C363.732 391.672 372.677 389.275 376.715 382.28C380.754 375.285 378.357 366.34 371.362 362.301C364.367 358.263 355.422 360.659 351.384 367.654C347.345 374.65 349.742 383.594 356.737 387.633Z" fill="#5EE3D4"/>
<path d="M388.465 405.951C395.46 409.99 404.405 407.593 408.443 400.598C412.482 393.603 410.085 384.658 403.09 380.619C396.095 376.581 387.15 378.977 383.112 385.973C379.073 392.968 381.47 401.912 388.465 405.951Z" fill="#5EE3D4"/>
<path d="M420.192 424.269C427.188 428.308 436.132 425.911 440.171 418.916C444.21 411.921 441.813 402.976 434.818 398.937C427.823 394.899 418.878 397.295 414.839 404.291C410.801 411.286 413.197 420.231 420.192 424.269Z" fill="#5EE3D4"/>
<path d="M451.878 442.563C458.874 446.602 467.818 444.205 471.857 437.21C475.896 430.214 473.499 421.27 466.504 417.231C459.509 413.192 450.564 415.589 446.525 422.584C442.487 429.58 444.883 438.524 451.878 442.563Z" fill="#5EE3D4"/>
<path d="M639.911 190.251C646.906 194.29 655.851 191.893 659.889 184.898C663.928 177.902 661.531 168.958 654.536 164.919C647.541 160.88 638.596 163.277 634.557 170.272C630.519 177.268 632.916 186.212 639.911 190.251Z" fill="#5EE3D4"/>
<path d="M671.639 208.569C678.634 212.607 687.579 210.211 691.617 203.216C695.656 196.22 693.259 187.276 686.264 183.237C679.269 179.198 670.324 181.595 666.285 188.59C662.247 195.585 664.644 204.53 671.639 208.569Z" fill="#5EE3D4"/>
<path d="M703.366 226.887C710.361 230.926 719.306 228.529 723.345 221.534C727.383 214.538 724.987 205.594 717.992 201.555C710.996 197.516 702.052 199.913 698.013 206.908C693.974 213.903 696.371 222.848 703.366 226.887Z" fill="#5EE3D4"/>
<path d="M735.094 245.205C742.089 249.244 751.034 246.847 755.073 239.852C759.111 232.857 756.715 223.912 749.72 219.873C742.724 215.835 733.78 218.231 729.741 225.226C725.702 232.222 728.099 241.166 735.094 245.205Z" fill="#5EE3D4"/>
<path d="M766.78 263.499C773.775 267.537 782.72 265.141 786.758 258.145C790.797 251.15 788.4 242.206 781.405 238.167C774.41 234.128 765.465 236.525 761.427 243.52C757.388 250.515 759.785 259.46 766.78 263.499Z" fill="#5EE3D4"/>
<path d="M798.508 281.817C805.503 285.855 814.448 283.459 818.486 276.464C822.525 269.468 820.128 260.524 813.133 256.485C806.138 252.446 797.193 254.843 793.155 261.838C789.116 268.833 791.513 277.778 798.508 281.817Z" fill="#5EE3D4"/>
<path d="M639.44 235.088C646.435 239.127 655.38 236.73 659.419 229.735C663.457 222.74 661.06 213.795 654.065 209.756C647.07 205.718 638.125 208.114 634.087 215.109C630.048 222.105 632.445 231.049 639.44 235.088Z" fill="#5EE3D4"/>
<path d="M671.126 253.382C678.121 257.42 687.065 255.024 691.104 248.029C695.143 241.033 692.746 232.089 685.751 228.05C678.756 224.011 669.811 226.408 665.772 233.403C661.734 240.398 664.13 249.343 671.126 253.382Z" fill="#5EE3D4"/>
<path d="M702.854 271.7C709.849 275.739 718.793 273.342 722.832 266.347C726.871 259.351 724.474 250.407 717.479 246.368C710.484 242.329 701.539 244.726 697.5 251.721C693.462 258.716 695.858 267.661 702.854 271.7Z" fill="#5EE3D4"/>
<path d="M734.581 290.018C741.576 294.057 750.521 291.66 754.56 284.665C758.598 277.67 756.202 268.725 749.206 264.686C742.211 260.648 733.267 263.044 729.228 270.039C725.189 277.035 727.586 285.979 734.581 290.018Z" fill="#5EE3D4"/>
<path d="M766.309 308.336C773.304 312.375 782.249 309.978 786.288 302.983C790.326 295.988 787.93 287.043 780.934 283.004C773.939 278.966 764.995 281.362 760.956 288.358C756.917 295.353 759.314 304.297 766.309 308.336Z" fill="#5EE3D4"/>
<path d="M797.995 326.63C804.99 330.668 813.935 328.272 817.973 321.277C822.012 314.281 819.615 305.337 812.62 301.298C805.625 297.259 796.68 299.656 792.641 306.651C788.603 313.646 791 322.591 797.995 326.63Z" fill="#5EE3D4"/>
<path d="M600.845 257.914C607.84 261.953 616.785 259.556 620.823 252.561C624.862 245.566 622.465 236.621 615.47 232.583C608.475 228.544 599.53 230.941 595.492 237.936C591.453 244.931 593.85 253.876 600.845 257.914Z" fill="#5EE3D4"/>
<path d="M632.573 276.233C639.568 280.271 648.513 277.875 652.551 270.879C656.59 263.884 654.193 254.939 647.198 250.901C640.203 246.862 631.258 249.259 627.22 256.254C623.181 263.249 625.578 272.194 632.573 276.233Z" fill="#5EE3D4"/>
<path d="M664.301 294.551C671.296 298.589 680.241 296.193 684.279 289.197C688.318 282.202 685.921 273.258 678.926 269.219C671.931 265.18 662.986 267.577 658.948 274.572C654.909 281.567 657.306 290.512 664.301 294.551Z" fill="#5EE3D4"/>
<path d="M696.028 312.869C703.024 316.907 711.968 314.51 716.007 307.515C720.046 300.52 717.649 291.575 710.654 287.537C703.658 283.498 694.714 285.895 690.675 292.89C686.636 299.885 689.033 308.83 696.028 312.869Z" fill="#5EE3D4"/>
<path d="M727.714 331.163C734.71 335.201 743.654 332.804 747.693 325.809C751.732 318.814 749.335 309.869 742.34 305.831C735.345 301.792 726.4 304.189 722.361 311.184C718.323 318.179 720.719 327.124 727.714 331.163Z" fill="#5EE3D4"/>
<path d="M759.442 349.481C766.438 353.519 775.382 351.123 779.421 344.127C783.46 337.132 781.063 328.187 774.068 324.149C767.073 320.11 758.128 322.507 754.089 329.502C750.051 336.497 752.447 345.442 759.442 349.481Z" fill="#5EE3D4"/>
<path d="M791.17 367.798C798.165 371.837 807.11 369.44 811.149 362.445C815.187 355.45 812.79 346.505 805.795 342.467C798.8 338.428 789.855 340.825 785.817 347.82C781.778 354.815 784.175 363.76 791.17 367.798Z" fill="#5EE3D4"/>
<path d="M600.374 302.752C607.369 306.79 616.314 304.394 620.353 297.398C624.391 290.403 621.995 281.459 614.999 277.42C608.004 273.381 599.06 275.778 595.021 282.773C590.982 289.768 593.379 298.713 600.374 302.752Z" fill="#5EE3D4"/>
<path d="M632.06 321.045C639.055 325.084 648 322.687 652.039 315.692C656.077 308.697 653.681 299.752 646.685 295.714C639.69 291.675 630.746 294.072 626.707 301.067C622.668 308.062 625.065 317.007 632.06 321.045Z" fill="#5EE3D4"/>
<path d="M663.788 339.363C670.783 343.402 679.728 341.005 683.766 334.01C687.805 327.015 685.408 318.07 678.413 314.032C671.418 309.993 662.473 312.39 658.434 319.385C654.396 326.38 656.792 335.325 663.788 339.363Z" fill="#5EE3D4"/>
<path d="M695.516 357.682C702.511 361.72 711.456 359.324 715.494 352.328C719.533 345.333 717.136 336.388 710.141 332.35C703.146 328.311 694.201 330.708 690.162 337.703C686.124 344.698 688.521 353.643 695.516 357.682Z" fill="#5EE3D4"/>
<path d="M727.244 376C734.239 380.038 743.184 377.642 747.222 370.646C751.261 363.651 748.864 354.707 741.869 350.668C734.874 346.629 725.929 349.026 721.89 356.021C717.852 363.016 720.249 371.961 727.244 376Z" fill="#5EE3D4"/>
<path d="M758.929 394.293C765.924 398.332 774.869 395.935 778.908 388.94C782.946 381.945 780.55 373 773.555 368.962C766.559 364.923 757.615 367.32 753.576 374.315C749.537 381.31 751.934 390.255 758.929 394.293Z" fill="#5EE3D4"/>
<path d="M790.657 412.611C797.652 416.65 806.597 414.253 810.636 407.258C814.674 400.263 812.278 391.318 805.283 387.28C798.287 383.241 789.343 385.638 785.304 392.633C781.265 399.628 783.662 408.573 790.657 412.611Z" fill="#5EE3D4"/>
<path d="M561.779 325.578C568.775 329.617 577.719 327.22 581.758 320.225C585.797 313.23 583.4 304.285 576.405 300.246C569.409 296.208 560.465 298.604 556.426 305.599C552.387 312.595 554.784 321.539 561.779 325.578Z" fill="#5EE3D4"/>
<path d="M593.507 343.896C600.503 347.935 609.447 345.538 613.486 338.543C617.525 331.548 615.128 322.603 608.133 318.564C601.138 314.526 592.193 316.922 588.154 323.918C584.115 330.913 586.512 339.857 593.507 343.896Z" fill="#5EE3D4"/>
<path d="M625.235 362.214C632.23 366.253 641.175 363.856 645.213 356.861C649.252 349.866 646.855 340.921 639.86 336.882C632.865 332.844 623.92 335.241 619.882 342.236C615.843 349.231 618.24 358.176 625.235 362.214Z" fill="#5EE3D4"/>
<path d="M656.963 380.532C663.958 384.571 672.903 382.174 676.941 375.179C680.98 368.184 678.583 359.239 671.588 355.201C664.593 351.162 655.648 353.559 651.61 360.554C647.571 367.549 649.968 376.494 656.963 380.532Z" fill="#5EE3D4"/>
<path d="M688.648 398.826C695.644 402.865 704.588 400.468 708.627 393.473C712.666 386.478 710.269 377.533 703.274 373.494C696.279 369.456 687.334 371.852 683.295 378.848C679.257 385.843 681.653 394.787 688.648 398.826Z" fill="#5EE3D4"/>
<path d="M720.376 417.144C727.372 421.183 736.316 418.786 740.355 411.791C744.394 404.796 741.997 395.851 735.002 391.812C728.007 387.774 719.062 390.17 715.023 397.166C710.985 404.161 713.381 413.106 720.376 417.144Z" fill="#5EE3D4"/>
<path d="M752.105 435.462C759.1 439.501 768.044 437.104 772.083 430.109C776.122 423.114 773.725 414.169 766.73 410.131C759.735 406.092 750.79 408.489 746.751 415.484C742.713 422.479 745.109 431.424 752.105 435.462Z" fill="#5EE3D4"/>
<path d="M783.832 453.78C790.827 457.819 799.772 455.422 803.811 448.427C807.849 441.432 805.453 432.487 798.457 428.448C791.462 424.41 782.518 426.806 778.479 433.802C774.44 440.797 776.837 449.742 783.832 453.78Z" fill="#5EE3D4"/>
<path d="M815.518 472.074C822.513 476.113 831.458 473.716 835.497 466.721C839.535 459.726 837.139 450.781 830.143 446.742C823.148 442.704 814.204 445.1 810.165 452.096C806.126 459.091 808.523 468.035 815.518 472.074Z" fill="#5EE3D4"/>
<path d="M561.309 370.415C568.304 374.454 577.249 372.057 581.287 365.062C585.326 358.067 582.929 349.122 575.934 345.083C568.939 341.045 559.994 343.441 555.955 350.437C551.917 357.432 554.313 366.377 561.309 370.415Z" fill="#5EE3D4"/>
<path d="M592.994 388.709C599.989 392.748 608.934 390.351 612.973 383.356C617.011 376.361 614.615 367.416 607.62 363.377C600.624 359.339 591.68 361.735 587.641 368.731C583.602 375.726 585.999 384.67 592.994 388.709Z" fill="#5EE3D4"/>
<path d="M624.722 407.027C631.717 411.066 640.662 408.669 644.701 401.674C648.739 394.679 646.343 385.734 639.348 381.695C632.352 377.657 623.408 380.054 619.369 387.049C615.33 394.044 617.727 402.989 624.722 407.027Z" fill="#5EE3D4"/>
<path d="M656.45 425.345C663.445 429.384 672.39 426.987 676.429 419.992C680.467 412.997 678.071 404.052 671.076 400.013C664.08 395.975 655.136 398.371 651.097 405.367C647.058 412.362 649.455 421.306 656.45 425.345Z" fill="#5EE3D4"/>
<path d="M688.178 443.663C695.173 447.702 704.118 445.305 708.156 438.31C712.195 431.315 709.798 422.37 702.803 418.331C695.808 414.293 686.863 416.69 682.825 423.685C678.786 430.68 681.183 439.625 688.178 443.663Z" fill="#5EE3D4"/>
<path d="M719.864 461.957C726.859 465.996 735.804 463.599 739.842 456.604C743.881 449.609 741.484 440.664 734.489 436.625C727.494 432.587 718.549 434.983 714.511 441.979C710.472 448.974 712.869 457.919 719.864 461.957Z" fill="#5EE3D4"/>
<path d="M751.591 480.275C758.587 484.314 767.531 481.917 771.57 474.922C775.609 467.927 773.212 458.982 766.217 454.943C759.222 450.905 750.277 453.301 746.238 460.296C742.199 467.292 744.596 476.236 751.591 480.275Z" fill="#5EE3D4"/>
<path d="M783.319 498.593C790.315 502.632 799.259 500.235 803.298 493.24C807.337 486.245 804.94 477.3 797.945 473.261C790.95 469.223 782.005 471.619 777.966 478.615C773.927 485.61 776.324 494.554 783.319 498.593Z" fill="#5EE3D4"/>
<path d="M815.047 516.911C822.043 520.95 830.987 518.553 835.026 511.558C839.065 504.563 836.668 495.618 829.673 491.579C822.678 487.541 813.733 489.938 809.694 496.933C805.656 503.928 808.052 512.873 815.047 516.911Z" fill="#5EE3D4"/>
<path d="M522.714 393.242C529.709 397.28 538.654 394.884 542.692 387.888C546.731 380.893 544.334 371.948 537.339 367.91C530.344 363.871 521.399 366.268 517.361 373.263C513.322 380.258 515.719 389.203 522.714 393.242Z" fill="#5EE3D4"/>
<path d="M554.441 411.56C561.437 415.598 570.381 413.202 574.42 406.206C578.459 399.211 576.062 390.267 569.067 386.228C562.072 382.189 553.127 384.586 549.088 391.581C545.05 398.576 547.446 407.521 554.441 411.56Z" fill="#5EE3D4"/>
<path d="M586.169 429.878C593.165 433.916 602.109 431.52 606.148 424.525C610.187 417.529 607.79 408.585 600.795 404.546C593.8 400.507 584.855 402.904 580.816 409.899C576.778 416.894 579.174 425.839 586.169 429.878Z" fill="#5EE3D4"/>
<path d="M617.897 448.196C624.893 452.235 633.837 449.838 637.876 442.843C641.915 435.848 639.518 426.903 632.523 422.864C625.528 418.825 616.583 421.222 612.544 428.217C608.506 435.213 610.902 444.157 617.897 448.196Z" fill="#5EE3D4"/>
<path d="M649.583 466.49C656.578 470.528 665.523 468.132 669.562 461.136C673.6 454.141 671.204 445.197 664.208 441.158C657.213 437.119 648.268 439.516 644.23 446.511C640.191 453.506 642.588 462.451 649.583 466.49Z" fill="#5EE3D4"/>
<path d="M681.311 484.808C688.306 488.846 697.251 486.45 701.29 479.455C705.328 472.459 702.932 463.515 695.936 459.476C688.941 455.437 679.997 457.834 675.958 464.829C671.919 471.824 674.316 480.769 681.311 484.808Z" fill="#5EE3D4"/>
<path d="M713.039 503.126C720.034 507.165 728.978 504.768 733.017 497.773C737.056 490.777 734.659 481.833 727.664 477.794C720.669 473.755 711.724 476.152 707.685 483.147C703.647 490.143 706.043 499.087 713.039 503.126Z" fill="#5EE3D4"/>
<path d="M744.767 521.444C751.762 525.483 760.707 523.086 764.745 516.091C768.784 509.096 766.387 500.151 759.392 496.112C752.397 492.074 743.452 494.47 739.413 501.465C735.375 508.461 737.771 517.405 744.767 521.444Z" fill="#5EE3D4"/>
<path d="M776.453 539.738C783.448 543.776 792.393 541.38 796.431 534.384C800.47 527.389 798.073 518.445 791.078 514.406C784.083 510.367 775.138 512.764 771.099 519.759C767.061 526.754 769.457 535.699 776.453 539.738Z" fill="#5EE3D4"/>
<path d="M808.18 558.056C815.175 562.095 824.12 559.698 828.159 552.703C832.197 545.707 829.801 536.763 822.806 532.724C815.81 528.685 806.866 531.082 802.827 538.077C798.788 545.072 801.185 554.017 808.18 558.056Z" fill="#5EE3D4"/>
<path d="M522.243 438.079C529.238 442.117 538.183 439.721 542.221 432.726C546.26 425.73 543.863 416.786 536.868 412.747C529.873 408.708 520.928 411.105 516.889 418.1C512.851 425.095 515.248 434.04 522.243 438.079Z" fill="#5EE3D4"/>
<path d="M553.929 456.373C560.924 460.411 569.869 458.015 573.907 451.019C577.946 444.024 575.549 435.08 568.554 431.041C561.559 427.002 552.614 429.399 548.576 436.394C544.537 443.389 546.934 452.334 553.929 456.373Z" fill="#5EE3D4"/>
<path d="M585.657 474.691C592.652 478.729 601.597 476.333 605.635 469.338C609.674 462.342 607.277 453.398 600.282 449.359C593.287 445.32 584.342 447.717 580.304 454.712C576.265 461.707 578.662 470.652 585.657 474.691Z" fill="#5EE3D4"/>
<path d="M617.384 493.009C624.38 497.048 633.324 494.651 637.363 487.656C641.402 480.661 639.005 471.716 632.01 467.677C625.014 463.638 616.07 466.035 612.031 473.03C607.992 480.026 610.389 488.97 617.384 493.009Z" fill="#5EE3D4"/>
<path d="M649.112 511.327C656.108 515.365 665.052 512.969 669.091 505.974C673.13 498.978 670.733 490.034 663.738 485.995C656.742 481.956 647.798 484.353 643.759 491.348C639.72 498.343 642.117 507.288 649.112 511.327Z" fill="#5EE3D4"/>
<path d="M680.798 529.621C687.793 533.659 696.738 531.263 700.776 524.268C704.815 517.272 702.418 508.328 695.423 504.289C688.428 500.25 679.483 502.647 675.445 509.642C671.406 516.637 673.803 525.582 680.798 529.621Z" fill="#5EE3D4"/>
<path d="M712.526 547.939C719.521 551.977 728.466 549.581 732.504 542.585C736.543 535.59 734.146 526.646 727.151 522.607C720.156 518.568 711.211 520.965 707.173 527.96C703.134 534.955 705.531 543.9 712.526 547.939Z" fill="#5EE3D4"/>
<path d="M744.253 566.257C751.249 570.295 760.193 567.899 764.232 560.904C768.271 553.908 765.874 544.964 758.879 540.925C751.884 536.886 742.939 539.283 738.9 546.278C734.862 553.273 737.258 562.218 744.253 566.257Z" fill="#5EE3D4"/>
<path d="M775.981 584.575C782.977 588.614 791.921 586.217 795.96 579.222C799.999 572.226 797.602 563.282 790.607 559.243C783.612 555.204 774.667 557.601 770.628 564.596C766.59 571.591 768.986 580.536 775.981 584.575Z" fill="#5EE3D4"/>
<path d="M483.648 460.905C490.643 464.944 499.588 462.547 503.627 455.552C507.665 448.557 505.268 439.612 498.273 435.573C491.278 431.535 482.333 433.931 478.295 440.927C474.256 447.922 476.653 456.866 483.648 460.905Z" fill="#5EE3D4"/>
<path d="M515.376 479.223C522.371 483.262 531.316 480.865 535.355 473.87C539.393 466.875 536.997 457.93 530.001 453.892C523.006 449.853 514.061 452.25 510.023 459.245C505.984 466.24 508.381 475.185 515.376 479.223Z" fill="#5EE3D4"/>
<path d="M547.104 497.541C554.099 501.58 563.044 499.183 567.083 492.188C571.121 485.193 568.725 476.248 561.729 472.21C554.734 468.171 545.789 470.568 541.751 477.563C537.712 484.558 540.109 493.503 547.104 497.541Z" fill="#5EE3D4"/>
<path d="M578.832 515.859C585.827 519.898 594.771 517.501 598.81 510.506C602.849 503.511 600.452 494.566 593.457 490.528C586.462 486.489 577.517 488.886 573.478 495.881C569.44 502.876 571.836 511.821 578.832 515.859Z" fill="#5EE3D4"/>
<path d="M610.518 534.153C617.513 538.192 626.457 535.795 630.496 528.8C634.535 521.805 632.138 512.86 625.143 508.821C618.148 504.783 609.203 507.18 605.164 514.175C601.126 521.17 603.522 530.115 610.518 534.153Z" fill="#5EE3D4"/>
<path d="M642.245 552.471C649.24 556.51 658.185 554.113 662.224 547.118C666.262 540.123 663.866 531.178 656.87 527.14C649.875 523.101 640.931 525.498 636.892 532.493C632.853 539.488 635.25 548.433 642.245 552.471Z" fill="#5EE3D4"/>
<path d="M673.973 570.789C680.968 574.828 689.913 572.431 693.952 565.436C697.99 558.441 695.594 549.496 688.598 545.458C681.603 541.419 672.659 543.816 668.62 550.811C664.581 557.806 666.978 566.751 673.973 570.789Z" fill="#5EE3D4"/>
<path d="M705.701 589.108C712.696 593.146 721.641 590.75 725.68 583.754C729.718 576.759 727.322 567.814 720.327 563.776C713.331 559.737 704.387 562.134 700.348 569.129C696.309 576.124 698.706 585.069 705.701 589.108Z" fill="#5EE3D4"/>
<path d="M737.387 607.401C744.382 611.44 753.327 609.043 757.365 602.048C761.404 595.053 759.007 586.108 752.012 582.069C745.017 578.031 736.072 580.428 732.034 587.423C727.995 594.418 730.392 603.363 737.387 607.401Z" fill="#5EE3D4"/>
<path d="M769.115 625.719C776.11 629.758 785.055 627.361 789.093 620.366C793.132 613.371 790.735 604.426 783.74 600.388C776.745 596.349 767.8 598.746 763.762 605.741C759.723 612.736 762.12 621.681 769.115 625.719Z" fill="#5EE3D4"/>
<path d="M166.913 320.903C173.908 324.941 182.853 322.545 186.891 315.55C190.93 308.554 188.533 299.61 181.538 295.571C174.543 291.532 165.598 293.929 161.559 300.924C157.521 307.919 159.917 316.864 166.913 320.903Z" fill="#5EE3D4"/>
<path d="M198.641 339.221C205.636 343.26 214.581 340.863 218.619 333.868C222.658 326.872 220.261 317.928 213.266 313.889C206.271 309.85 197.326 312.247 193.287 319.242C189.249 326.237 191.646 335.182 198.641 339.221Z" fill="#5EE3D4"/>
<path d="M230.326 357.515C237.321 361.553 246.266 359.157 250.305 352.162C254.343 345.166 251.947 336.222 244.952 332.183C237.956 328.144 229.012 330.541 224.973 337.536C220.934 344.531 223.331 353.476 230.326 357.515Z" fill="#5EE3D4"/>
<path d="M262.054 375.833C269.049 379.871 277.994 377.475 282.033 370.479C286.071 363.484 283.675 354.54 276.68 350.501C269.684 346.462 260.74 348.859 256.701 355.854C252.662 362.849 255.059 371.794 262.054 375.833Z" fill="#5EE3D4"/>
<path d="M293.782 394.151C300.777 398.189 309.722 395.793 313.761 388.798C317.799 381.802 315.403 372.858 308.408 368.819C301.412 364.78 292.468 367.177 288.429 374.172C284.39 381.167 286.787 390.112 293.782 394.151Z" fill="#5EE3D4"/>
<path d="M325.51 412.469C332.505 416.508 341.45 414.111 345.488 407.116C349.527 400.12 347.13 391.176 340.135 387.137C333.14 383.098 324.195 385.495 320.157 392.49C316.118 399.486 318.515 408.43 325.51 412.469Z" fill="#5EE3D4"/>
<path d="M357.196 430.763C364.191 434.801 373.136 432.405 377.174 425.409C381.213 418.414 378.816 409.469 371.821 405.431C364.826 401.392 355.881 403.789 351.843 410.784C347.804 417.779 350.201 426.724 357.196 430.763Z" fill="#5EE3D4"/>
<path d="M388.923 449.081C395.919 453.119 404.863 450.723 408.902 443.727C412.941 436.732 410.544 427.788 403.549 423.749C396.554 419.71 387.609 422.107 383.57 429.102C379.531 436.097 381.928 445.042 388.923 449.081Z" fill="#5EE3D4"/>
<path d="M420.651 467.399C427.647 471.437 436.591 469.041 440.63 462.046C444.669 455.05 442.272 446.106 435.277 442.067C428.282 438.028 419.337 440.425 415.298 447.42C411.26 454.415 413.656 463.36 420.651 467.399Z" fill="#5EE3D4"/>
<path d="M452.379 485.717C459.374 489.756 468.319 487.359 472.357 480.364C476.396 473.369 473.999 464.424 467.004 460.385C460.009 456.346 451.064 458.743 447.026 465.738C442.987 472.734 445.384 481.678 452.379 485.717Z" fill="#5EE3D4"/>
<path d="M128.36 343.754C135.355 347.792 144.3 345.396 148.338 338.4C152.377 331.405 149.98 322.46 142.985 318.422C135.99 314.383 127.045 316.78 123.007 323.775C118.968 330.77 121.365 339.715 128.36 343.754Z" fill="#5EE3D4"/>
<path d="M160.046 362.047C167.041 366.086 175.986 363.689 180.024 356.694C184.063 349.699 181.666 340.754 174.671 336.715C167.676 332.677 158.731 335.074 154.693 342.069C150.654 349.064 153.051 358.009 160.046 362.047Z" fill="#5EE3D4"/>
<path d="M191.774 380.365C198.769 384.404 207.713 382.007 211.752 375.012C215.791 368.017 213.394 359.072 206.399 355.034C199.404 350.995 190.459 353.392 186.42 360.387C182.382 367.382 184.778 376.327 191.774 380.365Z" fill="#5EE3D4"/>
<path d="M223.502 398.683C230.497 402.722 239.441 400.325 243.48 393.33C247.519 386.335 245.122 377.39 238.127 373.352C231.132 369.313 222.187 371.71 218.148 378.705C214.11 385.7 216.506 394.645 223.502 398.683Z" fill="#5EE3D4"/>
<path d="M255.23 417.002C262.225 421.04 271.169 418.644 275.208 411.648C279.247 404.653 276.85 395.709 269.855 391.67C262.86 387.631 253.915 390.028 249.876 397.023C245.838 404.018 248.234 412.963 255.23 417.002Z" fill="#5EE3D4"/>
<path d="M286.915 435.295C293.91 439.334 302.855 436.937 306.894 429.942C310.932 422.947 308.536 414.002 301.54 409.964C294.545 405.925 285.601 408.322 281.562 415.317C277.523 422.312 279.92 431.257 286.915 435.295Z" fill="#5EE3D4"/>
<path d="M318.643 453.613C325.638 457.652 334.583 455.255 338.622 448.26C342.66 441.265 340.264 432.32 333.268 428.282C326.273 424.243 317.329 426.64 313.29 433.635C309.251 440.63 311.648 449.575 318.643 453.613Z" fill="#5EE3D4"/>
<path d="M350.371 471.932C357.366 475.97 366.311 473.573 370.349 466.578C374.388 459.583 371.991 450.638 364.996 446.6C358.001 442.561 349.056 444.958 345.017 451.953C340.979 458.948 343.375 467.893 350.371 471.932Z" fill="#5EE3D4"/>
<path d="M382.099 490.25C389.094 494.288 398.039 491.892 402.077 484.896C406.116 477.901 403.719 468.957 396.724 464.918C389.729 460.879 380.784 463.276 376.745 470.271C372.707 477.266 375.104 486.211 382.099 490.25Z" fill="#5EE3D4"/>
<path d="M413.784 508.543C420.779 512.582 429.724 510.185 433.763 503.19C437.801 496.195 435.405 487.25 428.41 483.212C421.414 479.173 412.47 481.57 408.431 488.565C404.392 495.56 406.789 504.505 413.784 508.543Z" fill="#5EE3D4"/>
<path d="M127.847 388.567C134.842 392.605 143.787 390.208 147.826 383.213C151.864 376.218 149.468 367.273 142.473 363.235C135.477 359.196 126.533 361.593 122.494 368.588C118.455 375.583 120.852 384.528 127.847 388.567Z" fill="#5EE3D4"/>
<path d="M159.575 406.885C166.57 410.923 175.515 408.527 179.553 401.531C183.592 394.536 181.195 385.592 174.2 381.553C167.205 377.514 158.26 379.911 154.222 386.906C150.183 393.901 152.58 402.846 159.575 406.885Z" fill="#5EE3D4"/>
<path d="M191.261 425.178C198.256 429.217 207.201 426.82 211.239 419.825C215.278 412.83 212.881 403.885 205.886 399.847C198.891 395.808 189.946 398.205 185.908 405.2C181.869 412.195 184.266 421.14 191.261 425.178Z" fill="#5EE3D4"/>
<path d="M222.989 443.496C229.984 447.535 238.929 445.138 242.967 438.143C247.006 431.148 244.609 422.203 237.614 418.165C230.619 414.126 221.674 416.523 217.636 423.518C213.597 430.513 215.994 439.458 222.989 443.496Z" fill="#5EE3D4"/>
<path d="M254.716 461.815C261.712 465.853 270.656 463.457 274.695 456.461C278.734 449.466 276.337 440.521 269.342 436.483C262.346 432.444 253.402 434.841 249.363 441.836C245.324 448.831 247.721 457.776 254.716 461.815Z" fill="#5EE3D4"/>
<path d="M286.444 480.133C293.44 484.171 302.384 481.775 306.423 474.779C310.462 467.784 308.065 458.84 301.07 454.801C294.075 450.762 285.13 453.159 281.091 460.154C277.052 467.149 279.449 476.094 286.444 480.133Z" fill="#5EE3D4"/>
<path d="M318.13 498.426C325.125 502.465 334.07 500.068 338.108 493.073C342.147 486.078 339.75 477.133 332.755 473.095C325.76 469.056 316.815 471.453 312.777 478.448C308.738 485.443 311.135 494.388 318.13 498.426Z" fill="#5EE3D4"/>
<path d="M349.858 516.745C356.853 520.783 365.798 518.386 369.837 511.391C373.875 504.396 371.478 495.451 364.483 491.413C357.488 487.374 348.543 489.771 344.505 496.766C340.466 503.761 342.863 512.706 349.858 516.745Z" fill="#5EE3D4"/>
<path d="M381.586 535.063C388.581 539.101 397.525 536.705 401.564 529.709C405.603 522.714 403.206 513.77 396.211 509.731C389.216 505.692 380.271 508.089 376.232 515.084C372.194 522.079 374.59 531.024 381.586 535.063Z" fill="#5EE3D4"/>
<path d="M413.314 553.38C420.309 557.419 429.253 555.022 433.292 548.027C437.331 541.032 434.934 532.087 427.939 528.049C420.944 524.01 411.999 526.407 407.96 533.402C403.922 540.397 406.318 549.342 413.314 553.38Z" fill="#5EE3D4"/>
<path d="M120.98 429.711C127.975 433.749 136.92 431.353 140.959 424.358C144.997 417.362 142.601 408.418 135.605 404.379C128.61 400.34 119.665 402.737 115.627 409.732C111.588 416.727 113.985 425.672 120.98 429.711Z" fill="#5EE3D4"/>
<path d="M152.708 448.029C159.703 452.068 168.648 449.671 172.687 442.676C176.725 435.681 174.329 426.736 167.333 422.697C160.338 418.659 151.394 421.055 147.355 428.05C143.316 435.046 145.713 443.99 152.708 448.029Z" fill="#5EE3D4"/>
<path d="M184.436 466.347C191.431 470.386 200.376 467.989 204.415 460.994C208.453 453.999 206.057 445.054 199.061 441.015C192.066 436.977 183.122 439.373 179.083 446.369C175.044 453.364 177.441 462.308 184.436 466.347Z" fill="#5EE3D4"/>
<path d="M216.164 484.665C223.159 488.704 232.104 486.307 236.142 479.312C240.181 472.317 237.784 463.372 230.789 459.333C223.794 455.295 214.849 457.691 210.81 464.687C206.772 471.682 209.168 480.627 216.164 484.665Z" fill="#5EE3D4"/>
<path d="M247.85 502.959C254.845 506.998 263.79 504.601 267.828 497.606C271.867 490.61 269.47 481.666 262.475 477.627C255.48 473.588 246.535 475.985 242.496 482.98C238.458 489.975 240.855 498.92 247.85 502.959Z" fill="#5EE3D4"/>
<path d="M279.577 521.277C286.572 525.316 295.517 522.919 299.556 515.924C303.594 508.929 301.198 499.984 294.203 495.945C287.207 491.907 278.263 494.303 274.224 501.298C270.185 508.294 272.582 517.238 279.577 521.277Z" fill="#5EE3D4"/>
<path d="M311.305 539.595C318.3 543.634 327.245 541.237 331.284 534.242C335.322 527.247 332.926 518.302 325.931 514.263C318.935 510.225 309.991 512.621 305.952 519.617C301.913 526.612 304.31 535.556 311.305 539.595Z" fill="#5EE3D4"/>
<path d="M343.033 557.913C350.028 561.952 358.973 559.555 363.012 552.56C367.05 545.565 364.654 536.62 357.659 532.581C350.663 528.543 341.719 530.939 337.68 537.935C333.641 544.93 336.038 553.875 343.033 557.913Z" fill="#5EE3D4"/>
<path d="M374.719 576.207C381.714 580.246 390.659 577.849 394.697 570.854C398.736 563.859 396.339 554.914 389.344 550.875C382.349 546.836 373.404 549.233 369.366 556.228C365.327 563.224 367.724 572.168 374.719 576.207Z" fill="#5EE3D4"/>
<path d="M120.509 474.548C127.505 478.587 136.449 476.19 140.488 469.195C144.527 462.2 142.13 453.255 135.135 449.216C128.139 445.178 119.195 447.574 115.156 454.57C111.117 461.565 113.514 470.51 120.509 474.548Z" fill="#5EE3D4"/>
<path d="M152.195 492.842C159.191 496.881 168.135 494.484 172.174 487.489C176.213 480.494 173.816 471.549 166.821 467.51C159.825 463.471 150.881 465.868 146.842 472.863C142.803 479.859 145.2 488.803 152.195 492.842Z" fill="#5EE3D4"/>
<path d="M183.923 511.16C190.918 515.199 199.863 512.802 203.901 505.807C207.94 498.812 205.543 489.867 198.548 485.828C191.553 481.79 182.608 484.186 178.57 491.181C174.531 498.177 176.928 507.121 183.923 511.16Z" fill="#5EE3D4"/>
<path d="M215.651 529.478C222.646 533.517 231.591 531.12 235.629 524.125C239.668 517.13 237.271 508.185 230.276 504.146C223.281 500.108 214.336 502.504 210.298 509.5C206.259 516.495 208.656 525.439 215.651 529.478Z" fill="#5EE3D4"/>
<path d="M247.378 547.796C254.374 551.835 263.318 549.438 267.357 542.443C271.396 535.448 268.999 526.503 262.004 522.465C255.009 518.426 246.064 520.823 242.025 527.818C237.987 534.813 240.383 543.758 247.378 547.796Z" fill="#5EE3D4"/>
<path d="M279.065 566.09C286.06 570.129 295.004 567.732 299.043 560.737C303.082 553.742 300.685 544.797 293.69 540.758C286.695 536.72 277.75 539.116 273.711 546.111C269.673 553.107 272.069 562.051 279.065 566.09Z" fill="#5EE3D4"/>
<path d="M310.793 584.408C317.788 588.447 326.732 586.05 330.771 579.055C334.81 572.06 332.413 563.115 325.418 559.076C318.423 555.038 309.478 557.434 305.439 564.43C301.401 571.425 303.797 580.369 310.793 584.408Z" fill="#5EE3D4"/>
<path d="M342.52 602.726C349.515 606.765 358.46 604.368 362.499 597.373C366.537 590.378 364.141 581.433 357.145 577.394C350.15 573.356 341.206 575.752 337.167 582.748C333.128 589.743 335.525 598.688 342.52 602.726Z" fill="#5EE3D4"/>
<path d="M374.248 621.044C381.243 625.083 390.188 622.686 394.227 615.691C398.265 608.696 395.869 599.751 388.873 595.712C381.878 591.674 372.934 594.07 368.895 601.066C364.856 608.061 367.253 617.005 374.248 621.044Z" fill="#5EE3D4"/>
<path d="M113.643 515.693C120.638 519.731 129.583 517.334 133.621 510.339C137.66 503.344 135.263 494.399 128.268 490.361C121.273 486.322 112.328 488.719 108.289 495.714C104.251 502.709 106.647 511.654 113.643 515.693Z" fill="#5EE3D4"/>
<path d="M145.37 534.011C152.365 538.049 161.31 535.653 165.349 528.657C169.387 521.662 166.991 512.718 159.995 508.679C153 504.64 144.056 507.037 140.017 514.032C135.978 521.027 138.375 529.972 145.37 534.011Z" fill="#5EE3D4"/>
<path d="M177.098 552.329C184.093 556.367 193.038 553.971 197.077 546.976C201.115 539.98 198.719 531.036 191.724 526.997C184.728 522.958 175.784 525.355 171.745 532.35C167.706 539.345 170.103 548.29 177.098 552.329Z" fill="#5EE3D4"/>
<path d="M208.784 570.622C215.779 574.661 224.724 572.264 228.762 565.269C232.801 558.274 230.404 549.329 223.409 545.291C216.414 541.252 207.469 543.649 203.431 550.644C199.392 557.639 201.789 566.584 208.784 570.622Z" fill="#5EE3D4"/>
<path d="M240.512 588.941C247.507 592.979 256.452 590.583 260.49 583.587C264.529 576.592 262.132 567.647 255.137 563.609C248.142 559.57 239.197 561.967 235.159 568.962C231.12 575.957 233.517 584.902 240.512 588.941Z" fill="#5EE3D4"/>
<path d="M272.24 607.259C279.235 611.297 288.18 608.901 292.218 601.905C296.257 594.91 293.86 585.966 286.865 581.927C279.87 577.888 270.925 580.285 266.887 587.28C262.848 594.275 265.245 603.22 272.24 607.259Z" fill="#5EE3D4"/>
<path d="M303.967 625.577C310.963 629.616 319.907 627.219 323.946 620.224C327.985 613.228 325.588 604.284 318.593 600.245C311.597 596.206 302.653 598.603 298.614 605.598C294.575 612.593 296.972 621.538 303.967 625.577Z" fill="#5EE3D4"/>
<path d="M335.653 643.871C342.649 647.909 351.593 645.512 355.632 638.517C359.671 631.522 357.274 622.577 350.279 618.539C343.283 614.5 334.339 616.897 330.3 623.892C326.261 630.887 328.658 639.832 335.653 643.871Z" fill="#5EE3D4"/>
<path d="M113.129 560.506C120.125 564.544 129.069 562.147 133.108 555.152C137.147 548.157 134.75 539.212 127.755 535.174C120.76 531.135 111.815 533.532 107.776 540.527C103.738 547.522 106.134 556.467 113.129 560.506Z" fill="#5EE3D4"/>
<path d="M144.857 578.824C151.853 582.862 160.797 580.466 164.836 573.47C168.875 566.475 166.478 557.531 159.483 553.492C152.488 549.453 143.543 551.85 139.504 558.845C135.466 565.84 137.862 574.785 144.857 578.824Z" fill="#5EE3D4"/>
<path d="M176.585 597.142C183.58 601.18 192.525 598.784 196.564 591.789C200.602 584.793 198.205 575.849 191.21 571.81C184.215 567.771 175.27 570.168 171.232 577.163C167.193 584.158 169.59 593.103 176.585 597.142Z" fill="#5EE3D4"/>
<path d="M208.313 615.46C215.308 619.499 224.253 617.102 228.292 610.107C232.33 603.111 229.934 594.167 222.938 590.128C215.943 586.089 206.998 588.486 202.96 595.481C198.921 602.477 201.318 611.421 208.313 615.46Z" fill="#5EE3D4"/>
<path d="M239.999 633.754C246.994 637.792 255.938 635.396 259.977 628.4C264.016 621.405 261.619 612.46 254.624 608.422C247.629 604.383 238.684 606.78 234.645 613.775C230.607 620.77 233.003 629.715 239.999 633.754Z" fill="#5EE3D4"/>
<path d="M271.727 652.072C278.722 656.11 287.666 653.714 291.705 646.718C295.744 639.723 293.347 630.779 286.352 626.74C279.357 622.701 270.412 625.098 266.373 632.093C262.335 639.088 264.731 648.033 271.727 652.072Z" fill="#5EE3D4"/>
<path d="M303.455 670.39C310.45 674.428 319.395 672.032 323.433 665.037C327.472 658.041 325.075 649.097 318.08 645.058C311.085 641.019 302.14 643.416 298.101 650.411C294.063 657.406 296.459 666.351 303.455 670.39Z" fill="#5EE3D4"/>
<path d="M335.182 688.708C342.177 692.747 351.122 690.35 355.161 683.355C359.199 676.359 356.803 667.415 349.807 663.376C342.812 659.337 333.868 661.734 329.829 668.729C325.79 675.725 328.187 684.669 335.182 688.708Z" fill="#5EE3D4"/>
<path d="M106.305 601.674C113.3 605.713 122.245 603.316 126.283 596.321C130.322 589.326 127.925 580.381 120.93 576.343C113.935 572.304 104.99 574.701 100.952 581.696C96.9129 588.691 99.3096 597.636 106.305 601.674Z" fill="#5EE3D4"/>
<path d="M138.033 619.992C145.028 624.031 153.973 621.634 158.011 614.639C162.05 607.644 159.653 598.699 152.658 594.661C145.663 590.622 136.718 593.019 132.68 600.014C128.641 607.009 131.038 615.954 138.033 619.992Z" fill="#5EE3D4"/>
<path d="M169.718 638.286C176.713 642.325 185.658 639.928 189.697 632.933C193.736 625.938 191.339 616.993 184.344 612.955C177.348 608.916 168.404 611.313 164.365 618.308C160.326 625.303 162.723 634.248 169.718 638.286Z" fill="#5EE3D4"/>
<path d="M201.446 656.604C208.442 660.643 217.386 658.246 221.425 651.251C225.464 644.256 223.067 635.311 216.072 631.273C209.076 627.234 200.132 629.631 196.093 636.626C192.054 643.621 194.451 652.566 201.446 656.604Z" fill="#5EE3D4"/>
<path d="M233.174 674.922C240.169 678.961 249.114 676.564 253.152 669.569C257.191 662.574 254.794 653.629 247.799 649.59C240.804 645.552 231.859 647.949 227.821 654.944C223.782 661.939 226.179 670.884 233.174 674.922Z" fill="#5EE3D4"/>
<path d="M264.902 693.24C271.897 697.279 280.842 694.882 284.88 687.887C288.919 680.892 286.522 671.947 279.527 667.909C272.532 663.87 263.587 666.267 259.549 673.262C255.51 680.257 257.907 689.202 264.902 693.24Z" fill="#5EE3D4"/>
<path d="M296.587 711.534C303.583 715.573 312.527 713.176 316.566 706.181C320.605 699.186 318.208 690.241 311.213 686.203C304.218 682.164 295.273 684.561 291.234 691.556C287.196 698.551 289.592 707.496 296.587 711.534Z" fill="#5EE3D4"/>
<path d="M105.792 646.487C112.787 650.526 121.731 648.129 125.77 641.134C129.809 634.139 127.412 625.194 120.417 621.156C113.422 617.117 104.477 619.514 100.438 626.509C96.3997 633.504 98.7964 642.449 105.792 646.487Z" fill="#5EE3D4"/>
<path d="M137.52 664.805C144.515 668.844 153.459 666.447 157.498 659.452C161.537 652.457 159.14 643.512 152.145 639.474C145.15 635.435 136.205 637.832 132.166 644.827C128.128 651.822 130.524 660.767 137.52 664.805Z" fill="#5EE3D4"/>
<path d="M169.248 683.123C176.243 687.162 185.187 684.765 189.226 677.77C193.265 670.775 190.868 661.83 183.873 657.792C176.878 653.753 167.933 656.15 163.894 663.145C159.856 670.14 162.252 679.085 169.248 683.123Z" fill="#5EE3D4"/>
<path d="M200.933 701.417C207.928 705.456 216.873 703.059 220.912 696.064C224.95 689.069 222.554 680.124 215.558 676.086C208.563 672.047 199.619 674.444 195.58 681.439C191.541 688.434 193.938 697.379 200.933 701.417Z" fill="#5EE3D4"/>
<path d="M232.661 719.735C239.656 723.774 248.601 721.377 252.64 714.382C256.678 707.387 254.282 698.442 247.286 694.404C240.291 690.365 231.347 692.762 227.308 699.757C223.269 706.752 225.666 715.697 232.661 719.735Z" fill="#5EE3D4"/>
<path d="M264.389 738.053C271.384 742.092 280.329 739.695 284.367 732.7C288.406 725.705 286.009 716.76 279.014 712.722C272.019 708.683 263.074 711.08 259.036 718.075C254.997 725.07 257.394 734.015 264.389 738.053Z" fill="#5EE3D4"/>
<path d="M296.117 756.371C303.112 760.41 312.057 758.013 316.095 751.018C320.134 744.023 317.737 735.078 310.742 731.04C303.747 727.001 294.802 729.398 290.764 736.393C286.725 743.388 289.122 752.333 296.117 756.371Z" fill="#5EE3D4"/>
<path d="M484.149 504.059C491.144 508.098 500.089 505.701 504.128 498.706C508.166 491.711 505.769 482.766 498.774 478.727C491.779 474.689 482.834 477.086 478.796 484.081C474.757 491.076 477.154 500.021 484.149 504.059Z" fill="#5EE3D4"/>
<path d="M515.835 522.353C522.83 526.392 531.775 523.995 535.814 517C539.852 510.005 537.456 501.06 530.46 497.021C523.465 492.983 514.52 495.379 510.482 502.375C506.443 509.37 508.84 518.314 515.835 522.353Z" fill="#5EE3D4"/>
<path d="M547.563 540.671C554.558 544.71 563.502 542.313 567.541 535.318C571.58 528.323 569.183 519.378 562.188 515.34C555.193 511.301 546.248 513.698 542.209 520.693C538.171 527.688 540.567 536.633 547.563 540.671Z" fill="#5EE3D4"/>
<path d="M579.291 558.989C586.286 563.028 595.23 560.631 599.269 553.636C603.308 546.641 600.911 537.696 593.916 533.657C586.921 529.619 577.976 532.015 573.937 539.011C569.899 546.006 572.295 554.95 579.291 558.989Z" fill="#5EE3D4"/>
<path d="M611.019 577.307C618.014 581.346 626.958 578.949 630.997 571.954C635.036 564.959 632.639 556.014 625.644 551.976C618.649 547.937 609.704 550.334 605.665 557.329C601.627 564.324 604.023 573.269 611.019 577.307Z" fill="#5EE3D4"/>
<path d="M642.704 595.601C649.699 599.64 658.644 597.243 662.683 590.248C666.721 583.253 664.325 574.308 657.329 570.269C650.334 566.231 641.39 568.628 637.351 575.623C633.312 582.618 635.709 591.563 642.704 595.601Z" fill="#5EE3D4"/>
<path d="M674.432 613.919C681.427 617.958 690.372 615.561 694.411 608.566C698.449 601.571 696.053 592.626 689.057 588.587C682.062 584.549 673.118 586.945 669.079 593.941C665.04 600.936 667.437 609.88 674.432 613.919Z" fill="#5EE3D4"/>
<path d="M706.16 632.237C713.155 636.276 722.1 633.879 726.138 626.884C730.177 619.889 727.78 610.944 720.785 606.905C713.79 602.867 704.845 605.263 700.806 612.259C696.768 619.254 699.165 628.199 706.16 632.237Z" fill="#5EE3D4"/>
<path d="M737.888 650.555C744.883 654.594 753.828 652.197 757.866 645.202C761.905 638.207 759.508 629.262 752.513 625.224C745.518 621.185 736.573 623.582 732.535 630.577C728.496 637.572 730.893 646.517 737.888 650.555Z" fill="#5EE3D4"/>
<path d="M445.554 526.886C452.549 530.924 461.494 528.528 465.533 521.532C469.571 514.537 467.175 505.593 460.18 501.554C453.184 497.515 444.24 499.912 440.201 506.907C436.162 513.902 438.559 522.847 445.554 526.886Z" fill="#5EE3D4"/>
<path d="M477.282 545.204C484.277 549.242 493.222 546.846 497.261 539.851C501.299 532.855 498.903 523.911 491.908 519.872C484.912 515.833 475.968 518.23 471.929 525.225C467.89 532.22 470.287 541.165 477.282 545.204Z" fill="#5EE3D4"/>
<path d="M509.01 563.522C516.005 567.561 524.95 565.164 528.989 558.169C533.027 551.173 530.631 542.229 523.636 538.19C516.64 534.151 507.696 536.548 503.657 543.543C499.618 550.539 502.015 559.483 509.01 563.522Z" fill="#5EE3D4"/>
<path d="M540.738 581.84C547.733 585.879 556.678 583.482 560.716 576.487C564.755 569.492 562.358 560.547 555.363 556.508C548.368 552.47 539.423 554.866 535.385 561.861C531.346 568.857 533.743 577.801 540.738 581.84Z" fill="#5EE3D4"/>
<path d="M572.423 600.134C579.419 604.172 588.363 601.776 592.402 594.78C596.441 587.785 594.044 578.841 587.049 574.802C580.054 570.763 571.109 573.16 567.07 580.155C563.031 587.15 565.428 596.095 572.423 600.134Z" fill="#5EE3D4"/>
<path d="M604.151 618.452C611.147 622.49 620.091 620.094 624.13 613.099C628.169 606.103 625.772 597.159 618.777 593.12C611.782 589.081 602.837 591.478 598.798 598.473C594.76 605.468 597.156 614.413 604.151 618.452Z" fill="#5EE3D4"/>
<path d="M635.879 636.77C642.875 640.809 651.819 638.412 655.858 631.417C659.897 624.422 657.5 615.477 650.505 611.438C643.51 607.399 634.565 609.796 630.526 616.791C626.488 623.787 628.884 632.731 635.879 636.77Z" fill="#5EE3D4"/>
<path d="M667.607 655.088C674.602 659.127 683.547 656.73 687.586 649.735C691.624 642.74 689.227 633.795 682.232 629.756C675.237 625.718 666.292 628.114 662.254 635.11C658.215 642.105 660.612 651.049 667.607 655.088Z" fill="#5EE3D4"/>
<path d="M699.293 673.382C706.288 677.42 715.233 675.024 719.272 668.029C723.31 661.033 720.913 652.089 713.918 648.05C706.923 644.011 697.978 646.408 693.94 653.403C689.901 660.398 692.298 669.343 699.293 673.382Z" fill="#5EE3D4"/>
<path d="M731.021 691.7C738.016 695.739 746.96 693.342 750.999 686.347C755.038 679.351 752.641 670.407 745.646 666.368C738.651 662.329 729.706 664.726 725.667 671.721C721.629 678.716 724.025 687.661 731.021 691.7Z" fill="#5EE3D4"/>
<path d="M445.084 571.723C452.079 575.762 461.023 573.365 465.062 566.37C469.101 559.375 466.704 550.43 459.709 546.391C452.714 542.353 443.769 544.749 439.73 551.744C435.692 558.74 438.088 567.684 445.084 571.723Z" fill="#5EE3D4"/>
<path d="M476.769 590.017C483.764 594.055 492.709 591.659 496.748 584.664C500.786 577.668 498.39 568.724 491.394 564.685C484.399 560.646 475.455 563.043 471.416 570.038C467.377 577.033 469.774 585.978 476.769 590.017Z" fill="#5EE3D4"/>
<path d="M508.497 608.335C515.492 612.374 524.437 609.977 528.476 602.982C532.514 595.986 530.118 587.042 523.122 583.003C516.127 578.964 507.183 581.361 503.144 588.356C499.105 595.351 501.502 604.296 508.497 608.335Z" fill="#5EE3D4"/>
<path d="M540.225 626.653C547.22 630.692 556.165 628.295 560.204 621.3C564.242 614.305 561.846 605.36 554.85 601.321C547.855 597.283 538.911 599.679 534.872 606.674C530.833 613.67 533.23 622.614 540.225 626.653Z" fill="#5EE3D4"/>
<path d="M571.953 644.971C578.948 649.01 587.893 646.613 591.931 639.618C595.97 632.623 593.573 623.678 586.578 619.639C579.583 615.601 570.638 617.997 566.599 624.993C562.561 631.988 564.958 640.932 571.953 644.971Z" fill="#5EE3D4"/>
<path d="M603.639 663.265C610.634 667.303 619.579 664.907 623.617 657.912C627.656 650.916 625.259 641.972 618.264 637.933C611.269 633.894 602.324 636.291 598.286 643.286C594.247 650.281 596.644 659.226 603.639 663.265Z" fill="#5EE3D4"/>
<path d="M635.366 681.583C642.361 685.622 651.306 683.225 655.345 676.23C659.383 669.234 656.987 660.29 649.992 656.251C642.996 652.212 634.052 654.609 630.013 661.604C625.974 668.6 628.371 677.544 635.366 681.583Z" fill="#5EE3D4"/>
<path d="M667.094 699.901C674.089 703.94 683.034 701.543 687.073 694.548C691.112 687.553 688.715 678.608 681.72 674.569C674.724 670.531 665.78 672.927 661.741 679.922C657.702 686.918 660.099 695.862 667.094 699.901Z" fill="#5EE3D4"/>
<path d="M698.822 718.219C705.817 722.258 714.762 719.861 718.801 712.866C722.84 705.871 720.443 696.926 713.448 692.887C706.452 688.849 697.508 691.245 693.469 698.241C689.43 705.236 691.827 714.18 698.822 718.219Z" fill="#5EE3D4"/>
<path d="M406.489 594.549C413.484 598.588 422.429 596.191 426.467 589.196C430.506 582.201 428.109 573.256 421.114 569.217C414.119 565.179 405.174 567.575 401.136 574.571C397.097 581.566 399.494 590.511 406.489 594.549Z" fill="#5EE3D4"/>
<path d="M438.217 612.867C445.212 616.906 454.157 614.509 458.195 607.514C462.234 600.519 459.837 591.574 452.842 587.536C445.847 583.497 436.902 585.894 432.864 592.889C428.825 599.884 431.222 608.829 438.217 612.867Z" fill="#5EE3D4"/>
<path d="M469.944 631.185C476.94 635.224 485.884 632.827 489.923 625.832C493.962 618.837 491.565 609.892 484.57 605.854C477.574 601.815 468.63 604.212 464.591 611.207C460.552 618.202 462.949 627.147 469.944 631.185Z" fill="#5EE3D4"/>
<path d="M501.672 649.504C508.668 653.542 517.612 651.145 521.651 644.15C525.69 637.155 523.293 628.21 516.298 624.172C509.303 620.133 500.358 622.53 496.319 629.525C492.281 636.52 494.677 645.465 501.672 649.504Z" fill="#5EE3D4"/>
<path d="M533.358 667.797C540.353 671.836 549.298 669.439 553.337 662.444C557.375 655.449 554.978 646.504 547.983 642.465C540.988 638.427 532.043 640.824 528.005 647.819C523.966 654.814 526.363 663.759 533.358 667.797Z" fill="#5EE3D4"/>
<path d="M565.086 686.115C572.081 690.154 581.026 687.757 585.065 680.762C589.103 673.767 586.706 664.822 579.711 660.784C572.716 656.745 563.771 659.142 559.733 666.137C555.694 673.132 558.091 682.077 565.086 686.115Z" fill="#5EE3D4"/>
<path d="M596.814 704.433C603.809 708.472 612.754 706.075 616.793 699.08C620.831 692.085 618.434 683.14 611.439 679.102C604.444 675.063 595.499 677.46 591.461 684.455C587.422 691.45 589.819 700.395 596.814 704.433Z" fill="#5EE3D4"/>
<path d="M628.542 722.752C635.537 726.79 644.481 724.394 648.52 717.398C652.559 710.403 650.162 701.459 643.167 697.42C636.172 693.381 627.227 695.778 623.188 702.773C619.15 709.768 621.546 718.713 628.542 722.752Z" fill="#5EE3D4"/>
<path d="M660.228 741.045C667.223 745.084 676.168 742.687 680.206 735.692C684.245 728.697 681.848 719.752 674.853 715.714C667.858 711.675 658.913 714.072 654.874 721.067C650.836 728.062 653.232 737.007 660.228 741.045Z" fill="#5EE3D4"/>
<path d="M691.955 759.363C698.95 763.402 707.895 761.005 711.934 754.01C715.972 747.015 713.576 738.07 706.58 734.032C699.585 729.993 690.641 732.39 686.602 739.385C682.563 746.38 684.96 755.325 691.955 759.363Z" fill="#5EE3D4"/>
<path d="M406.018 639.387C413.013 643.425 421.958 641.029 425.997 634.033C430.035 627.038 427.639 618.094 420.643 614.055C413.648 610.016 404.704 612.413 400.665 619.408C396.626 626.403 399.023 635.348 406.018 639.387Z" fill="#5EE3D4"/>
<path d="M437.704 657.68C444.699 661.719 453.644 659.322 457.682 652.327C461.721 645.332 459.324 636.387 452.329 632.349C445.334 628.31 436.389 630.707 432.35 637.702C428.312 644.697 430.709 653.642 437.704 657.68Z" fill="#5EE3D4"/>
<path d="M469.432 675.998C476.427 680.037 485.372 677.64 489.41 670.645C493.449 663.65 491.052 654.705 484.057 650.667C477.062 646.628 468.117 649.025 464.078 656.02C460.04 663.015 462.437 671.96 469.432 675.998Z" fill="#5EE3D4"/>
<path d="M501.159 694.317C508.154 698.355 517.099 695.958 521.138 688.963C525.176 681.968 522.78 673.023 515.785 668.985C508.789 664.946 499.845 667.343 495.806 674.338C491.767 681.333 494.164 690.278 501.159 694.317Z" fill="#5EE3D4"/>
<path d="M532.887 712.635C539.882 716.673 548.827 714.277 552.866 707.281C556.904 700.286 554.508 691.342 547.513 687.303C540.517 683.264 531.573 685.661 527.534 692.656C523.495 699.651 525.892 708.596 532.887 712.635Z" fill="#5EE3D4"/>
<path d="M564.573 730.928C571.568 734.967 580.513 732.57 584.551 725.575C588.59 718.58 586.193 709.635 579.198 705.597C572.203 701.558 563.258 703.955 559.22 710.95C555.181 717.945 557.578 726.89 564.573 730.928Z" fill="#5EE3D4"/>
<path d="M596.301 749.246C603.296 753.285 612.241 750.888 616.279 743.893C620.318 736.898 617.921 727.953 610.926 723.915C603.931 719.876 594.986 722.273 590.948 729.268C586.909 736.263 589.306 745.208 596.301 749.246Z" fill="#5EE3D4"/>
<path d="M628.029 767.565C635.024 771.603 643.969 769.207 648.007 762.211C652.046 755.216 649.649 746.271 642.654 742.233C635.659 738.194 626.714 740.591 622.676 747.586C618.637 754.581 621.034 763.526 628.029 767.565Z" fill="#5EE3D4"/>
<path d="M659.756 785.883C666.752 789.921 675.696 787.525 679.735 780.529C683.774 773.534 681.377 764.59 674.382 760.551C667.387 756.512 658.442 758.909 654.403 765.904C650.365 772.899 652.761 781.844 659.756 785.883Z" fill="#5EE3D4"/>
<path d="M367.423 662.213C374.418 666.252 383.363 663.855 387.401 656.86C391.44 649.865 389.043 640.92 382.048 636.881C375.053 632.843 366.108 635.239 362.07 642.235C358.031 649.23 360.428 658.174 367.423 662.213Z" fill="#5EE3D4"/>
<path d="M399.151 680.531C406.146 684.57 415.091 682.173 419.129 675.178C423.168 668.182 420.771 659.238 413.776 655.199C406.781 651.16 397.836 653.557 393.798 660.552C389.759 667.548 392.156 676.492 399.151 680.531Z" fill="#5EE3D4"/>
<path d="M430.879 698.849C437.874 702.888 446.819 700.491 450.857 693.496C454.896 686.501 452.499 677.556 445.504 673.517C438.509 669.479 429.564 671.875 425.526 678.87C421.487 685.866 423.884 694.81 430.879 698.849Z" fill="#5EE3D4"/>
<path d="M462.606 717.167C469.602 721.206 478.546 718.809 482.585 711.814C486.624 704.819 484.227 695.874 477.232 691.835C470.237 687.797 461.292 690.193 457.253 697.189C453.215 704.184 455.611 713.128 462.606 717.167Z" fill="#5EE3D4"/>
<path d="M494.293 735.461C501.288 739.5 510.232 737.103 514.271 730.108C518.31 723.112 515.913 714.168 508.918 710.129C501.923 706.09 492.978 708.487 488.939 715.482C484.901 722.477 487.297 731.422 494.293 735.461Z" fill="#5EE3D4"/>
<path d="M526.021 753.779C533.016 757.818 541.96 755.421 545.999 748.426C550.038 741.431 547.641 732.486 540.646 728.447C533.651 724.408 524.706 726.805 520.667 733.8C516.629 740.796 519.025 749.74 526.021 753.779Z" fill="#5EE3D4"/>
<path d="M557.748 772.097C564.743 776.136 573.688 773.739 577.727 766.744C581.765 759.749 579.369 750.804 572.373 746.765C565.378 742.727 556.434 745.123 552.395 752.119C548.356 759.114 550.753 768.058 557.748 772.097Z" fill="#5EE3D4"/>
<path d="M589.476 790.415C596.471 794.454 605.416 792.057 609.455 785.062C613.493 778.067 611.097 769.122 604.101 765.083C597.106 761.045 588.162 763.441 584.123 770.437C580.084 777.432 582.481 786.377 589.476 790.415Z" fill="#5EE3D4"/>
<path d="M621.162 808.709C628.157 812.748 637.102 810.351 641.14 803.356C645.179 796.361 642.782 787.416 635.787 783.377C628.792 779.339 619.847 781.735 615.808 788.731C611.77 795.726 614.166 804.67 621.162 808.709Z" fill="#5EE3D4"/>
<path d="M652.89 827.027C659.885 831.066 668.83 828.669 672.868 821.674C676.907 814.679 674.51 805.734 667.515 801.695C660.52 797.657 651.575 800.053 647.536 807.048C643.498 814.044 645.895 822.988 652.89 827.027Z" fill="#5EE3D4"/>
<path d="M366.952 707.05C373.947 711.089 382.892 708.692 386.931 701.697C390.969 694.702 388.573 685.757 381.578 681.718C374.582 677.68 365.638 680.076 361.599 687.072C357.56 694.067 359.957 703.012 366.952 707.05Z" fill="#5EE3D4"/>
<path d="M398.638 725.344C405.633 729.383 414.578 726.986 418.617 719.991C422.655 712.996 420.259 704.051 413.264 700.012C406.268 695.973 397.324 698.37 393.285 705.365C389.246 712.361 391.643 721.305 398.638 725.344Z" fill="#5EE3D4"/>
<path d="M430.366 743.662C437.361 747.701 446.306 745.304 450.344 738.309C454.383 731.314 451.986 722.369 444.991 718.33C437.996 714.292 429.051 716.688 425.013 723.683C420.974 730.679 423.371 739.623 430.366 743.662Z" fill="#5EE3D4"/>
<path d="M462.094 761.98C469.089 766.019 478.034 763.622 482.072 756.627C486.111 749.632 483.714 740.687 476.719 736.648C469.724 732.61 460.779 735.006 456.741 742.002C452.702 748.997 455.099 757.941 462.094 761.98Z" fill="#5EE3D4"/>
<path d="M493.821 780.298C500.817 784.337 509.761 781.94 513.8 774.945C517.839 767.95 515.442 759.005 508.447 754.966C501.451 750.928 492.507 753.325 488.468 760.32C484.429 767.315 486.826 776.26 493.821 780.298Z" fill="#5EE3D4"/>
<path d="M525.507 798.592C532.503 802.631 541.447 800.234 545.486 793.239C549.525 786.244 547.128 777.299 540.133 773.26C533.138 769.222 524.193 771.618 520.154 778.613C516.115 785.609 518.512 794.553 525.507 798.592Z" fill="#5EE3D4"/>
<path d="M557.235 816.91C564.23 820.949 573.175 818.552 577.213 811.557C581.252 804.562 578.855 795.617 571.86 791.578C564.865 787.54 555.92 789.936 551.882 796.932C547.843 803.927 550.24 812.871 557.235 816.91Z" fill="#5EE3D4"/>
<path d="M588.963 835.228C595.958 839.267 604.903 836.87 608.941 829.875C612.98 822.88 610.583 813.935 603.588 809.896C596.593 805.858 587.648 808.254 583.61 815.25C579.571 822.245 581.968 831.19 588.963 835.228Z" fill="#5EE3D4"/>
<path d="M328.357 729.877C335.353 733.915 344.297 731.519 348.336 724.523C352.375 717.528 349.978 708.584 342.983 704.545C335.988 700.506 327.043 702.903 323.004 709.898C318.966 716.893 321.362 725.838 328.357 729.877Z" fill="#5EE3D4"/>
<path d="M360.085 748.195C367.081 752.233 376.025 749.837 380.064 742.841C384.103 735.846 381.706 726.902 374.711 722.863C367.716 718.824 358.771 721.221 354.732 728.216C350.694 735.211 353.09 744.156 360.085 748.195Z" fill="#5EE3D4"/>
<path d="M391.813 766.513C398.808 770.552 407.753 768.155 411.792 761.16C415.83 754.164 413.434 745.22 406.438 741.181C399.443 737.142 390.498 739.539 386.46 746.534C382.421 753.529 384.818 762.474 391.813 766.513Z" fill="#5EE3D4"/>
<path d="M423.541 784.831C430.536 788.87 439.481 786.473 443.52 779.478C447.558 772.483 445.162 763.538 438.166 759.499C431.171 755.46 422.227 757.857 418.188 764.852C414.149 771.848 416.546 780.792 423.541 784.831Z" fill="#5EE3D4"/>
<path d="M455.227 803.125C462.222 807.163 471.166 804.767 475.205 797.771C479.244 790.776 476.847 781.832 469.852 777.793C462.857 773.754 453.912 776.151 449.873 783.146C445.835 790.141 448.231 799.086 455.227 803.125Z" fill="#5EE3D4"/>
<path d="M486.955 821.443C493.95 825.481 502.895 823.085 506.933 816.09C510.972 809.094 508.575 800.15 501.58 796.111C494.585 792.072 485.64 794.469 481.601 801.464C477.563 808.459 479.959 817.404 486.955 821.443Z" fill="#5EE3D4"/>
<path d="M327.887 774.714C334.882 778.752 343.827 776.356 347.865 769.361C351.904 762.365 349.507 753.421 342.512 749.382C335.517 745.343 326.572 747.74 322.534 754.735C318.495 761.73 320.892 770.675 327.887 774.714Z" fill="#5EE3D4"/>
<path d="M359.572 793.008C366.568 797.046 375.512 794.65 379.551 787.654C383.59 780.659 381.193 771.715 374.198 767.676C367.202 763.637 358.258 766.034 354.219 773.029C350.18 780.024 352.577 788.969 359.572 793.008Z" fill="#5EE3D4"/>
<path d="M391.3 811.326C398.296 815.364 407.24 812.968 411.279 805.973C415.318 798.977 412.921 790.033 405.926 785.994C398.93 781.955 389.986 784.352 385.947 791.347C381.908 798.342 384.305 807.287 391.3 811.326Z" fill="#5EE3D4"/>
<path d="M423.028 829.644C430.023 833.683 438.968 831.286 443.006 824.291C447.045 817.296 444.648 808.351 437.653 804.312C430.658 800.274 421.713 802.67 417.675 809.665C413.636 816.661 416.033 825.605 423.028 829.644Z" fill="#5EE3D4"/>
</g>
</g>
<defs>
<clipPath id="clip0_287_925">
<rect width="680.247" height="680.247" fill="white" transform="translate(340.124) rotate(30)"/>
</clipPath>
</defs>
</svg>
