<svg width="322" height="73" viewBox="0 0 322 73" fill="none" xmlns="http://www.w3.org/2000/svg">
<g clip-path="url(#clip0_894_9685)" filter="url(#filter0_d_894_9685)">
<path d="M49.5393 53.4498C48.4593 52.2498 47.4993 50.9698 46.6293 49.6498L46.5793 49.6798C42.8093 52.2798 38.3893 53.5498 33.8093 53.2898C28.3393 52.9798 23.3293 50.5598 19.6793 46.4798C16.0293 42.3998 14.1893 37.1398 14.4993 31.6698C15.1293 20.4298 24.7493 11.7298 36.1093 12.3598C39.8493 12.5698 43.4693 13.8198 46.5793 15.9698L46.6393 16.0098C48.5693 13.0298 50.9993 10.4098 53.7993 8.25979L53.7293 8.19979C48.7993 4.42979 42.9093 2.25979 36.6993 1.90979C19.5393 0.979794 5.00931 14.1098 4.04931 31.0798C3.58931 39.3398 6.35931 47.2798 11.8693 53.4498C17.3793 59.6198 24.9593 63.2698 33.2193 63.7298C33.8093 63.7598 34.3993 63.7798 34.9793 63.7798C41.7993 63.7798 48.2793 61.5898 53.7193 57.4398L53.7893 57.3898C52.2693 56.2198 50.8493 54.9098 49.5493 53.4498H49.5393Z" fill="black"/>
<path d="M146.52 53.4494C145.37 52.1694 144.35 50.7994 143.44 49.3694H143.43L142.99 49.6694C139.7 51.9494 135.9 53.1994 131.93 53.2994C131.37 53.3094 130.8 53.2994 130.23 53.2694C124.76 52.9594 119.74 50.5394 116.1 46.4594C112.45 42.3794 110.61 37.1194 110.92 31.6494C111.51 21.1194 120 12.7994 130.42 12.3294C131.11 12.2994 131.81 12.2994 132.51 12.3394C136.25 12.5494 139.87 13.7994 142.98 15.9494L143.43 16.2594H143.44C145.34 13.2794 147.73 10.6394 150.5 8.46938L150.14 8.19937C145.21 4.42937 139.32 2.25937 133.11 1.90937C132.35 1.86937 131.59 1.84937 130.84 1.86937C119.58 2.05937 109.71 8.28938 104.45 17.5294C104.19 17.0694 103.92 16.6194 103.64 16.1794C103.64 16.1694 103.62 16.1594 103.62 16.1394C103.35 15.7094 103.06 15.2994 102.77 14.8794C102.74 14.8394 102.71 14.7994 102.68 14.7594C102.41 14.3894 102.14 14.0294 101.85 13.6694C101.79 13.5894 101.73 13.5094 101.67 13.4394C101.39 13.0794 101.09 12.7394 100.79 12.3894C100.73 12.3294 100.68 12.2594 100.62 12.1894C95.1098 6.01937 87.5298 2.36937 79.2698 1.90937C78.7298 1.87937 78.1998 1.86937 77.6698 1.85938C77.3998 1.85938 77.1298 1.88937 76.8598 1.89937C76.3498 1.90937 75.8398 1.92938 75.3298 1.96938C74.8198 2.00938 74.3198 2.05937 73.8198 2.11937C73.2998 2.17937 72.7798 2.24937 72.2598 2.33937C71.7898 2.41937 71.3298 2.51937 70.8698 2.61937C70.3398 2.73937 69.8098 2.85938 69.2898 3.00937C68.8698 3.12937 68.4498 3.25938 68.0398 3.38938C67.4998 3.55938 66.9598 3.74938 66.4298 3.94938C66.0498 4.08938 65.6898 4.24937 65.3198 4.40937C64.7698 4.63937 64.2298 4.88937 63.6998 5.14937C63.3698 5.30938 63.0598 5.48937 62.7398 5.66937C62.1898 5.96938 61.6498 6.26937 61.1198 6.59937C60.8398 6.76937 60.5798 6.95937 60.2998 7.13937C59.7598 7.50937 59.2198 7.87937 58.6998 8.27937C58.4698 8.44937 58.2598 8.63937 58.0298 8.81937C57.4898 9.25937 56.9598 9.69938 56.4498 10.1694C56.2698 10.3294 56.1098 10.5094 55.9298 10.6794C55.3998 11.1894 54.8898 11.7094 54.3998 12.2594C54.2698 12.3994 54.1498 12.5594 54.0298 12.7094C53.5198 13.2994 53.0198 13.9094 52.5598 14.5394C52.4798 14.6494 52.4098 14.7694 52.3298 14.8794C51.8398 15.5694 51.3698 16.2594 50.9398 16.9894C50.9098 17.0394 50.8798 17.0994 50.8498 17.1494C48.4198 21.2694 46.8898 25.9994 46.6098 31.0894C46.1398 39.3494 48.9198 47.2894 54.4298 53.4594C59.9398 59.6294 67.5198 63.2794 75.7798 63.7394C76.3698 63.7694 76.9598 63.7894 77.5398 63.7894H77.5598C78.1998 63.7894 78.8398 63.7594 79.4698 63.7294C79.4798 63.7294 79.4998 63.7294 79.5098 63.7294C79.6498 63.7294 79.7798 63.7094 79.9098 63.6994C79.9398 63.6994 79.9598 63.6994 79.9898 63.6994C80.4998 63.6594 80.9998 63.6094 81.5098 63.5394C81.5498 63.5394 81.5998 63.5294 81.6398 63.5194C81.6998 63.5194 81.7698 63.5094 81.8298 63.4994C81.8598 63.4994 81.8798 63.4994 81.9098 63.4994C82.5298 63.4094 83.1398 63.3094 83.7398 63.1794C83.7598 63.1794 83.7798 63.1794 83.7998 63.1694C83.8298 63.1694 83.8698 63.1594 83.8998 63.1494C83.9698 63.1294 84.0398 63.1194 84.1098 63.0994C84.6098 62.9894 85.1098 62.8694 85.6098 62.7394C85.6598 62.7294 85.6998 62.7194 85.7498 62.6994C85.8098 62.6794 85.8698 62.6694 85.9198 62.6494C85.9598 62.6394 86.0098 62.6294 86.0498 62.6094C86.5598 62.4594 87.0698 62.2994 87.5698 62.1194C87.6498 62.0894 87.7298 62.0694 87.8098 62.0394C88.3998 61.8294 88.9898 61.6094 89.5598 61.3594C89.6698 61.3094 89.7898 61.2594 89.8998 61.2094C90.4098 60.9794 90.9198 60.7494 91.4198 60.4994C91.4798 60.4694 91.5298 60.4494 91.5898 60.4194C92.1598 60.1294 92.7298 59.8194 93.2798 59.4894C93.3198 59.4694 93.3598 59.4394 93.3898 59.4194C93.8998 59.1094 94.3998 58.7894 94.8998 58.4594C94.9598 58.4194 95.0198 58.3794 95.0798 58.3294C96.1398 57.5994 97.1598 56.7994 98.1198 55.9394C98.1498 55.9094 98.1798 55.8794 98.2198 55.8494C98.3898 55.6994 98.5398 55.5194 98.7098 55.3694C99.1198 54.9794 99.5198 54.5894 99.9098 54.1794C100.18 53.8994 100.43 53.6194 100.69 53.3294C101.04 52.9294 101.38 52.5294 101.71 52.1094C101.88 51.8994 102.07 51.6994 102.23 51.4794C102.23 51.4794 102.24 51.4594 102.25 51.4594C103.05 50.3994 103.78 49.2894 104.44 48.1294C105.52 50.0194 106.79 51.8094 108.27 53.4694C113.78 59.6394 121.36 63.2894 129.62 63.7494C130.21 63.7794 130.8 63.7994 131.38 63.7994C131.38 63.7994 131.38 63.7994 131.39 63.7994C138.21 63.7994 144.69 61.6094 150.13 57.4594L150.48 57.1894C149.07 56.0794 147.74 54.8394 146.51 53.4694L146.52 53.4494ZM95.9198 41.8294C95.6398 42.4094 95.3198 42.9694 94.9898 43.5194C94.9698 43.5594 94.9398 43.5994 94.9198 43.6394C94.5998 44.1494 94.2698 44.6394 93.9098 45.1194C93.8698 45.1794 93.8198 45.2394 93.7698 45.2994C93.4198 45.7494 93.0598 46.1894 92.6798 46.6094C92.6198 46.6794 92.5498 46.7494 92.4798 46.8194C92.1098 47.2194 91.7198 47.5994 91.3198 47.9694C91.2398 48.0494 91.1498 48.1194 91.0698 48.1994C90.6798 48.5494 90.2698 48.8794 89.8398 49.1994C89.7398 49.2794 89.6398 49.3494 89.5298 49.4294C89.1098 49.7294 88.6798 50.0194 88.2398 50.2894C88.1198 50.3594 88.0098 50.4394 87.8898 50.5094C87.4498 50.7694 86.9998 50.9994 86.5498 51.2294C86.4198 51.2894 86.2898 51.3594 86.1598 51.4294C85.6998 51.6394 85.2298 51.8294 84.7598 52.0094C84.6198 52.0594 84.4798 52.1194 84.3398 52.1694C83.8598 52.3394 83.3598 52.4794 82.8598 52.6194C82.7198 52.6594 82.5798 52.7094 82.4398 52.7394C81.9098 52.8694 81.3598 52.9694 80.8098 53.0594C80.6998 53.0794 80.5898 53.1094 80.4798 53.1194C79.8198 53.2194 79.1398 53.2794 78.4598 53.3094C77.7698 53.3394 77.0698 53.3394 76.3598 53.2994C70.8898 52.9894 65.8698 50.5694 62.2298 46.4894C58.5798 42.4094 56.7398 37.1494 57.0498 31.6794C57.6598 20.8394 66.6398 12.3394 77.4898 12.3394C77.8698 12.3394 78.2598 12.3394 78.6498 12.3694C79.2998 12.4094 79.9398 12.4794 80.5698 12.5794C80.7098 12.5994 80.8498 12.6294 80.9998 12.6494C81.5198 12.7394 82.0298 12.8494 82.5298 12.9694C82.6498 12.9994 82.7598 13.0294 82.8798 13.0594C87.3098 14.2594 91.1198 16.9194 93.8098 20.4494C93.8998 20.5594 93.9898 20.6694 94.0698 20.7794C94.3698 21.1894 94.6398 21.6194 94.9098 22.0494C95.0098 22.1994 95.0998 22.3494 95.1998 22.5094C95.4498 22.9394 95.6798 23.3794 95.8998 23.8194C95.9798 23.9894 96.0698 24.1594 96.1498 24.3294C96.3598 24.7794 96.5498 25.2394 96.7198 25.7094C96.7798 25.8794 96.8398 26.0594 96.8998 26.2294C97.0698 26.7094 97.2198 27.1994 97.3498 27.6994C97.3898 27.8594 97.4198 28.0194 97.4598 28.1694C97.5798 28.6994 97.6998 29.2394 97.7798 29.7794C97.7898 29.8694 97.7998 29.9594 97.8098 30.0594C97.9798 31.3394 98.0498 32.6394 97.9698 33.9794C97.8098 36.7894 97.0898 39.4394 95.9298 41.8294C95.9298 41.8294 95.9298 41.8294 95.9298 41.8394L95.9198 41.8294Z" fill="black"/>
<path d="M305.839 1.40991L305.719 19.6199C305.709 24.4199 303.269 28.8199 299.589 32.0399C296.949 34.3499 293.439 35.4799 289.859 35.5799C289.819 35.5799 289.769 35.5799 289.729 35.5799C289.689 35.5799 289.639 35.5799 289.599 35.5799C286.019 35.4799 282.509 34.3499 279.869 32.0399C276.189 28.8199 273.749 24.4199 273.739 19.6199L273.619 1.40991H261.619L261.639 18.5899C260.649 14.8999 258.579 11.4599 255.339 8.57991C250.179 4.02991 242.679 0.37991 235.009 0.0299101C218.989 -0.69009 205.439 10.1899 204.549 22.8599C204.549 22.9499 204.539 23.0499 204.529 23.1399V23.7199C203.239 19.5099 201.069 15.5799 198.039 12.1899C192.529 6.01991 184.949 2.36991 176.689 1.90991C159.529 0.95991 144.999 14.1099 144.039 31.0799C143.569 39.3399 146.349 47.2799 151.859 53.4499C157.369 59.6199 164.949 63.2699 173.209 63.7299C173.799 63.7599 174.389 63.7799 174.969 63.7799C188.809 63.7799 200.589 54.6199 204.499 41.9199L204.479 63.7799H215.969V25.0199L215.989 23.9999V23.7399C215.989 23.6399 215.989 23.5299 215.989 23.4299C216.519 15.9699 224.669 10.1699 234.359 10.6099C239.719 10.8499 244.189 12.5599 247.279 16.0299C249.519 18.5399 250.669 21.8799 250.749 24.9299C251.129 39.0599 235.609 39.3599 235.609 39.3599C228.129 39.3999 221.649 32.6799 221.649 32.6799V44.0399L246.019 63.7299H262.929L240.769 47.1599C253.209 45.9599 261.349 37.8499 262.219 25.4899C262.219 25.3599 262.219 25.2399 262.219 25.1099C264.479 34.9199 272.639 42.6899 283.039 44.9299V64.2299H296.309V44.9299C308.589 42.2799 317.779 31.9499 317.779 19.6299L317.799 1.41991H305.799L305.839 1.40991ZM195.429 33.9699C194.799 45.1999 185.179 53.9399 173.819 53.2799C168.349 52.9699 163.339 50.5499 159.689 46.4699C156.039 42.3899 154.199 37.1299 154.509 31.6599C155.119 20.8099 164.099 12.3199 174.949 12.3199C175.339 12.3199 175.729 12.3199 176.119 12.3499C187.399 12.9899 196.069 22.6799 195.429 33.9599V33.9699Z" fill="black"/>
</g>
<defs>
<filter id="filter0_d_894_9685" x="0" y="0" width="321.84" height="72.2305" filterUnits="userSpaceOnUse" color-interpolation-filters="sRGB">
<feFlood flood-opacity="0" result="BackgroundImageFix"/>
<feColorMatrix in="SourceAlpha" type="matrix" values="0 0 0 0 0 0 0 0 0 0 0 0 0 0 0 0 0 0 127 0" result="hardAlpha"/>
<feOffset dy="4"/>
<feGaussianBlur stdDeviation="2"/>
<feComposite in2="hardAlpha" operator="out"/>
<feColorMatrix type="matrix" values="0 0 0 0 0 0 0 0 0 0 0 0 0 0 0 0 0 0 0.25 0"/>
<feBlend mode="normal" in2="BackgroundImageFix" result="effect1_dropShadow_894_9685"/>
<feBlend mode="normal" in="SourceGraphic" in2="effect1_dropShadow_894_9685" result="shape"/>
</filter>
<clipPath id="clip0_894_9685">
<rect width="313.84" height="64.23" fill="white" transform="translate(4)"/>
</clipPath>
</defs>
</svg>
