<svg width="1099" height="676" viewBox="0 0 1099 676" fill="none" xmlns="http://www.w3.org/2000/svg">
<path d="M0.00640152 25.5571H118.159C138.689 25.5571 153.745 29.5042 163.335 37.4049C172.713 44.8641 178.039 56.3024 177.706 68.2781C177.706 88.551 168.283 107.73 149.431 125.822C130.578 143.913 111.201 152.959 91.2921 152.959C86.6958 152.927 82.1187 152.332 77.6632 151.187C72.6188 149.894 67.6897 148.18 62.9269 146.056V225.702C62.9269 244.753 72.382 254.579 91.2985 255.174V264.131H0.00640152V255.174C11.2027 255.04 18.7308 252.942 22.591 248.873C26.4511 244.804 28.3779 237.083 28.3779 225.702V63.9663C28.3779 51.9011 26.259 44.0388 22.0276 40.3668C17.7962 36.6948 10.4537 34.75 0 34.5197V25.5571H0.00640152ZM62.9205 46.4698V121.03C69.9046 126.429 77.5288 130.952 85.6203 134.483C91.9386 137.292 98.7498 138.814 105.663 138.968C115.848 139.659 125.713 135.245 131.98 127.197C137.818 119.348 140.744 107.577 140.744 91.8776C141.243 77.4326 137.3 63.1859 129.452 51.0502C122.199 40.1685 109.76 33.8863 96.6949 34.5197C84.436 34.75 72.5868 38.9402 62.9141 46.457H62.9269L62.9205 46.4698ZM248.462 7.65114C243.213 10.0821 240.019 15.5006 240.435 21.2709V226.086C240.435 237.032 242.707 244.555 247.246 248.656C251.791 252.763 259.031 254.938 268.979 255.181V264.137H183.115V255.181C193.319 254.931 200.662 252.692 205.143 248.47C209.624 244.241 211.865 236.782 211.865 226.086V48.6832C211.865 37.2449 207.134 31.5258 197.679 31.5258C192.699 31.7241 187.776 32.7284 183.122 34.5133V25.5571L248.449 0L248.462 7.65114ZM304.635 116.398C333.308 97.4944 360.29 88.0457 385.589 88.0457C397.432 88.0457 405.965 90.6557 411.208 95.8823C416.444 101.109 418.999 109.937 418.871 122.367V238.964C418.871 244.561 421.406 247.357 426.482 247.357C431.558 247.357 440.156 241.638 452.658 230.199V241.766C433.741 260.292 418.314 269.555 406.368 269.555C395.665 269.555 390.32 263.587 390.32 251.649V224.045C378.33 236.872 365.104 248.496 350.842 258.744C341.969 265.308 331.33 269.069 320.306 269.549C311.12 269.619 302.376 265.621 296.416 258.635C289.822 251.374 286.282 241.855 286.526 232.055C286.526 205.071 321.119 175.97 390.307 144.757V122.373C390.525 116.13 388.316 110.046 384.149 105.395C379.738 100.789 373.535 98.3389 367.159 98.6843C354.836 98.6843 343.89 104.653 334.307 116.59C324.359 129.455 318.392 144.949 317.138 161.16H304.642V116.405L304.635 116.398ZM392.375 159.874C371.986 163.406 352.737 171.754 336.227 184.216C321.894 195.712 314.724 207.496 314.724 219.567C314.404 226.463 317.016 233.174 321.926 238.036C327.022 242.751 333.794 245.233 340.727 244.939C355.06 244.939 367.198 237.377 377.126 222.254C387.055 207.131 392.138 186.34 392.375 159.874ZM454.553 93.285H515.015V102.241C510.284 102.491 507.922 103.981 507.922 106.719C507.954 108.338 508.332 109.931 509.042 111.383L555.197 226.144L573.621 177.787C581.879 155.902 586.008 137.746 586.008 123.32C586.571 117.217 584.228 111.204 579.683 107.09C575.516 103.853 568.705 102.241 559.243 102.241V93.285H637.079V102.241C630.159 102.286 623.534 105.069 618.656 109.982C614.341 114.646 608.842 124.875 602.172 140.67L538.15 306.672C528.33 332.166 509.785 346.092 482.527 348.459L452.287 312.839L462.375 304.824C472.195 317.004 483.148 323.094 495.222 323.094C501.565 323.094 507.736 320.996 512.762 317.126C517.857 313.434 522.012 308.604 524.893 303.013C527.632 297.595 531.787 287.532 537.363 272.824L540.339 265.161L489.447 138.616C483.974 124.939 478.75 115.49 473.77 110.27C468.764 105.037 461.793 102.126 454.546 102.254L454.559 93.2978L454.553 93.285ZM617.516 246.148H658.447V252.302C655.112 252.385 653.441 253.716 653.441 256.281C653.499 257.778 653.806 259.256 654.344 260.657L681.877 340.45L696.517 305.393C701.959 293.571 705.095 280.815 705.755 267.822C705.755 257.74 699.68 252.564 687.536 252.302V246.148H729.248V252.302C725.567 252.302 723.73 253.543 723.73 256.025C723.877 257.874 724.306 259.691 725.01 261.412L752.364 340.341L768.291 301.555C773.252 290.782 776.152 279.164 776.824 267.323C777.1 263.165 775.544 259.096 772.561 256.179C768.336 253.198 763.183 251.835 758.036 252.328V246.148H813.089V252.302C807.116 253.326 801.765 256.601 798.141 261.457C792.054 270.035 787.118 279.369 783.45 289.221L749.829 369.5H742.135L714.736 290.519C710.716 298.043 707.592 304.113 705.364 308.726L700.857 317.957C699.219 321.034 697.759 324.201 696.479 327.451L679.24 369.513H671.539L642.021 283.956C639.544 275.038 635.568 266.606 630.281 259.013C627.176 255.059 622.529 252.609 617.51 252.276L617.523 246.141L617.516 246.148ZM847.996 189.206C851.396 189.091 854.68 190.415 857.042 192.859C859.334 195.149 860.607 198.271 860.569 201.514C860.614 204.751 859.314 207.86 856.984 210.106C854.692 212.453 851.536 213.746 848.259 213.688C845.033 213.733 841.928 212.46 839.662 210.163C837.312 207.905 836.013 204.764 836.077 201.508C835.974 198.155 837.332 194.925 839.802 192.66C841.979 190.492 844.917 189.25 847.996 189.212V189.206ZM818.857 357.46C824.119 357.703 829.31 356.187 833.612 353.161C836.864 350.468 838.49 345.229 838.49 337.45V267.31C838.49 261.923 835.411 259.23 829.253 259.23C826.731 259.294 824.24 259.864 821.936 260.9C820.937 261.361 819.913 261.744 818.857 262.051V255.501L851.818 242.546H858.124V337.45C858.124 345.056 859.705 350.251 862.867 353.033C867.169 356.181 872.431 357.742 877.751 357.46V363.615H818.85V357.46H818.857ZM933.322 205.749V212.396C927.932 213.675 925.237 219.746 925.237 230.602C924.936 235.803 925.57 241.011 927.094 245.988C928.451 249.014 930.749 251.528 933.642 253.153C937.483 255.206 941.804 256.179 946.151 255.974H956.803V261.744H925.346V344.109C925.192 346.24 925.756 348.357 926.94 350.135C928.118 351.556 929.91 352.317 931.747 352.189C935.94 352.189 942.182 348.766 950.485 341.928C951.426 341.16 952.149 340.604 952.668 340.258V347.685C938.085 360.768 926.46 367.306 917.792 367.306C914.143 367.504 910.674 365.713 908.721 362.623C906.43 358.356 905.386 353.526 905.7 348.696V261.776H886.066V256.006C891.783 256.563 897.506 254.957 902.108 251.515C905.271 248.521 906.852 243.263 906.852 235.739V216.362L933.322 205.736V205.749ZM1009.81 182.022V187.536C1006.18 189.084 1004.03 192.859 1004.55 196.767V284.998C1012.5 273.074 1022.09 262.327 1033.03 253.07C1040.06 246.762 1049.01 243.007 1058.44 242.425C1064.41 242.143 1070.15 244.772 1073.84 249.474C1077.92 255.693 1079.86 263.075 1079.36 270.496V337.456C1079.36 344.807 1080.84 349.937 1083.79 352.842C1088.11 356.213 1093.53 357.857 1099 357.46V363.615H1054.09V357.46C1057.85 357.288 1059.73 354.985 1059.73 350.539V273.976C1060.06 269.543 1058.87 265.135 1056.35 261.476C1053.81 258.571 1050.04 257.03 1046.19 257.311C1035.63 257.311 1025.81 265.071 1016.73 280.597C1007.68 296.059 1002.97 313.677 1003.12 331.59C1003.12 348.862 1008.35 357.486 1018.81 357.454H1023.93V363.621H965.535V357.467C970.771 357.723 975.931 356.181 980.162 353.091C983.325 350.353 984.906 345.139 984.906 337.443V210.886C984.906 205.845 982.063 203.324 976.379 203.324C972.602 203.452 968.876 204.278 965.4 205.762V199.608L1009.79 182.034L1009.81 182.022ZM213.913 624.521C174.499 658.478 138.567 675.456 106.118 675.456C79.6349 675.456 55.8597 665.355 34.7859 645.146C13.7121 624.937 3.17515 597.109 3.18156 561.655C2.79106 538.471 8.4436 515.582 19.5886 495.245C30.9001 475.317 46.8655 458.422 66.1213 445.986C86.1965 432.68 110.349 426.026 138.574 426.026C162.311 425.879 185.9 429.788 208.318 437.593V493.94H195.067C194.043 477.326 185.458 462.101 171.772 452.62C157.177 442.525 139.745 437.33 121.994 437.791C95.0241 437.791 73.8287 447.675 58.4139 467.449C42.999 487.223 35.2916 511.475 35.2852 540.198C35.2852 571.289 44.0489 597.089 61.5698 617.612C78.1369 637.693 103.032 649.042 129.067 648.389C156.543 648.389 184.825 636.637 213.907 613.134V624.514L213.913 624.521ZM325.165 494.317C348.684 494.317 367.505 501.687 381.633 516.42C395.761 531.159 402.822 550.773 402.816 575.268C402.816 604.369 392.983 628.34 373.324 647.174C353.665 666.014 332.008 675.43 308.368 675.43C284.727 675.43 266.06 667.939 252.374 652.957C238.687 637.974 231.844 618.475 231.844 594.46C231.14 567.592 241.734 541.651 261.048 522.945C280.521 503.856 301.896 494.311 325.165 494.311V494.317ZM309.302 508.865C292.377 508.865 279.439 514.897 270.477 526.956C261.156 540.192 256.432 556.115 257.04 572.287C256.855 594.14 264.351 615.366 278.223 632.255C292.345 649.854 308.803 658.65 327.598 658.65C341.451 658.695 354.529 652.279 362.973 641.301C372.62 629.735 377.44 614.624 377.44 595.97C377.702 579.708 373.714 563.657 365.866 549.411C359.561 537.275 350.483 526.79 339.364 518.819C330.574 512.549 320.095 509.076 309.302 508.852V508.865ZM487.546 413.545C482.297 415.976 479.103 421.395 479.519 427.165V631.98C479.519 642.926 481.791 650.449 486.33 654.55C490.875 658.657 498.121 660.832 508.076 661.081V670.031H422.238V661.075C432.442 660.825 439.784 658.586 444.265 654.364C448.746 650.136 450.987 642.676 450.987 631.98V454.584C450.987 443.145 446.256 437.426 436.801 437.426C431.821 437.625 426.898 438.629 422.244 440.414V431.458L487.546 405.9V413.552V413.545ZM615.967 494.33C639.486 494.33 658.307 501.7 672.435 516.433C686.563 531.172 693.624 550.786 693.617 575.281C693.617 604.382 683.785 628.353 664.126 647.186C644.466 666.026 622.81 675.443 599.169 675.443C575.529 675.443 556.862 667.952 543.175 652.97C529.489 637.987 522.646 618.488 522.646 594.473C521.941 567.592 532.536 541.644 551.856 522.932C571.336 503.849 592.71 494.311 615.98 494.311L615.967 494.324V494.33ZM600.117 508.865C583.191 508.865 570.254 514.897 561.292 526.956C551.971 540.192 547.247 556.115 547.855 572.287C547.669 594.14 555.165 615.366 569.037 632.255C583.159 649.854 599.617 658.65 618.412 658.65C632.265 658.695 645.344 652.279 653.787 641.301C663.434 629.735 668.255 614.624 668.255 595.97C668.517 579.708 664.529 563.657 656.681 549.411C650.375 537.275 641.298 526.79 630.178 518.819C621.389 512.549 610.91 509.076 600.117 508.852V508.865ZM711.548 513.906L760.641 493.946H768.854V554.567C781.67 532.682 793.123 517.162 803.199 508.007C813.281 498.853 823.607 494.285 834.182 494.298C839.207 494.464 844.175 495.405 848.918 497.081V554.56H835.667C835.552 532.055 829.016 520.802 816.066 520.802C803.115 520.802 791.836 531.281 781.818 552.238C771.511 574.526 766.377 598.855 766.793 623.401C766.793 639.068 769.687 649.266 775.474 653.993C781.261 658.721 792.303 661.081 808.602 661.081V670.025H711.542V661.068C721.746 660.819 729.088 658.612 733.569 654.447C738.05 650.283 740.291 642.791 740.291 631.974V535.157C740.291 524.212 736.245 518.742 728.16 518.742C722.45 519.279 716.849 520.668 711.548 522.843V513.893V513.906Z" fill="#5EE3D4"/>
</svg>
