<svg width="132" height="127" viewBox="0 0 132 127" fill="none" xmlns="http://www.w3.org/2000/svg">
<path d="M45.2674 123H31.4881C16.268 123 3.92969 110.661 3.92969 95.4415V52.0893C3.92969 42.4526 8.96331 33.516 17.2045 28.5213L51.6526 7.64367C60.4321 2.32296 71.4403 2.32296 80.2198 7.64367L114.668 28.5213C122.909 33.516 127.943 42.4526 127.943 52.0893V95.4415C127.943 110.661 115.604 123 100.384 123H86.6051M45.2674 123V95.4415C45.2674 84.0261 54.5208 74.7727 65.9362 74.7727C77.3516 74.7727 86.6051 84.0261 86.6051 95.4415V123M45.2674 123H86.6051" stroke="#287A70" stroke-width="7" stroke-linecap="round" stroke-linejoin="round"/>
</svg>
