<svg width="804" height="408" viewBox="0 0 804 408" fill="none" xmlns="http://www.w3.org/2000/svg">
<mask id="mask0_287_913" style="mask-type:luminance" maskUnits="userSpaceOnUse" x="0" y="0" width="804" height="408">
<path d="M796.991 3.47396e-05L0 13.4941L6.67398 407.674L803.665 394.18L796.991 3.47396e-05Z" fill="white"/>
</mask>
<g mask="url(#mask0_287_913)">
<path d="M12.1987 389.467C97.5048 411.453 187.993 384.868 247.843 320.229C275.26 290.028 294.658 253.439 304.268 213.799C313.827 174.026 316.27 122.15 284.914 90.9337C271.523 77.5999 252.601 68.8143 233.469 70.8505C217.021 72.9629 202.894 83.5627 196.259 98.7615C189.072 113.237 188.983 130.225 196.018 144.783C205.882 163.217 226.878 172.212 245.623 178.676C336.791 209.847 435.855 209.029 526.496 176.354C612.69 145.335 687.492 89.8807 758.696 33.4689C767.704 26.3262 776.693 19.1518 785.65 11.952C790.363 8.17138 795.196 16.2656 790.521 20.0018C714.635 80.8414 636.871 142.385 545.92 179.012C451.181 217.415 345.931 221.176 248.693 189.637C228.471 182.957 207.074 174.749 193.335 157.584C182.621 143.597 178.859 125.493 183.109 108.391C186.611 91.8916 196.652 77.5174 210.944 68.5606C227.773 58.6331 248.509 59.5022 266.068 66.9684C309.653 85.4974 322.55 135.211 319.276 178.663C315.769 221.741 301.058 263.157 276.617 298.807C251.916 335.351 217.782 364.525 177.844 383.244C135.775 402.68 89.1696 410.165 43.1292 404.875C31.9077 403.556 20.794 401.462 9.86436 398.608C7.37775 397.84 5.9822 395.201 6.74975 392.715C7.46656 390.393 9.8263 388.997 12.2051 389.486" fill="#5EE3D4"/>
<path d="M707.943 5.08862C734.147 19.5896 762.363 20.0781 791.948 10.988C787.622 38.0362 787.622 65.6047 791.948 92.6593" stroke="#5EE3D4" stroke-width="12.44" stroke-miterlimit="10"/>
</g>
</svg>
