<svg width="128" height="128" viewBox="0 0 128 128" fill="none" xmlns="http://www.w3.org/2000/svg">
<circle cx="64" cy="64" r="60" stroke="#287A70" stroke-width="7"/>
<path d="M59.053 97.3742C58.003 96.2903 57.478 94.9957 57.478 93.4903C57.478 91.9548 58.003 90.6452 59.053 89.5613C60.103 88.4774 61.378 87.9355 62.878 87.9355C64.378 87.9355 65.653 88.4774 66.703 89.5613C67.753 90.6452 68.278 91.9548 68.278 93.4903C68.278 94.9957 67.753 96.2903 66.703 97.3742C65.653 98.4581 64.378 99 62.878 99C61.378 99 60.103 98.4581 59.053 97.3742ZM45.7449 60.4774C43.9149 57.2258 42.9999 53.6581 42.9999 49.7742C42.9999 44.6258 45.0249 39.8839 49.0749 35.5484C53.1849 31.1828 58.7349 29 65.7249 29C72.8049 29 78.3549 31.1828 82.3749 35.5484C86.1249 39.6129 87.9999 44.6559 87.9999 50.6774C87.9999 58.9871 83.0649 65.8968 73.1949 71.4064C69.2049 73.6344 67.1649 78.5871 67.0749 81.2968H61.8999H59.053C59.083 75.4559 61.243 71.1656 65.533 68.4258C72.973 63.6688 79.0899 57.7376 79.0899 50.6323C79.0899 44.7011 78.0399 40.5763 75.9399 38.2581C73.3599 35.3978 69.9549 33.9677 65.7249 33.9677C61.5249 33.9677 58.0299 35.5183 55.2399 38.6194C53.0799 41.028 51.9999 45.0925 51.9999 50.8129C51.9999 52.8301 52.5849 54.8323 53.7549 56.8194L46.1949 60.4774H45.7449Z" fill="#287A70"/>
</svg>
