<svg width="840" height="610" viewBox="0 0 840 610" fill="none" xmlns="http://www.w3.org/2000/svg">
<rect x="140" width="140" height="152.5" rx="15" fill="#C07382"/>
<rect width="140" height="152.5" rx="15" fill="#D79A87"/>
<rect y="152.5" width="140" height="152.5" rx="15" fill="#C8A399"/>
<rect x="140" y="152.5" width="140" height="152.5" rx="15" fill="#D8777F"/>
<rect x="140" y="305" width="140" height="152.5" rx="15" fill="#C8A399"/>
<rect y="305" width="140" height="152.5" rx="15" fill="#DC7489"/>
<rect x="140" y="457.5" width="140" height="152.5" rx="15" fill="#E39C9C"/>
<rect y="457.5" width="140" height="152.5" rx="15" fill="#954164"/>
<rect x="280" width="140" height="152.5" rx="15" fill="#ED9F99"/>
<rect x="280" y="152.5" width="140" height="152.5" rx="15" fill="#CE5371"/>
<rect x="280" y="305" width="140" height="152.5" rx="15" fill="#975B83"/>
<rect x="280" y="457.5" width="140" height="152.5" rx="15" fill="#DA95B1"/>
<rect x="420" width="140" height="152.5" rx="15" fill="#E3B1BE"/>
<rect x="420" y="152.5" width="140" height="152.5" rx="15" fill="#F29F8A"/>
<rect x="420" y="305" width="140" height="152.5" rx="15" fill="#B54B53"/>
<rect x="420" y="457.5" width="140" height="152.5" rx="15" fill="#D2646C"/>
<rect x="560" width="140" height="152.5" rx="15" fill="#C46662"/>
<rect x="560" y="152.5" width="140" height="152.5" rx="15" fill="#E56166"/>
<rect x="560" y="305" width="140" height="152.5" rx="15" fill="#D27E68"/>
<rect x="560" y="457.5" width="140" height="152.5" rx="15" fill="#E7A89B"/>
<rect x="700" width="140" height="152.5" rx="15" fill="#D45867"/>
<rect x="700" y="152.5" width="140" height="152.5" rx="15" fill="#E8CACB"/>
<rect x="700" y="305" width="140" height="152.5" rx="15" fill="#E1A4A2"/>
<rect x="700" y="457.5" width="140" height="152.5" rx="15" fill="#B54B53"/>
</svg>
