<svg width="800" height="598" viewBox="0 0 800 598" fill="none" xmlns="http://www.w3.org/2000/svg">
<path d="M729.96 332.532H729.647V332.686H729.96V332.532Z" fill="#E8D3E5"/>
<path d="M166.002 10H127.002V48.5297H166.002V10Z" fill="#B1CADE"/>
<path d="M88.0019 10H49.002V48.5297H88.0019V10Z" fill="#498EBA"/>
<path d="M49 10H10V48.5297H49V10Z" fill="#CED6DF"/>
<path d="M282.998 10H243.998V48.5297H282.998V10Z" fill="#148095"/>
<path d="M321.998 10H282.998V48.5297H321.998V10Z" fill="#9EC8D9"/>
<path d="M360.998 10H321.998V48.5297H360.998V10Z" fill="#5D9FCA"/>
<path d="M243.998 10H204.998V48.5297H243.998V10Z" fill="#9BB894"/>
<path d="M205.002 10H166.002V48.5297H205.002V10Z" fill="#5BA2A9"/>
<path d="M127 10H88V48.5297H127V10Z" fill="#2B5C97"/>
<path d="M399.996 10H360.996V48.5297H399.996V10Z" fill="#63A5CF"/>
<path d="M750.998 10H711.998V48.5297H750.998V10Z" fill="#9DBEAA"/>
<path d="M711.998 10H672.998V48.5297H711.998V10Z" fill="#82B9DA"/>
<path d="M556.002 10H517.002V48.5297H556.002V10Z" fill="#93AED6"/>
<path d="M477.998 10H438.998V48.5297H477.998V10Z" fill="#8CB0D4"/>
<path d="M439.002 10H400.002V48.5297H439.002V10Z" fill="#DAE2ED"/>
<path d="M517 10H478V48.5297H517V10Z" fill="#6F3480"/>
<path d="M595.002 10H556.002V48.5297H595.002V10Z" fill="#394E95"/>
<path d="M672.998 10H633.998V48.5297H672.998V10Z" fill="#509936"/>
<path d="M633.998 10H594.998V48.5297H633.998V10Z" fill="#728BBF"/>
<path d="M790 10H751V48.5297H790V10Z" fill="#C7C9C4"/>
<path d="M49 48.5293H10V87.059H49V48.5293Z" fill="#15889B"/>
<path d="M750.998 48.5293H711.998V87.059H750.998V48.5293Z" fill="#647259"/>
<path d="M790 48.5293H751V87.059H790V48.5293Z" fill="#389DC8"/>
<path d="M711.998 48.5293H672.998V87.059H711.998V48.5293Z" fill="#1898C7"/>
<path d="M672.998 48.5293H633.998V87.059H672.998V48.5293Z" fill="#5187B9"/>
<path d="M633.998 48.5293H594.998V87.059H633.998V48.5293Z" fill="#E8CB98"/>
<path d="M360.998 48.5293H321.998V87.059H360.998V48.5293Z" fill="#103674"/>
<path d="M439.002 48.5293H400.002V87.059H439.002V48.5293Z" fill="#C9C7E2"/>
<path d="M399.996 48.5293H360.996V87.059H399.996V48.5293Z" fill="#608EBD"/>
<path d="M321.998 48.5293H282.998V87.059H321.998V48.5293Z" fill="#A4CDE4"/>
<path d="M477.998 48.5293H438.998V87.059H477.998V48.5293Z" fill="#70B2B2"/>
<path d="M556.002 48.5293H517.002V87.059H556.002V48.5293Z" fill="#3D83B6"/>
<path d="M517 48.5293H478V87.059H517V48.5293Z" fill="#9BC8E2"/>
<path d="M595.002 48.5293H556.002V87.059H595.002V48.5293Z" fill="#C3B09B"/>
<path d="M282.998 48.5293H243.998V87.059H282.998V48.5293Z" fill="#329BB6"/>
<path d="M243.998 48.5293H204.998V87.059H243.998V48.5293Z" fill="#076F93"/>
<path d="M88.0019 48.5293H49.002V87.059H88.0019V48.5293Z" fill="#0D7796"/>
<path d="M127 48.5293H88V87.059H127V48.5293Z" fill="#9B9B7A"/>
<path d="M205.002 48.5293H166.002V87.059H205.002V48.5293Z" fill="#B2CAE0"/>
<path d="M166.002 48.5293H127.002V87.059H166.002V48.5293Z" fill="#256AA4"/>
<path d="M321.998 549.416H282.998V587.946H321.998V549.416Z" fill="#0A1731"/>
<path d="M750.998 549.416H711.998V587.946H750.998V549.416Z" fill="#CCD698"/>
<path d="M711.998 549.416H672.998V587.946H711.998V549.416Z" fill="#51A2CB"/>
<path d="M790 549.416H751V587.946H790V549.416Z" fill="#B9D9E8"/>
<path d="M672.998 549.416H633.998V587.946H672.998V549.416Z" fill="#B3D0E7"/>
<path d="M282.998 549.416H243.998V587.946H282.998V549.416Z" fill="#165E71"/>
<path d="M205.002 549.416H166.002V587.946H205.002V549.416Z" fill="#B5D9E8"/>
<path d="M166.002 549.416H127.002V587.946H166.002V549.416Z" fill="#2B8BBC"/>
<path d="M243.998 549.416H204.998V587.946H243.998V549.416Z" fill="#B5D3D6"/>
<path d="M127 549.416H88V587.946H127V549.416Z" fill="#375C98"/>
<path d="M88.0019 549.416H49.002V587.946H88.0019V549.416Z" fill="#6AA8D1"/>
<path d="M49 549.416H10V587.946H49V549.416Z" fill="#215973"/>
<path d="M439.002 549.416H400.002V587.946H439.002V549.416Z" fill="#7E8F2E"/>
<path d="M477.998 549.416H438.998V587.946H477.998V549.416Z" fill="#6C7C61"/>
<path d="M556.002 549.416H517.002V587.946H556.002V549.416Z" fill="#A6D0E3"/>
<path d="M517 549.416H478V587.946H517V549.416Z" fill="#BEDEE9"/>
<path d="M595.002 549.416H556.002V587.946H595.002V549.416Z" fill="#38729F"/>
<path d="M633.998 549.416H594.998V587.946H633.998V549.416Z" fill="#568185"/>
<path d="M360.998 549.416H321.998V587.946H360.998V549.416Z" fill="#AFD6E7"/>
<path d="M399.996 549.416H360.996V587.946H399.996V549.416Z" fill="#509936"/>
<path d="M166.002 164.119H127.002V202.648H166.002V164.119Z" fill="#8BC2DF"/>
<path d="M633.998 164.119H594.998V202.648H633.998V164.119Z" fill="#C9D3E4"/>
<path d="M127 164.119H88V202.648H127V164.119Z" fill="#84BCDB"/>
<path d="M672.998 164.119H633.998V202.648H672.998V164.119Z" fill="#F2ECDE"/>
<path d="M282.998 164.119H243.998V202.648H282.998V164.119Z" fill="#7FB5C8"/>
<path d="M321.998 164.119H282.998V202.648H321.998V164.119Z" fill="#CDB8D6"/>
<path d="M205.002 164.119H166.002V202.648H205.002V164.119Z" fill="#BBD5C5"/>
<path d="M243.998 164.119H204.998V202.648H243.998V164.119Z" fill="#ACCAAF"/>
<path d="M360.998 164.119H321.998V202.648H360.998V164.119Z" fill="#B7BADA"/>
<path d="M517 164.119H478V202.648H517V164.119Z" fill="#EBB5B9"/>
<path d="M399.996 164.119H360.996V202.648H399.996V164.119Z" fill="#E9E8E8"/>
<path d="M477.998 164.119H438.998V202.648H477.998V164.119Z" fill="#8EABB5"/>
<path d="M556.002 164.119H517.002V202.648H556.002V164.119Z" fill="#B1C0DC"/>
<path d="M439.002 164.119H400.002V202.648H439.002V164.119Z" fill="#5D488E"/>
<path d="M595.002 164.119H556.002V202.648H595.002V164.119Z" fill="#8B68A1"/>
<path d="M49 164.119H10V202.648H49V164.119Z" fill="#A8CCE2"/>
<path d="M750.998 164.119H711.998V202.648H750.998V164.119Z" fill="#B5C3DE"/>
<path d="M790 164.119H751V202.648H790V164.119Z" fill="#0162A4"/>
<path d="M711.998 164.119H672.998V202.648H711.998V164.119Z" fill="#C4D0E1"/>
<path d="M88.0019 164.119H49.002V202.648H88.0019V164.119Z" fill="#1F7BB3"/>
<path d="M127 87.0591H88V125.589H127V87.0591Z" fill="#588BBB"/>
<path d="M243.998 87.0591H204.998V125.589H243.998V87.0591Z" fill="#8C96AD"/>
<path d="M166.002 87.0591H127.002V125.589H166.002V87.0591Z" fill="#DAE4EE"/>
<path d="M282.998 87.0591H243.998V125.589H282.998V87.0591Z" fill="#A4A9C1"/>
<path d="M205.002 87.0591H166.002V125.589H205.002V87.0591Z" fill="#BFD3E8"/>
<path d="M399.996 87.0591H360.996V125.589H399.996V87.0591Z" fill="#669C7B"/>
<path d="M321.998 87.0591H282.998V125.589H321.998V87.0591Z" fill="#AAAEC0"/>
<path d="M439.002 87.0591H400.002V125.589H439.002V87.0591Z" fill="#87A67E"/>
<path d="M477.998 87.0591H438.998V125.589H477.998V87.0591Z" fill="#388BBE"/>
<path d="M360.998 87.0591H321.998V125.589H360.998V87.0591Z" fill="#4CA1C8"/>
<path d="M517 87.0591H478V125.589H517V87.0591Z" fill="#60987C"/>
<path d="M633.998 87.0591H594.998V125.589H633.998V87.0591Z" fill="#6BB0D6"/>
<path d="M595.002 87.0591H556.002V125.589H595.002V87.0591Z" fill="#A3B572"/>
<path d="M556.002 87.0591H517.002V125.589H556.002V87.0591Z" fill="#C3B09B"/>
<path d="M672.998 87.0591H633.998V125.589H672.998V87.0591Z" fill="#C8E0E7"/>
<path d="M49 87.0591H10V125.589H49V87.0591Z" fill="#CFC939"/>
<path d="M750.998 87.0591H711.998V125.589H750.998V87.0591Z" fill="#BBD7C5"/>
<path d="M790 87.0591H751V125.589H790V87.0591Z" fill="#9FCBD0"/>
<path d="M711.998 87.0591H672.998V125.589H711.998V87.0591Z" fill="#AFD4DA"/>
<path d="M88.0019 87.0591H49.002V125.589H88.0019V87.0591Z" fill="#3698C2"/>
<path d="M243.998 125.589H204.998V164.119H243.998V125.589Z" fill="#93B8D8"/>
<path d="M166.002 125.589H127.002V164.119H166.002V125.589Z" fill="#ABCCB7"/>
<path d="M205.002 125.589H166.002V164.119H205.002V125.589Z" fill="#B1CFE1"/>
<path d="M633.998 125.589H594.998V164.119H633.998V125.589Z" fill="#AFCEE3"/>
<path d="M360.998 125.589H321.998V164.119H360.998V125.589Z" fill="#B7BADA"/>
<path d="M399.996 125.589H360.996V164.119H399.996V125.589Z" fill="#DC6C72"/>
<path d="M595.002 125.589H556.002V164.119H595.002V125.589Z" fill="#4292C2"/>
<path d="M282.998 125.589H243.998V164.119H282.998V125.589Z" fill="#4592C2"/>
<path d="M321.998 125.589H282.998V164.119H321.998V125.589Z" fill="#A2CAE4"/>
<path d="M439.002 125.589H400.002V164.119H439.002V125.589Z" fill="#6B9E41"/>
<path d="M556.002 125.589H517.002V164.119H556.002V125.589Z" fill="#BD417E"/>
<path d="M517 125.589H478V164.119H517V125.589Z" fill="#F1E4EF"/>
<path d="M477.998 125.589H438.998V164.119H477.998V125.589Z" fill="#AE7373"/>
<path d="M127 125.589H88V164.119H127V125.589Z" fill="#1E6C6F"/>
<path d="M672.998 125.589H633.998V164.119H672.998V125.589Z" fill="#5D488E"/>
<path d="M49 125.589H10V164.119H49V125.589Z" fill="#A2C7C0"/>
<path d="M750.998 125.589H711.998V164.119H750.998V125.589Z" fill="#72ACC3"/>
<path d="M790 125.589H751V164.119H790V125.589Z" fill="#87B9CB"/>
<path d="M711.998 125.589H672.998V164.119H711.998V125.589Z" fill="#B3D3CE"/>
<path d="M88.0019 125.589H49.002V164.119H88.0019V125.589Z" fill="#B7D3CE"/>
<path d="M166.002 202.648H127.002V241.178H166.002V202.648Z" fill="#429CBF"/>
<path d="M633.998 202.648H594.998V241.178H633.998V202.648Z" fill="#706798"/>
<path d="M127 202.648H88V241.178H127V202.648Z" fill="#6AA6CC"/>
<path d="M672.998 202.648H633.998V241.178H672.998V202.648Z" fill="#DFE2DF"/>
<path d="M556.002 202.648H517.002V241.178H556.002V202.648Z" fill="#0D789E"/>
<path d="M439.002 202.648H400.002V241.178H439.002V202.648Z" fill="#1E6C6F"/>
<path d="M477.998 202.648H438.998V241.178H477.998V202.648Z" fill="#BE9EC4"/>
<path d="M243.998 202.648H204.998V241.178H243.998V202.648Z" fill="#2690B6"/>
<path d="M360.998 202.648H321.998V241.178H360.998V202.648Z" fill="#815825"/>
<path d="M399.996 202.648H360.996V241.178H399.996V202.648Z" fill="#F5D4DB"/>
<path d="M282.998 202.648H243.998V241.178H282.998V202.648Z" fill="#A188B8"/>
<path d="M321.998 202.648H282.998V241.178H321.998V202.648Z" fill="#DAD3A8"/>
<path d="M517 202.648H478V241.178H517V202.648Z" fill="#1085B2"/>
<path d="M205.002 202.648H166.002V241.178H205.002V202.648Z" fill="#2085A7"/>
<path d="M595.002 202.648H556.002V241.178H595.002V202.648Z" fill="#62A6C2"/>
<path d="M49 202.648H10V241.178H49V202.648Z" fill="#BBAACE"/>
<path d="M750.998 202.648H711.998V241.178H750.998V202.648Z" fill="#5F9FC5"/>
<path d="M790 202.648H751V241.178H790V202.648Z" fill="#EFE7DD"/>
<path d="M711.998 202.648H672.998V241.178H711.998V202.648Z" fill="#8BB0D3"/>
<path d="M88.0019 202.648H49.002V241.178H88.0019V202.648Z" fill="#B8C9E1"/>
<path d="M166.002 279.708H127.002V318.238H166.002V279.708Z" fill="#78A3BD"/>
<path d="M633.998 279.708H594.998V318.238H633.998V279.708Z" fill="#D8E0E5"/>
<path d="M127 279.708H88V318.238H127V279.708Z" fill="#356B81"/>
<path d="M672.998 279.708H633.998V318.238H672.998V279.708Z" fill="#3C81A7"/>
<path d="M556.002 279.708H517.002V318.238H556.002V279.708Z" fill="#B3C8D2"/>
<path d="M243.998 279.708H204.998V318.238H243.998V279.708Z" fill="#F1E4EF"/>
<path d="M477.998 279.708H438.998V318.238H477.998V279.708Z" fill="#CFDEE3"/>
<path d="M517 279.708H478V318.238H517V279.708Z" fill="#C3D1D7"/>
<path d="M321.998 279.708H282.998V318.238H321.998V279.708Z" fill="#F3B476"/>
<path d="M360.998 279.708H321.998V318.238H360.998V279.708Z" fill="#F2C3C5"/>
<path d="M399.996 279.708H360.996V318.238H399.996V279.708Z" fill="#9FB9CB"/>
<path d="M439.002 279.708H400.002V318.238H439.002V279.708Z" fill="#80B6D3"/>
<path d="M282.998 279.708H243.998V318.238H282.998V279.708Z" fill="#F5CABB"/>
<path d="M205.002 279.708H166.002V318.238H205.002V279.708Z" fill="#EBB5B9"/>
<path d="M595.002 279.708H556.002V318.238H595.002V279.708Z" fill="#BECDD6"/>
<path d="M49 279.708H10V318.238H49V279.708Z" fill="#69ACD2"/>
<path d="M750.998 279.708H711.998V318.238H750.998V279.708Z" fill="#9EC6D9"/>
<path d="M790 279.708H751V318.238H790V279.708Z" fill="#CDDFE8"/>
<path d="M711.998 279.708H672.998V318.238H711.998V279.708Z" fill="#D1E1E8"/>
<path d="M88.0019 279.708H49.002V318.238H88.0019V279.708Z" fill="#E7D9D1"/>
<path d="M166.002 241.179H127.002V279.708H166.002V241.179Z" fill="#D6DACE"/>
<path d="M633.998 241.179H594.998V279.708H633.998V241.179Z" fill="#D3D9CA"/>
<path d="M671.882 241.179H632.882V279.708H671.882V241.179Z" fill="#4A9AC4"/>
<path d="M127 241.179H88V279.708H127V241.179Z" fill="#C2C9BA"/>
<path d="M243.998 241.179H204.998V279.708H243.998V241.179Z" fill="#64632A"/>
<path d="M556.002 241.179H517.002V279.708H556.002V241.179Z" fill="#CDCCC6"/>
<path d="M439.002 241.179H400.002V279.708H439.002V241.179Z" fill="#A8AE68"/>
<path d="M517 241.179H478V279.708H517V241.179Z" fill="#E1E1D4"/>
<path d="M477.998 241.179H438.998V279.708H477.998V241.179Z" fill="#C2C7B9"/>
<path d="M399.996 241.179H360.996V279.708H399.996V241.179Z" fill="#B7A57B"/>
<path d="M360.998 241.179H321.998V279.708H360.998V241.179Z" fill="#B9D9E8"/>
<path d="M282.998 241.179H243.998V279.708H282.998V241.179Z" fill="#EEECC0"/>
<path d="M321.998 241.179H282.998V279.708H321.998V241.179Z" fill="#E5A584"/>
<path d="M205.002 241.179H166.002V279.708H205.002V241.179Z" fill="#B5B0BC"/>
<path d="M595.002 241.179H556.002V279.708H595.002V241.179Z" fill="#DFDFD2"/>
<path d="M49 241.179H10V279.708H49V241.179Z" fill="#E6DDD0"/>
<path d="M750.998 241.179H711.998V279.708H750.998V241.179Z" fill="#BFCFD7"/>
<path d="M790 241.179H751V279.708H790V241.179Z" fill="#EBE4E6"/>
<path d="M711.998 241.179H672.998V279.708H711.998V241.179Z" fill="#EFE6C9"/>
<path d="M88.0019 241.179H49.002V279.708H88.0019V241.179Z" fill="#DBCBC1"/>
<path d="M790 472.356H751V510.886H790V472.356Z" fill="#9DCCDF"/>
<path d="M127 472.356H88V510.886H127V472.356Z" fill="#A2CEE1"/>
<path d="M49 472.356H10V510.886H49V472.356Z" fill="#6CB3D8"/>
<path d="M321.998 472.356H282.998V510.886H321.998V472.356Z" fill="#90B4C7"/>
<path d="M399.996 472.356H360.996V510.886H399.996V472.356Z" fill="#ABC58C"/>
<path d="M360.998 472.356H321.998V510.886H360.998V472.356Z" fill="#509936"/>
<path d="M439.002 472.356H400.002V510.886H439.002V472.356Z" fill="#679B99"/>
<path d="M166.002 472.356H127.002V510.886H166.002V472.356Z" fill="#3498C9"/>
<path d="M205.002 472.356H166.002V510.886H205.002V472.356Z" fill="#3498C9"/>
<path d="M282.998 472.356H243.998V510.886H282.998V472.356Z" fill="#1A264F"/>
<path d="M477.998 472.356H438.998V510.886H477.998V472.356Z" fill="#FBEEBA"/>
<path d="M243.998 472.356H204.998V510.886H243.998V472.356Z" fill="#276A94"/>
<path d="M711.998 472.356H672.998V510.886H711.998V472.356Z" fill="#70B2B2"/>
<path d="M517 472.356H478V510.886H517V472.356Z" fill="#247E80"/>
<path d="M672.998 472.356H633.998V510.886H672.998V472.356Z" fill="#9BC8E2"/>
<path d="M556.002 472.356H517.002V510.886H556.002V472.356Z" fill="#085C8F"/>
<path d="M595.002 472.356H556.002V510.886H595.002V472.356Z" fill="#798163"/>
<path d="M633.998 472.356H594.998V510.886H633.998V472.356Z" fill="#2392A6"/>
<path d="M750.998 472.356H711.998V510.886H750.998V472.356Z" fill="#BCDDEA"/>
<path d="M88.0019 472.356H49.002V510.886H88.0019V472.356Z" fill="#52A9D2"/>
<path d="M166.002 395.296H127.002V433.826H166.002V395.296Z" fill="#BB8B96"/>
<path d="M595.002 395.296H556.002V433.826H595.002V395.296Z" fill="#55A6A2"/>
<path d="M633.998 395.296H594.998V433.826H633.998V395.296Z" fill="#CED8CA"/>
<path d="M127 395.296H88V433.826H127V395.296Z" fill="#F0BEC7"/>
<path d="M672.998 395.296H633.998V433.826H672.998V395.296Z" fill="#B5CEC9"/>
<path d="M556.002 395.296H517.002V433.826H556.002V395.296Z" fill="#697830"/>
<path d="M517 395.296H478V433.826H517V395.296Z" fill="#6898AB"/>
<path d="M399.996 395.296H360.996V433.826H399.996V395.296Z" fill="#BACED5"/>
<path d="M439.002 395.296H400.002V433.826H439.002V395.296Z" fill="#9ABDCA"/>
<path d="M205.002 395.296H166.002V433.826H205.002V395.296Z" fill="#F0C3CC"/>
<path d="M477.998 395.296H438.998V433.826H477.998V395.296Z" fill="#8CAFBA"/>
<path d="M360.998 395.296H321.998V433.826H360.998V395.296Z" fill="#7DA3AF"/>
<path d="M243.998 395.296H204.998V433.826H243.998V395.296Z" fill="#F8D7CC"/>
<path d="M321.998 395.296H282.998V433.826H321.998V395.296Z" fill="#196A76"/>
<path d="M282.998 395.296H243.998V433.826H282.998V395.296Z" fill="#085C8F"/>
<path d="M49 395.296H10V433.826H49V395.296Z" fill="#004B63"/>
<path d="M790 395.296H751V433.826H790V395.296Z" fill="#CDD8D6"/>
<path d="M711.998 395.296H672.998V433.826H711.998V395.296Z" fill="#7FA8AA"/>
<path d="M750.998 395.296H711.998V433.826H750.998V395.296Z" fill="#E0E5E3"/>
<path d="M88.0019 395.296H49.002V433.826H88.0019V395.296Z" fill="#F5D4DB"/>
<path d="M127 433.827H88V472.357H127V433.827Z" fill="#3EA0B4"/>
<path d="M360.998 433.827H321.998V472.357H360.998V433.827Z" fill="#649798"/>
<path d="M321.998 433.827H282.998V472.357H321.998V433.827Z" fill="#5D9187"/>
<path d="M399.996 433.827H360.996V472.357H399.996V433.827Z" fill="#D9E0DA"/>
<path d="M282.998 433.827H243.998V472.357H282.998V433.827Z" fill="#75A096"/>
<path d="M166.002 433.827H127.002V472.357H166.002V433.827Z" fill="#349570"/>
<path d="M205.002 433.827H166.002V472.357H205.002V433.827Z" fill="#398CBE"/>
<path d="M243.998 433.827H204.998V472.357H243.998V433.827Z" fill="#B2D7E7"/>
<path d="M439.002 433.827H400.002V472.357H439.002V433.827Z" fill="#CBDADA"/>
<path d="M477.998 433.827H438.998V472.357H477.998V433.827Z" fill="#679B99"/>
<path d="M672.998 433.827H633.998V472.357H672.998V433.827Z" fill="#649887"/>
<path d="M633.998 433.827H594.998V472.357H633.998V433.827Z" fill="#C8D7D5"/>
<path d="M556.002 433.827H517.002V472.357H556.002V433.827Z" fill="#E69787"/>
<path d="M517 433.827H478V472.357H517V433.827Z" fill="#CED8CA"/>
<path d="M595.002 433.827H556.002V472.357H595.002V433.827Z" fill="#DBE4E1"/>
<path d="M49 433.827H10V472.357H49V433.827Z" fill="#49859A"/>
<path d="M790 433.827H751V472.357H790V433.827Z" fill="#2191C4"/>
<path d="M711.998 433.827H672.998V472.357H711.998V433.827Z" fill="#D5BDD6"/>
<path d="M750.998 433.827H711.998V472.357H750.998V433.827Z" fill="#AAC3CC"/>
<path d="M88.0019 433.827H49.002V472.357H88.0019V433.827Z" fill="#C5E0EE"/>
<path d="M166.002 356.768H127.002V395.298H166.002V356.768Z" fill="#996F25"/>
<path d="M633.998 356.768H594.998V395.298H633.998V356.768Z" fill="#9D1F24"/>
<path d="M127 356.768H88V395.298H127V356.768Z" fill="#838047"/>
<path d="M672.998 356.768H633.998V395.298H672.998V356.768Z" fill="#E2E4D4"/>
<path d="M243.998 356.768H204.998V395.298H243.998V356.768Z" fill="#667794"/>
<path d="M205.002 356.768H166.002V395.298H205.002V356.768Z" fill="#C08CB7"/>
<path d="M439.002 356.768H400.002V395.298H439.002V356.768Z" fill="#0B3E85"/>
<path d="M477.998 356.768H438.998V395.298H477.998V356.768Z" fill="#0C81B6"/>
<path d="M595.002 356.768H556.002V395.298H595.002V356.768Z" fill="#D43225"/>
<path d="M556.002 356.768H517.002V395.298H556.002V356.768Z" fill="#C1D3DB"/>
<path d="M399.996 356.768H360.996V395.298H399.996V356.768Z" fill="#1C94C2"/>
<path d="M321.998 356.768H282.998V395.298H321.998V356.768Z" fill="#DEB015"/>
<path d="M360.998 356.768H321.998V395.298H360.998V356.768Z" fill="#95AFB6"/>
<path d="M282.998 356.768H243.998V395.298H282.998V356.768Z" fill="#9C7625"/>
<path d="M517 356.768H478V395.298H517V356.768Z" fill="#DDE5E6"/>
<path d="M49 356.768H10V395.298H49V356.768Z" fill="#ABD3DC"/>
<path d="M790 356.768H751V395.298H790V356.768Z" fill="#4A612E"/>
<path d="M750.998 356.768H711.998V395.298H750.998V356.768Z" fill="#949236"/>
<path d="M711.998 356.768H672.998V395.298H711.998V356.768Z" fill="#E3DEBB"/>
<path d="M88.0019 356.768H49.002V395.298H88.0019V356.768Z" fill="#6DB0BB"/>
<path d="M790 510.886H751V549.416H790V510.886Z" fill="#EBC127"/>
<path d="M49 510.886H10V549.416H49V510.886Z" fill="#71A9D0"/>
<path d="M360.998 510.886H321.998V549.416H360.998V510.886Z" fill="#5EA6B4"/>
<path d="M399.996 510.886H360.996V549.416H399.996V510.886Z" fill="#385A2D"/>
<path d="M477.998 510.886H438.998V549.416H477.998V510.886Z" fill="#6F9299"/>
<path d="M321.998 510.886H282.998V549.416H321.998V510.886Z" fill="#3B548B"/>
<path d="M166.002 510.886H127.002V549.416H166.002V510.886Z" fill="#B57D2B"/>
<path d="M517 510.886H478V549.416H517V510.886Z" fill="#2F92C0"/>
<path d="M205.002 510.886H166.002V549.416H205.002V510.886Z" fill="#61A6AF"/>
<path d="M282.998 510.886H243.998V549.416H282.998V510.886Z" fill="#E8CB98"/>
<path d="M243.998 510.886H204.998V549.416H243.998V510.886Z" fill="#D5BDD6"/>
<path d="M711.998 510.886H672.998V549.416H711.998V510.886Z" fill="#555928"/>
<path d="M750.998 510.886H711.998V549.416H750.998V510.886Z" fill="#509936"/>
<path d="M556.002 510.886H517.002V549.416H556.002V510.886Z" fill="#113672"/>
<path d="M672.998 510.886H633.998V549.416H672.998V510.886Z" fill="#D2D5E9"/>
<path d="M595.002 510.886H556.002V549.416H595.002V510.886Z" fill="#A06458"/>
<path d="M633.998 510.886H594.998V549.416H633.998V510.886Z" fill="#5E573F"/>
<path d="M439.002 510.886H400.002V549.416H439.002V510.886Z" fill="#51708B"/>
<path d="M88.0019 510.886H49.002V549.416H88.0019V510.886Z" fill="#90C6DC"/>
<path d="M127 510.886H88V549.416H127V510.886Z" fill="#1D96B6"/>
<path d="M633.998 318.237H594.998V356.767H633.998V318.237Z" fill="#67ADBE"/>
<path d="M127 318.237H88V356.767H127V318.237Z" fill="#6478B2"/>
<path d="M672.998 318.237H633.998V356.767H672.998V318.237Z" fill="#67AEC3"/>
<path d="M166.002 318.237H127.002V356.767H166.002V318.237Z" fill="#65749C"/>
<path d="M439.002 318.237H400.002V356.767H439.002V318.237Z" fill="#128BA7"/>
<path d="M477.998 318.237H438.998V356.767H477.998V318.237Z" fill="#7EB6C5"/>
<path d="M517 318.237H478V356.767H517V318.237Z" fill="#70ACB9"/>
<path d="M556.002 318.237H517.002V356.767H556.002V318.237Z" fill="#0F7289"/>
<path d="M243.998 318.237H204.998V356.767H243.998V318.237Z" fill="#38729F"/>
<path d="M321.998 318.237H282.998V356.767H321.998V318.237Z" fill="#C3D1D7"/>
<path d="M282.998 318.237H243.998V356.767H282.998V318.237Z" fill="#78AED9"/>
<path d="M399.996 318.237H360.996V356.767H399.996V318.237Z" fill="#B0C8D7"/>
<path d="M360.998 318.237H321.998V356.767H360.998V318.237Z" fill="#148299"/>
<path d="M205.002 318.237H166.002V356.767H205.002V318.237Z" fill="#DBEFF9"/>
<path d="M595.002 318.237H556.002V356.767H595.002V318.237Z" fill="#B2B267"/>
<path d="M49 318.237H10V356.767H49V318.237Z" fill="#986062"/>
<path d="M750.998 318.237H711.998V356.767H750.998V318.237Z" fill="#3495AD"/>
<path d="M790 318.237H751V356.767H790V318.237Z" fill="#147388"/>
<path d="M711.998 318.237H672.998V356.767H711.998V318.237Z" fill="#5BA5A5"/>
<path d="M88.0019 318.237H49.002V356.767H88.0019V318.237Z" fill="#C5DBE4"/>
<rect x="10" y="10" width="780" height="578" stroke="#5EE3D4" stroke-width="20"/>
</svg>
