<svg width="857" height="635" viewBox="0 0 857 635" fill="none" xmlns="http://www.w3.org/2000/svg">
<path d="M790.946 280.374H790.772C790.725 280.374 790.688 280.412 790.688 280.458C790.688 280.505 790.725 280.543 790.772 280.543H790.946C790.992 280.543 791.03 280.505 791.03 280.458C791.03 280.412 790.992 280.374 790.946 280.374Z" fill="#E8D3E5"/>
<path d="M166.403 0H133.553C130.791 0 128.553 2.23857 128.553 4.99999V37.3333C128.553 40.0947 130.791 42.3333 133.553 42.3333H166.403C169.164 42.3333 171.403 40.0948 171.403 37.3333V5C171.403 2.23858 169.164 0 166.403 0Z" fill="#49667E"/>
<path d="M80.6995 0H47.8496C45.0882 0 42.8496 2.23857 42.8496 4.99999V37.3333C42.8496 40.0947 45.0882 42.3333 47.8496 42.3333H80.6995C83.461 42.3333 85.6995 40.0948 85.6995 37.3333V5C85.6995 2.23858 83.461 0 80.6995 0Z" fill="#182C4F"/>
<path d="M37.8499 0H5C2.23858 0 0 2.23857 0 4.99999V37.3333C0 40.0947 2.23857 42.3333 4.99999 42.3333H37.8499C40.6114 42.3333 42.8499 40.0948 42.8499 37.3333V5C42.8499 2.23858 40.6114 0 37.8499 0Z" fill="#234A68"/>
<path d="M294.948 0H262.098C259.336 0 257.098 2.23857 257.098 4.99999V37.3333C257.098 40.0947 259.336 42.3333 262.098 42.3333H294.948C297.709 42.3333 299.948 40.0948 299.948 37.3333V5C299.948 2.23858 297.709 0 294.948 0Z" fill="#5F7897"/>
<path d="M337.799 0H304.949C302.188 0 299.949 2.23857 299.949 4.99999V37.3333C299.949 40.0947 302.188 42.3333 304.949 42.3333H337.799C340.561 42.3333 342.799 40.0948 342.799 37.3333V5C342.799 2.23858 340.561 0 337.799 0Z" fill="#9CADD3"/>
<path d="M380.651 0H347.801C345.039 0 342.801 2.23857 342.801 4.99999V37.3333C342.801 40.0947 345.039 42.3333 347.801 42.3333H380.651C383.412 42.3333 385.651 40.0948 385.651 37.3333V5C385.651 2.23858 383.412 0 380.651 0Z" fill="#5F7895"/>
<path d="M252.1 0H219.25C216.489 0 214.25 2.23857 214.25 4.99999V37.3333C214.25 40.0947 216.489 42.3333 219.25 42.3333H252.1C254.861 42.3333 257.1 40.0948 257.1 37.3333V5C257.1 2.23858 254.861 0 252.1 0Z" fill="#B5C7E4"/>
<path d="M209.25 0H176.4C173.639 0 171.4 2.23857 171.4 4.99999V37.3333C171.4 40.0947 173.639 42.3333 176.4 42.3333H209.25C212.012 42.3333 214.25 40.0948 214.25 37.3333V5C214.25 2.23858 212.012 0 209.25 0Z" fill="#081528"/>
<path d="M123.545 0H90.6953C87.9339 0 85.6953 2.23857 85.6953 4.99999V37.3333C85.6953 40.0947 87.9339 42.3333 90.6953 42.3333H123.545C126.307 42.3333 128.545 40.0948 128.545 37.3333V5C128.545 2.23858 126.307 0 123.545 0Z" fill="#B0C1E1"/>
<path d="M423.498 0H390.648C387.887 0 385.648 2.23857 385.648 4.99999V37.3333C385.648 40.0947 387.887 42.3333 390.648 42.3333H423.498C426.26 42.3333 428.498 40.0948 428.498 37.3333V5C428.498 2.23858 426.26 0 423.498 0Z" fill="#787571"/>
<path d="M809.149 0H776.299C773.537 0 771.299 2.23857 771.299 4.99999V37.3333C771.299 40.0947 773.537 42.3333 776.299 42.3333H809.149C811.91 42.3333 814.149 40.0948 814.149 37.3333V5C814.149 2.23858 811.91 0 809.149 0Z" fill="#8594B1"/>
<path d="M766.297 0H733.447C730.686 0 728.447 2.23857 728.447 4.99999V37.3333C728.447 40.0947 730.686 42.3333 733.447 42.3333H766.297C769.059 42.3333 771.297 40.0948 771.297 37.3333V5C771.297 2.23858 769.059 0 766.297 0Z" fill="#7A7776"/>
<path d="M594.901 0H562.051C559.289 0 557.051 2.23857 557.051 4.99999V37.3333C557.051 40.0947 559.289 42.3333 562.051 42.3333H594.901C597.662 42.3333 599.901 40.0948 599.901 37.3333V5C599.901 2.23858 597.662 0 594.901 0Z" fill="#8F8D8C"/>
<path d="M509.198 0H476.348C473.586 0 471.348 2.23857 471.348 4.99999V37.3333C471.348 40.0947 473.586 42.3333 476.348 42.3333H509.198C511.959 42.3333 514.198 40.0948 514.198 37.3333V5C514.198 2.23858 511.959 0 509.198 0Z" fill="#A9A5A6"/>
<path d="M466.35 0H433.5C430.739 0 428.5 2.23857 428.5 4.99999V37.3333C428.5 40.0947 430.739 42.3333 433.5 42.3333H466.35C469.111 42.3333 471.35 40.0948 471.35 37.3333V5C471.35 2.23858 469.111 0 466.35 0Z" fill="#B71C27"/>
<path d="M552.047 0H519.197C516.436 0 514.197 2.23857 514.197 4.99999V37.3333C514.197 40.0947 516.436 42.3333 519.197 42.3333H552.047C554.809 42.3333 557.047 40.0948 557.047 37.3333V5C557.047 2.23858 554.809 0 552.047 0Z" fill="#DCE7F3"/>
<path d="M637.75 0H604.9C602.139 0 599.9 2.23857 599.9 4.99999V37.3333C599.9 40.0947 602.139 42.3333 604.9 42.3333H637.75C640.512 42.3333 642.75 40.0948 642.75 37.3333V5C642.75 2.23858 640.512 0 637.75 0Z" fill="#B2AEAE"/>
<path d="M723.45 0H690.6C687.838 0 685.6 2.23857 685.6 4.99999V37.3333C685.6 40.0947 687.838 42.3333 690.6 42.3333H723.45C726.211 42.3333 728.45 40.0948 728.45 37.3333V5C728.45 2.23858 726.211 0 723.45 0Z" fill="#AC5D96"/>
<path d="M680.6 0H647.75C644.989 0 642.75 2.23857 642.75 4.99999V37.3333C642.75 40.0947 644.989 42.3333 647.75 42.3333H680.6C683.361 42.3333 685.6 40.0948 685.6 37.3333V5C685.6 2.23858 683.361 0 680.6 0Z" fill="#393130"/>
<path d="M852 0H819.15C816.389 0 814.15 2.23857 814.15 4.99999V37.3333C814.15 40.0947 816.389 42.3333 819.15 42.3333H852C854.762 42.3333 857 40.0948 857 37.3333V5C857 2.23858 854.762 0 852 0Z" fill="#29395A"/>
<path d="M37.8499 42.3332H5C2.23858 42.3332 0 44.5718 0 47.3332V79.6665C0 82.4279 2.23857 84.6665 4.99999 84.6665H37.8499C40.6114 84.6665 42.8499 82.4279 42.8499 79.6665V47.3332C42.8499 44.5718 40.6114 42.3332 37.8499 42.3332Z" fill="#A2ADD3"/>
<path d="M809.149 42.3332H776.299C773.537 42.3332 771.299 44.5718 771.299 47.3332V79.6665C771.299 82.4279 773.537 84.6665 776.299 84.6665H809.149C811.91 84.6665 814.149 82.4279 814.149 79.6665V47.3332C814.149 44.5718 811.91 42.3332 809.149 42.3332Z" fill="#6580A8"/>
<path d="M852 42.3332H819.15C816.389 42.3332 814.15 44.5718 814.15 47.3332V79.6665C814.15 82.4279 816.389 84.6665 819.15 84.6665H852C854.762 84.6665 857 82.4279 857 79.6665V47.3332C857 44.5718 854.762 42.3332 852 42.3332Z" fill="#261C1A"/>
<path d="M766.297 42.3332H733.447C730.686 42.3332 728.447 44.5718 728.447 47.3332V79.6665C728.447 82.4279 730.686 84.6665 733.447 84.6665H766.297C769.059 84.6665 771.297 82.4279 771.297 79.6665V47.3332C771.297 44.5718 769.059 42.3332 766.297 42.3332Z" fill="#D8D3CA"/>
<path d="M723.45 42.3332H690.6C687.838 42.3332 685.6 44.5718 685.6 47.3332V79.6665C685.6 82.4279 687.838 84.6665 690.6 84.6665H723.45C726.211 84.6665 728.45 82.4279 728.45 79.6665V47.3332C728.45 44.5718 726.211 42.3332 723.45 42.3332Z" fill="#838DC0"/>
<path d="M680.6 42.3332H647.75C644.989 42.3332 642.75 44.5718 642.75 47.3332V79.6665C642.75 82.4279 644.989 84.6665 647.75 84.6665H680.6C683.361 84.6665 685.6 82.4279 685.6 79.6665V47.3332C685.6 44.5718 683.361 42.3332 680.6 42.3332Z" fill="#497DB0"/>
<path d="M380.651 42.3332H347.801C345.039 42.3332 342.801 44.5718 342.801 47.3332V79.6665C342.801 82.4279 345.039 84.6665 347.801 84.6665H380.651C383.412 84.6665 385.651 82.4279 385.651 79.6665V47.3332C385.651 44.5718 383.412 42.3332 380.651 42.3332Z" fill="#EBE8E9"/>
<path d="M466.35 42.3332H433.5C430.739 42.3332 428.5 44.5718 428.5 47.3332V79.6665C428.5 82.4279 430.739 84.6665 433.5 84.6665H466.35C469.111 84.6665 471.35 82.4279 471.35 79.6665V47.3332C471.35 44.5718 469.111 42.3332 466.35 42.3332Z" fill="#B2ADAE"/>
<path d="M423.498 42.3332H390.648C387.887 42.3332 385.648 44.5718 385.648 47.3332V79.6665C385.648 82.4279 387.887 84.6665 390.648 84.6665H423.498C426.26 84.6665 428.498 82.4279 428.498 79.6665V47.3332C428.498 44.5718 426.26 42.3332 423.498 42.3332Z" fill="#83203E"/>
<path d="M337.799 42.3332H304.949C302.188 42.3332 299.949 44.5718 299.949 47.3332V79.6665C299.949 82.4279 302.188 84.6665 304.949 84.6665H337.799C340.561 84.6665 342.799 82.4279 342.799 79.6665V47.3332C342.799 44.5718 340.561 42.3332 337.799 42.3332Z" fill="#BDC2DF"/>
<path d="M509.198 42.3332H476.348C473.586 42.3332 471.348 44.5718 471.348 47.3332V79.6665C471.348 82.4279 473.586 84.6665 476.348 84.6665H509.198C511.959 84.6665 514.198 82.4279 514.198 79.6665V47.3332C514.198 44.5718 511.959 42.3332 509.198 42.3332Z" fill="#A09A9A"/>
<path d="M594.901 42.3332H562.051C559.289 42.3332 557.051 44.5718 557.051 47.3332V79.6665C557.051 82.4279 559.289 84.6665 562.051 84.6665H594.901C597.662 84.6665 599.901 82.4279 599.901 79.6665V47.3332C599.901 44.5718 597.662 42.3332 594.901 42.3332Z" fill="#E0E8F6"/>
<path d="M552.047 42.3332H519.197C516.436 42.3332 514.197 44.5718 514.197 47.3332V79.6665C514.197 82.4279 516.436 84.6665 519.197 84.6665H552.047C554.809 84.6665 557.047 82.4279 557.047 79.6665V47.3332C557.047 44.5718 554.809 42.3332 552.047 42.3332Z" fill="#5B79B2"/>
<path d="M637.75 42.3332H604.9C602.139 42.3332 599.9 44.5718 599.9 47.3332V79.6665C599.9 82.4279 602.139 84.6665 604.9 84.6665H637.75C640.512 84.6665 642.75 82.4279 642.75 79.6665V47.3332C642.75 44.5718 640.512 42.3332 637.75 42.3332Z" fill="#2E2B4E"/>
<path d="M294.948 42.3332H262.098C259.336 42.3332 257.098 44.5718 257.098 47.3332V79.6665C257.098 82.4279 259.336 84.6665 262.098 84.6665H294.948C297.709 84.6665 299.948 82.4279 299.948 79.6665V47.3332C299.948 44.5718 297.709 42.3332 294.948 42.3332Z" fill="#5B7095"/>
<path d="M252.1 42.3332H219.25C216.489 42.3332 214.25 44.5718 214.25 47.3332V79.6665C214.25 82.4279 216.489 84.6665 219.25 84.6665H252.1C254.861 84.6665 257.1 82.4279 257.1 79.6665V47.3332C257.1 44.5718 254.861 42.3332 252.1 42.3332Z" fill="#171522"/>
<path d="M80.6995 42.3332H47.8496C45.0882 42.3332 42.8496 44.5718 42.8496 47.3332V79.6665C42.8496 82.4279 45.0882 84.6665 47.8496 84.6665H80.6995C83.461 84.6665 85.6995 82.4279 85.6995 79.6665V47.3332C85.6995 44.5718 83.461 42.3332 80.6995 42.3332Z" fill="#7984AC"/>
<path d="M123.545 42.3332H90.6953C87.9339 42.3332 85.6953 44.5718 85.6953 47.3332V79.6665C85.6953 82.4279 87.9339 84.6665 90.6953 84.6665H123.545C126.307 84.6665 128.545 82.4279 128.545 79.6665V47.3332C128.545 44.5718 126.307 42.3332 123.545 42.3332Z" fill="#A1A5C9"/>
<path d="M209.25 42.3332H176.4C173.639 42.3332 171.4 44.5718 171.4 47.3332V79.6665C171.4 82.4279 173.639 84.6665 176.4 84.6665H209.25C212.012 84.6665 214.25 82.4279 214.25 79.6665V47.3332C214.25 44.5718 212.012 42.3332 209.25 42.3332Z" fill="#AD2974"/>
<path d="M166.403 42.3332H133.553C130.791 42.3332 128.553 44.5718 128.553 47.3332V79.6665C128.553 82.4279 130.791 84.6665 133.553 84.6665H166.403C169.164 84.6665 171.403 82.4279 171.403 79.6665V47.3332C171.403 44.5718 169.164 42.3332 166.403 42.3332Z" fill="#1F2137"/>
<path d="M337.799 592.667H304.949C302.188 592.667 299.949 594.905 299.949 597.667V630C299.949 632.761 302.188 635 304.949 635H337.799C340.561 635 342.799 632.761 342.799 630V597.667C342.799 594.905 340.561 592.667 337.799 592.667Z" fill="#A2A9C6"/>
<path d="M809.149 592.667H776.299C773.537 592.667 771.299 594.905 771.299 597.667V630C771.299 632.761 773.537 635 776.299 635H809.149C811.91 635 814.149 632.761 814.149 630V597.667C814.149 594.905 811.91 592.667 809.149 592.667Z" fill="#003539"/>
<path d="M766.297 592.667H733.447C730.686 592.667 728.447 594.905 728.447 597.667V630C728.447 632.761 730.686 635 733.447 635H766.297C769.059 635 771.297 632.761 771.297 630V597.667C771.297 594.905 769.059 592.667 766.297 592.667Z" fill="#03172C"/>
<path d="M852 592.667H819.15C816.389 592.667 814.15 594.905 814.15 597.667V630C814.15 632.761 816.389 635 819.15 635H852C854.762 635 857 632.761 857 630V597.667C857 594.905 854.762 592.667 852 592.667Z" fill="#095349"/>
<path d="M723.45 592.667H690.6C687.838 592.667 685.6 594.905 685.6 597.667V630C685.6 632.761 687.838 635 690.6 635H723.45C726.211 635 728.45 632.761 728.45 630V597.667C728.45 594.905 726.211 592.667 723.45 592.667Z" fill="#7986AE"/>
<path d="M294.948 592.667H262.098C259.336 592.667 257.098 594.905 257.098 597.667V630C257.098 632.761 259.336 635 262.098 635H294.948C297.709 635 299.948 632.761 299.948 630V597.667C299.948 594.905 297.709 592.667 294.948 592.667Z" fill="#B3B9C4"/>
<path d="M209.25 592.667H176.4C173.639 592.667 171.4 594.905 171.4 597.667V630C171.4 632.761 173.639 635 176.4 635H209.25C212.012 635 214.25 632.761 214.25 630V597.667C214.25 594.905 212.012 592.667 209.25 592.667Z" fill="#9AA6CB"/>
<path d="M166.403 592.667H133.553C130.791 592.667 128.553 594.905 128.553 597.667V630C128.553 632.761 130.791 635 133.553 635H166.403C169.164 635 171.403 632.761 171.403 630V597.667C171.403 594.905 169.164 592.667 166.403 592.667Z" fill="#707CA0"/>
<path d="M252.1 592.667H219.25C216.489 592.667 214.25 594.905 214.25 597.667V630C214.25 632.761 216.489 635 219.25 635H252.1C254.861 635 257.1 632.761 257.1 630V597.667C257.1 594.905 254.861 592.667 252.1 592.667Z" fill="#68758B"/>
<path d="M123.545 592.667H90.6953C87.9339 592.667 85.6953 594.905 85.6953 597.667V630C85.6953 632.761 87.9339 635 90.6953 635H123.545C126.307 635 128.545 632.761 128.545 630V597.667C128.545 594.905 126.307 592.667 123.545 592.667Z" fill="#040103"/>
<path d="M80.6995 592.667H47.8496C45.0882 592.667 42.8496 594.905 42.8496 597.667V630C42.8496 632.761 45.0882 635 47.8496 635H80.6995C83.461 635 85.6995 632.761 85.6995 630V597.667C85.6995 594.905 83.461 592.667 80.6995 592.667Z" fill="#C2C0C0"/>
<path d="M37.8499 592.667H5C2.23858 592.667 0 594.905 0 597.667V630C0 632.761 2.23857 635 4.99999 635H37.8499C40.6114 635 42.8499 632.761 42.8499 630V597.667C42.8499 594.905 40.6114 592.667 37.8499 592.667Z" fill="#8C1C21"/>
<path d="M466.35 592.667H433.5C430.739 592.667 428.5 594.905 428.5 597.667V630C428.5 632.761 430.739 635 433.5 635H466.35C469.111 635 471.35 632.761 471.35 630V597.667C471.35 594.905 469.111 592.667 466.35 592.667Z" fill="#141926"/>
<path d="M509.198 592.667H476.348C473.586 592.667 471.348 594.905 471.348 597.667V630C471.348 632.761 473.586 635 476.348 635H509.198C511.959 635 514.198 632.761 514.198 630V597.667C514.198 594.905 511.959 592.667 509.198 592.667Z" fill="#7986AE"/>
<path d="M594.901 592.667H562.051C559.289 592.667 557.051 594.905 557.051 597.667V630C557.051 632.761 559.289 635 562.051 635H594.901C597.662 635 599.901 632.761 599.901 630V597.667C599.901 594.905 597.662 592.667 594.901 592.667Z" fill="#1C4E77"/>
<path d="M552.047 592.667H519.197C516.436 592.667 514.197 594.905 514.197 597.667V630C514.197 632.761 516.436 635 519.197 635H552.047C554.809 635 557.047 632.761 557.047 630V597.667C557.047 594.905 554.809 592.667 552.047 592.667Z" fill="#933445"/>
<path d="M637.75 592.667H604.9C602.139 592.667 599.9 594.905 599.9 597.667V630C599.9 632.761 602.139 635 604.9 635H637.75C640.512 635 642.75 632.761 642.75 630V597.667C642.75 594.905 640.512 592.667 637.75 592.667Z" fill="#7F231E"/>
<path d="M680.6 592.667H647.75C644.989 592.667 642.75 594.905 642.75 597.667V630C642.75 632.761 644.989 635 647.75 635H680.6C683.361 635 685.6 632.761 685.6 630V597.667C685.6 594.905 683.361 592.667 680.6 592.667Z" fill="#0B0608"/>
<path d="M380.651 592.667H347.801C345.039 592.667 342.801 594.905 342.801 597.667V630C342.801 632.761 345.039 635 347.801 635H380.651C383.412 635 385.651 632.761 385.651 630V597.667C385.651 594.905 383.412 592.667 380.651 592.667Z" fill="#9FB4D8"/>
<path d="M423.498 592.667H390.648C387.887 592.667 385.648 594.905 385.648 597.667V630C385.648 632.761 387.887 635 390.648 635H423.498C426.26 635 428.498 632.761 428.498 630V597.667C428.498 594.905 426.26 592.667 423.498 592.667Z" fill="#DADFF1"/>
<path d="M166.403 169.397H133.553C130.791 169.397 128.553 171.635 128.553 174.397V206.73C128.553 209.492 130.791 211.73 133.553 211.73H166.403C169.164 211.73 171.403 209.492 171.403 206.73V174.397C171.403 171.635 169.164 169.397 166.403 169.397Z" fill="#AAACCC"/>
<path d="M680.6 169.397H647.75C644.989 169.397 642.75 171.635 642.75 174.397V206.73C642.75 209.492 644.989 211.73 647.75 211.73H680.6C683.361 211.73 685.6 209.492 685.6 206.73V174.397C685.6 171.635 683.361 169.397 680.6 169.397Z" fill="#B7BEB9"/>
<path d="M123.545 169.397H90.6953C87.9339 169.397 85.6953 171.635 85.6953 174.397V206.73C85.6953 209.492 87.9339 211.73 90.6953 211.73H123.545C126.307 211.73 128.545 209.492 128.545 206.73V174.397C128.545 171.635 126.307 169.397 123.545 169.397Z" fill="#DBEAF7"/>
<path d="M723.45 169.397H690.6C687.838 169.397 685.6 171.635 685.6 174.397V206.73C685.6 209.492 687.838 211.73 690.6 211.73H723.45C726.211 211.73 728.45 209.492 728.45 206.73V174.397C728.45 171.635 726.211 169.397 723.45 169.397Z" fill="#8A8491"/>
<path d="M294.948 169.397H262.098C259.336 169.397 257.098 171.635 257.098 174.397V206.73C257.098 209.492 259.336 211.73 262.098 211.73H294.948C297.709 211.73 299.948 209.492 299.948 206.73V174.397C299.948 171.635 297.709 169.397 294.948 169.397Z" fill="#979595"/>
<path d="M337.799 169.397H304.949C302.188 169.397 299.949 171.635 299.949 174.397V206.73C299.949 209.492 302.188 211.73 304.949 211.73H337.799C340.561 211.73 342.799 209.492 342.799 206.73V174.397C342.799 171.635 340.561 169.397 337.799 169.397Z" fill="#676656"/>
<path d="M209.25 169.397H176.4C173.639 169.397 171.4 171.635 171.4 174.397V206.73C171.4 209.492 173.639 211.73 176.4 211.73H209.25C212.012 211.73 214.25 209.492 214.25 206.73V174.397C214.25 171.635 212.012 169.397 209.25 169.397Z" fill="#5F4B5D"/>
<path d="M252.1 169.397H219.25C216.489 169.397 214.25 171.635 214.25 174.397V206.73C214.25 209.492 216.489 211.73 219.25 211.73H252.1C254.861 211.73 257.1 209.492 257.1 206.73V174.397C257.1 171.635 254.861 169.397 252.1 169.397Z" fill="#5D7D95"/>
<path d="M380.656 169.257L347.807 169.353C345.045 169.361 342.813 171.606 342.822 174.368L342.919 206.701C342.927 209.462 345.172 211.694 347.934 211.686L380.784 211.59C383.545 211.582 385.777 209.337 385.769 206.575L385.671 174.242C385.663 171.481 383.418 169.249 380.656 169.257Z" fill="#0C080A"/>
<path d="M552.047 169.397H519.197C516.436 169.397 514.197 171.635 514.197 174.397V206.73C514.197 209.492 516.436 211.73 519.197 211.73H552.047C554.809 211.73 557.047 209.492 557.047 206.73V174.397C557.047 171.635 554.809 169.397 552.047 169.397Z" fill="#B3B7D8"/>
<path d="M423.498 169.397H390.648C387.887 169.397 385.648 171.635 385.648 174.397V206.73C385.648 209.492 387.887 211.73 390.648 211.73H423.498C426.26 211.73 428.498 209.492 428.498 206.73V174.397C428.498 171.635 426.26 169.397 423.498 169.397Z" fill="#B77A96"/>
<path d="M509.198 169.397H476.348C473.586 169.397 471.348 171.635 471.348 174.397V206.73C471.348 209.492 473.586 211.73 476.348 211.73H509.198C511.959 211.73 514.198 209.492 514.198 206.73V174.397C514.198 171.635 511.959 169.397 509.198 169.397Z" fill="#A4A4CD"/>
<path d="M594.901 169.397H562.051C559.289 169.397 557.051 171.635 557.051 174.397V206.73C557.051 209.492 559.289 211.73 562.051 211.73H594.901C597.662 211.73 599.901 209.492 599.901 206.73V174.397C599.901 171.635 597.662 169.397 594.901 169.397Z" fill="#7E89AB"/>
<path d="M466.35 169.397H433.5C430.739 169.397 428.5 171.635 428.5 174.397V206.73C428.5 209.492 430.739 211.73 433.5 211.73H466.35C469.111 211.73 471.35 209.492 471.35 206.73V174.397C471.35 171.635 469.111 169.397 466.35 169.397Z" fill="#89737B"/>
<path d="M637.75 169.397H604.9C602.139 169.397 599.9 171.635 599.9 174.397V206.73C599.9 209.492 602.139 211.73 604.9 211.73H637.75C640.512 211.73 642.75 209.492 642.75 206.73V174.397C642.75 171.635 640.512 169.397 637.75 169.397Z" fill="#671B44"/>
<path d="M37.8499 169.397H5C2.23858 169.397 0 171.635 0 174.397V206.73C0 209.492 2.23857 211.73 4.99999 211.73H37.8499C40.6114 211.73 42.8499 209.492 42.8499 206.73V174.397C42.8499 171.635 40.6114 169.397 37.8499 169.397Z" fill="#97A7BC"/>
<path d="M809.149 169.397H776.299C773.537 169.397 771.299 171.635 771.299 174.397V206.73C771.299 209.492 773.537 211.73 776.299 211.73H809.149C811.91 211.73 814.149 209.492 814.149 206.73V174.397C814.149 171.635 811.91 169.397 809.149 169.397Z" fill="#5A465B"/>
<path d="M852 169.397H819.15C816.389 169.397 814.15 171.635 814.15 174.397V206.73C814.15 209.492 816.389 211.73 819.15 211.73H852C854.762 211.73 857 209.492 857 206.73V174.397C857 171.635 854.762 169.397 852 169.397Z" fill="#090406"/>
<path d="M766.297 169.397H733.447C730.686 169.397 728.447 171.635 728.447 174.397V206.73C728.447 209.492 730.686 211.73 733.447 211.73H766.297C769.059 211.73 771.297 209.492 771.297 206.73V174.397C771.297 171.635 769.059 169.397 766.297 169.397Z" fill="#64545E"/>
<path d="M80.6995 169.397H47.8496C45.0882 169.397 42.8496 171.635 42.8496 174.397V206.73C42.8496 209.492 45.0882 211.73 47.8496 211.73H80.6995C83.461 211.73 85.6995 209.492 85.6995 206.73V174.397C85.6995 171.635 83.461 169.397 80.6995 169.397Z" fill="#090405"/>
<path d="M790.949 84.6667H790.776C790.729 84.6667 790.691 84.7047 790.691 84.7514C790.691 84.7982 790.729 84.8361 790.776 84.8361H790.949C790.996 84.8361 791.034 84.7982 791.034 84.7514C791.034 84.7047 790.996 84.6667 790.949 84.6667Z" fill="#E8D3E5"/>
<path d="M123.545 84.6667H90.6953C87.9339 84.6667 85.6953 86.9053 85.6953 89.6667V122C85.6953 124.761 87.9339 127 90.6953 127H123.545C126.307 127 128.545 124.762 128.545 122V89.6667C128.545 86.9053 126.307 84.6667 123.545 84.6667Z" fill="#8A889D"/>
<path d="M252.1 84.6667H219.25C216.489 84.6667 214.25 86.9053 214.25 89.6667V122C214.25 124.761 216.489 127 219.25 127H252.1C254.861 127 257.1 124.762 257.1 122V89.6667C257.1 86.9053 254.861 84.6667 252.1 84.6667Z" fill="#1D2C58"/>
<path d="M166.403 84.6667H133.553C130.791 84.6667 128.553 86.9053 128.553 89.6667V122C128.553 124.761 130.791 127 133.553 127H166.403C169.164 127 171.403 124.762 171.403 122V89.6667C171.403 86.9053 169.164 84.6667 166.403 84.6667Z" fill="#82786A"/>
<path d="M294.948 84.6667H262.098C259.336 84.6667 257.098 86.9053 257.098 89.6667V122C257.098 124.761 259.336 127 262.098 127H294.948C297.709 127 299.948 124.762 299.948 122V89.6667C299.948 86.9053 297.709 84.6667 294.948 84.6667Z" fill="#868080"/>
<path d="M209.25 84.6667H176.4C173.639 84.6667 171.4 86.9053 171.4 89.6667V122C171.4 124.761 173.639 127 176.4 127H209.25C212.012 127 214.25 124.762 214.25 122V89.6667C214.25 86.9053 212.012 84.6667 209.25 84.6667Z" fill="#627AB2"/>
<path d="M423.498 84.6667H390.648C387.887 84.6667 385.648 86.9053 385.648 89.6667V122C385.648 124.761 387.887 127 390.648 127H423.498C426.26 127 428.498 124.762 428.498 122V89.6667C428.498 86.9053 426.26 84.6667 423.498 84.6667Z" fill="#180E0B"/>
<path d="M337.799 84.6667H304.949C302.188 84.6667 299.949 86.9053 299.949 89.6667V122C299.949 124.761 302.188 127 304.949 127H337.799C340.561 127 342.799 124.762 342.799 122V89.6667C342.799 86.9053 340.561 84.6667 337.799 84.6667Z" fill="#FEFEFF"/>
<path d="M466.35 84.6667H433.5C430.739 84.6667 428.5 86.9053 428.5 89.6667V122C428.5 124.761 430.739 127 433.5 127H466.35C469.111 127 471.35 124.762 471.35 122V89.6667C471.35 86.9053 469.111 84.6667 466.35 84.6667Z" fill="#3A090F"/>
<path d="M509.198 84.6667H476.348C473.586 84.6667 471.348 86.9053 471.348 89.6667V122C471.348 124.761 473.586 127 476.348 127H509.198C511.959 127 514.198 124.762 514.198 122V89.6667C514.198 86.9053 511.959 84.6667 509.198 84.6667Z" fill="#E4E7F4"/>
<path d="M380.651 84.6667H347.801C345.039 84.6667 342.801 86.9053 342.801 89.6667V122C342.801 124.761 345.039 127 347.801 127H380.651C383.412 127 385.651 124.762 385.651 122V89.6667C385.651 86.9053 383.412 84.6667 380.651 84.6667Z" fill="#727C81"/>
<path d="M552.047 84.6667H519.197C516.436 84.6667 514.197 86.9053 514.197 89.6667V122C514.197 124.761 516.436 127 519.197 127H552.047C554.809 127 557.047 124.762 557.047 122V89.6667C557.047 86.9053 554.809 84.6667 552.047 84.6667Z" fill="#2B6689"/>
<path d="M680.6 84.6667H647.75C644.989 84.6667 642.75 86.9053 642.75 89.6667V122C642.75 124.761 644.989 127 647.75 127H680.6C683.361 127 685.6 124.762 685.6 122V89.6667C685.6 86.9053 683.361 84.6667 680.6 84.6667Z" fill="#1B284E"/>
<path d="M637.75 84.6667H604.9C602.139 84.6667 599.9 86.9053 599.9 89.6667V122C599.9 124.761 602.139 127 604.9 127H637.75C640.512 127 642.75 124.762 642.75 122V89.6667C642.75 86.9053 640.512 84.6667 637.75 84.6667Z" fill="#899CCA"/>
<path d="M594.901 84.6667H562.051C559.289 84.6667 557.051 86.9053 557.051 89.6667V122C557.051 124.761 559.289 127 562.051 127H594.901C597.662 127 599.901 124.762 599.901 122V89.6667C599.901 86.9053 597.662 84.6667 594.901 84.6667Z" fill="#00467D"/>
<path d="M723.45 84.6667H690.6C687.838 84.6667 685.6 86.9053 685.6 89.6667V122C685.6 124.761 687.838 127 690.6 127H723.45C726.211 127 728.45 124.762 728.45 122V89.6667C728.45 86.9053 726.211 84.6667 723.45 84.6667Z" fill="#DEEAF6"/>
<path d="M37.8499 84.6667H5C2.23858 84.6667 0 86.9053 0 89.6667V122C0 124.761 2.23857 127 4.99999 127H37.8499C40.6114 127 42.8499 124.761 42.8499 122V89.6667C42.8499 86.9053 40.6114 84.6667 37.8499 84.6667Z" fill="#5D7786"/>
<path d="M809.149 84.6667H776.299C773.537 84.6667 771.299 86.9053 771.299 89.6667V122C771.299 124.761 773.537 127 776.299 127H809.149C811.91 127 814.149 124.762 814.149 122V89.6667C814.149 86.9053 811.91 84.6667 809.149 84.6667Z" fill="#6C7CB3"/>
<path d="M852 84.6667H819.15C816.389 84.6667 814.15 86.9053 814.15 89.6667V122C814.15 124.761 816.389 127 819.15 127H852C854.762 127 857 124.762 857 122V89.6667C857 86.9053 854.762 84.6667 852 84.6667Z" fill="#182447"/>
<path d="M766.297 84.6667H733.447C730.686 84.6667 728.447 86.9053 728.447 89.6667V122C728.447 124.761 730.686 127 733.447 127H766.297C769.059 127 771.297 124.762 771.297 122V89.6667C771.297 86.9053 769.059 84.6667 766.297 84.6667Z" fill="#C87498"/>
<path d="M80.6995 84.6667H47.8496C45.0882 84.6667 42.8496 86.9053 42.8496 89.6667V122C42.8496 124.761 45.0882 127 47.8496 127H80.6995C83.461 127 85.6995 124.762 85.6995 122V89.6667C85.6995 86.9053 83.461 84.6667 80.6995 84.6667Z" fill="#7D7240"/>
<path d="M252.1 127H219.25C216.489 127 214.25 129.239 214.25 132V164.333C214.25 167.095 216.489 169.333 219.25 169.333H252.1C254.861 169.333 257.1 167.095 257.1 164.333V132C257.1 129.239 254.861 127 252.1 127Z" fill="#6C686A"/>
<path d="M166.403 127H133.553C130.791 127 128.553 129.239 128.553 132V164.333C128.553 167.095 130.791 169.333 133.553 169.333H166.403C169.164 169.333 171.403 167.095 171.403 164.333V132C171.403 129.239 169.164 127 166.403 127Z" fill="#06397D"/>
<path d="M209.25 127H176.4C173.639 127 171.4 129.239 171.4 132V164.333C171.4 167.095 173.639 169.333 176.4 169.333H209.25C212.012 169.333 214.25 167.095 214.25 164.333V132C214.25 129.239 212.012 127 209.25 127Z" fill="#090405"/>
<path d="M680.6 127H647.75C644.989 127 642.75 129.239 642.75 132V164.333C642.75 167.095 644.989 169.333 647.75 169.333H680.6C683.361 169.333 685.6 167.095 685.6 164.333V132C685.6 129.239 683.361 127 680.6 127Z" fill="#3C5B96"/>
<path d="M380.651 127H347.801C345.039 127 342.801 129.239 342.801 132V164.333C342.801 167.095 345.039 169.333 347.801 169.333H380.651C383.412 169.333 385.651 167.095 385.651 164.333V132C385.651 129.239 383.412 127 380.651 127Z" fill="#828889"/>
<path d="M423.498 127H390.648C387.887 127 385.648 129.239 385.648 132V164.333C385.648 167.095 387.887 169.333 390.648 169.333H423.498C426.26 169.333 428.498 167.095 428.498 164.333V132C428.498 129.239 426.26 127 423.498 127Z" fill="#E2CCB1"/>
<path d="M637.75 127H604.9C602.139 127 599.9 129.239 599.9 132V164.333C599.9 167.095 602.139 169.333 604.9 169.333H637.75C640.512 169.333 642.75 167.095 642.75 164.333V132C642.75 129.239 640.512 127 637.75 127Z" fill="#A9B2D7"/>
<path d="M294.948 127H262.098C259.336 127 257.098 129.239 257.098 132V164.333C257.098 167.095 259.336 169.333 262.098 169.333H294.948C297.709 169.333 299.948 167.095 299.948 164.333V132C299.948 129.239 297.709 127 294.948 127Z" fill="#ABA9AA"/>
<path d="M337.799 127H304.949C302.188 127 299.949 129.239 299.949 132V164.333C299.949 167.095 302.188 169.333 304.949 169.333H337.799C340.561 169.333 342.799 167.095 342.799 164.333V132C342.799 129.239 340.561 127 337.799 127Z" fill="#0C0809"/>
<path d="M466.35 127H433.5C430.739 127 428.5 129.239 428.5 132V164.333C428.5 167.095 430.739 169.333 433.5 169.333H466.35C469.111 169.333 471.35 167.095 471.35 164.333V132C471.35 129.239 469.111 127 466.35 127Z" fill="#667473"/>
<path d="M594.901 127H562.051C559.289 127 557.051 129.239 557.051 132V164.333C557.051 167.095 559.289 169.333 562.051 169.333H594.901C597.662 169.333 599.901 167.095 599.901 164.333V132C599.901 129.239 597.662 127 594.901 127Z" fill="#94B1D8"/>
<path d="M552.047 127H519.197C516.436 127 514.197 129.239 514.197 132V164.333C514.197 167.095 516.436 169.333 519.197 169.333H552.047C554.809 169.333 557.047 167.095 557.047 164.333V132C557.047 129.239 554.809 127 552.047 127Z" fill="#F2D5B4"/>
<path d="M509.198 127H476.348C473.586 127 471.348 129.239 471.348 132V164.333C471.348 167.095 473.586 169.333 476.348 169.333H509.198C511.959 169.333 514.198 167.095 514.198 164.333V132C514.198 129.239 511.959 127 509.198 127Z" fill="#7C8DC0"/>
<path d="M123.545 127H90.6953C87.9339 127 85.6953 129.239 85.6953 132V164.333C85.6953 167.095 87.9339 169.333 90.6953 169.333H123.545C126.307 169.333 128.545 167.095 128.545 164.333V132C128.545 129.239 126.307 127 123.545 127Z" fill="#909CCA"/>
<path d="M723.45 127H690.6C687.838 127 685.6 129.239 685.6 132V164.333C685.6 167.095 687.838 169.333 690.6 169.333H723.45C726.211 169.333 728.45 167.095 728.45 164.333V132C728.45 129.239 726.211 127 723.45 127Z" fill="#A6B2D6"/>
<path d="M37.8499 127H5C2.23858 127 0 129.239 0 132V164.333C0 167.095 2.23857 169.333 4.99999 169.333H37.8499C40.6114 169.333 42.8499 167.095 42.8499 164.333V132C42.8499 129.239 40.6114 127 37.8499 127Z" fill="#9DA8D0"/>
<path d="M809.149 127H776.299C773.537 127 771.299 129.239 771.299 132V164.333C771.299 167.095 773.537 169.333 776.299 169.333H809.149C811.91 169.333 814.149 167.095 814.149 164.333V132C814.149 129.239 811.91 127 809.149 127Z" fill="#7A8795"/>
<path d="M852 127H819.15C816.389 127 814.15 129.239 814.15 132V164.333C814.15 167.095 816.389 169.333 819.15 169.333H852C854.762 169.333 857 167.095 857 164.333V132C857 129.239 854.762 127 852 127Z" fill="#C0CEDC"/>
<path d="M766.297 127H733.447C730.686 127 728.447 129.239 728.447 132V164.333C728.447 167.095 730.686 169.333 733.447 169.333H766.297C769.059 169.333 771.297 167.095 771.297 164.333V132C771.297 129.239 769.059 127 766.297 127Z" fill="#B7BACA"/>
<path d="M80.6995 127H47.8496C45.0882 127 42.8496 129.239 42.8496 132V164.333C42.8496 167.095 45.0882 169.333 47.8496 169.333H80.6995C83.461 169.333 85.6995 167.095 85.6995 164.333V132C85.6995 129.239 83.461 127 80.6995 127Z" fill="#7180B5"/>
<path d="M166.403 211.667H133.553C130.791 211.667 128.553 213.905 128.553 216.667V249C128.553 251.761 130.791 254 133.553 254H166.403C169.164 254 171.403 251.761 171.403 249V216.667C171.403 213.905 169.164 211.667 166.403 211.667Z" fill="#859FB3"/>
<path d="M680.6 211.667H647.75C644.989 211.667 642.75 213.905 642.75 216.667V249C642.75 251.761 644.989 254 647.75 254H680.6C683.361 254 685.6 251.761 685.6 249V216.667C685.6 213.905 683.361 211.667 680.6 211.667Z" fill="#D4D5D5"/>
<path d="M123.545 211.667H90.6953C87.9339 211.667 85.6953 213.905 85.6953 216.667V249C85.6953 251.761 87.9339 254 90.6953 254H123.545C126.307 254 128.545 251.761 128.545 249V216.667C128.545 213.905 126.307 211.667 123.545 211.667Z" fill="#D6DDEE"/>
<path d="M723.45 211.667H690.6C687.838 211.667 685.6 213.905 685.6 216.667V249C685.6 251.761 687.838 254 690.6 254H723.45C726.211 254 728.45 251.761 728.45 249V216.667C728.45 213.905 726.211 211.667 723.45 211.667Z" fill="#5D7997"/>
<path d="M594.901 211.667H562.051C559.289 211.667 557.051 213.905 557.051 216.667V249C557.051 251.761 559.289 254 562.051 254H594.901C597.662 254 599.901 251.761 599.901 249V216.667C599.901 213.905 597.662 211.667 594.901 211.667Z" fill="#907628"/>
<path d="M466.35 211.667H433.5C430.739 211.667 428.5 213.905 428.5 216.667V249C428.5 251.761 430.739 254 433.5 254H466.35C469.111 254 471.35 251.761 471.35 249V216.667C471.35 213.905 469.111 211.667 466.35 211.667Z" fill="#1D0A0B"/>
<path d="M509.198 211.667H476.348C473.586 211.667 471.348 213.905 471.348 216.667V249C471.348 251.761 473.586 254 476.348 254H509.198C511.959 254 514.198 251.761 514.198 249V216.667C514.198 213.905 511.959 211.667 509.198 211.667Z" fill="#19294F"/>
<path d="M252.1 211.667H219.25C216.489 211.667 214.25 213.905 214.25 216.667V249C214.25 251.761 216.489 254 219.25 254H252.1C254.861 254 257.1 251.761 257.1 249V216.667C257.1 213.905 254.861 211.667 252.1 211.667Z" fill="#302C27"/>
<path d="M380.651 211.667H347.801C345.039 211.667 342.801 213.905 342.801 216.667V249C342.801 251.761 345.039 254 347.801 254H380.651C383.412 254 385.651 251.761 385.651 249V216.667C385.651 213.905 383.412 211.667 380.651 211.667Z" fill="#170B0C"/>
<path d="M423.498 211.667H390.648C387.887 211.667 385.648 213.905 385.648 216.667V249C385.648 251.761 387.887 254 390.648 254H423.498C426.26 254 428.498 251.761 428.498 249V216.667C428.498 213.905 426.26 211.667 423.498 211.667Z" fill="#99A5CB"/>
<path d="M294.948 211.667H262.098C259.336 211.667 257.098 213.905 257.098 216.667V249C257.098 251.761 259.336 254 262.098 254H294.948C297.709 254 299.948 251.761 299.948 249V216.667C299.948 213.905 297.709 211.667 294.948 211.667Z" fill="#9E9C99"/>
<path d="M337.799 211.667H304.949C302.188 211.667 299.949 213.905 299.949 216.667V249C299.949 251.761 302.188 254 304.949 254H337.799C340.561 254 342.799 251.761 342.799 249V216.667C342.799 213.905 340.561 211.667 337.799 211.667Z" fill="#A9BDC6"/>
<path d="M552.047 211.667H519.197C516.436 211.667 514.197 213.905 514.197 216.667V249C514.197 251.761 516.436 254 519.197 254H552.047C554.809 254 557.047 251.761 557.047 249V216.667C557.047 213.905 554.809 211.667 552.047 211.667Z" fill="#0F0C0C"/>
<path d="M209.25 211.667H176.4C173.639 211.667 171.4 213.905 171.4 216.667V249C171.4 251.761 173.639 254 176.4 254H209.25C212.012 254 214.25 251.761 214.25 249V216.667C214.25 213.905 212.012 211.667 209.25 211.667Z" fill="#AABAC9"/>
<path d="M637.75 211.667H604.9C602.139 211.667 599.9 213.905 599.9 216.667V249C599.9 251.761 602.139 254 604.9 254H637.75C640.512 254 642.75 251.761 642.75 249V216.667C642.75 213.905 640.512 211.667 637.75 211.667Z" fill="#421E11"/>
<path d="M37.8499 211.667H5C2.23858 211.667 0 213.905 0 216.667V249C0 251.761 2.23857 254 4.99999 254H37.8499C40.6114 254 42.8499 251.761 42.8499 249V216.667C42.8499 213.905 40.6114 211.667 37.8499 211.667Z" fill="#788B99"/>
<path d="M809.149 211.667H776.299C773.537 211.667 771.299 213.905 771.299 216.667V249C771.299 251.761 773.537 254 776.299 254H809.149C811.91 254 814.149 251.761 814.149 249V216.667C814.149 213.905 811.91 211.667 809.149 211.667Z" fill="#EBF6FC"/>
<path d="M852 211.667H819.15C816.389 211.667 814.15 213.905 814.15 216.667V249C814.15 251.761 816.389 254 819.15 254H852C854.762 254 857 251.761 857 249V216.667C857 213.905 854.762 211.667 852 211.667Z" fill="#D1232A"/>
<path d="M766.297 211.667H733.447C730.686 211.667 728.447 213.905 728.447 216.667V249C728.447 251.761 730.686 254 733.447 254H766.297C769.059 254 771.297 251.761 771.297 249V216.667C771.297 213.905 769.059 211.667 766.297 211.667Z" fill="#2D6794"/>
<path d="M80.6995 211.667H47.8496C45.0882 211.667 42.8496 213.905 42.8496 216.667V249C42.8496 251.761 45.0882 254 47.8496 254H80.6995C83.461 254 85.6995 251.761 85.6995 249V216.667C85.6995 213.905 83.461 211.667 80.6995 211.667Z" fill="#326868"/>
<path d="M166.403 296.333H133.553C130.791 296.333 128.553 298.572 128.553 301.333V333.667C128.553 336.428 130.791 338.667 133.553 338.667H166.403C169.164 338.667 171.403 336.428 171.403 333.667V301.333C171.403 298.572 169.164 296.333 166.403 296.333Z" fill="#5A6875"/>
<path d="M680.6 296.333H647.75C644.989 296.333 642.75 298.572 642.75 301.333V333.667C642.75 336.428 644.989 338.667 647.75 338.667H680.6C683.361 338.667 685.6 336.428 685.6 333.667V301.333C685.6 298.572 683.361 296.333 680.6 296.333Z" fill="#A7AAC5"/>
<path d="M123.545 296.333H90.6953C87.9339 296.333 85.6953 298.572 85.6953 301.333V333.667C85.6953 336.428 87.9339 338.667 90.6953 338.667H123.545C126.307 338.667 128.545 336.428 128.545 333.667V301.333C128.545 298.572 126.307 296.333 123.545 296.333Z" fill="#8B92AC"/>
<path d="M723.45 296.333H690.6C687.838 296.333 685.6 298.572 685.6 301.333V333.667C685.6 336.428 687.838 338.667 690.6 338.667H723.45C726.211 338.667 728.45 336.428 728.45 333.667V301.333C728.45 298.572 726.211 296.333 723.45 296.333Z" fill="#211A24"/>
<path d="M594.901 296.333H562.051C559.289 296.333 557.051 298.572 557.051 301.333V333.667C557.051 336.428 559.289 338.667 562.051 338.667H594.901C597.662 338.667 599.901 336.428 599.901 333.667V301.333C599.901 298.572 597.662 296.333 594.901 296.333Z" fill="#A9ABCE"/>
<path d="M252.1 296.333H219.25C216.489 296.333 214.25 298.572 214.25 301.333V333.667C214.25 336.428 216.489 338.667 219.25 338.667H252.1C254.861 338.667 257.1 336.428 257.1 333.667V301.333C257.1 298.572 254.861 296.333 252.1 296.333Z" fill="#270D11"/>
<path d="M509.198 296.333H476.348C473.586 296.333 471.348 298.572 471.348 301.333V333.667C471.348 336.428 473.586 338.667 476.348 338.667H509.198C511.959 338.667 514.198 336.428 514.198 333.667V301.333C514.198 298.572 511.959 296.333 509.198 296.333Z" fill="#737E7E"/>
<path d="M552.047 296.333H519.197C516.436 296.333 514.197 298.572 514.197 301.333V333.667C514.197 336.428 516.436 338.667 519.197 338.667H552.047C554.809 338.667 557.047 336.428 557.047 333.667V301.333C557.047 298.572 554.809 296.333 552.047 296.333Z" fill="#113674"/>
<path d="M337.799 296.333H304.949C302.188 296.333 299.949 298.572 299.949 301.333V333.667C299.949 336.428 302.188 338.667 304.949 338.667H337.799C340.561 338.667 342.799 336.428 342.799 333.667V301.333C342.799 298.572 340.561 296.333 337.799 296.333Z" fill="#1B2950"/>
<path d="M380.651 296.333H347.801C345.039 296.333 342.801 298.572 342.801 301.333V333.667C342.801 336.428 345.039 338.667 347.801 338.667H380.651C383.412 338.667 385.651 336.428 385.651 333.667V301.333C385.651 298.572 383.412 296.333 380.651 296.333Z" fill="#2C3878"/>
<path d="M423.498 296.333H390.648C387.887 296.333 385.648 298.572 385.648 301.333V333.667C385.648 336.428 387.887 338.667 390.648 338.667H423.498C426.26 338.667 428.498 336.428 428.498 333.667V301.333C428.498 298.572 426.26 296.333 423.498 296.333Z" fill="#4167A7"/>
<path d="M466.35 296.333H433.5C430.739 296.333 428.5 298.572 428.5 301.333V333.667C428.5 336.428 430.739 338.667 433.5 338.667H466.35C469.111 338.667 471.35 336.428 471.35 333.667V301.333C471.35 298.572 469.111 296.333 466.35 296.333Z" fill="#BAB6B5"/>
<path d="M294.948 296.333H262.098C259.336 296.333 257.098 298.572 257.098 301.333V333.667C257.098 336.428 259.336 338.667 262.098 338.667H294.948C297.709 338.667 299.948 336.428 299.948 333.667V301.333C299.948 298.572 297.709 296.333 294.948 296.333Z" fill="#1D2C5E"/>
<path d="M209.25 296.333H176.4C173.639 296.333 171.4 298.572 171.4 301.333V333.667C171.4 336.428 173.639 338.667 176.4 338.667H209.25C212.012 338.667 214.25 336.428 214.25 333.667V301.333C214.25 298.572 212.012 296.333 209.25 296.333Z" fill="#B1B2D2"/>
<path d="M637.75 296.333H604.9C602.139 296.333 599.9 298.572 599.9 301.333V333.667C599.9 336.428 602.139 338.667 604.9 338.667H637.75C640.512 338.667 642.75 336.428 642.75 333.667V301.333C642.75 298.572 640.512 296.333 637.75 296.333Z" fill="#CBCDE2"/>
<path d="M37.8499 296.333H5C2.23858 296.333 0 298.572 0 301.333V333.667C0 336.428 2.23857 338.667 4.99999 338.667H37.8499C40.6114 338.667 42.8499 336.428 42.8499 333.667V301.333C42.8499 298.572 40.6114 296.333 37.8499 296.333Z" fill="#120C0D"/>
<path d="M809.149 296.333H776.299C773.537 296.333 771.299 298.572 771.299 301.333V333.667C771.299 336.428 773.537 338.667 776.299 338.667H809.149C811.91 338.667 814.149 336.428 814.149 333.667V301.333C814.149 298.572 811.91 296.333 809.149 296.333Z" fill="#412936"/>
<path d="M852 296.333H819.15C816.389 296.333 814.15 298.572 814.15 301.333V333.667C814.15 336.428 816.389 338.667 819.15 338.667H852C854.762 338.667 857 336.428 857 333.667V301.333C857 298.572 854.762 296.333 852 296.333Z" fill="#3F6AA3"/>
<path d="M766.297 296.333H733.447C730.686 296.333 728.447 298.572 728.447 301.333V333.667C728.447 336.428 730.686 338.667 733.447 338.667H766.297C769.059 338.667 771.297 336.428 771.297 333.667V301.333C771.297 298.572 769.059 296.333 766.297 296.333Z" fill="#687BB3"/>
<path d="M80.6995 296.333H47.8496C45.0882 296.333 42.8496 298.572 42.8496 301.333V333.667C42.8496 336.428 45.0882 338.667 47.8496 338.667H80.6995C83.461 338.667 85.6995 336.428 85.6995 333.667V301.333C85.6995 298.572 83.461 296.333 80.6995 296.333Z" fill="#706B47"/>
<path d="M166.403 254H133.553C130.791 254 128.553 256.239 128.553 259V291.333C128.553 294.095 130.791 296.333 133.553 296.333H166.403C169.164 296.333 171.403 294.095 171.403 291.333V259C171.403 256.239 169.164 254 166.403 254Z" fill="#948672"/>
<path d="M680.6 254H647.75C644.989 254 642.75 256.239 642.75 259V291.333C642.75 294.095 644.989 296.333 647.75 296.333H680.6C683.361 296.333 685.6 294.095 685.6 291.333V259C685.6 256.239 683.361 254 680.6 254Z" fill="#696A66"/>
<path d="M723.45 254H690.6C687.838 254 685.6 256.239 685.6 259V291.333C685.6 294.095 687.838 296.333 690.6 296.333H723.45C726.211 296.333 728.45 294.095 728.45 291.333V259C728.45 256.239 726.211 254 723.45 254Z" fill="#110E11"/>
<path d="M123.545 254H90.6953C87.9339 254 85.6953 256.239 85.6953 259V291.333C85.6953 294.095 87.9339 296.333 90.6953 296.333H123.545C126.307 296.333 128.545 294.095 128.545 291.333V259C128.545 256.239 126.307 254 123.545 254Z" fill="#C7CDE2"/>
<path d="M252.1 254H219.25C216.489 254 214.25 256.239 214.25 259V291.333C214.25 294.095 216.489 296.333 219.25 296.333H252.1C254.861 296.333 257.1 294.095 257.1 291.333V259C257.1 256.239 254.861 254 252.1 254Z" fill="#B2AFC7"/>
<path d="M594.901 254H562.051C559.289 254 557.051 256.239 557.051 259V291.333C557.051 294.095 559.289 296.333 562.051 296.333H594.901C597.662 296.333 599.901 294.095 599.901 291.333V259C599.901 256.239 597.662 254 594.901 254Z" fill="#100C10"/>
<path d="M466.35 254H433.5C430.739 254 428.5 256.239 428.5 259V291.333C428.5 294.095 430.739 296.333 433.5 296.333H466.35C469.111 296.333 471.35 294.095 471.35 291.333V259C471.35 256.239 469.111 254 466.35 254Z" fill="#020610"/>
<path d="M552.047 254H519.197C516.436 254 514.197 256.239 514.197 259V291.333C514.197 294.095 516.436 296.333 519.197 296.333H552.047C554.809 296.333 557.047 294.095 557.047 291.333V259C557.047 256.239 554.809 254 552.047 254Z" fill="#331A13"/>
<path d="M509.198 254H476.348C473.586 254 471.348 256.239 471.348 259V291.333C471.348 294.095 473.586 296.333 476.348 296.333H509.198C511.959 296.333 514.198 294.095 514.198 291.333V259C514.198 256.239 511.959 254 509.198 254Z" fill="#68672B"/>
<path d="M423.498 254H390.648C387.887 254 385.648 256.239 385.648 259V291.333C385.648 294.095 387.887 296.333 390.648 296.333H423.498C426.26 296.333 428.498 294.095 428.498 291.333V259C428.498 256.239 426.26 254 423.498 254Z" fill="#7F7B5E"/>
<path d="M380.651 254H347.801C345.039 254 342.801 256.239 342.801 259V291.333C342.801 294.095 345.039 296.333 347.801 296.333H380.651C383.412 296.333 385.651 294.095 385.651 291.333V259C385.651 256.239 383.412 254 380.651 254Z" fill="#BCA198"/>
<path d="M294.948 254H262.098C259.336 254 257.098 256.239 257.098 259V291.333C257.098 294.095 259.336 296.333 262.098 296.333H294.948C297.709 296.333 299.948 294.095 299.948 291.333V259C299.948 256.239 297.709 254 294.948 254Z" fill="#9F773A"/>
<path d="M337.799 254H304.949C302.188 254 299.949 256.239 299.949 259V291.333C299.949 294.095 302.188 296.333 304.949 296.333H337.799C340.561 296.333 342.799 294.095 342.799 291.333V259C342.799 256.239 340.561 254 337.799 254Z" fill="#416A8E"/>
<path d="M209.25 254H176.4C173.639 254 171.4 256.239 171.4 259V291.333C171.4 294.095 173.639 296.333 176.4 296.333H209.25C212.012 296.333 214.25 294.095 214.25 291.333V259C214.25 256.239 212.012 254 209.25 254Z" fill="#1B1113"/>
<path d="M637.75 254H604.9C602.139 254 599.9 256.239 599.9 259V291.333C599.9 294.095 602.139 296.333 604.9 296.333H637.75C640.512 296.333 642.75 294.095 642.75 291.333V259C642.75 256.239 640.512 254 637.75 254Z" fill="#161926"/>
<path d="M37.8499 254H5C2.23858 254 0 256.239 0 259V291.333C0 294.095 2.23857 296.333 4.99999 296.333H37.8499C40.6114 296.333 42.8499 294.095 42.8499 291.333V259C42.8499 256.239 40.6114 254 37.8499 254Z" fill="#7F7C74"/>
<path d="M809.149 254H776.299C773.537 254 771.299 256.239 771.299 259V291.333C771.299 294.095 773.537 296.333 776.299 296.333H809.149C811.91 296.333 814.149 294.095 814.149 291.333V259C814.149 256.239 811.91 254 809.149 254Z" fill="#C4C7DD"/>
<path d="M852 254H819.15C816.389 254 814.15 256.239 814.15 259V291.333C814.15 294.095 816.389 296.333 819.15 296.333H852C854.762 296.333 857 294.095 857 291.333V259C857 256.239 854.762 254 852 254Z" fill="#8F8A87"/>
<path d="M766.297 254H733.447C730.686 254 728.447 256.239 728.447 259V291.333C728.447 294.095 730.686 296.333 733.447 296.333H766.297C769.059 296.333 771.297 294.095 771.297 291.333V259C771.297 256.239 769.059 254 766.297 254Z" fill="#DEAD15"/>
<path d="M80.6995 254H47.8496C45.0882 254 42.8496 256.239 42.8496 259V291.333C42.8496 294.095 45.0882 296.333 47.8496 296.333H80.6995C83.461 296.333 85.6995 294.095 85.6995 291.333V259C85.6995 256.239 83.461 254 80.6995 254Z" fill="#777458"/>
<path d="M852 508H819.15C816.389 508 814.15 510.239 814.15 513V545.333C814.15 548.095 816.389 550.333 819.15 550.333H852C854.762 550.333 857 548.095 857 545.333V513C857 510.239 854.762 508 852 508Z" fill="#243884"/>
<path d="M123.545 508H90.6953C87.9339 508 85.6953 510.239 85.6953 513V545.333C85.6953 548.095 87.9339 550.333 90.6953 550.333H123.545C126.307 550.333 128.545 548.095 128.545 545.333V513C128.545 510.239 126.307 508 123.545 508Z" fill="#979FBA"/>
<path d="M37.8499 508H5C2.23858 508 0 510.239 0 513V545.333C0 548.095 2.23857 550.333 4.99999 550.333H37.8499C40.6114 550.333 42.8499 548.095 42.8499 545.333V513C42.8499 510.239 40.6114 508 37.8499 508Z" fill="#5573A0"/>
<path d="M337.799 508H304.949C302.188 508 299.949 510.239 299.949 513V545.333C299.949 548.095 302.188 550.333 304.949 550.333H337.799C340.561 550.333 342.799 548.095 342.799 545.333V513C342.799 510.239 340.561 508 337.799 508Z" fill="#36281E"/>
<path d="M423.498 508H390.648C387.887 508 385.648 510.239 385.648 513V545.333C385.648 548.095 387.887 550.333 390.648 550.333H423.498C426.26 550.333 428.498 548.095 428.498 545.333V513C428.498 510.239 426.26 508 423.498 508Z" fill="#4C100C"/>
<path d="M380.651 508H347.801C345.039 508 342.801 510.239 342.801 513V545.333C342.801 548.095 345.039 550.333 347.801 550.333H380.651C383.412 550.333 385.651 548.095 385.651 545.333V513C385.651 510.239 383.412 508 380.651 508Z" fill="#8A8985"/>
<path d="M466.35 508H433.5C430.739 508 428.5 510.239 428.5 513V545.333C428.5 548.095 430.739 550.333 433.5 550.333H466.35C469.111 550.333 471.35 548.095 471.35 545.333V513C471.35 510.239 469.111 508 466.35 508Z" fill="#286589"/>
<path d="M166.403 508H133.553C130.791 508 128.553 510.239 128.553 513V545.333C128.553 548.095 130.791 550.333 133.553 550.333H166.403C169.164 550.333 171.403 548.095 171.403 545.333V513C171.403 510.239 169.164 508 166.403 508Z" fill="#3B4141"/>
<path d="M209.25 508H176.4C173.639 508 171.4 510.239 171.4 513V545.333C171.4 548.095 173.639 550.333 176.4 550.333H209.25C212.012 550.333 214.25 548.095 214.25 545.333V513C214.25 510.239 212.012 508 209.25 508Z" fill="#949A91"/>
<path d="M294.948 508H262.098C259.336 508 257.098 510.239 257.098 513V545.333C257.098 548.095 259.336 550.333 262.098 550.333H294.948C297.709 550.333 299.948 548.095 299.948 545.333V513C299.948 510.239 297.709 508 294.948 508Z" fill="#B2AEAE"/>
<path d="M509.198 508H476.348C473.586 508 471.348 510.239 471.348 513V545.333C471.348 548.095 473.586 550.333 476.348 550.333H509.198C511.959 550.333 514.198 548.095 514.198 545.333V513C514.198 510.239 511.959 508 509.198 508Z" fill="#6C83A2"/>
<path d="M252.1 508H219.25C216.489 508 214.25 510.239 214.25 513V545.333C214.25 548.095 216.489 550.333 219.25 550.333H252.1C254.861 550.333 257.1 548.095 257.1 545.333V513C257.1 510.239 254.861 508 252.1 508Z" fill="#25201F"/>
<path d="M766.297 508H733.447C730.686 508 728.447 510.239 728.447 513V545.333C728.447 548.095 730.686 550.333 733.447 550.333H766.297C769.059 550.333 771.297 548.095 771.297 545.333V513C771.297 510.239 769.059 508 766.297 508Z" fill="#8D9BBD"/>
<path d="M552.047 508H519.197C516.436 508 514.197 510.239 514.197 513V545.333C514.197 548.095 516.436 550.333 519.197 550.333H552.047C554.809 550.333 557.047 548.095 557.047 545.333V513C557.047 510.239 554.809 508 552.047 508Z" fill="#738097"/>
<path d="M723.45 508H690.6C687.838 508 685.6 510.239 685.6 513V545.333C685.6 548.095 687.838 550.333 690.6 550.333H723.45C726.211 550.333 728.45 548.095 728.45 545.333V513C728.45 510.239 726.211 508 723.45 508Z" fill="#6C777B"/>
<path d="M594.901 508H562.051C559.289 508 557.051 510.239 557.051 513V545.333C557.051 548.095 559.289 550.333 562.051 550.333H594.901C597.662 550.333 599.901 548.095 599.901 545.333V513C599.901 510.239 597.662 508 594.901 508Z" fill="#5D6670"/>
<path d="M637.75 508H604.9C602.139 508 599.9 510.239 599.9 513V545.333C599.9 548.095 602.139 550.333 604.9 550.333H637.75C640.512 550.333 642.75 548.095 642.75 545.333V513C642.75 510.239 640.512 508 637.75 508Z" fill="#201712"/>
<path d="M680.6 508H647.75C644.989 508 642.75 510.239 642.75 513V545.333C642.75 548.095 644.989 550.333 647.75 550.333H680.6C683.361 550.333 685.6 548.095 685.6 545.333V513C685.6 510.239 683.361 508 680.6 508Z" fill="#7A5B26"/>
<path d="M809.149 508H776.299C773.537 508 771.299 510.239 771.299 513V545.333C771.299 548.095 773.537 550.333 776.299 550.333H809.149C811.91 550.333 814.149 548.095 814.149 545.333V513C814.149 510.239 811.91 508 809.149 508Z" fill="#806D29"/>
<path d="M80.6995 508H47.8496C45.0882 508 42.8496 510.239 42.8496 513V545.333C42.8496 548.095 45.0882 550.333 47.8496 550.333H80.6995C83.461 550.333 85.6995 548.095 85.6995 545.333V513C85.6995 510.239 83.461 508 80.6995 508Z" fill="#2F6CA5"/>
<path d="M166.403 423.333H133.553C130.791 423.333 128.553 425.572 128.553 428.333V460.667C128.553 463.428 130.791 465.667 133.553 465.667H166.403C169.164 465.667 171.403 463.428 171.403 460.667V428.333C171.403 425.572 169.164 423.333 166.403 423.333Z" fill="#575F83"/>
<path d="M637.75 423.333H604.9C602.139 423.333 599.9 425.572 599.9 428.333V460.667C599.9 463.428 602.139 465.667 604.9 465.667H637.75C640.512 465.667 642.75 463.428 642.75 460.667V428.333C642.75 425.572 640.512 423.333 637.75 423.333Z" fill="#013C74"/>
<path d="M680.6 423.333H647.75C644.989 423.333 642.75 425.572 642.75 428.333V460.667C642.75 463.428 644.989 465.667 647.75 465.667H680.6C683.361 465.667 685.6 463.428 685.6 460.667V428.333C685.6 425.572 683.361 423.333 680.6 423.333Z" fill="#B9ACC1"/>
<path d="M123.545 423.333H90.6953C87.9339 423.333 85.6953 425.572 85.6953 428.333V460.667C85.6953 463.428 87.9339 465.667 90.6953 465.667H123.545C126.307 465.667 128.545 463.428 128.545 460.667V428.333C128.545 425.572 126.307 423.333 123.545 423.333Z" fill="#ADCCE9"/>
<path d="M723.45 423.333H690.6C687.838 423.333 685.6 425.572 685.6 428.333V460.667C685.6 463.428 687.838 465.667 690.6 465.667H723.45C726.211 465.667 728.45 463.428 728.45 460.667V428.333C728.45 425.572 726.211 423.333 723.45 423.333Z" fill="#573820"/>
<path d="M594.901 423.333H562.051C559.289 423.333 557.051 425.572 557.051 428.333V460.667C557.051 463.428 559.289 465.667 562.051 465.667H594.901C597.662 465.667 599.901 463.428 599.901 460.667V428.333C599.901 425.572 597.662 423.333 594.901 423.333Z" fill="#004177"/>
<path d="M552.047 423.333H519.197C516.436 423.333 514.197 425.572 514.197 428.333V460.667C514.197 463.428 516.436 465.667 519.197 465.667H552.047C554.809 465.667 557.047 463.428 557.047 460.667V428.333C557.047 425.572 554.809 423.333 552.047 423.333Z" fill="#396A8C"/>
<path d="M423.498 423.333H390.648C387.887 423.333 385.648 425.572 385.648 428.333V460.667C385.648 463.428 387.887 465.667 390.648 465.667H423.498C426.26 465.667 428.498 463.428 428.498 460.667V428.333C428.498 425.572 426.26 423.333 423.498 423.333Z" fill="#6E5D63"/>
<path d="M466.35 423.333H433.5C430.739 423.333 428.5 425.572 428.5 428.333V460.667C428.5 463.428 430.739 465.667 433.5 465.667H466.35C469.111 465.667 471.35 463.428 471.35 460.667V428.333C471.35 425.572 469.111 423.333 466.35 423.333Z" fill="#567895"/>
<path d="M209.25 423.333H176.4C173.639 423.333 171.4 425.572 171.4 428.333V460.667C171.4 463.428 173.639 465.667 176.4 465.667H209.25C212.012 465.667 214.25 463.428 214.25 460.667V428.333C214.25 425.572 212.012 423.333 209.25 423.333Z" fill="#9D5C97"/>
<path d="M509.198 423.333H476.348C473.586 423.333 471.348 425.572 471.348 428.333V460.667C471.348 463.428 473.586 465.667 476.348 465.667H509.198C511.959 465.667 514.198 463.428 514.198 460.667V428.333C514.198 425.572 511.959 423.333 509.198 423.333Z" fill="#100A0A"/>
<path d="M380.651 423.333H347.801C345.039 423.333 342.801 425.572 342.801 428.333V460.667C342.801 463.428 345.039 465.667 347.801 465.667H380.651C383.412 465.667 385.651 463.428 385.651 460.667V428.333C385.651 425.572 383.412 423.333 380.651 423.333Z" fill="#A38076"/>
<path d="M252.1 423.333H219.25C216.489 423.333 214.25 425.572 214.25 428.333V460.667C214.25 463.428 216.489 465.667 219.25 465.667H252.1C254.861 465.667 257.1 463.428 257.1 460.667V428.333C257.1 425.572 254.861 423.333 252.1 423.333Z" fill="#1C2B55"/>
<path d="M337.799 423.333H304.949C302.188 423.333 299.949 425.572 299.949 428.333V460.667C299.949 463.428 302.188 465.667 304.949 465.667H337.799C340.561 465.667 342.799 463.428 342.799 460.667V428.333C342.799 425.572 340.561 423.333 337.799 423.333Z" fill="#938994"/>
<path d="M294.948 423.333H262.098C259.336 423.333 257.098 425.572 257.098 428.333V460.667C257.098 463.428 259.336 465.667 262.098 465.667H294.948C297.709 465.667 299.948 463.428 299.948 460.667V428.333C299.948 425.572 297.709 423.333 294.948 423.333Z" fill="#1F0207"/>
<path d="M37.8499 423.333H5C2.23858 423.333 0 425.572 0 428.333V460.667C0 463.428 2.23857 465.667 4.99999 465.667H37.8499C40.6114 465.667 42.8499 463.428 42.8499 460.667V428.333C42.8499 425.572 40.6114 423.333 37.8499 423.333Z" fill="#0B0607"/>
<path d="M852 423.333H819.15C816.389 423.333 814.15 425.572 814.15 428.333V460.667C814.15 463.428 816.389 465.667 819.15 465.667H852C854.762 465.667 857 463.428 857 460.667V428.333C857 425.572 854.762 423.333 852 423.333Z" fill="#5C7A33"/>
<path d="M766.297 423.333H733.447C730.686 423.333 728.447 425.572 728.447 428.333V460.667C728.447 463.428 730.686 465.667 733.447 465.667H766.297C769.059 465.667 771.297 463.428 771.297 460.667V428.333C771.297 425.572 769.059 423.333 766.297 423.333Z" fill="#D4CEDB"/>
<path d="M809.149 423.333H776.299C773.537 423.333 771.299 425.572 771.299 428.333V460.667C771.299 463.428 773.537 465.667 776.299 465.667H809.149C811.91 465.667 814.149 463.428 814.149 460.667V428.333C814.149 425.572 811.91 423.333 809.149 423.333Z" fill="#A46E23"/>
<path d="M80.6995 423.333H47.8496C45.0882 423.333 42.8496 425.572 42.8496 428.333V460.667C42.8496 463.428 45.0882 465.667 47.8496 465.667H80.6995C83.461 465.667 85.6995 463.428 85.6995 460.667V428.333C85.6995 425.572 83.461 423.333 80.6995 423.333Z" fill="#8B939D"/>
<path d="M123.545 465.667H90.6953C87.9339 465.667 85.6953 467.905 85.6953 470.667V503C85.6953 505.761 87.9339 508 90.6953 508H123.545C126.307 508 128.545 505.761 128.545 503V470.667C128.545 467.905 126.307 465.667 123.545 465.667Z" fill="#8485AB"/>
<path d="M380.651 465.667H347.801C345.039 465.667 342.801 467.905 342.801 470.667V503C342.801 505.761 345.039 508 347.801 508H380.651C383.412 508 385.651 505.761 385.651 503V470.667C385.651 467.905 383.412 465.667 380.651 465.667Z" fill="#454520"/>
<path d="M337.799 465.667H304.949C302.188 465.667 299.949 467.905 299.949 470.667V503C299.949 505.761 302.188 508 304.949 508H337.799C340.561 508 342.799 505.761 342.799 503V470.667C342.799 467.905 340.561 465.667 337.799 465.667Z" fill="#213B1E"/>
<path d="M423.498 465.667H390.648C387.887 465.667 385.648 467.905 385.648 470.667V503C385.648 505.761 387.887 508 390.648 508H423.498C426.26 508 428.498 505.761 428.498 503V470.667C428.498 467.905 426.26 465.667 423.498 465.667Z" fill="#DDE1E4"/>
<path d="M294.948 465.667H262.098C259.336 465.667 257.098 467.905 257.098 470.667V503C257.098 505.761 259.336 508 262.098 508H294.948C297.709 508 299.948 505.761 299.948 503V470.667C299.948 467.905 297.709 465.667 294.948 465.667Z" fill="#7A7C2D"/>
<path d="M166.403 465.667H133.553C130.791 465.667 128.553 467.905 128.553 470.667V503C128.553 505.761 130.791 508 133.553 508H166.403C169.164 508 171.403 505.761 171.403 503V470.667C171.403 467.905 169.164 465.667 166.403 465.667Z" fill="#9D1F28"/>
<path d="M209.25 465.667H176.4C173.639 465.667 171.4 467.905 171.4 470.667V503C171.4 505.761 173.639 508 176.4 508H209.25C212.012 508 214.25 505.761 214.25 503V470.667C214.25 467.905 212.012 465.667 209.25 465.667Z" fill="#001317"/>
<path d="M252.1 465.667H219.25C216.489 465.667 214.25 467.905 214.25 470.667V503C214.25 505.761 216.489 508 219.25 508H252.1C254.861 508 257.1 505.761 257.1 503V470.667C257.1 467.905 254.861 465.667 252.1 465.667Z" fill="#3C3F48"/>
<path d="M466.35 465.667H433.5C430.739 465.667 428.5 467.905 428.5 470.667V503C428.5 505.761 430.739 508 433.5 508H466.35C469.111 508 471.35 505.761 471.35 503V470.667C471.35 467.905 469.111 465.667 466.35 465.667Z" fill="#C4A74B"/>
<path d="M509.198 465.667H476.348C473.586 465.667 471.348 467.905 471.348 470.667V503C471.348 505.761 473.586 508 476.348 508H509.198C511.959 508 514.198 505.761 514.198 503V470.667C514.198 467.905 511.959 465.667 509.198 465.667Z" fill="#293B1D"/>
<path d="M723.45 465.667H690.6C687.838 465.667 685.6 467.905 685.6 470.667V503C685.6 505.761 687.838 508 690.6 508H723.45C726.211 508 728.45 505.761 728.45 503V470.667C728.45 467.905 726.211 465.667 723.45 465.667Z" fill="#959391"/>
<path d="M680.6 465.667H647.75C644.989 465.667 642.75 467.905 642.75 470.667V503C642.75 505.761 644.989 508 647.75 508H680.6C683.361 508 685.6 505.761 685.6 503V470.667C685.6 467.905 683.361 465.667 680.6 465.667Z" fill="#8F8E8B"/>
<path d="M594.901 465.667H562.051C559.289 465.667 557.051 467.905 557.051 470.667V503C557.051 505.761 559.289 508 562.051 508H594.901C597.662 508 599.901 505.761 599.901 503V470.667C599.901 467.905 597.662 465.667 594.901 465.667Z" fill="#6D94B0"/>
<path d="M552.047 465.667H519.197C516.436 465.667 514.197 467.905 514.197 470.667V503C514.197 505.761 516.436 508 519.197 508H552.047C554.809 508 557.047 505.761 557.047 503V470.667C557.047 467.905 554.809 465.667 552.047 465.667Z" fill="#B9BEC7"/>
<path d="M637.75 465.667H604.9C602.139 465.667 599.9 467.905 599.9 470.667V503C599.9 505.761 602.139 508 604.9 508H637.75C640.512 508 642.75 505.761 642.75 503V470.667C642.75 467.905 640.512 465.667 637.75 465.667Z" fill="#777C46"/>
<path d="M37.8499 465.667H5C2.23858 465.667 0 467.905 0 470.667V503C0 505.761 2.23857 508 4.99999 508H37.8499C40.6114 508 42.8499 505.761 42.8499 503V470.667C42.8499 467.905 40.6114 465.667 37.8499 465.667Z" fill="#6C7A68"/>
<path d="M852 465.667H819.15C816.389 465.667 814.15 467.905 814.15 470.667V503C814.15 505.761 816.389 508 819.15 508H852C854.762 508 857 505.761 857 503V470.667C857 467.905 854.762 465.667 852 465.667Z" fill="#4B4745"/>
<path d="M766.297 465.667H733.447C730.686 465.667 728.447 467.905 728.447 470.667V503C728.447 505.761 730.686 508 733.447 508H766.297C769.059 508 771.297 505.761 771.297 503V470.667C771.297 467.905 769.059 465.667 766.297 465.667Z" fill="#81827E"/>
<path d="M809.149 465.984H776.299C773.537 465.984 771.299 468.223 771.299 470.984V503.318C771.299 506.079 773.537 508.318 776.299 508.318H809.149C811.91 508.318 814.149 506.079 814.149 503.318V470.984C814.149 468.223 811.91 465.984 809.149 465.984Z" fill="#130F10"/>
<path d="M80.6995 465.667H47.8496C45.0882 465.667 42.8496 467.905 42.8496 470.667V503C42.8496 505.761 45.0882 508 47.8496 508H80.6995C83.461 508 85.6995 505.761 85.6995 503V470.667C85.6995 467.905 83.461 465.667 80.6995 465.667Z" fill="#152041"/>
<path d="M166.403 381H133.553C130.791 381 128.553 383.239 128.553 386V418.333C128.553 421.095 130.791 423.333 133.553 423.333H166.403C169.164 423.333 171.403 421.095 171.403 418.333V386C171.403 383.239 169.164 381 166.403 381Z" fill="#4A210F"/>
<path d="M680.6 381H647.75C644.989 381 642.75 383.239 642.75 386V418.333C642.75 421.095 644.989 423.333 647.75 423.333H680.6C683.361 423.333 685.6 421.095 685.6 418.333V386C685.6 383.239 683.361 381 680.6 381Z" fill="#9E94B7"/>
<path d="M123.545 381H90.6953C87.9339 381 85.6953 383.239 85.6953 386V418.333C85.6953 421.095 87.9339 423.333 90.6953 423.333H123.545C126.307 423.333 128.545 421.095 128.545 418.333V386C128.545 383.239 126.307 381 123.545 381Z" fill="#231F25"/>
<path d="M723.45 381H690.6C687.838 381 685.6 383.239 685.6 386V418.333C685.6 421.095 687.838 423.333 690.6 423.333H723.45C726.211 423.333 728.45 421.095 728.45 418.333V386C728.45 383.239 726.211 381 723.45 381Z" fill="#83A4B7"/>
<path d="M252.1 381H219.25C216.489 381 214.25 383.239 214.25 386V418.333C214.25 421.095 216.489 423.333 219.25 423.333H252.1C254.861 423.333 257.1 421.095 257.1 418.333V386C257.1 383.239 254.861 381 252.1 381Z" fill="#EEF6EE"/>
<path d="M209.25 381H176.4C173.639 381 171.4 383.239 171.4 386V418.333C171.4 421.095 173.639 423.333 176.4 423.333H209.25C212.012 423.333 214.25 421.095 214.25 418.333V386C214.25 383.239 212.012 381 209.25 381Z" fill="#1C0E0A"/>
<path d="M466.35 381H433.5C430.739 381 428.5 383.239 428.5 386V418.333C428.5 421.095 430.739 423.333 433.5 423.333H466.35C469.111 423.333 471.35 421.095 471.35 418.333V386C471.35 383.239 469.111 381 466.35 381Z" fill="#C9D2CD"/>
<path d="M509.198 381H476.348C473.586 381 471.348 383.239 471.348 386V418.333C471.348 421.095 473.586 423.333 476.348 423.333H509.198C511.959 423.333 514.198 421.095 514.198 418.333V386C514.198 383.239 511.959 381 509.198 381Z" fill="#856026"/>
<path d="M637.75 381H604.9C602.139 381 599.9 383.239 599.9 386V418.333C599.9 421.095 602.139 423.333 604.9 423.333H637.75C640.512 423.333 642.75 421.095 642.75 418.333V386C642.75 383.239 640.512 381 637.75 381Z" fill="#225F95"/>
<path d="M594.901 381H562.051C559.289 381 557.051 383.239 557.051 386V418.333C557.051 421.095 559.289 423.333 562.051 423.333H594.901C597.662 423.333 599.901 421.095 599.901 418.333V386C599.901 383.239 597.662 381 594.901 381Z" fill="#B47F1D"/>
<path d="M423.498 381H390.648C387.887 381 385.648 383.239 385.648 386V418.333C385.648 421.095 387.887 423.333 390.648 423.333H423.498C426.26 423.333 428.498 421.095 428.498 418.333V386C428.498 383.239 426.26 381 423.498 381Z" fill="#0B598B"/>
<path d="M337.799 381H304.949C302.188 381 299.949 383.239 299.949 386V418.333C299.949 421.095 302.188 423.333 304.949 423.333H337.799C340.561 423.333 342.799 421.095 342.799 418.333V386C342.799 383.239 340.561 381 337.799 381Z" fill="#120308"/>
<path d="M380.651 381H347.801C345.039 381 342.801 383.239 342.801 386V418.333C342.801 421.095 345.039 423.333 347.801 423.333H380.651C383.412 423.333 385.651 421.095 385.651 418.333V386C385.651 383.239 383.412 381 380.651 381Z" fill="#B1731F"/>
<path d="M294.948 381H262.098C259.336 381 257.098 383.239 257.098 386V418.333C257.098 421.095 259.336 423.333 262.098 423.333H294.948C297.709 423.333 299.948 421.095 299.948 418.333V386C299.948 383.239 297.709 381 294.948 381Z" fill="#CA3079"/>
<path d="M552.047 381H519.197C516.436 381 514.197 383.239 514.197 386V418.333C514.197 421.095 516.436 423.333 519.197 423.333H552.047C554.809 423.333 557.047 421.095 557.047 418.333V386C557.047 383.239 554.809 381 552.047 381Z" fill="#6382B4"/>
<path d="M37.8499 381H5C2.23858 381 0 383.239 0 386V418.333C0 421.095 2.23857 423.333 4.99999 423.333H37.8499C40.6114 423.333 42.8499 421.095 42.8499 418.333V386C42.8499 383.239 40.6114 381 37.8499 381Z" fill="#6D7686"/>
<path d="M852 381H819.15C816.389 381 814.15 383.239 814.15 386V418.333C814.15 421.095 816.389 423.333 819.15 423.333H852C854.762 423.333 857 421.095 857 418.333V386C857 383.239 854.762 381 852 381Z" fill="#003C7C"/>
<path d="M809.149 381H776.299C773.537 381 771.299 383.239 771.299 386V418.333C771.299 421.095 773.537 423.333 776.299 423.333H809.149C811.91 423.333 814.149 421.095 814.149 418.333V386C814.149 383.239 811.91 381 809.149 381Z" fill="#256692"/>
<path d="M766.297 381H733.447C730.686 381 728.447 383.239 728.447 386V418.333C728.447 421.095 730.686 423.333 733.447 423.333H766.297C769.059 423.333 771.297 421.095 771.297 418.333V386C771.297 383.239 769.059 381 766.297 381Z" fill="white"/>
<path d="M80.6995 381H47.8496C45.0882 381 42.8496 383.239 42.8496 386V418.333C42.8496 421.095 45.0882 423.333 47.8496 423.333H80.6995C83.461 423.333 85.6995 421.095 85.6995 418.333V386C85.6995 383.239 83.461 381 80.6995 381Z" fill="#002C37"/>
<path d="M852 550.333H819.15C816.389 550.333 814.15 552.572 814.15 555.333V587.667C814.15 590.428 816.389 592.667 819.15 592.667H852C854.762 592.667 857 590.428 857 587.667V555.333C857 552.572 854.762 550.333 852 550.333Z" fill="#DEE3F2"/>
<path d="M37.8499 550.333H5C2.23858 550.333 0 552.572 0 555.333V587.667C0 590.428 2.23857 592.667 4.99999 592.667H37.8499C40.6114 592.667 42.8499 590.428 42.8499 587.667V555.333C42.8499 552.572 40.6114 550.333 37.8499 550.333Z" fill="#083C86"/>
<path d="M380.651 550.333H347.801C345.039 550.333 342.801 552.572 342.801 555.333V587.667C342.801 590.428 345.039 592.667 347.801 592.667H380.651C383.412 592.667 385.651 590.428 385.651 587.667V555.333C385.651 552.572 383.412 550.333 380.651 550.333Z" fill="#0E0C0C"/>
<path d="M423.498 550.333H390.648C387.887 550.333 385.648 552.572 385.648 555.333V587.667C385.648 590.428 387.887 592.667 390.648 592.667H423.498C426.26 592.667 428.498 590.428 428.498 587.667V555.333C428.498 552.572 426.26 550.333 423.498 550.333Z" fill="#797D7A"/>
<path d="M509.198 550.333H476.348C473.586 550.333 471.348 552.572 471.348 555.333V587.667C471.348 590.428 473.586 592.667 476.348 592.667H509.198C511.959 592.667 514.198 590.428 514.198 587.667V555.333C514.198 552.572 511.959 550.333 509.198 550.333Z" fill="#9CADD4"/>
<path d="M337.799 550.333H304.949C302.188 550.333 299.949 552.572 299.949 555.333V587.667C299.949 590.428 302.188 592.667 304.949 592.667H337.799C340.561 592.667 342.799 590.428 342.799 587.667V555.333C342.799 552.572 340.561 550.333 337.799 550.333Z" fill="white"/>
<path d="M166.403 550.333H133.553C130.791 550.333 128.553 552.572 128.553 555.333V587.667C128.553 590.428 130.791 592.667 133.553 592.667H166.403C169.164 592.667 171.403 590.428 171.403 587.667V555.333C171.403 552.572 169.164 550.333 166.403 550.333Z" fill="#2662A6"/>
<path d="M552.047 550.333H519.197C516.436 550.333 514.197 552.572 514.197 555.333V587.667C514.197 590.428 516.436 592.667 519.197 592.667H552.047C554.809 592.667 557.047 590.428 557.047 587.667V555.333C557.047 552.572 554.809 550.333 552.047 550.333Z" fill="#C4C6BB"/>
<path d="M209.25 550.333H176.4C173.639 550.333 171.4 552.572 171.4 555.333V587.667C171.4 590.428 173.639 592.667 176.4 592.667H209.25C212.012 592.667 214.25 590.428 214.25 587.667V555.333C214.25 552.572 212.012 550.333 209.25 550.333Z" fill="#8A8986"/>
<path d="M294.948 550.333H262.098C259.336 550.333 257.098 552.572 257.098 555.333V587.667C257.098 590.428 259.336 592.667 262.098 592.667H294.948C297.709 592.667 299.948 590.428 299.948 587.667V555.333C299.948 552.572 297.709 550.333 294.948 550.333Z" fill="#9A9696"/>
<path d="M252.1 550.333H219.25C216.489 550.333 214.25 552.572 214.25 555.333V587.667C214.25 590.428 216.489 592.667 219.25 592.667H252.1C254.861 592.667 257.1 590.428 257.1 587.667V555.333C257.1 552.572 254.861 550.333 252.1 550.333Z" fill="#100D0D"/>
<path d="M766.297 550.333H733.447C730.686 550.333 728.447 552.572 728.447 555.333V587.667C728.447 590.428 730.686 592.667 733.447 592.667H766.297C769.059 592.667 771.297 590.428 771.297 587.667V555.333C771.297 552.572 769.059 550.333 766.297 550.333Z" fill="#8A95A9"/>
<path d="M809.149 550.333H776.299C773.537 550.333 771.299 552.572 771.299 555.333V587.667C771.299 590.428 773.537 592.667 776.299 592.667H809.149C811.91 592.667 814.149 590.428 814.149 587.667V555.333C814.149 552.572 811.91 550.333 809.149 550.333Z" fill="#AF7CAD"/>
<path d="M594.901 550.333H562.051C559.289 550.333 557.051 552.572 557.051 555.333V587.667C557.051 590.428 559.289 592.667 562.051 592.667H594.901C597.662 592.667 599.901 590.428 599.901 587.667V555.333C599.901 552.572 597.662 550.333 594.901 550.333Z" fill="#E7E3F1"/>
<path d="M723.45 550.333H690.6C687.838 550.333 685.6 552.572 685.6 555.333V587.667C685.6 590.428 687.838 592.667 690.6 592.667H723.45C726.211 592.667 728.45 590.428 728.45 587.667V555.333C728.45 552.572 726.211 550.333 723.45 550.333Z" fill="#898D92"/>
<path d="M637.75 550.333H604.9C602.139 550.333 599.9 552.572 599.9 555.333V587.667C599.9 590.428 602.139 592.667 604.9 592.667H637.75C640.512 592.667 642.75 590.428 642.75 587.667V555.333C642.75 552.572 640.512 550.333 637.75 550.333Z" fill="#6C1317"/>
<path d="M680.6 550.333H647.75C644.989 550.333 642.75 552.572 642.75 555.333V587.667C642.75 590.428 644.989 592.667 647.75 592.667H680.6C683.361 592.667 685.6 590.428 685.6 587.667V555.333C685.6 552.572 683.361 550.333 680.6 550.333Z" fill="#99A9D1"/>
<path d="M466.35 550.333H433.5C430.739 550.333 428.5 552.572 428.5 555.333V587.667C428.5 590.428 430.739 592.667 433.5 592.667H466.35C469.111 592.667 471.35 590.428 471.35 587.667V555.333C471.35 552.572 469.111 550.333 466.35 550.333Z" fill="#8A8F97"/>
<path d="M80.6995 550.333H47.8496C45.0882 550.333 42.8496 552.572 42.8496 555.333V587.667C42.8496 590.428 45.0882 592.667 47.8496 592.667H80.6995C83.461 592.667 85.6995 590.428 85.6995 587.667V555.333C85.6995 552.572 83.461 550.333 80.6995 550.333Z" fill="#8D722D"/>
<path d="M123.545 550.333H90.6953C87.9339 550.333 85.6953 552.572 85.6953 555.333V587.667C85.6953 590.428 87.9339 592.667 90.6953 592.667H123.545C126.307 592.667 128.545 590.428 128.545 587.667V555.333C128.545 552.572 126.307 550.333 123.545 550.333Z" fill="#64798B"/>
<path d="M680.6 338.667H647.75C644.989 338.667 642.75 340.905 642.75 343.667V376C642.75 378.761 644.989 381 647.75 381H680.6C683.361 381 685.6 378.761 685.6 376V343.667C685.6 340.905 683.361 338.667 680.6 338.667Z" fill="#83203E"/>
<path d="M123.545 338.667H90.6953C87.9339 338.667 85.6953 340.905 85.6953 343.667V376C85.6953 378.761 87.9339 381 90.6953 381H123.545C126.307 381 128.545 378.761 128.545 376V343.667C128.545 340.905 126.307 338.667 123.545 338.667Z" fill="#8CA7C3"/>
<path d="M723.45 338.667H690.6C687.838 338.667 685.6 340.905 685.6 343.667V376C685.6 378.761 687.838 381 690.6 381H723.45C726.211 381 728.45 378.761 728.45 376V343.667C728.45 340.905 726.211 338.667 723.45 338.667Z" fill="#161C36"/>
<path d="M166.403 338.667H133.553C130.791 338.667 128.553 340.905 128.553 343.667V376C128.553 378.761 130.791 381 133.553 381H166.403C169.164 381 171.403 378.761 171.403 376V343.667C171.403 340.905 169.164 338.667 166.403 338.667Z" fill="#C9C7E2"/>
<path d="M466.35 338.667H433.5C430.739 338.667 428.5 340.905 428.5 343.667V376C428.5 378.761 430.739 381 433.5 381H466.35C469.111 381 471.35 378.761 471.35 376V343.667C471.35 340.905 469.111 338.667 466.35 338.667Z" fill="#897835"/>
<path d="M509.198 338.667H476.348C473.586 338.667 471.348 340.905 471.348 343.667V376C471.348 378.761 473.586 381 476.348 381H509.198C511.959 381 514.198 378.761 514.198 376V343.667C514.198 340.905 511.959 338.667 509.198 338.667Z" fill="#182548"/>
<path d="M552.047 338.667H519.197C516.436 338.667 514.197 340.905 514.197 343.667V376C514.197 378.761 516.436 381 519.197 381H552.047C554.809 381 557.047 378.761 557.047 376V343.667C557.047 340.905 554.809 338.667 552.047 338.667Z" fill="#8A748B"/>
<path d="M594.901 338.667H562.051C559.289 338.667 557.051 340.905 557.051 343.667V376C557.051 378.761 559.289 381 562.051 381H594.901C597.662 381 599.901 378.761 599.901 376V343.667C599.901 340.905 597.662 338.667 594.901 338.667Z" fill="#0F365E"/>
<path d="M252.1 338.667H219.25C216.489 338.667 214.25 340.905 214.25 343.667V376C214.25 378.761 216.489 381 219.25 381H252.1C254.861 381 257.1 378.761 257.1 376V343.667C257.1 340.905 254.861 338.667 252.1 338.667Z" fill="#C2D0D2"/>
<path d="M337.799 338.667H304.949C302.188 338.667 299.949 340.905 299.949 343.667V376C299.949 378.761 302.188 381 304.949 381H337.799C340.561 381 342.799 378.761 342.799 376V343.667C342.799 340.905 340.561 338.667 337.799 338.667Z" fill="#A4AFD5"/>
<path d="M294.948 338.667H262.098C259.336 338.667 257.098 340.905 257.098 343.667V376C257.098 378.761 259.336 381 262.098 381H294.948C297.709 381 299.948 378.761 299.948 376V343.667C299.948 340.905 297.709 338.667 294.948 338.667Z" fill="#28121D"/>
<path d="M423.498 338.667H390.648C387.887 338.667 385.648 340.905 385.648 343.667V376C385.648 378.761 387.887 381 390.648 381H423.498C426.26 381 428.498 378.761 428.498 376V343.667C428.498 340.905 426.26 338.667 423.498 338.667Z" fill="#688DAF"/>
<path d="M380.651 338.667H347.801C345.039 338.667 342.801 340.905 342.801 343.667V376C342.801 378.761 345.039 381 347.801 381H380.651C383.412 381 385.651 378.761 385.651 376V343.667C385.651 340.905 383.412 338.667 380.651 338.667Z" fill="#68452E"/>
<path d="M209.25 338.667H176.4C173.639 338.667 171.4 340.905 171.4 343.667V376C171.4 378.761 173.639 381 176.4 381H209.25C212.012 381 214.25 378.761 214.25 376V343.667C214.25 340.905 212.012 338.667 209.25 338.667Z" fill="#707D86"/>
<path d="M637.75 338.667H604.9C602.139 338.667 599.9 340.905 599.9 343.667V376C599.9 378.761 602.139 381 604.9 381H637.75C640.512 381 642.75 378.761 642.75 376V343.667C642.75 340.905 640.512 338.667 637.75 338.667Z" fill="#344E66"/>
<path d="M37.8499 338.667H5C2.23858 338.667 0 340.905 0 343.667V376C0 378.761 2.23857 381 4.99999 381H37.8499C40.6114 381 42.8499 378.761 42.8499 376V343.667C42.8499 340.905 40.6114 338.667 37.8499 338.667Z" fill="#6D331B"/>
<path d="M809.149 338.667H776.299C773.537 338.667 771.299 340.905 771.299 343.667V376C771.299 378.761 773.537 381 776.299 381H809.149C811.91 381 814.149 378.761 814.149 376V343.667C814.149 340.905 811.91 338.667 809.149 338.667Z" fill="#0D0C0C"/>
<path d="M852 338.667H819.15C816.389 338.667 814.15 340.905 814.15 343.667V376C814.15 378.761 816.389 381 819.15 381H852C854.762 381 857 378.761 857 376V343.667C857 340.905 854.762 338.667 852 338.667Z" fill="#8990AC"/>
<path d="M766.297 338.667H733.447C730.686 338.667 728.447 340.905 728.447 343.667V376C728.447 378.761 730.686 381 733.447 381H766.297C769.059 381 771.297 378.761 771.297 376V343.667C771.297 340.905 769.059 338.667 766.297 338.667Z" fill="#AAACC8"/>
<path d="M80.6995 338.667H47.8496C45.0882 338.667 42.8496 340.905 42.8496 343.667V376C42.8496 378.761 45.0882 381 47.8496 381H80.6995C83.461 381 85.6995 378.761 85.6995 376V343.667C85.6995 340.905 83.461 338.667 80.6995 338.667Z" fill="#E6E8F5"/>
</svg>
