<svg width="800" height="598" viewBox="0 0 800 598" fill="none" xmlns="http://www.w3.org/2000/svg">
<path d="M166 9.94727H127V48.4771H166V9.94727Z" fill="#936940"/>
<path d="M88.0001 9.94727H49V48.4771H88.0001V9.94727Z" fill="#9F1F24"/>
<path d="M49.0001 9.94727H10V48.4771H49.0001V9.94727Z" fill="#2D4442"/>
<path d="M283 9.94727H244V48.4771H283V9.94727Z" fill="#85C2E5"/>
<path d="M322 9.94727H283V48.4771H322V9.94727Z" fill="#175769"/>
<path d="M361.002 9.94727H322.002V48.4771H361.002V9.94727Z" fill="#B193BF"/>
<path d="M244 9.94727H205V48.4771H244V9.94727Z" fill="#CE862D"/>
<path d="M205 9.94727H166V48.4771H205V9.94727Z" fill="#845324"/>
<path d="M127 9.94727H88V48.4771H127V9.94727Z" fill="#5F2615"/>
<path d="M400 9.94727H361V48.4771H400V9.94727Z" fill="#4F7835"/>
<path d="M751.002 9.94727H712.002V48.4771H751.002V9.94727Z" fill="#4980BA"/>
<path d="M712.004 9.94727H673.004V48.4771H712.004V9.94727Z" fill="#3A3934"/>
<path d="M556.004 9.94727H517.004V48.4771H556.004V9.94727Z" fill="#7E2D1F"/>
<path d="M478 9.94727H439V48.4771H478V9.94727Z" fill="#30552B"/>
<path d="M439.004 9.94727H400.004V48.4771H439.004V9.94727Z" fill="#6F1418"/>
<path d="M516.998 9.94727H477.998V48.4771H516.998V9.94727Z" fill="#64462D"/>
<path d="M595.004 9.94727H556.004V48.4771H595.004V9.94727Z" fill="#876D55"/>
<path d="M673.004 9.94727H634.004V48.4771H673.004V9.94727Z" fill="#C56925"/>
<path d="M634 9.94727H595V48.4771H634V9.94727Z" fill="#632716"/>
<path d="M790 9.94727H751V48.4771H790V9.94727Z" fill="#732221"/>
<path d="M49.0001 48.4771H10V87.0069H49.0001V48.4771Z" fill="#CC4628"/>
<path d="M751.002 48.4771H712.002V87.0069H751.002V48.4771Z" fill="#6AB0C8"/>
<path d="M790 48.4771H751V87.0069H790V48.4771Z" fill="#9E374F"/>
<path d="M712.004 48.4771H673.004V87.0069H712.004V48.4771Z" fill="#47632F"/>
<path d="M673.004 48.4771H634.004V87.0069H673.004V48.4771Z" fill="#A45894"/>
<path d="M634 48.4771H595V87.0069H634V48.4771Z" fill="#77231E"/>
<path d="M361.002 48.4771H322.002V87.0069H361.002V48.4771Z" fill="#997B26"/>
<path d="M439.004 48.4771H400.004V87.0069H439.004V48.4771Z" fill="#34418B"/>
<path d="M400 48.4771H361V87.0069H400V48.4771Z" fill="#1A4725"/>
<path d="M322 48.4771H283V87.0069H322V48.4771Z" fill="#C77B1B"/>
<path d="M478 48.4771H439V87.0069H478V48.4771Z" fill="#1D4C78"/>
<path d="M556.004 48.4771H517.004V87.0069H556.004V48.4771Z" fill="#997B26"/>
<path d="M516.998 48.4771H477.998V87.0069H516.998V48.4771Z" fill="#5E4E27"/>
<path d="M595.004 48.4771H556.004V87.0069H595.004V48.4771Z" fill="#814622"/>
<path d="M283 48.4771H244V87.0069H283V48.4771Z" fill="#63235C"/>
<path d="M244 48.4771H205V87.0069H244V48.4771Z" fill="#0C5B7B"/>
<path d="M88.0001 48.4771H49V87.0069H88.0001V48.4771Z" fill="#6B783E"/>
<path d="M127 48.4771H88V87.0069H127V48.4771Z" fill="#1E2711"/>
<path d="M205 48.4771H166V87.0069H205V48.4771Z" fill="#9B5A95"/>
<path d="M166 48.4771H127V87.0069H166V48.4771Z" fill="#809D93"/>
<path d="M322 549.365H283V587.895H322V549.365Z" fill="#D46E19"/>
<path d="M751.002 549.365H712.002V587.895H751.002V549.365Z" fill="#A83225"/>
<path d="M712.004 549.365H673.004V587.895H712.004V549.365Z" fill="#841B20"/>
<path d="M790 549.365H751V587.895H790V549.365Z" fill="#528453"/>
<path d="M673.004 549.365H634.004V587.895H673.004V549.365Z" fill="#E78039"/>
<path d="M283 549.365H244V587.895H283V549.365Z" fill="#973723"/>
<path d="M205 549.365H166V587.895H205V549.365Z" fill="#5A461F"/>
<path d="M166 549.365H127V587.895H166V549.365Z" fill="#D87E0D"/>
<path d="M244 549.365H205V587.895H244V549.365Z" fill="#250D08"/>
<path d="M127 549.365H88V587.895H127V549.365Z" fill="#8C6626"/>
<path d="M88.0001 549.365H49V587.895H88.0001V549.365Z" fill="#440907"/>
<path d="M49.0001 549.365H10V587.895H49.0001V549.365Z" fill="#6E1719"/>
<path d="M439.004 549.365H400.004V587.895H439.004V549.365Z" fill="#4B6C32"/>
<path d="M478 549.365H439V587.895H478V549.365Z" fill="#E47111"/>
<path d="M556.004 549.365H517.004V587.895H556.004V549.365Z" fill="#C3391E"/>
<path d="M516.998 549.365H477.998V587.895H516.998V549.365Z" fill="#A1BC2F"/>
<path d="M595.004 549.365H556.004V587.895H595.004V549.365Z" fill="#933A23"/>
<path d="M634 549.365H595V587.895H634V549.365Z" fill="#EC9936"/>
<path d="M361.002 549.365H322.002V587.895H361.002V549.365Z" fill="#4E180E"/>
<path d="M400 549.365H361V587.895H400V549.365Z" fill="#B73822"/>
<path d="M166 164.067H127V202.597H166V164.067Z" fill="#48200E"/>
<path d="M634 164.067H595V202.597H634V164.067Z" fill="#932230"/>
<path d="M127 164.067H88V202.597H127V164.067Z" fill="#C98D31"/>
<path d="M673.004 164.067H634.004V202.597H673.004V164.067Z" fill="#4D413D"/>
<path d="M283 164.067H244V202.597H283V164.067Z" fill="#8C7959"/>
<path d="M322 164.067H283V202.597H322V164.067Z" fill="#4A3517"/>
<path d="M205 164.067H166V202.597H205V164.067Z" fill="#1F1B12"/>
<path d="M244 164.067H205V202.597H244V164.067Z" fill="#BBA3AB"/>
<path d="M361.002 164.067H322.002V202.597H361.002V164.067Z" fill="#A62924"/>
<path d="M516.998 164.067H477.998V202.597H516.998V164.067Z" fill="#493E2A"/>
<path d="M400 164.067H361V202.597H400V164.067Z" fill="#704F56"/>
<path d="M478 164.067H439V202.597H478V164.067Z" fill="#A81F24"/>
<path d="M556.004 164.067H517.004V202.597H556.004V164.067Z" fill="#374E2D"/>
<path d="M439.004 164.067H400.004V202.597H439.004V164.067Z" fill="#CE9377"/>
<path d="M595.004 164.067H556.004V202.597H595.004V164.067Z" fill="#6EA8D5"/>
<path d="M49.0001 164.067H10V202.597H49.0001V164.067Z" fill="#693C1C"/>
<path d="M751.002 164.067H712.002V202.597H751.002V164.067Z" fill="#777167"/>
<path d="M790 164.067H751V202.597H790V164.067Z" fill="#BBA438"/>
<path d="M712.004 164.067H673.004V202.597H712.004V164.067Z" fill="#DABFA4"/>
<path d="M88.0001 164.067H49V202.597H88.0001V164.067Z" fill="#6A2618"/>
<path d="M127 87.0068H88V125.537H127V87.0068Z" fill="#853821"/>
<path d="M244 87.0068H205V125.537H244V87.0068Z" fill="#2D64A7"/>
<path d="M166 87.0068H127V125.537H166V87.0068Z" fill="#044992"/>
<path d="M283 87.0068H244V125.537H283V87.0068Z" fill="#9E374F"/>
<path d="M205 87.0068H166V125.537H205V87.0068Z" fill="#3E2F29"/>
<path d="M400 87.0068H361V125.537H400V87.0068Z" fill="#E5AF1F"/>
<path d="M322 87.0068H283V125.537H322V87.0068Z" fill="#D6894D"/>
<path d="M439.004 87.0068H400.004V125.537H439.004V87.0068Z" fill="#BB2845"/>
<path d="M478 87.0068H439V125.537H478V87.0068Z" fill="#D4574A"/>
<path d="M361.002 87.0068H322.002V125.537H361.002V87.0068Z" fill="#3E1B0A"/>
<path d="M516.998 87.0068H477.998V125.537H516.998V87.0068Z" fill="#3E3D3E"/>
<path d="M634 87.0068H595V125.537H634V87.0068Z" fill="#583B1A"/>
<path d="M595.004 87.0068H556.004V125.537H595.004V87.0068Z" fill="#3B5971"/>
<path d="M556.004 87.0068H517.004V125.537H556.004V87.0068Z" fill="#A16E35"/>
<path d="M673.004 87.0068H634.004V125.537H673.004V87.0068Z" fill="#A37B27"/>
<path d="M49.0001 87.0068H10V125.537H49.0001V87.0068Z" fill="#67474E"/>
<path d="M751.002 87.0068H712.002V125.537H751.002V87.0068Z" fill="#605D29"/>
<path d="M790 87.0068H751V125.537H790V87.0068Z" fill="#293137"/>
<path d="M712.004 87.0068H673.004V125.537H712.004V87.0068Z" fill="#CCAC3E"/>
<path d="M88.0001 87.0068H49V125.537H88.0001V87.0068Z" fill="#3F0F07"/>
<path d="M244 125.537H205V164.066H244V125.537Z" fill="#2B3520"/>
<path d="M166 125.537H127V164.066H166V125.537Z" fill="#43240F"/>
<path d="M205 125.537H166V164.066H205V125.537Z" fill="#C97D18"/>
<path d="M634 125.537H595V164.066H634V125.537Z" fill="#D27D18"/>
<path d="M361.002 125.537H322.002V164.066H361.002V125.537Z" fill="#BE983B"/>
<path d="M400 125.537H361V164.066H400V125.537Z" fill="#901D22"/>
<path d="M595.004 125.537H556.004V164.066H595.004V125.537Z" fill="#DD5A2B"/>
<path d="M283 125.537H244V164.066H283V125.537Z" fill="#374554"/>
<path d="M322 125.537H283V164.066H322V125.537Z" fill="#946428"/>
<path d="M439.004 125.537H400.004V164.066H439.004V125.537Z" fill="#995424"/>
<path d="M556.004 125.537H517.004V164.066H556.004V125.537Z" fill="#AFB2B0"/>
<path d="M516.998 125.537H477.998V164.066H516.998V125.537Z" fill="#682718"/>
<path d="M478 125.537H439V164.066H478V125.537Z" fill="#3F4E28"/>
<path d="M127 125.537H88V164.066H127V125.537Z" fill="#948689"/>
<path d="M673.004 125.537H634.004V164.066H673.004V125.537Z" fill="#2E7237"/>
<path d="M49.0001 125.537H10V164.066H49.0001V125.537Z" fill="#2B260F"/>
<path d="M751.002 125.537H712.002V164.066H751.002V125.537Z" fill="#133F63"/>
<path d="M790 125.537H751V164.066H790V125.537Z" fill="#B45A50"/>
<path d="M712.004 125.537H673.004V164.066H712.004V125.537Z" fill="#365E2F"/>
<path d="M88.0001 125.537H49V164.066H88.0001V125.537Z" fill="#40230E"/>
<path d="M166 202.596H127V241.126H166V202.596Z" fill="#BC3C20"/>
<path d="M634 202.596H595V241.126H634V202.596Z" fill="#D14C30"/>
<path d="M127 202.596H88V241.126H127V202.596Z" fill="#EFC138"/>
<path d="M673.004 202.596H634.004V241.126H673.004V202.596Z" fill="#1E1F15"/>
<path d="M556.004 202.596H517.004V241.126H556.004V202.596Z" fill="#362D15"/>
<path d="M439.004 202.596H400.004V241.126H439.004V202.596Z" fill="#A44D23"/>
<path d="M478 202.596H439V241.126H478V202.596Z" fill="#5F622B"/>
<path d="M244 202.596H205V241.126H244V202.596Z" fill="#6D2019"/>
<path d="M361.002 202.596H322.002V241.126H361.002V202.596Z" fill="#80844D"/>
<path d="M400 202.596H361V241.126H400V202.596Z" fill="#252E15"/>
<path d="M283 202.596H244V241.126H283V202.596Z" fill="#324D8B"/>
<path d="M322 202.596H283V241.126H322V202.596Z" fill="#833A21"/>
<path d="M516.998 202.596H477.998V241.126H516.998V202.596Z" fill="#F9E2AC"/>
<path d="M205 202.596H166V241.126H205V202.596Z" fill="#D35B15"/>
<path d="M595.004 202.596H556.004V241.126H595.004V202.596Z" fill="#4A4F62"/>
<path d="M49.0001 202.596H10V241.126H49.0001V202.596Z" fill="#5E3855"/>
<path d="M751.002 202.596H712.002V241.126H751.002V202.596Z" fill="#A7777D"/>
<path d="M790 202.596H751V241.126H790V202.596Z" fill="#6F1419"/>
<path d="M712.004 202.596H673.004V241.126H712.004V202.596Z" fill="#471710"/>
<path d="M88.0001 202.596H49V241.126H88.0001V202.596Z" fill="#8F1D22"/>
<path d="M166 279.656H127V318.186H166V279.656Z" fill="#BD681D"/>
<path d="M634 279.656H595V318.186H634V279.656Z" fill="#C9801E"/>
<path d="M127 279.656H88V318.186H127V279.656Z" fill="#6A1217"/>
<path d="M673.004 279.656H634.004V318.186H673.004V279.656Z" fill="#302211"/>
<path d="M556.004 279.656H517.004V318.186H556.004V279.656Z" fill="#842920"/>
<path d="M244 279.656H205V318.186H244V279.656Z" fill="#B74433"/>
<path d="M478 279.656H439V318.186H478V279.656Z" fill="#4D170D"/>
<path d="M516.998 279.656H477.998V318.186H516.998V279.656Z" fill="#68652A"/>
<path d="M322 279.656H283V318.186H322V279.656Z" fill="#7E573F"/>
<path d="M361.002 279.656H322.002V318.186H361.002V279.656Z" fill="#985A24"/>
<path d="M400 279.656H361V318.186H400V279.656Z" fill="#43110A"/>
<path d="M439.004 279.656H400.004V318.186H439.004V279.656Z" fill="#A71F24"/>
<path d="M283 279.656H244V318.186H283V279.656Z" fill="#EBAD7C"/>
<path d="M205 279.656H166V318.186H205V279.656Z" fill="#884D23"/>
<path d="M595.004 279.656H556.004V318.186H595.004V279.656Z" fill="#424A23"/>
<path d="M49.0001 279.656H10V318.186H49.0001V279.656Z" fill="#D19549"/>
<path d="M751.002 279.656H712.002V318.186H751.002V279.656Z" fill="#A99D66"/>
<path d="M790 279.656H751V318.186H790V279.656Z" fill="#C55D20"/>
<path d="M712.004 279.656H673.004V318.186H712.004V279.656Z" fill="#C59E0F"/>
<path d="M88.0001 279.656H49V318.186H88.0001V279.656Z" fill="#B94B20"/>
<path d="M166 241.126H127V279.656H166V241.126Z" fill="#67652B"/>
<path d="M634 241.126H595V279.656H634V241.126Z" fill="#DDB02D"/>
<path d="M673.004 241.126H634.004V279.656H673.004V241.126Z" fill="#5A3520"/>
<path d="M127 241.126H88V279.656H127V241.126Z" fill="#7C4B22"/>
<path d="M244 241.126H205V279.656H244V241.126Z" fill="#963B28"/>
<path d="M556.004 241.126H517.004V279.656H556.004V241.126Z" fill="#1E200D"/>
<path d="M439.004 241.126H400.004V279.656H439.004V241.126Z" fill="#43110A"/>
<path d="M516.998 241.126H477.998V279.656H516.998V241.126Z" fill="#DABFAA"/>
<path d="M478 241.126H439V279.656H478V241.126Z" fill="#6C777C"/>
<path d="M400 241.126H361V279.656H400V241.126Z" fill="#895023"/>
<path d="M361.002 241.126H322.002V279.656H361.002V241.126Z" fill="#954323"/>
<path d="M283 241.126H244V279.656H283V241.126Z" fill="#D6A6AA"/>
<path d="M322 241.126H283V279.656H322V241.126Z" fill="#521C10"/>
<path d="M205 241.126H166V279.656H205V241.126Z" fill="#875A25"/>
<path d="M595.004 241.126H556.004V279.656H595.004V241.126Z" fill="#804121"/>
<path d="M49.0001 241.126H10V279.656H49.0001V241.126Z" fill="#9B6E25"/>
<path d="M751.002 241.126H712.002V279.656H751.002V241.126Z" fill="#B46220"/>
<path d="M790 241.126H751V279.656H790V241.126Z" fill="#723F1E"/>
<path d="M712.004 241.126H673.004V279.656H712.004V241.126Z" fill="#AC6921"/>
<path d="M88.0001 241.126H49V279.656H88.0001V241.126Z" fill="#A18C55"/>
<path d="M790 472.305H751V510.835H790V472.305Z" fill="#BA9A14"/>
<path d="M127 472.305H88V510.835H127V472.305Z" fill="#6C2819"/>
<path d="M49.0001 472.305H10V510.835H49.0001V472.305Z" fill="#2A2928"/>
<path d="M322 472.305H283V510.835H322V472.305Z" fill="#B03423"/>
<path d="M400 472.305H361V510.835H400V472.305Z" fill="#86572F"/>
<path d="M361.002 472.305H322.002V510.835H361.002V472.305Z" fill="#DB8A10"/>
<path d="M439.004 472.305H400.004V510.835H439.004V472.305Z" fill="#685424"/>
<path d="M166 472.305H127V510.835H166V472.305Z" fill="#29120A"/>
<path d="M205 472.305H166V510.835H205V472.305Z" fill="#7C181D"/>
<path d="M283 472.305H244V510.835H283V472.305Z" fill="#434B24"/>
<path d="M478 472.305H439V510.835H478V472.305Z" fill="#65381B"/>
<path d="M244 472.305H205V510.835H244V472.305Z" fill="#874422"/>
<path d="M712.004 472.305H673.004V510.835H712.004V472.305Z" fill="#F4C63A"/>
<path d="M516.998 472.305H477.998V510.835H516.998V472.305Z" fill="#E0AF15"/>
<path d="M673.004 472.305H634.004V510.835H673.004V472.305Z" fill="#C6CF91"/>
<path d="M556.004 472.305H517.004V510.835H556.004V472.305Z" fill="#A83824"/>
<path d="M595.004 472.305H556.004V510.835H595.004V472.305Z" fill="#C0AC17"/>
<path d="M634 472.305H595V510.835H634V472.305Z" fill="#5C2213"/>
<path d="M751.002 472.305H712.002V510.835H751.002V472.305Z" fill="#ECA914"/>
<path d="M88.0001 472.305H49V510.835H88.0001V472.305Z" fill="#144349"/>
<path d="M166 395.246H127V433.775H166V395.246Z" fill="#387437"/>
<path d="M595.004 395.246H556.004V433.775H595.004V395.246Z" fill="#DE9832"/>
<path d="M634 395.246H595V433.775H634V395.246Z" fill="#0B1F15"/>
<path d="M127 395.246H88V433.775H127V395.246Z" fill="#681216"/>
<path d="M673.004 395.246H634.004V433.775H673.004V395.246Z" fill="#C86E16"/>
<path d="M556.004 395.246H517.004V433.775H556.004V395.246Z" fill="#320E08"/>
<path d="M516.998 395.246H477.998V433.775H516.998V395.246Z" fill="#D9DBB3"/>
<path d="M400 395.246H361V433.775H400V395.246Z" fill="#873021"/>
<path d="M439.004 395.246H400.004V433.775H439.004V395.246Z" fill="#F6DF5A"/>
<path d="M205 395.246H166V433.775H205V395.246Z" fill="#D3AF24"/>
<path d="M478 395.246H439V433.775H478V395.246Z" fill="#5B1D13"/>
<path d="M361.002 395.246H322.002V433.775H361.002V395.246Z" fill="#AF7F2E"/>
<path d="M244 395.246H205V433.775H244V395.246Z" fill="#D2D242"/>
<path d="M322 395.246H283V433.775H322V395.246Z" fill="#A75923"/>
<path d="M283 395.246H244V433.775H283V395.246Z" fill="#552667"/>
<path d="M49.0001 395.246H10V433.775H49.0001V395.246Z" fill="#9E4285"/>
<path d="M790 395.246H751V433.775H790V395.246Z" fill="#CA1E1D"/>
<path d="M712.004 395.246H673.004V433.775H712.004V395.246Z" fill="#DA8E37"/>
<path d="M751.002 395.246H712.002V433.775H751.002V395.246Z" fill="#F5D01F"/>
<path d="M88.0001 395.246H49V433.775H88.0001V395.246Z" fill="#BCC2D3"/>
<path d="M127 433.775H88V472.305H127V433.775Z" fill="#F6B952"/>
<path d="M361.002 433.775H322.002V472.305H361.002V433.775Z" fill="#37160A"/>
<path d="M322 433.775H283V472.305H322V433.775Z" fill="#B59518"/>
<path d="M400 433.775H361V472.305H400V433.775Z" fill="#8F3E23"/>
<path d="M283 433.775H244V472.305H283V433.775Z" fill="#955D24"/>
<path d="M166 433.775H127V472.305H166V433.775Z" fill="#9C6A24"/>
<path d="M205 433.775H166V472.305H205V433.775Z" fill="#948D27"/>
<path d="M244 433.775H205V472.305H244V433.775Z" fill="#CE5018"/>
<path d="M439.004 433.775H400.004V472.305H439.004V433.775Z" fill="#896C28"/>
<path d="M478 433.775H439V472.305H478V433.775Z" fill="#422911"/>
<path d="M673.004 433.775H634.004V472.305H673.004V433.775Z" fill="#9F6924"/>
<path d="M634 433.775H595V472.305H634V433.775Z" fill="#E6A133"/>
<path d="M556.004 433.775H517.004V472.305H556.004V433.775Z" fill="#C7A798"/>
<path d="M516.998 433.775H477.998V472.305H516.998V433.775Z" fill="#5C5A30"/>
<path d="M595.004 433.775H556.004V472.305H595.004V433.775Z" fill="#E4740F"/>
<path d="M49.0001 433.775H10V472.305H49.0001V433.775Z" fill="#962723"/>
<path d="M790 433.775H751V472.305H790V433.775Z" fill="#AA782F"/>
<path d="M712.004 433.775H673.004V472.305H712.004V433.775Z" fill="#BA631E"/>
<path d="M751.002 433.775H712.002V472.305H751.002V433.775Z" fill="#747831"/>
<path d="M88.0001 433.775H49V472.305H88.0001V433.775Z" fill="#4A3F1C"/>
<path d="M166 356.716H127V395.246H166V356.716Z" fill="#DECAE1"/>
<path d="M634 356.716H595V395.246H634V356.716Z" fill="#AB8BB9"/>
<path d="M127 356.716H88V395.246H127V356.716Z" fill="#635C9D"/>
<path d="M673.004 356.716H634.004V395.246H673.004V356.716Z" fill="#152047"/>
<path d="M244 356.716H205V395.246H244V356.716Z" fill="#0B1F15"/>
<path d="M205 356.716H166V395.246H205V356.716Z" fill="#B99022"/>
<path d="M439.004 356.716H400.004V395.246H439.004V356.716Z" fill="#B0943A"/>
<path d="M478 356.716H439V395.246H478V356.716Z" fill="#68236A"/>
<path d="M595.004 356.716H556.004V395.246H595.004V356.716Z" fill="#E0CD24"/>
<path d="M556.004 356.716H517.004V395.246H556.004V356.716Z" fill="#0F3A58"/>
<path d="M400 356.716H361V395.246H400V356.716Z" fill="#40110C"/>
<path d="M322 356.716H283V395.246H322V356.716Z" fill="#17337F"/>
<path d="M361.002 356.716H322.002V395.246H361.002V356.716Z" fill="#B397B0"/>
<path d="M283 356.716H244V395.246H283V356.716Z" fill="#6C6329"/>
<path d="M516.998 356.716H477.998V395.246H516.998V356.716Z" fill="#C57BA2"/>
<path d="M49.0001 356.716H10V395.246H49.0001V356.716Z" fill="#614F23"/>
<path d="M790 356.716H751V395.246H790V356.716Z" fill="#773B5C"/>
<path d="M751.002 356.716H712.002V395.246H751.002V356.716Z" fill="#410A27"/>
<path d="M712.004 356.716H673.004V395.246H712.004V356.716Z" fill="#999C7B"/>
<path d="M88.0001 356.716H49V395.246H88.0001V356.716Z" fill="#C7A6C9"/>
<path d="M790 510.835H751V549.365H790V510.835Z" fill="#861B20"/>
<path d="M49.0001 510.835H10V549.365H49.0001V510.835Z" fill="#A43524"/>
<path d="M361.002 510.835H322.002V549.365H361.002V510.835Z" fill="#F2BFB8"/>
<path d="M400 510.835H361V549.365H400V510.835Z" fill="#909527"/>
<path d="M478 510.835H439V549.365H478V510.835Z" fill="#B17522"/>
<path d="M322 510.835H283V549.365H322V510.835Z" fill="#494D24"/>
<path d="M166 510.835H127V549.365H166V510.835Z" fill="#DC5D47"/>
<path d="M516.998 510.835H477.998V549.365H516.998V510.835Z" fill="#8C6626"/>
<path d="M205 510.835H166V549.365H205V510.835Z" fill="#112E24"/>
<path d="M283 510.835H244V549.365H283V510.835Z" fill="#5F2E16"/>
<path d="M244 510.835H205V549.365H244V510.835Z" fill="#D18C0D"/>
<path d="M712.004 510.835H673.004V549.365H712.004V510.835Z" fill="#BD6B1C"/>
<path d="M751.002 510.835H712.002V549.365H751.002V510.835Z" fill="#5D2314"/>
<path d="M556.004 510.835H517.004V549.365H556.004V510.835Z" fill="#C99129"/>
<path d="M673.004 510.835H634.004V549.365H673.004V510.835Z" fill="#480809"/>
<path d="M595.004 510.835H556.004V549.365H595.004V510.835Z" fill="#565627"/>
<path d="M634 510.835H595V549.365H634V510.835Z" fill="#EEA167"/>
<path d="M439.004 510.835H400.004V549.365H439.004V510.835Z" fill="#D03025"/>
<path d="M88.0001 510.835H49V549.365H88.0001V510.835Z" fill="#D32A19"/>
<path d="M127 510.835H88V549.365H127V510.835Z" fill="#B41D23"/>
<path d="M634 318.186H595V356.715H634V318.186Z" fill="#324120"/>
<path d="M127 318.186H88V356.715H127V318.186Z" fill="#644A21"/>
<path d="M673.004 318.186H634.004V356.715H673.004V318.186Z" fill="#986B25"/>
<path d="M166 318.186H127V356.715H166V318.186Z" fill="#835B3D"/>
<path d="M439.004 318.186H400.004V356.715H439.004V318.186Z" fill="#A08CBB"/>
<path d="M478 318.186H439V356.715H478V318.186Z" fill="#551C15"/>
<path d="M516.998 318.186H477.998V356.715H516.998V318.186Z" fill="#B79F45"/>
<path d="M556.004 318.186H517.004V356.715H556.004V318.186Z" fill="#79558C"/>
<path d="M244 318.186H205V356.715H244V318.186Z" fill="#534A21"/>
<path d="M322 318.186H283V356.715H322V318.186Z" fill="#454C38"/>
<path d="M283 318.186H244V356.715H283V318.186Z" fill="#D67C46"/>
<path d="M400 318.186H361V356.715H400V318.186Z" fill="#C08914"/>
<path d="M361.002 318.186H322.002V356.715H361.002V318.186Z" fill="#B9A87C"/>
<path d="M205 318.186H166V356.715H205V318.186Z" fill="#BB895B"/>
<path d="M595.004 318.186H556.004V356.715H595.004V318.186Z" fill="#DBCA20"/>
<path d="M49.0001 318.186H10V356.715H49.0001V318.186Z" fill="#DD6C16"/>
<path d="M751.002 318.186H712.002V356.715H751.002V318.186Z" fill="#8A8D74"/>
<path d="M790 318.186H751V356.715H790V318.186Z" fill="#AB6B99"/>
<path d="M712.004 318.186H673.004V356.715H712.004V318.186Z" fill="#A689B1"/>
<path d="M88.0001 318.186H49V356.715H88.0001V318.186Z" fill="#BBA570"/>
<rect x="10" y="10" width="780" height="578" stroke="#5EE3D4" stroke-width="20"/>
</svg>
