<svg width="439" height="926" fill="none" xmlns="http://www.w3.org/2000/svg">
    <g filter="url(#a)">
        <rect x="15" y="20" width="409" height="896" rx="190" fill="#fff"/>
    </g>
    <path d="M150.308 670.9h13.75v4.25h-13.75v-4.25Zm0 10.1h13.75v4.25h-13.75V681Zm-13.45 12.75h30.8v16.4h-5.25v-12.2h-25.55v-4.2Zm25.55-29.3h5.25v27h-5.25v-27Zm-20.1 2.45c6.75 0 11.9 4.65 11.9 11.15 0 6.55-5.15 11.15-11.9 11.15-6.8 0-11.9-4.6-11.9-11.15 0-6.5 5.1-11.15 11.9-11.15Zm0 4.5c-3.95 0-6.9 2.65-6.9 6.65 0 4.05 2.95 6.7 6.9 6.7s6.9-2.65 6.9-6.7c0-4-2.95-6.65-6.9-6.65Zm44.246-4.6h4.35v4.2c0 8.95-4.55 16.45-12.75 19.45l-2.75-4.15c7.25-2.55 11.15-8.7 11.15-15.3v-4.2Zm1.05 0h4.2v4.1c0 6 3.9 11.8 10.75 14.15l-2.7 4.1c-7.8-2.85-12.25-9.95-12.25-18.25v-4.1Zm18.6-2.35h5.25v26.6h-5.25v-26.6Zm3.8 10.9h7.9v4.35h-7.9v-4.35Zm-27.7 17.65h29.15v16.6h-29.15V693Zm24 4.15h-18.85v8.25h18.85v-8.25Zm45.896-32.7h5.25v26.65h-5.25v-26.65Zm3.8 11.15h7.9v4.35H256v-4.35Zm-16.65-8.4h5.5c0 11.85-7.8 20.1-21.25 23.65l-2.15-4.05c11.6-3.05 17.9-9.35 17.9-17.1v-2.5Zm-15.75 0h18.8v4.2h-18.8v-4.2Zm3.8 25.95h30.05v17h-5.25v-12.8h-24.8v-4.2ZM293.496 675h8.9v4.25h-8.9V675Zm-.05 9h8.85v4.2h-8.85V684Zm-25.6-14.95h25.4v4.2h-25.4v-4.2Zm12.9 6.2c6.2 0 10.5 3.4 10.5 8.5s-4.3 8.5-10.5 8.5c-6.15 0-10.5-3.4-10.5-8.5s4.35-8.5 10.5-8.5Zm0 3.95c-3.35 0-5.6 1.7-5.6 4.55 0 2.85 2.25 4.55 5.6 4.55 3.35 0 5.65-1.7 5.65-4.55 0-2.85-2.3-4.55-5.65-4.55Zm-2.55-15.15h5.2v7.9h-5.2v-7.9Zm22.2.4h5.25v29.35h-5.25v-29.35Zm-9.95 29.85c9.55 0 15.4 2.95 15.4 7.9 0 5-5.85 7.9-15.4 7.9s-15.4-2.9-15.4-7.9c0-4.95 5.85-7.9 15.4-7.9Zm0 4.05c-6.25 0-9.9 1.3-9.9 3.85s3.65 3.9 9.9 3.9 9.9-1.35 9.9-3.9-3.65-3.85-9.9-3.85Z" fill="#000"/>
    <path d="M375.106 183.75 219 479.572 62.894 183.75h312.212Z" fill="#fff" stroke="#000" stroke-width="6"/>
    <defs>
        <filter id="a" x="0" y="0" width="439" height="926" filterUnits="userSpaceOnUse" color-interpolation-filters="sRGB">
            <feFlood flood-opacity="0" result="BackgroundImageFix"/>
            <feColorMatrix in="SourceAlpha" values="0 0 0 0 0 0 0 0 0 0 0 0 0 0 0 0 0 0 127 0" result="hardAlpha"/>
            <feOffset dy="-5"/>
            <feGaussianBlur stdDeviation="7.5"/>
            <feComposite in2="hardAlpha" operator="out"/>
            <feColorMatrix values="0 0 0 0 0 0 0 0 0 0 0 0 0 0 0 0 0 0 0.25 0"/>
            <feBlend in2="BackgroundImageFix" result="effect1_dropShadow_394_2834"/>
            <feBlend in="SourceGraphic" in2="effect1_dropShadow_394_2834" result="shape"/>
        </filter>
    </defs>
</svg>
