<svg width="857" height="635" viewBox="0 0 857 635" fill="none" xmlns="http://www.w3.org/2000/svg">
<path d="M790.948 354.372H790.774C790.727 354.372 790.689 354.41 790.689 354.457C790.689 354.504 790.727 354.541 790.774 354.541H790.948C790.994 354.541 791.032 354.504 791.032 354.457C791.032 354.41 790.994 354.372 790.948 354.372Z" fill="#E8D3E5"/>
<path d="M166.401 0H133.551C130.789 0 128.551 2.23857 128.551 4.99999V37.3333C128.551 40.0947 130.789 42.3333 133.551 42.3333H166.401C169.162 42.3333 171.401 40.0948 171.401 37.3333V5C171.401 2.23858 169.162 0 166.401 0Z" fill="#B1CADE"/>
<path d="M80.7015 0H47.8516C45.0901 0 42.8516 2.23857 42.8516 4.99999V37.3333C42.8516 40.0947 45.0901 42.3333 47.8516 42.3333H80.7016C83.463 42.3333 85.7016 40.0948 85.7016 37.3333V5C85.7016 2.23858 83.463 0 80.7015 0Z" fill="#498EBA"/>
<path d="M37.85 0H5C2.23858 0 0 2.23857 0 4.99999V37.3333C0 40.0947 2.23858 42.3333 5 42.3333H37.85C40.6114 42.3333 42.85 40.0948 42.85 37.3333V5C42.85 2.23858 40.6114 0 37.85 0Z" fill="#CED6DF"/>
<path d="M294.95 0H262.1C259.338 0 257.1 2.23857 257.1 4.99999V37.3333C257.1 40.0947 259.338 42.3333 262.1 42.3333H294.95C297.711 42.3333 299.95 40.0948 299.95 37.3333V5C299.95 2.23858 297.711 0 294.95 0Z" fill="#148095"/>
<path d="M337.799 0H304.949C302.188 0 299.949 2.23857 299.949 4.99999V37.3333C299.949 40.0947 302.188 42.3333 304.949 42.3333H337.799C340.561 42.3333 342.799 40.0948 342.799 37.3333V5C342.799 2.23858 340.561 0 337.799 0Z" fill="#9EC8D9"/>
<path d="M380.649 0H347.799C345.037 0 342.799 2.23857 342.799 4.99999V37.3333C342.799 40.0947 345.037 42.3333 347.799 42.3333H380.649C383.41 42.3333 385.649 40.0948 385.649 37.3333V5C385.649 2.23858 383.41 0 380.649 0Z" fill="#5D9FCA"/>
<path d="M252.1 0H219.25C216.489 0 214.25 2.23857 214.25 4.99999V37.3333C214.25 40.0947 216.489 42.3333 219.25 42.3333H252.1C254.861 42.3333 257.1 40.0948 257.1 37.3333V5C257.1 2.23858 254.861 0 252.1 0Z" fill="#9BB894"/>
<path d="M209.25 0H176.4C173.639 0 171.4 2.23857 171.4 4.99999V37.3333C171.4 40.0947 173.639 42.3333 176.4 42.3333H209.25C212.012 42.3333 214.25 40.0948 214.25 37.3333V5C214.25 2.23858 212.012 0 209.25 0Z" fill="#5BA2A9"/>
<path d="M123.549 0H90.6992C87.9378 0 85.6992 2.23857 85.6992 4.99999V37.3333C85.6992 40.0947 87.9378 42.3333 90.6992 42.3333H123.549C126.311 42.3333 128.549 40.0948 128.549 37.3333V5C128.549 2.23858 126.311 0 123.549 0Z" fill="#2B5C97"/>
<path d="M423.496 0H390.646C387.885 0 385.646 2.23857 385.646 4.99999V37.3333C385.646 40.0947 387.885 42.3333 390.646 42.3333H423.496C426.258 42.3333 428.496 40.0948 428.496 37.3333V5C428.496 2.23858 426.258 0 423.496 0Z" fill="#63A5CF"/>
<path d="M809.149 0H776.299C773.537 0 771.299 2.23857 771.299 4.99999V37.3333C771.299 40.0947 773.537 42.3333 776.299 42.3333H809.149C811.91 42.3333 814.149 40.0948 814.149 37.3333V5C814.149 2.23858 811.91 0 809.149 0Z" fill="#9DBEAA"/>
<path d="M766.299 0H733.449C730.688 0 728.449 2.23857 728.449 4.99999V37.3333C728.449 40.0947 730.688 42.3333 733.449 42.3333H766.299C769.061 42.3333 771.299 40.0948 771.299 37.3333V5C771.299 2.23858 769.061 0 766.299 0Z" fill="#82B9DA"/>
<path d="M594.901 0H562.051C559.289 0 557.051 2.23857 557.051 4.99999V37.3333C557.051 40.0947 559.289 42.3333 562.051 42.3333H594.901C597.662 42.3333 599.901 40.0948 599.901 37.3333V5C599.901 2.23858 597.662 0 594.901 0Z" fill="#93AED6"/>
<path d="M509.198 0H476.348C473.586 0 471.348 2.23857 471.348 4.99999V37.3333C471.348 40.0947 473.586 42.3333 476.348 42.3333H509.198C511.959 42.3333 514.198 40.0948 514.198 37.3333V5C514.198 2.23858 511.959 0 509.198 0Z" fill="#8CB0D4"/>
<path d="M466.352 0H433.502C430.741 0 428.502 2.23857 428.502 4.99999V37.3333C428.502 40.0947 430.741 42.3333 433.502 42.3333H466.352C469.113 42.3333 471.352 40.0948 471.352 37.3333V5C471.352 2.23858 469.113 0 466.352 0Z" fill="#DAE2ED"/>
<path d="M552.049 0H519.199C516.438 0 514.199 2.23857 514.199 4.99999V37.3333C514.199 40.0947 516.438 42.3333 519.199 42.3333H552.049C554.811 42.3333 557.049 40.0948 557.049 37.3333V5C557.049 2.23858 554.811 0 552.049 0Z" fill="#6F3480"/>
<path d="M637.752 0H604.902C602.141 0 599.902 2.23857 599.902 4.99999V37.3333C599.902 40.0947 602.141 42.3333 604.902 42.3333H637.752C640.514 42.3333 642.752 40.0948 642.752 37.3333V5C642.752 2.23858 640.514 0 637.752 0Z" fill="#394E95"/>
<path d="M723.45 0H690.6C687.838 0 685.6 2.23857 685.6 4.99999V37.3333C685.6 40.0947 687.838 42.3333 690.6 42.3333H723.45C726.211 42.3333 728.45 40.0948 728.45 37.3333V5C728.45 2.23858 726.211 0 723.45 0Z" fill="#509936"/>
<path d="M680.6 0H647.75C644.989 0 642.75 2.23857 642.75 4.99999V37.3333C642.75 40.0947 644.989 42.3333 647.75 42.3333H680.6C683.361 42.3333 685.6 40.0948 685.6 37.3333V5C685.6 2.23858 683.361 0 680.6 0Z" fill="#728BBF"/>
<path d="M852 0H819.15C816.389 0 814.15 2.23857 814.15 4.99999V37.3333C814.15 40.0947 816.389 42.3333 819.15 42.3333H852C854.762 42.3333 857 40.0948 857 37.3333V5C857 2.23858 854.762 0 852 0Z" fill="#C7C9C4"/>
<path d="M37.85 42.333H5C2.23858 42.333 0 44.5716 0 47.333V79.6663C0 82.4278 2.23858 84.6663 5 84.6663H37.85C40.6114 84.6663 42.85 82.4278 42.85 79.6663V47.333C42.85 44.5716 40.6114 42.333 37.85 42.333Z" fill="#15889B"/>
<path d="M809.149 42.333H776.299C773.537 42.333 771.299 44.5716 771.299 47.333V79.6663C771.299 82.4278 773.537 84.6663 776.299 84.6663H809.149C811.91 84.6663 814.149 82.4278 814.149 79.6663V47.333C814.149 44.5716 811.91 42.333 809.149 42.333Z" fill="#647259"/>
<path d="M852 42.333H819.15C816.389 42.333 814.15 44.5716 814.15 47.333V79.6663C814.15 82.4278 816.389 84.6663 819.15 84.6663H852C854.762 84.6663 857 82.4278 857 79.6663V47.333C857 44.5716 854.762 42.333 852 42.333Z" fill="#389DC8"/>
<path d="M766.299 42.333H733.449C730.688 42.333 728.449 44.5716 728.449 47.333V79.6663C728.449 82.4278 730.688 84.6663 733.449 84.6663H766.299C769.061 84.6663 771.299 82.4278 771.299 79.6663V47.333C771.299 44.5716 769.061 42.333 766.299 42.333Z" fill="#1898C7"/>
<path d="M723.45 42.333H690.6C687.838 42.333 685.6 44.5716 685.6 47.333V79.6663C685.6 82.4278 687.838 84.6663 690.6 84.6663H723.45C726.211 84.6663 728.45 82.4278 728.45 79.6663V47.333C728.45 44.5716 726.211 42.333 723.45 42.333Z" fill="#5187B9"/>
<path d="M680.6 42.333H647.75C644.989 42.333 642.75 44.5716 642.75 47.333V79.6663C642.75 82.4278 644.989 84.6663 647.75 84.6663H680.6C683.361 84.6663 685.6 82.4278 685.6 79.6663V47.333C685.6 44.5716 683.361 42.333 680.6 42.333Z" fill="#E8CB98"/>
<path d="M380.649 42.333H347.799C345.037 42.333 342.799 44.5716 342.799 47.333V79.6663C342.799 82.4278 345.037 84.6663 347.799 84.6663H380.649C383.41 84.6663 385.649 82.4278 385.649 79.6663V47.333C385.649 44.5716 383.41 42.333 380.649 42.333Z" fill="#103674"/>
<path d="M466.352 42.333H433.502C430.741 42.333 428.502 44.5716 428.502 47.333V79.6663C428.502 82.4278 430.741 84.6663 433.502 84.6663H466.352C469.113 84.6663 471.352 82.4278 471.352 79.6663V47.333C471.352 44.5716 469.113 42.333 466.352 42.333Z" fill="#C9C7E2"/>
<path d="M423.496 42.333H390.646C387.885 42.333 385.646 44.5716 385.646 47.333V79.6663C385.646 82.4278 387.885 84.6663 390.646 84.6663H423.496C426.258 84.6663 428.496 82.4278 428.496 79.6663V47.333C428.496 44.5716 426.258 42.333 423.496 42.333Z" fill="#608EBD"/>
<path d="M337.799 42.333H304.949C302.188 42.333 299.949 44.5716 299.949 47.333V79.6663C299.949 82.4278 302.188 84.6663 304.949 84.6663H337.799C340.561 84.6663 342.799 82.4278 342.799 79.6663V47.333C342.799 44.5716 340.561 42.333 337.799 42.333Z" fill="#A4CDE4"/>
<path d="M509.198 42.333H476.348C473.586 42.333 471.348 44.5716 471.348 47.333V79.6663C471.348 82.4278 473.586 84.6663 476.348 84.6663H509.198C511.959 84.6663 514.198 82.4278 514.198 79.6663V47.333C514.198 44.5716 511.959 42.333 509.198 42.333Z" fill="#70B2B2"/>
<path d="M594.901 42.333H562.051C559.289 42.333 557.051 44.5716 557.051 47.333V79.6663C557.051 82.4278 559.289 84.6663 562.051 84.6663H594.901C597.662 84.6663 599.901 82.4278 599.901 79.6663V47.333C599.901 44.5716 597.662 42.333 594.901 42.333Z" fill="#3D83B6"/>
<path d="M552.049 42.333H519.199C516.438 42.333 514.199 44.5716 514.199 47.333V79.6663C514.199 82.4278 516.438 84.6663 519.199 84.6663H552.049C554.811 84.6663 557.049 82.4278 557.049 79.6663V47.333C557.049 44.5716 554.811 42.333 552.049 42.333Z" fill="#9BC8E2"/>
<path d="M637.752 42.333H604.902C602.141 42.333 599.902 44.5716 599.902 47.333V79.6663C599.902 82.4278 602.141 84.6663 604.902 84.6663H637.752C640.514 84.6663 642.752 82.4278 642.752 79.6663V47.333C642.752 44.5716 640.514 42.333 637.752 42.333Z" fill="#C3B09B"/>
<path d="M294.95 42.333H262.1C259.338 42.333 257.1 44.5716 257.1 47.333V79.6663C257.1 82.4278 259.338 84.6663 262.1 84.6663H294.95C297.711 84.6663 299.95 82.4278 299.95 79.6663V47.333C299.95 44.5716 297.711 42.333 294.95 42.333Z" fill="#329BB6"/>
<path d="M252.1 42.333H219.25C216.489 42.333 214.25 44.5716 214.25 47.333V79.6663C214.25 82.4278 216.489 84.6663 219.25 84.6663H252.1C254.861 84.6663 257.1 82.4278 257.1 79.6663V47.333C257.1 44.5716 254.861 42.333 252.1 42.333Z" fill="#076F93"/>
<path d="M80.7015 42.333H47.8516C45.0901 42.333 42.8516 44.5716 42.8516 47.333V79.6663C42.8516 82.4278 45.0901 84.6663 47.8516 84.6663H80.7016C83.463 84.6663 85.7016 82.4278 85.7016 79.6663V47.333C85.7016 44.5716 83.463 42.333 80.7015 42.333Z" fill="#0D7796"/>
<path d="M123.549 42.333H90.6992C87.9378 42.333 85.6992 44.5716 85.6992 47.333V79.6663C85.6992 82.4278 87.9378 84.6663 90.6992 84.6663H123.549C126.311 84.6663 128.549 82.4278 128.549 79.6663V47.333C128.549 44.5716 126.311 42.333 123.549 42.333Z" fill="#9B9B7A"/>
<path d="M209.25 42.333H176.4C173.639 42.333 171.4 44.5716 171.4 47.333V79.6663C171.4 82.4278 173.639 84.6663 176.4 84.6663H209.25C212.012 84.6663 214.25 82.4278 214.25 79.6663V47.333C214.25 44.5716 212.012 42.333 209.25 42.333Z" fill="#B2CAE0"/>
<path d="M166.401 42.333H133.551C130.789 42.333 128.551 44.5716 128.551 47.333V79.6663C128.551 82.4278 130.789 84.6663 133.551 84.6663H166.401C169.162 84.6663 171.401 82.4278 171.401 79.6663V47.333C171.401 44.5716 169.162 42.333 166.401 42.333Z" fill="#256AA4"/>
<path d="M337.799 592.667H304.949C302.188 592.667 299.949 594.905 299.949 597.667V630C299.949 632.761 302.188 635 304.949 635H337.799C340.561 635 342.799 632.761 342.799 630V597.667C342.799 594.905 340.561 592.667 337.799 592.667Z" fill="#0A1731"/>
<path d="M809.149 592.667H776.299C773.537 592.667 771.299 594.905 771.299 597.667V630C771.299 632.761 773.537 635 776.299 635H809.149C811.91 635 814.149 632.761 814.149 630V597.667C814.149 594.905 811.91 592.667 809.149 592.667Z" fill="#CCD698"/>
<path d="M766.299 592.667H733.449C730.688 592.667 728.449 594.905 728.449 597.667V630C728.449 632.761 730.688 635 733.449 635H766.299C769.061 635 771.299 632.761 771.299 630V597.667C771.299 594.905 769.061 592.667 766.299 592.667Z" fill="#51A2CB"/>
<path d="M852 592.667H819.15C816.389 592.667 814.15 594.905 814.15 597.667V630C814.15 632.761 816.389 635 819.15 635H852C854.762 635 857 632.761 857 630V597.667C857 594.905 854.762 592.667 852 592.667Z" fill="#B9D9E8"/>
<path d="M723.45 592.667H690.6C687.838 592.667 685.6 594.905 685.6 597.667V630C685.6 632.761 687.838 635 690.6 635H723.45C726.211 635 728.45 632.761 728.45 630V597.667C728.45 594.905 726.211 592.667 723.45 592.667Z" fill="#B3D0E7"/>
<path d="M294.95 592.667H262.1C259.338 592.667 257.1 594.905 257.1 597.667V630C257.1 632.761 259.338 635 262.1 635H294.95C297.711 635 299.95 632.761 299.95 630V597.667C299.95 594.905 297.711 592.667 294.95 592.667Z" fill="#165E71"/>
<path d="M209.25 592.667H176.4C173.639 592.667 171.4 594.905 171.4 597.667V630C171.4 632.761 173.639 635 176.4 635H209.25C212.012 635 214.25 632.761 214.25 630V597.667C214.25 594.905 212.012 592.667 209.25 592.667Z" fill="#B5D9E8"/>
<path d="M166.401 592.667H133.551C130.789 592.667 128.551 594.905 128.551 597.667V630C128.551 632.761 130.789 635 133.551 635H166.401C169.162 635 171.401 632.761 171.401 630V597.667C171.401 594.905 169.162 592.667 166.401 592.667Z" fill="#2B8BBC"/>
<path d="M252.1 592.667H219.25C216.489 592.667 214.25 594.905 214.25 597.667V630C214.25 632.761 216.489 635 219.25 635H252.1C254.861 635 257.1 632.761 257.1 630V597.667C257.1 594.905 254.861 592.667 252.1 592.667Z" fill="#B5D3D6"/>
<path d="M123.549 592.667H90.6992C87.9378 592.667 85.6992 594.905 85.6992 597.667V630C85.6992 632.761 87.9378 635 90.6992 635H123.549C126.311 635 128.549 632.761 128.549 630V597.667C128.549 594.905 126.311 592.667 123.549 592.667Z" fill="#375C98"/>
<path d="M80.7015 592.667H47.8516C45.0901 592.667 42.8516 594.905 42.8516 597.667V630C42.8516 632.761 45.0901 635 47.8516 635H80.7016C83.463 635 85.7016 632.761 85.7016 630V597.667C85.7016 594.905 83.463 592.667 80.7015 592.667Z" fill="#6AA8D1"/>
<path d="M37.85 592.667H5C2.23858 592.667 0 594.905 0 597.667V630C0 632.761 2.23858 635 5 635H37.85C40.6114 635 42.85 632.761 42.85 630V597.667C42.85 594.905 40.6114 592.667 37.85 592.667Z" fill="#215973"/>
<path d="M466.352 592.667H433.502C430.741 592.667 428.502 594.905 428.502 597.667V630C428.502 632.761 430.741 635 433.502 635H466.352C469.113 635 471.352 632.761 471.352 630V597.667C471.352 594.905 469.113 592.667 466.352 592.667Z" fill="#7E8F2E"/>
<path d="M509.198 592.667H476.348C473.586 592.667 471.348 594.905 471.348 597.667V630C471.348 632.761 473.586 635 476.348 635H509.198C511.959 635 514.198 632.761 514.198 630V597.667C514.198 594.905 511.959 592.667 509.198 592.667Z" fill="#6C7C61"/>
<path d="M594.901 592.667H562.051C559.289 592.667 557.051 594.905 557.051 597.667V630C557.051 632.761 559.289 635 562.051 635H594.901C597.662 635 599.901 632.761 599.901 630V597.667C599.901 594.905 597.662 592.667 594.901 592.667Z" fill="#A6D0E3"/>
<path d="M552.049 592.667H519.199C516.438 592.667 514.199 594.905 514.199 597.667V630C514.199 632.761 516.438 635 519.199 635H552.049C554.811 635 557.049 632.761 557.049 630V597.667C557.049 594.905 554.811 592.667 552.049 592.667Z" fill="#BEDEE9"/>
<path d="M637.752 592.667H604.902C602.141 592.667 599.902 594.905 599.902 597.667V630C599.902 632.761 602.141 635 604.902 635H637.752C640.514 635 642.752 632.761 642.752 630V597.667C642.752 594.905 640.514 592.667 637.752 592.667Z" fill="#38729F"/>
<path d="M680.6 592.667H647.75C644.989 592.667 642.75 594.905 642.75 597.667V630C642.75 632.761 644.989 635 647.75 635H680.6C683.361 635 685.6 632.761 685.6 630V597.667C685.6 594.905 683.361 592.667 680.6 592.667Z" fill="#568185"/>
<path d="M380.649 592.667H347.799C345.037 592.667 342.799 594.905 342.799 597.667V630C342.799 632.761 345.037 635 347.799 635H380.649C383.41 635 385.649 632.761 385.649 630V597.667C385.649 594.905 383.41 592.667 380.649 592.667Z" fill="#AFD6E7"/>
<path d="M423.496 592.667H390.646C387.885 592.667 385.646 594.905 385.646 597.667V630C385.646 632.761 387.885 635 390.646 635H423.496C426.258 635 428.496 632.761 428.496 630V597.667C428.496 594.905 426.258 592.667 423.496 592.667Z" fill="#509936"/>
<path d="M166.401 169.333H133.551C130.789 169.333 128.551 171.572 128.551 174.333V206.666C128.551 209.428 130.789 211.666 133.551 211.666H166.401C169.162 211.666 171.401 209.428 171.401 206.666V174.333C171.401 171.572 169.162 169.333 166.401 169.333Z" fill="#8BC2DF"/>
<path d="M680.6 169.333H647.75C644.989 169.333 642.75 171.572 642.75 174.333V206.666C642.75 209.428 644.989 211.666 647.75 211.666H680.6C683.361 211.666 685.6 209.428 685.6 206.666V174.333C685.6 171.572 683.361 169.333 680.6 169.333Z" fill="#C9D3E4"/>
<path d="M123.549 169.333H90.6992C87.9378 169.333 85.6992 171.572 85.6992 174.333V206.666C85.6992 209.428 87.9378 211.666 90.6992 211.666H123.549C126.311 211.666 128.549 209.428 128.549 206.666V174.333C128.549 171.572 126.311 169.333 123.549 169.333Z" fill="#84BCDB"/>
<path d="M723.45 169.333H690.6C687.838 169.333 685.6 171.572 685.6 174.333V206.666C685.6 209.428 687.838 211.666 690.6 211.666H723.45C726.211 211.666 728.45 209.428 728.45 206.666V174.333C728.45 171.572 726.211 169.333 723.45 169.333Z" fill="#F2ECDE"/>
<path d="M294.95 169.333H262.1C259.338 169.333 257.1 171.572 257.1 174.333V206.666C257.1 209.428 259.338 211.666 262.1 211.666H294.95C297.711 211.666 299.95 209.428 299.95 206.666V174.333C299.95 171.572 297.711 169.333 294.95 169.333Z" fill="#7FB5C8"/>
<path d="M337.799 169.333H304.949C302.188 169.333 299.949 171.572 299.949 174.333V206.666C299.949 209.428 302.188 211.666 304.949 211.666H337.799C340.561 211.666 342.799 209.428 342.799 206.666V174.333C342.799 171.572 340.561 169.333 337.799 169.333Z" fill="#CDB8D6"/>
<path d="M209.25 169.333H176.4C173.639 169.333 171.4 171.572 171.4 174.333V206.666C171.4 209.428 173.639 211.666 176.4 211.666H209.25C212.012 211.666 214.25 209.428 214.25 206.666V174.333C214.25 171.572 212.012 169.333 209.25 169.333Z" fill="#BBD5C5"/>
<path d="M252.1 169.333H219.25C216.489 169.333 214.25 171.572 214.25 174.333V206.666C214.25 209.428 216.489 211.666 219.25 211.666H252.1C254.861 211.666 257.1 209.428 257.1 206.666V174.333C257.1 171.572 254.861 169.333 252.1 169.333Z" fill="#ACCAAF"/>
<path d="M380.649 169.333H347.799C345.037 169.333 342.799 171.572 342.799 174.333V206.666C342.799 209.428 345.037 211.666 347.799 211.666H380.649C383.41 211.666 385.649 209.428 385.649 206.666V174.333C385.649 171.572 383.41 169.333 380.649 169.333Z" fill="#B7BADA"/>
<path d="M552.049 169.333H519.199C516.438 169.333 514.199 171.572 514.199 174.333V206.666C514.199 209.428 516.438 211.666 519.199 211.666H552.049C554.811 211.666 557.049 209.428 557.049 206.666V174.333C557.049 171.572 554.811 169.333 552.049 169.333Z" fill="#EBB5B9"/>
<path d="M423.496 169.333H390.646C387.885 169.333 385.646 171.572 385.646 174.333V206.666C385.646 209.428 387.885 211.666 390.646 211.666H423.496C426.258 211.666 428.496 209.428 428.496 206.666V174.333C428.496 171.572 426.258 169.333 423.496 169.333Z" fill="#E9E8E8"/>
<path d="M509.198 169.333H476.348C473.586 169.333 471.348 171.572 471.348 174.333V206.666C471.348 209.428 473.586 211.666 476.348 211.666H509.198C511.959 211.666 514.198 209.428 514.198 206.666V174.333C514.198 171.572 511.959 169.333 509.198 169.333Z" fill="#8EABB5"/>
<path d="M594.901 169.333H562.051C559.289 169.333 557.051 171.572 557.051 174.333V206.666C557.051 209.428 559.289 211.666 562.051 211.666H594.901C597.662 211.666 599.901 209.428 599.901 206.666V174.333C599.901 171.572 597.662 169.333 594.901 169.333Z" fill="#B1C0DC"/>
<path d="M466.352 169.333H433.502C430.741 169.333 428.502 171.572 428.502 174.333V206.666C428.502 209.428 430.741 211.666 433.502 211.666H466.352C469.113 211.666 471.352 209.428 471.352 206.666V174.333C471.352 171.572 469.113 169.333 466.352 169.333Z" fill="#5D488E"/>
<path d="M637.752 169.333H604.902C602.141 169.333 599.902 171.572 599.902 174.333V206.666C599.902 209.428 602.141 211.666 604.902 211.666H637.752C640.514 211.666 642.752 209.428 642.752 206.666V174.333C642.752 171.572 640.514 169.333 637.752 169.333Z" fill="#8B68A1"/>
<path d="M37.85 169.333H5C2.23858 169.333 0 171.572 0 174.333V206.666C0 209.428 2.23858 211.666 5 211.666H37.85C40.6114 211.666 42.85 209.428 42.85 206.666V174.333C42.85 171.572 40.6114 169.333 37.85 169.333Z" fill="#A8CCE2"/>
<path d="M809.149 169.333H776.299C773.537 169.333 771.299 171.572 771.299 174.333V206.666C771.299 209.428 773.537 211.666 776.299 211.666H809.149C811.91 211.666 814.149 209.428 814.149 206.666V174.333C814.149 171.572 811.91 169.333 809.149 169.333Z" fill="#B5C3DE"/>
<path d="M852 169.333H819.15C816.389 169.333 814.15 171.572 814.15 174.333V206.666C814.15 209.428 816.389 211.666 819.15 211.666H852C854.762 211.666 857 209.428 857 206.666V174.333C857 171.572 854.762 169.333 852 169.333Z" fill="#0162A4"/>
<path d="M766.299 169.333H733.449C730.688 169.333 728.449 171.572 728.449 174.333V206.666C728.449 209.428 730.688 211.666 733.449 211.666H766.299C769.061 211.666 771.299 209.428 771.299 206.666V174.333C771.299 171.572 769.061 169.333 766.299 169.333Z" fill="#C4D0E1"/>
<path d="M80.7015 169.333H47.8516C45.0901 169.333 42.8516 171.572 42.8516 174.333V206.666C42.8516 209.428 45.0901 211.666 47.8516 211.666H80.7016C83.463 211.666 85.7016 209.428 85.7016 206.666V174.333C85.7016 171.572 83.463 169.333 80.7015 169.333Z" fill="#1F7BB3"/>
<path d="M123.549 84.6665H90.6992C87.9378 84.6665 85.6992 86.9051 85.6992 89.6665V122C85.6992 124.761 87.9378 127 90.6992 127H123.549C126.311 127 128.549 124.761 128.549 122V89.6665C128.549 86.9051 126.311 84.6665 123.549 84.6665Z" fill="#588BBB"/>
<path d="M252.1 84.6665H219.25C216.489 84.6665 214.25 86.9051 214.25 89.6665V122C214.25 124.761 216.489 127 219.25 127H252.1C254.861 127 257.1 124.761 257.1 122V89.6665C257.1 86.9051 254.861 84.6665 252.1 84.6665Z" fill="#8C96AD"/>
<path d="M166.401 84.6665H133.551C130.789 84.6665 128.551 86.9051 128.551 89.6665V122C128.551 124.761 130.789 127 133.551 127H166.401C169.162 127 171.401 124.761 171.401 122V89.6665C171.401 86.9051 169.162 84.6665 166.401 84.6665Z" fill="#DAE4EE"/>
<path d="M294.95 84.6665H262.1C259.338 84.6665 257.1 86.9051 257.1 89.6665V122C257.1 124.761 259.338 127 262.1 127H294.95C297.711 127 299.95 124.761 299.95 122V89.6665C299.95 86.9051 297.711 84.6665 294.95 84.6665Z" fill="#A4A9C1"/>
<path d="M209.25 84.6665H176.4C173.639 84.6665 171.4 86.9051 171.4 89.6665V122C171.4 124.761 173.639 127 176.4 127H209.25C212.012 127 214.25 124.761 214.25 122V89.6665C214.25 86.9051 212.012 84.6665 209.25 84.6665Z" fill="#BFD3E8"/>
<path d="M423.496 84.6665H390.646C387.885 84.6665 385.646 86.9051 385.646 89.6665V122C385.646 124.761 387.885 127 390.646 127H423.496C426.258 127 428.496 124.761 428.496 122V89.6665C428.496 86.9051 426.258 84.6665 423.496 84.6665Z" fill="#669C7B"/>
<path d="M337.799 84.6665H304.949C302.188 84.6665 299.949 86.9051 299.949 89.6665V122C299.949 124.761 302.188 127 304.949 127H337.799C340.561 127 342.799 124.761 342.799 122V89.6665C342.799 86.9051 340.561 84.6665 337.799 84.6665Z" fill="#AAAEC0"/>
<path d="M466.352 84.6665H433.502C430.741 84.6665 428.502 86.9051 428.502 89.6665V122C428.502 124.761 430.741 127 433.502 127H466.352C469.113 127 471.352 124.761 471.352 122V89.6665C471.352 86.9051 469.113 84.6665 466.352 84.6665Z" fill="#87A67E"/>
<path d="M509.198 84.6665H476.348C473.586 84.6665 471.348 86.9051 471.348 89.6665V122C471.348 124.761 473.586 127 476.348 127H509.198C511.959 127 514.198 124.761 514.198 122V89.6665C514.198 86.9051 511.959 84.6665 509.198 84.6665Z" fill="#388BBE"/>
<path d="M380.649 84.6665H347.799C345.037 84.6665 342.799 86.9051 342.799 89.6665V122C342.799 124.761 345.037 127 347.799 127H380.649C383.41 127 385.649 124.761 385.649 122V89.6665C385.649 86.9051 383.41 84.6665 380.649 84.6665Z" fill="#4CA1C8"/>
<path d="M552.049 84.6665H519.199C516.438 84.6665 514.199 86.9051 514.199 89.6665V122C514.199 124.761 516.438 127 519.199 127H552.049C554.811 127 557.049 124.761 557.049 122V89.6665C557.049 86.9051 554.811 84.6665 552.049 84.6665Z" fill="#60987C"/>
<path d="M680.6 84.6665H647.75C644.989 84.6665 642.75 86.9051 642.75 89.6665V122C642.75 124.761 644.989 127 647.75 127H680.6C683.361 127 685.6 124.761 685.6 122V89.6665C685.6 86.9051 683.361 84.6665 680.6 84.6665Z" fill="#6BB0D6"/>
<path d="M637.752 84.6665H604.902C602.141 84.6665 599.902 86.9051 599.902 89.6665V122C599.902 124.761 602.141 127 604.902 127H637.752C640.514 127 642.752 124.761 642.752 122V89.6665C642.752 86.9051 640.514 84.6665 637.752 84.6665Z" fill="#A3B572"/>
<path d="M594.901 84.6665H562.051C559.289 84.6665 557.051 86.9051 557.051 89.6665V122C557.051 124.761 559.289 127 562.051 127H594.901C597.662 127 599.901 124.761 599.901 122V89.6665C599.901 86.9051 597.662 84.6665 594.901 84.6665Z" fill="#C3B09B"/>
<path d="M723.45 84.6665H690.6C687.838 84.6665 685.6 86.9051 685.6 89.6665V122C685.6 124.761 687.838 127 690.6 127H723.45C726.211 127 728.45 124.761 728.45 122V89.6665C728.45 86.9051 726.211 84.6665 723.45 84.6665Z" fill="#C8E0E7"/>
<path d="M37.85 84.6665H5C2.23858 84.6665 0 86.9051 0 89.6665V122C0 124.761 2.23858 127 5 127H37.85C40.6114 127 42.85 124.761 42.85 122V89.6665C42.85 86.9051 40.6114 84.6665 37.85 84.6665Z" fill="#CFC939"/>
<path d="M809.149 84.6665H776.299C773.537 84.6665 771.299 86.9051 771.299 89.6665V122C771.299 124.761 773.537 127 776.299 127H809.149C811.91 127 814.149 124.761 814.149 122V89.6665C814.149 86.9051 811.91 84.6665 809.149 84.6665Z" fill="#BBD7C5"/>
<path d="M852 84.6665H819.15C816.389 84.6665 814.15 86.9051 814.15 89.6665V122C814.15 124.761 816.389 127 819.15 127H852C854.762 127 857 124.761 857 122V89.6665C857 86.9051 854.762 84.6665 852 84.6665Z" fill="#9FCBD0"/>
<path d="M766.299 84.6665H733.449C730.688 84.6665 728.449 86.9051 728.449 89.6665V122C728.449 124.761 730.688 127 733.449 127H766.299C769.061 127 771.299 124.761 771.299 122V89.6665C771.299 86.9051 769.061 84.6665 766.299 84.6665Z" fill="#AFD4DA"/>
<path d="M80.7015 84.6665H47.8516C45.0901 84.6665 42.8516 86.9051 42.8516 89.6665V122C42.8516 124.761 45.0901 127 47.8516 127H80.7016C83.463 127 85.7016 124.761 85.7016 122V89.6665C85.7016 86.9051 83.463 84.6665 80.7015 84.6665Z" fill="#3698C2"/>
<path d="M252.1 127H219.25C216.489 127 214.25 129.238 214.25 132V164.333C214.25 167.095 216.489 169.333 219.25 169.333H252.1C254.861 169.333 257.1 167.095 257.1 164.333V132C257.1 129.238 254.861 127 252.1 127Z" fill="#93B8D8"/>
<path d="M166.401 127H133.551C130.789 127 128.551 129.238 128.551 132V164.333C128.551 167.095 130.789 169.333 133.551 169.333H166.401C169.162 169.333 171.401 167.095 171.401 164.333V132C171.401 129.238 169.162 127 166.401 127Z" fill="#ABCCB7"/>
<path d="M209.25 127H176.4C173.639 127 171.4 129.238 171.4 132V164.333C171.4 167.095 173.639 169.333 176.4 169.333H209.25C212.012 169.333 214.25 167.095 214.25 164.333V132C214.25 129.238 212.012 127 209.25 127Z" fill="#B1CFE1"/>
<path d="M680.6 127H647.75C644.989 127 642.75 129.238 642.75 132V164.333C642.75 167.095 644.989 169.333 647.75 169.333H680.6C683.361 169.333 685.6 167.095 685.6 164.333V132C685.6 129.238 683.361 127 680.6 127Z" fill="#AFCEE3"/>
<path d="M380.649 127H347.799C345.037 127 342.799 129.238 342.799 132V164.333C342.799 167.095 345.037 169.333 347.799 169.333H380.649C383.41 169.333 385.649 167.095 385.649 164.333V132C385.649 129.238 383.41 127 380.649 127Z" fill="#B7BADA"/>
<path d="M423.496 127H390.646C387.885 127 385.646 129.238 385.646 132V164.333C385.646 167.095 387.885 169.333 390.646 169.333H423.496C426.258 169.333 428.496 167.095 428.496 164.333V132C428.496 129.238 426.258 127 423.496 127Z" fill="#DC6C72"/>
<path d="M637.752 127H604.902C602.141 127 599.902 129.238 599.902 132V164.333C599.902 167.095 602.141 169.333 604.902 169.333H637.752C640.514 169.333 642.752 167.095 642.752 164.333V132C642.752 129.238 640.514 127 637.752 127Z" fill="#4292C2"/>
<path d="M294.95 127H262.1C259.338 127 257.1 129.238 257.1 132V164.333C257.1 167.095 259.338 169.333 262.1 169.333H294.95C297.711 169.333 299.95 167.095 299.95 164.333V132C299.95 129.238 297.711 127 294.95 127Z" fill="#4592C2"/>
<path d="M337.799 127H304.949C302.188 127 299.949 129.238 299.949 132V164.333C299.949 167.095 302.188 169.333 304.949 169.333H337.799C340.561 169.333 342.799 167.095 342.799 164.333V132C342.799 129.238 340.561 127 337.799 127Z" fill="#A2CAE4"/>
<path d="M466.352 127H433.502C430.741 127 428.502 129.238 428.502 132V164.333C428.502 167.095 430.741 169.333 433.502 169.333H466.352C469.113 169.333 471.352 167.095 471.352 164.333V132C471.352 129.238 469.113 127 466.352 127Z" fill="#6B9E41"/>
<path d="M594.901 127H562.051C559.289 127 557.051 129.238 557.051 132V164.333C557.051 167.095 559.289 169.333 562.051 169.333H594.901C597.662 169.333 599.901 167.095 599.901 164.333V132C599.901 129.238 597.662 127 594.901 127Z" fill="#BD417E"/>
<path d="M552.049 127H519.199C516.438 127 514.199 129.238 514.199 132V164.333C514.199 167.095 516.438 169.333 519.199 169.333H552.049C554.811 169.333 557.049 167.095 557.049 164.333V132C557.049 129.238 554.811 127 552.049 127Z" fill="#F1E4EF"/>
<path d="M509.198 127H476.348C473.586 127 471.348 129.238 471.348 132V164.333C471.348 167.095 473.586 169.333 476.348 169.333H509.198C511.959 169.333 514.198 167.095 514.198 164.333V132C514.198 129.238 511.959 127 509.198 127Z" fill="#AE7373"/>
<path d="M123.549 127H90.6992C87.9378 127 85.6992 129.238 85.6992 132V164.333C85.6992 167.095 87.9378 169.333 90.6992 169.333H123.549C126.311 169.333 128.549 167.095 128.549 164.333V132C128.549 129.238 126.311 127 123.549 127Z" fill="#1E6C6F"/>
<path d="M723.45 127H690.6C687.838 127 685.6 129.238 685.6 132V164.333C685.6 167.095 687.838 169.333 690.6 169.333H723.45C726.211 169.333 728.45 167.095 728.45 164.333V132C728.45 129.238 726.211 127 723.45 127Z" fill="#5D488E"/>
<path d="M37.85 127H5C2.23858 127 0 129.238 0 132V164.333C0 167.095 2.23858 169.333 5 169.333H37.85C40.6114 169.333 42.85 167.095 42.85 164.333V132C42.85 129.238 40.6114 127 37.85 127Z" fill="#A2C7C0"/>
<path d="M809.149 127H776.299C773.537 127 771.299 129.238 771.299 132V164.333C771.299 167.095 773.537 169.333 776.299 169.333H809.149C811.91 169.333 814.149 167.095 814.149 164.333V132C814.149 129.238 811.91 127 809.149 127Z" fill="#72ACC3"/>
<path d="M852 127H819.15C816.389 127 814.15 129.238 814.15 132V164.333C814.15 167.095 816.389 169.333 819.15 169.333H852C854.762 169.333 857 167.095 857 164.333V132C857 129.238 854.762 127 852 127Z" fill="#87B9CB"/>
<path d="M766.299 127H733.449C730.688 127 728.449 129.238 728.449 132V164.333C728.449 167.095 730.688 169.333 733.449 169.333H766.299C769.061 169.333 771.299 167.095 771.299 164.333V132C771.299 129.238 769.061 127 766.299 127Z" fill="#B3D3CE"/>
<path d="M80.7015 127H47.8516C45.0901 127 42.8516 129.238 42.8516 132V164.333C42.8516 167.095 45.0901 169.333 47.8516 169.333H80.7016C83.463 169.333 85.7016 167.095 85.7016 164.333V132C85.7016 129.238 83.463 127 80.7015 127Z" fill="#B7D3CE"/>
<path d="M166.401 211.667H133.551C130.789 211.667 128.551 213.905 128.551 216.667V249C128.551 251.761 130.789 254 133.551 254H166.401C169.162 254 171.401 251.761 171.401 249V216.667C171.401 213.905 169.162 211.667 166.401 211.667Z" fill="#429CBF"/>
<path d="M680.6 211.667H647.75C644.989 211.667 642.75 213.905 642.75 216.667V249C642.75 251.761 644.989 254 647.75 254H680.6C683.361 254 685.6 251.761 685.6 249V216.667C685.6 213.905 683.361 211.667 680.6 211.667Z" fill="#706798"/>
<path d="M123.549 211.667H90.6992C87.9378 211.667 85.6992 213.905 85.6992 216.667V249C85.6992 251.761 87.9378 254 90.6992 254H123.549C126.311 254 128.549 251.761 128.549 249V216.667C128.549 213.905 126.311 211.667 123.549 211.667Z" fill="#6AA6CC"/>
<path d="M723.45 211.667H690.6C687.838 211.667 685.6 213.905 685.6 216.667V249C685.6 251.761 687.838 254 690.6 254H723.45C726.211 254 728.45 251.761 728.45 249V216.667C728.45 213.905 726.211 211.667 723.45 211.667Z" fill="#DFE2DF"/>
<path d="M594.901 211.667H562.051C559.289 211.667 557.051 213.905 557.051 216.667V249C557.051 251.761 559.289 254 562.051 254H594.901C597.662 254 599.901 251.761 599.901 249V216.667C599.901 213.905 597.662 211.667 594.901 211.667Z" fill="#0D789E"/>
<path d="M466.352 211.667H433.502C430.741 211.667 428.502 213.905 428.502 216.667V249C428.502 251.761 430.741 254 433.502 254H466.352C469.113 254 471.352 251.761 471.352 249V216.667C471.352 213.905 469.113 211.667 466.352 211.667Z" fill="#1E6C6F"/>
<path d="M509.198 211.667H476.348C473.586 211.667 471.348 213.905 471.348 216.667V249C471.348 251.761 473.586 254 476.348 254H509.198C511.959 254 514.198 251.761 514.198 249V216.667C514.198 213.905 511.959 211.667 509.198 211.667Z" fill="#BE9EC4"/>
<path d="M252.1 211.667H219.25C216.489 211.667 214.25 213.905 214.25 216.667V249C214.25 251.761 216.489 254 219.25 254H252.1C254.861 254 257.1 251.761 257.1 249V216.667C257.1 213.905 254.861 211.667 252.1 211.667Z" fill="#2690B6"/>
<path d="M380.649 211.667H347.799C345.037 211.667 342.799 213.905 342.799 216.667V249C342.799 251.761 345.037 254 347.799 254H380.649C383.41 254 385.649 251.761 385.649 249V216.667C385.649 213.905 383.41 211.667 380.649 211.667Z" fill="#815825"/>
<path d="M423.496 211.667H390.646C387.885 211.667 385.646 213.905 385.646 216.667V249C385.646 251.761 387.885 254 390.646 254H423.496C426.258 254 428.496 251.761 428.496 249V216.667C428.496 213.905 426.258 211.667 423.496 211.667Z" fill="#F5D4DB"/>
<path d="M294.95 211.667H262.1C259.338 211.667 257.1 213.905 257.1 216.667V249C257.1 251.761 259.338 254 262.1 254H294.95C297.711 254 299.95 251.761 299.95 249V216.667C299.95 213.905 297.711 211.667 294.95 211.667Z" fill="#A188B8"/>
<path d="M337.799 211.667H304.949C302.188 211.667 299.949 213.905 299.949 216.667V249C299.949 251.761 302.188 254 304.949 254H337.799C340.561 254 342.799 251.761 342.799 249V216.667C342.799 213.905 340.561 211.667 337.799 211.667Z" fill="#DAD3A8"/>
<path d="M552.049 211.667H519.199C516.438 211.667 514.199 213.905 514.199 216.667V249C514.199 251.761 516.438 254 519.199 254H552.049C554.811 254 557.049 251.761 557.049 249V216.667C557.049 213.905 554.811 211.667 552.049 211.667Z" fill="#1085B2"/>
<path d="M209.25 211.667H176.4C173.639 211.667 171.4 213.905 171.4 216.667V249C171.4 251.761 173.639 254 176.4 254H209.25C212.012 254 214.25 251.761 214.25 249V216.667C214.25 213.905 212.012 211.667 209.25 211.667Z" fill="#2085A7"/>
<path d="M637.752 211.667H604.902C602.141 211.667 599.902 213.905 599.902 216.667V249C599.902 251.761 602.141 254 604.902 254H637.752C640.514 254 642.752 251.761 642.752 249V216.667C642.752 213.905 640.514 211.667 637.752 211.667Z" fill="#62A6C2"/>
<path d="M37.85 211.667H5C2.23858 211.667 0 213.905 0 216.667V249C0 251.761 2.23858 254 5 254H37.85C40.6114 254 42.85 251.761 42.85 249V216.667C42.85 213.905 40.6114 211.667 37.85 211.667Z" fill="#BBAACE"/>
<path d="M809.149 211.667H776.299C773.537 211.667 771.299 213.905 771.299 216.667V249C771.299 251.761 773.537 254 776.299 254H809.149C811.91 254 814.149 251.761 814.149 249V216.667C814.149 213.905 811.91 211.667 809.149 211.667Z" fill="#5F9FC5"/>
<path d="M852 211.667H819.15C816.389 211.667 814.15 213.905 814.15 216.667V249C814.15 251.761 816.389 254 819.15 254H852C854.762 254 857 251.761 857 249V216.667C857 213.905 854.762 211.667 852 211.667Z" fill="#EFE7DD"/>
<path d="M766.299 211.667H733.449C730.688 211.667 728.449 213.905 728.449 216.667V249C728.449 251.761 730.688 254 733.449 254H766.299C769.061 254 771.299 251.761 771.299 249V216.667C771.299 213.905 769.061 211.667 766.299 211.667Z" fill="#8BB0D3"/>
<path d="M80.7015 211.667H47.8516C45.0901 211.667 42.8516 213.905 42.8516 216.667V249C42.8516 251.761 45.0901 254 47.8516 254H80.7016C83.463 254 85.7016 251.761 85.7016 249V216.667C85.7016 213.905 83.463 211.667 80.7015 211.667Z" fill="#B8C9E1"/>
<path d="M166.401 296.333H133.551C130.789 296.333 128.551 298.572 128.551 301.333V333.666C128.551 336.428 130.789 338.666 133.551 338.666H166.401C169.162 338.666 171.401 336.428 171.401 333.666V301.333C171.401 298.572 169.162 296.333 166.401 296.333Z" fill="#78A3BD"/>
<path d="M680.6 296.333H647.75C644.989 296.333 642.75 298.572 642.75 301.333V333.666C642.75 336.428 644.989 338.666 647.75 338.666H680.6C683.361 338.666 685.6 336.428 685.6 333.666V301.333C685.6 298.572 683.361 296.333 680.6 296.333Z" fill="#D8E0E5"/>
<path d="M123.549 296.333H90.6992C87.9378 296.333 85.6992 298.572 85.6992 301.333V333.666C85.6992 336.428 87.9378 338.666 90.6992 338.666H123.549C126.311 338.666 128.549 336.428 128.549 333.666V301.333C128.549 298.572 126.311 296.333 123.549 296.333Z" fill="#356B81"/>
<path d="M723.45 296.333H690.6C687.838 296.333 685.6 298.572 685.6 301.333V333.666C685.6 336.428 687.838 338.666 690.6 338.666H723.45C726.211 338.666 728.45 336.428 728.45 333.666V301.333C728.45 298.572 726.211 296.333 723.45 296.333Z" fill="#3C81A7"/>
<path d="M594.901 296.333H562.051C559.289 296.333 557.051 298.572 557.051 301.333V333.666C557.051 336.428 559.289 338.666 562.051 338.666H594.901C597.662 338.666 599.901 336.428 599.901 333.666V301.333C599.901 298.572 597.662 296.333 594.901 296.333Z" fill="#B3C8D2"/>
<path d="M252.1 296.333H219.25C216.489 296.333 214.25 298.572 214.25 301.333V333.666C214.25 336.428 216.489 338.666 219.25 338.666H252.1C254.861 338.666 257.1 336.428 257.1 333.666V301.333C257.1 298.572 254.861 296.333 252.1 296.333Z" fill="#F1E4EF"/>
<path d="M509.198 296.333H476.348C473.586 296.333 471.348 298.572 471.348 301.333V333.666C471.348 336.428 473.586 338.666 476.348 338.666H509.198C511.959 338.666 514.198 336.428 514.198 333.666V301.333C514.198 298.572 511.959 296.333 509.198 296.333Z" fill="#CFDEE3"/>
<path d="M552.049 296.333H519.199C516.438 296.333 514.199 298.572 514.199 301.333V333.666C514.199 336.428 516.438 338.666 519.199 338.666H552.049C554.811 338.666 557.049 336.428 557.049 333.666V301.333C557.049 298.572 554.811 296.333 552.049 296.333Z" fill="#C3D1D7"/>
<path d="M337.799 296.333H304.949C302.188 296.333 299.949 298.572 299.949 301.333V333.666C299.949 336.428 302.188 338.666 304.949 338.666H337.799C340.561 338.666 342.799 336.428 342.799 333.666V301.333C342.799 298.572 340.561 296.333 337.799 296.333Z" fill="#F3B476"/>
<path d="M380.649 296.333H347.799C345.037 296.333 342.799 298.572 342.799 301.333V333.666C342.799 336.428 345.037 338.666 347.799 338.666H380.649C383.41 338.666 385.649 336.428 385.649 333.666V301.333C385.649 298.572 383.41 296.333 380.649 296.333Z" fill="#F2C3C5"/>
<path d="M423.496 296.333H390.646C387.885 296.333 385.646 298.572 385.646 301.333V333.666C385.646 336.428 387.885 338.666 390.646 338.666H423.496C426.258 338.666 428.496 336.428 428.496 333.666V301.333C428.496 298.572 426.258 296.333 423.496 296.333Z" fill="#9FB9CB"/>
<path d="M466.352 296.333H433.502C430.741 296.333 428.502 298.572 428.502 301.333V333.666C428.502 336.428 430.741 338.666 433.502 338.666H466.352C469.113 338.666 471.352 336.428 471.352 333.666V301.333C471.352 298.572 469.113 296.333 466.352 296.333Z" fill="#80B6D3"/>
<path d="M294.95 296.333H262.1C259.338 296.333 257.1 298.572 257.1 301.333V333.666C257.1 336.428 259.338 338.666 262.1 338.666H294.95C297.711 338.666 299.95 336.428 299.95 333.666V301.333C299.95 298.572 297.711 296.333 294.95 296.333Z" fill="#F5CABB"/>
<path d="M209.25 296.333H176.4C173.639 296.333 171.4 298.572 171.4 301.333V333.666C171.4 336.428 173.639 338.666 176.4 338.666H209.25C212.012 338.666 214.25 336.428 214.25 333.666V301.333C214.25 298.572 212.012 296.333 209.25 296.333Z" fill="#EBB5B9"/>
<path d="M637.752 296.333H604.902C602.141 296.333 599.902 298.572 599.902 301.333V333.666C599.902 336.428 602.141 338.666 604.902 338.666H637.752C640.514 338.666 642.752 336.428 642.752 333.666V301.333C642.752 298.572 640.514 296.333 637.752 296.333Z" fill="#BECDD6"/>
<path d="M37.85 296.333H5C2.23858 296.333 0 298.572 0 301.333V333.666C0 336.428 2.23858 338.666 5 338.666H37.85C40.6114 338.666 42.85 336.428 42.85 333.666V301.333C42.85 298.572 40.6114 296.333 37.85 296.333Z" fill="#69ACD2"/>
<path d="M809.149 296.333H776.299C773.537 296.333 771.299 298.572 771.299 301.333V333.666C771.299 336.428 773.537 338.666 776.299 338.666H809.149C811.91 338.666 814.149 336.428 814.149 333.666V301.333C814.149 298.572 811.91 296.333 809.149 296.333Z" fill="#9EC6D9"/>
<path d="M852 296.333H819.15C816.389 296.333 814.15 298.572 814.15 301.333V333.666C814.15 336.428 816.389 338.666 819.15 338.666H852C854.762 338.666 857 336.428 857 333.666V301.333C857 298.572 854.762 296.333 852 296.333Z" fill="#CDDFE8"/>
<path d="M766.299 296.333H733.449C730.688 296.333 728.449 298.572 728.449 301.333V333.666C728.449 336.428 730.688 338.666 733.449 338.666H766.299C769.061 338.666 771.299 336.428 771.299 333.666V301.333C771.299 298.572 769.061 296.333 766.299 296.333Z" fill="#D1E1E8"/>
<path d="M80.7015 296.333H47.8516C45.0901 296.333 42.8516 298.572 42.8516 301.333V333.666C42.8516 336.428 45.0901 338.666 47.8516 338.666H80.7016C83.463 338.666 85.7016 336.428 85.7016 333.666V301.333C85.7016 298.572 83.463 296.333 80.7015 296.333Z" fill="#E7D9D1"/>
<path d="M166.401 254H133.551C130.789 254 128.551 256.239 128.551 259V291.333C128.551 294.095 130.789 296.333 133.551 296.333H166.401C169.162 296.333 171.401 294.095 171.401 291.333V259C171.401 256.239 169.162 254 166.401 254Z" fill="#D6DACE"/>
<path d="M680.6 254H647.75C644.989 254 642.75 256.239 642.75 259V291.333C642.75 294.095 644.989 296.333 647.75 296.333H680.6C683.361 296.333 685.6 294.095 685.6 291.333V259C685.6 256.239 683.361 254 680.6 254Z" fill="#D3D9CA"/>
<path d="M722.223 254H689.373C686.612 254 684.373 256.239 684.373 259V291.333C684.373 294.095 686.612 296.333 689.373 296.333H722.223C724.984 296.333 727.223 294.095 727.223 291.333V259C727.223 256.239 724.984 254 722.223 254Z" fill="#4A9AC4"/>
<path d="M123.549 254H90.6992C87.9378 254 85.6992 256.239 85.6992 259V291.333C85.6992 294.095 87.9378 296.333 90.6992 296.333H123.549C126.311 296.333 128.549 294.095 128.549 291.333V259C128.549 256.239 126.311 254 123.549 254Z" fill="#C2C9BA"/>
<path d="M252.1 254H219.25C216.489 254 214.25 256.239 214.25 259V291.333C214.25 294.095 216.489 296.333 219.25 296.333H252.1C254.861 296.333 257.1 294.095 257.1 291.333V259C257.1 256.239 254.861 254 252.1 254Z" fill="#64632A"/>
<path d="M594.901 254H562.051C559.289 254 557.051 256.239 557.051 259V291.333C557.051 294.095 559.289 296.333 562.051 296.333H594.901C597.662 296.333 599.901 294.095 599.901 291.333V259C599.901 256.239 597.662 254 594.901 254Z" fill="#CDCCC6"/>
<path d="M466.352 254H433.502C430.741 254 428.502 256.239 428.502 259V291.333C428.502 294.095 430.741 296.333 433.502 296.333H466.352C469.113 296.333 471.352 294.095 471.352 291.333V259C471.352 256.239 469.113 254 466.352 254Z" fill="#A8AE68"/>
<path d="M552.049 254H519.199C516.438 254 514.199 256.239 514.199 259V291.333C514.199 294.095 516.438 296.333 519.199 296.333H552.049C554.811 296.333 557.049 294.095 557.049 291.333V259C557.049 256.239 554.811 254 552.049 254Z" fill="#E1E1D4"/>
<path d="M509.198 254H476.348C473.586 254 471.348 256.239 471.348 259V291.333C471.348 294.095 473.586 296.333 476.348 296.333H509.198C511.959 296.333 514.198 294.095 514.198 291.333V259C514.198 256.239 511.959 254 509.198 254Z" fill="#C2C7B9"/>
<path d="M423.496 254H390.646C387.885 254 385.646 256.239 385.646 259V291.333C385.646 294.095 387.885 296.333 390.646 296.333H423.496C426.258 296.333 428.496 294.095 428.496 291.333V259C428.496 256.239 426.258 254 423.496 254Z" fill="#B7A57B"/>
<path d="M380.649 254H347.799C345.037 254 342.799 256.239 342.799 259V291.333C342.799 294.095 345.037 296.333 347.799 296.333H380.649C383.41 296.333 385.649 294.095 385.649 291.333V259C385.649 256.239 383.41 254 380.649 254Z" fill="#B9D9E8"/>
<path d="M294.95 254H262.1C259.338 254 257.1 256.239 257.1 259V291.333C257.1 294.095 259.338 296.333 262.1 296.333H294.95C297.711 296.333 299.95 294.095 299.95 291.333V259C299.95 256.239 297.711 254 294.95 254Z" fill="#EEECC0"/>
<path d="M337.799 254H304.949C302.188 254 299.949 256.239 299.949 259V291.333C299.949 294.095 302.188 296.333 304.949 296.333H337.799C340.561 296.333 342.799 294.095 342.799 291.333V259C342.799 256.239 340.561 254 337.799 254Z" fill="#E5A584"/>
<path d="M209.25 254H176.4C173.639 254 171.4 256.239 171.4 259V291.333C171.4 294.095 173.639 296.333 176.4 296.333H209.25C212.012 296.333 214.25 294.095 214.25 291.333V259C214.25 256.239 212.012 254 209.25 254Z" fill="#B5B0BC"/>
<path d="M637.752 254H604.902C602.141 254 599.902 256.239 599.902 259V291.333C599.902 294.095 602.141 296.333 604.902 296.333H637.752C640.514 296.333 642.752 294.095 642.752 291.333V259C642.752 256.239 640.514 254 637.752 254Z" fill="#DFDFD2"/>
<path d="M37.85 254H5C2.23858 254 0 256.239 0 259V291.333C0 294.095 2.23858 296.333 5 296.333H37.85C40.6114 296.333 42.85 294.095 42.85 291.333V259C42.85 256.239 40.6114 254 37.85 254Z" fill="#E6DDD0"/>
<path d="M809.149 254H776.299C773.537 254 771.299 256.239 771.299 259V291.333C771.299 294.095 773.537 296.333 776.299 296.333H809.149C811.91 296.333 814.149 294.095 814.149 291.333V259C814.149 256.239 811.91 254 809.149 254Z" fill="#BFCFD7"/>
<path d="M852 254H819.15C816.389 254 814.15 256.239 814.15 259V291.333C814.15 294.095 816.389 296.333 819.15 296.333H852C854.762 296.333 857 294.095 857 291.333V259C857 256.239 854.762 254 852 254Z" fill="#EBE4E6"/>
<path d="M766.299 254H733.449C730.688 254 728.449 256.239 728.449 259V291.333C728.449 294.095 730.688 296.333 733.449 296.333H766.299C769.061 296.333 771.299 294.095 771.299 291.333V259C771.299 256.239 769.061 254 766.299 254Z" fill="#EFE6C9"/>
<path d="M80.7015 254H47.8516C45.0901 254 42.8516 256.239 42.8516 259V291.333C42.8516 294.095 45.0901 296.333 47.8516 296.333H80.7016C83.463 296.333 85.7016 294.095 85.7016 291.333V259C85.7016 256.239 83.463 254 80.7015 254Z" fill="#DBCBC1"/>
<path d="M852 508H819.15C816.389 508 814.15 510.239 814.15 513V545.333C814.15 548.095 816.389 550.333 819.15 550.333H852C854.762 550.333 857 548.095 857 545.333V513C857 510.239 854.762 508 852 508Z" fill="#9DCCDF"/>
<path d="M123.549 508H90.6992C87.9378 508 85.6992 510.239 85.6992 513V545.333C85.6992 548.095 87.9378 550.333 90.6992 550.333H123.549C126.311 550.333 128.549 548.095 128.549 545.333V513C128.549 510.239 126.311 508 123.549 508Z" fill="#A2CEE1"/>
<path d="M37.85 508H5C2.23858 508 0 510.239 0 513V545.333C0 548.095 2.23858 550.333 5 550.333H37.85C40.6114 550.333 42.85 548.095 42.85 545.333V513C42.85 510.239 40.6114 508 37.85 508Z" fill="#6CB3D8"/>
<path d="M337.799 508H304.949C302.188 508 299.949 510.239 299.949 513V545.333C299.949 548.095 302.188 550.333 304.949 550.333H337.799C340.561 550.333 342.799 548.095 342.799 545.333V513C342.799 510.239 340.561 508 337.799 508Z" fill="#90B4C7"/>
<path d="M423.496 508H390.646C387.885 508 385.646 510.239 385.646 513V545.333C385.646 548.095 387.885 550.333 390.646 550.333H423.496C426.258 550.333 428.496 548.095 428.496 545.333V513C428.496 510.239 426.258 508 423.496 508Z" fill="#ABC58C"/>
<path d="M380.649 508H347.799C345.037 508 342.799 510.239 342.799 513V545.333C342.799 548.095 345.037 550.333 347.799 550.333H380.649C383.41 550.333 385.649 548.095 385.649 545.333V513C385.649 510.239 383.41 508 380.649 508Z" fill="#509936"/>
<path d="M466.352 508H433.502C430.741 508 428.502 510.239 428.502 513V545.333C428.502 548.095 430.741 550.333 433.502 550.333H466.352C469.113 550.333 471.352 548.095 471.352 545.333V513C471.352 510.239 469.113 508 466.352 508Z" fill="#679B99"/>
<path d="M166.401 508H133.551C130.789 508 128.551 510.239 128.551 513V545.333C128.551 548.095 130.789 550.333 133.551 550.333H166.401C169.162 550.333 171.401 548.095 171.401 545.333V513C171.401 510.239 169.162 508 166.401 508Z" fill="#3498C9"/>
<path d="M209.25 508H176.4C173.639 508 171.4 510.239 171.4 513V545.333C171.4 548.095 173.639 550.333 176.4 550.333H209.25C212.012 550.333 214.25 548.095 214.25 545.333V513C214.25 510.239 212.012 508 209.25 508Z" fill="#3498C9"/>
<path d="M294.95 508H262.1C259.338 508 257.1 510.239 257.1 513V545.333C257.1 548.095 259.338 550.333 262.1 550.333H294.95C297.711 550.333 299.95 548.095 299.95 545.333V513C299.95 510.239 297.711 508 294.95 508Z" fill="#1A264F"/>
<path d="M509.198 508H476.348C473.586 508 471.348 510.239 471.348 513V545.333C471.348 548.095 473.586 550.333 476.348 550.333H509.198C511.959 550.333 514.198 548.095 514.198 545.333V513C514.198 510.239 511.959 508 509.198 508Z" fill="#FBEEBA"/>
<path d="M252.1 508H219.25C216.489 508 214.25 510.239 214.25 513V545.333C214.25 548.095 216.489 550.333 219.25 550.333H252.1C254.861 550.333 257.1 548.095 257.1 545.333V513C257.1 510.239 254.861 508 252.1 508Z" fill="#276A94"/>
<path d="M766.299 508H733.449C730.688 508 728.449 510.239 728.449 513V545.333C728.449 548.095 730.688 550.333 733.449 550.333H766.299C769.061 550.333 771.299 548.095 771.299 545.333V513C771.299 510.239 769.061 508 766.299 508Z" fill="#70B2B2"/>
<path d="M552.049 508H519.199C516.438 508 514.199 510.239 514.199 513V545.333C514.199 548.095 516.438 550.333 519.199 550.333H552.049C554.811 550.333 557.049 548.095 557.049 545.333V513C557.049 510.239 554.811 508 552.049 508Z" fill="#247E80"/>
<path d="M723.45 508H690.6C687.838 508 685.6 510.239 685.6 513V545.333C685.6 548.095 687.838 550.333 690.6 550.333H723.45C726.211 550.333 728.45 548.095 728.45 545.333V513C728.45 510.239 726.211 508 723.45 508Z" fill="#9BC8E2"/>
<path d="M594.901 508H562.051C559.289 508 557.051 510.239 557.051 513V545.333C557.051 548.095 559.289 550.333 562.051 550.333H594.901C597.662 550.333 599.901 548.095 599.901 545.333V513C599.901 510.239 597.662 508 594.901 508Z" fill="#085C8F"/>
<path d="M637.752 508H604.902C602.141 508 599.902 510.239 599.902 513V545.333C599.902 548.095 602.141 550.333 604.902 550.333H637.752C640.514 550.333 642.752 548.095 642.752 545.333V513C642.752 510.239 640.514 508 637.752 508Z" fill="#798163"/>
<path d="M680.6 508H647.75C644.989 508 642.75 510.239 642.75 513V545.333C642.75 548.095 644.989 550.333 647.75 550.333H680.6C683.361 550.333 685.6 548.095 685.6 545.333V513C685.6 510.239 683.361 508 680.6 508Z" fill="#2392A6"/>
<path d="M809.149 508H776.299C773.537 508 771.299 510.239 771.299 513V545.333C771.299 548.095 773.537 550.333 776.299 550.333H809.149C811.91 550.333 814.149 548.095 814.149 545.333V513C814.149 510.239 811.91 508 809.149 508Z" fill="#BCDDEA"/>
<path d="M80.7015 508H47.8516C45.0901 508 42.8516 510.239 42.8516 513V545.333C42.8516 548.095 45.0901 550.333 47.8516 550.333H80.7016C83.463 550.333 85.7016 548.095 85.7016 545.333V513C85.7016 510.239 83.463 508 80.7015 508Z" fill="#52A9D2"/>
<path d="M166.401 423.333H133.551C130.789 423.333 128.551 425.572 128.551 428.333V460.666C128.551 463.428 130.789 465.666 133.551 465.666H166.401C169.162 465.666 171.401 463.428 171.401 460.666V428.333C171.401 425.572 169.162 423.333 166.401 423.333Z" fill="#BB8B96"/>
<path d="M637.752 423.333H604.902C602.141 423.333 599.902 425.572 599.902 428.333V460.666C599.902 463.428 602.141 465.666 604.902 465.666H637.752C640.514 465.666 642.752 463.428 642.752 460.666V428.333C642.752 425.572 640.514 423.333 637.752 423.333Z" fill="#55A6A2"/>
<path d="M680.6 423.333H647.75C644.989 423.333 642.75 425.572 642.75 428.333V460.666C642.75 463.428 644.989 465.666 647.75 465.666H680.6C683.361 465.666 685.6 463.428 685.6 460.666V428.333C685.6 425.572 683.361 423.333 680.6 423.333Z" fill="#CED8CA"/>
<path d="M123.549 423.333H90.6992C87.9378 423.333 85.6992 425.572 85.6992 428.333V460.666C85.6992 463.428 87.9378 465.666 90.6992 465.666H123.549C126.311 465.666 128.549 463.428 128.549 460.666V428.333C128.549 425.572 126.311 423.333 123.549 423.333Z" fill="#F0BEC7"/>
<path d="M723.45 423.333H690.6C687.838 423.333 685.6 425.572 685.6 428.333V460.666C685.6 463.428 687.838 465.666 690.6 465.666H723.45C726.211 465.666 728.45 463.428 728.45 460.666V428.333C728.45 425.572 726.211 423.333 723.45 423.333Z" fill="#B5CEC9"/>
<path d="M594.901 423.333H562.051C559.289 423.333 557.051 425.572 557.051 428.333V460.666C557.051 463.428 559.289 465.666 562.051 465.666H594.901C597.662 465.666 599.901 463.428 599.901 460.666V428.333C599.901 425.572 597.662 423.333 594.901 423.333Z" fill="#697830"/>
<path d="M552.049 423.333H519.199C516.438 423.333 514.199 425.572 514.199 428.333V460.666C514.199 463.428 516.438 465.666 519.199 465.666H552.049C554.811 465.666 557.049 463.428 557.049 460.666V428.333C557.049 425.572 554.811 423.333 552.049 423.333Z" fill="#6898AB"/>
<path d="M423.496 423.333H390.646C387.885 423.333 385.646 425.572 385.646 428.333V460.666C385.646 463.428 387.885 465.666 390.646 465.666H423.496C426.258 465.666 428.496 463.428 428.496 460.666V428.333C428.496 425.572 426.258 423.333 423.496 423.333Z" fill="#BACED5"/>
<path d="M466.352 423.333H433.502C430.741 423.333 428.502 425.572 428.502 428.333V460.666C428.502 463.428 430.741 465.666 433.502 465.666H466.352C469.113 465.666 471.352 463.428 471.352 460.666V428.333C471.352 425.572 469.113 423.333 466.352 423.333Z" fill="#9ABDCA"/>
<path d="M209.25 423.333H176.4C173.639 423.333 171.4 425.572 171.4 428.333V460.666C171.4 463.428 173.639 465.666 176.4 465.666H209.25C212.012 465.666 214.25 463.428 214.25 460.666V428.333C214.25 425.572 212.012 423.333 209.25 423.333Z" fill="#F0C3CC"/>
<path d="M509.198 423.333H476.348C473.586 423.333 471.348 425.572 471.348 428.333V460.666C471.348 463.428 473.586 465.666 476.348 465.666H509.198C511.959 465.666 514.198 463.428 514.198 460.666V428.333C514.198 425.572 511.959 423.333 509.198 423.333Z" fill="#8CAFBA"/>
<path d="M380.649 423.333H347.799C345.037 423.333 342.799 425.572 342.799 428.333V460.666C342.799 463.428 345.037 465.666 347.799 465.666H380.649C383.41 465.666 385.649 463.428 385.649 460.666V428.333C385.649 425.572 383.41 423.333 380.649 423.333Z" fill="#7DA3AF"/>
<path d="M252.1 423.333H219.25C216.489 423.333 214.25 425.572 214.25 428.333V460.666C214.25 463.428 216.489 465.666 219.25 465.666H252.1C254.861 465.666 257.1 463.428 257.1 460.666V428.333C257.1 425.572 254.861 423.333 252.1 423.333Z" fill="#F8D7CC"/>
<path d="M337.799 423.333H304.949C302.188 423.333 299.949 425.572 299.949 428.333V460.666C299.949 463.428 302.188 465.666 304.949 465.666H337.799C340.561 465.666 342.799 463.428 342.799 460.666V428.333C342.799 425.572 340.561 423.333 337.799 423.333Z" fill="#196A76"/>
<path d="M294.95 423.333H262.1C259.338 423.333 257.1 425.572 257.1 428.333V460.666C257.1 463.428 259.338 465.666 262.1 465.666H294.95C297.711 465.666 299.95 463.428 299.95 460.666V428.333C299.95 425.572 297.711 423.333 294.95 423.333Z" fill="#085C8F"/>
<path d="M37.85 423.333H5C2.23858 423.333 0 425.572 0 428.333V460.666C0 463.428 2.23858 465.666 5 465.666H37.85C40.6114 465.666 42.85 463.428 42.85 460.666V428.333C42.85 425.572 40.6114 423.333 37.85 423.333Z" fill="#004B63"/>
<path d="M852 423.333H819.15C816.389 423.333 814.15 425.572 814.15 428.333V460.666C814.15 463.428 816.389 465.666 819.15 465.666H852C854.762 465.666 857 463.428 857 460.666V428.333C857 425.572 854.762 423.333 852 423.333Z" fill="#CDD8D6"/>
<path d="M766.299 423.333H733.449C730.688 423.333 728.449 425.572 728.449 428.333V460.666C728.449 463.428 730.688 465.666 733.449 465.666H766.299C769.061 465.666 771.299 463.428 771.299 460.666V428.333C771.299 425.572 769.061 423.333 766.299 423.333Z" fill="#7FA8AA"/>
<path d="M809.149 423.333H776.299C773.537 423.333 771.299 425.572 771.299 428.333V460.666C771.299 463.428 773.537 465.666 776.299 465.666H809.149C811.91 465.666 814.149 463.428 814.149 460.666V428.333C814.149 425.572 811.91 423.333 809.149 423.333Z" fill="#E0E5E3"/>
<path d="M80.7015 423.333H47.8516C45.0901 423.333 42.8516 425.572 42.8516 428.333V460.666C42.8516 463.428 45.0901 465.666 47.8516 465.666H80.7016C83.463 465.666 85.7016 463.428 85.7016 460.666V428.333C85.7016 425.572 83.463 423.333 80.7015 423.333Z" fill="#F5D4DB"/>
<path d="M123.549 465.667H90.6992C87.9378 465.667 85.6992 467.905 85.6992 470.667V503C85.6992 505.761 87.9378 508 90.6992 508H123.549C126.311 508 128.549 505.761 128.549 503V470.667C128.549 467.905 126.311 465.667 123.549 465.667Z" fill="#3EA0B4"/>
<path d="M380.649 465.667H347.799C345.037 465.667 342.799 467.905 342.799 470.667V503C342.799 505.761 345.037 508 347.799 508H380.649C383.41 508 385.649 505.761 385.649 503V470.667C385.649 467.905 383.41 465.667 380.649 465.667Z" fill="#649798"/>
<path d="M337.799 465.667H304.949C302.188 465.667 299.949 467.905 299.949 470.667V503C299.949 505.761 302.188 508 304.949 508H337.799C340.561 508 342.799 505.761 342.799 503V470.667C342.799 467.905 340.561 465.667 337.799 465.667Z" fill="#5D9187"/>
<path d="M423.496 465.667H390.646C387.885 465.667 385.646 467.905 385.646 470.667V503C385.646 505.761 387.885 508 390.646 508H423.496C426.258 508 428.496 505.761 428.496 503V470.667C428.496 467.905 426.258 465.667 423.496 465.667Z" fill="#D9E0DA"/>
<path d="M294.95 465.667H262.1C259.338 465.667 257.1 467.905 257.1 470.667V503C257.1 505.761 259.338 508 262.1 508H294.95C297.711 508 299.95 505.761 299.95 503V470.667C299.95 467.905 297.711 465.667 294.95 465.667Z" fill="#75A096"/>
<path d="M166.401 465.667H133.551C130.789 465.667 128.551 467.905 128.551 470.667V503C128.551 505.761 130.789 508 133.551 508H166.401C169.162 508 171.401 505.761 171.401 503V470.667C171.401 467.905 169.162 465.667 166.401 465.667Z" fill="#349570"/>
<path d="M209.25 465.667H176.4C173.639 465.667 171.4 467.905 171.4 470.667V503C171.4 505.761 173.639 508 176.4 508H209.25C212.012 508 214.25 505.761 214.25 503V470.667C214.25 467.905 212.012 465.667 209.25 465.667Z" fill="#398CBE"/>
<path d="M252.1 465.667H219.25C216.489 465.667 214.25 467.905 214.25 470.667V503C214.25 505.761 216.489 508 219.25 508H252.1C254.861 508 257.1 505.761 257.1 503V470.667C257.1 467.905 254.861 465.667 252.1 465.667Z" fill="#B2D7E7"/>
<path d="M466.352 465.667H433.502C430.741 465.667 428.502 467.905 428.502 470.667V503C428.502 505.761 430.741 508 433.502 508H466.352C469.113 508 471.352 505.761 471.352 503V470.667C471.352 467.905 469.113 465.667 466.352 465.667Z" fill="#CBDADA"/>
<path d="M509.198 465.667H476.348C473.586 465.667 471.348 467.905 471.348 470.667V503C471.348 505.761 473.586 508 476.348 508H509.198C511.959 508 514.198 505.761 514.198 503V470.667C514.198 467.905 511.959 465.667 509.198 465.667Z" fill="#679B99"/>
<path d="M723.45 465.667H690.6C687.838 465.667 685.6 467.905 685.6 470.667V503C685.6 505.761 687.838 508 690.6 508H723.45C726.211 508 728.45 505.761 728.45 503V470.667C728.45 467.905 726.211 465.667 723.45 465.667Z" fill="#649887"/>
<path d="M680.6 465.667H647.75C644.989 465.667 642.75 467.905 642.75 470.667V503C642.75 505.761 644.989 508 647.75 508H680.6C683.361 508 685.6 505.761 685.6 503V470.667C685.6 467.905 683.361 465.667 680.6 465.667Z" fill="#C8D7D5"/>
<path d="M594.901 465.667H562.051C559.289 465.667 557.051 467.905 557.051 470.667V503C557.051 505.761 559.289 508 562.051 508H594.901C597.662 508 599.901 505.761 599.901 503V470.667C599.901 467.905 597.662 465.667 594.901 465.667Z" fill="#E69787"/>
<path d="M552.049 465.667H519.199C516.438 465.667 514.199 467.905 514.199 470.667V503C514.199 505.761 516.438 508 519.199 508H552.049C554.811 508 557.049 505.761 557.049 503V470.667C557.049 467.905 554.811 465.667 552.049 465.667Z" fill="#CED8CA"/>
<path d="M637.752 465.667H604.902C602.141 465.667 599.902 467.905 599.902 470.667V503C599.902 505.761 602.141 508 604.902 508H637.752C640.514 508 642.752 505.761 642.752 503V470.667C642.752 467.905 640.514 465.667 637.752 465.667Z" fill="#DBE4E1"/>
<path d="M37.85 465.667H5C2.23858 465.667 0 467.905 0 470.666V503C0 505.761 2.23858 508 5 508H37.85C40.6114 508 42.85 505.761 42.85 503V470.667C42.85 467.905 40.6114 465.667 37.85 465.667Z" fill="#49859A"/>
<path d="M852 465.667H819.15C816.389 465.667 814.15 467.905 814.15 470.667V503C814.15 505.761 816.389 508 819.15 508H852C854.762 508 857 505.761 857 503V470.667C857 467.905 854.762 465.667 852 465.667Z" fill="#2191C4"/>
<path d="M766.299 465.667H733.449C730.688 465.667 728.449 467.905 728.449 470.667V503C728.449 505.761 730.688 508 733.449 508H766.299C769.061 508 771.299 505.761 771.299 503V470.667C771.299 467.905 769.061 465.667 766.299 465.667Z" fill="#D5BDD6"/>
<path d="M809.149 465.667H776.299C773.537 465.667 771.299 467.905 771.299 470.667V503C771.299 505.761 773.537 508 776.299 508H809.149C811.91 508 814.149 505.761 814.149 503V470.667C814.149 467.905 811.91 465.667 809.149 465.667Z" fill="#AAC3CC"/>
<path d="M80.7015 465.667H47.8516C45.0901 465.667 42.8516 467.905 42.8516 470.667V503C42.8516 505.761 45.0901 508 47.8516 508H80.7016C83.463 508 85.7016 505.761 85.7016 503V470.667C85.7016 467.905 83.463 465.667 80.7015 465.667Z" fill="#C5E0EE"/>
<path d="M166.401 381H133.551C130.789 381 128.551 383.239 128.551 386V418.334C128.551 421.095 130.789 423.334 133.551 423.334H166.401C169.162 423.334 171.401 421.095 171.401 418.334V386C171.401 383.239 169.162 381 166.401 381Z" fill="#996F25"/>
<path d="M680.6 381H647.75C644.989 381 642.75 383.239 642.75 386V418.334C642.75 421.095 644.989 423.334 647.75 423.334H680.6C683.361 423.334 685.6 421.095 685.6 418.334V386C685.6 383.239 683.361 381 680.6 381Z" fill="#9D1F24"/>
<path d="M123.549 381H90.6992C87.9378 381 85.6992 383.239 85.6992 386V418.334C85.6992 421.095 87.9378 423.334 90.6992 423.334H123.549C126.311 423.334 128.549 421.095 128.549 418.334V386C128.549 383.239 126.311 381 123.549 381Z" fill="#838047"/>
<path d="M723.45 381H690.6C687.838 381 685.6 383.239 685.6 386V418.334C685.6 421.095 687.838 423.334 690.6 423.334H723.45C726.211 423.334 728.45 421.095 728.45 418.334V386C728.45 383.239 726.211 381 723.45 381Z" fill="#E2E4D4"/>
<path d="M252.1 381H219.25C216.489 381 214.25 383.239 214.25 386V418.334C214.25 421.095 216.489 423.334 219.25 423.334H252.1C254.861 423.334 257.1 421.095 257.1 418.334V386C257.1 383.239 254.861 381 252.1 381Z" fill="#667794"/>
<path d="M209.25 381H176.4C173.639 381 171.4 383.239 171.4 386V418.334C171.4 421.095 173.639 423.334 176.4 423.334H209.25C212.012 423.334 214.25 421.095 214.25 418.334V386C214.25 383.239 212.012 381 209.25 381Z" fill="#C08CB7"/>
<path d="M466.352 381H433.502C430.741 381 428.502 383.239 428.502 386V418.334C428.502 421.095 430.741 423.334 433.502 423.334H466.352C469.113 423.334 471.352 421.095 471.352 418.334V386C471.352 383.239 469.113 381 466.352 381Z" fill="#0B3E85"/>
<path d="M509.198 381H476.348C473.586 381 471.348 383.239 471.348 386V418.334C471.348 421.095 473.586 423.334 476.348 423.334H509.198C511.959 423.334 514.198 421.095 514.198 418.334V386C514.198 383.239 511.959 381 509.198 381Z" fill="#0C81B6"/>
<path d="M637.752 381H604.902C602.141 381 599.902 383.239 599.902 386V418.334C599.902 421.095 602.141 423.334 604.902 423.334H637.752C640.514 423.334 642.752 421.095 642.752 418.334V386C642.752 383.239 640.514 381 637.752 381Z" fill="#D43225"/>
<path d="M594.901 381H562.051C559.289 381 557.051 383.239 557.051 386V418.334C557.051 421.095 559.289 423.334 562.051 423.334H594.901C597.662 423.334 599.901 421.095 599.901 418.334V386C599.901 383.239 597.662 381 594.901 381Z" fill="#C1D3DB"/>
<path d="M423.496 381H390.646C387.885 381 385.646 383.239 385.646 386V418.334C385.646 421.095 387.885 423.334 390.646 423.334H423.496C426.258 423.334 428.496 421.095 428.496 418.334V386C428.496 383.239 426.258 381 423.496 381Z" fill="#1C94C2"/>
<path d="M337.799 381H304.949C302.188 381 299.949 383.239 299.949 386V418.334C299.949 421.095 302.188 423.334 304.949 423.334H337.799C340.561 423.334 342.799 421.095 342.799 418.334V386C342.799 383.239 340.561 381 337.799 381Z" fill="#DEB015"/>
<path d="M380.649 381H347.799C345.037 381 342.799 383.239 342.799 386V418.334C342.799 421.095 345.037 423.334 347.799 423.334H380.649C383.41 423.334 385.649 421.095 385.649 418.334V386C385.649 383.239 383.41 381 380.649 381Z" fill="#95AFB6"/>
<path d="M294.95 381H262.1C259.338 381 257.1 383.239 257.1 386V418.334C257.1 421.095 259.338 423.334 262.1 423.334H294.95C297.711 423.334 299.95 421.095 299.95 418.334V386C299.95 383.239 297.711 381 294.95 381Z" fill="#9C7625"/>
<path d="M552.049 381H519.199C516.438 381 514.199 383.239 514.199 386V418.334C514.199 421.095 516.438 423.334 519.199 423.334H552.049C554.811 423.334 557.049 421.095 557.049 418.334V386C557.049 383.239 554.811 381 552.049 381Z" fill="#DDE5E6"/>
<path d="M37.85 381H5C2.23858 381 0 383.239 0 386V418.334C0 421.095 2.23858 423.334 5 423.334H37.85C40.6114 423.334 42.85 421.095 42.85 418.334V386C42.85 383.239 40.6114 381 37.85 381Z" fill="#ABD3DC"/>
<path d="M852 381H819.15C816.389 381 814.15 383.239 814.15 386V418.334C814.15 421.095 816.389 423.334 819.15 423.334H852C854.762 423.334 857 421.095 857 418.334V386C857 383.239 854.762 381 852 381Z" fill="#4A612E"/>
<path d="M809.149 381H776.299C773.537 381 771.299 383.239 771.299 386V418.334C771.299 421.095 773.537 423.334 776.299 423.334H809.149C811.91 423.334 814.149 421.095 814.149 418.334V386C814.149 383.239 811.91 381 809.149 381Z" fill="#949236"/>
<path d="M766.299 381H733.449C730.688 381 728.449 383.239 728.449 386V418.334C728.449 421.095 730.688 423.334 733.449 423.334H766.299C769.061 423.334 771.299 421.095 771.299 418.334V386C771.299 383.239 769.061 381 766.299 381Z" fill="#E3DEBB"/>
<path d="M80.7015 381H47.8516C45.0901 381 42.8516 383.239 42.8516 386V418.334C42.8516 421.095 45.0901 423.334 47.8516 423.334H80.7016C83.463 423.334 85.7016 421.095 85.7016 418.334V386C85.7016 383.239 83.463 381 80.7015 381Z" fill="#6DB0BB"/>
<path d="M852 550.333H819.15C816.389 550.333 814.15 552.572 814.15 555.333V587.667C814.15 590.428 816.389 592.667 819.15 592.667H852C854.762 592.667 857 590.428 857 587.667V555.333C857 552.572 854.762 550.333 852 550.333Z" fill="#EBC127"/>
<path d="M37.85 550.333H5C2.23858 550.333 0 552.572 0 555.333V587.667C0 590.428 2.23858 592.667 5 592.667H37.85C40.6114 592.667 42.85 590.428 42.85 587.667V555.333C42.85 552.572 40.6114 550.333 37.85 550.333Z" fill="#71A9D0"/>
<path d="M380.649 550.333H347.799C345.037 550.333 342.799 552.572 342.799 555.333V587.667C342.799 590.428 345.037 592.667 347.799 592.667H380.649C383.41 592.667 385.649 590.428 385.649 587.667V555.333C385.649 552.572 383.41 550.333 380.649 550.333Z" fill="#5EA6B4"/>
<path d="M423.496 550.333H390.646C387.885 550.333 385.646 552.572 385.646 555.333V587.667C385.646 590.428 387.885 592.667 390.646 592.667H423.496C426.258 592.667 428.496 590.428 428.496 587.667V555.333C428.496 552.572 426.258 550.333 423.496 550.333Z" fill="#385A2D"/>
<path d="M509.198 550.333H476.348C473.586 550.333 471.348 552.572 471.348 555.333V587.667C471.348 590.428 473.586 592.667 476.348 592.667H509.198C511.959 592.667 514.198 590.428 514.198 587.667V555.333C514.198 552.572 511.959 550.333 509.198 550.333Z" fill="#6F9299"/>
<path d="M337.799 550.333H304.949C302.188 550.333 299.949 552.572 299.949 555.333V587.667C299.949 590.428 302.188 592.667 304.949 592.667H337.799C340.561 592.667 342.799 590.428 342.799 587.667V555.333C342.799 552.572 340.561 550.333 337.799 550.333Z" fill="#3B548B"/>
<path d="M166.401 550.333H133.551C130.789 550.333 128.551 552.572 128.551 555.333V587.667C128.551 590.428 130.789 592.667 133.551 592.667H166.401C169.162 592.667 171.401 590.428 171.401 587.667V555.333C171.401 552.572 169.162 550.333 166.401 550.333Z" fill="#B57D2B"/>
<path d="M552.049 550.333H519.199C516.438 550.333 514.199 552.572 514.199 555.333V587.667C514.199 590.428 516.438 592.667 519.199 592.667H552.049C554.811 592.667 557.049 590.428 557.049 587.667V555.333C557.049 552.572 554.811 550.333 552.049 550.333Z" fill="#2F92C0"/>
<path d="M209.25 550.333H176.4C173.639 550.333 171.4 552.572 171.4 555.333V587.667C171.4 590.428 173.639 592.667 176.4 592.667H209.25C212.012 592.667 214.25 590.428 214.25 587.667V555.333C214.25 552.572 212.012 550.333 209.25 550.333Z" fill="#61A6AF"/>
<path d="M294.95 550.333H262.1C259.338 550.333 257.1 552.572 257.1 555.333V587.667C257.1 590.428 259.338 592.667 262.1 592.667H294.95C297.711 592.667 299.95 590.428 299.95 587.667V555.333C299.95 552.572 297.711 550.333 294.95 550.333Z" fill="#E8CB98"/>
<path d="M252.1 550.333H219.25C216.489 550.333 214.25 552.572 214.25 555.333V587.667C214.25 590.428 216.489 592.667 219.25 592.667H252.1C254.861 592.667 257.1 590.428 257.1 587.667V555.333C257.1 552.572 254.861 550.333 252.1 550.333Z" fill="#D5BDD6"/>
<path d="M766.299 550.333H733.449C730.688 550.333 728.449 552.572 728.449 555.333V587.667C728.449 590.428 730.688 592.667 733.449 592.667H766.299C769.061 592.667 771.299 590.428 771.299 587.667V555.333C771.299 552.572 769.061 550.333 766.299 550.333Z" fill="#555928"/>
<path d="M809.149 550.333H776.299C773.537 550.333 771.299 552.572 771.299 555.333V587.667C771.299 590.428 773.537 592.667 776.299 592.667H809.149C811.91 592.667 814.149 590.428 814.149 587.667V555.333C814.149 552.572 811.91 550.333 809.149 550.333Z" fill="#509936"/>
<path d="M594.901 550.333H562.051C559.289 550.333 557.051 552.572 557.051 555.333V587.667C557.051 590.428 559.289 592.667 562.051 592.667H594.901C597.662 592.667 599.901 590.428 599.901 587.667V555.333C599.901 552.572 597.662 550.333 594.901 550.333Z" fill="#113672"/>
<path d="M723.45 550.333H690.6C687.838 550.333 685.6 552.572 685.6 555.333V587.667C685.6 590.428 687.838 592.667 690.6 592.667H723.45C726.211 592.667 728.45 590.428 728.45 587.667V555.333C728.45 552.572 726.211 550.333 723.45 550.333Z" fill="#D2D5E9"/>
<path d="M637.752 550.333H604.902C602.141 550.333 599.902 552.572 599.902 555.333V587.667C599.902 590.428 602.141 592.667 604.902 592.667H637.752C640.514 592.667 642.752 590.428 642.752 587.667V555.333C642.752 552.572 640.514 550.333 637.752 550.333Z" fill="#A06458"/>
<path d="M680.6 550.333H647.75C644.989 550.333 642.75 552.572 642.75 555.333V587.667C642.75 590.428 644.989 592.667 647.75 592.667H680.6C683.361 592.667 685.6 590.428 685.6 587.667V555.333C685.6 552.572 683.361 550.333 680.6 550.333Z" fill="#5E573F"/>
<path d="M466.352 550.333H433.502C430.741 550.333 428.502 552.572 428.502 555.333V587.667C428.502 590.428 430.741 592.667 433.502 592.667H466.352C469.113 592.667 471.352 590.428 471.352 587.667V555.333C471.352 552.572 469.113 550.333 466.352 550.333Z" fill="#51708B"/>
<path d="M80.7015 550.333H47.8516C45.0901 550.333 42.8516 552.572 42.8516 555.333V587.667C42.8516 590.428 45.0901 592.667 47.8516 592.667H80.7016C83.463 592.667 85.7016 590.428 85.7016 587.667V555.333C85.7016 552.572 83.463 550.333 80.7015 550.333Z" fill="#90C6DC"/>
<path d="M123.549 550.333H90.6992C87.9378 550.333 85.6992 552.572 85.6992 555.333V587.667C85.6992 590.428 87.9378 592.667 90.6992 592.667H123.549C126.311 592.667 128.549 590.428 128.549 587.667V555.333C128.549 552.572 126.311 550.333 123.549 550.333Z" fill="#1D96B6"/>
<path d="M680.6 338.667H647.75C644.989 338.667 642.75 340.905 642.75 343.666V376C642.75 378.761 644.989 381 647.75 381H680.6C683.361 381 685.6 378.761 685.6 376V343.667C685.6 340.905 683.361 338.667 680.6 338.667Z" fill="#67ADBE"/>
<path d="M123.549 338.667H90.6992C87.9378 338.667 85.6992 340.905 85.6992 343.666V376C85.6992 378.761 87.9378 381 90.6992 381H123.549C126.311 381 128.549 378.761 128.549 376V343.667C128.549 340.905 126.311 338.667 123.549 338.667Z" fill="#6478B2"/>
<path d="M723.45 338.667H690.6C687.838 338.667 685.6 340.905 685.6 343.666V376C685.6 378.761 687.838 381 690.6 381H723.45C726.211 381 728.45 378.761 728.45 376V343.667C728.45 340.905 726.211 338.667 723.45 338.667Z" fill="#67AEC3"/>
<path d="M166.401 338.667H133.551C130.789 338.667 128.551 340.905 128.551 343.666V376C128.551 378.761 130.789 381 133.551 381H166.401C169.162 381 171.401 378.761 171.401 376V343.667C171.401 340.905 169.162 338.667 166.401 338.667Z" fill="#65749C"/>
<path d="M466.352 338.667H433.502C430.741 338.667 428.502 340.905 428.502 343.666V376C428.502 378.761 430.741 381 433.502 381H466.352C469.113 381 471.352 378.761 471.352 376V343.667C471.352 340.905 469.113 338.667 466.352 338.667Z" fill="#128BA7"/>
<path d="M509.198 338.667H476.348C473.586 338.667 471.348 340.905 471.348 343.666V376C471.348 378.761 473.586 381 476.348 381H509.198C511.959 381 514.198 378.761 514.198 376V343.667C514.198 340.905 511.959 338.667 509.198 338.667Z" fill="#7EB6C5"/>
<path d="M552.049 338.667H519.199C516.438 338.667 514.199 340.905 514.199 343.666V376C514.199 378.761 516.438 381 519.199 381H552.049C554.811 381 557.049 378.761 557.049 376V343.667C557.049 340.905 554.811 338.667 552.049 338.667Z" fill="#70ACB9"/>
<path d="M594.901 338.667H562.051C559.289 338.667 557.051 340.905 557.051 343.666V376C557.051 378.761 559.289 381 562.051 381H594.901C597.662 381 599.901 378.761 599.901 376V343.667C599.901 340.905 597.662 338.667 594.901 338.667Z" fill="#0F7289"/>
<path d="M252.1 338.667H219.25C216.489 338.667 214.25 340.905 214.25 343.666V376C214.25 378.761 216.489 381 219.25 381H252.1C254.861 381 257.1 378.761 257.1 376V343.667C257.1 340.905 254.861 338.667 252.1 338.667Z" fill="#38729F"/>
<path d="M337.799 338.667H304.949C302.188 338.667 299.949 340.905 299.949 343.666V376C299.949 378.761 302.188 381 304.949 381H337.799C340.561 381 342.799 378.761 342.799 376V343.667C342.799 340.905 340.561 338.667 337.799 338.667Z" fill="#C3D1D7"/>
<path d="M294.95 338.667H262.1C259.338 338.667 257.1 340.905 257.1 343.666V376C257.1 378.761 259.338 381 262.1 381H294.95C297.711 381 299.95 378.761 299.95 376V343.667C299.95 340.905 297.711 338.667 294.95 338.667Z" fill="#78AED9"/>
<path d="M423.496 338.667H390.646C387.885 338.667 385.646 340.905 385.646 343.666V376C385.646 378.761 387.885 381 390.646 381H423.496C426.258 381 428.496 378.761 428.496 376V343.667C428.496 340.905 426.258 338.667 423.496 338.667Z" fill="#B0C8D7"/>
<path d="M380.649 338.667H347.799C345.037 338.667 342.799 340.905 342.799 343.666V376C342.799 378.761 345.037 381 347.799 381H380.649C383.41 381 385.649 378.761 385.649 376V343.667C385.649 340.905 383.41 338.667 380.649 338.667Z" fill="#148299"/>
<path d="M209.25 338.667H176.4C173.639 338.667 171.4 340.905 171.4 343.666V376C171.4 378.761 173.639 381 176.4 381H209.25C212.012 381 214.25 378.761 214.25 376V343.667C214.25 340.905 212.012 338.667 209.25 338.667Z" fill="#DBEFF9"/>
<path d="M637.752 338.667H604.902C602.141 338.667 599.902 340.905 599.902 343.666V376C599.902 378.761 602.141 381 604.902 381H637.752C640.514 381 642.752 378.761 642.752 376V343.667C642.752 340.905 640.514 338.667 637.752 338.667Z" fill="#B2B267"/>
<path d="M37.85 338.667H5C2.23858 338.667 0 340.905 0 343.666V376C0 378.761 2.23858 381 5 381H37.85C40.6114 381 42.85 378.761 42.85 376V343.667C42.85 340.905 40.6114 338.667 37.85 338.667Z" fill="#986062"/>
<path d="M809.149 338.667H776.299C773.537 338.667 771.299 340.905 771.299 343.666V376C771.299 378.761 773.537 381 776.299 381H809.149C811.91 381 814.149 378.761 814.149 376V343.667C814.149 340.905 811.91 338.667 809.149 338.667Z" fill="#3495AD"/>
<path d="M852 338.667H819.15C816.389 338.667 814.15 340.905 814.15 343.666V376C814.15 378.761 816.389 381 819.15 381H852C854.762 381 857 378.761 857 376V343.667C857 340.905 854.762 338.667 852 338.667Z" fill="#147388"/>
<path d="M766.299 338.667H733.449C730.688 338.667 728.449 340.905 728.449 343.666V376C728.449 378.761 730.688 381 733.449 381H766.299C769.061 381 771.299 378.761 771.299 376V343.667C771.299 340.905 769.061 338.667 766.299 338.667Z" fill="#5BA5A5"/>
<path d="M80.7015 338.667H47.8516C45.0901 338.667 42.8516 340.905 42.8516 343.666V376C42.8516 378.761 45.0901 381 47.8516 381H80.7016C83.463 381 85.7016 378.761 85.7016 376V343.667C85.7016 340.905 83.463 338.667 80.7015 338.667Z" fill="#C5DBE4"/>
</svg>
