<svg width="800" height="598" viewBox="0 0 800 598" fill="none" xmlns="http://www.w3.org/2000/svg">
<rect x="140" y="10" width="130" height="141.607" fill="#89513A"/>
<rect x="10" y="10" width="130" height="141.607" fill="#9F001E"/>
<rect x="10" y="151.607" width="130" height="141.607" fill="#C699B5"/>
<rect x="140" y="151.607" width="130" height="141.607" fill="#992F2D"/>
<rect x="140" y="293.214" width="130" height="141.607" fill="#935A48"/>
<rect x="10" y="293.214" width="130" height="141.607" fill="#DB6760"/>
<rect x="140" y="434.821" width="130" height="141.607" fill="#A63863"/>
<rect x="10" y="434.821" width="130" height="141.607" fill="#9B1D1A"/>
<rect x="270" y="10" width="130" height="141.607" fill="#A09384"/>
<rect x="270" y="151.607" width="130" height="141.607" fill="#BA6774"/>
<rect x="270" y="293.214" width="130" height="141.607" fill="#D79372"/>
<rect x="270" y="434.821" width="130" height="141.607" fill="#9E2D29"/>
<rect x="400" y="10" width="130" height="141.607" fill="#BE8062"/>
<rect x="400" y="151.607" width="130" height="141.607" fill="#C83F49"/>
<rect x="400" y="293.214" width="130" height="141.607" fill="#954335"/>
<rect x="400" y="434.821" width="130" height="141.607" fill="#49363B"/>
<rect x="530" y="10" width="130" height="141.607" fill="#A51A22"/>
<rect x="530" y="151.607" width="130" height="141.607" fill="#C12A2B"/>
<rect x="530" y="293.214" width="130" height="141.607" fill="#CF867B"/>
<rect x="530" y="434.821" width="130" height="141.607" fill="#B82440"/>
<rect x="660" y="10" width="130" height="141.607" fill="#CF867B"/>
<rect x="660" y="151.607" width="130" height="141.607" fill="#686C75"/>
<rect x="660" y="293.214" width="130" height="141.607" fill="#B95B5D"/>
<rect x="660" y="434.821" width="130" height="141.607" fill="#94435F"/>
<rect x="10" y="10" width="780" height="578" stroke="#5EE3D4" stroke-width="20"/>
</svg>
