<svg width="525" height="373" viewBox="0 0 525 373" fill="none" xmlns="http://www.w3.org/2000/svg">
<rect x="10" y="10" width="505" height="353" rx="50" fill="white" fill-opacity="0.5" stroke="#5EE3D4" stroke-width="20"/>
<rect x="290" y="36" width="60" height="60" rx="15" fill="#CFDDE3"/>
<rect x="350" y="36" width="60" height="60" rx="15" fill="#F5F4F4"/>
<rect x="410" y="36" width="60" height="60" rx="15" fill="#C3DCDD"/>
<rect x="299" y="163" width="60" height="60" rx="15" fill="#AFB78B"/>
<rect x="359" y="163" width="60" height="60" rx="15" fill="#B7D7C8"/>
<rect x="419" y="163" width="60" height="60" rx="15" fill="#96C0D0"/>
<rect x="249" y="281" width="60" height="60" rx="15" fill="#7BB5A8"/>
<rect x="309" y="281" width="60" height="60" rx="15" fill="#C1DDD9"/>
<rect x="369" y="281" width="60" height="60" rx="15" fill="#AFC0D1"/>
<rect x="45" y="221" width="60" height="60" rx="15" fill="#A8D0BD"/>
<rect x="105" y="221" width="60" height="60" rx="15" fill="white"/>
<rect x="105.5" y="221.5" width="59" height="59" rx="14.5" stroke="black" stroke-opacity="0.2"/>
<rect x="165" y="221" width="60" height="60" rx="15" fill="#C3B7CD"/>
<rect x="70" y="112" width="60" height="60" rx="15" fill="#C9CCB2"/>
<rect x="130" y="112" width="60" height="60" rx="15" fill="#DFE9ED"/>
<rect x="190" y="112" width="60" height="60" rx="15" fill="#B8C7D5"/>
</svg>
