<svg width="840" height="610" viewBox="0 0 840 610" fill="none" xmlns="http://www.w3.org/2000/svg">
<rect x="140" width="140" height="152.5" rx="15" fill="#89513A"/>
<rect width="140" height="152.5" rx="15" fill="#9F001E"/>
<rect y="152.5" width="140" height="152.5" rx="15" fill="#C699B5"/>
<rect x="140" y="152.5" width="140" height="152.5" rx="15" fill="#992F2D"/>
<rect x="140" y="305" width="140" height="152.5" rx="15" fill="#935A48"/>
<rect y="305" width="140" height="152.5" rx="15" fill="#DB6760"/>
<rect x="140" y="457.5" width="140" height="152.5" rx="15" fill="#A63863"/>
<rect y="457.5" width="140" height="152.5" rx="15" fill="#9B1D1A"/>
<rect x="280" width="140" height="152.5" rx="15" fill="#A09384"/>
<rect x="280" y="152.5" width="140" height="152.5" rx="15" fill="#BA6774"/>
<rect x="280" y="305" width="140" height="152.5" rx="15" fill="#D79372"/>
<rect x="280" y="457.5" width="140" height="152.5" rx="15" fill="#9E2D29"/>
<rect x="420" width="140" height="152.5" rx="15" fill="#BE8062"/>
<rect x="420" y="152.5" width="140" height="152.5" rx="15" fill="#C83F49"/>
<rect x="420" y="305" width="140" height="152.5" rx="15" fill="#954335"/>
<rect x="420" y="457.5" width="140" height="152.5" rx="15" fill="#49363B"/>
<rect x="560" width="140" height="152.5" rx="15" fill="#A51A22"/>
<rect x="560" y="152.5" width="140" height="152.5" rx="15" fill="#C12A2B"/>
<rect x="560" y="305" width="140" height="152.5" rx="15" fill="#CF867B"/>
<rect x="560" y="457.5" width="140" height="152.5" rx="15" fill="#B82440"/>
<rect x="700" width="140" height="152.5" rx="15" fill="#CF867B"/>
<rect x="700" y="152.5" width="140" height="152.5" rx="15" fill="#686C75"/>
<rect x="700" y="305" width="140" height="152.5" rx="15" fill="#B95B5D"/>
<rect x="700" y="457.5" width="140" height="152.5" rx="15" fill="#94435F"/>
</svg>
