<svg width="840" height="610" viewBox="0 0 840 610" fill="none" xmlns="http://www.w3.org/2000/svg">
<rect x="140" width="140" height="152.5" rx="15" fill="#E3413C"/>
<rect width="140" height="152.5" rx="15" fill="#DEB49E"/>
<rect y="152.5" width="140" height="152.5" rx="15" fill="#DC484B"/>
<rect x="140" y="152.5" width="140" height="152.5" rx="15" fill="#A46C59"/>
<rect x="140" y="305" width="140" height="152.5" rx="15" fill="#D92838"/>
<rect y="305" width="140" height="152.5" rx="15" fill="#EF876A"/>
<rect x="140" y="457.5" width="140" height="152.5" rx="15" fill="#DF5151"/>
<rect y="457.5" width="140" height="152.5" rx="15" fill="#E9BFD6"/>
<rect x="280" width="140" height="152.5" rx="15" fill="#DF5C5A"/>
<rect x="280" y="152.5" width="140" height="152.5" rx="15" fill="#D57B6F"/>
<rect x="280" y="305" width="140" height="152.5" rx="15" fill="#E04062"/>
<rect x="280" y="457.5" width="140" height="152.5" rx="15" fill="#F29265"/>
<rect x="420" width="140" height="152.5" rx="15" fill="#E23E46"/>
<rect x="420" y="152.5" width="140" height="152.5" rx="15" fill="#E56D92"/>
<rect x="420" y="305" width="140" height="152.5" rx="15" fill="#D6916F"/>
<rect x="420" y="457.5" width="140" height="152.5" rx="15" fill="#C89EBC"/>
<rect x="560" width="140" height="152.5" rx="15" fill="#DA8C96"/>
<rect x="560" y="152.5" width="140" height="152.5" rx="15" fill="#DC1A3B"/>
<rect x="560" y="305" width="140" height="152.5" rx="15" fill="#E37D6F"/>
<rect x="560" y="457.5" width="140" height="152.5" rx="15" fill="#E04062"/>
<rect x="700" width="140" height="152.5" rx="15" fill="#D9D9D9"/>
<rect x="700" y="152.5" width="140" height="152.5" rx="15" fill="#D5A986"/>
<rect x="700" y="305" width="140" height="152.5" rx="15" fill="#ABC1B1"/>
<rect x="700" y="457.5" width="140" height="152.5" rx="15" fill="#E4565C"/>
</svg>
