<svg width="453" height="436" viewBox="0 0 453 436" fill="none" xmlns="http://www.w3.org/2000/svg">
<path d="M400 3H53C25.3858 3 3 25.3858 3 53V383C3 410.614 25.3857 433 52.9999 433H152.015C179.629 433 202.015 410.614 202.015 383V323.5C202.015 295.886 224.401 273.5 252.015 273.5H400C427.614 273.5 450 251.114 450 223.5V53C450 25.3858 427.614 3 400 3Z" fill="white" fill-opacity="0.5" stroke="#8D8D8D" stroke-width="5"/>
<rect x="34" y="63" width="60" height="60" rx="15" fill="#9F343C"/>
<rect x="94" y="63" width="60" height="60" rx="15" fill="#EABF45"/>
<rect x="154" y="63" width="60" height="60" rx="15" fill="#002D22"/>
<rect x="246" y="63" width="60" height="60" rx="15" fill="#B54575"/>
<rect x="306" y="63" width="60" height="60" rx="15" fill="#7E5C33"/>
<rect x="366" y="63" width="60" height="60" rx="15" fill="#443567"/>
<rect x="187" y="148" width="60" height="60" rx="15" fill="#7E1E11"/>
<rect x="247" y="148" width="60" height="60" rx="15" fill="#575641"/>
<rect x="307" y="148" width="60" height="60" rx="15" fill="#153351"/>
<rect x="14" y="224" width="60" height="60" rx="15" fill="#751F1D"/>
<rect x="74" y="224" width="60" height="60" rx="15" fill="#136742"/>
<rect x="134" y="224" width="60" height="60" rx="15" fill="#1F3F54"/>
<rect x="14" y="317" width="60" height="60" rx="15" fill="#4F2310"/>
<rect x="74" y="317" width="60" height="60" rx="15" fill="#535641"/>
<rect x="134" y="317" width="60" height="60" rx="15" fill="#0F334E"/>
</svg>
