<svg width="358" height="775" fill="none" xmlns="http://www.w3.org/2000/svg">
    <g filter="url(#a)">
        <g filter="url(#b)">
            <rect x="4" width="350" height="766.844" rx="140" fill="#fff"/>
        </g>
        <path d="M153.443 576.767h5.32v8.12h-5.32v-8.12Zm16.24-19h5.32v28.04h-5.32v-28.04Zm-21.36 32.16h27.48v4.24h-27.48v-4.24Zm0-6.76h5.32v7.88h-5.32v-7.88Zm-4-4.8-.64-4.24c6.76 0 15.8-.08 23.56-1.08l.32 3.8c-7.88 1.32-16.56 1.52-23.24 1.52Zm18.36.92h8.16v3.64h-8.16v-3.64Zm-7.08-20.24c5.4 0 9.2 2.68 9.2 6.6 0 3.96-3.8 6.6-9.2 6.6-5.44 0-9.24-2.64-9.24-6.6 0-3.92 3.8-6.6 9.24-6.6Zm0 3.88c-2.48 0-4.2.92-4.2 2.72 0 1.8 1.72 2.72 4.2 2.72 2.44 0 4.16-.92 4.16-2.72 0-1.8-1.72-2.72-4.16-2.72Zm45.917 2.96h6.8v4.24h-6.8v-4.24Zm-.08 7.4h6.76v4.24h-6.76v-4.24Zm-20.72-12.2h20.32v4.2h-20.32v-4.2Zm10.4 5.48c5.08 0 8.68 2.8 8.68 6.92s-3.6 6.92-8.68 6.92-8.68-2.8-8.68-6.92 3.6-6.92 8.68-6.92Zm0 3.96c-2.24 0-3.72 1-3.72 2.96s1.48 2.96 3.72 2.96c2.2 0 3.76-1 3.76-2.96s-1.56-2.96-3.76-2.96Zm-2.64-13.08h5.32v6.56h-5.32v-6.56Zm17.8.32h5.32v23.6h-5.32v-23.6Zm-7.2 24.04c7.8 0 12.68 2.44 12.68 6.52s-4.88 6.48-12.68 6.48c-7.84 0-12.68-2.4-12.68-6.48s4.84-6.52 12.68-6.52Zm0 4.08c-4.56 0-7.08.72-7.08 2.44 0 1.68 2.52 2.48 7.08 2.48 4.56 0 7.04-.8 7.04-2.48 0-1.72-2.48-2.44-7.04-2.44Z" fill="#000"/>
        <circle cx="179" cy="258" r="132" fill="#fff" stroke="#000" stroke-width="6"/>
    </g>
    <defs>
        <filter id="a" x="0" y="0" width="358" height="774.844" filterUnits="userSpaceOnUse" color-interpolation-filters="sRGB">
            <feFlood flood-opacity="0" result="BackgroundImageFix"/>
            <feColorMatrix in="SourceAlpha" values="0 0 0 0 0 0 0 0 0 0 0 0 0 0 0 0 0 0 127 0" result="hardAlpha"/>
            <feOffset dy="4"/>
            <feGaussianBlur stdDeviation="2"/>
            <feComposite in2="hardAlpha" operator="out"/>
            <feColorMatrix values="0 0 0 0 0 0 0 0 0 0 0 0 0 0 0 0 0 0 0.25 0"/>
            <feBlend in2="BackgroundImageFix" result="effect1_dropShadow_394_2833"/>
            <feBlend in="SourceGraphic" in2="effect1_dropShadow_394_2833" result="shape"/>
        </filter>
        <filter id="b" x="4" y="0" width="350" height="766.844" filterUnits="userSpaceOnUse" color-interpolation-filters="sRGB">
            <feFlood flood-opacity="0" result="BackgroundImageFix"/>
            <feBlend in="SourceGraphic" in2="BackgroundImageFix" result="shape"/>
            <feColorMatrix in="SourceAlpha" values="0 0 0 0 0 0 0 0 0 0 0 0 0 0 0 0 0 0 127 0" result="hardAlpha"/>
            <feOffset/>
            <feGaussianBlur stdDeviation="60"/>
            <feComposite in2="hardAlpha" operator="arithmetic" k2="-1" k3="1"/>
            <feColorMatrix values="0 0 0 0 1 0 0 0 0 1 0 0 0 0 1 0 0 0 0.7 0"/>
            <feBlend in2="shape" result="effect1_innerShadow_394_2833"/>
        </filter>
    </defs>
</svg>
