<svg width="143" height="177" viewBox="0 0 143 177" fill="none" xmlns="http://www.w3.org/2000/svg">
<path d="M89.6986 135.479L88.333 130.669L86.3823 131.223L85.3684 132.979L89.6986 135.479ZM53.3014 135.479L57.6316 132.979L56.6177 131.223L54.667 130.669L53.3014 135.479ZM71.5 167L67.1699 169.5L71.5 177L75.8301 169.5L71.5 167ZM133 71.5C133 99.6227 114.12 123.349 88.333 130.669L91.0641 140.289C121.038 131.78 143 104.211 143 71.5H133ZM71.5 10C105.466 10 133 37.5345 133 71.5H143C143 32.0116 110.988 0 71.5 0V10ZM10 71.5C10 37.5345 37.5345 10 71.5 10V0C32.0116 0 0 32.0116 0 71.5H10ZM54.667 130.669C28.8804 123.349 10 99.6227 10 71.5H0C0 104.211 21.9623 131.78 51.9359 140.289L54.667 130.669ZM75.8301 164.5L57.6316 132.979L48.9713 137.979L67.1699 169.5L75.8301 164.5ZM85.3684 132.979L67.1699 164.5L75.8301 169.5L94.0287 137.979L85.3684 132.979Z" fill="#5EE3D4"/>
</svg>
