<svg width="346" height="464" viewBox="0 0 346 464" fill="none" xmlns="http://www.w3.org/2000/svg">
<rect x="10" y="10" width="326" height="444" rx="50" fill="white" fill-opacity="0.5" stroke="#5EE3D4" stroke-width="20"/>
<rect x="139" y="42" width="60" height="60" rx="15" fill="#D4BF45"/>
<rect x="199" y="42" width="60" height="60" rx="15" fill="#5786A8"/>
<rect x="259" y="42" width="60" height="60" rx="15" fill="#BCB0C2"/>
<rect x="39" y="123" width="60" height="60" rx="15" fill="#EC7E01"/>
<rect x="99" y="123" width="60" height="60" rx="15" fill="#E4CB3D"/>
<rect x="159" y="123" width="60" height="60" rx="15" fill="#059EAB"/>
<rect x="139" y="204" width="60" height="60" rx="15" fill="#D5697F"/>
<rect x="199" y="204" width="60" height="60" rx="15" fill="#BBA172"/>
<rect x="259" y="204" width="60" height="60" rx="15" fill="#4FA048"/>
<rect x="79" y="285" width="60" height="60" rx="15" fill="#CC2E18"/>
<rect x="139" y="285" width="60" height="60" rx="15" fill="#ECC8CF"/>
<rect x="199" y="285" width="60" height="60" rx="15" fill="#0075AB"/>
<rect x="29" y="366" width="60" height="60" rx="15" fill="#D5697F"/>
<rect x="89" y="366" width="60" height="60" rx="15" fill="#EE9C1F"/>
<rect x="149" y="366" width="60" height="60" rx="15" fill="#106A99"/>
</svg>
