<svg width="439" height="926" fill="none" xmlns="http://www.w3.org/2000/svg">
    <g filter="url(#a)">
        <rect x="15" y="20" width="409" height="896" rx="190" fill="#fff"/>
    </g>
    <path d="M163.556 668.2h4.25v7.5c0 10.65-4.75 20.85-12.6 24.85l-3.2-4.2c7.1-3.45 11.55-12.2 11.55-20.65v-7.5Zm1 0h4.2v7.5c0 8.15 4.3 16.45 11.15 19.85l-3.2 4.15c-7.6-3.95-12.15-13.7-12.15-24v-7.5Zm18.4-3.75h5.25v45.7h-5.25v-45.7Zm4.05 18.1h8.3v4.35h-8.3v-4.35Zm42.196-18.1h5.25v26.65h-5.25v-26.65Zm3.8 11.15h7.9v4.35h-7.9v-4.35Zm-16.65-8.4h5.5c0 11.85-7.8 20.1-21.25 23.65l-2.15-4.05c11.6-3.05 17.9-9.35 17.9-17.1v-2.5Zm-15.75 0h18.8v4.2h-18.8v-4.2Zm3.8 25.95h30.05v17h-5.25v-12.8h-24.8v-4.2ZM270.498 675h8.9v4.25h-8.9V675Zm-.05 9h8.85v4.2h-8.85V684Zm-25.6-14.95h25.4v4.2h-25.4v-4.2Zm12.9 6.2c6.2 0 10.5 3.4 10.5 8.5s-4.3 8.5-10.5 8.5c-6.15 0-10.5-3.4-10.5-8.5s4.35-8.5 10.5-8.5Zm0 3.95c-3.35 0-5.6 1.7-5.6 4.55 0 2.85 2.25 4.55 5.6 4.55 3.35 0 5.65-1.7 5.65-4.55 0-2.85-2.3-4.55-5.65-4.55Zm-2.55-15.15h5.2v7.9h-5.2v-7.9Zm22.2.4h5.25v29.35h-5.25v-29.35Zm-9.95 29.85c9.55 0 15.4 2.95 15.4 7.9 0 5-5.85 7.9-15.4 7.9s-15.4-2.9-15.4-7.9c0-4.95 5.85-7.9 15.4-7.9Zm0 4.05c-6.25 0-9.9 1.3-9.9 3.85s3.65 3.9 9.9 3.9 9.9-1.35 9.9-3.9-3.65-3.85-9.9-3.85Z" fill="#000"/>
    <path fill="#fff" stroke="#000" stroke-width="6" d="M76 182h288v294H76z"/>
    <defs>
        <filter id="a" x="0" y="0" width="439" height="926" filterUnits="userSpaceOnUse" color-interpolation-filters="sRGB">
            <feFlood flood-opacity="0" result="BackgroundImageFix"/>
            <feColorMatrix in="SourceAlpha" values="0 0 0 0 0 0 0 0 0 0 0 0 0 0 0 0 0 0 127 0" result="hardAlpha"/>
            <feOffset dy="-5"/>
            <feGaussianBlur stdDeviation="7.5"/>
            <feComposite in2="hardAlpha" operator="out"/>
            <feColorMatrix values="0 0 0 0 0 0 0 0 0 0 0 0 0 0 0 0 0 0 0.25 0"/>
            <feBlend in2="BackgroundImageFix" result="effect1_dropShadow_394_2836"/>
            <feBlend in="SourceGraphic" in2="effect1_dropShadow_394_2836" result="shape"/>
        </filter>
    </defs>
</svg>
