<svg width="345" height="526" viewBox="0 0 345 526" fill="none" xmlns="http://www.w3.org/2000/svg">
<rect x="10" y="10" width="325" height="506" rx="50" fill="white" fill-opacity="0.5" stroke="#5EE3D4" stroke-width="20"/>
<rect x="59" y="25" width="60" height="60" rx="15" fill="#E2B6AB"/>
<rect x="119" y="25" width="60" height="60" rx="15" fill="#DBD6D1"/>
<rect x="179" y="25" width="60" height="60" rx="15" fill="#A9C9AA"/>
<rect x="140" y="125" width="60" height="60" rx="15" fill="#EACA9C"/>
<rect x="200" y="125" width="60" height="60" rx="15" fill="#74A8B9"/>
<rect x="260" y="125" width="60" height="60" rx="15" fill="#BABEA0"/>
<rect x="34" y="225" width="60" height="60" rx="15" fill="#BFB3C6"/>
<rect x="94" y="225" width="60" height="60" rx="15" fill="#A8D0BD"/>
<rect x="154" y="225" width="60" height="60" rx="15" fill="#8FABC3"/>
<rect x="70" y="325" width="60" height="60" rx="15" fill="#5D9073"/>
<rect x="130" y="325" width="60" height="60" rx="15" fill="#C5CBD3"/>
<rect x="190" y="325" width="60" height="60" rx="15" fill="#7865A3"/>
<rect x="125" y="425" width="60" height="60" rx="15" fill="#C2A54C"/>
<rect x="185" y="425" width="60" height="60" rx="15" fill="#C7CDD6"/>
<rect x="245" y="425" width="60" height="60" rx="15" fill="#7A90A7"/>
</svg>
