<svg width="439" height="926" fill="none" xmlns="http://www.w3.org/2000/svg">
    <g filter="url(#a)">
        <rect x="15" y="20" width="409" height="896" rx="190" fill="#fff"/>
    </g>
    <path d="M154.656 695.15h3.7c8.1 0 13.95-.15 20.8-1.3l.5 4.2c-7 1.2-13.05 1.4-21.3 1.4h-3.7v-4.3Zm0-26.7h21.35v4.3h-16.1v23.85h-5.25v-28.15Zm3.95 12.75h16.55v4.15h-16.55v-4.15Zm24.35-16.75h5.25v45.7h-5.25v-45.7Zm4.05 17.9h8.3v4.35h-8.3v-4.35Zm24.246 5.3h5.25v10.1h-5.25v-10.1Zm20.15-23.2h5.25v34.7h-5.25v-34.7Zm-26.7 40.55h33v4.25h-33V705Zm0-9.2h5.25v10.35h-5.25V695.8Zm-5.45-6.4-.7-4.25c8.4 0 19.65-.1 29.3-1.35l.35 3.8c-9.8 1.6-20.7 1.8-28.95 1.8Zm23.15 1.85h10.25v3.7h-10.25v-3.7Zm-9.05-25.05c6.65 0 11.3 3.2 11.3 8.05 0 4.85-4.65 8-11.3 8-6.7 0-11.3-3.15-11.3-8s4.6-8.05 11.3-8.05Zm0 3.85c-3.75 0-6.35 1.55-6.35 4.2 0 2.6 2.6 4.15 6.35 4.15 3.7 0 6.3-1.55 6.3-4.15 0-2.65-2.6-4.2-6.3-4.2Zm57.146 4.95h8.9v4.25h-8.9V675Zm-.05 9h8.85v4.2h-8.85V684Zm-25.6-14.95h25.4v4.2h-25.4v-4.2Zm12.9 6.2c6.2 0 10.5 3.4 10.5 8.5s-4.3 8.5-10.5 8.5c-6.15 0-10.5-3.4-10.5-8.5s4.35-8.5 10.5-8.5Zm0 3.95c-3.35 0-5.6 1.7-5.6 4.55 0 2.85 2.25 4.55 5.6 4.55 3.35 0 5.65-1.7 5.65-4.55 0-2.85-2.3-4.55-5.65-4.55Zm-2.55-15.15h5.2v7.9h-5.2v-7.9Zm22.2.4h5.25v29.35h-5.25v-29.35Zm-9.95 29.85c9.55 0 15.4 2.95 15.4 7.9 0 5-5.85 7.9-15.4 7.9s-15.4-2.9-15.4-7.9c0-4.95 5.85-7.9 15.4-7.9Zm0 4.05c-6.25 0-9.9 1.3-9.9 3.85s3.65 3.9 9.9 3.9 9.9-1.35 9.9-3.9-3.65-3.85-9.9-3.85Z" fill="#000"/>
    <path d="M385 343c0 106.474-74.277 192-165 192S55 449.474 55 343s74.277-192 165-192 165 85.526 165 192Z" fill="#fff" stroke="#000" stroke-width="6"/>
    <defs>
        <filter id="a" x="0" y="0" width="439" height="926" filterUnits="userSpaceOnUse" color-interpolation-filters="sRGB">
            <feFlood flood-opacity="0" result="BackgroundImageFix"/>
            <feColorMatrix in="SourceAlpha" values="0 0 0 0 0 0 0 0 0 0 0 0 0 0 0 0 0 0 127 0" result="hardAlpha"/>
            <feOffset dy="-5"/>
            <feGaussianBlur stdDeviation="7.5"/>
            <feComposite in2="hardAlpha" operator="out"/>
            <feColorMatrix values="0 0 0 0 0 0 0 0 0 0 0 0 0 0 0 0 0 0 0.25 0"/>
            <feBlend in2="BackgroundImageFix" result="effect1_dropShadow_394_2837"/>
            <feBlend in="SourceGraphic" in2="effect1_dropShadow_394_2837" result="shape"/>
        </filter>
    </defs>
</svg>
