<svg width="358" height="775" fill="none" xmlns="http://www.w3.org/2000/svg">
    <g filter="url(#a)">
        <rect x="4" width="350" height="766.748" rx="140" fill="#fff"/>
        <path d="M127.124 577.017h2.96c6.48 0 11.16-.12 16.64-1.04l.4 3.36c-5.6.96-10.44 1.12-17.04 1.12h-2.96v-3.44Zm0-21.36h17.08v3.44h-12.88v19.08h-4.2v-22.52Zm3.16 10.2h13.24v3.32h-13.24v-3.32Zm19.48-13.4h4.2v36.56h-4.2v-36.56Zm3.24 14.32h6.64v3.48h-6.64v-3.48Zm19.397 4.24h4.2v8.08h-4.2v-8.08Zm16.12-18.56h4.2v27.76h-4.2v-27.76Zm-21.36 32.44h26.4v3.4h-26.4v-3.4Zm0-7.36h4.2v8.28h-4.2v-8.28Zm-4.36-5.12-.56-3.4c6.72 0 15.72-.08 23.44-1.08l.28 3.04c-7.84 1.28-16.56 1.44-23.16 1.44Zm18.52 1.48h8.2v2.96h-8.2v-2.96Zm-7.24-20.04c5.32 0 9.04 2.56 9.04 6.44 0 3.88-3.72 6.4-9.04 6.4-5.36 0-9.04-2.52-9.04-6.4 0-3.88 3.68-6.44 9.04-6.44Zm0 3.08c-3 0-5.08 1.24-5.08 3.36 0 2.08 2.08 3.32 5.08 3.32 2.96 0 5.04-1.24 5.04-3.32 0-2.12-2.08-3.36-5.04-3.36Zm45.717 3.96h7.12v3.4h-7.12v-3.4Zm-.04 7.2h7.08v3.36h-7.08v-3.36Zm-20.48-11.96h20.32v3.36h-20.32v-3.36Zm10.32 4.96c4.96 0 8.4 2.72 8.4 6.8s-3.44 6.8-8.4 6.8c-4.92 0-8.4-2.72-8.4-6.8s3.48-6.8 8.4-6.8Zm0 3.16c-2.68 0-4.48 1.36-4.48 3.64 0 2.28 1.8 3.64 4.48 3.64 2.68 0 4.52-1.36 4.52-3.64 0-2.28-1.84-3.64-4.52-3.64Zm-2.04-12.12h4.16v6.32h-4.16v-6.32Zm17.76.32h4.2v23.48h-4.2v-23.48Zm-7.96 23.88c7.64 0 12.32 2.36 12.32 6.32 0 4-4.68 6.32-12.32 6.32-7.64 0-12.32-2.32-12.32-6.32 0-3.96 4.68-6.32 12.32-6.32Zm0 3.24c-5 0-7.92 1.04-7.92 3.08s2.92 3.12 7.92 3.12 7.92-1.08 7.92-3.12-2.92-3.08-7.92-3.08Z" fill="#000"/>
        <path d="M320.193 276.406c0 90.938-63.427 163.87-140.766 163.87-77.338 0-140.765-72.932-140.765-163.87 0-90.939 63.427-163.871 140.765-163.871 77.339 0 140.766 72.932 140.766 163.871Z" fill="#fff" stroke="#000" stroke-width="6"/>
    </g>
    <defs>
        <filter id="a" x="0" y="0" width="358" height="774.748" filterUnits="userSpaceOnUse" color-interpolation-filters="sRGB">
            <feFlood flood-opacity="0" result="BackgroundImageFix"/>
            <feColorMatrix in="SourceAlpha" values="0 0 0 0 0 0 0 0 0 0 0 0 0 0 0 0 0 0 127 0" result="hardAlpha"/>
            <feOffset dy="4"/>
            <feGaussianBlur stdDeviation="2"/>
            <feComposite in2="hardAlpha" operator="out"/>
            <feColorMatrix values="0 0 0 0 0 0 0 0 0 0 0 0 0 0 0 0 0 0 0.25 0"/>
            <feBlend in2="BackgroundImageFix" result="effect1_dropShadow_398_11394"/>
            <feBlend in="SourceGraphic" in2="effect1_dropShadow_398_11394" result="shape"/>
        </filter>
    </defs>
</svg>
