<svg width="857" height="635" viewBox="0 0 857 635" fill="none" xmlns="http://www.w3.org/2000/svg">
<path d="M166.401 0H133.551C130.789 0 128.551 2.23857 128.551 4.99999V37.3333C128.551 40.0947 130.789 42.3333 133.551 42.3333H166.401C169.162 42.3333 171.401 40.0948 171.401 37.3333V5C171.401 2.23858 169.162 0 166.401 0Z" fill="#936940"/>
<path d="M80.6997 0H47.8496C45.0882 0 42.8496 2.23857 42.8496 4.99999V37.3333C42.8496 40.0947 45.0882 42.3333 47.8496 42.3333H80.6997C83.4611 42.3333 85.6997 40.0948 85.6997 37.3333V5C85.6997 2.23858 83.4611 0 80.6997 0Z" fill="#9F1F24"/>
<path d="M37.8501 0H5C2.23858 0 0 2.23857 0 4.99999V37.3333C0 40.0947 2.23857 42.3333 5 42.3333H37.8501C40.6115 42.3333 42.8501 40.0948 42.8501 37.3333V5C42.8501 2.23858 40.6115 0 37.8501 0Z" fill="#2D4442"/>
<path d="M294.95 0H262.1C259.338 0 257.1 2.23857 257.1 4.99999V37.3333C257.1 40.0947 259.338 42.3333 262.1 42.3333H294.95C297.711 42.3333 299.95 40.0948 299.95 37.3333V5C299.95 2.23858 297.711 0 294.95 0Z" fill="#85C2E5"/>
<path d="M337.799 0H304.949C302.188 0 299.949 2.23857 299.949 4.99999V37.3333C299.949 40.0947 302.188 42.3333 304.949 42.3333H337.799C340.561 42.3333 342.799 40.0948 342.799 37.3333V5C342.799 2.23858 340.561 0 337.799 0Z" fill="#175769"/>
<path d="M380.651 0H347.801C345.039 0 342.801 2.23857 342.801 4.99999V37.3333C342.801 40.0947 345.039 42.3333 347.801 42.3333H380.651C383.412 42.3333 385.651 40.0948 385.651 37.3333V5C385.651 2.23858 383.412 0 380.651 0Z" fill="#B193BF"/>
<path d="M252.1 0H219.25C216.489 0 214.25 2.23857 214.25 4.99999V37.3333C214.25 40.0947 216.489 42.3333 219.25 42.3333H252.1C254.861 42.3333 257.1 40.0948 257.1 37.3333V5C257.1 2.23858 254.861 0 252.1 0Z" fill="#CE862D"/>
<path d="M209.25 0H176.4C173.639 0 171.4 2.23857 171.4 4.99999V37.3333C171.4 40.0947 173.639 42.3333 176.4 42.3333H209.25C212.012 42.3333 214.25 40.0948 214.25 37.3333V5C214.25 2.23858 212.012 0 209.25 0Z" fill="#845324"/>
<path d="M123.549 0H90.6992C87.9378 0 85.6992 2.23857 85.6992 4.99999V37.3333C85.6992 40.0947 87.9378 42.3333 90.6992 42.3333H123.549C126.311 42.3333 128.549 40.0948 128.549 37.3333V5C128.549 2.23858 126.311 0 123.549 0Z" fill="#5F2615"/>
<path d="M423.499 0H390.648C387.887 0 385.648 2.23857 385.648 4.99999V37.3333C385.648 40.0947 387.887 42.3333 390.648 42.3333H423.499C426.26 42.3333 428.499 40.0948 428.499 37.3333V5C428.499 2.23858 426.26 0 423.499 0Z" fill="#4F7835"/>
<path d="M809.151 0H776.301C773.539 0 771.301 2.23857 771.301 4.99999V37.3333C771.301 40.0947 773.539 42.3333 776.301 42.3333H809.151C811.912 42.3333 814.151 40.0948 814.151 37.3333V5C814.151 2.23858 811.912 0 809.151 0Z" fill="#4980BA"/>
<path d="M766.303 0H733.453C730.692 0 728.453 2.23857 728.453 4.99999V37.3333C728.453 40.0947 730.692 42.3333 733.453 42.3333H766.303C769.065 42.3333 771.303 40.0948 771.303 37.3333V5C771.303 2.23858 769.065 0 766.303 0Z" fill="#3A3934"/>
<path d="M594.903 0H562.053C559.291 0 557.053 2.23857 557.053 4.99999V37.3333C557.053 40.0947 559.291 42.3333 562.053 42.3333H594.903C597.664 42.3333 599.903 40.0948 599.903 37.3333V5C599.903 2.23858 597.664 0 594.903 0Z" fill="#7E2D1F"/>
<path d="M509.2 0H476.35C473.588 0 471.35 2.23857 471.35 4.99999V37.3333C471.35 40.0947 473.588 42.3333 476.35 42.3333H509.2C511.961 42.3333 514.2 40.0948 514.2 37.3333V5C514.2 2.23858 511.961 0 509.2 0Z" fill="#30552B"/>
<path d="M466.354 0H433.504C430.742 0 428.504 2.23857 428.504 4.99999V37.3333C428.504 40.0947 430.742 42.3333 433.504 42.3333H466.354C469.115 42.3333 471.354 40.0948 471.354 37.3333V5C471.354 2.23858 469.115 0 466.354 0Z" fill="#6F1418"/>
<path d="M552.047 0H519.197C516.436 0 514.197 2.23857 514.197 4.99999V37.3333C514.197 40.0947 516.436 42.3333 519.197 42.3333H552.047C554.809 42.3333 557.047 40.0948 557.047 37.3333V5C557.047 2.23858 554.809 0 552.047 0Z" fill="#64462D"/>
<path d="M637.752 0H604.902C602.141 0 599.902 2.23857 599.902 4.99999V37.3333C599.902 40.0947 602.141 42.3333 604.902 42.3333H637.752C640.514 42.3333 642.752 40.0948 642.752 37.3333V5C642.752 2.23858 640.514 0 637.752 0Z" fill="#876D55"/>
<path d="M723.454 0H690.604C687.842 0 685.604 2.23857 685.604 4.99999V37.3333C685.604 40.0947 687.842 42.3333 690.604 42.3333H723.454C726.215 42.3333 728.454 40.0948 728.454 37.3333V5C728.454 2.23858 726.215 0 723.454 0Z" fill="#C56925"/>
<path d="M680.6 0H647.75C644.989 0 642.75 2.23857 642.75 4.99999V37.3333C642.75 40.0947 644.989 42.3333 647.75 42.3333H680.6C683.361 42.3333 685.6 40.0948 685.6 37.3333V5C685.6 2.23858 683.361 0 680.6 0Z" fill="#632716"/>
<path d="M851.999 0H819.148C816.387 0 814.148 2.23857 814.148 4.99999V37.3333C814.148 40.0947 816.387 42.3333 819.148 42.3333H851.999C854.76 42.3333 856.999 40.0948 856.999 37.3333V5C856.999 2.23858 854.76 0 851.999 0Z" fill="#732221"/>
<path d="M37.8501 42.3334H5C2.23858 42.3334 0 44.572 0 47.3334V79.6668C0 82.4282 2.23857 84.6668 5 84.6668H37.8501C40.6115 84.6668 42.8501 82.4282 42.8501 79.6668V47.3334C42.8501 44.572 40.6115 42.3334 37.8501 42.3334Z" fill="#CC4628"/>
<path d="M809.151 42.3334H776.301C773.539 42.3334 771.301 44.5719 771.301 47.3334V79.6667C771.301 82.4281 773.539 84.6667 776.301 84.6667H809.151C811.912 84.6667 814.151 82.4281 814.151 79.6667V47.3334C814.151 44.572 811.912 42.3334 809.151 42.3334Z" fill="#6AB0C8"/>
<path d="M851.999 42.3334H819.148C816.387 42.3334 814.148 44.5719 814.148 47.3334V79.6667C814.148 82.4281 816.387 84.6667 819.148 84.6667H851.999C854.76 84.6667 856.999 82.4281 856.999 79.6667V47.3334C856.999 44.572 854.76 42.3334 851.999 42.3334Z" fill="#9E374F"/>
<path d="M766.303 42.3334H733.453C730.692 42.3334 728.453 44.5719 728.453 47.3334V79.6667C728.453 82.4281 730.692 84.6667 733.453 84.6667H766.303C769.065 84.6667 771.303 82.4281 771.303 79.6667V47.3334C771.303 44.572 769.065 42.3334 766.303 42.3334Z" fill="#47632F"/>
<path d="M723.454 42.3334H690.604C687.842 42.3334 685.604 44.5719 685.604 47.3334V79.6667C685.604 82.4281 687.842 84.6667 690.604 84.6667H723.454C726.215 84.6667 728.454 82.4281 728.454 79.6667V47.3334C728.454 44.572 726.215 42.3334 723.454 42.3334Z" fill="#A45894"/>
<path d="M680.6 42.3334H647.75C644.989 42.3334 642.75 44.5719 642.75 47.3334V79.6667C642.75 82.4281 644.989 84.6667 647.75 84.6667H680.6C683.361 84.6667 685.6 82.4281 685.6 79.6667V47.3334C685.6 44.572 683.361 42.3334 680.6 42.3334Z" fill="#77231E"/>
<path d="M380.651 42.3334H347.801C345.039 42.3334 342.801 44.5719 342.801 47.3334V79.6667C342.801 82.4281 345.039 84.6667 347.801 84.6667H380.651C383.412 84.6667 385.651 82.4281 385.651 79.6667V47.3334C385.651 44.572 383.412 42.3334 380.651 42.3334Z" fill="#997B26"/>
<path d="M466.354 42.3334H433.504C430.742 42.3334 428.504 44.5719 428.504 47.3334V79.6667C428.504 82.4281 430.742 84.6667 433.504 84.6667H466.354C469.115 84.6667 471.354 82.4281 471.354 79.6667V47.3334C471.354 44.572 469.115 42.3334 466.354 42.3334Z" fill="#34418B"/>
<path d="M423.499 42.3334H390.648C387.887 42.3334 385.648 44.5719 385.648 47.3334V79.6667C385.648 82.4281 387.887 84.6667 390.648 84.6667H423.499C426.26 84.6667 428.499 82.4281 428.499 79.6667V47.3334C428.499 44.572 426.26 42.3334 423.499 42.3334Z" fill="#1A4725"/>
<path d="M337.799 42.3334H304.949C302.188 42.3334 299.949 44.5719 299.949 47.3334V79.6667C299.949 82.4281 302.188 84.6667 304.949 84.6667H337.799C340.561 84.6667 342.799 82.4281 342.799 79.6667V47.3334C342.799 44.572 340.561 42.3334 337.799 42.3334Z" fill="#C77B1B"/>
<path d="M509.2 42.3334H476.35C473.588 42.3334 471.35 44.5719 471.35 47.3334V79.6667C471.35 82.4281 473.588 84.6667 476.35 84.6667H509.2C511.961 84.6667 514.2 82.4281 514.2 79.6667V47.3334C514.2 44.572 511.961 42.3334 509.2 42.3334Z" fill="#1D4C78"/>
<path d="M594.903 42.3334H562.053C559.291 42.3334 557.053 44.5719 557.053 47.3334V79.6667C557.053 82.4281 559.291 84.6667 562.053 84.6667H594.903C597.664 84.6667 599.903 82.4281 599.903 79.6667V47.3334C599.903 44.572 597.664 42.3334 594.903 42.3334Z" fill="#997B26"/>
<path d="M552.047 42.3334H519.197C516.436 42.3334 514.197 44.5719 514.197 47.3334V79.6667C514.197 82.4281 516.436 84.6667 519.197 84.6667H552.047C554.809 84.6667 557.047 82.4281 557.047 79.6667V47.3334C557.047 44.572 554.809 42.3334 552.047 42.3334Z" fill="#5E4E27"/>
<path d="M637.752 42.3334H604.902C602.141 42.3334 599.902 44.5719 599.902 47.3334V79.6667C599.902 82.4281 602.141 84.6667 604.902 84.6667H637.752C640.514 84.6667 642.752 82.4281 642.752 79.6667V47.3334C642.752 44.572 640.514 42.3334 637.752 42.3334Z" fill="#814622"/>
<path d="M294.95 42.3334H262.1C259.338 42.3334 257.1 44.5719 257.1 47.3334V79.6667C257.1 82.4281 259.338 84.6667 262.1 84.6667H294.95C297.711 84.6667 299.95 82.4281 299.95 79.6667V47.3334C299.95 44.572 297.711 42.3334 294.95 42.3334Z" fill="#63235C"/>
<path d="M252.1 42.3334H219.25C216.489 42.3334 214.25 44.5719 214.25 47.3334V79.6667C214.25 82.4281 216.489 84.6667 219.25 84.6667H252.1C254.861 84.6667 257.1 82.4281 257.1 79.6667V47.3334C257.1 44.572 254.861 42.3334 252.1 42.3334Z" fill="#0C5B7B"/>
<path d="M80.6997 42.3334H47.8496C45.0882 42.3334 42.8496 44.5719 42.8496 47.3334V79.6667C42.8496 82.4281 45.0882 84.6667 47.8496 84.6667H80.6997C83.4611 84.6667 85.6997 82.4281 85.6997 79.6667V47.3334C85.6997 44.572 83.4611 42.3334 80.6997 42.3334Z" fill="#6B783E"/>
<path d="M123.549 42.3334H90.6992C87.9378 42.3334 85.6992 44.5719 85.6992 47.3334V79.6667C85.6992 82.4281 87.9378 84.6667 90.6992 84.6667H123.549C126.311 84.6667 128.549 82.4281 128.549 79.6667V47.3334C128.549 44.572 126.311 42.3334 123.549 42.3334Z" fill="#1E2711"/>
<path d="M209.25 42.3334H176.4C173.639 42.3334 171.4 44.5719 171.4 47.3334V79.6667C171.4 82.4281 173.639 84.6667 176.4 84.6667H209.25C212.012 84.6667 214.25 82.4281 214.25 79.6667V47.3334C214.25 44.572 212.012 42.3334 209.25 42.3334Z" fill="#9B5A95"/>
<path d="M166.401 42.3334H133.551C130.789 42.3334 128.551 44.5719 128.551 47.3334V79.6667C128.551 82.4281 130.789 84.6667 133.551 84.6667H166.401C169.162 84.6667 171.401 82.4281 171.401 79.6667V47.3334C171.401 44.572 169.162 42.3334 166.401 42.3334Z" fill="#809D93"/>
<path d="M337.799 592.667H304.949C302.188 592.667 299.949 594.905 299.949 597.667V630C299.949 632.761 302.188 635 304.949 635H337.799C340.561 635 342.799 632.761 342.799 630V597.667C342.799 594.905 340.561 592.667 337.799 592.667Z" fill="#D46E19"/>
<path d="M809.151 592.667H776.301C773.539 592.667 771.301 594.905 771.301 597.667V630C771.301 632.761 773.539 635 776.301 635H809.151C811.912 635 814.151 632.761 814.151 630V597.667C814.151 594.905 811.912 592.667 809.151 592.667Z" fill="#A83225"/>
<path d="M766.303 592.667H733.453C730.692 592.667 728.453 594.905 728.453 597.667V630C728.453 632.761 730.692 635 733.453 635H766.303C769.065 635 771.303 632.761 771.303 630V597.667C771.303 594.905 769.065 592.667 766.303 592.667Z" fill="#841B20"/>
<path d="M851.999 592.667H819.148C816.387 592.667 814.148 594.905 814.148 597.667V630C814.148 632.761 816.387 635 819.148 635H851.999C854.76 635 856.999 632.761 856.999 630V597.667C856.999 594.905 854.76 592.667 851.999 592.667Z" fill="#528453"/>
<path d="M723.454 592.667H690.604C687.842 592.667 685.604 594.905 685.604 597.667V630C685.604 632.761 687.842 635 690.604 635H723.454C726.215 635 728.454 632.761 728.454 630V597.667C728.454 594.905 726.215 592.667 723.454 592.667Z" fill="#E78039"/>
<path d="M294.95 592.667H262.1C259.338 592.667 257.1 594.905 257.1 597.667V630C257.1 632.761 259.338 635 262.1 635H294.95C297.711 635 299.95 632.761 299.95 630V597.667C299.95 594.905 297.711 592.667 294.95 592.667Z" fill="#973723"/>
<path d="M209.25 592.667H176.4C173.639 592.667 171.4 594.905 171.4 597.667V630C171.4 632.761 173.639 635 176.4 635H209.25C212.012 635 214.25 632.761 214.25 630V597.667C214.25 594.905 212.012 592.667 209.25 592.667Z" fill="#5A461F"/>
<path d="M166.401 592.667H133.551C130.789 592.667 128.551 594.905 128.551 597.667V630C128.551 632.761 130.789 635 133.551 635H166.401C169.162 635 171.401 632.761 171.401 630V597.667C171.401 594.905 169.162 592.667 166.401 592.667Z" fill="#D87E0D"/>
<path d="M252.1 592.667H219.25C216.489 592.667 214.25 594.905 214.25 597.667V630C214.25 632.761 216.489 635 219.25 635H252.1C254.861 635 257.1 632.761 257.1 630V597.667C257.1 594.905 254.861 592.667 252.1 592.667Z" fill="#250D08"/>
<path d="M123.549 592.667H90.6992C87.9378 592.667 85.6992 594.905 85.6992 597.667V630C85.6992 632.761 87.9378 635 90.6992 635H123.549C126.311 635 128.549 632.761 128.549 630V597.667C128.549 594.905 126.311 592.667 123.549 592.667Z" fill="#8C6626"/>
<path d="M80.6997 592.667H47.8496C45.0882 592.667 42.8496 594.905 42.8496 597.667V630C42.8496 632.761 45.0882 635 47.8496 635H80.6997C83.4611 635 85.6997 632.761 85.6997 630V597.667C85.6997 594.905 83.4611 592.667 80.6997 592.667Z" fill="#440907"/>
<path d="M37.8501 592.667H5C2.23858 592.667 0 594.905 0 597.667V630C0 632.761 2.23857 635 5 635H37.8501C40.6115 635 42.8501 632.761 42.8501 630V597.667C42.8501 594.905 40.6115 592.667 37.8501 592.667Z" fill="#6E1719"/>
<path d="M466.354 592.667H433.504C430.742 592.667 428.504 594.905 428.504 597.667V630C428.504 632.761 430.742 635 433.504 635H466.354C469.115 635 471.354 632.761 471.354 630V597.667C471.354 594.905 469.115 592.667 466.354 592.667Z" fill="#4B6C32"/>
<path d="M509.2 592.667H476.35C473.588 592.667 471.35 594.905 471.35 597.667V630C471.35 632.761 473.588 635 476.35 635H509.2C511.961 635 514.2 632.761 514.2 630V597.667C514.2 594.905 511.961 592.667 509.2 592.667Z" fill="#E47111"/>
<path d="M594.903 592.667H562.053C559.291 592.667 557.053 594.905 557.053 597.667V630C557.053 632.761 559.291 635 562.053 635H594.903C597.664 635 599.903 632.761 599.903 630V597.667C599.903 594.905 597.664 592.667 594.903 592.667Z" fill="#C3391E"/>
<path d="M552.047 592.667H519.197C516.436 592.667 514.197 594.905 514.197 597.667V630C514.197 632.761 516.436 635 519.197 635H552.047C554.809 635 557.047 632.761 557.047 630V597.667C557.047 594.905 554.809 592.667 552.047 592.667Z" fill="#A1BC2F"/>
<path d="M637.752 592.667H604.902C602.141 592.667 599.902 594.905 599.902 597.667V630C599.902 632.761 602.141 635 604.902 635H637.752C640.514 635 642.752 632.761 642.752 630V597.667C642.752 594.905 640.514 592.667 637.752 592.667Z" fill="#933A23"/>
<path d="M680.6 592.667H647.75C644.989 592.667 642.75 594.905 642.75 597.667V630C642.75 632.761 644.989 635 647.75 635H680.6C683.361 635 685.6 632.761 685.6 630V597.667C685.6 594.905 683.361 592.667 680.6 592.667Z" fill="#EC9936"/>
<path d="M380.651 592.667H347.801C345.039 592.667 342.801 594.905 342.801 597.667V630C342.801 632.761 345.039 635 347.801 635H380.651C383.412 635 385.651 632.761 385.651 630V597.667C385.651 594.905 383.412 592.667 380.651 592.667Z" fill="#4E180E"/>
<path d="M423.499 592.667H390.648C387.887 592.667 385.648 594.905 385.648 597.667V630C385.648 632.761 387.887 635 390.648 635H423.499C426.26 635 428.499 632.761 428.499 630V597.667C428.499 594.905 426.26 592.667 423.499 592.667Z" fill="#B73822"/>
<path d="M166.401 169.333H133.551C130.789 169.333 128.551 171.572 128.551 174.333V206.667C128.551 209.428 130.789 211.667 133.551 211.667H166.401C169.162 211.667 171.401 209.428 171.401 206.667V174.333C171.401 171.572 169.162 169.333 166.401 169.333Z" fill="#48200E"/>
<path d="M680.6 169.333H647.75C644.989 169.333 642.75 171.572 642.75 174.333V206.667C642.75 209.428 644.989 211.667 647.75 211.667H680.6C683.361 211.667 685.6 209.428 685.6 206.667V174.333C685.6 171.572 683.361 169.333 680.6 169.333Z" fill="#932230"/>
<path d="M123.549 169.333H90.6992C87.9378 169.333 85.6992 171.572 85.6992 174.333V206.667C85.6992 209.428 87.9378 211.667 90.6992 211.667H123.549C126.311 211.667 128.549 209.428 128.549 206.667V174.333C128.549 171.572 126.311 169.333 123.549 169.333Z" fill="#C98D31"/>
<path d="M723.454 169.333H690.604C687.842 169.333 685.604 171.572 685.604 174.333V206.667C685.604 209.428 687.842 211.667 690.604 211.667H723.454C726.215 211.667 728.454 209.428 728.454 206.667V174.333C728.454 171.572 726.215 169.333 723.454 169.333Z" fill="#4D413D"/>
<path d="M294.95 169.333H262.1C259.338 169.333 257.1 171.572 257.1 174.333V206.667C257.1 209.428 259.338 211.667 262.1 211.667H294.95C297.711 211.667 299.95 209.428 299.95 206.667V174.333C299.95 171.572 297.711 169.333 294.95 169.333Z" fill="#8C7959"/>
<path d="M337.799 169.333H304.949C302.188 169.333 299.949 171.572 299.949 174.333V206.667C299.949 209.428 302.188 211.667 304.949 211.667H337.799C340.561 211.667 342.799 209.428 342.799 206.667V174.333C342.799 171.572 340.561 169.333 337.799 169.333Z" fill="#4A3517"/>
<path d="M209.25 169.333H176.4C173.639 169.333 171.4 171.572 171.4 174.333V206.667C171.4 209.428 173.639 211.667 176.4 211.667H209.25C212.012 211.667 214.25 209.428 214.25 206.667V174.333C214.25 171.572 212.012 169.333 209.25 169.333Z" fill="#1F1B12"/>
<path d="M252.1 169.333H219.25C216.489 169.333 214.25 171.572 214.25 174.333V206.667C214.25 209.428 216.489 211.667 219.25 211.667H252.1C254.861 211.667 257.1 209.428 257.1 206.667V174.333C257.1 171.572 254.861 169.333 252.1 169.333Z" fill="#BBA3AB"/>
<path d="M380.651 169.333H347.801C345.039 169.333 342.801 171.572 342.801 174.333V206.667C342.801 209.428 345.039 211.667 347.801 211.667H380.651C383.412 211.667 385.651 209.428 385.651 206.667V174.333C385.651 171.572 383.412 169.333 380.651 169.333Z" fill="#A62924"/>
<path d="M552.047 169.333H519.197C516.436 169.333 514.197 171.572 514.197 174.333V206.667C514.197 209.428 516.436 211.667 519.197 211.667H552.047C554.809 211.667 557.047 209.428 557.047 206.667V174.333C557.047 171.572 554.809 169.333 552.047 169.333Z" fill="#493E2A"/>
<path d="M423.499 169.333H390.648C387.887 169.333 385.648 171.572 385.648 174.333V206.667C385.648 209.428 387.887 211.667 390.648 211.667H423.499C426.26 211.667 428.499 209.428 428.499 206.667V174.333C428.499 171.572 426.26 169.333 423.499 169.333Z" fill="#704F56"/>
<path d="M509.2 169.333H476.35C473.588 169.333 471.35 171.572 471.35 174.333V206.667C471.35 209.428 473.588 211.667 476.35 211.667H509.2C511.961 211.667 514.2 209.428 514.2 206.667V174.333C514.2 171.572 511.961 169.333 509.2 169.333Z" fill="#A81F24"/>
<path d="M594.903 169.333H562.053C559.291 169.333 557.053 171.572 557.053 174.333V206.667C557.053 209.428 559.291 211.667 562.053 211.667H594.903C597.664 211.667 599.903 209.428 599.903 206.667V174.333C599.903 171.572 597.664 169.333 594.903 169.333Z" fill="#374E2D"/>
<path d="M466.354 169.333H433.504C430.742 169.333 428.504 171.572 428.504 174.333V206.667C428.504 209.428 430.742 211.667 433.504 211.667H466.354C469.115 211.667 471.354 209.428 471.354 206.667V174.333C471.354 171.572 469.115 169.333 466.354 169.333Z" fill="#CE9377"/>
<path d="M637.752 169.333H604.902C602.141 169.333 599.902 171.572 599.902 174.333V206.667C599.902 209.428 602.141 211.667 604.902 211.667H637.752C640.514 211.667 642.752 209.428 642.752 206.667V174.333C642.752 171.572 640.514 169.333 637.752 169.333Z" fill="#6EA8D5"/>
<path d="M37.8501 169.333H5C2.23858 169.333 0 171.572 0 174.333V206.667C0 209.428 2.23857 211.667 5 211.667H37.8501C40.6115 211.667 42.8501 209.428 42.8501 206.667V174.333C42.8501 171.572 40.6115 169.333 37.8501 169.333Z" fill="#693C1C"/>
<path d="M809.151 169.333H776.301C773.539 169.333 771.301 171.572 771.301 174.333V206.667C771.301 209.428 773.539 211.667 776.301 211.667H809.151C811.912 211.667 814.151 209.428 814.151 206.667V174.333C814.151 171.572 811.912 169.333 809.151 169.333Z" fill="#777167"/>
<path d="M851.999 169.333H819.148C816.387 169.333 814.148 171.572 814.148 174.333V206.667C814.148 209.428 816.387 211.667 819.148 211.667H851.999C854.76 211.667 856.999 209.428 856.999 206.667V174.333C856.999 171.572 854.76 169.333 851.999 169.333Z" fill="#BBA438"/>
<path d="M766.303 169.333H733.453C730.692 169.333 728.453 171.572 728.453 174.333V206.667C728.453 209.428 730.692 211.667 733.453 211.667H766.303C769.065 211.667 771.303 209.428 771.303 206.667V174.333C771.303 171.572 769.065 169.333 766.303 169.333Z" fill="#DABFA4"/>
<path d="M80.6997 169.333H47.8496C45.0882 169.333 42.8496 171.572 42.8496 174.333V206.667C42.8496 209.428 45.0882 211.667 47.8496 211.667H80.6997C83.4611 211.667 85.6997 209.428 85.6997 206.667V174.333C85.6997 171.572 83.4611 169.333 80.6997 169.333Z" fill="#6A2618"/>
<path d="M123.549 84.6668H90.6992C87.9378 84.6668 85.6992 86.9054 85.6992 89.6668V122C85.6992 124.762 87.9378 127 90.6992 127H123.549C126.311 127 128.549 124.762 128.549 122V89.6668C128.549 86.9054 126.311 84.6668 123.549 84.6668Z" fill="#853821"/>
<path d="M252.1 84.6668H219.25C216.489 84.6668 214.25 86.9054 214.25 89.6668V122C214.25 124.762 216.489 127 219.25 127H252.1C254.861 127 257.1 124.762 257.1 122V89.6668C257.1 86.9054 254.861 84.6668 252.1 84.6668Z" fill="#2D64A7"/>
<path d="M166.401 84.6668H133.551C130.789 84.6668 128.551 86.9054 128.551 89.6668V122C128.551 124.762 130.789 127 133.551 127H166.401C169.162 127 171.401 124.762 171.401 122V89.6668C171.401 86.9054 169.162 84.6668 166.401 84.6668Z" fill="#044992"/>
<path d="M294.95 84.6668H262.1C259.338 84.6668 257.1 86.9054 257.1 89.6668V122C257.1 124.762 259.338 127 262.1 127H294.95C297.711 127 299.95 124.762 299.95 122V89.6668C299.95 86.9054 297.711 84.6668 294.95 84.6668Z" fill="#9E374F"/>
<path d="M209.25 84.6668H176.4C173.639 84.6668 171.4 86.9054 171.4 89.6668V122C171.4 124.762 173.639 127 176.4 127H209.25C212.012 127 214.25 124.762 214.25 122V89.6668C214.25 86.9054 212.012 84.6668 209.25 84.6668Z" fill="#3E2F29"/>
<path d="M423.499 84.6668H390.648C387.887 84.6668 385.648 86.9054 385.648 89.6668V122C385.648 124.762 387.887 127 390.648 127H423.499C426.26 127 428.499 124.762 428.499 122V89.6668C428.499 86.9054 426.26 84.6668 423.499 84.6668Z" fill="#E5AF1F"/>
<path d="M337.799 84.6668H304.949C302.188 84.6668 299.949 86.9054 299.949 89.6668V122C299.949 124.762 302.188 127 304.949 127H337.799C340.561 127 342.799 124.762 342.799 122V89.6668C342.799 86.9054 340.561 84.6668 337.799 84.6668Z" fill="#D6894D"/>
<path d="M466.354 84.6668H433.504C430.742 84.6668 428.504 86.9054 428.504 89.6668V122C428.504 124.762 430.742 127 433.504 127H466.354C469.115 127 471.354 124.762 471.354 122V89.6668C471.354 86.9054 469.115 84.6668 466.354 84.6668Z" fill="#BB2845"/>
<path d="M509.2 84.6668H476.35C473.588 84.6668 471.35 86.9054 471.35 89.6668V122C471.35 124.762 473.588 127 476.35 127H509.2C511.961 127 514.2 124.762 514.2 122V89.6668C514.2 86.9054 511.961 84.6668 509.2 84.6668Z" fill="#D4574A"/>
<path d="M380.651 84.6668H347.801C345.039 84.6668 342.801 86.9054 342.801 89.6668V122C342.801 124.762 345.039 127 347.801 127H380.651C383.412 127 385.651 124.762 385.651 122V89.6668C385.651 86.9054 383.412 84.6668 380.651 84.6668Z" fill="#3E1B0A"/>
<path d="M552.047 84.6668H519.197C516.436 84.6668 514.197 86.9054 514.197 89.6668V122C514.197 124.762 516.436 127 519.197 127H552.047C554.809 127 557.047 124.762 557.047 122V89.6668C557.047 86.9054 554.809 84.6668 552.047 84.6668Z" fill="#3E3D3E"/>
<path d="M680.6 84.6668H647.75C644.989 84.6668 642.75 86.9054 642.75 89.6668V122C642.75 124.762 644.989 127 647.75 127H680.6C683.361 127 685.6 124.762 685.6 122V89.6668C685.6 86.9054 683.361 84.6668 680.6 84.6668Z" fill="#583B1A"/>
<path d="M637.752 84.6668H604.902C602.141 84.6668 599.902 86.9054 599.902 89.6668V122C599.902 124.762 602.141 127 604.902 127H637.752C640.514 127 642.752 124.762 642.752 122V89.6668C642.752 86.9054 640.514 84.6668 637.752 84.6668Z" fill="#3B5971"/>
<path d="M594.903 84.6668H562.053C559.291 84.6668 557.053 86.9054 557.053 89.6668V122C557.053 124.762 559.291 127 562.053 127H594.903C597.664 127 599.903 124.762 599.903 122V89.6668C599.903 86.9054 597.664 84.6668 594.903 84.6668Z" fill="#A16E35"/>
<path d="M723.454 84.6668H690.604C687.842 84.6668 685.604 86.9054 685.604 89.6668V122C685.604 124.762 687.842 127 690.604 127H723.454C726.215 127 728.454 124.762 728.454 122V89.6668C728.454 86.9054 726.215 84.6668 723.454 84.6668Z" fill="#A37B27"/>
<path d="M37.8501 84.6667H5C2.23858 84.6667 0 86.9053 0 89.6667V122C0 124.761 2.23857 127 5 127H37.8501C40.6115 127 42.8501 124.762 42.8501 122V89.6667C42.8501 86.9053 40.6115 84.6667 37.8501 84.6667Z" fill="#67474E"/>
<path d="M809.151 84.6668H776.301C773.539 84.6668 771.301 86.9054 771.301 89.6668V122C771.301 124.762 773.539 127 776.301 127H809.151C811.912 127 814.151 124.762 814.151 122V89.6668C814.151 86.9054 811.912 84.6668 809.151 84.6668Z" fill="#605D29"/>
<path d="M851.999 84.6668H819.148C816.387 84.6668 814.148 86.9054 814.148 89.6668V122C814.148 124.762 816.387 127 819.148 127H851.999C854.76 127 856.999 124.762 856.999 122V89.6668C856.999 86.9054 854.76 84.6668 851.999 84.6668Z" fill="#293137"/>
<path d="M766.303 84.6668H733.453C730.692 84.6668 728.453 86.9054 728.453 89.6668V122C728.453 124.762 730.692 127 733.453 127H766.303C769.065 127 771.303 124.762 771.303 122V89.6668C771.303 86.9054 769.065 84.6668 766.303 84.6668Z" fill="#CCAC3E"/>
<path d="M80.6997 84.6668H47.8496C45.0882 84.6668 42.8496 86.9054 42.8496 89.6668V122C42.8496 124.762 45.0882 127 47.8496 127H80.6997C83.4611 127 85.6997 124.762 85.6997 122V89.6668C85.6997 86.9054 83.4611 84.6668 80.6997 84.6668Z" fill="#3F0F07"/>
<path d="M252.1 127H219.25C216.489 127 214.25 129.239 214.25 132V164.333C214.25 167.095 216.489 169.333 219.25 169.333H252.1C254.861 169.333 257.1 167.095 257.1 164.333V132C257.1 129.239 254.861 127 252.1 127Z" fill="#2B3520"/>
<path d="M166.401 127H133.551C130.789 127 128.551 129.239 128.551 132V164.333C128.551 167.095 130.789 169.333 133.551 169.333H166.401C169.162 169.333 171.401 167.095 171.401 164.333V132C171.401 129.239 169.162 127 166.401 127Z" fill="#43240F"/>
<path d="M209.25 127H176.4C173.639 127 171.4 129.239 171.4 132V164.333C171.4 167.095 173.639 169.333 176.4 169.333H209.25C212.012 169.333 214.25 167.095 214.25 164.333V132C214.25 129.239 212.012 127 209.25 127Z" fill="#C97D18"/>
<path d="M680.6 127H647.75C644.989 127 642.75 129.239 642.75 132V164.333C642.75 167.095 644.989 169.333 647.75 169.333H680.6C683.361 169.333 685.6 167.095 685.6 164.333V132C685.6 129.239 683.361 127 680.6 127Z" fill="#D27D18"/>
<path d="M380.651 127H347.801C345.039 127 342.801 129.239 342.801 132V164.333C342.801 167.095 345.039 169.333 347.801 169.333H380.651C383.412 169.333 385.651 167.095 385.651 164.333V132C385.651 129.239 383.412 127 380.651 127Z" fill="#BE983B"/>
<path d="M423.499 127H390.648C387.887 127 385.648 129.239 385.648 132V164.333C385.648 167.095 387.887 169.333 390.648 169.333H423.499C426.26 169.333 428.499 167.095 428.499 164.333V132C428.499 129.239 426.26 127 423.499 127Z" fill="#901D22"/>
<path d="M637.752 127H604.902C602.141 127 599.902 129.239 599.902 132V164.333C599.902 167.095 602.141 169.333 604.902 169.333H637.752C640.514 169.333 642.752 167.095 642.752 164.333V132C642.752 129.239 640.514 127 637.752 127Z" fill="#DD5A2B"/>
<path d="M294.95 127H262.1C259.338 127 257.1 129.239 257.1 132V164.333C257.1 167.095 259.338 169.333 262.1 169.333H294.95C297.711 169.333 299.95 167.095 299.95 164.333V132C299.95 129.239 297.711 127 294.95 127Z" fill="#374554"/>
<path d="M337.799 127H304.949C302.188 127 299.949 129.239 299.949 132V164.333C299.949 167.095 302.188 169.333 304.949 169.333H337.799C340.561 169.333 342.799 167.095 342.799 164.333V132C342.799 129.239 340.561 127 337.799 127Z" fill="#946428"/>
<path d="M466.354 127H433.504C430.742 127 428.504 129.239 428.504 132V164.333C428.504 167.095 430.742 169.333 433.504 169.333H466.354C469.115 169.333 471.354 167.095 471.354 164.333V132C471.354 129.239 469.115 127 466.354 127Z" fill="#995424"/>
<path d="M594.903 127H562.053C559.291 127 557.053 129.239 557.053 132V164.333C557.053 167.095 559.291 169.333 562.053 169.333H594.903C597.664 169.333 599.903 167.095 599.903 164.333V132C599.903 129.239 597.664 127 594.903 127Z" fill="#AFB2B0"/>
<path d="M552.047 127H519.197C516.436 127 514.197 129.239 514.197 132V164.333C514.197 167.095 516.436 169.333 519.197 169.333H552.047C554.809 169.333 557.047 167.095 557.047 164.333V132C557.047 129.239 554.809 127 552.047 127Z" fill="#682718"/>
<path d="M509.2 127H476.35C473.588 127 471.35 129.239 471.35 132V164.333C471.35 167.095 473.588 169.333 476.35 169.333H509.2C511.961 169.333 514.2 167.095 514.2 164.333V132C514.2 129.239 511.961 127 509.2 127Z" fill="#3F4E28"/>
<path d="M123.549 127H90.6992C87.9378 127 85.6992 129.239 85.6992 132V164.333C85.6992 167.095 87.9378 169.333 90.6992 169.333H123.549C126.311 169.333 128.549 167.095 128.549 164.333V132C128.549 129.239 126.311 127 123.549 127Z" fill="#948689"/>
<path d="M723.454 127H690.604C687.842 127 685.604 129.239 685.604 132V164.333C685.604 167.095 687.842 169.333 690.604 169.333H723.454C726.215 169.333 728.454 167.095 728.454 164.333V132C728.454 129.239 726.215 127 723.454 127Z" fill="#2E7237"/>
<path d="M37.8501 127H5C2.23858 127 0 129.239 0 132V164.333C0 167.095 2.23857 169.333 5 169.333H37.8501C40.6115 169.333 42.8501 167.095 42.8501 164.333V132C42.8501 129.239 40.6115 127 37.8501 127Z" fill="#2B260F"/>
<path d="M809.151 127H776.301C773.539 127 771.301 129.239 771.301 132V164.333C771.301 167.095 773.539 169.333 776.301 169.333H809.151C811.912 169.333 814.151 167.095 814.151 164.333V132C814.151 129.239 811.912 127 809.151 127Z" fill="#133F63"/>
<path d="M851.999 127H819.148C816.387 127 814.148 129.239 814.148 132V164.333C814.148 167.095 816.387 169.333 819.148 169.333H851.999C854.76 169.333 856.999 167.095 856.999 164.333V132C856.999 129.239 854.76 127 851.999 127Z" fill="#B45A50"/>
<path d="M766.303 127H733.453C730.692 127 728.453 129.239 728.453 132V164.333C728.453 167.095 730.692 169.333 733.453 169.333H766.303C769.065 169.333 771.303 167.095 771.303 164.333V132C771.303 129.239 769.065 127 766.303 127Z" fill="#365E2F"/>
<path d="M80.6997 127H47.8496C45.0882 127 42.8496 129.239 42.8496 132V164.333C42.8496 167.095 45.0882 169.333 47.8496 169.333H80.6997C83.4611 169.333 85.6997 167.095 85.6997 164.333V132C85.6997 129.239 83.4611 127 80.6997 127Z" fill="#40230E"/>
<path d="M166.401 211.667H133.551C130.789 211.667 128.551 213.905 128.551 216.667V249C128.551 251.761 130.789 254 133.551 254H166.401C169.162 254 171.401 251.761 171.401 249V216.667C171.401 213.905 169.162 211.667 166.401 211.667Z" fill="#BC3C20"/>
<path d="M680.6 211.667H647.75C644.989 211.667 642.75 213.905 642.75 216.667V249C642.75 251.761 644.989 254 647.75 254H680.6C683.361 254 685.6 251.761 685.6 249V216.667C685.6 213.905 683.361 211.667 680.6 211.667Z" fill="#D14C30"/>
<path d="M123.549 211.667H90.6992C87.9378 211.667 85.6992 213.905 85.6992 216.667V249C85.6992 251.761 87.9378 254 90.6992 254H123.549C126.311 254 128.549 251.761 128.549 249V216.667C128.549 213.905 126.311 211.667 123.549 211.667Z" fill="#EFC138"/>
<path d="M723.454 211.667H690.604C687.842 211.667 685.604 213.905 685.604 216.667V249C685.604 251.761 687.842 254 690.604 254H723.454C726.215 254 728.454 251.761 728.454 249V216.667C728.454 213.905 726.215 211.667 723.454 211.667Z" fill="#1E1F15"/>
<path d="M594.903 211.667H562.053C559.291 211.667 557.053 213.905 557.053 216.667V249C557.053 251.761 559.291 254 562.053 254H594.903C597.664 254 599.903 251.761 599.903 249V216.667C599.903 213.905 597.664 211.667 594.903 211.667Z" fill="#362D15"/>
<path d="M466.354 211.667H433.504C430.742 211.667 428.504 213.905 428.504 216.667V249C428.504 251.761 430.742 254 433.504 254H466.354C469.115 254 471.354 251.761 471.354 249V216.667C471.354 213.905 469.115 211.667 466.354 211.667Z" fill="#A44D23"/>
<path d="M509.2 211.667H476.35C473.588 211.667 471.35 213.905 471.35 216.667V249C471.35 251.761 473.588 254 476.35 254H509.2C511.961 254 514.2 251.761 514.2 249V216.667C514.2 213.905 511.961 211.667 509.2 211.667Z" fill="#5F622B"/>
<path d="M252.1 211.667H219.25C216.489 211.667 214.25 213.905 214.25 216.667V249C214.25 251.761 216.489 254 219.25 254H252.1C254.861 254 257.1 251.761 257.1 249V216.667C257.1 213.905 254.861 211.667 252.1 211.667Z" fill="#6D2019"/>
<path d="M380.651 211.667H347.801C345.039 211.667 342.801 213.905 342.801 216.667V249C342.801 251.761 345.039 254 347.801 254H380.651C383.412 254 385.651 251.761 385.651 249V216.667C385.651 213.905 383.412 211.667 380.651 211.667Z" fill="#80844D"/>
<path d="M423.499 211.667H390.648C387.887 211.667 385.648 213.905 385.648 216.667V249C385.648 251.761 387.887 254 390.648 254H423.499C426.26 254 428.499 251.761 428.499 249V216.667C428.499 213.905 426.26 211.667 423.499 211.667Z" fill="#252E15"/>
<path d="M294.95 211.667H262.1C259.338 211.667 257.1 213.905 257.1 216.667V249C257.1 251.761 259.338 254 262.1 254H294.95C297.711 254 299.95 251.761 299.95 249V216.667C299.95 213.905 297.711 211.667 294.95 211.667Z" fill="#324D8B"/>
<path d="M337.799 211.667H304.949C302.188 211.667 299.949 213.905 299.949 216.667V249C299.949 251.761 302.188 254 304.949 254H337.799C340.561 254 342.799 251.761 342.799 249V216.667C342.799 213.905 340.561 211.667 337.799 211.667Z" fill="#833A21"/>
<path d="M552.047 211.667H519.197C516.436 211.667 514.197 213.905 514.197 216.667V249C514.197 251.761 516.436 254 519.197 254H552.047C554.809 254 557.047 251.761 557.047 249V216.667C557.047 213.905 554.809 211.667 552.047 211.667Z" fill="#F9E2AC"/>
<path d="M209.25 211.667H176.4C173.639 211.667 171.4 213.905 171.4 216.667V249C171.4 251.761 173.639 254 176.4 254H209.25C212.012 254 214.25 251.761 214.25 249V216.667C214.25 213.905 212.012 211.667 209.25 211.667Z" fill="#D35B15"/>
<path d="M637.752 211.667H604.902C602.141 211.667 599.902 213.905 599.902 216.667V249C599.902 251.761 602.141 254 604.902 254H637.752C640.514 254 642.752 251.761 642.752 249V216.667C642.752 213.905 640.514 211.667 637.752 211.667Z" fill="#4A4F62"/>
<path d="M37.8501 211.667H5C2.23858 211.667 0 213.905 0 216.667V249C0 251.761 2.23857 254 5 254H37.8501C40.6115 254 42.8501 251.762 42.8501 249V216.667C42.8501 213.905 40.6115 211.667 37.8501 211.667Z" fill="#5E3855"/>
<path d="M809.151 211.667H776.301C773.539 211.667 771.301 213.905 771.301 216.667V249C771.301 251.761 773.539 254 776.301 254H809.151C811.912 254 814.151 251.761 814.151 249V216.667C814.151 213.905 811.912 211.667 809.151 211.667Z" fill="#A7777D"/>
<path d="M851.999 211.667H819.148C816.387 211.667 814.148 213.905 814.148 216.667V249C814.148 251.761 816.387 254 819.148 254H851.999C854.76 254 856.999 251.761 856.999 249V216.667C856.999 213.905 854.76 211.667 851.999 211.667Z" fill="#6F1419"/>
<path d="M766.303 211.667H733.453C730.692 211.667 728.453 213.905 728.453 216.667V249C728.453 251.761 730.692 254 733.453 254H766.303C769.065 254 771.303 251.761 771.303 249V216.667C771.303 213.905 769.065 211.667 766.303 211.667Z" fill="#471710"/>
<path d="M80.6997 211.667H47.8496C45.0882 211.667 42.8496 213.905 42.8496 216.667V249C42.8496 251.761 45.0882 254 47.8496 254H80.6997C83.4611 254 85.6997 251.761 85.6997 249V216.667C85.6997 213.905 83.4611 211.667 80.6997 211.667Z" fill="#8F1D22"/>
<path d="M166.401 296.333H133.551C130.789 296.333 128.551 298.572 128.551 301.333V333.667C128.551 336.428 130.789 338.667 133.551 338.667H166.401C169.162 338.667 171.401 336.428 171.401 333.667V301.333C171.401 298.572 169.162 296.333 166.401 296.333Z" fill="#BD681D"/>
<path d="M680.6 296.333H647.75C644.989 296.333 642.75 298.572 642.75 301.333V333.667C642.75 336.428 644.989 338.667 647.75 338.667H680.6C683.361 338.667 685.6 336.428 685.6 333.667V301.333C685.6 298.572 683.361 296.333 680.6 296.333Z" fill="#C9801E"/>
<path d="M123.549 296.333H90.6992C87.9378 296.333 85.6992 298.572 85.6992 301.333V333.667C85.6992 336.428 87.9378 338.667 90.6992 338.667H123.549C126.311 338.667 128.549 336.428 128.549 333.667V301.333C128.549 298.572 126.311 296.333 123.549 296.333Z" fill="#6A1217"/>
<path d="M723.454 296.333H690.604C687.842 296.333 685.604 298.572 685.604 301.333V333.667C685.604 336.428 687.842 338.667 690.604 338.667H723.454C726.215 338.667 728.454 336.428 728.454 333.667V301.333C728.454 298.572 726.215 296.333 723.454 296.333Z" fill="#302211"/>
<path d="M594.903 296.333H562.053C559.291 296.333 557.053 298.572 557.053 301.333V333.667C557.053 336.428 559.291 338.667 562.053 338.667H594.903C597.664 338.667 599.903 336.428 599.903 333.667V301.333C599.903 298.572 597.664 296.333 594.903 296.333Z" fill="#842920"/>
<path d="M252.1 296.333H219.25C216.489 296.333 214.25 298.572 214.25 301.333V333.667C214.25 336.428 216.489 338.667 219.25 338.667H252.1C254.861 338.667 257.1 336.428 257.1 333.667V301.333C257.1 298.572 254.861 296.333 252.1 296.333Z" fill="#B74433"/>
<path d="M509.2 296.333H476.35C473.588 296.333 471.35 298.572 471.35 301.333V333.667C471.35 336.428 473.588 338.667 476.35 338.667H509.2C511.961 338.667 514.2 336.428 514.2 333.667V301.333C514.2 298.572 511.961 296.333 509.2 296.333Z" fill="#4D170D"/>
<path d="M552.047 296.333H519.197C516.436 296.333 514.197 298.572 514.197 301.333V333.667C514.197 336.428 516.436 338.667 519.197 338.667H552.047C554.809 338.667 557.047 336.428 557.047 333.667V301.333C557.047 298.572 554.809 296.333 552.047 296.333Z" fill="#68652A"/>
<path d="M337.799 296.333H304.949C302.188 296.333 299.949 298.572 299.949 301.333V333.667C299.949 336.428 302.188 338.667 304.949 338.667H337.799C340.561 338.667 342.799 336.428 342.799 333.667V301.333C342.799 298.572 340.561 296.333 337.799 296.333Z" fill="#7E573F"/>
<path d="M380.651 296.333H347.801C345.039 296.333 342.801 298.572 342.801 301.333V333.667C342.801 336.428 345.039 338.667 347.801 338.667H380.651C383.412 338.667 385.651 336.428 385.651 333.667V301.333C385.651 298.572 383.412 296.333 380.651 296.333Z" fill="#985A24"/>
<path d="M423.499 296.333H390.648C387.887 296.333 385.648 298.572 385.648 301.333V333.667C385.648 336.428 387.887 338.667 390.648 338.667H423.499C426.26 338.667 428.499 336.428 428.499 333.667V301.333C428.499 298.572 426.26 296.333 423.499 296.333Z" fill="#43110A"/>
<path d="M466.354 296.333H433.504C430.742 296.333 428.504 298.572 428.504 301.333V333.667C428.504 336.428 430.742 338.667 433.504 338.667H466.354C469.115 338.667 471.354 336.428 471.354 333.667V301.333C471.354 298.572 469.115 296.333 466.354 296.333Z" fill="#A71F24"/>
<path d="M294.95 296.333H262.1C259.338 296.333 257.1 298.572 257.1 301.333V333.667C257.1 336.428 259.338 338.667 262.1 338.667H294.95C297.711 338.667 299.95 336.428 299.95 333.667V301.333C299.95 298.572 297.711 296.333 294.95 296.333Z" fill="#EBAD7C"/>
<path d="M209.25 296.333H176.4C173.639 296.333 171.4 298.572 171.4 301.333V333.667C171.4 336.428 173.639 338.667 176.4 338.667H209.25C212.012 338.667 214.25 336.428 214.25 333.667V301.333C214.25 298.572 212.012 296.333 209.25 296.333Z" fill="#884D23"/>
<path d="M637.752 296.333H604.902C602.141 296.333 599.902 298.572 599.902 301.333V333.667C599.902 336.428 602.141 338.667 604.902 338.667H637.752C640.514 338.667 642.752 336.428 642.752 333.667V301.333C642.752 298.572 640.514 296.333 637.752 296.333Z" fill="#424A23"/>
<path d="M37.8501 296.333H5C2.23858 296.333 0 298.572 0 301.333V333.667C0 336.428 2.23857 338.667 5 338.667H37.8501C40.6115 338.667 42.8501 336.428 42.8501 333.667V301.333C42.8501 298.572 40.6115 296.333 37.8501 296.333Z" fill="#D19549"/>
<path d="M809.151 296.333H776.301C773.539 296.333 771.301 298.572 771.301 301.333V333.667C771.301 336.428 773.539 338.667 776.301 338.667H809.151C811.912 338.667 814.151 336.428 814.151 333.667V301.333C814.151 298.572 811.912 296.333 809.151 296.333Z" fill="#A99D66"/>
<path d="M851.999 296.333H819.148C816.387 296.333 814.148 298.572 814.148 301.333V333.667C814.148 336.428 816.387 338.667 819.148 338.667H851.999C854.76 338.667 856.999 336.428 856.999 333.667V301.333C856.999 298.572 854.76 296.333 851.999 296.333Z" fill="#C55D20"/>
<path d="M766.303 296.333H733.453C730.692 296.333 728.453 298.572 728.453 301.333V333.667C728.453 336.428 730.692 338.667 733.453 338.667H766.303C769.065 338.667 771.303 336.428 771.303 333.667V301.333C771.303 298.572 769.065 296.333 766.303 296.333Z" fill="#C59E0F"/>
<path d="M80.6997 296.333H47.8496C45.0882 296.333 42.8496 298.572 42.8496 301.333V333.667C42.8496 336.428 45.0882 338.667 47.8496 338.667H80.6997C83.4611 338.667 85.6997 336.428 85.6997 333.667V301.333C85.6997 298.572 83.4611 296.333 80.6997 296.333Z" fill="#B94B20"/>
<path d="M166.401 254H133.551C130.789 254 128.551 256.239 128.551 259V291.333C128.551 294.095 130.789 296.333 133.551 296.333H166.401C169.162 296.333 171.401 294.095 171.401 291.333V259C171.401 256.239 169.162 254 166.401 254Z" fill="#67652B"/>
<path d="M680.6 254H647.75C644.989 254 642.75 256.239 642.75 259V291.333C642.75 294.095 644.989 296.333 647.75 296.333H680.6C683.361 296.333 685.6 294.095 685.6 291.333V259C685.6 256.239 683.361 254 680.6 254Z" fill="#DDB02D"/>
<path d="M723.454 254H690.604C687.842 254 685.604 256.239 685.604 259V291.333C685.604 294.095 687.842 296.333 690.604 296.333H723.454C726.215 296.333 728.454 294.095 728.454 291.333V259C728.454 256.239 726.215 254 723.454 254Z" fill="#5A3520"/>
<path d="M123.549 254H90.6992C87.9378 254 85.6992 256.239 85.6992 259V291.333C85.6992 294.095 87.9378 296.333 90.6992 296.333H123.549C126.311 296.333 128.549 294.095 128.549 291.333V259C128.549 256.239 126.311 254 123.549 254Z" fill="#7C4B22"/>
<path d="M252.1 254H219.25C216.489 254 214.25 256.239 214.25 259V291.333C214.25 294.095 216.489 296.333 219.25 296.333H252.1C254.861 296.333 257.1 294.095 257.1 291.333V259C257.1 256.239 254.861 254 252.1 254Z" fill="#963B28"/>
<path d="M594.903 254H562.053C559.291 254 557.053 256.239 557.053 259V291.333C557.053 294.095 559.291 296.333 562.053 296.333H594.903C597.664 296.333 599.903 294.095 599.903 291.333V259C599.903 256.239 597.664 254 594.903 254Z" fill="#1E200D"/>
<path d="M466.354 254H433.504C430.742 254 428.504 256.239 428.504 259V291.333C428.504 294.095 430.742 296.333 433.504 296.333H466.354C469.115 296.333 471.354 294.095 471.354 291.333V259C471.354 256.239 469.115 254 466.354 254Z" fill="#43110A"/>
<path d="M552.047 254H519.197C516.436 254 514.197 256.239 514.197 259V291.333C514.197 294.095 516.436 296.333 519.197 296.333H552.047C554.809 296.333 557.047 294.095 557.047 291.333V259C557.047 256.239 554.809 254 552.047 254Z" fill="#DABFAA"/>
<path d="M509.2 254H476.35C473.588 254 471.35 256.239 471.35 259V291.333C471.35 294.095 473.588 296.333 476.35 296.333H509.2C511.961 296.333 514.2 294.095 514.2 291.333V259C514.2 256.239 511.961 254 509.2 254Z" fill="#6C777C"/>
<path d="M423.499 254H390.648C387.887 254 385.648 256.239 385.648 259V291.333C385.648 294.095 387.887 296.333 390.648 296.333H423.499C426.26 296.333 428.499 294.095 428.499 291.333V259C428.499 256.239 426.26 254 423.499 254Z" fill="#895023"/>
<path d="M380.651 254H347.801C345.039 254 342.801 256.239 342.801 259V291.333C342.801 294.095 345.039 296.333 347.801 296.333H380.651C383.412 296.333 385.651 294.095 385.651 291.333V259C385.651 256.239 383.412 254 380.651 254Z" fill="#954323"/>
<path d="M294.95 254H262.1C259.338 254 257.1 256.239 257.1 259V291.333C257.1 294.095 259.338 296.333 262.1 296.333H294.95C297.711 296.333 299.95 294.095 299.95 291.333V259C299.95 256.239 297.711 254 294.95 254Z" fill="#D6A6AA"/>
<path d="M337.799 254H304.949C302.188 254 299.949 256.239 299.949 259V291.333C299.949 294.095 302.188 296.333 304.949 296.333H337.799C340.561 296.333 342.799 294.095 342.799 291.333V259C342.799 256.239 340.561 254 337.799 254Z" fill="#521C10"/>
<path d="M209.25 254H176.4C173.639 254 171.4 256.239 171.4 259V291.333C171.4 294.095 173.639 296.333 176.4 296.333H209.25C212.012 296.333 214.25 294.095 214.25 291.333V259C214.25 256.239 212.012 254 209.25 254Z" fill="#875A25"/>
<path d="M637.752 254H604.902C602.141 254 599.902 256.239 599.902 259V291.333C599.902 294.095 602.141 296.333 604.902 296.333H637.752C640.514 296.333 642.752 294.095 642.752 291.333V259C642.752 256.239 640.514 254 637.752 254Z" fill="#804121"/>
<path d="M37.8501 254H5C2.23858 254 0 256.239 0 259V291.333C0 294.095 2.23857 296.333 5 296.333H37.8501C40.6115 296.333 42.8501 294.095 42.8501 291.333V259C42.8501 256.239 40.6115 254 37.8501 254Z" fill="#9B6E25"/>
<path d="M809.151 254H776.301C773.539 254 771.301 256.239 771.301 259V291.333C771.301 294.095 773.539 296.333 776.301 296.333H809.151C811.912 296.333 814.151 294.095 814.151 291.333V259C814.151 256.239 811.912 254 809.151 254Z" fill="#B46220"/>
<path d="M851.999 254H819.148C816.387 254 814.148 256.239 814.148 259V291.333C814.148 294.095 816.387 296.333 819.148 296.333H851.999C854.76 296.333 856.999 294.095 856.999 291.333V259C856.999 256.239 854.76 254 851.999 254Z" fill="#723F1E"/>
<path d="M766.303 254H733.453C730.692 254 728.453 256.239 728.453 259V291.333C728.453 294.095 730.692 296.333 733.453 296.333H766.303C769.065 296.333 771.303 294.095 771.303 291.333V259C771.303 256.239 769.065 254 766.303 254Z" fill="#AC6921"/>
<path d="M80.6997 254H47.8496C45.0882 254 42.8496 256.239 42.8496 259V291.333C42.8496 294.095 45.0882 296.333 47.8496 296.333H80.6997C83.4611 296.333 85.6997 294.095 85.6997 291.333V259C85.6997 256.239 83.4611 254 80.6997 254Z" fill="#A18C55"/>
<path d="M851.999 508H819.148C816.387 508 814.148 510.239 814.148 513V545.333C814.148 548.095 816.387 550.333 819.148 550.333H851.999C854.76 550.333 856.999 548.095 856.999 545.333V513C856.999 510.239 854.76 508 851.999 508Z" fill="#BA9A14"/>
<path d="M123.549 508H90.6992C87.9378 508 85.6992 510.239 85.6992 513V545.333C85.6992 548.095 87.9378 550.333 90.6992 550.333H123.549C126.311 550.333 128.549 548.095 128.549 545.333V513C128.549 510.239 126.311 508 123.549 508Z" fill="#6C2819"/>
<path d="M37.8501 508H5C2.23858 508 0 510.239 0 513V545.333C0 548.095 2.23857 550.333 5 550.333H37.8501C40.6115 550.333 42.8501 548.095 42.8501 545.333V513C42.8501 510.239 40.6115 508 37.8501 508Z" fill="#2A2928"/>
<path d="M337.799 508H304.949C302.188 508 299.949 510.239 299.949 513V545.333C299.949 548.095 302.188 550.333 304.949 550.333H337.799C340.561 550.333 342.799 548.095 342.799 545.333V513C342.799 510.239 340.561 508 337.799 508Z" fill="#B03423"/>
<path d="M423.499 508H390.648C387.887 508 385.648 510.239 385.648 513V545.333C385.648 548.095 387.887 550.333 390.648 550.333H423.499C426.26 550.333 428.499 548.095 428.499 545.333V513C428.499 510.239 426.26 508 423.499 508Z" fill="#86572F"/>
<path d="M380.651 508H347.801C345.039 508 342.801 510.239 342.801 513V545.333C342.801 548.095 345.039 550.333 347.801 550.333H380.651C383.412 550.333 385.651 548.095 385.651 545.333V513C385.651 510.239 383.412 508 380.651 508Z" fill="#DB8A10"/>
<path d="M466.354 508H433.504C430.742 508 428.504 510.239 428.504 513V545.333C428.504 548.095 430.742 550.333 433.504 550.333H466.354C469.115 550.333 471.354 548.095 471.354 545.333V513C471.354 510.239 469.115 508 466.354 508Z" fill="#685424"/>
<path d="M166.401 508H133.551C130.789 508 128.551 510.239 128.551 513V545.333C128.551 548.095 130.789 550.333 133.551 550.333H166.401C169.162 550.333 171.401 548.095 171.401 545.333V513C171.401 510.239 169.162 508 166.401 508Z" fill="#29120A"/>
<path d="M209.25 508H176.4C173.639 508 171.4 510.239 171.4 513V545.333C171.4 548.095 173.639 550.333 176.4 550.333H209.25C212.012 550.333 214.25 548.095 214.25 545.333V513C214.25 510.239 212.012 508 209.25 508Z" fill="#7C181D"/>
<path d="M294.95 508H262.1C259.338 508 257.1 510.239 257.1 513V545.333C257.1 548.095 259.338 550.333 262.1 550.333H294.95C297.711 550.333 299.95 548.095 299.95 545.333V513C299.95 510.239 297.711 508 294.95 508Z" fill="#434B24"/>
<path d="M509.2 508H476.35C473.588 508 471.35 510.239 471.35 513V545.333C471.35 548.095 473.588 550.333 476.35 550.333H509.2C511.961 550.333 514.2 548.095 514.2 545.333V513C514.2 510.239 511.961 508 509.2 508Z" fill="#65381B"/>
<path d="M252.1 508H219.25C216.489 508 214.25 510.239 214.25 513V545.333C214.25 548.095 216.489 550.333 219.25 550.333H252.1C254.861 550.333 257.1 548.095 257.1 545.333V513C257.1 510.239 254.861 508 252.1 508Z" fill="#874422"/>
<path d="M766.303 508H733.453C730.692 508 728.453 510.239 728.453 513V545.333C728.453 548.095 730.692 550.333 733.453 550.333H766.303C769.065 550.333 771.303 548.095 771.303 545.333V513C771.303 510.239 769.065 508 766.303 508Z" fill="#F4C63A"/>
<path d="M552.047 508H519.197C516.436 508 514.197 510.239 514.197 513V545.333C514.197 548.095 516.436 550.333 519.197 550.333H552.047C554.809 550.333 557.047 548.095 557.047 545.333V513C557.047 510.239 554.809 508 552.047 508Z" fill="#E0AF15"/>
<path d="M723.454 508H690.604C687.842 508 685.604 510.239 685.604 513V545.333C685.604 548.095 687.842 550.333 690.604 550.333H723.454C726.215 550.333 728.454 548.095 728.454 545.333V513C728.454 510.239 726.215 508 723.454 508Z" fill="#C6CF91"/>
<path d="M594.903 508H562.053C559.291 508 557.053 510.239 557.053 513V545.333C557.053 548.095 559.291 550.333 562.053 550.333H594.903C597.664 550.333 599.903 548.095 599.903 545.333V513C599.903 510.239 597.664 508 594.903 508Z" fill="#A83824"/>
<path d="M637.752 508H604.902C602.141 508 599.902 510.239 599.902 513V545.333C599.902 548.095 602.141 550.333 604.902 550.333H637.752C640.514 550.333 642.752 548.095 642.752 545.333V513C642.752 510.239 640.514 508 637.752 508Z" fill="#C0AC17"/>
<path d="M680.6 508H647.75C644.989 508 642.75 510.239 642.75 513V545.333C642.75 548.095 644.989 550.333 647.75 550.333H680.6C683.361 550.333 685.6 548.095 685.6 545.333V513C685.6 510.239 683.361 508 680.6 508Z" fill="#5C2213"/>
<path d="M809.151 508H776.301C773.539 508 771.301 510.239 771.301 513V545.333C771.301 548.095 773.539 550.333 776.301 550.333H809.151C811.912 550.333 814.151 548.095 814.151 545.333V513C814.151 510.239 811.912 508 809.151 508Z" fill="#ECA914"/>
<path d="M80.6997 508H47.8496C45.0882 508 42.8496 510.239 42.8496 513V545.333C42.8496 548.095 45.0882 550.333 47.8496 550.333H80.6997C83.4611 550.333 85.6997 548.095 85.6997 545.333V513C85.6997 510.239 83.4611 508 80.6997 508Z" fill="#144349"/>
<path d="M166.401 423.333H133.551C130.789 423.333 128.551 425.572 128.551 428.333V460.667C128.551 463.428 130.789 465.667 133.551 465.667H166.401C169.162 465.667 171.401 463.428 171.401 460.667V428.333C171.401 425.572 169.162 423.333 166.401 423.333Z" fill="#387437"/>
<path d="M637.752 423.333H604.902C602.141 423.333 599.902 425.572 599.902 428.333V460.667C599.902 463.428 602.141 465.667 604.902 465.667H637.752C640.514 465.667 642.752 463.428 642.752 460.667V428.333C642.752 425.572 640.514 423.333 637.752 423.333Z" fill="#DE9832"/>
<path d="M680.6 423.333H647.75C644.989 423.333 642.75 425.572 642.75 428.333V460.667C642.75 463.428 644.989 465.667 647.75 465.667H680.6C683.361 465.667 685.6 463.428 685.6 460.667V428.333C685.6 425.572 683.361 423.333 680.6 423.333Z" fill="#0B1F15"/>
<path d="M123.549 423.333H90.6992C87.9378 423.333 85.6992 425.572 85.6992 428.333V460.667C85.6992 463.428 87.9378 465.667 90.6992 465.667H123.549C126.311 465.667 128.549 463.428 128.549 460.667V428.333C128.549 425.572 126.311 423.333 123.549 423.333Z" fill="#681216"/>
<path d="M723.454 423.333H690.604C687.842 423.333 685.604 425.572 685.604 428.333V460.667C685.604 463.428 687.842 465.667 690.604 465.667H723.454C726.215 465.667 728.454 463.428 728.454 460.667V428.333C728.454 425.572 726.215 423.333 723.454 423.333Z" fill="#C86E16"/>
<path d="M594.903 423.333H562.053C559.291 423.333 557.053 425.572 557.053 428.333V460.667C557.053 463.428 559.291 465.667 562.053 465.667H594.903C597.664 465.667 599.903 463.428 599.903 460.667V428.333C599.903 425.572 597.664 423.333 594.903 423.333Z" fill="#320E08"/>
<path d="M552.047 423.333H519.197C516.436 423.333 514.197 425.572 514.197 428.333V460.667C514.197 463.428 516.436 465.667 519.197 465.667H552.047C554.809 465.667 557.047 463.428 557.047 460.667V428.333C557.047 425.572 554.809 423.333 552.047 423.333Z" fill="#D9DBB3"/>
<path d="M423.499 423.333H390.648C387.887 423.333 385.648 425.572 385.648 428.333V460.667C385.648 463.428 387.887 465.667 390.648 465.667H423.499C426.26 465.667 428.499 463.428 428.499 460.667V428.333C428.499 425.572 426.26 423.333 423.499 423.333Z" fill="#873021"/>
<path d="M466.354 423.333H433.504C430.742 423.333 428.504 425.572 428.504 428.333V460.667C428.504 463.428 430.742 465.667 433.504 465.667H466.354C469.115 465.667 471.354 463.428 471.354 460.667V428.333C471.354 425.572 469.115 423.333 466.354 423.333Z" fill="#F6DF5A"/>
<path d="M209.25 423.333H176.4C173.639 423.333 171.4 425.572 171.4 428.333V460.667C171.4 463.428 173.639 465.667 176.4 465.667H209.25C212.012 465.667 214.25 463.428 214.25 460.667V428.333C214.25 425.572 212.012 423.333 209.25 423.333Z" fill="#D3AF24"/>
<path d="M509.2 423.333H476.35C473.588 423.333 471.35 425.572 471.35 428.333V460.667C471.35 463.428 473.588 465.667 476.35 465.667H509.2C511.961 465.667 514.2 463.428 514.2 460.667V428.333C514.2 425.572 511.961 423.333 509.2 423.333Z" fill="#5B1D13"/>
<path d="M380.651 423.333H347.801C345.039 423.333 342.801 425.572 342.801 428.333V460.667C342.801 463.428 345.039 465.667 347.801 465.667H380.651C383.412 465.667 385.651 463.428 385.651 460.667V428.333C385.651 425.572 383.412 423.333 380.651 423.333Z" fill="#AF7F2E"/>
<path d="M252.1 423.333H219.25C216.489 423.333 214.25 425.572 214.25 428.333V460.667C214.25 463.428 216.489 465.667 219.25 465.667H252.1C254.861 465.667 257.1 463.428 257.1 460.667V428.333C257.1 425.572 254.861 423.333 252.1 423.333Z" fill="#D2D242"/>
<path d="M337.799 423.333H304.949C302.188 423.333 299.949 425.572 299.949 428.333V460.667C299.949 463.428 302.188 465.667 304.949 465.667H337.799C340.561 465.667 342.799 463.428 342.799 460.667V428.333C342.799 425.572 340.561 423.333 337.799 423.333Z" fill="#A75923"/>
<path d="M294.95 423.333H262.1C259.338 423.333 257.1 425.572 257.1 428.333V460.667C257.1 463.428 259.338 465.667 262.1 465.667H294.95C297.711 465.667 299.95 463.428 299.95 460.667V428.333C299.95 425.572 297.711 423.333 294.95 423.333Z" fill="#552667"/>
<path d="M37.8501 423.333H5C2.23858 423.333 0 425.572 0 428.333V460.667C0 463.428 2.23857 465.667 5 465.667H37.8501C40.6115 465.667 42.8501 463.428 42.8501 460.667V428.333C42.8501 425.572 40.6115 423.333 37.8501 423.333Z" fill="#9E4285"/>
<path d="M851.999 423.333H819.148C816.387 423.333 814.148 425.572 814.148 428.333V460.667C814.148 463.428 816.387 465.667 819.148 465.667H851.999C854.76 465.667 856.999 463.428 856.999 460.667V428.333C856.999 425.572 854.76 423.333 851.999 423.333Z" fill="#CA1E1D"/>
<path d="M766.303 423.333H733.453C730.692 423.333 728.453 425.572 728.453 428.333V460.667C728.453 463.428 730.692 465.667 733.453 465.667H766.303C769.065 465.667 771.303 463.428 771.303 460.667V428.333C771.303 425.572 769.065 423.333 766.303 423.333Z" fill="#DA8E37"/>
<path d="M809.151 423.333H776.301C773.539 423.333 771.301 425.572 771.301 428.333V460.667C771.301 463.428 773.539 465.667 776.301 465.667H809.151C811.912 465.667 814.151 463.428 814.151 460.667V428.333C814.151 425.572 811.912 423.333 809.151 423.333Z" fill="#F5D01F"/>
<path d="M80.6997 423.333H47.8496C45.0882 423.333 42.8496 425.572 42.8496 428.333V460.667C42.8496 463.428 45.0882 465.667 47.8496 465.667H80.6997C83.4611 465.667 85.6997 463.428 85.6997 460.667V428.333C85.6997 425.572 83.4611 423.333 80.6997 423.333Z" fill="#BCC2D3"/>
<path d="M123.549 465.667H90.6992C87.9378 465.667 85.6992 467.905 85.6992 470.667V503C85.6992 505.762 87.9378 508 90.6992 508H123.549C126.311 508 128.549 505.762 128.549 503V470.667C128.549 467.905 126.311 465.667 123.549 465.667Z" fill="#F6B952"/>
<path d="M380.651 465.667H347.801C345.039 465.667 342.801 467.905 342.801 470.667V503C342.801 505.762 345.039 508 347.801 508H380.651C383.412 508 385.651 505.762 385.651 503V470.667C385.651 467.905 383.412 465.667 380.651 465.667Z" fill="#37160A"/>
<path d="M337.799 465.667H304.949C302.188 465.667 299.949 467.905 299.949 470.667V503C299.949 505.762 302.188 508 304.949 508H337.799C340.561 508 342.799 505.762 342.799 503V470.667C342.799 467.905 340.561 465.667 337.799 465.667Z" fill="#B59518"/>
<path d="M423.499 465.667H390.648C387.887 465.667 385.648 467.905 385.648 470.667V503C385.648 505.762 387.887 508 390.648 508H423.499C426.26 508 428.499 505.762 428.499 503V470.667C428.499 467.905 426.26 465.667 423.499 465.667Z" fill="#8F3E23"/>
<path d="M294.95 465.667H262.1C259.338 465.667 257.1 467.905 257.1 470.667V503C257.1 505.762 259.338 508 262.1 508H294.95C297.711 508 299.95 505.762 299.95 503V470.667C299.95 467.905 297.711 465.667 294.95 465.667Z" fill="#955D24"/>
<path d="M166.401 465.667H133.551C130.789 465.667 128.551 467.905 128.551 470.667V503C128.551 505.762 130.789 508 133.551 508H166.401C169.162 508 171.401 505.762 171.401 503V470.667C171.401 467.905 169.162 465.667 166.401 465.667Z" fill="#9C6A24"/>
<path d="M209.25 465.667H176.4C173.639 465.667 171.4 467.905 171.4 470.667V503C171.4 505.762 173.639 508 176.4 508H209.25C212.012 508 214.25 505.762 214.25 503V470.667C214.25 467.905 212.012 465.667 209.25 465.667Z" fill="#948D27"/>
<path d="M252.1 465.667H219.25C216.489 465.667 214.25 467.905 214.25 470.667V503C214.25 505.762 216.489 508 219.25 508H252.1C254.861 508 257.1 505.762 257.1 503V470.667C257.1 467.905 254.861 465.667 252.1 465.667Z" fill="#CE5018"/>
<path d="M466.354 465.667H433.504C430.742 465.667 428.504 467.905 428.504 470.667V503C428.504 505.762 430.742 508 433.504 508H466.354C469.115 508 471.354 505.762 471.354 503V470.667C471.354 467.905 469.115 465.667 466.354 465.667Z" fill="#896C28"/>
<path d="M509.2 465.667H476.35C473.588 465.667 471.35 467.905 471.35 470.667V503C471.35 505.762 473.588 508 476.35 508H509.2C511.961 508 514.2 505.762 514.2 503V470.667C514.2 467.905 511.961 465.667 509.2 465.667Z" fill="#422911"/>
<path d="M723.454 465.667H690.604C687.842 465.667 685.604 467.905 685.604 470.667V503C685.604 505.762 687.842 508 690.604 508H723.454C726.215 508 728.454 505.762 728.454 503V470.667C728.454 467.905 726.215 465.667 723.454 465.667Z" fill="#9F6924"/>
<path d="M680.6 465.667H647.75C644.989 465.667 642.75 467.905 642.75 470.667V503C642.75 505.762 644.989 508 647.75 508H680.6C683.361 508 685.6 505.762 685.6 503V470.667C685.6 467.905 683.361 465.667 680.6 465.667Z" fill="#E6A133"/>
<path d="M594.903 465.667H562.053C559.291 465.667 557.053 467.905 557.053 470.667V503C557.053 505.762 559.291 508 562.053 508H594.903C597.664 508 599.903 505.762 599.903 503V470.667C599.903 467.905 597.664 465.667 594.903 465.667Z" fill="#C7A798"/>
<path d="M552.047 465.667H519.197C516.436 465.667 514.197 467.905 514.197 470.667V503C514.197 505.762 516.436 508 519.197 508H552.047C554.809 508 557.047 505.762 557.047 503V470.667C557.047 467.905 554.809 465.667 552.047 465.667Z" fill="#5C5A30"/>
<path d="M637.752 465.667H604.902C602.141 465.667 599.902 467.905 599.902 470.667V503C599.902 505.762 602.141 508 604.902 508H637.752C640.514 508 642.752 505.762 642.752 503V470.667C642.752 467.905 640.514 465.667 637.752 465.667Z" fill="#E4740F"/>
<path d="M37.8501 465.667H5C2.23858 465.667 0 467.905 0 470.667V503C0 505.761 2.23857 508 5 508H37.8501C40.6115 508 42.8501 505.762 42.8501 503V470.667C42.8501 467.905 40.6115 465.667 37.8501 465.667Z" fill="#962723"/>
<path d="M851.999 465.667H819.148C816.387 465.667 814.148 467.905 814.148 470.667V503C814.148 505.762 816.387 508 819.148 508H851.999C854.76 508 856.999 505.762 856.999 503V470.667C856.999 467.905 854.76 465.667 851.999 465.667Z" fill="#AA782F"/>
<path d="M766.303 465.667H733.453C730.692 465.667 728.453 467.905 728.453 470.667V503C728.453 505.762 730.692 508 733.453 508H766.303C769.065 508 771.303 505.762 771.303 503V470.667C771.303 467.905 769.065 465.667 766.303 465.667Z" fill="#BA631E"/>
<path d="M809.151 465.667H776.301C773.539 465.667 771.301 467.905 771.301 470.667V503C771.301 505.762 773.539 508 776.301 508H809.151C811.912 508 814.151 505.762 814.151 503V470.667C814.151 467.905 811.912 465.667 809.151 465.667Z" fill="#747831"/>
<path d="M80.6997 465.667H47.8496C45.0882 465.667 42.8496 467.905 42.8496 470.667V503C42.8496 505.762 45.0882 508 47.8496 508H80.6997C83.4611 508 85.6997 505.762 85.6997 503V470.667C85.6997 467.905 83.4611 465.667 80.6997 465.667Z" fill="#4A3F1C"/>
<path d="M166.401 381H133.551C130.789 381 128.551 383.239 128.551 386V418.333C128.551 421.095 130.789 423.333 133.551 423.333H166.401C169.162 423.333 171.401 421.095 171.401 418.333V386C171.401 383.239 169.162 381 166.401 381Z" fill="#DECAE1"/>
<path d="M680.6 381H647.75C644.989 381 642.75 383.239 642.75 386V418.333C642.75 421.095 644.989 423.333 647.75 423.333H680.6C683.361 423.333 685.6 421.095 685.6 418.333V386C685.6 383.239 683.361 381 680.6 381Z" fill="#AB8BB9"/>
<path d="M123.549 381H90.6992C87.9378 381 85.6992 383.239 85.6992 386V418.333C85.6992 421.095 87.9378 423.333 90.6992 423.333H123.549C126.311 423.333 128.549 421.095 128.549 418.333V386C128.549 383.239 126.311 381 123.549 381Z" fill="#635C9D"/>
<path d="M723.454 381H690.604C687.842 381 685.604 383.239 685.604 386V418.333C685.604 421.095 687.842 423.333 690.604 423.333H723.454C726.215 423.333 728.454 421.095 728.454 418.333V386C728.454 383.239 726.215 381 723.454 381Z" fill="#152047"/>
<path d="M252.1 381H219.25C216.489 381 214.25 383.239 214.25 386V418.333C214.25 421.095 216.489 423.333 219.25 423.333H252.1C254.861 423.333 257.1 421.095 257.1 418.333V386C257.1 383.239 254.861 381 252.1 381Z" fill="#0B1F15"/>
<path d="M209.25 381H176.4C173.639 381 171.4 383.239 171.4 386V418.333C171.4 421.095 173.639 423.333 176.4 423.333H209.25C212.012 423.333 214.25 421.095 214.25 418.333V386C214.25 383.239 212.012 381 209.25 381Z" fill="#B99022"/>
<path d="M466.354 381H433.504C430.742 381 428.504 383.239 428.504 386V418.333C428.504 421.095 430.742 423.333 433.504 423.333H466.354C469.115 423.333 471.354 421.095 471.354 418.333V386C471.354 383.239 469.115 381 466.354 381Z" fill="#B0943A"/>
<path d="M509.2 381H476.35C473.588 381 471.35 383.239 471.35 386V418.333C471.35 421.095 473.588 423.333 476.35 423.333H509.2C511.961 423.333 514.2 421.095 514.2 418.333V386C514.2 383.239 511.961 381 509.2 381Z" fill="#68236A"/>
<path d="M637.752 381H604.902C602.141 381 599.902 383.239 599.902 386V418.333C599.902 421.095 602.141 423.333 604.902 423.333H637.752C640.514 423.333 642.752 421.095 642.752 418.333V386C642.752 383.239 640.514 381 637.752 381Z" fill="#E0CD24"/>
<path d="M594.903 381H562.053C559.291 381 557.053 383.239 557.053 386V418.333C557.053 421.095 559.291 423.333 562.053 423.333H594.903C597.664 423.333 599.903 421.095 599.903 418.333V386C599.903 383.239 597.664 381 594.903 381Z" fill="#0F3A58"/>
<path d="M423.499 381H390.648C387.887 381 385.648 383.239 385.648 386V418.333C385.648 421.095 387.887 423.333 390.648 423.333H423.499C426.26 423.333 428.499 421.095 428.499 418.333V386C428.499 383.239 426.26 381 423.499 381Z" fill="#40110C"/>
<path d="M337.799 381H304.949C302.188 381 299.949 383.239 299.949 386V418.333C299.949 421.095 302.188 423.333 304.949 423.333H337.799C340.561 423.333 342.799 421.095 342.799 418.333V386C342.799 383.239 340.561 381 337.799 381Z" fill="#17337F"/>
<path d="M380.651 381H347.801C345.039 381 342.801 383.239 342.801 386V418.333C342.801 421.095 345.039 423.333 347.801 423.333H380.651C383.412 423.333 385.651 421.095 385.651 418.333V386C385.651 383.239 383.412 381 380.651 381Z" fill="#B397B0"/>
<path d="M294.95 381H262.1C259.338 381 257.1 383.239 257.1 386V418.333C257.1 421.095 259.338 423.333 262.1 423.333H294.95C297.711 423.333 299.95 421.095 299.95 418.333V386C299.95 383.239 297.711 381 294.95 381Z" fill="#6C6329"/>
<path d="M552.047 381H519.197C516.436 381 514.197 383.239 514.197 386V418.333C514.197 421.095 516.436 423.333 519.197 423.333H552.047C554.809 423.333 557.047 421.095 557.047 418.333V386C557.047 383.239 554.809 381 552.047 381Z" fill="#C57BA2"/>
<path d="M37.8501 381H5C2.23858 381 0 383.239 0 386V418.333C0 421.095 2.23857 423.333 5 423.333H37.8501C40.6115 423.333 42.8501 421.095 42.8501 418.333V386C42.8501 383.239 40.6115 381 37.8501 381Z" fill="#614F23"/>
<path d="M851.999 381H819.148C816.387 381 814.148 383.239 814.148 386V418.333C814.148 421.095 816.387 423.333 819.148 423.333H851.999C854.76 423.333 856.999 421.095 856.999 418.333V386C856.999 383.239 854.76 381 851.999 381Z" fill="#773B5C"/>
<path d="M809.151 381H776.301C773.539 381 771.301 383.239 771.301 386V418.333C771.301 421.095 773.539 423.333 776.301 423.333H809.151C811.912 423.333 814.151 421.095 814.151 418.333V386C814.151 383.239 811.912 381 809.151 381Z" fill="#410A27"/>
<path d="M766.303 381H733.453C730.692 381 728.453 383.239 728.453 386V418.333C728.453 421.095 730.692 423.333 733.453 423.333H766.303C769.065 423.333 771.303 421.095 771.303 418.333V386C771.303 383.239 769.065 381 766.303 381Z" fill="#999C7B"/>
<path d="M80.6997 381H47.8496C45.0882 381 42.8496 383.239 42.8496 386V418.333C42.8496 421.095 45.0882 423.333 47.8496 423.333H80.6997C83.4611 423.333 85.6997 421.095 85.6997 418.333V386C85.6997 383.239 83.4611 381 80.6997 381Z" fill="#C7A6C9"/>
<path d="M851.999 550.333H819.148C816.387 550.333 814.148 552.572 814.148 555.333V587.667C814.148 590.428 816.387 592.667 819.148 592.667H851.999C854.76 592.667 856.999 590.428 856.999 587.667V555.333C856.999 552.572 854.76 550.333 851.999 550.333Z" fill="#861B20"/>
<path d="M37.8501 550.333H5C2.23858 550.333 0 552.572 0 555.333V587.667C0 590.428 2.23857 592.667 5 592.667H37.8501C40.6115 592.667 42.8501 590.428 42.8501 587.667V555.333C42.8501 552.572 40.6115 550.333 37.8501 550.333Z" fill="#A43524"/>
<path d="M380.651 550.333H347.801C345.039 550.333 342.801 552.572 342.801 555.333V587.667C342.801 590.428 345.039 592.667 347.801 592.667H380.651C383.412 592.667 385.651 590.428 385.651 587.667V555.333C385.651 552.572 383.412 550.333 380.651 550.333Z" fill="#F2BFB8"/>
<path d="M423.499 550.333H390.648C387.887 550.333 385.648 552.572 385.648 555.333V587.667C385.648 590.428 387.887 592.667 390.648 592.667H423.499C426.26 592.667 428.499 590.428 428.499 587.667V555.333C428.499 552.572 426.26 550.333 423.499 550.333Z" fill="#909527"/>
<path d="M509.2 550.333H476.35C473.588 550.333 471.35 552.572 471.35 555.333V587.667C471.35 590.428 473.588 592.667 476.35 592.667H509.2C511.961 592.667 514.2 590.428 514.2 587.667V555.333C514.2 552.572 511.961 550.333 509.2 550.333Z" fill="#B17522"/>
<path d="M337.799 550.333H304.949C302.188 550.333 299.949 552.572 299.949 555.333V587.667C299.949 590.428 302.188 592.667 304.949 592.667H337.799C340.561 592.667 342.799 590.428 342.799 587.667V555.333C342.799 552.572 340.561 550.333 337.799 550.333Z" fill="#494D24"/>
<path d="M166.401 550.333H133.551C130.789 550.333 128.551 552.572 128.551 555.333V587.667C128.551 590.428 130.789 592.667 133.551 592.667H166.401C169.162 592.667 171.401 590.428 171.401 587.667V555.333C171.401 552.572 169.162 550.333 166.401 550.333Z" fill="#DC5D47"/>
<path d="M552.047 550.333H519.197C516.436 550.333 514.197 552.572 514.197 555.333V587.667C514.197 590.428 516.436 592.667 519.197 592.667H552.047C554.809 592.667 557.047 590.428 557.047 587.667V555.333C557.047 552.572 554.809 550.333 552.047 550.333Z" fill="#8C6626"/>
<path d="M209.25 550.333H176.4C173.639 550.333 171.4 552.572 171.4 555.333V587.667C171.4 590.428 173.639 592.667 176.4 592.667H209.25C212.012 592.667 214.25 590.428 214.25 587.667V555.333C214.25 552.572 212.012 550.333 209.25 550.333Z" fill="#112E24"/>
<path d="M294.95 550.333H262.1C259.338 550.333 257.1 552.572 257.1 555.333V587.667C257.1 590.428 259.338 592.667 262.1 592.667H294.95C297.711 592.667 299.95 590.428 299.95 587.667V555.333C299.95 552.572 297.711 550.333 294.95 550.333Z" fill="#5F2E16"/>
<path d="M252.1 550.333H219.25C216.489 550.333 214.25 552.572 214.25 555.333V587.667C214.25 590.428 216.489 592.667 219.25 592.667H252.1C254.861 592.667 257.1 590.428 257.1 587.667V555.333C257.1 552.572 254.861 550.333 252.1 550.333Z" fill="#D18C0D"/>
<path d="M766.303 550.333H733.453C730.692 550.333 728.453 552.572 728.453 555.333V587.667C728.453 590.428 730.692 592.667 733.453 592.667H766.303C769.065 592.667 771.303 590.428 771.303 587.667V555.333C771.303 552.572 769.065 550.333 766.303 550.333Z" fill="#BD6B1C"/>
<path d="M809.151 550.333H776.301C773.539 550.333 771.301 552.572 771.301 555.333V587.667C771.301 590.428 773.539 592.667 776.301 592.667H809.151C811.912 592.667 814.151 590.428 814.151 587.667V555.333C814.151 552.572 811.912 550.333 809.151 550.333Z" fill="#5D2314"/>
<path d="M594.903 550.333H562.053C559.291 550.333 557.053 552.572 557.053 555.333V587.667C557.053 590.428 559.291 592.667 562.053 592.667H594.903C597.664 592.667 599.903 590.428 599.903 587.667V555.333C599.903 552.572 597.664 550.333 594.903 550.333Z" fill="#C99129"/>
<path d="M723.454 550.333H690.604C687.842 550.333 685.604 552.572 685.604 555.333V587.667C685.604 590.428 687.842 592.667 690.604 592.667H723.454C726.215 592.667 728.454 590.428 728.454 587.667V555.333C728.454 552.572 726.215 550.333 723.454 550.333Z" fill="#480809"/>
<path d="M637.752 550.333H604.902C602.141 550.333 599.902 552.572 599.902 555.333V587.667C599.902 590.428 602.141 592.667 604.902 592.667H637.752C640.514 592.667 642.752 590.428 642.752 587.667V555.333C642.752 552.572 640.514 550.333 637.752 550.333Z" fill="#565627"/>
<path d="M680.6 550.333H647.75C644.989 550.333 642.75 552.572 642.75 555.333V587.667C642.75 590.428 644.989 592.667 647.75 592.667H680.6C683.361 592.667 685.6 590.428 685.6 587.667V555.333C685.6 552.572 683.361 550.333 680.6 550.333Z" fill="#EEA167"/>
<path d="M466.354 550.333H433.504C430.742 550.333 428.504 552.572 428.504 555.333V587.667C428.504 590.428 430.742 592.667 433.504 592.667H466.354C469.115 592.667 471.354 590.428 471.354 587.667V555.333C471.354 552.572 469.115 550.333 466.354 550.333Z" fill="#D03025"/>
<path d="M80.6997 550.333H47.8496C45.0882 550.333 42.8496 552.572 42.8496 555.333V587.667C42.8496 590.428 45.0882 592.667 47.8496 592.667H80.6997C83.4611 592.667 85.6997 590.428 85.6997 587.667V555.333C85.6997 552.572 83.4611 550.333 80.6997 550.333Z" fill="#D32A19"/>
<path d="M123.549 550.333H90.6992C87.9378 550.333 85.6992 552.572 85.6992 555.333V587.667C85.6992 590.428 87.9378 592.667 90.6992 592.667H123.549C126.311 592.667 128.549 590.428 128.549 587.667V555.333C128.549 552.572 126.311 550.333 123.549 550.333Z" fill="#B41D23"/>
<path d="M680.6 338.667H647.75C644.989 338.667 642.75 340.905 642.75 343.667V376C642.75 378.761 644.989 381 647.75 381H680.6C683.361 381 685.6 378.761 685.6 376V343.667C685.6 340.905 683.361 338.667 680.6 338.667Z" fill="#324120"/>
<path d="M123.549 338.667H90.6992C87.9378 338.667 85.6992 340.905 85.6992 343.667V376C85.6992 378.761 87.9378 381 90.6992 381H123.549C126.311 381 128.549 378.761 128.549 376V343.667C128.549 340.905 126.311 338.667 123.549 338.667Z" fill="#644A21"/>
<path d="M723.454 338.667H690.604C687.842 338.667 685.604 340.905 685.604 343.667V376C685.604 378.761 687.842 381 690.604 381H723.454C726.215 381 728.454 378.761 728.454 376V343.667C728.454 340.905 726.215 338.667 723.454 338.667Z" fill="#986B25"/>
<path d="M166.401 338.667H133.551C130.789 338.667 128.551 340.905 128.551 343.667V376C128.551 378.761 130.789 381 133.551 381H166.401C169.162 381 171.401 378.761 171.401 376V343.667C171.401 340.905 169.162 338.667 166.401 338.667Z" fill="#835B3D"/>
<path d="M466.354 338.667H433.504C430.742 338.667 428.504 340.905 428.504 343.667V376C428.504 378.761 430.742 381 433.504 381H466.354C469.115 381 471.354 378.761 471.354 376V343.667C471.354 340.905 469.115 338.667 466.354 338.667Z" fill="#A08CBB"/>
<path d="M509.2 338.667H476.35C473.588 338.667 471.35 340.905 471.35 343.667V376C471.35 378.761 473.588 381 476.35 381H509.2C511.961 381 514.2 378.761 514.2 376V343.667C514.2 340.905 511.961 338.667 509.2 338.667Z" fill="#551C15"/>
<path d="M552.047 338.667H519.197C516.436 338.667 514.197 340.905 514.197 343.667V376C514.197 378.761 516.436 381 519.197 381H552.047C554.809 381 557.047 378.761 557.047 376V343.667C557.047 340.905 554.809 338.667 552.047 338.667Z" fill="#B79F45"/>
<path d="M594.903 338.667H562.053C559.291 338.667 557.053 340.905 557.053 343.667V376C557.053 378.761 559.291 381 562.053 381H594.903C597.664 381 599.903 378.761 599.903 376V343.667C599.903 340.905 597.664 338.667 594.903 338.667Z" fill="#79558C"/>
<path d="M252.1 338.667H219.25C216.489 338.667 214.25 340.905 214.25 343.667V376C214.25 378.761 216.489 381 219.25 381H252.1C254.861 381 257.1 378.761 257.1 376V343.667C257.1 340.905 254.861 338.667 252.1 338.667Z" fill="#534A21"/>
<path d="M337.799 338.667H304.949C302.188 338.667 299.949 340.905 299.949 343.667V376C299.949 378.761 302.188 381 304.949 381H337.799C340.561 381 342.799 378.761 342.799 376V343.667C342.799 340.905 340.561 338.667 337.799 338.667Z" fill="#454C38"/>
<path d="M294.95 338.667H262.1C259.338 338.667 257.1 340.905 257.1 343.667V376C257.1 378.761 259.338 381 262.1 381H294.95C297.711 381 299.95 378.761 299.95 376V343.667C299.95 340.905 297.711 338.667 294.95 338.667Z" fill="#D67C46"/>
<path d="M423.499 338.667H390.648C387.887 338.667 385.648 340.905 385.648 343.667V376C385.648 378.761 387.887 381 390.648 381H423.499C426.26 381 428.499 378.761 428.499 376V343.667C428.499 340.905 426.26 338.667 423.499 338.667Z" fill="#C08914"/>
<path d="M380.651 338.667H347.801C345.039 338.667 342.801 340.905 342.801 343.667V376C342.801 378.761 345.039 381 347.801 381H380.651C383.412 381 385.651 378.761 385.651 376V343.667C385.651 340.905 383.412 338.667 380.651 338.667Z" fill="#B9A87C"/>
<path d="M209.25 338.667H176.4C173.639 338.667 171.4 340.905 171.4 343.667V376C171.4 378.761 173.639 381 176.4 381H209.25C212.012 381 214.25 378.761 214.25 376V343.667C214.25 340.905 212.012 338.667 209.25 338.667Z" fill="#BB895B"/>
<path d="M637.752 338.667H604.902C602.141 338.667 599.902 340.905 599.902 343.667V376C599.902 378.761 602.141 381 604.902 381H637.752C640.514 381 642.752 378.761 642.752 376V343.667C642.752 340.905 640.514 338.667 637.752 338.667Z" fill="#DBCA20"/>
<path d="M37.8501 338.667H5C2.23858 338.667 0 340.905 0 343.667V376C0 378.761 2.23857 381 5 381H37.8501C40.6115 381 42.8501 378.761 42.8501 376V343.667C42.8501 340.905 40.6115 338.667 37.8501 338.667Z" fill="#DD6C16"/>
<path d="M809.151 338.667H776.301C773.539 338.667 771.301 340.905 771.301 343.667V376C771.301 378.761 773.539 381 776.301 381H809.151C811.912 381 814.151 378.761 814.151 376V343.667C814.151 340.905 811.912 338.667 809.151 338.667Z" fill="#8A8D74"/>
<path d="M851.999 338.667H819.148C816.387 338.667 814.148 340.905 814.148 343.667V376C814.148 378.761 816.387 381 819.148 381H851.999C854.76 381 856.999 378.761 856.999 376V343.667C856.999 340.905 854.76 338.667 851.999 338.667Z" fill="#AB6B99"/>
<path d="M766.303 338.667H733.453C730.692 338.667 728.453 340.905 728.453 343.667V376C728.453 378.761 730.692 381 733.453 381H766.303C769.065 381 771.303 378.761 771.303 376V343.667C771.303 340.905 769.065 338.667 766.303 338.667Z" fill="#A689B1"/>
<path d="M80.6997 338.667H47.8496C45.0882 338.667 42.8496 340.905 42.8496 343.667V376C42.8496 378.761 45.0882 381 47.8496 381H80.6997C83.4611 381 85.6997 378.761 85.6997 376V343.667C85.6997 340.905 83.4611 338.667 80.6997 338.667Z" fill="#BBA570"/>
</svg>
