<svg width="857" height="635" viewBox="0 0 857 635" fill="none" xmlns="http://www.w3.org/2000/svg">
<path d="M166.401 0H133.551C130.789 0 128.551 2.23857 128.551 4.99999V37.3333C128.551 40.0947 130.789 42.3333 133.551 42.3333H166.401C169.162 42.3333 171.401 40.0948 171.401 37.3333V5C171.401 2.23858 169.162 0 166.401 0Z" fill="#5A6E4E"/>
<path d="M80.6977 0H47.8477C45.0862 0 42.8477 2.23857 42.8477 4.99999V37.3333C42.8477 40.0947 45.0862 42.3333 47.8477 42.3333H80.6977C83.4591 42.3333 85.6977 40.0948 85.6977 37.3333V5C85.6977 2.23858 83.4591 0 80.6977 0Z" fill="#DAD860"/>
<path d="M37.85 0H5C2.23858 0 0 2.23857 0 4.99999V37.3333C0 40.0948 2.23857 42.3333 4.99999 42.3333H37.85C40.6115 42.3333 42.85 40.0948 42.85 37.3333V5C42.85 2.23858 40.6115 0 37.85 0Z" fill="#D94913"/>
<path d="M294.95 0H262.1C259.338 0 257.1 2.23857 257.1 4.99999V37.3333C257.1 40.0947 259.338 42.3333 262.1 42.3333H294.95C297.711 42.3333 299.95 40.0948 299.95 37.3333V5C299.95 2.23858 297.711 0 294.95 0Z" fill="#E5E0E5"/>
<path d="M337.799 0H304.949C302.188 0 299.949 2.23857 299.949 4.99999V37.3333C299.949 40.0947 302.188 42.3333 304.949 42.3333H337.799C340.561 42.3333 342.799 40.0948 342.799 37.3333V5C342.799 2.23858 340.561 0 337.799 0Z" fill="#003C86"/>
<path d="M380.651 0H347.801C345.039 0 342.801 2.23857 342.801 4.99999V37.3333C342.801 40.0947 345.039 42.3333 347.801 42.3333H380.651C383.412 42.3333 385.651 40.0948 385.651 37.3333V5C385.651 2.23858 383.412 0 380.651 0Z" fill="#F2E3DA"/>
<path d="M252.1 0H219.25C216.489 0 214.25 2.23857 214.25 4.99999V37.3333C214.25 40.0947 216.489 42.3333 219.25 42.3333H252.1C254.861 42.3333 257.1 40.0948 257.1 37.3333V5C257.1 2.23858 254.861 0 252.1 0Z" fill="#F5B84B"/>
<path d="M209.25 0H176.4C173.639 0 171.4 2.23857 171.4 4.99999V37.3333C171.4 40.0947 173.639 42.3333 176.4 42.3333H209.25C212.012 42.3333 214.25 40.0948 214.25 37.3333V5C214.25 2.23858 212.012 0 209.25 0Z" fill="#F4DF25"/>
<path d="M123.549 0H90.6992C87.9378 0 85.6992 2.23857 85.6992 4.99999V37.3333C85.6992 40.0947 87.9378 42.3333 90.6992 42.3333H123.549C126.311 42.3333 128.549 40.0948 128.549 37.3333V5C128.549 2.23858 126.311 0 123.549 0Z" fill="#F5BF1B"/>
<path d="M423.498 0H390.648C387.887 0 385.648 2.23857 385.648 4.99999V37.3333C385.648 40.0947 387.887 42.3333 390.648 42.3333H423.498C426.26 42.3333 428.498 40.0948 428.498 37.3333V5C428.498 2.23858 426.26 0 423.498 0Z" fill="#F9DD91"/>
<path d="M809.151 0H776.301C773.539 0 771.301 2.23857 771.301 4.99999V37.3333C771.301 40.0947 773.539 42.3333 776.301 42.3333H809.151C811.912 42.3333 814.151 40.0948 814.151 37.3333V5C814.151 2.23858 811.912 0 809.151 0Z" fill="#D5D555"/>
<path d="M766.301 0H733.451C730.69 0 728.451 2.23857 728.451 4.99999V37.3333C728.451 40.0947 730.69 42.3333 733.451 42.3333H766.301C769.063 42.3333 771.301 40.0948 771.301 37.3333V5C771.301 2.23858 769.063 0 766.301 0Z" fill="#AFC44E"/>
<path d="M594.903 0H562.053C559.291 0 557.053 2.23857 557.053 4.99999V37.3333C557.053 40.0947 559.291 42.3333 562.053 42.3333H594.903C597.664 42.3333 599.903 40.0948 599.903 37.3333V5C599.903 2.23858 597.664 0 594.903 0Z" fill="#BD7DA4"/>
<path d="M509.198 0H476.348C473.586 0 471.348 2.23857 471.348 4.99999V37.3333C471.348 40.0947 473.586 42.3333 476.348 42.3333H509.198C511.959 42.3333 514.198 40.0948 514.198 37.3333V5C514.198 2.23858 511.959 0 509.198 0Z" fill="#E2CCE1"/>
<path d="M466.352 0H433.502C430.741 0 428.502 2.23857 428.502 4.99999V37.3333C428.502 40.0947 430.741 42.3333 433.502 42.3333H466.352C469.113 42.3333 471.352 40.0948 471.352 37.3333V5C471.352 2.23858 469.113 0 466.352 0Z" fill="#5488C0"/>
<path d="M552.047 0H519.197C516.436 0 514.197 2.23857 514.197 4.99999V37.3333C514.197 40.0947 516.436 42.3333 519.197 42.3333H552.047C554.809 42.3333 557.047 40.0948 557.047 37.3333V5C557.047 2.23858 554.809 0 552.047 0Z" fill="#A99765"/>
<path d="M637.75 0H604.9C602.139 0 599.9 2.23857 599.9 4.99999V37.3333C599.9 40.0947 602.139 42.3333 604.9 42.3333H637.75C640.512 42.3333 642.75 40.0948 642.75 37.3333V5C642.75 2.23858 640.512 0 637.75 0Z" fill="#CC3A1B"/>
<path d="M723.452 0H690.602C687.84 0 685.602 2.23857 685.602 4.99999V37.3333C685.602 40.0947 687.84 42.3333 690.602 42.3333H723.452C726.213 42.3333 728.452 40.0948 728.452 37.3333V5C728.452 2.23858 726.213 0 723.452 0Z" fill="#5FA352"/>
<path d="M680.6 0H647.75C644.989 0 642.75 2.23857 642.75 4.99999V37.3333C642.75 40.0947 644.989 42.3333 647.75 42.3333H680.6C683.361 42.3333 685.6 40.0948 685.6 37.3333V5C685.6 2.23858 683.361 0 680.6 0Z" fill="#B89187"/>
<path d="M851.998 0H819.148C816.387 0 814.148 2.23857 814.148 4.99999V37.3333C814.148 40.0947 816.387 42.3333 819.148 42.3333H851.998C854.76 42.3333 856.998 40.0948 856.998 37.3333V5C856.998 2.23858 854.76 0 851.998 0Z" fill="#538F36"/>
<path d="M37.8501 42.3334H5C2.23858 42.3334 0 44.5719 0 47.3334V79.6667C0 82.4281 2.23857 84.6667 4.99999 84.6667H37.85C40.6115 84.6667 42.85 82.4281 42.85 79.6667V47.3334C42.85 44.572 40.6115 42.3334 37.8501 42.3334Z" fill="#C6DABC"/>
<path d="M809.151 42.3334H776.301C773.539 42.3334 771.301 44.5719 771.301 47.3334V79.6667C771.301 82.4281 773.539 84.6667 776.301 84.6667H809.151C811.912 84.6667 814.151 82.4281 814.151 79.6667V47.3334C814.151 44.572 811.912 42.3334 809.151 42.3334Z" fill="#FADCAF"/>
<path d="M851.998 42.3334H819.148C816.387 42.3334 814.148 44.5719 814.148 47.3334V79.6667C814.148 82.4281 816.387 84.6667 819.148 84.6667H851.998C854.76 84.6667 856.998 82.4281 856.998 79.6667V47.3334C856.998 44.572 854.76 42.3334 851.998 42.3334Z" fill="#D54F1F"/>
<path d="M766.301 42.3334H733.451C730.69 42.3334 728.451 44.5719 728.451 47.3334V79.6667C728.451 82.4281 730.69 84.6667 733.451 84.6667H766.301C769.063 84.6667 771.301 82.4281 771.301 79.6667V47.3334C771.301 44.572 769.063 42.3334 766.301 42.3334Z" fill="#EA9D80"/>
<path d="M723.452 42.3334H690.602C687.84 42.3334 685.602 44.5719 685.602 47.3334V79.6667C685.602 82.4281 687.84 84.6667 690.602 84.6667H723.452C726.213 84.6667 728.452 82.4281 728.452 79.6667V47.3334C728.452 44.572 726.213 42.3334 723.452 42.3334Z" fill="#F5BA1A"/>
<path d="M680.6 42.3334H647.75C644.989 42.3334 642.75 44.5719 642.75 47.3334V79.6667C642.75 82.4281 644.989 84.6667 647.75 84.6667H680.6C683.361 84.6667 685.6 82.4281 685.6 79.6667V47.3334C685.6 44.572 683.361 42.3334 680.6 42.3334Z" fill="#D2B69E"/>
<path d="M380.651 42.3334H347.801C345.039 42.3334 342.801 44.5719 342.801 47.3334V79.6667C342.801 82.4281 345.039 84.6667 347.801 84.6667H380.651C383.412 84.6667 385.651 82.4281 385.651 79.6667V47.3334C385.651 44.572 383.412 42.3334 380.651 42.3334Z" fill="#B8C391"/>
<path d="M466.352 42.3334H433.502C430.741 42.3334 428.502 44.5719 428.502 47.3334V79.6667C428.502 82.4281 430.741 84.6667 433.502 84.6667H466.352C469.113 84.6667 471.352 82.4281 471.352 79.6667V47.3334C471.352 44.572 469.113 42.3334 466.352 42.3334Z" fill="#A36423"/>
<path d="M423.498 42.3334H390.648C387.887 42.3334 385.648 44.5719 385.648 47.3334V79.6667C385.648 82.4281 387.887 84.6667 390.648 84.6667H423.498C426.26 84.6667 428.498 82.4281 428.498 79.6667V47.3334C428.498 44.572 426.26 42.3334 423.498 42.3334Z" fill="#C0BC7A"/>
<path d="M337.799 42.3334H304.949C302.188 42.3334 299.949 44.5719 299.949 47.3334V79.6667C299.949 82.4281 302.188 84.6667 304.949 84.6667H337.799C340.561 84.6667 342.799 82.4281 342.799 79.6667V47.3334C342.799 44.572 340.561 42.3334 337.799 42.3334Z" fill="#CB387E"/>
<path d="M509.198 42.3334H476.348C473.586 42.3334 471.348 44.5719 471.348 47.3334V79.6667C471.348 82.4281 473.586 84.6667 476.348 84.6667H509.198C511.959 84.6667 514.198 82.4281 514.198 79.6667V47.3334C514.198 44.572 511.959 42.3334 509.198 42.3334Z" fill="#B2B1BD"/>
<path d="M594.903 42.3334H562.053C559.291 42.3334 557.053 44.5719 557.053 47.3334V79.6667C557.053 82.4281 559.291 84.6667 562.053 84.6667H594.903C597.664 84.6667 599.903 82.4281 599.903 79.6667V47.3334C599.903 44.572 597.664 42.3334 594.903 42.3334Z" fill="#AC848F"/>
<path d="M552.047 42.3334H519.197C516.436 42.3334 514.197 44.5719 514.197 47.3334V79.6667C514.197 82.4281 516.436 84.6667 519.197 84.6667H552.047C554.809 84.6667 557.047 82.4281 557.047 79.6667V47.3334C557.047 44.572 554.809 42.3334 552.047 42.3334Z" fill="#BDC1CC"/>
<path d="M637.75 42.3334H604.9C602.139 42.3334 599.9 44.5719 599.9 47.3334V79.6667C599.9 82.4281 602.139 84.6667 604.9 84.6667H637.75C640.512 84.6667 642.75 82.4281 642.75 79.6667V47.3334C642.75 44.572 640.512 42.3334 637.75 42.3334Z" fill="#E3C5AD"/>
<path d="M294.95 42.3334H262.1C259.338 42.3334 257.1 44.5719 257.1 47.3334V79.6667C257.1 82.4281 259.338 84.6667 262.1 84.6667H294.95C297.711 84.6667 299.95 82.4281 299.95 79.6667V47.3334C299.95 44.572 297.711 42.3334 294.95 42.3334Z" fill="#D3BEB8"/>
<path d="M252.1 42.3334H219.25C216.489 42.3334 214.25 44.5719 214.25 47.3334V79.6667C214.25 82.4281 216.489 84.6667 219.25 84.6667H252.1C254.861 84.6667 257.1 82.4281 257.1 79.6667V47.3334C257.1 44.572 254.861 42.3334 252.1 42.3334Z" fill="#3B9638"/>
<path d="M80.6977 42.3334H47.8477C45.0862 42.3334 42.8477 44.5719 42.8477 47.3334V79.6667C42.8477 82.4281 45.0862 84.6667 47.8477 84.6667H80.6977C83.4591 84.6667 85.6977 82.4281 85.6977 79.6667V47.3334C85.6977 44.572 83.4591 42.3334 80.6977 42.3334Z" fill="#E9EEF0"/>
<path d="M123.549 42.3334H90.6992C87.9378 42.3334 85.6992 44.5719 85.6992 47.3334V79.6667C85.6992 82.4281 87.9378 84.6667 90.6992 84.6667H123.549C126.311 84.6667 128.549 82.4281 128.549 79.6667V47.3334C128.549 44.572 126.311 42.3334 123.549 42.3334Z" fill="#4C5497"/>
<path d="M209.25 42.3334H176.4C173.639 42.3334 171.4 44.5719 171.4 47.3334V79.6667C171.4 82.4281 173.639 84.6667 176.4 84.6667H209.25C212.012 84.6667 214.25 82.4281 214.25 79.6667V47.3334C214.25 44.572 212.012 42.3334 209.25 42.3334Z" fill="#AE9E19"/>
<path d="M166.401 42.3334H133.551C130.789 42.3334 128.551 44.5719 128.551 47.3334V79.6667C128.551 82.4281 130.789 84.6667 133.551 84.6667H166.401C169.162 84.6667 171.401 82.4281 171.401 79.6667V47.3334C171.401 44.572 169.162 42.3334 166.401 42.3334Z" fill="#E3898E"/>
<path d="M337.799 592.667H304.949C302.188 592.667 299.949 594.905 299.949 597.667V630C299.949 632.761 302.188 635 304.949 635H337.799C340.561 635 342.799 632.761 342.799 630V597.667C342.799 594.905 340.561 592.667 337.799 592.667Z" fill="#B81647"/>
<path d="M809.151 592.667H776.301C773.539 592.667 771.301 594.905 771.301 597.667V630C771.301 632.761 773.539 635 776.301 635H809.151C811.912 635 814.151 632.761 814.151 630V597.667C814.151 594.905 811.912 592.667 809.151 592.667Z" fill="#F0CB1F"/>
<path d="M766.301 592.667H733.451C730.69 592.667 728.451 594.905 728.451 597.667V630C728.451 632.761 730.69 635 733.451 635H766.301C769.063 635 771.301 632.761 771.301 630V597.667C771.301 594.905 769.063 592.667 766.301 592.667Z" fill="#C49D10"/>
<path d="M851.998 592.667H819.148C816.387 592.667 814.148 594.905 814.148 597.667V630C814.148 632.761 816.387 635 819.148 635H851.998C854.76 635 856.998 632.761 856.998 630V597.667C856.998 594.905 854.76 592.667 851.998 592.667Z" fill="#EBB718"/>
<path d="M723.452 592.667H690.602C687.84 592.667 685.602 594.905 685.602 597.667V630C685.602 632.761 687.84 635 690.602 635H723.452C726.213 635 728.452 632.761 728.452 630V597.667C728.452 594.905 726.213 592.667 723.452 592.667Z" fill="#D8B5B3"/>
<path d="M294.95 592.667H262.1C259.338 592.667 257.1 594.905 257.1 597.667V630C257.1 632.761 259.338 635 262.1 635H294.95C297.711 635 299.95 632.761 299.95 630V597.667C299.95 594.905 297.711 592.667 294.95 592.667Z" fill="#B6AD73"/>
<path d="M209.25 592.667H176.4C173.639 592.667 171.4 594.905 171.4 597.667V630C171.4 632.761 173.639 635 176.4 635H209.25C212.012 635 214.25 632.761 214.25 630V597.667C214.25 594.905 212.012 592.667 209.25 592.667Z" fill="#E6BD50"/>
<path d="M166.401 592.667H133.551C130.789 592.667 128.551 594.905 128.551 597.667V630C128.551 632.761 130.789 635 133.551 635H166.401C169.162 635 171.401 632.761 171.401 630V597.667C171.401 594.905 169.162 592.667 166.401 592.667Z" fill="#709E2F"/>
<path d="M252.1 592.667H219.25C216.489 592.667 214.25 594.905 214.25 597.667V630C214.25 632.761 216.489 635 219.25 635H252.1C254.861 635 257.1 632.761 257.1 630V597.667C257.1 594.905 254.861 592.667 252.1 592.667Z" fill="#8CC1E4"/>
<path d="M123.549 592.667H90.6992C87.9378 592.667 85.6992 594.905 85.6992 597.667V630C85.6992 632.761 87.9378 635 90.6992 635H123.549C126.311 635 128.549 632.761 128.549 630V597.667C128.549 594.905 126.311 592.667 123.549 592.667Z" fill="#CED146"/>
<path d="M80.6977 592.667H47.8477C45.0862 592.667 42.8477 594.905 42.8477 597.667V630C42.8477 632.761 45.0862 635 47.8477 635H80.6977C83.4591 635 85.6977 632.761 85.6977 630V597.667C85.6977 594.905 83.4591 592.667 80.6977 592.667Z" fill="#BB1B21"/>
<path d="M37.8501 592.667H5C2.23858 592.667 0 594.905 0 597.667V630C0 632.761 2.23857 635 4.99999 635H37.85C40.6115 635 42.85 632.761 42.85 630V597.667C42.85 594.905 40.6115 592.667 37.8501 592.667Z" fill="#F5DA90"/>
<path d="M466.352 592.667H433.502C430.741 592.667 428.502 594.905 428.502 597.667V630C428.502 632.761 430.741 635 433.502 635H466.352C469.113 635 471.352 632.761 471.352 630V597.667C471.352 594.905 469.113 592.667 466.352 592.667Z" fill="#9A6132"/>
<path d="M509.198 592.667H476.348C473.586 592.667 471.348 594.905 471.348 597.667V630C471.348 632.761 473.586 635 476.348 635H509.198C511.959 635 514.198 632.761 514.198 630V597.667C514.198 594.905 511.959 592.667 509.198 592.667Z" fill="#7DB8DB"/>
<path d="M594.903 592.667H562.053C559.291 592.667 557.053 594.905 557.053 597.667V630C557.053 632.761 559.291 635 562.053 635H594.903C597.664 635 599.903 632.761 599.903 630V597.667C599.903 594.905 597.664 592.667 594.903 592.667Z" fill="#706028"/>
<path d="M552.047 592.667H519.197C516.436 592.667 514.197 594.905 514.197 597.667V630C514.197 632.761 516.436 635 519.197 635H552.047C554.809 635 557.047 632.761 557.047 630V597.667C557.047 594.905 554.809 592.667 552.047 592.667Z" fill="#9EABD2"/>
<path d="M637.75 592.667H604.9C602.139 592.667 599.9 594.905 599.9 597.667V630C599.9 632.761 602.139 635 604.9 635H637.75C640.512 635 642.75 632.761 642.75 630V597.667C642.75 594.905 640.512 592.667 637.75 592.667Z" fill="#294523"/>
<path d="M680.6 592.667H647.75C644.989 592.667 642.75 594.905 642.75 597.667V630C642.75 632.761 644.989 635 647.75 635H680.6C683.361 635 685.6 632.761 685.6 630V597.667C685.6 594.905 683.361 592.667 680.6 592.667Z" fill="#EFAA6A"/>
<path d="M380.651 592.667H347.801C345.039 592.667 342.801 594.905 342.801 597.667V630C342.801 632.761 345.039 635 347.801 635H380.651C383.412 635 385.651 632.761 385.651 630V597.667C385.651 594.905 383.412 592.667 380.651 592.667Z" fill="#E9A767"/>
<path d="M423.498 592.667H390.648C387.887 592.667 385.648 594.905 385.648 597.667V630C385.648 632.761 387.887 635 390.648 635H423.498C426.26 635 428.498 632.761 428.498 630V597.667C428.498 594.905 426.26 592.667 423.498 592.667Z" fill="#D29556"/>
<path d="M166.401 169.333H133.551C130.789 169.333 128.551 171.572 128.551 174.333V206.667C128.551 209.428 130.789 211.667 133.551 211.667H166.401C169.162 211.667 171.401 209.428 171.401 206.667V174.333C171.401 171.572 169.162 169.333 166.401 169.333Z" fill="#FBF2C8"/>
<path d="M680.6 169.333H647.75C644.989 169.333 642.75 171.572 642.75 174.333V206.667C642.75 209.428 644.989 211.667 647.75 211.667H680.6C683.361 211.667 685.6 209.428 685.6 206.667V174.333C685.6 171.572 683.361 169.333 680.6 169.333Z" fill="#CAAD93"/>
<path d="M123.549 169.333H90.6992C87.9378 169.333 85.6992 171.572 85.6992 174.333V206.667C85.6992 209.428 87.9378 211.667 90.6992 211.667H123.549C126.311 211.667 128.549 209.428 128.549 206.667V174.333C128.549 171.572 126.311 169.333 123.549 169.333Z" fill="#435B2C"/>
<path d="M723.452 169.333H690.602C687.84 169.333 685.602 171.572 685.602 174.333V206.667C685.602 209.428 687.84 211.667 690.602 211.667H723.452C726.213 211.667 728.452 209.428 728.452 206.667V174.333C728.452 171.572 726.213 169.333 723.452 169.333Z" fill="#DFD420"/>
<path d="M294.95 169.333H262.1C259.338 169.333 257.1 171.572 257.1 174.333V206.667C257.1 209.428 259.338 211.667 262.1 211.667H294.95C297.711 211.667 299.95 209.428 299.95 206.667V174.333C299.95 171.572 297.711 169.333 294.95 169.333Z" fill="#EAEDC3"/>
<path d="M337.799 169.333H304.949C302.188 169.333 299.949 171.572 299.949 174.333V206.667C299.949 209.428 302.188 211.667 304.949 211.667H337.799C340.561 211.667 342.799 209.428 342.799 206.667V174.333C342.799 171.572 340.561 169.333 337.799 169.333Z" fill="#801C72"/>
<path d="M209.25 169.333H176.4C173.639 169.333 171.4 171.572 171.4 174.333V206.667C171.4 209.428 173.639 211.667 176.4 211.667H209.25C212.012 211.667 214.25 209.428 214.25 206.667V174.333C214.25 171.572 212.012 169.333 209.25 169.333Z" fill="#C0CB46"/>
<path d="M252.1 169.333H219.25C216.489 169.333 214.25 171.572 214.25 174.333V206.667C214.25 209.428 216.489 211.667 219.25 211.667H252.1C254.861 211.667 257.1 209.428 257.1 206.667V174.333C257.1 171.572 254.861 169.333 252.1 169.333Z" fill="#D01A21"/>
<path d="M380.651 169.333H347.801C345.039 169.333 342.801 171.572 342.801 174.333V206.667C342.801 209.428 345.039 211.667 347.801 211.667H380.651C383.412 211.667 385.651 209.428 385.651 206.667V174.333C385.651 171.572 383.412 169.333 380.651 169.333Z" fill="#C8136B"/>
<path d="M552.047 169.333H519.197C516.436 169.333 514.197 171.572 514.197 174.333V206.667C514.197 209.428 516.436 211.667 519.197 211.667H552.047C554.809 211.667 557.047 209.428 557.047 206.667V174.333C557.047 171.572 554.809 169.333 552.047 169.333Z" fill="#C8DAE9"/>
<path d="M423.498 169.333H390.648C387.887 169.333 385.648 171.572 385.648 174.333V206.667C385.648 209.428 387.887 211.667 390.648 211.667H423.498C426.26 211.667 428.498 209.428 428.498 206.667V174.333C428.498 171.572 426.26 169.333 423.498 169.333Z" fill="#AD9623"/>
<path d="M509.198 169.333H476.348C473.586 169.333 471.348 171.572 471.348 174.333V206.667C471.348 209.428 473.586 211.667 476.348 211.667H509.198C511.959 211.667 514.198 209.428 514.198 206.667V174.333C514.198 171.572 511.959 169.333 509.198 169.333Z" fill="#E299BB"/>
<path d="M594.903 169.333H562.053C559.291 169.333 557.053 171.572 557.053 174.333V206.667C557.053 209.428 559.291 211.667 562.053 211.667H594.903C597.664 211.667 599.903 209.428 599.903 206.667V174.333C599.903 171.572 597.664 169.333 594.903 169.333Z" fill="#E3784D"/>
<path d="M466.352 169.333H433.502C430.741 169.333 428.502 171.572 428.502 174.333V206.667C428.502 209.428 430.741 211.667 433.502 211.667H466.352C469.113 211.667 471.352 209.428 471.352 206.667V174.333C471.352 171.572 469.113 169.333 466.352 169.333Z" fill="#A9657E"/>
<path d="M637.75 169.333H604.9C602.139 169.333 599.9 171.572 599.9 174.333V206.667C599.9 209.428 602.139 211.667 604.9 211.667H637.75C640.512 211.667 642.75 209.428 642.75 206.667V174.333C642.75 171.572 640.512 169.333 637.75 169.333Z" fill="#815255"/>
<path d="M37.8501 169.333H5C2.23858 169.333 0 171.572 0 174.333V206.667C0 209.428 2.23857 211.667 4.99999 211.667H37.85C40.6115 211.667 42.85 209.428 42.85 206.667V174.333C42.85 171.572 40.6115 169.333 37.8501 169.333Z" fill="#C03978"/>
<path d="M809.151 169.333H776.301C773.539 169.333 771.301 171.572 771.301 174.333V206.667C771.301 209.428 773.539 211.667 776.301 211.667H809.151C811.912 211.667 814.151 209.428 814.151 206.667V174.333C814.151 171.572 811.912 169.333 809.151 169.333Z" fill="#C77495"/>
<path d="M851.998 169.333H819.148C816.387 169.333 814.148 171.572 814.148 174.333V206.667C814.148 209.428 816.387 211.667 819.148 211.667H851.998C854.76 211.667 856.998 209.428 856.998 206.667V174.333C856.998 171.572 854.76 169.333 851.998 169.333Z" fill="#CEABAA"/>
<path d="M766.301 169.333H733.451C730.69 169.333 728.451 171.572 728.451 174.333V206.667C728.451 209.428 730.69 211.667 733.451 211.667H766.301C769.063 211.667 771.301 209.428 771.301 206.667V174.333C771.301 171.572 769.063 169.333 766.301 169.333Z" fill="#E0A8A5"/>
<path d="M80.6977 169.333H47.8477C45.0862 169.333 42.8477 171.572 42.8477 174.333V206.667C42.8477 209.428 45.0862 211.667 47.8477 211.667H80.6977C83.4591 211.667 85.6977 209.428 85.6977 206.667V174.333C85.6977 171.572 83.4591 169.333 80.6977 169.333Z" fill="#F5BA1A"/>
<path d="M123.549 84.6669H90.6992C87.9378 84.6669 85.6992 86.9054 85.6992 89.6669V122C85.6992 124.762 87.9378 127 90.6992 127H123.549C126.311 127 128.549 124.762 128.549 122V89.6669C128.549 86.9054 126.311 84.6669 123.549 84.6669Z" fill="#85736A"/>
<path d="M252.1 84.6669H219.25C216.489 84.6669 214.25 86.9054 214.25 89.6669V122C214.25 124.762 216.489 127 219.25 127H252.1C254.861 127 257.1 124.762 257.1 122V89.6669C257.1 86.9054 254.861 84.6669 252.1 84.6669Z" fill="#D39B12"/>
<path d="M166.401 84.6669H133.551C130.789 84.6669 128.551 86.9054 128.551 89.6669V122C128.551 124.762 130.789 127 133.551 127H166.401C169.162 127 171.401 124.762 171.401 122V89.6669C171.401 86.9054 169.162 84.6669 166.401 84.6669Z" fill="#D2CE1D"/>
<path d="M294.95 84.6669H262.1C259.338 84.6669 257.1 86.9054 257.1 89.6669V122C257.1 124.762 259.338 127 262.1 127H294.95C297.711 127 299.95 124.762 299.95 122V89.6669C299.95 86.9054 297.711 84.6669 294.95 84.6669Z" fill="#DBB7D3"/>
<path d="M209.25 84.6669H176.4C173.639 84.6669 171.4 86.9054 171.4 89.6669V122C171.4 124.762 173.639 127 176.4 127H209.25C212.012 127 214.25 124.762 214.25 122V89.6669C214.25 86.9054 212.012 84.6669 209.25 84.6669Z" fill="#D1ABC0"/>
<path d="M423.498 84.6669H390.648C387.887 84.6669 385.648 86.9054 385.648 89.6669V122C385.648 124.762 387.887 127 390.648 127H423.498C426.26 127 428.498 124.762 428.498 122V89.6669C428.498 86.9054 426.26 84.6669 423.498 84.6669Z" fill="#BBD082"/>
<path d="M337.799 84.6669H304.949C302.188 84.6669 299.949 86.9054 299.949 89.6669V122C299.949 124.762 302.188 127 304.949 127H337.799C340.561 127 342.799 124.762 342.799 122V89.6669C342.799 86.9054 340.561 84.6669 337.799 84.6669Z" fill="#C9D163"/>
<path d="M466.352 84.6669H433.502C430.741 84.6669 428.502 86.9054 428.502 89.6669V122C428.502 124.762 430.741 127 433.502 127H466.352C469.113 127 471.352 124.762 471.352 122V89.6669C471.352 86.9054 469.113 84.6669 466.352 84.6669Z" fill="#7B4771"/>
<path d="M509.198 84.6669H476.348C473.586 84.6669 471.348 86.9054 471.348 89.6669V122C471.348 124.762 473.586 127 476.348 127H509.198C511.959 127 514.198 124.762 514.198 122V89.6669C514.198 86.9054 511.959 84.6669 509.198 84.6669Z" fill="#A16A8A"/>
<path d="M380.651 84.6669H347.801C345.039 84.6669 342.801 86.9054 342.801 89.6669V122C342.801 124.762 345.039 127 347.801 127H380.651C383.412 127 385.651 124.762 385.651 122V89.6669C385.651 86.9054 383.412 84.6669 380.651 84.6669Z" fill="#F4DF25"/>
<path d="M552.047 84.6669H519.197C516.436 84.6669 514.197 86.9054 514.197 89.6669V122C514.197 124.762 516.436 127 519.197 127H552.047C554.809 127 557.047 124.762 557.047 122V89.6669C557.047 86.9054 554.809 84.6669 552.047 84.6669Z" fill="#C2D6E8"/>
<path d="M680.6 84.6669H647.75C644.989 84.6669 642.75 86.9054 642.75 89.6669V122C642.75 124.762 644.989 127 647.75 127H680.6C683.361 127 685.6 124.762 685.6 122V89.6669C685.6 86.9054 683.361 84.6669 680.6 84.6669Z" fill="#896479"/>
<path d="M637.75 84.6669H604.9C602.139 84.6669 599.9 86.9054 599.9 89.6669V122C599.9 124.762 602.139 127 604.9 127H637.75C640.512 127 642.75 124.762 642.75 122V89.6669C642.75 86.9054 640.512 84.6669 637.75 84.6669Z" fill="#AB8873"/>
<path d="M594.903 84.6669H562.053C559.291 84.6669 557.053 86.9054 557.053 89.6669V122C557.053 124.762 559.291 127 562.053 127H594.903C597.664 127 599.903 124.762 599.903 122V89.6669C599.903 86.9054 597.664 84.6669 594.903 84.6669Z" fill="#C8A09E"/>
<path d="M723.452 84.6669H690.602C687.84 84.6669 685.602 86.9054 685.602 89.6669V122C685.602 124.762 687.84 127 690.602 127H723.452C726.213 127 728.452 124.762 728.452 122V89.6669C728.452 86.9054 726.213 84.6669 723.452 84.6669Z" fill="#BE845D"/>
<path d="M37.8501 84.6669H5C2.23858 84.6669 0 86.9054 0 89.6669V122C0 124.762 2.23857 127 4.99999 127H37.85C40.6115 127 42.85 124.762 42.85 122V89.6669C42.85 86.9054 40.6115 84.6669 37.8501 84.6669Z" fill="#F4C31D"/>
<path d="M809.151 84.6669H776.301C773.539 84.6669 771.301 86.9054 771.301 89.6669V122C771.301 124.762 773.539 127 776.301 127H809.151C811.912 127 814.151 124.762 814.151 122V89.6669C814.151 86.9054 811.912 84.6669 809.151 84.6669Z" fill="#CD8F75"/>
<path d="M851.998 84.6669H819.148C816.387 84.6669 814.148 86.9054 814.148 89.6669V122C814.148 124.762 816.387 127 819.148 127H851.998C854.76 127 856.998 124.762 856.998 122V89.6669C856.998 86.9054 854.76 84.6669 851.998 84.6669Z" fill="#FADCAF"/>
<path d="M766.301 84.6669H733.451C730.69 84.6669 728.451 86.9054 728.451 89.6669V122C728.451 124.762 730.69 127 733.451 127H766.301C769.063 127 771.301 124.762 771.301 122V89.6669C771.301 86.9054 769.063 84.6669 766.301 84.6669Z" fill="#E99776"/>
<path d="M80.6977 84.6669H47.8477C45.0862 84.6669 42.8477 86.9054 42.8477 89.6669V122C42.8477 124.762 45.0862 127 47.8477 127H80.6977C83.4591 127 85.6977 124.762 85.6977 122V89.6669C85.6977 86.9054 83.4591 84.6669 80.6977 84.6669Z" fill="#EDDADF"/>
<path d="M252.1 127H219.25C216.489 127 214.25 129.239 214.25 132V164.333C214.25 167.095 216.489 169.333 219.25 169.333H252.1C254.861 169.333 257.1 167.095 257.1 164.333V132C257.1 129.239 254.861 127 252.1 127Z" fill="#DA7EA8"/>
<path d="M166.401 127H133.551C130.789 127 128.551 129.239 128.551 132V164.333C128.551 167.095 130.789 169.333 133.551 169.333H166.401C169.162 169.333 171.401 167.095 171.401 164.333V132C171.401 129.239 169.162 127 166.401 127Z" fill="#E0B9D5"/>
<path d="M209.25 127H176.4C173.639 127 171.4 129.239 171.4 132V164.333C171.4 167.095 173.639 169.333 176.4 169.333H209.25C212.012 169.333 214.25 167.095 214.25 164.333V132C214.25 129.239 212.012 127 209.25 127Z" fill="#D97299"/>
<path d="M680.6 127H647.75C644.989 127 642.75 129.239 642.75 132V164.333C642.75 167.095 644.989 169.333 647.75 169.333H680.6C683.361 169.333 685.6 167.095 685.6 164.333V132C685.6 129.239 683.361 127 680.6 127Z" fill="#AAC9E7"/>
<path d="M380.651 127H347.801C345.039 127 342.801 129.239 342.801 132V164.333C342.801 167.095 345.039 169.333 347.801 169.333H380.651C383.412 169.333 385.651 167.095 385.651 164.333V132C385.651 129.239 383.412 127 380.651 127Z" fill="#F4CD1E"/>
<path d="M423.498 127H390.648C387.887 127 385.648 129.239 385.648 132V164.333C385.648 167.095 387.887 169.333 390.648 169.333H423.498C426.26 169.333 428.498 167.095 428.498 164.333V132C428.498 129.239 426.26 127 423.498 127Z" fill="#5E93C6"/>
<path d="M637.75 127H604.9C602.139 127 599.9 129.239 599.9 132V164.333C599.9 167.095 602.139 169.333 604.9 169.333H637.75C640.512 169.333 642.75 167.095 642.75 164.333V132C642.75 129.239 640.512 127 637.75 127Z" fill="#CAA8BA"/>
<path d="M294.95 127H262.1C259.338 127 257.1 129.239 257.1 132V164.333C257.1 167.095 259.338 169.333 262.1 169.333H294.95C297.711 169.333 299.95 167.095 299.95 164.333V132C299.95 129.239 297.711 127 294.95 127Z" fill="#E3D6E7"/>
<path d="M337.799 127H304.949C302.188 127 299.949 129.239 299.949 132V164.333C299.949 167.095 302.188 169.333 304.949 169.333H337.799C340.561 169.333 342.799 167.095 342.799 164.333V132C342.799 129.239 340.561 127 337.799 127Z" fill="#ECF1E4"/>
<path d="M466.352 127H433.502C430.741 127 428.502 129.239 428.502 132V164.333C428.502 167.095 430.741 169.333 433.502 169.333H466.352C469.113 169.333 471.352 167.095 471.352 164.333V132C471.352 129.239 469.113 127 466.352 127Z" fill="#BFC1D5"/>
<path d="M594.903 127H562.053C559.291 127 557.053 129.239 557.053 132V164.333C557.053 167.095 559.291 169.333 562.053 169.333H594.903C597.664 169.333 599.903 167.095 599.903 164.333V132C599.903 129.239 597.664 127 594.903 127Z" fill="#A3817B"/>
<path d="M552.047 127H519.197C516.436 127 514.197 129.239 514.197 132V164.333C514.197 167.095 516.436 169.333 519.197 169.333H552.047C554.809 169.333 557.047 167.095 557.047 164.333V132C557.047 129.239 554.809 127 552.047 127Z" fill="#5B8F54"/>
<path d="M509.198 127H476.348C473.586 127 471.348 129.239 471.348 132V164.333C471.348 167.095 473.586 169.333 476.348 169.333H509.198C511.959 169.333 514.198 167.095 514.198 164.333V132C514.198 129.239 511.959 127 509.198 127Z" fill="#BFB2BC"/>
<path d="M123.549 127H90.6992C87.9378 127 85.6992 129.239 85.6992 132V164.333C85.6992 167.095 87.9378 169.333 90.6992 169.333H123.549C126.311 169.333 128.549 167.095 128.549 164.333V132C128.549 129.239 126.311 127 123.549 127Z" fill="#5B9434"/>
<path d="M723.452 127H690.602C687.84 127 685.602 129.239 685.602 132V164.333C685.602 167.095 687.84 169.333 690.602 169.333H723.452C726.213 169.333 728.452 167.095 728.452 164.333V132C728.452 129.239 726.213 127 723.452 127Z" fill="#98939F"/>
<path d="M37.8501 127H5C2.23858 127 0 129.239 0 132V164.333C0 167.095 2.23857 169.333 4.99999 169.333H37.85C40.6115 169.333 42.85 167.095 42.85 164.333V132C42.85 129.239 40.6115 127 37.8501 127Z" fill="#D7D651"/>
<path d="M809.151 127H776.301C773.539 127 771.301 129.239 771.301 132V164.333C771.301 167.095 773.539 169.333 776.301 169.333H809.151C811.912 169.333 814.151 167.095 814.151 164.333V132C814.151 129.239 811.912 127 809.151 127Z" fill="#F2B18E"/>
<path d="M851.998 127H819.148C816.387 127 814.148 129.239 814.148 132V164.333C814.148 167.095 816.387 169.333 819.148 169.333H851.998C854.76 169.333 856.998 167.095 856.998 164.333V132C856.998 129.239 854.76 127 851.998 127Z" fill="#F0AE86"/>
<path d="M766.301 127H733.451C730.69 127 728.451 129.239 728.451 132V164.333C728.451 167.095 730.69 169.333 733.451 169.333H766.301C769.063 169.333 771.301 167.095 771.301 164.333V132C771.301 129.239 769.063 127 766.301 127Z" fill="#F4C89D"/>
<path d="M80.6977 127H47.8477C45.0862 127 42.8477 129.239 42.8477 132V164.333C42.8477 167.095 45.0862 169.333 47.8477 169.333H80.6977C83.4591 169.333 85.6977 167.095 85.6977 164.333V132C85.6977 129.239 83.4591 127 80.6977 127Z" fill="#E88751"/>
<path d="M166.401 211.667H133.551C130.789 211.667 128.551 213.905 128.551 216.666V249C128.551 251.761 130.789 254 133.551 254H166.401C169.162 254 171.401 251.761 171.401 249V216.667C171.401 213.905 169.162 211.667 166.401 211.667Z" fill="#E9E5B9"/>
<path d="M680.6 211.667H647.75C644.989 211.667 642.75 213.905 642.75 216.666V249C642.75 251.761 644.989 254 647.75 254H680.6C683.361 254 685.6 251.761 685.6 249V216.667C685.6 213.905 683.361 211.667 680.6 211.667Z" fill="#F3D480"/>
<path d="M123.549 211.667H90.6992C87.9378 211.667 85.6992 213.905 85.6992 216.666V249C85.6992 251.761 87.9378 254 90.6992 254H123.549C126.311 254 128.549 251.761 128.549 249V216.667C128.549 213.905 126.311 211.667 123.549 211.667Z" fill="#AFDBED"/>
<path d="M723.452 211.667H690.602C687.84 211.667 685.602 213.905 685.602 216.666V249C685.602 251.761 687.84 254 690.602 254H723.452C726.213 254 728.452 251.761 728.452 249V216.667C728.452 213.905 726.213 211.667 723.452 211.667Z" fill="#F09615"/>
<path d="M594.903 211.667H562.053C559.291 211.667 557.053 213.905 557.053 216.666V249C557.053 251.761 559.291 254 562.053 254H594.903C597.664 254 599.903 251.761 599.903 249V216.667C599.903 213.905 597.664 211.667 594.903 211.667Z" fill="#A1A31F"/>
<path d="M466.352 211.667H433.502C430.741 211.667 428.502 213.905 428.502 216.666V249C428.502 251.761 430.741 254 433.502 254H466.352C469.113 254 471.352 251.761 471.352 249V216.667C471.352 213.905 469.113 211.667 466.352 211.667Z" fill="#B7115A"/>
<path d="M509.198 211.667H476.348C473.586 211.667 471.348 213.905 471.348 216.666V249C471.348 251.761 473.586 254 476.348 254H509.198C511.959 254 514.198 251.761 514.198 249V216.667C514.198 213.905 511.959 211.667 509.198 211.667Z" fill="#D8D332"/>
<path d="M252.1 211.667H219.25C216.489 211.667 214.25 213.905 214.25 216.666V249C214.25 251.761 216.489 254 219.25 254H252.1C254.861 254 257.1 251.761 257.1 249V216.667C257.1 213.905 254.861 211.667 252.1 211.667Z" fill="#F7DD9F"/>
<path d="M380.651 211.667H347.801C345.039 211.667 342.801 213.905 342.801 216.666V249C342.801 251.761 345.039 254 347.801 254H380.651C383.412 254 385.651 251.761 385.651 249V216.667C385.651 213.905 383.412 211.667 380.651 211.667Z" fill="#EFC562"/>
<path d="M423.498 211.667H390.648C387.887 211.667 385.648 213.905 385.648 216.666V249C385.648 251.761 387.887 254 390.648 254H423.498C426.26 254 428.498 251.761 428.498 249V216.667C428.498 213.905 426.26 211.667 423.498 211.667Z" fill="#CD756A"/>
<path d="M294.95 211.667H262.1C259.338 211.667 257.1 213.905 257.1 216.666V249C257.1 251.761 259.338 254 262.1 254H294.95C297.711 254 299.95 251.761 299.95 249V216.667C299.95 213.905 297.711 211.667 294.95 211.667Z" fill="#BA8740"/>
<path d="M337.799 211.667H304.949C302.188 211.667 299.949 213.905 299.949 216.666V249C299.949 251.761 302.188 254 304.949 254H337.799C340.561 254 342.799 251.761 342.799 249V216.667C342.799 213.905 340.561 211.667 337.799 211.667Z" fill="#C47A44"/>
<path d="M552.047 211.667H519.197C516.436 211.667 514.197 213.905 514.197 216.666V249C514.197 251.761 516.436 254 519.197 254H552.047C554.809 254 557.047 251.761 557.047 249V216.667C557.047 213.905 554.809 211.667 552.047 211.667Z" fill="#A07979"/>
<path d="M209.25 211.667H176.4C173.639 211.667 171.4 213.905 171.4 216.666V249C171.4 251.761 173.639 254 176.4 254H209.25C212.012 254 214.25 251.761 214.25 249V216.667C214.25 213.905 212.012 211.667 209.25 211.667Z" fill="#ADA48F"/>
<path d="M637.75 211.667H604.9C602.139 211.667 599.9 213.905 599.9 216.666V249C599.9 251.761 602.139 254 604.9 254H637.75C640.512 254 642.75 251.761 642.75 249V216.667C642.75 213.905 640.512 211.667 637.75 211.667Z" fill="#F1B67F"/>
<path d="M37.8501 211.667H5C2.23858 211.667 0 213.905 0 216.666V249C0 251.761 2.23857 254 4.99999 254H37.85C40.6115 254 42.85 251.761 42.85 249V216.667C42.85 213.905 40.6115 211.667 37.8501 211.667Z" fill="#C98BAD"/>
<path d="M809.151 211.667H776.301C773.539 211.667 771.301 213.905 771.301 216.666V249C771.301 251.761 773.539 254 776.301 254H809.151C811.912 254 814.151 251.761 814.151 249V216.667C814.151 213.905 811.912 211.667 809.151 211.667Z" fill="#E8D3E5"/>
<path d="M851.998 211.667H819.148C816.387 211.667 814.148 213.905 814.148 216.666V249C814.148 251.761 816.387 254 819.148 254H851.998C854.76 254 856.998 251.761 856.998 249V216.667C856.998 213.905 854.76 211.667 851.998 211.667Z" fill="#CAE4D8"/>
<path d="M766.301 211.667H733.451C730.69 211.667 728.451 213.905 728.451 216.666V249C728.451 251.761 730.69 254 733.451 254H766.301C769.063 254 771.301 251.761 771.301 249V216.667C771.301 213.905 769.063 211.667 766.301 211.667Z" fill="#BB9C9E"/>
<path d="M80.6977 211.667H47.8477C45.0862 211.667 42.8477 213.905 42.8477 216.666V249C42.8477 251.761 45.0862 254 47.8477 254H80.6977C83.4591 254 85.6977 251.761 85.6977 249V216.667C85.6977 213.905 83.4591 211.667 80.6977 211.667Z" fill="#F6CEAF"/>
<path d="M166.401 296.333H133.551C130.789 296.333 128.551 298.572 128.551 301.333V333.667C128.551 336.428 130.789 338.667 133.551 338.667H166.401C169.162 338.667 171.401 336.428 171.401 333.667V301.333C171.401 298.572 169.162 296.333 166.401 296.333Z" fill="#C4B345"/>
<path d="M680.6 296.333H647.75C644.989 296.333 642.75 298.572 642.75 301.333V333.667C642.75 336.428 644.989 338.667 647.75 338.667H680.6C683.361 338.667 685.6 336.428 685.6 333.667V301.333C685.6 298.572 683.361 296.333 680.6 296.333Z" fill="#CE876B"/>
<path d="M123.549 296.333H90.6992C87.9378 296.333 85.6992 298.572 85.6992 301.333V333.667C85.6992 336.428 87.9378 338.667 90.6992 338.667H123.549C126.311 338.667 128.549 336.428 128.549 333.667V301.333C128.549 298.572 126.311 296.333 123.549 296.333Z" fill="#89B22E"/>
<path d="M723.452 296.333H690.602C687.84 296.333 685.602 298.572 685.602 301.333V333.667C685.602 336.428 687.84 338.667 690.602 338.667H723.452C726.213 338.667 728.452 336.428 728.452 333.667V301.333C728.452 298.572 726.213 296.333 723.452 296.333Z" fill="#E0ABC9"/>
<path d="M594.903 296.333H562.053C559.291 296.333 557.053 298.572 557.053 301.333V333.667C557.053 336.428 559.291 338.667 562.053 338.667H594.903C597.664 338.667 599.903 336.428 599.903 333.667V301.333C599.903 298.572 597.664 296.333 594.903 296.333Z" fill="#81852C"/>
<path d="M252.1 296.333H219.25C216.489 296.333 214.25 298.572 214.25 301.333V333.667C214.25 336.428 216.489 338.667 219.25 338.667H252.1C254.861 338.667 257.1 336.428 257.1 333.667V301.333C257.1 298.572 254.861 296.333 252.1 296.333Z" fill="#C8C7D0"/>
<path d="M509.198 296.333H476.348C473.586 296.333 471.348 298.572 471.348 301.333V333.667C471.348 336.428 473.586 338.667 476.348 338.667H509.198C511.959 338.667 514.198 336.428 514.198 333.667V301.333C514.198 298.572 511.959 296.333 509.198 296.333Z" fill="#E6AD20"/>
<path d="M552.047 296.333H519.197C516.436 296.333 514.197 298.572 514.197 301.333V333.667C514.197 336.428 516.436 338.667 519.197 338.667H552.047C554.809 338.667 557.047 336.428 557.047 333.667V301.333C557.047 298.572 554.809 296.333 552.047 296.333Z" fill="#CDC320"/>
<path d="M337.799 296.333H304.949C302.188 296.333 299.949 298.572 299.949 301.333V333.667C299.949 336.428 302.188 338.667 304.949 338.667H337.799C340.561 338.667 342.799 336.428 342.799 333.667V301.333C342.799 298.572 340.561 296.333 337.799 296.333Z" fill="#AD2224"/>
<path d="M380.651 296.333H347.801C345.039 296.333 342.801 298.572 342.801 301.333V333.667C342.801 336.428 345.039 338.667 347.801 338.667H380.651C383.412 338.667 385.651 336.428 385.651 333.667V301.333C385.651 298.572 383.412 296.333 380.651 296.333Z" fill="#F0C95A"/>
<path d="M423.498 296.333H390.648C387.887 296.333 385.648 298.572 385.648 301.333V333.667C385.648 336.428 387.887 338.667 390.648 338.667H423.498C426.26 338.667 428.498 336.428 428.498 333.667V301.333C428.498 298.572 426.26 296.333 423.498 296.333Z" fill="#F4DD79"/>
<path d="M466.352 296.333H433.502C430.741 296.333 428.502 298.572 428.502 301.333V333.667C428.502 336.428 430.741 338.667 433.502 338.667H466.352C469.113 338.667 471.352 336.428 471.352 333.667V301.333C471.352 298.572 469.113 296.333 466.352 296.333Z" fill="#B53F76"/>
<path d="M294.95 296.333H262.1C259.338 296.333 257.1 298.572 257.1 301.333V333.667C257.1 336.428 259.338 338.667 262.1 338.667H294.95C297.711 338.667 299.95 336.428 299.95 333.667V301.333C299.95 298.572 297.711 296.333 294.95 296.333Z" fill="#CFAA77"/>
<path d="M209.25 296.333H176.4C173.639 296.333 171.4 298.572 171.4 301.333V333.667C171.4 336.428 173.639 338.667 176.4 338.667H209.25C212.012 338.667 214.25 336.428 214.25 333.667V301.333C214.25 298.572 212.012 296.333 209.25 296.333Z" fill="#BFB2BC"/>
<path d="M637.75 296.333H604.9C602.139 296.333 599.9 298.572 599.9 301.333V333.667C599.9 336.428 602.139 338.667 604.9 338.667H637.75C640.512 338.667 642.75 336.428 642.75 333.667V301.333C642.75 298.572 640.512 296.333 637.75 296.333Z" fill="#F2B781"/>
<path d="M37.8501 296.333H5C2.23858 296.333 0 298.572 0 301.333V333.666C0 336.428 2.23857 338.666 4.99999 338.666H37.85C40.6115 338.666 42.85 336.428 42.85 333.666V301.333C42.85 298.572 40.6115 296.333 37.8501 296.333Z" fill="#D699BD"/>
<path d="M809.151 296.333H776.301C773.539 296.333 771.301 298.572 771.301 301.333V333.667C771.301 336.428 773.539 338.667 776.301 338.667H809.151C811.912 338.667 814.151 336.428 814.151 333.667V301.333C814.151 298.572 811.912 296.333 809.151 296.333Z" fill="#A66AA0"/>
<path d="M851.998 296.333H819.148C816.387 296.333 814.148 298.572 814.148 301.333V333.667C814.148 336.428 816.387 338.667 819.148 338.667H851.998C854.76 338.667 856.998 336.428 856.998 333.667V301.333C856.998 298.572 854.76 296.333 851.998 296.333Z" fill="#864985"/>
<path d="M766.301 296.333H733.451C730.69 296.333 728.451 298.572 728.451 301.333V333.667C728.451 336.428 730.69 338.667 733.451 338.667H766.301C769.063 338.667 771.301 336.428 771.301 333.667V301.333C771.301 298.572 769.063 296.333 766.301 296.333Z" fill="#AF79AA"/>
<path d="M80.6977 296.333H47.8477C45.0862 296.333 42.8477 298.572 42.8477 301.333V333.667C42.8477 336.428 45.0862 338.667 47.8477 338.667H80.6977C83.4591 338.667 85.6977 336.428 85.6977 333.667V301.333C85.6977 298.572 83.4591 296.333 80.6977 296.333Z" fill="#DDD53D"/>
<path d="M166.401 254H133.551C130.789 254 128.551 256.238 128.551 259V291.333C128.551 294.095 130.789 296.333 133.551 296.333H166.401C169.162 296.333 171.401 294.095 171.401 291.333V259C171.401 256.238 169.162 254 166.401 254Z" fill="#EDB717"/>
<path d="M680.6 254H647.75C644.989 254 642.75 256.238 642.75 259V291.333C642.75 294.095 644.989 296.333 647.75 296.333H680.6C683.361 296.333 685.6 294.095 685.6 291.333V259C685.6 256.238 683.361 254 680.6 254Z" fill="#E0AEAB"/>
<path d="M723.452 254H690.602C687.84 254 685.602 256.238 685.602 259V291.333C685.602 294.095 687.84 296.333 690.602 296.333H723.452C726.213 296.333 728.452 294.095 728.452 291.333V259C728.452 256.238 726.213 254 723.452 254Z" fill="#B9D7B5"/>
<path d="M123.549 254H90.6992C87.9378 254 85.6992 256.238 85.6992 259V291.333C85.6992 294.095 87.9378 296.333 90.6992 296.333H123.549C126.311 296.333 128.549 294.095 128.549 291.333V259C128.549 256.238 126.311 254 123.549 254Z" fill="#E9D2C9"/>
<path d="M252.1 254H219.25C216.489 254 214.25 256.238 214.25 259V291.333C214.25 294.095 216.489 296.333 219.25 296.333H252.1C254.861 296.333 257.1 294.095 257.1 291.333V259C257.1 256.238 254.861 254 252.1 254Z" fill="#B96087"/>
<path d="M594.903 254H562.053C559.291 254 557.053 256.238 557.053 259V291.333C557.053 294.095 559.291 296.333 562.053 296.333H594.903C597.664 296.333 599.903 294.095 599.903 291.333V259C599.903 256.238 597.664 254 594.903 254Z" fill="#B0B51B"/>
<path d="M466.352 254H433.502C430.741 254 428.502 256.238 428.502 259V291.333C428.502 294.095 430.741 296.333 433.502 296.333H466.352C469.113 296.333 471.352 294.095 471.352 291.333V259C471.352 256.238 469.113 254 466.352 254Z" fill="#B4732E"/>
<path d="M552.047 254H519.197C516.436 254 514.197 256.238 514.197 259V291.333C514.197 294.095 516.436 296.333 519.197 296.333H552.047C554.809 296.333 557.047 294.095 557.047 291.333V259C557.047 256.238 554.809 254 552.047 254Z" fill="#2A7E3A"/>
<path d="M509.198 254H476.348C473.586 254 471.348 256.238 471.348 259V291.333C471.348 294.095 473.586 296.333 476.348 296.333H509.198C511.959 296.333 514.198 294.095 514.198 291.333V259C514.198 256.238 511.959 254 509.198 254Z" fill="#ABAE1B"/>
<path d="M423.498 254H390.648C387.887 254 385.648 256.238 385.648 259V291.333C385.648 294.095 387.887 296.333 390.648 296.333H423.498C426.26 296.333 428.498 294.095 428.498 291.333V259C428.498 256.238 426.26 254 423.498 254Z" fill="#83317D"/>
<path d="M380.651 254H347.801C345.039 254 342.801 256.238 342.801 259V291.333C342.801 294.095 345.039 296.333 347.801 296.333H380.651C383.412 296.333 385.651 294.095 385.651 291.333V259C385.651 256.238 383.412 254 380.651 254Z" fill="#E59653"/>
<path d="M294.95 254H262.1C259.338 254 257.1 256.238 257.1 259V291.333C257.1 294.095 259.338 296.333 262.1 296.333H294.95C297.711 296.333 299.95 294.095 299.95 291.333V259C299.95 256.238 297.711 254 294.95 254Z" fill="#DDBB8C"/>
<path d="M337.799 254H304.949C302.188 254 299.949 256.238 299.949 259V291.333C299.949 294.095 302.188 296.333 304.949 296.333H337.799C340.561 296.333 342.799 294.095 342.799 291.333V259C342.799 256.238 340.561 254 337.799 254Z" fill="#EED34C"/>
<path d="M209.25 254H176.4C173.639 254 171.4 256.238 171.4 259V291.333C171.4 294.095 173.639 296.333 176.4 296.333H209.25C212.012 296.333 214.25 294.095 214.25 291.333V259C214.25 256.238 212.012 254 209.25 254Z" fill="#FADDAA"/>
<path d="M637.75 254H604.9C602.139 254 599.9 256.238 599.9 259V291.333C599.9 294.095 602.139 296.333 604.9 296.333H637.75C640.512 296.333 642.75 294.095 642.75 291.333V259C642.75 256.238 640.512 254 637.75 254Z" fill="#F1CC87"/>
<path d="M37.8501 254H5C2.23858 254 0 256.238 0 259V291.333C0 294.095 2.23857 296.333 4.99999 296.333H37.85C40.6115 296.333 42.85 294.095 42.85 291.333V259C42.85 256.238 40.6115 254 37.8501 254Z" fill="#EDCADD"/>
<path d="M809.151 254H776.301C773.539 254 771.301 256.238 771.301 259V291.333C771.301 294.095 773.539 296.333 776.301 296.333H809.151C811.912 296.333 814.151 294.095 814.151 291.333V259C814.151 256.238 811.912 254 809.151 254Z" fill="#DBB4D1"/>
<path d="M851.998 254H819.148C816.387 254 814.148 256.238 814.148 259V291.333C814.148 294.095 816.387 296.333 819.148 296.333H851.998C854.76 296.333 856.998 294.095 856.998 291.333V259C856.998 256.238 854.76 254 851.998 254Z" fill="#DC99BA"/>
<path d="M766.301 254H733.451C730.69 254 728.451 256.238 728.451 259V291.333C728.451 294.095 730.69 296.333 733.451 296.333H766.301C769.063 296.333 771.301 294.095 771.301 291.333V259C771.301 256.238 769.063 254 766.301 254Z" fill="#731F74"/>
<path d="M80.6977 254H47.8477C45.0862 254 42.8477 256.238 42.8477 259V291.333C42.8477 294.095 45.0862 296.333 47.8477 296.333H80.6977C83.4591 296.333 85.6977 294.095 85.6977 291.333V259C85.6977 256.238 83.4591 254 80.6977 254Z" fill="#C4BB20"/>
<path d="M851.998 508H819.148C816.387 508 814.148 510.239 814.148 513V545.333C814.148 548.095 816.387 550.333 819.148 550.333H851.998C854.76 550.333 856.998 548.095 856.998 545.333V513C856.998 510.239 854.76 508 851.998 508Z" fill="#BE5853"/>
<path d="M123.549 508H90.6992C87.9378 508 85.6992 510.239 85.6992 513V545.333C85.6992 548.095 87.9378 550.333 90.6992 550.333H123.549C126.311 550.333 128.549 548.095 128.549 545.333V513C128.549 510.239 126.311 508 123.549 508Z" fill="#74A92D"/>
<path d="M37.8501 508H5C2.23858 508 0 510.239 0 513V545.333C0 548.095 2.23857 550.333 4.99999 550.333H37.85C40.6115 550.333 42.85 548.095 42.85 545.333V513C42.85 510.239 40.6115 508 37.8501 508Z" fill="#F3BD89"/>
<path d="M337.799 508H304.949C302.188 508 299.949 510.239 299.949 513V545.333C299.949 548.095 302.188 550.333 304.949 550.333H337.799C340.561 550.333 342.799 548.095 342.799 545.333V513C342.799 510.239 340.561 508 337.799 508Z" fill="#E0ABC9"/>
<path d="M423.498 508H390.648C387.887 508 385.648 510.239 385.648 513V545.333C385.648 548.095 387.887 550.333 390.648 550.333H423.498C426.26 550.333 428.498 548.095 428.498 545.333V513C428.498 510.239 426.26 508 423.498 508Z" fill="#CC6FA0"/>
<path d="M380.651 508H347.801C345.039 508 342.801 510.239 342.801 513V545.333C342.801 548.095 345.039 550.333 347.801 550.333H380.651C383.412 550.333 385.651 548.095 385.651 545.333V513C385.651 510.239 383.412 508 380.651 508Z" fill="#F2C07F"/>
<path d="M466.352 508H433.502C430.741 508 428.502 510.239 428.502 513V545.333C428.502 548.095 430.741 550.333 433.502 550.333H466.352C469.113 550.333 471.352 548.095 471.352 545.333V513C471.352 510.239 469.113 508 466.352 508Z" fill="#9E4426"/>
<path d="M166.401 508H133.551C130.789 508 128.551 510.239 128.551 513V545.333C128.551 548.095 130.789 550.333 133.551 550.333H166.401C169.162 550.333 171.401 548.095 171.401 545.333V513C171.401 510.239 169.162 508 166.401 508Z" fill="#B46283"/>
<path d="M209.25 508H176.4C173.639 508 171.4 510.239 171.4 513V545.333C171.4 548.095 173.639 550.333 176.4 550.333H209.25C212.012 550.333 214.25 548.095 214.25 545.333V513C214.25 510.239 212.012 508 209.25 508Z" fill="#94C5E7"/>
<path d="M294.95 508H262.1C259.338 508 257.1 510.239 257.1 513V545.333C257.1 548.095 259.338 550.333 262.1 550.333H294.95C297.711 550.333 299.95 548.095 299.95 545.333V513C299.95 510.239 297.711 508 294.95 508Z" fill="#DA6C82"/>
<path d="M509.198 508H476.348C473.586 508 471.348 510.239 471.348 513V545.333C471.348 548.095 473.586 550.333 476.348 550.333H509.198C511.959 550.333 514.198 548.095 514.198 545.333V513C514.198 510.239 511.959 508 509.198 508Z" fill="#6C9931"/>
<path d="M252.1 508H219.25C216.489 508 214.25 510.239 214.25 513V545.333C214.25 548.095 216.489 550.333 219.25 550.333H252.1C254.861 550.333 257.1 548.095 257.1 545.333V513C257.1 510.239 254.861 508 252.1 508Z" fill="#FCEBBB"/>
<path d="M766.301 508H733.451C730.69 508 728.451 510.239 728.451 513V545.333C728.451 548.095 730.69 550.333 733.451 550.333H766.301C769.063 550.333 771.301 548.095 771.301 545.333V513C771.301 510.239 769.063 508 766.301 508Z" fill="#528938"/>
<path d="M552.047 508H519.197C516.436 508 514.197 510.239 514.197 513V545.333C514.197 548.095 516.436 550.333 519.197 550.333H552.047C554.809 550.333 557.047 548.095 557.047 545.333V513C557.047 510.239 554.809 508 552.047 508Z" fill="#74A42E"/>
<path d="M723.452 508H690.602C687.84 508 685.602 510.239 685.602 513V545.333C685.602 548.095 687.84 550.333 690.602 550.333H723.452C726.213 550.333 728.452 548.095 728.452 545.333V513C728.452 510.239 726.213 508 723.452 508Z" fill="#D0C0D9"/>
<path d="M594.903 508H562.053C559.291 508 557.053 510.239 557.053 513V545.333C557.053 548.095 559.291 550.333 562.053 550.333H594.903C597.664 550.333 599.903 548.095 599.903 545.333V513C599.903 510.239 597.664 508 594.903 508Z" fill="#7A8A2E"/>
<path d="M637.75 508H604.9C602.139 508 599.9 510.239 599.9 513V545.333C599.9 548.095 602.139 550.333 604.9 550.333H637.75C640.512 550.333 642.75 548.095 642.75 545.333V513C642.75 510.239 640.512 508 637.75 508Z" fill="#CEBC33"/>
<path d="M680.6 508H647.75C644.989 508 642.75 510.239 642.75 513V545.333C642.75 548.095 644.989 550.333 647.75 550.333H680.6C683.361 550.333 685.6 548.095 685.6 545.333V513C685.6 510.239 683.361 508 680.6 508Z" fill="#C28E7F"/>
<path d="M809.151 508H776.301C773.539 508 771.301 510.239 771.301 513V545.333C771.301 548.095 773.539 550.333 776.301 550.333H809.151C811.912 550.333 814.151 548.095 814.151 545.333V513C814.151 510.239 811.912 508 809.151 508Z" fill="#848E7F"/>
<path d="M80.6977 508H47.8477C45.0862 508 42.8477 510.239 42.8477 513V545.333C42.8477 548.095 45.0862 550.333 47.8477 550.333H80.6977C83.4591 550.333 85.6977 548.095 85.6977 545.333V513C85.6977 510.239 83.4591 508 80.6977 508Z" fill="#89A03A"/>
<path d="M166.401 423.333H133.551C130.789 423.333 128.551 425.572 128.551 428.333V460.666C128.551 463.428 130.789 465.666 133.551 465.666H166.401C169.162 465.666 171.401 463.428 171.401 460.666V428.333C171.401 425.572 169.162 423.333 166.401 423.333Z" fill="#96B947"/>
<path d="M637.75 423.333H604.9C602.139 423.333 599.9 425.572 599.9 428.333V460.666C599.9 463.428 602.139 465.666 604.9 465.666H637.75C640.512 465.666 642.75 463.428 642.75 460.666V428.333C642.75 425.572 640.512 423.333 637.75 423.333Z" fill="#F6DE97"/>
<path d="M680.6 423.333H647.75C644.989 423.333 642.75 425.572 642.75 428.333V460.666C642.75 463.428 644.989 465.666 647.75 465.666H680.6C683.361 465.666 685.6 463.428 685.6 460.666V428.333C685.6 425.572 683.361 423.333 680.6 423.333Z" fill="#BB867A"/>
<path d="M123.549 423.333H90.6992C87.9378 423.333 85.6992 425.572 85.6992 428.333V460.666C85.6992 463.428 87.9378 465.666 90.6992 465.666H123.549C126.311 465.666 128.549 463.428 128.549 460.666V428.333C128.549 425.572 126.311 423.333 123.549 423.333Z" fill="#8B4388"/>
<path d="M723.452 423.333H690.602C687.84 423.333 685.602 425.572 685.602 428.333V460.666C685.602 463.428 687.84 465.666 690.602 465.666H723.452C726.213 465.666 728.452 463.428 728.452 460.666V428.333C728.452 425.572 726.213 423.333 723.452 423.333Z" fill="#B4C6E4"/>
<path d="M594.903 423.333H562.053C559.291 423.333 557.053 425.572 557.053 428.333V460.666C557.053 463.428 559.291 465.666 562.053 465.666H594.903C597.664 465.666 599.903 463.428 599.903 460.666V428.333C599.903 425.572 597.664 423.333 594.903 423.333Z" fill="#B0911B"/>
<path d="M552.047 423.333H519.197C516.436 423.333 514.197 425.572 514.197 428.333V460.666C514.197 463.428 516.436 465.666 519.197 465.666H552.047C554.809 465.666 557.047 463.428 557.047 460.666V428.333C557.047 425.572 554.809 423.333 552.047 423.333Z" fill="#BA9680"/>
<path d="M423.498 423.333H390.648C387.887 423.333 385.648 425.572 385.648 428.333V460.666C385.648 463.428 387.887 465.666 390.648 465.666H423.498C426.26 465.666 428.498 463.428 428.498 460.666V428.333C428.498 425.572 426.26 423.333 423.498 423.333Z" fill="#D1A92B"/>
<path d="M466.352 423.333H433.502C430.741 423.333 428.502 425.572 428.502 428.333V460.666C428.502 463.428 430.741 465.666 433.502 465.666H466.352C469.113 465.666 471.352 463.428 471.352 460.666V428.333C471.352 425.572 469.113 423.333 466.352 423.333Z" fill="#2F9D76"/>
<path d="M209.25 423.333H176.4C173.639 423.333 171.4 425.572 171.4 428.333V460.666C171.4 463.428 173.639 465.666 176.4 465.666H209.25C212.012 465.666 214.25 463.428 214.25 460.666V428.333C214.25 425.572 212.012 423.333 209.25 423.333Z" fill="#CA4D54"/>
<path d="M509.198 423.333H476.348C473.586 423.333 471.348 425.572 471.348 428.333V460.666C471.348 463.428 473.586 465.666 476.348 465.666H509.198C511.959 465.666 514.198 463.428 514.198 460.666V428.333C514.198 425.572 511.959 423.333 509.198 423.333Z" fill="#677530"/>
<path d="M380.651 423.333H347.801C345.039 423.333 342.801 425.572 342.801 428.333V460.666C342.801 463.428 345.039 465.666 347.801 465.666H380.651C383.412 465.666 385.651 463.428 385.651 460.666V428.333C385.651 425.572 383.412 423.333 380.651 423.333Z" fill="#BC417D"/>
<path d="M252.1 423.333H219.25C216.489 423.333 214.25 425.572 214.25 428.333V460.666C214.25 463.428 216.489 465.666 219.25 465.666H252.1C254.861 465.666 257.1 463.428 257.1 460.666V428.333C257.1 425.572 254.861 423.333 252.1 423.333Z" fill="#BE4D4E"/>
<path d="M337.799 423.333H304.949C302.188 423.333 299.949 425.572 299.949 428.333V460.666C299.949 463.428 302.188 465.666 304.949 465.666H337.799C340.561 465.666 342.799 463.428 342.799 460.666V428.333C342.799 425.572 340.561 423.333 337.799 423.333Z" fill="#A9B14A"/>
<path d="M294.95 423.333H262.1C259.338 423.333 257.1 425.572 257.1 428.333V460.666C257.1 463.428 259.338 465.666 262.1 465.666H294.95C297.711 465.666 299.95 463.428 299.95 460.666V428.333C299.95 425.572 297.711 423.333 294.95 423.333Z" fill="#DDB67F"/>
<path d="M37.8501 423.333H5C2.23858 423.333 0 425.572 0 428.333V460.667C0 463.428 2.23857 465.667 4.99999 465.667H37.85C40.6115 465.667 42.85 463.428 42.85 460.667V428.333C42.85 425.572 40.6115 423.333 37.8501 423.333Z" fill="#D49B7E"/>
<path d="M851.998 423.333H819.148C816.387 423.333 814.148 425.572 814.148 428.333V460.666C814.148 463.428 816.387 465.666 819.148 465.666H851.998C854.76 465.666 856.998 463.428 856.998 460.666V428.333C856.998 425.572 854.76 423.333 851.998 423.333Z" fill="#E8DA30"/>
<path d="M766.301 423.333H733.451C730.69 423.333 728.451 425.572 728.451 428.333V460.666C728.451 463.428 730.69 465.666 733.451 465.666H766.301C769.063 465.666 771.301 463.428 771.301 460.666V428.333C771.301 425.572 769.063 423.333 766.301 423.333Z" fill="#D46D7C"/>
<path d="M809.151 423.333H776.301C773.539 423.333 771.301 425.572 771.301 428.333V460.666C771.301 463.428 773.539 465.666 776.301 465.666H809.151C811.912 465.666 814.151 463.428 814.151 460.666V428.333C814.151 425.572 811.912 423.333 809.151 423.333Z" fill="#8F4488"/>
<path d="M80.6977 423.333H47.8477C45.0862 423.333 42.8477 425.572 42.8477 428.333V460.666C42.8477 463.428 45.0862 465.666 47.8477 465.666H80.6977C83.4591 465.666 85.6977 463.428 85.6977 460.666V428.333C85.6977 425.572 83.4591 423.333 80.6977 423.333Z" fill="#5492C4"/>
<path d="M123.549 465.667H90.6992C87.9378 465.667 85.6992 467.905 85.6992 470.667V503C85.6992 505.761 87.9378 508 90.6992 508H123.549C126.311 508 128.549 505.761 128.549 503V470.667C128.549 467.905 126.311 465.667 123.549 465.667Z" fill="#B5C432"/>
<path d="M380.651 465.667H347.801C345.039 465.667 342.801 467.905 342.801 470.667V503C342.801 505.761 345.039 508 347.801 508H380.651C383.412 508 385.651 505.761 385.651 503V470.667C385.651 467.905 383.412 465.667 380.651 465.667Z" fill="#ECA866"/>
<path d="M337.799 465.667H304.949C302.188 465.667 299.949 467.905 299.949 470.667V503C299.949 505.761 302.188 508 304.949 508H337.799C340.561 508 342.799 505.761 342.799 503V470.667C342.799 467.905 340.561 465.667 337.799 465.667Z" fill="#B7387E"/>
<path d="M423.498 465.667H390.648C387.887 465.667 385.648 467.905 385.648 470.667V503C385.648 505.761 387.887 508 390.648 508H423.498C426.26 508 428.498 505.761 428.498 503V470.667C428.498 467.905 426.26 465.667 423.498 465.667Z" fill="#C14988"/>
<path d="M294.95 465.667H262.1C259.338 465.667 257.1 467.905 257.1 470.667V503C257.1 505.761 259.338 508 262.1 508H294.95C297.711 508 299.95 505.761 299.95 503V470.667C299.95 467.905 297.711 465.667 294.95 465.667Z" fill="#E5C087"/>
<path d="M166.401 465.667H133.551C130.789 465.667 128.551 467.905 128.551 470.667V503C128.551 505.761 130.789 508 133.551 508H166.401C169.162 508 171.401 505.761 171.401 503V470.667C171.401 467.905 169.162 465.667 166.401 465.667Z" fill="#BC9D1B"/>
<path d="M209.25 465.667H176.4C173.639 465.667 171.4 467.905 171.4 470.667V503C171.4 505.761 173.639 508 176.4 508H209.25C212.012 508 214.25 505.761 214.25 503V470.667C214.25 467.905 212.012 465.667 209.25 465.667Z" fill="#E1AD3F"/>
<path d="M252.1 465.667H219.25C216.489 465.667 214.25 467.905 214.25 470.667V503C214.25 505.761 216.489 508 219.25 508H252.1C254.861 508 257.1 505.761 257.1 503V470.667C257.1 467.905 254.861 465.667 252.1 465.667Z" fill="#822260"/>
<path d="M466.352 465.667H433.502C430.741 465.667 428.502 467.905 428.502 470.667V503C428.502 505.761 430.741 508 433.502 508H466.352C469.113 508 471.352 505.761 471.352 503V470.667C471.352 467.905 469.113 465.667 466.352 465.667Z" fill="#9E3A80"/>
<path d="M509.198 465.667H476.348C473.586 465.667 471.348 467.905 471.348 470.667V503C471.348 505.761 473.586 508 476.348 508H509.198C511.959 508 514.198 505.761 514.198 503V470.667C514.198 467.905 511.959 465.667 509.198 465.667Z" fill="#E17B42"/>
<path d="M723.452 465.667H690.602C687.84 465.667 685.602 467.905 685.602 470.667V503C685.602 505.761 687.84 508 690.602 508H723.452C726.213 508 728.452 505.761 728.452 503V470.667C728.452 467.905 726.213 465.667 723.452 465.667Z" fill="#BF9493"/>
<path d="M680.6 465.667H647.75C644.989 465.667 642.75 467.905 642.75 470.667V503C642.75 505.761 644.989 508 647.75 508H680.6C683.361 508 685.6 505.761 685.6 503V470.667C685.6 467.905 683.361 465.667 680.6 465.667Z" fill="#E7996A"/>
<path d="M594.903 465.667H562.053C559.291 465.667 557.053 467.905 557.053 470.667V503C557.053 505.761 559.291 508 562.053 508H594.903C597.664 508 599.903 505.761 599.903 503V470.667C599.903 467.905 597.664 465.667 594.903 465.667Z" fill="#E1D62D"/>
<path d="M552.047 465.667H519.197C516.436 465.667 514.197 467.905 514.197 470.667V503C514.197 505.761 516.436 508 519.197 508H552.047C554.809 508 557.047 505.761 557.047 503V470.667C557.047 467.905 554.809 465.667 552.047 465.667Z" fill="#A5BE3E"/>
<path d="M637.75 465.667H604.9C602.139 465.667 599.9 467.905 599.9 470.667V503C599.9 505.761 602.139 508 604.9 508H637.75C640.512 508 642.75 505.761 642.75 503V470.667C642.75 467.905 640.512 465.667 637.75 465.667Z" fill="#D88A10"/>
<path d="M37.8501 465.667H5C2.23858 465.667 0 467.905 0 470.666V503C0 505.761 2.23857 508 4.99999 508H37.85C40.6115 508 42.85 505.761 42.85 503V470.667C42.85 467.905 40.6115 465.667 37.8501 465.667Z" fill="#B05B75"/>
<path d="M851.998 465.667H819.148C816.387 465.667 814.148 467.905 814.148 470.667V503C814.148 505.761 816.387 508 819.148 508H851.998C854.76 508 856.998 505.761 856.998 503V470.667C856.998 467.905 854.76 465.667 851.998 465.667Z" fill="#D11E1C"/>
<path d="M766.301 465.667H733.451C730.69 465.667 728.451 467.905 728.451 470.667V503C728.451 505.761 730.69 508 733.451 508H766.301C769.063 508 771.301 505.761 771.301 503V470.667C771.301 467.905 769.063 465.667 766.301 465.667Z" fill="#D84516"/>
<path d="M809.151 465.667H776.301C773.539 465.667 771.301 467.905 771.301 470.667V503C771.301 505.761 773.539 508 776.301 508H809.151C811.912 508 814.151 505.761 814.151 503V470.667C814.151 467.905 811.912 465.667 809.151 465.667Z" fill="#D42F18"/>
<path d="M80.6977 465.667H47.8477C45.0862 465.667 42.8477 467.905 42.8477 470.667V503C42.8477 505.761 45.0862 508 47.8477 508H80.6977C83.4591 508 85.6977 505.761 85.6977 503V470.667C85.6977 467.905 83.4591 465.667 80.6977 465.667Z" fill="#E5D62A"/>
<path d="M166.401 381H133.551C130.789 381 128.551 383.238 128.551 386V418.333C128.551 421.095 130.789 423.333 133.551 423.333H166.401C169.162 423.333 171.401 421.095 171.401 418.333V386C171.401 383.238 169.162 381 166.401 381Z" fill="#B5824F"/>
<path d="M680.6 381H647.75C644.989 381 642.75 383.238 642.75 386V418.333C642.75 421.095 644.989 423.333 647.75 423.333H680.6C683.361 423.333 685.6 421.095 685.6 418.333V386C685.6 383.238 683.361 381 680.6 381Z" fill="#3C5568"/>
<path d="M123.549 381H90.6992C87.9378 381 85.6992 383.238 85.6992 386V418.333C85.6992 421.095 87.9378 423.333 90.6992 423.333H123.549C126.311 423.333 128.549 421.095 128.549 418.333V386C128.549 383.238 126.311 381 123.549 381Z" fill="#96B947"/>
<path d="M723.452 381H690.602C687.84 381 685.602 383.238 685.602 386V418.333C685.602 421.095 687.84 423.333 690.602 423.333H723.452C726.213 423.333 728.452 421.095 728.452 418.333V386C728.452 383.238 726.213 381 723.452 381Z" fill="#B9D7B5"/>
<path d="M252.1 381H219.25C216.489 381 214.25 383.238 214.25 386V418.333C214.25 421.095 216.489 423.333 219.25 423.333H252.1C254.861 423.333 257.1 421.095 257.1 418.333V386C257.1 383.238 254.861 381 252.1 381Z" fill="#F2C8BF"/>
<path d="M209.25 381H176.4C173.639 381 171.4 383.238 171.4 386V418.333C171.4 421.095 173.639 423.333 176.4 423.333H209.25C212.012 423.333 214.25 421.095 214.25 418.333V386C214.25 383.238 212.012 381 209.25 381Z" fill="#923D83"/>
<path d="M466.352 381H433.502C430.741 381 428.502 383.238 428.502 386V418.333C428.502 421.095 430.741 423.333 433.502 423.333H466.352C469.113 423.333 471.352 421.095 471.352 418.333V386C471.352 383.238 469.113 381 466.352 381Z" fill="#B5538F"/>
<path d="M509.198 381H476.348C473.586 381 471.348 383.238 471.348 386V418.333C471.348 421.095 473.586 423.333 476.348 423.333H509.198C511.959 423.333 514.198 421.095 514.198 418.333V386C514.198 383.238 511.959 381 509.198 381Z" fill="#ADAC1C"/>
<path d="M637.75 381H604.9C602.139 381 599.9 383.238 599.9 386V418.333C599.9 421.095 602.139 423.333 604.9 423.333H637.75C640.512 423.333 642.75 421.095 642.75 418.333V386C642.75 383.238 640.512 381 637.75 381Z" fill="#EEAD75"/>
<path d="M594.903 381H562.053C559.291 381 557.053 383.238 557.053 386V418.333C557.053 421.095 559.291 423.333 562.053 423.333H594.903C597.664 423.333 599.903 421.095 599.903 418.333V386C599.903 383.238 597.664 381 594.903 381Z" fill="#DBD047"/>
<path d="M423.498 381H390.648C387.887 381 385.648 383.238 385.648 386V418.333C385.648 421.095 387.887 423.333 390.648 423.333H423.498C426.26 423.333 428.498 421.095 428.498 418.333V386C428.498 383.238 426.26 381 423.498 381Z" fill="#6C9A33"/>
<path d="M337.799 381H304.949C302.188 381 299.949 383.238 299.949 386V418.333C299.949 421.095 302.188 423.333 304.949 423.333H337.799C340.561 423.333 342.799 421.095 342.799 418.333V386C342.799 383.238 340.561 381 337.799 381Z" fill="#C65991"/>
<path d="M380.651 381H347.801C345.039 381 342.801 383.238 342.801 386V418.333C342.801 421.095 345.039 423.333 347.801 423.333H380.651C383.412 423.333 385.651 421.095 385.651 418.333V386C385.651 383.238 383.412 381 380.651 381Z" fill="#DBA9C8"/>
<path d="M294.95 381H262.1C259.338 381 257.1 383.238 257.1 386V418.333C257.1 421.095 259.338 423.333 262.1 423.333H294.95C297.711 423.333 299.95 421.095 299.95 418.333V386C299.95 383.238 297.711 381 294.95 381Z" fill="#D0131B"/>
<path d="M552.047 381H519.197C516.436 381 514.197 383.238 514.197 386V418.333C514.197 421.095 516.436 423.333 519.197 423.333H552.047C554.809 423.333 557.047 421.095 557.047 418.333V386C557.047 383.238 554.809 381 552.047 381Z" fill="#DC5610"/>
<path d="M37.8501 381H5C2.23858 381 0 383.238 0 386V418.333C0 421.095 2.23857 423.333 4.99999 423.333H37.85C40.6115 423.333 42.85 421.095 42.85 418.333V386C42.85 383.238 40.6115 381 37.8501 381Z" fill="#DBBFB6"/>
<path d="M851.998 381H819.148C816.387 381 814.148 383.238 814.148 386V418.333C814.148 421.095 816.387 423.333 819.148 423.333H851.998C854.76 423.333 856.998 421.095 856.998 418.333V386C856.998 383.238 854.76 381 851.998 381Z" fill="#AE981B"/>
<path d="M809.151 381H776.301C773.539 381 771.301 383.238 771.301 386V418.333C771.301 421.095 773.539 423.333 776.301 423.333H809.151C811.912 423.333 814.151 421.095 814.151 418.333V386C814.151 383.238 811.912 381 809.151 381Z" fill="#EDC41A"/>
<path d="M766.301 381H733.451C730.69 381 728.451 383.238 728.451 386V418.333C728.451 421.095 730.69 423.333 733.451 423.333H766.301C769.063 423.333 771.301 421.095 771.301 418.333V386C771.301 383.238 769.063 381 766.301 381Z" fill="#8F8729"/>
<path d="M80.6977 381H47.8477C45.0862 381 42.8477 383.238 42.8477 386V418.333C42.8477 421.095 45.0862 423.333 47.8477 423.333H80.6977C83.4591 423.333 85.6977 421.095 85.6977 418.333V386C85.6977 383.238 83.4591 381 80.6977 381Z" fill="#838F2C"/>
<path d="M851.998 550.333H819.148C816.387 550.333 814.148 552.572 814.148 555.333V587.667C814.148 590.428 816.387 592.667 819.148 592.667H851.998C854.76 592.667 856.998 590.428 856.998 587.667V555.333C856.998 552.572 854.76 550.333 851.998 550.333Z" fill="#4C62A2"/>
<path d="M37.8501 550.333H5C2.23858 550.333 0 552.572 0 555.333V587.667C0 590.428 2.23857 592.667 4.99999 592.667H37.85C40.6115 592.667 42.85 590.428 42.85 587.667V555.333C42.85 552.572 40.6115 550.333 37.8501 550.333Z" fill="#E9A77F"/>
<path d="M380.651 550.333H347.801C345.039 550.333 342.801 552.572 342.801 555.333V587.667C342.801 590.428 345.039 592.667 347.801 592.667H380.651C383.412 592.667 385.651 590.428 385.651 587.667V555.333C385.651 552.572 383.412 550.333 380.651 550.333Z" fill="#A74362"/>
<path d="M423.498 550.333H390.648C387.887 550.333 385.648 552.572 385.648 555.333V587.667C385.648 590.428 387.887 592.667 390.648 592.667H423.498C426.26 592.667 428.498 590.428 428.498 587.667V555.333C428.498 552.572 426.26 550.333 423.498 550.333Z" fill="#B87A42"/>
<path d="M509.198 550.333H476.348C473.586 550.333 471.348 552.572 471.348 555.333V587.667C471.348 590.428 473.586 592.667 476.348 592.667H509.198C511.959 592.667 514.198 590.428 514.198 587.667V555.333C514.198 552.572 511.959 550.333 509.198 550.333Z" fill="#86AD32"/>
<path d="M337.799 550.333H304.949C302.188 550.333 299.949 552.572 299.949 555.333V587.667C299.949 590.428 302.188 592.667 304.949 592.667H337.799C340.561 592.667 342.799 590.428 342.799 587.667V555.333C342.799 552.572 340.561 550.333 337.799 550.333Z" fill="#70B8A9"/>
<path d="M166.401 550.333H133.551C130.789 550.333 128.551 552.572 128.551 555.333V587.667C128.551 590.428 130.789 592.667 133.551 592.667H166.401C169.162 592.667 171.401 590.428 171.401 587.667V555.333C171.401 552.572 169.162 550.333 166.401 550.333Z" fill="#DDA271"/>
<path d="M552.047 550.333H519.197C516.436 550.333 514.197 552.572 514.197 555.333V587.667C514.197 590.428 516.436 592.667 519.197 592.667H552.047C554.809 592.667 557.047 590.428 557.047 587.667V555.333C557.047 552.572 554.809 550.333 552.047 550.333Z" fill="#CEC01C"/>
<path d="M209.25 550.333H176.4C173.639 550.333 171.4 552.572 171.4 555.333V587.667C171.4 590.428 173.639 592.667 176.4 592.667H209.25C212.012 592.667 214.25 590.428 214.25 587.667V555.333C214.25 552.572 212.012 550.333 209.25 550.333Z" fill="#7F9E4C"/>
<path d="M294.95 550.333H262.1C259.338 550.333 257.1 552.572 257.1 555.333V587.667C257.1 590.428 259.338 592.667 262.1 592.667H294.95C297.711 592.667 299.95 590.428 299.95 587.667V555.333C299.95 552.572 297.711 550.333 294.95 550.333Z" fill="#B52B78"/>
<path d="M252.1 550.333H219.25C216.489 550.333 214.25 552.572 214.25 555.333V587.667C214.25 590.428 216.489 592.667 219.25 592.667H252.1C254.861 592.667 257.1 590.428 257.1 587.667V555.333C257.1 552.572 254.861 550.333 252.1 550.333Z" fill="#DBD8E5"/>
<path d="M766.301 550.333H733.451C730.69 550.333 728.451 552.572 728.451 555.333V587.667C728.451 590.428 730.69 592.667 733.451 592.667H766.301C769.063 592.667 771.301 590.428 771.301 587.667V555.333C771.301 552.572 769.063 550.333 766.301 550.333Z" fill="#48AFD5"/>
<path d="M809.151 550.333H776.301C773.539 550.333 771.301 552.572 771.301 555.333V587.667C771.301 590.428 773.539 592.667 776.301 592.667H809.151C811.912 592.667 814.151 590.428 814.151 587.667V555.333C814.151 552.572 811.912 550.333 809.151 550.333Z" fill="#A3C2A0"/>
<path d="M594.903 550.333H562.053C559.291 550.333 557.053 552.572 557.053 555.333V587.667C557.053 590.428 559.291 592.667 562.053 592.667H594.903C597.664 592.667 599.903 590.428 599.903 587.667V555.333C599.903 552.572 597.664 550.333 594.903 550.333Z" fill="#EADB34"/>
<path d="M723.452 550.333H690.602C687.84 550.333 685.602 552.572 685.602 555.333V587.667C685.602 590.428 687.84 592.667 690.602 592.667H723.452C726.213 592.667 728.452 590.428 728.452 587.667V555.333C728.452 552.572 726.213 550.333 723.452 550.333Z" fill="#6E5562"/>
<path d="M637.75 550.333H604.9C602.139 550.333 599.9 552.572 599.9 555.333V587.667C599.9 590.428 602.139 592.667 604.9 592.667H637.75C640.512 592.667 642.75 590.428 642.75 587.667V555.333C642.75 552.572 640.512 550.333 637.75 550.333Z" fill="#928D27"/>
<path d="M680.6 550.333H647.75C644.989 550.333 642.75 552.572 642.75 555.333V587.667C642.75 590.428 644.989 592.667 647.75 592.667H680.6C683.361 592.667 685.6 590.428 685.6 587.667V555.333C685.6 552.572 683.361 550.333 680.6 550.333Z" fill="#CB387E"/>
<path d="M466.352 550.333H433.502C430.741 550.333 428.502 552.572 428.502 555.333V587.667C428.502 590.428 430.741 592.667 433.502 592.667H466.352C469.113 592.667 471.352 590.428 471.352 587.667V555.333C471.352 552.572 469.113 550.333 466.352 550.333Z" fill="#C57F4E"/>
<path d="M80.6977 550.333H47.8477C45.0862 550.333 42.8477 552.572 42.8477 555.333V587.667C42.8477 590.428 45.0862 592.667 47.8477 592.667H80.6977C83.4591 592.667 85.6977 590.428 85.6977 587.667V555.333C85.6977 552.572 83.4591 550.333 80.6977 550.333Z" fill="#AA9E1B"/>
<path d="M123.549 550.333H90.6992C87.9378 550.333 85.6992 552.572 85.6992 555.333V587.667C85.6992 590.428 87.9378 592.667 90.6992 592.667H123.549C126.311 592.667 128.549 590.428 128.549 587.667V555.333C128.549 552.572 126.311 550.333 123.549 550.333Z" fill="#497D36"/>
<path d="M680.6 338.667H647.75C644.989 338.667 642.75 340.905 642.75 343.666V376C642.75 378.761 644.989 381 647.75 381H680.6C683.361 381 685.6 378.761 685.6 376V343.667C685.6 340.905 683.361 338.667 680.6 338.667Z" fill="#904D85"/>
<path d="M123.549 338.667H90.6992C87.9378 338.667 85.6992 340.905 85.6992 343.666V376C85.6992 378.761 87.9378 381 90.6992 381H123.549C126.311 381 128.549 378.761 128.549 376V343.667C128.549 340.905 126.311 338.667 123.549 338.667Z" fill="#E0A815"/>
<path d="M723.452 338.667H690.602C687.84 338.667 685.602 340.905 685.602 343.666V376C685.602 378.761 687.84 381 690.602 381H723.452C726.213 381 728.452 378.761 728.452 376V343.667C728.452 340.905 726.213 338.667 723.452 338.667Z" fill="#D54F1F"/>
<path d="M166.401 338.667H133.551C130.789 338.667 128.551 340.905 128.551 343.666V376C128.551 378.761 130.789 381 133.551 381H166.401C169.162 381 171.401 378.761 171.401 376V343.667C171.401 340.905 169.162 338.667 166.401 338.667Z" fill="#ACB334"/>
<path d="M466.352 338.667H433.502C430.741 338.667 428.502 340.905 428.502 343.667V376C428.502 378.761 430.741 381 433.502 381H466.352C469.113 381 471.352 378.761 471.352 376V343.667C471.352 340.905 469.113 338.667 466.352 338.667Z" fill="#8F337E"/>
<path d="M509.198 338.667H476.348C473.586 338.667 471.348 340.905 471.348 343.666V376C471.348 378.761 473.586 381 476.348 381H509.198C511.959 381 514.198 378.761 514.198 376V343.667C514.198 340.905 511.959 338.667 509.198 338.667Z" fill="#C9B717"/>
<path d="M552.047 338.667H519.197C516.436 338.667 514.197 340.905 514.197 343.666V376C514.197 378.761 516.436 381 519.197 381H552.047C554.809 381 557.047 378.761 557.047 376V343.667C557.047 340.905 554.809 338.667 552.047 338.667Z" fill="#A6A61C"/>
<path d="M594.903 338.667H562.053C559.291 338.667 557.053 340.905 557.053 343.667V376C557.053 378.761 559.291 381 562.053 381H594.903C597.664 381 599.903 378.761 599.903 376V343.667C599.903 340.905 597.664 338.667 594.903 338.667Z" fill="#C2BD26"/>
<path d="M252.1 338.667H219.25C216.489 338.667 214.25 340.905 214.25 343.667V376C214.25 378.761 216.489 381 219.25 381H252.1C254.861 381 257.1 378.761 257.1 376V343.667C257.1 340.905 254.861 338.667 252.1 338.667Z" fill="#DF725A"/>
<path d="M337.799 338.667H304.949C302.188 338.667 299.949 340.905 299.949 343.666V376C299.949 378.761 302.188 381 304.949 381H337.799C340.561 381 342.799 378.761 342.799 376V343.667C342.799 340.905 340.561 338.667 337.799 338.667Z" fill="#F2CB76"/>
<path d="M294.95 338.667H262.1C259.338 338.667 257.1 340.905 257.1 343.666V376C257.1 378.761 259.338 381 262.1 381H294.95C297.711 381 299.95 378.761 299.95 376V343.667C299.95 340.905 297.711 338.667 294.95 338.667Z" fill="#E4B06E"/>
<path d="M423.498 338.667H390.648C387.887 338.667 385.648 340.905 385.648 343.667V376C385.648 378.761 387.887 381 390.648 381H423.498C426.26 381 428.498 378.761 428.498 376V343.667C428.498 340.905 426.26 338.667 423.498 338.667Z" fill="#1AA2CD"/>
<path d="M380.651 338.667H347.801C345.039 338.667 342.801 340.905 342.801 343.666V376C342.801 378.761 345.039 381 347.801 381H380.651C383.412 381 385.651 378.761 385.651 376V343.667C385.651 340.905 383.412 338.667 380.651 338.667Z" fill="#C6A48D"/>
<path d="M209.25 338.667H176.4C173.639 338.667 171.4 340.905 171.4 343.667V376C171.4 378.761 173.639 381 176.4 381H209.25C212.012 381 214.25 378.761 214.25 376V343.667C214.25 340.905 212.012 338.667 209.25 338.667Z" fill="#D13D68"/>
<path d="M637.75 338.667H604.9C602.139 338.667 599.9 340.905 599.9 343.666V376C599.9 378.761 602.139 381 604.9 381H637.75C640.512 381 642.75 378.761 642.75 376V343.667C642.75 340.905 640.512 338.667 637.75 338.667Z" fill="#E16E42"/>
<path d="M37.8501 338.667H5C2.23858 338.667 0 340.905 0 343.667V376C0 378.761 2.23857 381 4.99999 381H37.85C40.6115 381 42.85 378.761 42.85 376V343.667C42.85 340.905 40.6115 338.667 37.8501 338.667Z" fill="#F7D093"/>
<path d="M809.151 338.667H776.301C773.539 338.667 771.301 340.905 771.301 343.667V376C771.301 378.761 773.539 381 776.301 381H809.151C811.912 381 814.151 378.761 814.151 376V343.667C814.151 340.905 811.912 338.667 809.151 338.667Z" fill="#8F7C29"/>
<path d="M851.998 338.667H819.148C816.387 338.667 814.148 340.905 814.148 343.666V376C814.148 378.761 816.387 381 819.148 381H851.998C854.76 381 856.998 378.761 856.998 376V343.667C856.998 340.905 854.76 338.667 851.998 338.667Z" fill="#917659"/>
<path d="M766.301 338.667H733.451C730.69 338.667 728.451 340.905 728.451 343.666V376C728.451 378.761 730.69 381 733.451 381H766.301C769.063 381 771.301 378.761 771.301 376V343.667C771.301 340.905 769.063 338.667 766.301 338.667Z" fill="#46411E"/>
<path d="M80.6977 338.667H47.8477C45.0862 338.667 42.8477 340.905 42.8477 343.667V376C42.8477 378.761 45.0862 381 47.8477 381H80.6977C83.4591 381 85.6977 378.761 85.6977 376V343.667C85.6977 340.905 83.4591 338.667 80.6977 338.667Z" fill="#6FA3C8"/>
</svg>
