<svg width="800" height="598" viewBox="0 0 800 598" fill="none" xmlns="http://www.w3.org/2000/svg">
<path d="M729.958 265.13H729.646V265.284H729.958V265.13Z" fill="#E8D3E5"/>
<path d="M166.002 9.94727H127.002V48.477H166.002V9.94727Z" fill="#49667E"/>
<path d="M87.9999 9.94727H49V48.477H87.9999V9.94727Z" fill="#182C4F"/>
<path d="M48.9999 9.94727H10V48.477H48.9999V9.94727Z" fill="#234A68"/>
<path d="M282.998 9.94727H243.998V48.477H282.998V9.94727Z" fill="#5F7897"/>
<path d="M322 9.94727H283V48.477H322V9.94727Z" fill="#9CADD3"/>
<path d="M361 9.94727H322V48.477H361V9.94727Z" fill="#5F7895"/>
<path d="M244 9.94727H205V48.477H244V9.94727Z" fill="#B5C7E4"/>
<path d="M205 9.94727H166V48.477H205V9.94727Z" fill="#081528"/>
<path d="M126.996 9.94727H87.9961V48.477H126.996V9.94727Z" fill="#B0C1E1"/>
<path d="M399.998 9.94727H360.998V48.477H399.998V9.94727Z" fill="#787571"/>
<path d="M750.998 9.94727H711.998V48.477H750.998V9.94727Z" fill="#8594B1"/>
<path d="M711.998 9.94727H672.998V48.477H711.998V9.94727Z" fill="#7A7776"/>
<path d="M556 9.94727H517V48.477H556V9.94727Z" fill="#8F8D8C"/>
<path d="M477.998 9.94727H438.998V48.477H477.998V9.94727Z" fill="#A9A5A6"/>
<path d="M439 9.94727H400V48.477H439V9.94727Z" fill="#B71C27"/>
<path d="M516.998 9.94727H477.998V48.477H516.998V9.94727Z" fill="#DCE7F3"/>
<path d="M595 9.94727H556V48.477H595V9.94727Z" fill="#B2AEAE"/>
<path d="M673 9.94727H634V48.477H673V9.94727Z" fill="#AC5D96"/>
<path d="M634 9.94727H595V48.477H634V9.94727Z" fill="#393130"/>
<path d="M790 9.94727H751V48.477H790V9.94727Z" fill="#29395A"/>
<path d="M48.9999 48.4766H10V87.0063H48.9999V48.4766Z" fill="#A2ADD3"/>
<path d="M750.998 48.4766H711.998V87.0063H750.998V48.4766Z" fill="#6580A8"/>
<path d="M790 48.4766H751V87.0063H790V48.4766Z" fill="#261C1A"/>
<path d="M711.998 48.4766H672.998V87.0063H711.998V48.4766Z" fill="#D8D3CA"/>
<path d="M673 48.4766H634V87.0063H673V48.4766Z" fill="#838DC0"/>
<path d="M634 48.4766H595V87.0063H634V48.4766Z" fill="#497DB0"/>
<path d="M361 48.4766H322V87.0063H361V48.4766Z" fill="#EBE8E9"/>
<path d="M439 48.4766H400V87.0063H439V48.4766Z" fill="#B2ADAE"/>
<path d="M399.998 48.4766H360.998V87.0063H399.998V48.4766Z" fill="#83203E"/>
<path d="M322 48.4766H283V87.0063H322V48.4766Z" fill="#BDC2DF"/>
<path d="M477.998 48.4766H438.998V87.0063H477.998V48.4766Z" fill="#A09A9A"/>
<path d="M556 48.4766H517V87.0063H556V48.4766Z" fill="#E0E8F6"/>
<path d="M516.998 48.4766H477.998V87.0063H516.998V48.4766Z" fill="#5B79B2"/>
<path d="M595 48.4766H556V87.0063H595V48.4766Z" fill="#2E2B4E"/>
<path d="M282.998 48.4766H243.998V87.0063H282.998V48.4766Z" fill="#5B7095"/>
<path d="M244 48.4766H205V87.0063H244V48.4766Z" fill="#171522"/>
<path d="M87.9999 48.4766H49V87.0063H87.9999V48.4766Z" fill="#7984AC"/>
<path d="M126.996 48.4766H87.9961V87.0063H126.996V48.4766Z" fill="#A1A5C9"/>
<path d="M205 48.4766H166V87.0063H205V48.4766Z" fill="#AD2974"/>
<path d="M166.002 48.4766H127.002V87.0063H166.002V48.4766Z" fill="#1F2137"/>
<path d="M322 549.364H283V587.894H322V549.364Z" fill="#A2A9C6"/>
<path d="M750.998 549.364H711.998V587.894H750.998V549.364Z" fill="#003539"/>
<path d="M711.998 549.364H672.998V587.894H711.998V549.364Z" fill="#03172C"/>
<path d="M790 549.364H751V587.894H790V549.364Z" fill="#095349"/>
<path d="M673 549.364H634V587.894H673V549.364Z" fill="#7986AE"/>
<path d="M282.998 549.364H243.998V587.894H282.998V549.364Z" fill="#B3B9C4"/>
<path d="M205 549.364H166V587.894H205V549.364Z" fill="#9AA6CB"/>
<path d="M166.002 549.364H127.002V587.894H166.002V549.364Z" fill="#707CA0"/>
<path d="M244 549.364H205V587.894H244V549.364Z" fill="#68758B"/>
<path d="M126.996 549.364H87.9961V587.894H126.996V549.364Z" fill="#040103"/>
<path d="M87.9999 549.364H49V587.894H87.9999V549.364Z" fill="#C2C0C0"/>
<path d="M48.9999 549.364H10V587.894H48.9999V549.364Z" fill="#8C1C21"/>
<path d="M439 549.364H400V587.894H439V549.364Z" fill="#141926"/>
<path d="M477.998 549.364H438.998V587.894H477.998V549.364Z" fill="#7986AE"/>
<path d="M556 549.364H517V587.894H556V549.364Z" fill="#1C4E77"/>
<path d="M516.998 549.364H477.998V587.894H516.998V549.364Z" fill="#933445"/>
<path d="M595 549.364H556V587.894H595V549.364Z" fill="#7F231E"/>
<path d="M634 549.364H595V587.894H634V549.364Z" fill="#0B0608"/>
<path d="M361 549.364H322V587.894H361V549.364Z" fill="#9FB4D8"/>
<path d="M399.998 549.364H360.998V587.894H399.998V549.364Z" fill="#DADFF1"/>
<path d="M166.002 164.124H127.002V202.654H166.002V164.124Z" fill="#AAACCC"/>
<path d="M634 164.124H595V202.654H634V164.124Z" fill="#B7BEB9"/>
<path d="M126.996 164.124H87.9961V202.654H126.996V164.124Z" fill="#DBEAF7"/>
<path d="M673 164.124H634V202.654H673V164.124Z" fill="#8A8491"/>
<path d="M282.998 164.124H243.998V202.654H282.998V164.124Z" fill="#979595"/>
<path d="M322 164.124H283V202.654H322V164.124Z" fill="#676656"/>
<path d="M205 164.124H166V202.654H205V164.124Z" fill="#5F4B5D"/>
<path d="M244 164.124H205V202.654H244V164.124Z" fill="#5D7D95"/>
<path d="M361.006 163.983L322.006 164.098L322.122 202.627L361.121 202.513L361.006 163.983Z" fill="#0C080A"/>
<path d="M516.998 164.124H477.998V202.654H516.998V164.124Z" fill="#B3B7D8"/>
<path d="M399.998 164.124H360.998V202.654H399.998V164.124Z" fill="#B77A96"/>
<path d="M477.998 164.124H438.998V202.654H477.998V164.124Z" fill="#A4A4CD"/>
<path d="M556 164.124H517V202.654H556V164.124Z" fill="#7E89AB"/>
<path d="M439 164.124H400V202.654H439V164.124Z" fill="#89737B"/>
<path d="M595 164.124H556V202.654H595V164.124Z" fill="#671B44"/>
<path d="M48.9999 164.124H10V202.654H48.9999V164.124Z" fill="#97A7BC"/>
<path d="M750.998 164.124H711.998V202.654H750.998V164.124Z" fill="#5A465B"/>
<path d="M790 164.124H751V202.654H790V164.124Z" fill="#090406"/>
<path d="M711.998 164.124H672.998V202.654H711.998V164.124Z" fill="#64545E"/>
<path d="M87.9999 164.124H49V202.654H87.9999V164.124Z" fill="#090405"/>
<path d="M729.96 87.0068H729.648V87.161H729.96V87.0068Z" fill="#E8D3E5"/>
<path d="M126.996 87.0068H87.9961V125.537H126.996V87.0068Z" fill="#8A889D"/>
<path d="M244 87.0068H205V125.537H244V87.0068Z" fill="#1D2C58"/>
<path d="M166.002 87.0068H127.002V125.537H166.002V87.0068Z" fill="#82786A"/>
<path d="M282.998 87.0068H243.998V125.537H282.998V87.0068Z" fill="#868080"/>
<path d="M205 87.0068H166V125.537H205V87.0068Z" fill="#627AB2"/>
<path d="M399.998 87.0068H360.998V125.537H399.998V87.0068Z" fill="#180E0B"/>
<path d="M322 87.0068H283V125.537H322V87.0068Z" fill="#FEFEFF"/>
<path d="M439 87.0068H400V125.537H439V87.0068Z" fill="#3A090F"/>
<path d="M477.998 87.0068H438.998V125.537H477.998V87.0068Z" fill="#E4E7F4"/>
<path d="M361 87.0068H322V125.537H361V87.0068Z" fill="#727C81"/>
<path d="M516.998 87.0068H477.998V125.537H516.998V87.0068Z" fill="#2B6689"/>
<path d="M634 87.0068H595V125.537H634V87.0068Z" fill="#1B284E"/>
<path d="M595 87.0068H556V125.537H595V87.0068Z" fill="#899CCA"/>
<path d="M556 87.0068H517V125.537H556V87.0068Z" fill="#00467D"/>
<path d="M673 87.0068H634V125.537H673V87.0068Z" fill="#DEEAF6"/>
<path d="M48.9999 87.0068H10V125.537H48.9999V87.0068Z" fill="#5D7786"/>
<path d="M750.998 87.0068H711.998V125.537H750.998V87.0068Z" fill="#6C7CB3"/>
<path d="M790 87.0068H751V125.537H790V87.0068Z" fill="#182447"/>
<path d="M711.998 87.0068H672.998V125.537H711.998V87.0068Z" fill="#C87498"/>
<path d="M87.9999 87.0068H49V125.537H87.9999V87.0068Z" fill="#7D7240"/>
<path d="M244 125.537H205V164.066H244V125.537Z" fill="#6C686A"/>
<path d="M166.002 125.537H127.002V164.066H166.002V125.537Z" fill="#06397D"/>
<path d="M205 125.537H166V164.066H205V125.537Z" fill="#090405"/>
<path d="M634 125.537H595V164.066H634V125.537Z" fill="#3C5B96"/>
<path d="M361 125.537H322V164.066H361V125.537Z" fill="#828889"/>
<path d="M399.998 125.537H360.998V164.066H399.998V125.537Z" fill="#E2CCB1"/>
<path d="M595 125.537H556V164.066H595V125.537Z" fill="#A9B2D7"/>
<path d="M282.998 125.537H243.998V164.066H282.998V125.537Z" fill="#ABA9AA"/>
<path d="M322 125.537H283V164.066H322V125.537Z" fill="#0C0809"/>
<path d="M439 125.537H400V164.066H439V125.537Z" fill="#667473"/>
<path d="M556 125.537H517V164.066H556V125.537Z" fill="#94B1D8"/>
<path d="M516.998 125.537H477.998V164.066H516.998V125.537Z" fill="#F2D5B4"/>
<path d="M477.998 125.537H438.998V164.066H477.998V125.537Z" fill="#7C8DC0"/>
<path d="M126.996 125.537H87.9961V164.066H126.996V125.537Z" fill="#909CCA"/>
<path d="M673 125.537H634V164.066H673V125.537Z" fill="#A6B2D6"/>
<path d="M48.9999 125.537H10V164.066H48.9999V125.537Z" fill="#9DA8D0"/>
<path d="M750.998 125.537H711.998V164.066H750.998V125.537Z" fill="#7A8795"/>
<path d="M790 125.537H751V164.066H790V125.537Z" fill="#C0CEDC"/>
<path d="M711.998 125.537H672.998V164.066H711.998V125.537Z" fill="#B7BACA"/>
<path d="M87.9999 125.537H49V164.066H87.9999V125.537Z" fill="#7180B5"/>
<path d="M166.002 202.596H127.002V241.125H166.002V202.596Z" fill="#859FB3"/>
<path d="M634 202.596H595V241.125H634V202.596Z" fill="#D4D5D5"/>
<path d="M126.996 202.596H87.9961V241.125H126.996V202.596Z" fill="#D6DDEE"/>
<path d="M673 202.596H634V241.125H673V202.596Z" fill="#5D7997"/>
<path d="M556 202.596H517V241.125H556V202.596Z" fill="#907628"/>
<path d="M439 202.596H400V241.125H439V202.596Z" fill="#1D0A0B"/>
<path d="M477.998 202.596H438.998V241.125H477.998V202.596Z" fill="#19294F"/>
<path d="M244 202.596H205V241.125H244V202.596Z" fill="#302C27"/>
<path d="M361 202.596H322V241.125H361V202.596Z" fill="#170B0C"/>
<path d="M399.998 202.596H360.998V241.125H399.998V202.596Z" fill="#99A5CB"/>
<path d="M282.998 202.596H243.998V241.125H282.998V202.596Z" fill="#9E9C99"/>
<path d="M322 202.596H283V241.125H322V202.596Z" fill="#A9BDC6"/>
<path d="M516.998 202.596H477.998V241.125H516.998V202.596Z" fill="#0F0C0C"/>
<path d="M205 202.596H166V241.125H205V202.596Z" fill="#AABAC9"/>
<path d="M595 202.596H556V241.125H595V202.596Z" fill="#421E11"/>
<path d="M48.9999 202.596H10V241.125H48.9999V202.596Z" fill="#788B99"/>
<path d="M750.998 202.596H711.998V241.125H750.998V202.596Z" fill="#EBF6FC"/>
<path d="M790 202.596H751V241.125H790V202.596Z" fill="#D1232A"/>
<path d="M711.998 202.596H672.998V241.125H711.998V202.596Z" fill="#2D6794"/>
<path d="M87.9999 202.596H49V241.125H87.9999V202.596Z" fill="#326868"/>
<path d="M166.002 279.655H127.002V318.185H166.002V279.655Z" fill="#5A6875"/>
<path d="M634 279.655H595V318.185H634V279.655Z" fill="#A7AAC5"/>
<path d="M126.996 279.655H87.9961V318.185H126.996V279.655Z" fill="#8B92AC"/>
<path d="M673 279.655H634V318.185H673V279.655Z" fill="#211A24"/>
<path d="M556 279.655H517V318.185H556V279.655Z" fill="#A9ABCE"/>
<path d="M244 279.655H205V318.185H244V279.655Z" fill="#270D11"/>
<path d="M477.998 279.655H438.998V318.185H477.998V279.655Z" fill="#737E7E"/>
<path d="M516.998 279.655H477.998V318.185H516.998V279.655Z" fill="#113674"/>
<path d="M322 279.655H283V318.185H322V279.655Z" fill="#1B2950"/>
<path d="M361 279.655H322V318.185H361V279.655Z" fill="#2C3878"/>
<path d="M399.998 279.655H360.998V318.185H399.998V279.655Z" fill="#4167A7"/>
<path d="M439 279.655H400V318.185H439V279.655Z" fill="#BAB6B5"/>
<path d="M282.998 279.655H243.998V318.185H282.998V279.655Z" fill="#1D2C5E"/>
<path d="M205 279.655H166V318.185H205V279.655Z" fill="#B1B2D2"/>
<path d="M595 279.655H556V318.185H595V279.655Z" fill="#CBCDE2"/>
<path d="M48.9999 279.655H10V318.185H48.9999V279.655Z" fill="#120C0D"/>
<path d="M750.998 279.655H711.998V318.185H750.998V279.655Z" fill="#412936"/>
<path d="M790 279.655H751V318.185H790V279.655Z" fill="#3F6AA3"/>
<path d="M711.998 279.655H672.998V318.185H711.998V279.655Z" fill="#687BB3"/>
<path d="M87.9999 279.655H49V318.185H87.9999V279.655Z" fill="#706B47"/>
<path d="M166.002 241.126H127.002V279.656H166.002V241.126Z" fill="#948672"/>
<path d="M634 241.126H595V279.656H634V241.126Z" fill="#696A66"/>
<path d="M673 241.126H634V279.656H673V241.126Z" fill="#110E11"/>
<path d="M126.996 241.126H87.9961V279.656H126.996V241.126Z" fill="#C7CDE2"/>
<path d="M244 241.126H205V279.656H244V241.126Z" fill="#B2AFC7"/>
<path d="M556 241.126H517V279.656H556V241.126Z" fill="#100C10"/>
<path d="M439 241.126H400V279.656H439V241.126Z" fill="#020610"/>
<path d="M516.998 241.126H477.998V279.656H516.998V241.126Z" fill="#331A13"/>
<path d="M477.998 241.126H438.998V279.656H477.998V241.126Z" fill="#68672B"/>
<path d="M399.998 241.126H360.998V279.656H399.998V241.126Z" fill="#7F7B5E"/>
<path d="M361 241.126H322V279.656H361V241.126Z" fill="#BCA198"/>
<path d="M282.998 241.126H243.998V279.656H282.998V241.126Z" fill="#9F773A"/>
<path d="M322 241.126H283V279.656H322V241.126Z" fill="#416A8E"/>
<path d="M205 241.126H166V279.656H205V241.126Z" fill="#1B1113"/>
<path d="M595 241.126H556V279.656H595V241.126Z" fill="#161926"/>
<path d="M48.9999 241.126H10V279.656H48.9999V241.126Z" fill="#7F7C74"/>
<path d="M750.998 241.126H711.998V279.656H750.998V241.126Z" fill="#C4C7DD"/>
<path d="M790 241.126H751V279.656H790V241.126Z" fill="#8F8A87"/>
<path d="M711.998 241.126H672.998V279.656H711.998V241.126Z" fill="#DEAD15"/>
<path d="M87.9999 241.126H49V279.656H87.9999V241.126Z" fill="#777458"/>
<path d="M790 472.304H751V510.834H790V472.304Z" fill="#243884"/>
<path d="M126.996 472.304H87.9961V510.834H126.996V472.304Z" fill="#979FBA"/>
<path d="M48.9999 472.304H10V510.834H48.9999V472.304Z" fill="#5573A0"/>
<path d="M322 472.304H283V510.834H322V472.304Z" fill="#36281E"/>
<path d="M399.998 472.304H360.998V510.834H399.998V472.304Z" fill="#4C100C"/>
<path d="M361 472.304H322V510.834H361V472.304Z" fill="#8A8985"/>
<path d="M439 472.304H400V510.834H439V472.304Z" fill="#286589"/>
<path d="M166.002 472.304H127.002V510.834H166.002V472.304Z" fill="#3B4141"/>
<path d="M205 472.304H166V510.834H205V472.304Z" fill="#949A91"/>
<path d="M282.998 472.304H243.998V510.834H282.998V472.304Z" fill="#B2AEAE"/>
<path d="M477.998 472.304H438.998V510.834H477.998V472.304Z" fill="#6C83A2"/>
<path d="M244 472.304H205V510.834H244V472.304Z" fill="#25201F"/>
<path d="M711.998 472.304H672.998V510.834H711.998V472.304Z" fill="#8D9BBD"/>
<path d="M516.998 472.304H477.998V510.834H516.998V472.304Z" fill="#738097"/>
<path d="M673 472.304H634V510.834H673V472.304Z" fill="#6C777B"/>
<path d="M556 472.304H517V510.834H556V472.304Z" fill="#5D6670"/>
<path d="M595 472.304H556V510.834H595V472.304Z" fill="#201712"/>
<path d="M634 472.304H595V510.834H634V472.304Z" fill="#7A5B26"/>
<path d="M750.998 472.304H711.998V510.834H750.998V472.304Z" fill="#806D29"/>
<path d="M87.9999 472.304H49V510.834H87.9999V472.304Z" fill="#2F6CA5"/>
<path d="M166.002 395.245H127.002V433.775H166.002V395.245Z" fill="#575F83"/>
<path d="M595 395.245H556V433.775H595V395.245Z" fill="#013C74"/>
<path d="M634 395.245H595V433.775H634V395.245Z" fill="#B9ACC1"/>
<path d="M126.996 395.245H87.9961V433.775H126.996V395.245Z" fill="#ADCCE9"/>
<path d="M673 395.245H634V433.775H673V395.245Z" fill="#573820"/>
<path d="M556 395.245H517V433.775H556V395.245Z" fill="#004177"/>
<path d="M516.998 395.245H477.998V433.775H516.998V395.245Z" fill="#396A8C"/>
<path d="M399.998 395.245H360.998V433.775H399.998V395.245Z" fill="#6E5D63"/>
<path d="M439 395.245H400V433.775H439V395.245Z" fill="#567895"/>
<path d="M205 395.245H166V433.775H205V395.245Z" fill="#9D5C97"/>
<path d="M477.998 395.245H438.998V433.775H477.998V395.245Z" fill="#100A0A"/>
<path d="M361 395.245H322V433.775H361V395.245Z" fill="#A38076"/>
<path d="M244 395.245H205V433.775H244V395.245Z" fill="#1C2B55"/>
<path d="M322 395.245H283V433.775H322V395.245Z" fill="#938994"/>
<path d="M282.998 395.245H243.998V433.775H282.998V395.245Z" fill="#1F0207"/>
<path d="M48.9999 395.245H10V433.775H48.9999V395.245Z" fill="#0B0607"/>
<path d="M790 395.245H751V433.775H790V395.245Z" fill="#5C7A33"/>
<path d="M711.998 395.245H672.998V433.775H711.998V395.245Z" fill="#D4CEDB"/>
<path d="M750.998 395.245H711.998V433.775H750.998V395.245Z" fill="#A46E23"/>
<path d="M87.9999 395.245H49V433.775H87.9999V395.245Z" fill="#8B939D"/>
<path d="M126.996 433.774H87.9961V472.304H126.996V433.774Z" fill="#8485AB"/>
<path d="M361 433.774H322V472.304H361V433.774Z" fill="#454520"/>
<path d="M322 433.774H283V472.304H322V433.774Z" fill="#213B1E"/>
<path d="M399.998 433.774H360.998V472.304H399.998V433.774Z" fill="#DDE1E4"/>
<path d="M282.998 433.774H243.998V472.304H282.998V433.774Z" fill="#7A7C2D"/>
<path d="M166.002 433.774H127.002V472.304H166.002V433.774Z" fill="#9D1F28"/>
<path d="M205 433.774H166V472.304H205V433.774Z" fill="#001317"/>
<path d="M244 433.774H205V472.304H244V433.774Z" fill="#3C3F48"/>
<path d="M439 433.774H400V472.304H439V433.774Z" fill="#C4A74B"/>
<path d="M477.998 433.774H438.998V472.304H477.998V433.774Z" fill="#293B1D"/>
<path d="M673 433.774H634V472.304H673V433.774Z" fill="#959391"/>
<path d="M634 433.774H595V472.304H634V433.774Z" fill="#8F8E8B"/>
<path d="M556 433.774H517V472.304H556V433.774Z" fill="#6D94B0"/>
<path d="M516.998 433.774H477.998V472.304H516.998V433.774Z" fill="#B9BEC7"/>
<path d="M595 433.774H556V472.304H595V433.774Z" fill="#777C46"/>
<path d="M48.9999 433.774H10V472.304H48.9999V433.774Z" fill="#6C7A68"/>
<path d="M790 433.774H751V472.304H790V433.774Z" fill="#4B4745"/>
<path d="M711.998 433.774H672.998V472.304H711.998V433.774Z" fill="#81827E"/>
<path d="M750.998 434.063H711.998V472.593H750.998V434.063Z" fill="#130F10"/>
<path d="M87.9999 433.774H49V472.304H87.9999V433.774Z" fill="#152041"/>
<path d="M166.002 356.715H127.002V395.245H166.002V356.715Z" fill="#4A210F"/>
<path d="M634 356.715H595V395.245H634V356.715Z" fill="#9E94B7"/>
<path d="M126.996 356.715H87.9961V395.245H126.996V356.715Z" fill="#231F25"/>
<path d="M673 356.715H634V395.245H673V356.715Z" fill="#83A4B7"/>
<path d="M244 356.715H205V395.245H244V356.715Z" fill="#EEF6EE"/>
<path d="M205 356.715H166V395.245H205V356.715Z" fill="#1C0E0A"/>
<path d="M439 356.715H400V395.245H439V356.715Z" fill="#C9D2CD"/>
<path d="M477.998 356.715H438.998V395.245H477.998V356.715Z" fill="#856026"/>
<path d="M595 356.715H556V395.245H595V356.715Z" fill="#225F95"/>
<path d="M556 356.715H517V395.245H556V356.715Z" fill="#B47F1D"/>
<path d="M399.998 356.715H360.998V395.245H399.998V356.715Z" fill="#0B598B"/>
<path d="M322 356.715H283V395.245H322V356.715Z" fill="#120308"/>
<path d="M361 356.715H322V395.245H361V356.715Z" fill="#B1731F"/>
<path d="M282.998 356.715H243.998V395.245H282.998V356.715Z" fill="#CA3079"/>
<path d="M516.998 356.715H477.998V395.245H516.998V356.715Z" fill="#6382B4"/>
<path d="M48.9999 356.715H10V395.245H48.9999V356.715Z" fill="#6D7686"/>
<path d="M790 356.715H751V395.245H790V356.715Z" fill="#003C7C"/>
<path d="M750.998 356.715H711.998V395.245H750.998V356.715Z" fill="#256692"/>
<path d="M711.998 356.715H672.998V395.245H711.998V356.715Z" fill="white"/>
<path d="M87.9999 356.715H49V395.245H87.9999V356.715Z" fill="#002C37"/>
<path d="M790 510.834H751V549.364H790V510.834Z" fill="#DEE3F2"/>
<path d="M48.9999 510.834H10V549.364H48.9999V510.834Z" fill="#083C86"/>
<path d="M361 510.834H322V549.364H361V510.834Z" fill="#0E0C0C"/>
<path d="M399.998 510.834H360.998V549.364H399.998V510.834Z" fill="#797D7A"/>
<path d="M477.998 510.834H438.998V549.363H477.998V510.834Z" fill="#9CADD4"/>
<path d="M322 510.834H283V549.364H322V510.834Z" fill="white"/>
<path d="M166.002 510.834H127.002V549.364H166.002V510.834Z" fill="#2662A6"/>
<path d="M516.998 510.834H477.998V549.364H516.998V510.834Z" fill="#C4C6BB"/>
<path d="M205 510.834H166V549.364H205V510.834Z" fill="#8A8986"/>
<path d="M282.998 510.834H243.998V549.363H282.998V510.834Z" fill="#9A9696"/>
<path d="M244 510.834H205V549.363H244V510.834Z" fill="#100D0D"/>
<path d="M711.998 510.834H672.998V549.364H711.998V510.834Z" fill="#8A95A9"/>
<path d="M750.998 510.834H711.998V549.364H750.998V510.834Z" fill="#AF7CAD"/>
<path d="M556 510.834H517V549.364H556V510.834Z" fill="#E7E3F1"/>
<path d="M673 510.834H634V549.364H673V510.834Z" fill="#898D92"/>
<path d="M595 510.834H556V549.364H595V510.834Z" fill="#6C1317"/>
<path d="M634 510.834H595V549.363H634V510.834Z" fill="#99A9D1"/>
<path d="M439 510.834H400V549.363H439V510.834Z" fill="#8A8F97"/>
<path d="M87.9999 510.834H49V549.364H87.9999V510.834Z" fill="#8D722D"/>
<path d="M126.996 510.834H87.9961V549.364H126.996V510.834Z" fill="#64798B"/>
<path d="M634 318.185H595V356.715H634V318.185Z" fill="#83203E"/>
<path d="M126.996 318.185H87.9961V356.715H126.996V318.185Z" fill="#8CA7C3"/>
<path d="M673 318.185H634V356.715H673V318.185Z" fill="#161C36"/>
<path d="M166.002 318.185H127.002V356.715H166.002V318.185Z" fill="#C9C7E2"/>
<path d="M439 318.185H400V356.715H439V318.185Z" fill="#897835"/>
<path d="M477.998 318.185H438.998V356.715H477.998V318.185Z" fill="#182548"/>
<path d="M516.998 318.185H477.998V356.715H516.998V318.185Z" fill="#8A748B"/>
<path d="M556 318.185H517V356.715H556V318.185Z" fill="#0F365E"/>
<path d="M244 318.185H205V356.715H244V318.185Z" fill="#C2D0D2"/>
<path d="M322 318.185H283V356.715H322V318.185Z" fill="#A4AFD5"/>
<path d="M282.998 318.185H243.998V356.715H282.998V318.185Z" fill="#28121D"/>
<path d="M399.998 318.185H360.998V356.715H399.998V318.185Z" fill="#688DAF"/>
<path d="M361 318.185H322V356.715H361V318.185Z" fill="#68452E"/>
<path d="M205 318.185H166V356.715H205V318.185Z" fill="#707D86"/>
<path d="M595 318.185H556V356.715H595V318.185Z" fill="#344E66"/>
<path d="M48.9999 318.185H10V356.715H48.9999V318.185Z" fill="#6D331B"/>
<path d="M750.998 318.185H711.998V356.715H750.998V318.185Z" fill="#0D0C0C"/>
<path d="M790 318.185H751V356.715H790V318.185Z" fill="#8990AC"/>
<path d="M711.998 318.185H672.998V356.715H711.998V318.185Z" fill="#AAACC8"/>
<path d="M87.9999 318.185H49V356.715H87.9999V318.185Z" fill="#E6E8F5"/>
<rect x="10" y="10" width="780" height="578" stroke="#5EE3D4" stroke-width="20"/>
</svg>
