<svg width="332" height="450" viewBox="0 0 332 450" fill="none" xmlns="http://www.w3.org/2000/svg">
<rect x="3" y="3" width="326" height="444" rx="50" fill="white" fill-opacity="0.5" stroke="#8D8D8D" stroke-width="5"/>
<rect x="132" y="35" width="60" height="60" rx="15" fill="#D4BF45"/>
<rect x="192" y="35" width="60" height="60" rx="15" fill="#5786A8"/>
<rect x="252" y="35" width="60" height="60" rx="15" fill="#BCB0C2"/>
<rect x="32" y="116" width="60" height="60" rx="15" fill="#EC7E01"/>
<rect x="92" y="116" width="60" height="60" rx="15" fill="#E4CB3D"/>
<rect x="152" y="116" width="60" height="60" rx="15" fill="#059EAB"/>
<rect x="132" y="197" width="60" height="60" rx="15" fill="#D5697F"/>
<rect x="192" y="197" width="60" height="60" rx="15" fill="#BBA172"/>
<rect x="252" y="197" width="60" height="60" rx="15" fill="#4FA048"/>
<rect x="72" y="278" width="60" height="60" rx="15" fill="#CC2E18"/>
<rect x="132" y="278" width="60" height="60" rx="15" fill="#ECC8CF"/>
<rect x="192" y="278" width="60" height="60" rx="15" fill="#0075AB"/>
<rect x="22" y="359" width="60" height="60" rx="15" fill="#D5697F"/>
<rect x="82" y="359" width="60" height="60" rx="15" fill="#EE9C1F"/>
<rect x="142" y="359" width="60" height="60" rx="15" fill="#106A99"/>
</svg>
