<svg width="612" height="593" viewBox="0 0 612 593" fill="none" xmlns="http://www.w3.org/2000/svg">
<path d="M376.622 3H559C586.614 3 609 25.3857 609 53V540C609 567.614 586.614 590 559 590H52.5C24.8858 590 2.5 567.614 2.5 540V510.529C2.5 482.915 24.8858 460.529 52.5 460.529H81.9502C109.564 460.529 131.95 438.143 131.95 410.529V147C131.95 119.386 154.336 97 181.95 97H282.622C308.579 97 329.622 75.9574 329.622 50C329.622 24.0426 350.664 3 376.622 3Z" fill="white" fill-opacity="0.5" stroke="#8D8D8D" stroke-width="5"/>
<rect x="399" y="54" width="60" height="60" rx="15" fill="#4F2311"/>
<rect x="459" y="54" width="60" height="60" rx="15" fill="#A0C3D1"/>
<rect x="519" y="54" width="60" height="60" rx="15" fill="#08306C"/>
<rect x="331" y="133" width="60" height="60" rx="15" fill="#003C41"/>
<rect x="391" y="133" width="60" height="60" rx="15" fill="#A9BDCE"/>
<rect x="451" y="133" width="60" height="60" rx="15" fill="#0A1836"/>
<rect x="415" y="234" width="60" height="60" rx="15" fill="#1F5A72"/>
<rect x="475" y="234" width="60" height="60" rx="15" fill="#A0C3D1"/>
<rect x="535" y="234" width="60" height="60" rx="15" fill="#000B2B"/>
<rect x="170" y="234" width="60" height="60" rx="15" fill="#214156"/>
<rect x="230" y="234" width="60" height="60" rx="15" fill="#E5E3E3"/>
<rect x="290" y="234" width="60" height="60" rx="15" fill="#0C508C"/>
<rect x="331" y="340" width="60" height="60" rx="15" fill="#2D6285"/>
<rect x="391" y="340" width="60" height="60" rx="15" fill="#BFC3A3"/>
<rect x="451" y="340" width="60" height="60" rx="15" fill="#0A1836"/>
<rect x="193" y="415" width="60" height="60" rx="15" fill="#00303A"/>
<rect x="253" y="415" width="60" height="60" rx="15" fill="#657792"/>
<rect x="313" y="415" width="60" height="60" rx="15" fill="#08306C"/>
<rect x="74" y="503" width="60" height="60" rx="15" fill="#7E1E11"/>
<rect x="134" y="503" width="60" height="60" rx="15" fill="#657792"/>
<rect x="194" y="503" width="60" height="60" rx="15" fill="#443567"/>
</svg>
