<svg width="800" height="598" viewBox="0 0 800 598" fill="none" xmlns="http://www.w3.org/2000/svg">
<path d="M166 10H127V48.5298H166V10Z" fill="#5A6E4E"/>
<path d="M87.9982 10H48.998V48.5298H87.9982V10Z" fill="#DAD860"/>
<path d="M49.0001 10H10V48.5298H49.0001V10Z" fill="#D94913"/>
<path d="M283 10H244V48.5298H283V10Z" fill="#E5E0E5"/>
<path d="M322 10H283V48.5298H322V10Z" fill="#003C86"/>
<path d="M361.002 10H322.002V48.5298H361.002V10Z" fill="#F2E3DA"/>
<path d="M244 10H205V48.5298H244V10Z" fill="#F5B84B"/>
<path d="M205 10H166V48.5298H205V10Z" fill="#F4DF25"/>
<path d="M127 10H88V48.5298H127V10Z" fill="#F5BF1B"/>
<path d="M400 10H361V48.5298H400V10Z" fill="#F9DD91"/>
<path d="M751.002 10H712.002V48.5298H751.002V10Z" fill="#D5D555"/>
<path d="M712.002 10H673.002V48.5298H712.002V10Z" fill="#AFC44E"/>
<path d="M556.004 10H517.004V48.5298H556.004V10Z" fill="#BD7DA4"/>
<path d="M477.998 10H438.998V48.5298H477.998V10Z" fill="#E2CCE1"/>
<path d="M439.002 10H400.002V48.5298H439.002V10Z" fill="#5488C0"/>
<path d="M516.998 10H477.998V48.5298H516.998V10Z" fill="#A99765"/>
<path d="M595.002 10H556.002V48.5298H595.002V10Z" fill="#CC3A1B"/>
<path d="M673.002 10H634.002V48.5298H673.002V10Z" fill="#5FA352"/>
<path d="M634.002 10H595.002V48.5298H634.002V10Z" fill="#B89187"/>
<path d="M790 10H751V48.5298H790V10Z" fill="#538F36"/>
<path d="M49.0001 48.5298H10V87.0596H49.0001V48.5298Z" fill="#C6DABC"/>
<path d="M751.002 48.5298H712.002V87.0596H751.002V48.5298Z" fill="#FADCAF"/>
<path d="M790 48.5298H751V87.0596H790V48.5298Z" fill="#D54F1F"/>
<path d="M712.002 48.5298H673.002V87.0596H712.002V48.5298Z" fill="#EA9D80"/>
<path d="M673.002 48.5298H634.002V87.0596H673.002V48.5298Z" fill="#F5BA1A"/>
<path d="M634.002 48.5298H595.002V87.0596H634.002V48.5298Z" fill="#D2B69E"/>
<path d="M361.002 48.5298H322.002V87.0596H361.002V48.5298Z" fill="#B8C391"/>
<path d="M439.002 48.5298H400.002V87.0596H439.002V48.5298Z" fill="#A36423"/>
<path d="M400 48.5298H361V87.0596H400V48.5298Z" fill="#C0BC7A"/>
<path d="M322 48.5298H283V87.0596H322V48.5298Z" fill="#CB387E"/>
<path d="M477.998 48.5298H438.998V87.0596H477.998V48.5298Z" fill="#B2B1BD"/>
<path d="M556.004 48.5298H517.004V87.0596H556.004V48.5298Z" fill="#AC848F"/>
<path d="M516.998 48.5298H477.998V87.0596H516.998V48.5298Z" fill="#BDC1CC"/>
<path d="M595.002 48.5298H556.002V87.0596H595.002V48.5298Z" fill="#E3C5AD"/>
<path d="M283 48.5298H244V87.0596H283V48.5298Z" fill="#D3BEB8"/>
<path d="M244 48.5298H205V87.0596H244V48.5298Z" fill="#3B9638"/>
<path d="M87.9982 48.5298H48.998V87.0596H87.9982V48.5298Z" fill="#E9EEF0"/>
<path d="M127 48.5298H88V87.0596H127V48.5298Z" fill="#4C5497"/>
<path d="M205 48.5298H166V87.0596H205V48.5298Z" fill="#AE9E19"/>
<path d="M166 48.5298H127V87.0596H166V48.5298Z" fill="#E3898E"/>
<path d="M322 549.417H283V587.947H322V549.417Z" fill="#B81647"/>
<path d="M751.002 549.417H712.002V587.947H751.002V549.417Z" fill="#F0CB1F"/>
<path d="M712.002 549.417H673.002V587.947H712.002V549.417Z" fill="#C49D10"/>
<path d="M790 549.417H751V587.947H790V549.417Z" fill="#EBB718"/>
<path d="M673.002 549.417H634.002V587.947H673.002V549.417Z" fill="#D8B5B3"/>
<path d="M283 549.417H244V587.947H283V549.417Z" fill="#B6AD73"/>
<path d="M205 549.417H166V587.947H205V549.417Z" fill="#E6BD50"/>
<path d="M166 549.417H127V587.947H166V549.417Z" fill="#709E2F"/>
<path d="M244 549.417H205V587.947H244V549.417Z" fill="#8CC1E4"/>
<path d="M127 549.417H88V587.947H127V549.417Z" fill="#CED146"/>
<path d="M87.9982 549.417H48.998V587.947H87.9982V549.417Z" fill="#BB1B21"/>
<path d="M49.0001 549.417H10V587.947H49.0001V549.417Z" fill="#F5DA90"/>
<path d="M439.002 549.417H400.002V587.947H439.002V549.417Z" fill="#9A6132"/>
<path d="M477.998 549.417H438.998V587.947H477.998V549.417Z" fill="#7DB8DB"/>
<path d="M556.004 549.417H517.004V587.947H556.004V549.417Z" fill="#706028"/>
<path d="M516.998 549.417H477.998V587.947H516.998V549.417Z" fill="#9EABD2"/>
<path d="M595.002 549.417H556.002V587.947H595.002V549.417Z" fill="#294523"/>
<path d="M634.002 549.417H595.002V587.947H634.002V549.417Z" fill="#EFAA6A"/>
<path d="M361.002 549.417H322.002V587.947H361.002V549.417Z" fill="#E9A767"/>
<path d="M400 549.417H361V587.947H400V549.417Z" fill="#D29556"/>
<path d="M166 164.12H127V202.649H166V164.12Z" fill="#FBF2C8"/>
<path d="M634.002 164.12H595.002V202.649H634.002V164.12Z" fill="#CAAD93"/>
<path d="M127 164.12H88V202.649H127V164.12Z" fill="#435B2C"/>
<path d="M673.002 164.12H634.002V202.649H673.002V164.12Z" fill="#DFD420"/>
<path d="M283 164.12H244V202.649H283V164.12Z" fill="#EAEDC3"/>
<path d="M322 164.12H283V202.649H322V164.12Z" fill="#801C72"/>
<path d="M205 164.12H166V202.649H205V164.12Z" fill="#C0CB46"/>
<path d="M244 164.12H205V202.649H244V164.12Z" fill="#D01A21"/>
<path d="M361.002 164.12H322.002V202.649H361.002V164.12Z" fill="#C8136B"/>
<path d="M516.998 164.12H477.998V202.649H516.998V164.12Z" fill="#C8DAE9"/>
<path d="M400 164.12H361V202.649H400V164.12Z" fill="#AD9623"/>
<path d="M477.998 164.12H438.998V202.649H477.998V164.12Z" fill="#E299BB"/>
<path d="M556.004 164.12H517.004V202.649H556.004V164.12Z" fill="#E3784D"/>
<path d="M439.002 164.12H400.002V202.649H439.002V164.12Z" fill="#A9657E"/>
<path d="M595.002 164.12H556.002V202.649H595.002V164.12Z" fill="#815255"/>
<path d="M49.0001 164.12H10V202.649H49.0001V164.12Z" fill="#C03978"/>
<path d="M751.002 164.12H712.002V202.649H751.002V164.12Z" fill="#C77495"/>
<path d="M790 164.12H751V202.649H790V164.12Z" fill="#CEABAA"/>
<path d="M712.002 164.12H673.002V202.649H712.002V164.12Z" fill="#E0A8A5"/>
<path d="M87.9982 164.12H48.998V202.649H87.9982V164.12Z" fill="#F5BA1A"/>
<path d="M127 87.0596H88V125.589H127V87.0596Z" fill="#85736A"/>
<path d="M244 87.0596H205V125.589H244V87.0596Z" fill="#D39B12"/>
<path d="M166 87.0596H127V125.589H166V87.0596Z" fill="#D2CE1D"/>
<path d="M283 87.0596H244V125.589H283V87.0596Z" fill="#DBB7D3"/>
<path d="M205 87.0596H166V125.589H205V87.0596Z" fill="#D1ABC0"/>
<path d="M400 87.0596H361V125.589H400V87.0596Z" fill="#BBD082"/>
<path d="M322 87.0596H283V125.589H322V87.0596Z" fill="#C9D163"/>
<path d="M439.002 87.0596H400.002V125.589H439.002V87.0596Z" fill="#7B4771"/>
<path d="M477.998 87.0596H438.998V125.589H477.998V87.0596Z" fill="#A16A8A"/>
<path d="M361.002 87.0596H322.002V125.589H361.002V87.0596Z" fill="#F4DF25"/>
<path d="M516.998 87.0596H477.998V125.589H516.998V87.0596Z" fill="#C2D6E8"/>
<path d="M634.002 87.0596H595.002V125.589H634.002V87.0596Z" fill="#896479"/>
<path d="M595.002 87.0596H556.002V125.589H595.002V87.0596Z" fill="#AB8873"/>
<path d="M556.004 87.0596H517.004V125.589H556.004V87.0596Z" fill="#C8A09E"/>
<path d="M673.002 87.0596H634.002V125.589H673.002V87.0596Z" fill="#BE845D"/>
<path d="M49.0001 87.0596H10V125.589H49.0001V87.0596Z" fill="#F4C31D"/>
<path d="M751.002 87.0596H712.002V125.589H751.002V87.0596Z" fill="#CD8F75"/>
<path d="M790 87.0596H751V125.589H790V87.0596Z" fill="#FADCAF"/>
<path d="M712.002 87.0596H673.002V125.589H712.002V87.0596Z" fill="#E99776"/>
<path d="M87.9982 87.0596H48.998V125.589H87.9982V87.0596Z" fill="#EDDADF"/>
<path d="M244 125.589H205V164.119H244V125.589Z" fill="#DA7EA8"/>
<path d="M166 125.589H127V164.119H166V125.589Z" fill="#E0B9D5"/>
<path d="M205 125.589H166V164.119H205V125.589Z" fill="#D97299"/>
<path d="M634.002 125.589H595.002V164.119H634.002V125.589Z" fill="#AAC9E7"/>
<path d="M361.002 125.589H322.002V164.119H361.002V125.589Z" fill="#F4CD1E"/>
<path d="M400 125.589H361V164.119H400V125.589Z" fill="#5E93C6"/>
<path d="M595.002 125.589H556.002V164.119H595.002V125.589Z" fill="#CAA8BA"/>
<path d="M283 125.589H244V164.119H283V125.589Z" fill="#E3D6E7"/>
<path d="M322 125.589H283V164.119H322V125.589Z" fill="#ECF1E4"/>
<path d="M439.002 125.589H400.002V164.119H439.002V125.589Z" fill="#BFC1D5"/>
<path d="M556.004 125.589H517.004V164.119H556.004V125.589Z" fill="#A3817B"/>
<path d="M516.998 125.589H477.998V164.119H516.998V125.589Z" fill="#5B8F54"/>
<path d="M477.998 125.589H438.998V164.119H477.998V125.589Z" fill="#BFB2BC"/>
<path d="M127 125.589H88V164.119H127V125.589Z" fill="#5B9434"/>
<path d="M673.002 125.589H634.002V164.119H673.002V125.589Z" fill="#98939F"/>
<path d="M49.0001 125.589H10V164.119H49.0001V125.589Z" fill="#D7D651"/>
<path d="M751.002 125.589H712.002V164.119H751.002V125.589Z" fill="#F2B18E"/>
<path d="M790 125.589H751V164.119H790V125.589Z" fill="#F0AE86"/>
<path d="M712.002 125.589H673.002V164.119H712.002V125.589Z" fill="#F4C89D"/>
<path d="M87.9982 125.589H48.998V164.119H87.9982V125.589Z" fill="#E88751"/>
<path d="M166 202.649H127V241.179H166V202.649Z" fill="#E9E5B9"/>
<path d="M634.002 202.649H595.002V241.179H634.002V202.649Z" fill="#F3D480"/>
<path d="M127 202.649H88V241.179H127V202.649Z" fill="#AFDBED"/>
<path d="M673.002 202.649H634.002V241.179H673.002V202.649Z" fill="#F09615"/>
<path d="M556.004 202.649H517.004V241.179H556.004V202.649Z" fill="#A1A31F"/>
<path d="M439.002 202.649H400.002V241.179H439.002V202.649Z" fill="#B7115A"/>
<path d="M477.998 202.649H438.998V241.179H477.998V202.649Z" fill="#D8D332"/>
<path d="M244 202.649H205V241.179H244V202.649Z" fill="#F7DD9F"/>
<path d="M361.002 202.649H322.002V241.179H361.002V202.649Z" fill="#EFC562"/>
<path d="M400 202.649H361V241.179H400V202.649Z" fill="#CD756A"/>
<path d="M283 202.649H244V241.179H283V202.649Z" fill="#BA8740"/>
<path d="M322 202.649H283V241.179H322V202.649Z" fill="#C47A44"/>
<path d="M516.998 202.649H477.998V241.179H516.998V202.649Z" fill="#A07979"/>
<path d="M205 202.649H166V241.179H205V202.649Z" fill="#ADA48F"/>
<path d="M595.002 202.649H556.002V241.179H595.002V202.649Z" fill="#F1B67F"/>
<path d="M49.0001 202.649H10V241.179H49.0001V202.649Z" fill="#C98BAD"/>
<path d="M751.002 202.649H712.002V241.179H751.002V202.649Z" fill="#E8D3E5"/>
<path d="M790 202.649H751V241.179H790V202.649Z" fill="#CAE4D8"/>
<path d="M712.002 202.649H673.002V241.179H712.002V202.649Z" fill="#BB9C9E"/>
<path d="M87.9982 202.649H48.998V241.179H87.9982V202.649Z" fill="#F6CEAF"/>
<path d="M166 279.708H127V318.238H166V279.708Z" fill="#C4B345"/>
<path d="M634.002 279.708H595.002V318.238H634.002V279.708Z" fill="#CE876B"/>
<path d="M127 279.708H88V318.238H127V279.708Z" fill="#89B22E"/>
<path d="M673.002 279.708H634.002V318.238H673.002V279.708Z" fill="#E0ABC9"/>
<path d="M556.004 279.708H517.004V318.238H556.004V279.708Z" fill="#81852C"/>
<path d="M244 279.708H205V318.238H244V279.708Z" fill="#C8C7D0"/>
<path d="M477.998 279.708H438.998V318.238H477.998V279.708Z" fill="#E6AD20"/>
<path d="M516.998 279.708H477.998V318.238H516.998V279.708Z" fill="#CDC320"/>
<path d="M322 279.708H283V318.238H322V279.708Z" fill="#AD2224"/>
<path d="M361.002 279.708H322.002V318.238H361.002V279.708Z" fill="#F0C95A"/>
<path d="M400 279.708H361V318.238H400V279.708Z" fill="#F4DD79"/>
<path d="M439.002 279.708H400.002V318.238H439.002V279.708Z" fill="#B53F76"/>
<path d="M283 279.708H244V318.238H283V279.708Z" fill="#CFAA77"/>
<path d="M205 279.708H166V318.238H205V279.708Z" fill="#BFB2BC"/>
<path d="M595.002 279.708H556.002V318.238H595.002V279.708Z" fill="#F2B781"/>
<path d="M49.0001 279.708H10V318.238H49.0001V279.708Z" fill="#D699BD"/>
<path d="M751.002 279.708H712.002V318.238H751.002V279.708Z" fill="#A66AA0"/>
<path d="M790 279.708H751V318.238H790V279.708Z" fill="#864985"/>
<path d="M712.002 279.708H673.002V318.238H712.002V279.708Z" fill="#AF79AA"/>
<path d="M87.9982 279.708H48.998V318.238H87.9982V279.708Z" fill="#DDD53D"/>
<path d="M166 241.179H127V279.709H166V241.179Z" fill="#EDB717"/>
<path d="M634.002 241.179H595.002V279.709H634.002V241.179Z" fill="#E0AEAB"/>
<path d="M673.002 241.179H634.002V279.709H673.002V241.179Z" fill="#B9D7B5"/>
<path d="M127 241.179H88V279.709H127V241.179Z" fill="#E9D2C9"/>
<path d="M244 241.179H205V279.709H244V241.179Z" fill="#B96087"/>
<path d="M556.004 241.179H517.004V279.709H556.004V241.179Z" fill="#B0B51B"/>
<path d="M439.002 241.179H400.002V279.709H439.002V241.179Z" fill="#B4732E"/>
<path d="M516.998 241.179H477.998V279.709H516.998V241.179Z" fill="#2A7E3A"/>
<path d="M477.998 241.179H438.998V279.709H477.998V241.179Z" fill="#ABAE1B"/>
<path d="M400 241.179H361V279.709H400V241.179Z" fill="#83317D"/>
<path d="M361.002 241.179H322.002V279.709H361.002V241.179Z" fill="#E59653"/>
<path d="M283 241.179H244V279.709H283V241.179Z" fill="#DDBB8C"/>
<path d="M322 241.179H283V279.709H322V241.179Z" fill="#EED34C"/>
<path d="M205 241.179H166V279.709H205V241.179Z" fill="#FADDAA"/>
<path d="M595.002 241.179H556.002V279.709H595.002V241.179Z" fill="#F1CC87"/>
<path d="M49.0001 241.179H10V279.709H49.0001V241.179Z" fill="#EDCADD"/>
<path d="M751.002 241.179H712.002V279.709H751.002V241.179Z" fill="#DBB4D1"/>
<path d="M790 241.179H751V279.709H790V241.179Z" fill="#DC99BA"/>
<path d="M712.002 241.179H673.002V279.709H712.002V241.179Z" fill="#731F74"/>
<path d="M87.9982 241.179H48.998V279.709H87.9982V241.179Z" fill="#C4BB20"/>
<path d="M790 472.358H751V510.888H790V472.358Z" fill="#BE5853"/>
<path d="M127 472.358H88V510.888H127V472.358Z" fill="#74A92D"/>
<path d="M49.0001 472.358H10V510.888H49.0001V472.358Z" fill="#F3BD89"/>
<path d="M322 472.358H283V510.888H322V472.358Z" fill="#E0ABC9"/>
<path d="M400 472.358H361V510.888H400V472.358Z" fill="#CC6FA0"/>
<path d="M361.002 472.358H322.002V510.888H361.002V472.358Z" fill="#F2C07F"/>
<path d="M439.002 472.358H400.002V510.888H439.002V472.358Z" fill="#9E4426"/>
<path d="M166 472.358H127V510.888H166V472.358Z" fill="#B46283"/>
<path d="M205 472.358H166V510.888H205V472.358Z" fill="#94C5E7"/>
<path d="M283 472.358H244V510.888H283V472.358Z" fill="#DA6C82"/>
<path d="M477.998 472.358H438.998V510.888H477.998V472.358Z" fill="#6C9931"/>
<path d="M244 472.358H205V510.888H244V472.358Z" fill="#FCEBBB"/>
<path d="M712.002 472.358H673.002V510.888H712.002V472.358Z" fill="#528938"/>
<path d="M516.998 472.358H477.998V510.888H516.998V472.358Z" fill="#74A42E"/>
<path d="M673.002 472.358H634.002V510.888H673.002V472.358Z" fill="#D0C0D9"/>
<path d="M556.004 472.358H517.004V510.888H556.004V472.358Z" fill="#7A8A2E"/>
<path d="M595.002 472.358H556.002V510.888H595.002V472.358Z" fill="#CEBC33"/>
<path d="M634.002 472.358H595.002V510.888H634.002V472.358Z" fill="#C28E7F"/>
<path d="M751.002 472.358H712.002V510.888H751.002V472.358Z" fill="#848E7F"/>
<path d="M87.9982 472.358H48.998V510.888H87.9982V472.358Z" fill="#89A03A"/>
<path d="M166 395.298H127V433.828H166V395.298Z" fill="#96B947"/>
<path d="M595.002 395.298H556.002V433.828H595.002V395.298Z" fill="#F6DE97"/>
<path d="M634.002 395.298H595.002V433.828H634.002V395.298Z" fill="#BB867A"/>
<path d="M127 395.298H88V433.828H127V395.298Z" fill="#8B4388"/>
<path d="M673.002 395.298H634.002V433.828H673.002V395.298Z" fill="#B4C6E4"/>
<path d="M556.004 395.298H517.004V433.828H556.004V395.298Z" fill="#B0911B"/>
<path d="M516.998 395.298H477.998V433.828H516.998V395.298Z" fill="#BA9680"/>
<path d="M400 395.298H361V433.828H400V395.298Z" fill="#D1A92B"/>
<path d="M439.002 395.298H400.002V433.828H439.002V395.298Z" fill="#2F9D76"/>
<path d="M205 395.298H166V433.828H205V395.298Z" fill="#CA4D54"/>
<path d="M477.998 395.298H438.998V433.828H477.998V395.298Z" fill="#677530"/>
<path d="M361.002 395.298H322.002V433.828H361.002V395.298Z" fill="#BC417D"/>
<path d="M244 395.298H205V433.828H244V395.298Z" fill="#BE4D4E"/>
<path d="M322 395.298H283V433.828H322V395.298Z" fill="#A9B14A"/>
<path d="M283 395.298H244V433.828H283V395.298Z" fill="#DDB67F"/>
<path d="M49.0001 395.298H10V433.828H49.0001V395.298Z" fill="#D49B7E"/>
<path d="M790 395.298H751V433.828H790V395.298Z" fill="#E8DA30"/>
<path d="M712.002 395.298H673.002V433.828H712.002V395.298Z" fill="#D46D7C"/>
<path d="M751.002 395.298H712.002V433.828H751.002V395.298Z" fill="#8F4488"/>
<path d="M87.9982 395.298H48.998V433.828H87.9982V395.298Z" fill="#5492C4"/>
<path d="M127 433.828H88V472.358H127V433.828Z" fill="#B5C432"/>
<path d="M361.002 433.828H322.002V472.358H361.002V433.828Z" fill="#ECA866"/>
<path d="M322 433.828H283V472.358H322V433.828Z" fill="#B7387E"/>
<path d="M400 433.828H361V472.358H400V433.828Z" fill="#C14988"/>
<path d="M283 433.828H244V472.358H283V433.828Z" fill="#E5C087"/>
<path d="M166 433.828H127V472.358H166V433.828Z" fill="#BC9D1B"/>
<path d="M205 433.828H166V472.358H205V433.828Z" fill="#E1AD3F"/>
<path d="M244 433.828H205V472.358H244V433.828Z" fill="#822260"/>
<path d="M439.002 433.828H400.002V472.358H439.002V433.828Z" fill="#9E3A80"/>
<path d="M477.998 433.828H438.998V472.358H477.998V433.828Z" fill="#E17B42"/>
<path d="M673.002 433.828H634.002V472.358H673.002V433.828Z" fill="#BF9493"/>
<path d="M634.002 433.828H595.002V472.358H634.002V433.828Z" fill="#E7996A"/>
<path d="M556.004 433.828H517.004V472.358H556.004V433.828Z" fill="#E1D62D"/>
<path d="M516.998 433.828H477.998V472.358H516.998V433.828Z" fill="#A5BE3E"/>
<path d="M595.002 433.828H556.002V472.358H595.002V433.828Z" fill="#D88A10"/>
<path d="M49.0001 433.828H10V472.358H49.0001V433.828Z" fill="#B05B75"/>
<path d="M790 433.828H751V472.358H790V433.828Z" fill="#D11E1C"/>
<path d="M712.002 433.828H673.002V472.358H712.002V433.828Z" fill="#D84516"/>
<path d="M751.002 433.828H712.002V472.358H751.002V433.828Z" fill="#D42F18"/>
<path d="M87.9982 433.828H48.998V472.358H87.9982V433.828Z" fill="#E5D62A"/>
<path d="M166 356.768H127V395.298H166V356.768Z" fill="#B5824F"/>
<path d="M634.002 356.768H595.002V395.298H634.002V356.768Z" fill="#3C5568"/>
<path d="M127 356.768H88V395.298H127V356.768Z" fill="#96B947"/>
<path d="M673.002 356.768H634.002V395.298H673.002V356.768Z" fill="#B9D7B5"/>
<path d="M244 356.768H205V395.298H244V356.768Z" fill="#F2C8BF"/>
<path d="M205 356.768H166V395.298H205V356.768Z" fill="#923D83"/>
<path d="M439.002 356.768H400.002V395.298H439.002V356.768Z" fill="#B5538F"/>
<path d="M477.998 356.768H438.998V395.298H477.998V356.768Z" fill="#ADAC1C"/>
<path d="M595.002 356.768H556.002V395.298H595.002V356.768Z" fill="#EEAD75"/>
<path d="M556.004 356.768H517.004V395.298H556.004V356.768Z" fill="#DBD047"/>
<path d="M400 356.768H361V395.298H400V356.768Z" fill="#6C9A33"/>
<path d="M322 356.768H283V395.298H322V356.768Z" fill="#C65991"/>
<path d="M361.002 356.768H322.002V395.298H361.002V356.768Z" fill="#DBA9C8"/>
<path d="M283 356.768H244V395.298H283V356.768Z" fill="#D0131B"/>
<path d="M516.998 356.768H477.998V395.298H516.998V356.768Z" fill="#DC5610"/>
<path d="M49.0001 356.768H10V395.298H49.0001V356.768Z" fill="#DBBFB6"/>
<path d="M790 356.768H751V395.298H790V356.768Z" fill="#AE981B"/>
<path d="M751.002 356.768H712.002V395.298H751.002V356.768Z" fill="#EDC41A"/>
<path d="M712.002 356.768H673.002V395.298H712.002V356.768Z" fill="#8F8729"/>
<path d="M87.9982 356.768H48.998V395.298H87.9982V356.768Z" fill="#838F2C"/>
<path d="M790 510.887H751V549.417H790V510.887Z" fill="#4C62A2"/>
<path d="M49.0001 510.887H10V549.417H49.0001V510.887Z" fill="#E9A77F"/>
<path d="M361.002 510.887H322.002V549.417H361.002V510.887Z" fill="#A74362"/>
<path d="M400 510.887H361V549.417H400V510.887Z" fill="#B87A42"/>
<path d="M477.998 510.887H438.998V549.417H477.998V510.887Z" fill="#86AD32"/>
<path d="M322 510.887H283V549.417H322V510.887Z" fill="#70B8A9"/>
<path d="M166 510.887H127V549.417H166V510.887Z" fill="#DDA271"/>
<path d="M516.998 510.887H477.998V549.417H516.998V510.887Z" fill="#CEC01C"/>
<path d="M205 510.887H166V549.417H205V510.887Z" fill="#7F9E4C"/>
<path d="M283 510.887H244V549.417H283V510.887Z" fill="#B52B78"/>
<path d="M244 510.887H205V549.417H244V510.887Z" fill="#DBD8E5"/>
<path d="M712.002 510.887H673.002V549.417H712.002V510.887Z" fill="#48AFD5"/>
<path d="M751.002 510.887H712.002V549.417H751.002V510.887Z" fill="#A3C2A0"/>
<path d="M556.004 510.887H517.004V549.417H556.004V510.887Z" fill="#EADB34"/>
<path d="M673.002 510.887H634.002V549.417H673.002V510.887Z" fill="#6E5562"/>
<path d="M595.002 510.887H556.002V549.417H595.002V510.887Z" fill="#928D27"/>
<path d="M634.002 510.887H595.002V549.417H634.002V510.887Z" fill="#CB387E"/>
<path d="M439.002 510.887H400.002V549.417H439.002V510.887Z" fill="#C57F4E"/>
<path d="M87.9982 510.887H48.998V549.417H87.9982V510.887Z" fill="#AA9E1B"/>
<path d="M127 510.887H88V549.417H127V510.887Z" fill="#497D36"/>
<path d="M634.002 318.238H595.002V356.768H634.002V318.238Z" fill="#904D85"/>
<path d="M127 318.238H88V356.768H127V318.238Z" fill="#E0A815"/>
<path d="M673.002 318.238H634.002V356.768H673.002V318.238Z" fill="#D54F1F"/>
<path d="M166 318.238H127V356.768H166V318.238Z" fill="#ACB334"/>
<path d="M439.002 318.238H400.002V356.768H439.002V318.238Z" fill="#8F337E"/>
<path d="M477.998 318.238H438.998V356.768H477.998V318.238Z" fill="#C9B717"/>
<path d="M516.998 318.238H477.998V356.768H516.998V318.238Z" fill="#A6A61C"/>
<path d="M556.004 318.238H517.004V356.768H556.004V318.238Z" fill="#C2BD26"/>
<path d="M244 318.238H205V356.768H244V318.238Z" fill="#DF725A"/>
<path d="M322 318.238H283V356.768H322V318.238Z" fill="#F2CB76"/>
<path d="M283 318.238H244V356.768H283V318.238Z" fill="#E4B06E"/>
<path d="M400 318.238H361V356.768H400V318.238Z" fill="#1AA2CD"/>
<path d="M361.002 318.238H322.002V356.768H361.002V318.238Z" fill="#C6A48D"/>
<path d="M205 318.238H166V356.768H205V318.238Z" fill="#D13D68"/>
<path d="M595.002 318.238H556.002V356.768H595.002V318.238Z" fill="#E16E42"/>
<path d="M49.0001 318.238H10V356.768H49.0001V318.238Z" fill="#F7D093"/>
<path d="M751.002 318.238H712.002V356.768H751.002V318.238Z" fill="#8F7C29"/>
<path d="M790 318.238H751V356.768H790V318.238Z" fill="#917659"/>
<path d="M712.002 318.238H673.002V356.768H712.002V318.238Z" fill="#46411E"/>
<path d="M87.9982 318.238H48.998V356.768H87.9982V318.238Z" fill="#6FA3C8"/>
<rect x="10" y="10" width="780" height="578" stroke="#5EE3D4" stroke-width="20"/>
</svg>
