<svg width="358" height="775" fill="none" xmlns="http://www.w3.org/2000/svg">
    <g filter="url(#a)">
        <rect x="4" width="350" height="766.748" rx="140" fill="#fff"/>
        <path d="M123.646 557.617h11v3.4h-11v-3.4Zm0 8.08h11v3.4h-11v-3.4Zm-10.76 10.2h24.64v13.12h-4.2v-9.76h-20.44v-3.36Zm20.44-23.44h4.2v21.6h-4.2v-21.6Zm-16.08 1.96c5.4 0 9.52 3.72 9.52 8.92 0 5.24-4.12 8.92-9.52 8.92-5.44 0-9.52-3.68-9.52-8.92 0-5.2 4.08-8.92 9.52-8.92Zm0 3.6c-3.16 0-5.52 2.12-5.52 5.32 0 3.24 2.36 5.36 5.52 5.36 3.16 0 5.52-2.12 5.52-5.36 0-3.2-2.36-5.32-5.52-5.32Zm35.397-3.68h3.48v3.36c0 7.16-3.64 13.16-10.2 15.56l-2.2-3.32c5.8-2.04 8.92-6.96 8.92-12.24v-3.36Zm.84 0h3.36v3.28c0 4.8 3.12 9.44 8.6 11.32l-2.16 3.28c-6.24-2.28-9.8-7.96-9.8-14.6v-3.28Zm14.88-1.88h4.2v21.28h-4.2v-21.28Zm3.04 8.72h6.32v3.48h-6.32v-3.48Zm-22.16 14.12h23.32v13.28h-23.32v-13.28Zm19.2 3.32h-15.08v6.6h15.08v-6.6Zm36.717-26.16h4.2v21.32h-4.2v-21.32Zm3.04 8.92h6.32v3.48h-6.32v-3.48Zm-13.32-6.72h4.4c0 9.48-6.24 16.08-17 18.92l-1.72-3.24c9.28-2.44 14.32-7.48 14.32-13.68v-2Zm-12.6 0h15.04v3.36h-15.04v-3.36Zm3.04 20.76h24.04v13.6h-4.2v-10.24h-19.84v-3.36Zm52.877-14.52h7.12v3.4h-7.12v-3.4Zm-.04 7.2h7.08v3.36h-7.08v-3.36Zm-20.48-11.96h20.32v3.36h-20.32v-3.36Zm10.32 4.96c4.96 0 8.4 2.72 8.4 6.8s-3.44 6.8-8.4 6.8c-4.92 0-8.4-2.72-8.4-6.8s3.48-6.8 8.4-6.8Zm0 3.16c-2.68 0-4.48 1.36-4.48 3.64 0 2.28 1.8 3.64 4.48 3.64 2.68 0 4.52-1.36 4.52-3.64 0-2.28-1.84-3.64-4.52-3.64Zm-2.04-12.12h4.16v6.32h-4.16v-6.32Zm17.76.32h4.2v23.48h-4.2v-23.48Zm-7.96 23.88c7.64 0 12.32 2.36 12.32 6.32 0 4-4.68 6.32-12.32 6.32-7.64 0-12.32-2.32-12.32-6.32 0-3.96 4.68-6.32 12.32-6.32Zm0 3.24c-5 0-7.92 1.04-7.92 3.08s2.92 3.12 7.92 3.12 7.92-1.08 7.92-3.12-2.92-3.08-7.92-3.08Z" fill="#000"/>
        <path d="M311.441 140.561 178.572 392.349 45.702 140.561h265.739Z" fill="#fff" stroke="#000" stroke-width="6"/>
    </g>
    <defs>
        <filter id="a" x="0" y="0" width="358" height="774.748" filterUnits="userSpaceOnUse" color-interpolation-filters="sRGB">
            <feFlood flood-opacity="0" result="BackgroundImageFix"/>
            <feColorMatrix in="SourceAlpha" values="0 0 0 0 0 0 0 0 0 0 0 0 0 0 0 0 0 0 127 0" result="hardAlpha"/>
            <feOffset dy="4"/>
            <feGaussianBlur stdDeviation="2"/>
            <feComposite in2="hardAlpha" operator="out"/>
            <feColorMatrix values="0 0 0 0 0 0 0 0 0 0 0 0 0 0 0 0 0 0 0.25 0"/>
            <feBlend in2="BackgroundImageFix" result="effect1_dropShadow_398_11392"/>
            <feBlend in="SourceGraphic" in2="effect1_dropShadow_398_11392" result="shape"/>
        </filter>
    </defs>
</svg>
