<svg width="511" height="359" viewBox="0 0 511 359" fill="none" xmlns="http://www.w3.org/2000/svg">
<rect x="3" y="3" width="505" height="353" rx="50" fill="white" fill-opacity="0.5" stroke="#8D8D8D" stroke-width="5"/>
<rect x="283" y="29" width="60" height="60" rx="15" fill="#CFDDE3"/>
<rect x="343" y="29" width="60" height="60" rx="15" fill="#F5F4F4"/>
<rect x="403" y="29" width="60" height="60" rx="15" fill="#C3DCDD"/>
<rect x="292" y="156" width="60" height="60" rx="15" fill="#AFB78B"/>
<rect x="352" y="156" width="60" height="60" rx="15" fill="#B7D7C8"/>
<rect x="412" y="156" width="60" height="60" rx="15" fill="#96C0D0"/>
<rect x="242" y="274" width="60" height="60" rx="15" fill="#7BB5A8"/>
<rect x="302" y="274" width="60" height="60" rx="15" fill="#C1DDD9"/>
<rect x="362" y="274" width="60" height="60" rx="15" fill="#AFC0D1"/>
<rect x="38" y="214" width="60" height="60" rx="15" fill="#A8D0BD"/>
<rect x="98" y="214" width="60" height="60" rx="15" fill="white"/>
<rect x="98.5" y="214.5" width="59" height="59" rx="14.5" stroke="black" stroke-opacity="0.2"/>
<rect x="158" y="214" width="60" height="60" rx="15" fill="#C3B7CD"/>
<rect x="63" y="105" width="60" height="60" rx="15" fill="#C9CCB2"/>
<rect x="123" y="105" width="60" height="60" rx="15" fill="#DFE9ED"/>
<rect x="183" y="105" width="60" height="60" rx="15" fill="#B8C7D5"/>
</svg>
