<svg width="840" height="610" viewBox="0 0 840 610" fill="none" xmlns="http://www.w3.org/2000/svg">
<rect x="140" width="140" height="152.5" rx="15" fill="#D4BEB4"/>
<rect width="140" height="152.5" rx="15" fill="#C01521"/>
<rect y="152.5" width="140" height="152.5" rx="15" fill="#71002A"/>
<rect x="140" y="152.5" width="140" height="152.5" rx="15" fill="#9C3136"/>
<rect x="140" y="305" width="140" height="152.5" rx="15" fill="#90433A"/>
<rect y="305" width="140" height="152.5" rx="15" fill="#CF1851"/>
<rect x="140" y="457.5" width="140" height="152.5" rx="15" fill="#49363B"/>
<rect y="457.5" width="140" height="152.5" rx="15" fill="#BF043E"/>
<rect x="280" width="140" height="152.5" rx="15" fill="#D71430"/>
<rect x="280" y="152.5" width="140" height="152.5" rx="15" fill="#D70F63"/>
<rect x="280" y="305" width="140" height="152.5" rx="15" fill="#83A590"/>
<rect x="280" y="457.5" width="140" height="152.5" rx="15" fill="#95343C"/>
<rect x="420" width="140" height="152.5" rx="15" fill="#9D0021"/>
<rect x="420" y="152.5" width="140" height="152.5" rx="15" fill="#A3AED8"/>
<rect x="420" y="305" width="140" height="152.5" rx="15" fill="#D70F63"/>
<rect x="420" y="457.5" width="140" height="152.5" rx="15" fill="#81315B"/>
<rect x="560" width="140" height="152.5" rx="15" fill="#B76E58"/>
<rect x="560" y="152.5" width="140" height="152.5" rx="15" fill="#AB0F41"/>
<rect x="560" y="305" width="140" height="152.5" rx="15" fill="#003451"/>
<rect x="560" y="457.5" width="140" height="152.5" rx="15" fill="#CC237D"/>
<rect x="700" width="140" height="152.5" rx="15" fill="#912942"/>
<rect x="700" y="152.5" width="140" height="152.5" rx="15" fill="#89312D"/>
<rect x="700" y="305" width="140" height="152.5" rx="15" fill="#D02F33"/>
<rect x="700" y="457.5" width="140" height="152.5" rx="15" fill="#C4001F"/>
</svg>
