<svg width="331" height="512" viewBox="0 0 331 512" fill="none" xmlns="http://www.w3.org/2000/svg">
<rect x="3" y="3" width="325" height="506" rx="50" fill="white" fill-opacity="0.5" stroke="#8D8D8D" stroke-width="5"/>
<rect x="52" y="18" width="60" height="60" rx="15" fill="#E2B6AB"/>
<rect x="112" y="18" width="60" height="60" rx="15" fill="#DBD6D1"/>
<rect x="172" y="18" width="60" height="60" rx="15" fill="#A9C9AA"/>
<rect x="133" y="118" width="60" height="60" rx="15" fill="#EACA9C"/>
<rect x="193" y="118" width="60" height="60" rx="15" fill="#74A8B9"/>
<rect x="253" y="118" width="60" height="60" rx="15" fill="#BABEA0"/>
<rect x="27" y="218" width="60" height="60" rx="15" fill="#BFB3C6"/>
<rect x="87" y="218" width="60" height="60" rx="15" fill="#A8D0BD"/>
<rect x="147" y="218" width="60" height="60" rx="15" fill="#8FABC3"/>
<rect x="63" y="318" width="60" height="60" rx="15" fill="#5D9073"/>
<rect x="123" y="318" width="60" height="60" rx="15" fill="#C5CBD3"/>
<rect x="183" y="318" width="60" height="60" rx="15" fill="#7865A3"/>
<rect x="118" y="418" width="60" height="60" rx="15" fill="#C2A54C"/>
<rect x="178" y="418" width="60" height="60" rx="15" fill="#C7CDD6"/>
<rect x="238" y="418" width="60" height="60" rx="15" fill="#7A90A7"/>
</svg>
