<svg width="627" height="607" viewBox="0 0 627 607" fill="none" xmlns="http://www.w3.org/2000/svg">
<path d="M384.622 10H567C594.614 10 617 32.3857 617 60V547C617 574.614 594.614 597 567 597H60.5C32.8858 597 10.5 574.614 10.5 547V517.529C10.5 489.915 32.8858 467.529 60.5 467.529H89.9502C117.564 467.529 139.95 445.143 139.95 417.529V154C139.95 126.386 162.336 104 189.95 104H290.622C316.579 104 337.622 82.9574 337.622 57C337.622 31.0426 358.664 10 384.622 10Z" fill="white" fill-opacity="0.5" stroke="#5EE3D4" stroke-width="20"/>
<rect x="407" y="61" width="60" height="60" rx="15" fill="#4F2311"/>
<rect x="467" y="61" width="60" height="60" rx="15" fill="#A0C3D1"/>
<rect x="527" y="61" width="60" height="60" rx="15" fill="#08306C"/>
<rect x="339" y="140" width="60" height="60" rx="15" fill="#003C41"/>
<rect x="399" y="140" width="60" height="60" rx="15" fill="#A9BDCE"/>
<rect x="459" y="140" width="60" height="60" rx="15" fill="#0A1836"/>
<rect x="423" y="241" width="60" height="60" rx="15" fill="#1F5A72"/>
<rect x="483" y="241" width="60" height="60" rx="15" fill="#A0C3D1"/>
<rect x="543" y="241" width="60" height="60" rx="15" fill="#000B2B"/>
<rect x="178" y="241" width="60" height="60" rx="15" fill="#214156"/>
<rect x="238" y="241" width="60" height="60" rx="15" fill="#E5E3E3"/>
<rect x="298" y="241" width="60" height="60" rx="15" fill="#0C508C"/>
<rect x="339" y="347" width="60" height="60" rx="15" fill="#2D6285"/>
<rect x="399" y="347" width="60" height="60" rx="15" fill="#BFC3A3"/>
<rect x="459" y="347" width="60" height="60" rx="15" fill="#0A1836"/>
<rect x="201" y="422" width="60" height="60" rx="15" fill="#00303A"/>
<rect x="261" y="422" width="60" height="60" rx="15" fill="#657792"/>
<rect x="321" y="422" width="60" height="60" rx="15" fill="#08306C"/>
<rect x="82" y="510" width="60" height="60" rx="15" fill="#7E1E11"/>
<rect x="142" y="510" width="60" height="60" rx="15" fill="#657792"/>
<rect x="202" y="510" width="60" height="60" rx="15" fill="#443567"/>
</svg>
