<svg width="800" height="598" viewBox="0 0 800 598" fill="none" xmlns="http://www.w3.org/2000/svg">
<rect x="140" y="10" width="130" height="141.607" fill="#E3413C"/>
<rect x="10" y="10" width="130" height="141.607" fill="#DEB49E"/>
<rect x="10" y="151.607" width="130" height="141.607" fill="#DC484B"/>
<rect x="140" y="151.607" width="130" height="141.607" fill="#A46C59"/>
<rect x="140" y="293.214" width="130" height="141.607" fill="#D92838"/>
<rect x="10" y="293.214" width="130" height="141.607" fill="#EF876A"/>
<rect x="140" y="434.821" width="130" height="141.607" fill="#DF5151"/>
<rect x="10" y="434.821" width="130" height="141.607" fill="#E9BFD6"/>
<rect x="270" y="10" width="130" height="141.607" fill="#DF5C5A"/>
<rect x="270" y="151.607" width="130" height="141.607" fill="#D57B6F"/>
<rect x="270" y="293.214" width="130" height="141.607" fill="#E04062"/>
<rect x="270" y="434.821" width="130" height="141.607" fill="#F29265"/>
<rect x="400" y="10" width="130" height="141.607" fill="#E23E46"/>
<rect x="400" y="151.607" width="130" height="141.607" fill="#E56D92"/>
<rect x="400" y="293.214" width="130" height="141.607" fill="#D6916F"/>
<rect x="400" y="434.821" width="130" height="141.607" fill="#C89EBC"/>
<rect x="530" y="10" width="130" height="141.607" fill="#DA8C96"/>
<rect x="530" y="151.607" width="130" height="141.607" fill="#DC1A3B"/>
<rect x="530" y="293.214" width="130" height="141.607" fill="#E37D6F"/>
<rect x="530" y="434.821" width="130" height="141.607" fill="#E04062"/>
<rect x="660" y="10" width="130" height="141.607" fill="#D9D9D9"/>
<rect x="660" y="151.607" width="130" height="141.607" fill="#D5A986"/>
<rect x="660" y="293.214" width="130" height="141.607" fill="#ABC1B1"/>
<rect x="660" y="434.821" width="130" height="141.607" fill="#E4565C"/>
<rect x="10" y="10" width="780" height="578" stroke="#5EE3D4" stroke-width="20"/>
</svg>
