<svg width="800" height="598" viewBox="0 0 800 598" fill="none" xmlns="http://www.w3.org/2000/svg">
<rect x="140" y="10" width="130" height="141.607" fill="#C07382"/>
<rect x="10" y="10" width="130" height="141.607" fill="#D79A87"/>
<rect x="10" y="151.607" width="130" height="141.607" fill="#C8A399"/>
<rect x="140" y="151.607" width="130" height="141.607" fill="#D8777F"/>
<rect x="140" y="293.214" width="130" height="141.607" fill="#C8A399"/>
<rect x="10" y="293.214" width="130" height="141.607" fill="#DC7489"/>
<rect x="140" y="434.821" width="130" height="141.607" fill="#E39C9C"/>
<rect x="10" y="434.821" width="130" height="141.607" fill="#954164"/>
<rect x="270" y="10" width="130" height="141.607" fill="#ED9F99"/>
<rect x="270" y="151.607" width="130" height="141.607" fill="#CE5371"/>
<rect x="270" y="293.214" width="130" height="141.607" fill="#975B83"/>
<rect x="270" y="434.821" width="130" height="141.607" fill="#DA95B1"/>
<rect x="400" y="10" width="130" height="141.607" fill="#E3B1BE"/>
<rect x="400" y="151.607" width="130" height="141.607" fill="#F29F8A"/>
<rect x="400" y="293.214" width="130" height="141.607" fill="#B54B53"/>
<rect x="400" y="434.821" width="130" height="141.607" fill="#D2646C"/>
<rect x="530" y="10" width="130" height="141.607" fill="#C46662"/>
<rect x="530" y="151.607" width="130" height="141.607" fill="#E56166"/>
<rect x="530" y="293.214" width="130" height="141.607" fill="#D27E68"/>
<rect x="530" y="434.821" width="130" height="141.607" fill="#E7A89B"/>
<rect x="660" y="10" width="130" height="141.607" fill="#D45867"/>
<rect x="660" y="151.607" width="130" height="141.607" fill="#E8CACB"/>
<rect x="660" y="293.214" width="130" height="141.607" fill="#E1A4A2"/>
<rect x="660" y="434.821" width="130" height="141.607" fill="#B54B53"/>
<rect x="10" y="10" width="780" height="578" stroke="#5EE3D4" stroke-width="20"/>
</svg>
