<svg width="262" height="251" viewBox="0 0 262 251" fill="none" xmlns="http://www.w3.org/2000/svg">
<g clip-path="url(#clip0_858_1282)">
<path d="M228.936 125.5C228.936 179.36 185.05 223.024 130.911 223.024C76.7728 223.024 32.8867 179.36 32.8867 125.5C32.8867 71.6396 76.7728 27.976 130.911 27.976C185.05 27.976 228.936 71.6396 228.936 125.5Z" fill="white"/>
<path d="M157.223 26.0412C157.223 40.4215 145.506 52.0825 131.017 52.0825C116.527 52.0825 104.811 40.4215 104.811 26.0412C104.811 11.661 116.527 0 131.017 0C145.454 0 157.223 11.661 157.223 26.0412Z" fill="#84232A"/>
<path d="M157.223 224.959C157.223 239.339 145.506 251 131.017 251C116.527 251 104.811 239.339 104.811 224.959C104.811 210.579 116.527 198.918 131.017 198.918C145.454 198.918 157.223 210.579 157.223 224.959Z" fill="#004649"/>
<path d="M207.542 39.5325C207.542 53.9127 195.825 65.5737 181.388 65.5737C166.951 65.5737 155.234 53.9127 155.234 39.5325C155.234 25.1523 166.951 13.4912 181.388 13.4912C195.825 13.4912 207.542 25.1523 207.542 39.5325Z" fill="#832917"/>
<path d="M244.471 76.3458C244.471 90.726 232.755 102.387 218.265 102.387C203.828 102.387 192.059 90.726 192.112 76.3458C192.112 61.9656 203.828 50.3046 218.265 50.3046C232.755 50.3046 244.471 61.9656 244.471 76.3458Z" fill="#7A3709"/>
<path d="M261.733 125.5C261.733 139.88 250.016 151.541 235.527 151.541C221.09 151.541 209.373 139.88 209.373 125.5C209.373 111.12 221.09 99.4588 235.579 99.4588C250.016 99.4588 261.733 111.12 261.733 125.5Z" fill="#5C4417"/>
<path d="M243.792 174.497C243.792 188.877 232.075 200.539 217.586 200.539C203.149 200.539 191.38 188.877 191.432 174.497C191.432 160.117 203.149 148.456 217.638 148.456C232.075 148.456 243.792 160.117 243.792 174.497Z" fill="#425020"/>
<path d="M181.337 237.613C195.782 237.613 207.491 225.954 207.491 211.572C207.491 197.19 195.782 185.531 181.337 185.531C166.893 185.531 155.184 197.19 155.184 211.572C155.184 225.954 166.893 237.613 181.337 237.613Z" fill="#00502F"/>
<path d="M54.3867 39.5325C54.3867 53.9127 66.1036 65.5737 80.5405 65.5737C94.9774 65.5737 106.694 53.9127 106.694 39.5325C106.694 25.1523 94.9774 13.4912 80.5405 13.4912C66.1036 13.4912 54.3867 25.1523 54.3867 39.5325Z" fill="#82213D"/>
<path d="M17.457 76.3458C17.457 90.726 29.1739 102.387 43.6632 102.387C58.1001 102.387 69.817 90.726 69.817 76.3458C69.817 61.9656 58.1001 50.3046 43.6632 50.3046C29.2263 50.3046 17.457 61.9656 17.5093 76.3458H17.457Z" fill="#7B2350"/>
<path d="M0.195312 125.5C0.195312 139.88 11.9122 151.541 26.4014 151.541C40.8383 151.541 52.6076 139.88 52.5553 125.5C52.5553 111.12 40.8383 99.4588 26.4014 99.4588C11.9645 99.4588 0.195312 111.12 0.195312 125.5Z" fill="#5A2D6B"/>
<path d="M18.1367 174.497C18.1367 188.877 29.8536 200.539 44.3428 200.539C58.7797 200.539 70.549 188.877 70.4967 174.497C70.4967 160.117 58.7798 148.456 44.2905 148.456C29.8536 148.456 18.1367 160.117 18.1367 174.497Z" fill="#003C71"/>
<path d="M80.5928 237.613C95.0661 237.613 106.799 225.954 106.799 211.572C106.799 197.19 95.0661 185.531 80.5928 185.531C66.1196 185.531 54.3867 197.19 54.3867 211.572C54.3867 225.954 66.1196 237.613 80.5928 237.613Z" fill="#00445A"/>
<path d="M128.453 143.279C128.453 143.698 128.244 143.959 127.773 143.959H125.942C125.524 143.959 125.262 143.75 125.262 143.279V139.776C123.588 142.965 120.816 144.586 117.05 144.586C113.702 144.586 111.087 143.279 109.204 140.717C107.478 138.311 106.641 135.174 106.641 131.2C106.641 122.363 110.145 117.97 117.102 117.97C118.985 117.97 120.659 118.336 122.124 119.12C123.588 119.853 124.634 120.846 125.314 122.049V107.25C125.314 106.832 125.524 106.57 125.994 106.57H127.825C128.244 106.57 128.505 106.78 128.505 107.25V143.331L128.453 143.279ZM110.145 131.2C110.145 132.664 110.25 134.024 110.511 135.226C110.721 136.429 111.139 137.475 111.61 138.416C112.29 139.566 113.127 140.403 114.121 141.031C115.114 141.606 116.318 141.92 117.678 141.92C118.933 141.92 120.031 141.606 120.973 140.926C121.914 140.246 122.751 139.41 123.379 138.416C124.007 137.423 124.478 136.272 124.791 134.965C125.105 133.71 125.262 132.455 125.262 131.252C125.262 129.736 125.105 128.376 124.791 127.069C124.478 125.761 123.954 124.663 123.327 123.722C122.699 122.781 121.914 122.049 120.921 121.526C119.979 121.003 118.881 120.741 117.625 120.741C114.958 120.741 112.918 121.892 111.558 124.193C111.034 125.082 110.668 126.18 110.459 127.383C110.25 128.585 110.093 129.893 110.093 131.304L110.145 131.2Z" fill="#231815"/>
<path d="M144.982 129.788L155.13 143.227C155.13 143.227 155.234 143.541 155.234 143.698C155.234 143.854 155.077 143.907 154.921 143.907H152.881C152.567 143.907 152.305 143.907 152.044 143.75C151.782 143.645 151.573 143.488 151.416 143.227L142.942 132.036L139.804 135.54V143.227C139.804 143.645 139.594 143.907 139.124 143.907H137.241C136.822 143.907 136.561 143.698 136.561 143.227V107.093C136.561 106.675 136.77 106.414 137.241 106.414H139.124C139.542 106.414 139.804 106.623 139.804 107.093V131.618L150.527 119.12C150.945 118.702 151.468 118.441 152.096 118.441H154.293C154.293 118.441 154.607 118.493 154.659 118.65C154.711 118.807 154.659 118.964 154.502 119.068L144.93 129.736L144.982 129.788Z" fill="#231815"/>
</g>
<defs>
<clipPath id="clip0_858_1282">
<rect width="261.538" height="251" fill="white" transform="translate(0.195312)"/>
</clipPath>
</defs>
</svg>
