<svg width="262" height="251" viewBox="0 0 262 251" fill="none" xmlns="http://www.w3.org/2000/svg">
<g clip-path="url(#clip0_858_1344)">
<path d="M228.74 125.552C228.74 179.413 184.854 223.076 130.716 223.076C76.5775 223.076 32.6914 179.413 32.6914 125.552C32.6914 71.6919 76.5775 28.0283 130.716 28.0283C184.854 28.0283 228.74 71.6919 228.74 125.552Z" fill="white"/>
<path d="M157.027 26.0412C157.027 40.4215 145.311 52.0825 130.821 52.0825C116.332 52.0825 104.615 40.4215 104.615 26.0412C104.615 11.661 116.384 0 130.821 0C145.258 0 157.027 11.661 157.027 26.0412Z" fill="#8F7671"/>
<path d="M157.028 224.959C157.028 239.339 145.311 251 130.822 251C116.385 251 104.616 239.339 104.668 224.959C104.668 210.579 116.385 198.918 130.874 198.918C145.363 198.918 157.08 210.579 157.08 224.959H157.028Z" fill="#65807B"/>
<path d="M207.348 39.5325C207.348 53.9127 195.631 65.5737 181.142 65.5737C166.652 65.5737 154.936 53.9127 154.936 39.5325C154.936 25.1523 166.652 13.4912 181.142 13.4912C195.579 13.4912 207.348 25.1523 207.348 39.5325Z" fill="#91796E"/>
<path d="M244.225 76.2935C244.225 90.6737 232.508 102.335 218.019 102.335C203.529 102.335 191.812 90.6737 191.812 76.2935C191.812 61.9133 203.529 50.2523 218.019 50.2523C232.456 50.2523 244.225 61.9133 244.225 76.2935Z" fill="#917966"/>
<path d="M261.538 125.5C261.538 139.88 249.821 151.541 235.384 151.541C220.947 151.541 209.178 139.88 209.178 125.5C209.178 111.12 220.895 99.4588 235.332 99.4588C249.768 99.4588 261.485 111.12 261.485 125.5H261.538Z" fill="#877E5E"/>
<path d="M243.596 174.497C243.596 188.877 231.879 200.539 217.442 200.539C203.006 200.539 191.236 188.877 191.236 174.497C191.236 160.117 202.953 148.456 217.39 148.456C231.827 148.456 243.544 160.117 243.596 174.497Z" fill="#7A8062"/>
<path d="M207.348 211.572C207.348 225.952 195.631 237.613 181.142 237.613C166.652 237.613 154.936 225.952 154.936 211.572C154.936 197.192 166.652 185.531 181.142 185.531C195.579 185.531 207.348 197.192 207.348 211.572Z" fill="#698172"/>
<path d="M54.1914 39.5325C54.1914 53.9127 65.9083 65.5737 80.3975 65.5737C94.8868 65.5737 106.604 53.9127 106.604 39.5325C106.604 25.1523 94.8868 13.4912 80.3975 13.4912C65.9606 13.4912 54.1914 25.1523 54.1914 39.5325Z" fill="#8F7874"/>
<path d="M17.2617 76.2935C17.2617 90.6737 28.9786 102.335 43.4678 102.335C57.9571 102.335 69.674 90.6737 69.674 76.2935C69.674 61.9133 57.9571 50.2523 43.4678 50.2523C29.0309 50.2523 17.2617 61.9133 17.2617 76.2935Z" fill="#8B787B"/>
<path d="M0 125.5C0 139.88 11.7169 151.541 26.1538 151.541C40.5907 151.541 52.3599 139.88 52.3599 125.5C52.3599 111.12 40.643 99.4588 26.2061 99.4588C11.7169 99.4588 0 111.12 0 125.5Z" fill="#817983"/>
<path d="M17.9414 174.497C17.9414 188.877 29.6583 200.539 44.0952 200.539C58.5321 200.539 70.3013 188.877 70.3013 174.497C70.3013 160.117 58.5844 148.456 44.1475 148.456C29.7106 148.456 17.9937 160.117 17.9937 174.497H17.9414Z" fill="#757C86"/>
<path d="M54.1914 211.572C54.1914 225.952 65.9083 237.613 80.3975 237.613C94.8868 237.613 106.604 225.952 106.604 211.572C106.604 197.192 94.8868 185.531 80.3975 185.531C65.9606 185.531 54.1914 197.192 54.1914 211.572Z" fill="#6B7F83"/>
<path d="M122.451 141.031C122.085 140.926 121.928 140.717 121.981 140.299L122.137 138.207C122.137 137.789 122.347 137.684 122.765 137.945C123.968 138.468 125.119 138.834 126.217 139.096C127.316 139.357 128.519 139.462 129.774 139.462C132.599 139.462 134.796 138.573 136.208 136.847C137.621 135.122 138.457 132.716 138.614 129.736C137.882 131.147 136.836 132.193 135.424 132.925C134.011 133.657 132.442 134.024 130.716 134.024C129.199 134.024 127.734 133.762 126.427 133.187C125.119 132.612 123.968 131.827 122.974 130.781C121.981 129.736 121.248 128.481 120.673 127.016C120.097 125.552 119.836 123.931 119.836 122.101C119.836 120.009 120.045 118.127 120.411 116.454C120.777 114.833 121.405 113.421 122.294 112.27C123.184 111.12 124.23 110.283 125.59 109.656C126.95 109.028 128.571 108.767 130.507 108.767C132.181 108.767 133.645 109.028 134.901 109.603C136.156 110.179 137.464 111.12 138.771 112.532L138.667 109.969C138.667 109.551 138.876 109.29 139.347 109.29H141.125C141.544 109.29 141.805 109.499 141.805 109.969V128.794C141.805 130.834 141.544 132.664 141.021 134.337C140.497 135.958 139.713 137.37 138.719 138.521C137.725 139.671 136.417 140.56 134.953 141.135C133.436 141.763 131.71 142.076 129.774 142.076C128.362 142.076 127.107 141.972 126.061 141.815C125.014 141.658 123.811 141.344 122.556 140.926L122.451 141.031ZM138.667 121.996C138.667 118.65 137.987 116.035 136.574 114.257C135.214 112.427 133.331 111.538 130.977 111.538C128.414 111.538 126.531 112.375 125.224 114.1C123.916 115.826 123.288 118.493 123.288 122.153C123.288 123.513 123.497 124.768 123.864 125.866C124.23 127.016 124.753 127.958 125.433 128.742C126.061 129.526 126.897 130.154 127.787 130.625C128.676 131.095 129.67 131.304 130.768 131.304C131.867 131.304 132.913 131.095 133.854 130.625C134.796 130.154 135.685 129.526 136.365 128.69C137.045 127.853 137.621 126.86 138.039 125.761C138.457 124.611 138.667 123.408 138.667 122.049V121.996Z" fill="#231815"/>
</g>
<defs>
<clipPath id="clip0_858_1344">
<rect width="261.538" height="251" fill="white"/>
</clipPath>
</defs>
</svg>
