<svg width="263" height="251" viewBox="0 0 263 251" fill="none" xmlns="http://www.w3.org/2000/svg">
<g clip-path="url(#clip0_858_1593)">
<path d="M229.397 125.5C229.397 179.36 185.511 223.024 131.372 223.024C77.2338 223.024 33.3477 179.413 33.3477 125.5C33.3477 71.5873 77.2338 27.976 131.372 27.976C185.511 27.976 229.397 71.6396 229.397 125.5Z" fill="white"/>
<path d="M157.684 26.0412C157.684 40.4215 145.967 52.0825 131.478 52.0825C116.988 52.0825 105.271 40.4215 105.271 26.0412C105.271 11.661 116.988 0 131.478 0C145.915 0 157.684 11.661 157.684 26.0412Z" fill="#8D0D25"/>
<path d="M131.478 251C145.951 251 157.684 239.341 157.684 224.959C157.684 210.577 145.951 198.918 131.478 198.918C117.004 198.918 105.271 210.577 105.271 224.959C105.271 239.341 117.004 251 131.478 251Z" fill="#004D4B"/>
<path d="M208.004 39.5325C208.004 53.9127 196.287 65.5737 181.798 65.5737C167.309 65.5737 155.592 53.9127 155.592 39.5325C155.592 25.1523 167.309 13.4912 181.798 13.4912C196.235 13.4912 208.004 25.1523 208.004 39.5325Z" fill="#8C1C10"/>
<path d="M244.932 76.3458C244.932 90.726 233.215 102.439 218.778 102.439C204.341 102.439 192.572 90.7783 192.572 76.3981C192.572 62.0179 204.289 50.3046 218.726 50.3046C233.163 50.3046 244.932 61.9656 244.932 76.3458Z" fill="#813700"/>
<path d="M262.194 125.5C262.194 139.88 250.477 151.541 236.04 151.541C221.603 151.541 209.834 139.88 209.834 125.5C209.834 111.12 221.551 99.4588 235.988 99.4588C250.425 99.4588 262.194 111.12 262.194 125.5Z" fill="#63490D"/>
<path d="M244.253 174.497C244.253 188.877 232.536 200.539 218.099 200.539C203.662 200.539 191.945 188.877 191.945 174.497C191.945 160.117 203.662 148.456 218.099 148.456C232.536 148.456 244.305 160.117 244.305 174.497H244.253Z" fill="#42571C"/>
<path d="M208.004 211.572C208.004 225.952 196.287 237.613 181.798 237.613C167.309 237.613 155.592 225.952 155.592 211.572C155.592 197.192 167.309 185.531 181.798 185.531C196.235 185.531 208.004 197.192 208.004 211.572Z" fill="#005431"/>
<path d="M54.8477 39.5325C54.8477 53.9127 66.5646 65.5737 81.0538 65.5737C95.543 65.5737 107.26 53.9127 107.26 39.5325C107.26 25.1523 95.543 13.4912 81.0538 13.4912C66.6169 13.4912 54.8477 25.1523 54.8477 39.5325Z" fill="#8A0B3B"/>
<path d="M17.918 76.3458C17.918 90.726 29.6349 102.387 44.0718 102.387C58.5087 102.387 70.2779 90.726 70.2779 76.3458C70.2779 61.9656 58.561 50.3046 44.1241 50.3046C29.6872 50.3046 17.918 61.9656 17.918 76.3458Z" fill="#811051"/>
<path d="M0.65625 125.5C0.65625 139.88 12.3732 151.541 26.8101 151.541C41.247 151.541 53.0162 139.88 53.0162 125.5C53.0162 111.12 41.2993 99.4588 26.8624 99.4588C12.3732 99.4588 0.65625 111.12 0.65625 125.5Z" fill="#5C2471"/>
<path d="M18.5977 174.497C18.5977 188.877 30.3146 200.539 44.7515 200.539C59.1884 200.539 70.9053 188.877 70.9053 174.497C70.9053 160.117 59.1884 148.456 44.7515 148.456C30.3146 148.456 18.5977 160.117 18.5977 174.497Z" fill="#003E77"/>
<path d="M54.8477 211.572C54.8477 225.952 66.5646 237.613 81.0538 237.613C95.543 237.613 107.26 225.952 107.26 211.572C107.26 197.192 95.543 185.531 81.0538 185.531C66.6169 185.531 54.8477 197.192 54.8477 211.572Z" fill="#004A62"/>
<path d="M106.057 139.985C105.9 140.403 105.586 140.612 105.116 140.612H102.814C102.343 140.612 102.029 140.403 101.925 139.985L93.6602 115.774C93.6602 115.774 93.6602 115.46 93.6602 115.355C93.6602 115.251 93.8694 115.146 94.0786 115.146H96.1709C96.5371 115.146 96.8509 115.355 97.0078 115.826L103.965 137.37L111.236 115.826C111.236 115.826 111.392 115.46 111.549 115.355C111.706 115.251 111.863 115.146 112.072 115.146H114.165C114.165 115.146 114.479 115.199 114.583 115.355C114.688 115.512 114.688 115.669 114.583 115.774L105.952 139.985H106.057Z" fill="#231815"/>
<path d="M140.058 139.933C140.058 140.351 139.849 140.612 139.378 140.612H137.547C137.129 140.612 136.867 140.403 136.867 139.933V136.429C135.193 139.619 132.421 141.24 128.655 141.24C125.307 141.24 122.692 139.933 120.809 137.37C119.083 134.965 118.193 131.827 118.193 127.853C118.193 119.016 121.698 114.623 128.655 114.623C130.538 114.623 132.212 114.989 133.676 115.774C135.141 116.506 136.187 117.499 136.867 118.702V103.904C136.867 103.485 137.076 103.224 137.547 103.224H139.378C139.796 103.224 140.058 103.433 140.058 103.904V139.985V139.933ZM121.75 127.853C121.75 129.317 121.855 130.677 122.116 131.88C122.378 133.082 122.744 134.128 123.215 135.069C123.895 136.22 124.732 137.056 125.726 137.684C126.72 138.259 127.923 138.573 129.283 138.573C130.538 138.573 131.636 138.259 132.578 137.579C133.519 136.9 134.356 136.063 134.984 135.069C135.612 134.076 136.083 132.925 136.396 131.618C136.71 130.363 136.867 129.108 136.867 127.905C136.867 126.389 136.71 125.029 136.396 123.722C136.083 122.415 135.559 121.317 134.932 120.375C134.304 119.434 133.519 118.702 132.526 118.179C131.584 117.656 130.486 117.395 129.23 117.395C126.563 117.395 124.523 118.545 123.163 120.846C122.64 121.735 122.273 122.833 122.064 124.036C121.855 125.239 121.698 126.546 121.698 127.958L121.75 127.853Z" fill="#231815"/>
<path d="M147.642 115.826C147.642 115.408 147.851 115.146 148.322 115.146H150.101C150.519 115.146 150.781 115.355 150.781 115.826L150.571 119.382C151.199 118.022 152.245 116.872 153.762 116.035C155.227 115.199 157.005 114.78 158.941 114.78C160.771 114.78 162.393 115.094 163.648 115.774C164.904 116.454 166.002 117.342 166.839 118.493C167.676 119.643 168.304 121.003 168.67 122.572C169.088 124.14 169.245 125.814 169.245 127.592C169.245 129.526 169.036 131.357 168.565 133.03C168.094 134.703 167.467 136.115 166.578 137.37C165.688 138.625 164.642 139.566 163.334 140.246C162.027 140.926 160.562 141.292 158.836 141.292C156.901 141.292 155.279 140.926 153.867 140.194C152.507 139.462 151.461 138.416 150.728 137.109V147.201C150.728 147.619 150.519 147.881 150.048 147.881H148.27C148.27 147.881 147.904 147.829 147.799 147.672C147.642 147.567 147.59 147.41 147.59 147.201V115.878L147.642 115.826ZM165.793 127.539C165.793 126.232 165.688 125.029 165.427 123.827C165.165 122.624 164.747 121.526 164.171 120.585C163.596 119.643 162.811 118.859 161.87 118.284C160.928 117.709 159.725 117.395 158.365 117.395C157.058 117.395 155.959 117.656 155.018 118.179C154.076 118.702 153.291 119.434 152.664 120.375C152.036 121.317 151.565 122.362 151.251 123.617C150.938 124.82 150.781 126.127 150.781 127.539C150.781 131.2 151.461 133.919 152.821 135.801C154.181 137.684 156.011 138.625 158.313 138.625C159.516 138.625 160.562 138.364 161.504 137.841C162.445 137.318 163.23 136.586 163.858 135.592C164.485 134.599 165.008 133.448 165.322 132.089C165.636 130.729 165.793 129.213 165.793 127.539Z" fill="#231815"/>
</g>
<defs>
<clipPath id="clip0_858_1593">
<rect width="261.538" height="251" fill="white" transform="translate(0.65625)"/>
</clipPath>
</defs>
</svg>
