<svg width="262" height="251" viewBox="0 0 262 251" fill="none" xmlns="http://www.w3.org/2000/svg">
<g clip-path="url(#clip0_858_1469)">
<path d="M228.855 125.5C228.855 179.36 184.962 223.024 130.815 223.024C76.6683 223.024 32.7754 179.36 32.7754 125.5C32.7754 71.6396 76.6683 27.976 130.815 27.976C184.962 27.976 228.855 71.6396 228.855 125.5Z" fill="white"/>
<path d="M157.13 26.0412C157.13 40.4215 145.411 52.0825 130.92 52.0825C116.481 52.0825 104.71 40.4215 104.762 26.0412C104.762 11.661 116.481 0 130.972 0C145.464 0 157.182 11.661 157.182 26.0412H157.13Z" fill="#DA9F97"/>
<path d="M157.129 224.959C157.129 239.339 145.411 251 130.919 251C116.428 251 104.709 239.339 104.709 224.959C104.709 210.579 116.428 198.918 130.919 198.918C145.358 198.918 157.129 210.579 157.129 224.959Z" fill="#65B5B1"/>
<path d="M181.247 65.5738C195.723 65.5738 207.457 53.9147 207.457 39.5325C207.457 25.1503 195.723 13.4913 181.247 13.4913C166.772 13.4913 155.037 25.1503 155.037 39.5325C155.037 53.9147 166.772 65.5738 181.247 65.5738Z" fill="#DCA185"/>
<path d="M244.393 76.3458C244.393 90.726 232.674 102.387 218.183 102.439C203.691 102.439 191.973 90.7783 191.973 76.3981C191.973 62.0179 203.691 50.3569 218.183 50.3046C232.622 50.3046 244.393 61.9656 244.393 76.3458Z" fill="#D8A573"/>
<path d="M261.657 125.5C261.657 139.88 249.938 151.541 235.447 151.541C220.955 151.541 209.236 139.88 209.236 125.5C209.236 111.12 220.955 99.4587 235.447 99.4587C249.886 99.4587 261.657 111.12 261.657 125.5Z" fill="#C4B154"/>
<path d="M243.712 174.497C243.712 188.878 231.993 200.539 217.502 200.539C203.062 200.539 191.344 188.878 191.344 174.497C191.344 160.117 203.062 148.456 217.502 148.456C231.941 148.456 243.659 160.117 243.712 174.497Z" fill="#A6B75E"/>
<path d="M207.457 211.572C207.457 225.952 195.739 237.613 181.247 237.613C166.756 237.613 155.037 225.952 155.037 211.572C155.037 197.192 166.756 185.531 181.247 185.531C195.686 185.531 207.457 197.192 207.457 211.572Z" fill="#74B78F"/>
<path d="M80.4875 65.5738C94.963 65.5738 106.698 53.9147 106.698 39.5325C106.698 25.1503 94.963 13.4913 80.4875 13.4913C66.012 13.4913 54.2773 25.1503 54.2773 39.5325C54.2773 53.9147 66.012 65.5738 80.4875 65.5738Z" fill="#D8A0A3"/>
<path d="M17.3418 76.3458C17.3418 90.726 29.0605 102.387 43.552 102.387C57.9911 102.387 69.7621 90.726 69.7621 76.3458C69.7621 61.9656 58.0434 50.3046 43.552 50.3046C29.1128 50.3046 17.3418 61.9656 17.3418 76.3458Z" fill="#D5A0B0"/>
<path d="M0.078125 125.5C0.078125 139.88 11.7968 151.541 26.2883 151.541C40.7797 151.541 52.4985 139.88 52.4985 125.5C52.4985 111.12 40.7797 99.4587 26.2883 99.4587C11.8492 99.4587 0.130441 111.12 0.130441 125.5H0.078125Z" fill="#C0A8CC"/>
<path d="M18.0215 174.497C18.0215 188.878 29.7402 200.539 44.2317 200.539C58.6708 200.539 70.3895 188.878 70.3895 174.497C70.3895 160.117 58.6708 148.456 44.1793 148.456C29.7402 148.456 18.0215 160.117 18.0215 174.497Z" fill="#9DB0D4"/>
<path d="M54.2773 211.572C54.2773 225.952 65.9961 237.613 80.4875 237.613C94.979 237.613 106.698 225.952 106.698 211.572C106.698 197.192 94.979 185.531 80.4875 185.531C66.0484 185.531 54.2773 197.192 54.2773 211.572Z" fill="#7AB3CB"/>
<path d="M120.037 110.022C120.037 109.603 120.246 109.342 120.717 109.342H122.496C122.914 109.342 123.176 109.551 123.176 110.022L122.914 113.577C123.542 112.218 124.589 111.067 126.106 110.231C127.571 109.394 129.349 108.976 131.285 108.976C133.116 108.976 134.738 109.29 135.993 109.969C137.301 110.649 138.348 111.538 139.185 112.689C140.022 113.839 140.65 115.199 141.016 116.767C141.382 118.336 141.591 120.009 141.591 121.787C141.591 123.722 141.382 125.552 140.911 127.226C140.44 128.899 139.812 130.311 138.923 131.566C138.034 132.821 136.987 133.762 135.68 134.442C134.372 135.122 132.907 135.488 131.233 135.488C129.297 135.488 127.675 135.122 126.315 134.39C124.955 133.657 123.856 132.612 123.176 131.304V141.397C123.176 141.815 122.967 142.076 122.496 142.076H120.717C120.717 142.076 120.351 142.024 120.246 141.867C120.089 141.763 120.037 141.606 120.037 141.397V110.074V110.022ZM138.191 121.735C138.191 120.428 138.086 119.225 137.824 118.022C137.563 116.82 137.144 115.721 136.569 114.78C135.993 113.839 135.209 113.055 134.267 112.479C133.325 111.904 132.174 111.59 130.762 111.59C129.454 111.59 128.355 111.852 127.414 112.375C126.472 112.898 125.687 113.63 125.059 114.571C124.432 115.512 123.961 116.558 123.647 117.813C123.333 119.016 123.176 120.323 123.176 121.735C123.176 125.395 123.856 128.115 125.216 129.997C126.577 131.88 128.408 132.821 130.71 132.821C131.913 132.821 132.959 132.559 133.901 132.036C134.842 131.514 135.627 130.781 136.255 129.788C136.883 128.794 137.406 127.644 137.72 126.284C138.034 124.925 138.191 123.408 138.191 121.735Z" fill="#231815"/>
</g>
<defs>
<clipPath id="clip0_858_1469">
<rect width="261.579" height="251" fill="white" transform="translate(0.078125)"/>
</clipPath>
</defs>
</svg>
