<svg width="262" height="251" viewBox="0 0 262 251" fill="none" xmlns="http://www.w3.org/2000/svg">
<g clip-path="url(#clip0_858_1530)">
<path d="M228.936 125.5C228.936 179.36 185.05 223.024 130.911 223.024C76.7728 223.024 32.8867 179.36 32.8867 125.5C32.8867 71.6396 76.7728 27.976 130.911 27.976C185.05 27.976 228.936 71.6396 228.936 125.5Z" fill="white"/>
<path d="M157.223 26.0412C157.223 40.4215 145.506 52.0825 131.017 52.0825C116.58 52.0825 104.811 40.4215 104.863 26.0412C104.863 11.661 116.58 0 131.07 0C145.559 0 157.276 11.661 157.276 26.0412H157.223Z" fill="#C4837B"/>
<path d="M157.223 224.959C157.223 239.339 145.506 251 131.069 251C116.632 251 104.863 239.339 104.863 224.959C104.863 210.579 116.58 198.918 131.017 198.918C145.454 198.918 157.223 210.579 157.223 224.959Z" fill="#3E9C93"/>
<path d="M207.544 39.5325C207.544 53.9127 195.827 65.5738 181.337 65.5738C166.901 65.5738 155.184 53.9127 155.184 39.5325C155.184 25.1523 166.901 13.4913 181.337 13.4913C195.774 13.4913 207.544 25.1523 207.544 39.5325Z" fill="#C48669"/>
<path d="M244.473 76.3458C244.473 90.726 232.756 102.387 218.267 102.387C203.777 102.387 192.061 90.726 192.061 76.3458C192.061 61.9656 203.777 50.3046 218.267 50.3046C232.704 50.3046 244.473 61.9656 244.473 76.3458Z" fill="#C18C57"/>
<path d="M261.733 125.5C261.733 139.88 250.016 151.541 235.579 151.541C221.142 151.541 209.373 139.88 209.373 125.5C209.373 111.12 221.09 99.4587 235.527 99.4587C249.964 99.4587 261.733 111.12 261.733 125.5Z" fill="#AD973B"/>
<path d="M243.792 174.497C243.792 188.878 232.075 200.539 217.638 200.539C203.201 200.539 191.432 188.878 191.432 174.497C191.432 160.117 203.149 148.456 217.585 148.456C232.022 148.456 243.792 160.117 243.792 174.497Z" fill="#899D46"/>
<path d="M207.544 211.572C207.544 225.952 195.827 237.613 181.337 237.613C166.848 237.613 155.184 225.952 155.184 211.572C155.184 197.192 166.901 185.531 181.337 185.531C195.774 185.531 207.491 197.192 207.544 211.572Z" fill="#559E76"/>
<path d="M54.439 39.5325C54.439 53.9127 66.1559 65.5738 80.6452 65.5738C95.0821 65.5738 106.851 53.9127 106.799 39.5325C106.799 25.1523 95.0821 13.4913 80.5928 13.4913C66.1036 13.4913 54.3867 25.1523 54.3867 39.5325H54.439Z" fill="#C18286"/>
<path d="M17.457 76.3458C17.457 90.726 29.1739 102.387 43.6632 102.387C58.1524 102.387 69.8693 90.726 69.8693 76.3458C69.8693 61.9656 58.1524 50.3046 43.6632 50.3046C29.2263 50.3046 17.457 61.9656 17.457 76.3458Z" fill="#BB8293"/>
<path d="M0.195312 125.5C0.195312 139.88 11.9122 151.541 26.3491 151.541C40.786 151.541 52.5553 139.88 52.5553 125.5C52.5553 111.12 40.8383 99.4587 26.4014 99.4587C11.9122 99.4587 0.195312 111.12 0.195312 125.5Z" fill="#A58AB0"/>
<path d="M18.1367 174.497C18.1367 188.878 29.8536 200.539 44.2905 200.539C58.7274 200.539 70.4967 188.878 70.4967 174.497C70.4967 160.117 58.7797 148.456 44.3428 148.456C29.9059 148.456 18.189 160.117 18.189 174.497H18.1367Z" fill="#7D93B9"/>
<path d="M54.4375 211.572C54.4375 225.952 66.1544 237.613 80.6436 237.613C95.1328 237.613 106.85 225.952 106.85 211.572C106.85 197.192 95.1328 185.531 80.6436 185.531C66.2067 185.531 54.4375 197.192 54.4375 211.572Z" fill="#5796B1"/>
<path d="M114.854 141.083C116.789 141.867 118.725 142.233 120.765 142.233C122.438 142.233 123.851 141.815 124.949 140.978C126.048 140.142 126.623 139.044 126.623 137.632C126.623 136.795 126.309 136.011 125.682 135.279C125.054 134.494 124.322 133.867 123.432 133.396C122.438 132.873 121.445 132.35 120.451 131.88C119.457 131.409 118.463 130.886 117.522 130.363C116.371 129.736 115.534 128.951 115.011 128.01C114.488 127.069 114.226 126.127 114.226 125.134C114.226 123.984 114.435 122.938 114.906 122.101C115.377 121.264 115.952 120.48 116.685 119.905C117.417 119.33 118.306 118.859 119.3 118.597C120.294 118.336 121.392 118.179 122.491 118.179C123.694 118.179 124.74 118.231 125.577 118.388C126.466 118.493 127.355 118.702 128.192 118.964C128.402 119.016 128.558 119.12 128.663 119.225C128.82 119.33 128.872 119.539 128.82 119.748L128.663 121.16C128.663 121.16 128.558 121.578 128.402 121.63C128.245 121.683 128.088 121.683 127.931 121.63C127.146 121.369 126.362 121.16 125.577 121.055C124.792 120.951 123.851 120.898 122.752 120.898C119.091 120.898 117.312 122.362 117.312 125.239C117.312 125.866 117.574 126.441 118.045 127.016C118.515 127.592 119.352 128.167 120.503 128.69C121.497 129.213 122.491 129.683 123.485 130.102C124.478 130.52 125.525 131.095 126.623 131.723C127.617 132.246 128.402 133.082 129.029 134.18C129.657 135.279 129.971 136.481 129.971 137.736C129.971 138.991 129.709 140.089 129.238 140.978C128.715 141.867 128.035 142.652 127.198 143.227C126.362 143.802 125.368 144.273 124.269 144.586C123.171 144.9 122.02 145.057 120.869 145.057C120.189 145.057 119.562 145.057 118.986 145.057C118.463 145.057 117.94 144.952 117.417 144.9C116.946 144.848 116.423 144.743 115.952 144.691C115.429 144.586 114.906 144.482 114.331 144.325C113.912 144.168 113.703 143.907 113.703 143.488L113.912 141.763C113.965 141.24 114.226 141.083 114.645 141.292L114.854 141.083Z" fill="#231815"/>
<path d="M147.441 106.361C147.86 106.466 148.017 106.832 148.017 107.355L147.912 108.714C147.912 108.714 147.807 109.028 147.703 109.08C147.598 109.08 147.441 109.08 147.284 109.08C146.918 108.976 146.604 108.871 146.343 108.819C146.081 108.819 145.715 108.767 145.349 108.767C143.518 108.767 142.315 109.708 141.792 111.538C141.583 112.27 141.478 113.944 141.478 116.506V118.754H146.657C147.075 118.754 147.337 118.964 147.337 119.434V120.846C147.337 121.264 147.127 121.526 146.657 121.526H141.478V143.593C141.478 144.011 141.269 144.273 140.798 144.273H138.967C138.549 144.273 138.287 144.064 138.287 143.593V121.526H133.737C133.318 121.526 133.057 121.317 133.057 120.846V119.434C133.057 119.016 133.266 118.754 133.737 118.754H138.287V116.82C138.287 113.421 138.601 110.963 139.229 109.446C140.223 107.198 142.158 106.047 145.087 106.047C145.977 106.047 146.814 106.152 147.494 106.361H147.441Z" fill="#231815"/>
</g>
<defs>
<clipPath id="clip0_858_1530">
<rect width="261.538" height="251" fill="white" transform="translate(0.195312)"/>
</clipPath>
</defs>
</svg>
