<svg width="262" height="251" viewBox="0 0 262 251" fill="none" xmlns="http://www.w3.org/2000/svg">
<g clip-path="url(#clip0_858_1615)">
<path d="M228.688 125.552C228.688 179.413 184.802 223.076 130.664 223.076C76.5252 223.076 32.6914 179.413 32.6914 125.552C32.6914 71.6919 76.5252 28.0283 130.664 28.0283C184.802 28.0283 228.688 71.6919 228.688 125.552Z" fill="white"/>
<path d="M157.027 26.0412C157.027 40.4215 145.311 52.0825 130.821 52.0825C116.332 52.0825 104.615 40.4215 104.615 26.0412C104.615 11.661 116.384 0 130.821 0C145.258 0 157.027 11.661 157.027 26.0412Z" fill="#CE3A3E"/>
<path d="M157.028 224.959C157.028 239.339 145.311 251 130.822 251C116.385 251 104.616 239.339 104.668 224.959C104.668 210.579 116.385 198.918 130.874 198.918C145.311 198.918 157.08 210.579 157.08 224.959H157.028Z" fill="#008C88"/>
<path d="M207.348 39.5325C207.348 53.9127 195.631 65.5737 181.142 65.5737C166.705 65.5737 154.988 53.9127 154.988 39.5325C154.988 25.1523 166.705 13.4912 181.142 13.4912C195.579 13.4912 207.348 25.1523 207.348 39.5325Z" fill="#CE3F2C"/>
<path d="M244.276 76.2935C244.276 90.6737 232.559 102.335 218.07 102.335C203.581 102.335 191.916 90.6737 191.916 76.2935C191.916 61.9133 203.633 50.2523 218.07 50.2523C232.507 50.2523 244.276 61.9133 244.276 76.2935Z" fill="#F09100"/>
<path d="M261.538 125.5C261.538 139.88 249.821 151.541 235.384 151.541C220.947 151.541 209.23 139.88 209.23 125.5C209.23 111.12 220.947 99.4588 235.384 99.4588C249.821 99.4588 261.59 111.12 261.59 125.5H261.538Z" fill="#FDD300"/>
<path d="M243.596 174.497C243.596 188.877 231.879 200.539 217.442 200.539C203.006 200.539 191.236 188.877 191.236 174.497C191.236 160.117 202.953 148.456 217.39 148.456C231.827 148.456 243.596 160.117 243.596 174.497Z" fill="#A5C210"/>
<path d="M207.348 211.572C207.348 225.952 195.631 237.613 181.142 237.613C166.653 237.613 154.988 225.952 154.988 211.572C154.988 197.192 166.705 185.531 181.142 185.531C195.579 185.531 207.348 197.192 207.348 211.572Z" fill="#2F9E6F"/>
<path d="M54.2422 39.5325C54.2422 53.9127 65.9591 65.5737 80.4483 65.5737C94.8852 65.5737 106.602 53.9127 106.602 39.5325C106.602 25.1523 94.8852 13.4912 80.4483 13.4912C66.0114 13.4912 54.2945 25.1523 54.2945 39.5325H54.2422Z" fill="#CA385F"/>
<path d="M17.3145 76.2935C17.3145 90.6737 29.0314 102.335 43.5206 102.335C58.0098 102.335 69.7267 90.6737 69.7267 76.2935C69.7267 61.9133 58.0098 50.2523 43.5206 50.2523C29.0837 50.2523 17.3668 61.9133 17.3668 76.2935H17.3145Z" fill="#C1397A"/>
<path d="M0 125.5C0 139.88 11.7169 151.541 26.1538 151.541C40.5907 151.541 52.3076 139.88 52.3076 125.5C52.3076 111.12 40.5907 99.4588 26.1538 99.4588C11.7169 99.4588 0 111.12 0 125.5Z" fill="#96519B"/>
<path d="M17.9414 174.497C17.9414 188.877 29.6583 200.539 44.0952 200.539C58.5321 200.539 70.3013 188.877 70.3013 174.497C70.3013 160.117 58.5844 148.456 44.1475 148.456C29.7106 148.456 17.9414 160.117 17.9414 174.497Z" fill="#006BB8"/>
<path d="M54.2422 211.572C54.2422 225.952 65.9591 237.613 80.4483 237.613C94.9375 237.613 106.602 225.952 106.602 211.572C106.602 197.192 94.8852 185.531 80.4483 185.531C66.0114 185.531 54.2945 197.192 54.2945 211.572H54.2422Z" fill="#0083BD"/>
<path d="M132.653 137.632C132.496 138.05 132.182 138.259 131.711 138.259H129.41C128.939 138.259 128.625 138.05 128.52 137.632L120.256 113.421C120.256 113.421 120.256 113.107 120.256 113.002C120.256 112.898 120.465 112.793 120.674 112.793H122.767C123.133 112.793 123.447 113.002 123.604 113.473L130.56 135.017L137.831 113.473C137.831 113.473 137.988 113.107 138.145 113.002C138.302 112.898 138.459 112.793 138.668 112.793H140.76C140.76 112.793 141.074 112.845 141.179 113.002C141.284 113.159 141.284 113.316 141.179 113.421L132.548 137.632H132.653Z" fill="#231815"/>
</g>
<defs>
<clipPath id="clip0_858_1615">
<rect width="261.538" height="251" fill="white"/>
</clipPath>
</defs>
</svg>
