<svg width="264" height="251" viewBox="0 0 264 251" fill="none" xmlns="http://www.w3.org/2000/svg">
<g clip-path="url(#clip0_858_1448)">
<path d="M230.158 125.5C230.158 179.36 186.103 223.024 131.757 223.024C77.4117 223.024 33.3574 179.36 33.3574 125.5C33.3574 71.6396 77.4117 28.0283 131.757 28.0283C186.103 28.0283 230.158 71.6919 230.158 125.552V125.5Z" fill="white"/>
<path d="M158.168 26.0412C158.168 40.4215 146.406 52.0825 131.861 52.0825C117.369 52.0825 105.555 40.4215 105.555 26.0412C105.555 11.661 117.316 0 131.861 0C146.353 0 158.168 11.661 158.168 26.0412Z" fill="#E9C3BD"/>
<path d="M158.168 224.959C158.168 239.339 146.406 251 131.861 251C117.369 251 105.555 239.339 105.555 224.959C105.555 210.579 117.316 198.918 131.861 198.918C146.353 198.918 158.115 210.579 158.168 224.959Z" fill="#A0D1CD"/>
<path d="M208.681 39.5325C208.681 53.9127 196.92 65.5738 182.375 65.5738C167.883 65.5738 156.068 53.9127 156.068 39.5325C156.068 25.1523 167.83 13.4913 182.375 13.4913C196.867 13.4913 208.681 25.1523 208.681 39.5325Z" fill="#EAC3B1"/>
<path d="M245.752 76.3458C245.752 90.726 233.99 102.387 219.445 102.387C204.9 102.387 193.139 90.726 193.139 76.3458C193.139 61.9656 204.9 50.3046 219.445 50.3046C233.99 50.3046 245.752 61.9656 245.752 76.3458Z" fill="#E8C6A4"/>
<path d="M263.08 125.5C263.08 139.88 251.318 151.541 236.773 151.541C222.281 151.541 210.467 139.88 210.467 125.5C210.467 111.12 222.229 99.4587 236.773 99.4587C251.266 99.4587 263.08 111.12 263.08 125.5Z" fill="#D8CC91"/>
<path d="M245.068 174.497C245.068 188.878 233.307 200.539 218.762 200.539C204.27 200.539 192.508 188.878 192.508 174.497C192.508 160.117 204.27 148.456 218.762 148.456C233.254 148.456 245.068 160.117 245.068 174.497Z" fill="#C6D092"/>
<path d="M208.681 211.572C208.681 225.952 196.92 237.613 182.375 237.613C167.883 237.613 156.068 225.952 156.068 211.572C156.068 197.192 167.83 185.531 182.375 185.531C196.867 185.531 208.681 197.192 208.681 211.572Z" fill="#A7D2B3"/>
<path d="M54.9375 39.5325C54.9375 53.9127 66.6993 65.5738 81.244 65.5738C95.7363 65.5738 107.551 53.9127 107.551 39.5325C107.551 25.1523 95.7888 13.4913 81.244 13.4913C66.7518 13.4913 54.9375 25.1523 54.9375 39.5325Z" fill="#E7C4C5"/>
<path d="M17.8672 76.3458C17.8672 90.726 29.629 102.387 44.1737 102.387C58.6659 102.387 70.4802 90.726 70.4802 76.3458C70.4802 61.9656 58.7184 50.3046 44.1737 50.3046C29.6815 50.3046 17.8672 61.9656 17.8672 76.3458Z" fill="#E3C5CD"/>
<path d="M0.539062 125.5C0.539062 139.88 12.3009 151.541 26.8456 151.541C41.3378 151.541 53.1521 139.88 53.1521 125.5C53.1521 111.12 41.3903 99.4587 26.8456 99.4587C12.3534 99.4587 0.591571 111.12 0.539062 125.5Z" fill="#D7C9DF"/>
<path d="M18.5488 174.497C18.5488 188.878 30.3106 200.539 44.8554 200.539C59.3476 200.539 71.1619 188.878 71.1619 174.497C71.1619 160.117 59.4001 148.456 44.8554 148.456C30.3631 148.456 18.5488 160.117 18.5488 174.497Z" fill="#C1CDE4"/>
<path d="M54.9375 211.572C54.9375 225.952 66.6993 237.613 81.244 237.613C95.7363 237.613 107.551 225.952 107.551 211.572C107.551 197.192 95.7888 185.531 81.244 185.531C66.7518 185.531 54.9375 197.192 54.9375 211.572Z" fill="#AED0DE"/>
<path d="M115.531 115.826C115.531 115.408 115.741 115.146 116.214 115.146H117.999C118.419 115.146 118.682 115.355 118.682 115.826L118.419 119.382C119.049 118.022 120.099 116.872 121.622 116.035C123.092 115.199 124.878 114.78 126.82 114.78C128.658 114.78 130.286 115.094 131.546 115.774C132.859 116.454 133.909 117.342 134.749 118.493C135.589 119.643 136.219 121.003 136.587 122.572C136.955 124.14 137.165 125.814 137.165 127.592C137.165 129.526 136.955 131.357 136.482 133.03C136.009 134.703 135.379 136.115 134.487 137.37C133.594 138.625 132.544 139.566 131.231 140.246C129.918 140.926 128.448 141.292 126.768 141.292C124.825 141.292 123.197 140.926 121.832 140.194C120.467 139.462 119.364 138.416 118.682 137.109V147.201C118.682 147.619 118.472 147.881 117.999 147.881H116.214C116.214 147.881 115.846 147.829 115.741 147.672C115.584 147.567 115.531 147.41 115.531 147.201V115.878V115.826ZM133.752 127.539C133.752 126.232 133.647 125.029 133.384 123.827C133.121 122.624 132.701 121.526 132.124 120.585C131.546 119.643 130.759 118.859 129.813 118.284C128.868 117.709 127.713 117.395 126.295 117.395C124.983 117.395 123.88 117.656 122.935 118.179C121.99 118.702 121.202 119.434 120.572 120.375C119.942 121.317 119.469 122.362 119.154 123.617C118.839 124.82 118.682 126.127 118.682 127.539C118.682 131.2 119.364 133.919 120.73 135.801C122.095 137.684 123.933 138.625 126.243 138.625C127.451 138.625 128.501 138.364 129.446 137.841C130.391 137.318 131.179 136.586 131.809 135.592C132.439 134.599 132.964 133.448 133.279 132.089C133.594 130.729 133.752 129.213 133.752 127.539Z" fill="#231815"/>
<path d="M147.457 140.612H145.356C144.936 140.612 144.674 140.403 144.674 139.932V103.851C144.674 103.433 144.884 103.171 145.356 103.171H147.457C147.877 103.171 148.139 103.381 148.139 103.851V139.932C148.139 140.351 147.929 140.612 147.457 140.612Z" fill="#231815"/>
</g>
<defs>
<clipPath id="clip0_858_1448">
<rect width="262.54" height="251" fill="white" transform="translate(0.539062)"/>
</clipPath>
</defs>
</svg>
