<svg width="263" height="251" viewBox="0 0 263 251" fill="none" xmlns="http://www.w3.org/2000/svg">
<g clip-path="url(#clip0_858_1386)">
<path d="M229.397 125.552C229.397 179.413 185.511 223.076 131.373 223.076C77.2342 223.076 33.3481 179.413 33.4004 125.552C33.4004 71.6919 77.2865 28.0283 131.425 28.0283C185.563 28.0283 229.449 71.6919 229.449 125.552H229.397Z" fill="white"/>
<path d="M157.684 26.0412C157.684 40.4215 145.967 52.0825 131.478 52.0825C117.041 52.0825 105.324 40.4215 105.324 26.0412C105.324 11.661 117.041 0 131.478 0C145.915 0 157.632 11.661 157.632 26.0412H157.684Z" fill="#E4968C"/>
<path d="M157.684 224.959C157.684 239.339 145.967 251 131.478 251C117.041 251 105.324 239.339 105.324 224.959C105.324 210.579 117.041 198.918 131.478 198.918C145.915 198.918 157.632 210.579 157.632 224.959H157.684Z" fill="#38B4B4"/>
<path d="M208.005 39.5325C208.005 53.9127 196.288 65.5738 181.799 65.5738C167.362 65.5738 155.592 53.9127 155.645 39.5325C155.645 25.1523 167.362 13.4913 181.851 13.4913C196.288 13.4913 208.005 25.1523 208.005 39.5325Z" fill="#E69875"/>
<path d="M244.934 76.3458C244.934 90.726 233.217 102.387 218.728 102.387C204.238 102.387 192.521 90.726 192.521 76.3458C192.521 61.9656 204.238 50.3046 218.728 50.3046C233.165 50.3046 244.934 61.9656 244.934 76.3458Z" fill="#E0A05C"/>
<path d="M262.194 125.552C262.194 139.933 250.477 151.594 235.988 151.594C221.551 151.594 209.782 139.933 209.834 125.552C209.834 111.172 221.551 99.511 236.04 99.511C250.477 99.511 262.246 111.172 262.194 125.552Z" fill="#E1C82C"/>
<path d="M244.253 174.497C244.253 188.878 232.536 200.539 218.099 200.539C203.662 200.539 191.893 188.878 191.893 174.497C191.893 160.117 203.609 148.456 218.046 148.456C232.483 148.456 244.253 160.117 244.253 174.497Z" fill="#9FB742"/>
<path d="M208.004 211.572C208.004 225.952 196.287 237.613 181.798 237.613C167.309 237.613 155.592 225.952 155.592 211.572C155.592 197.192 167.309 185.531 181.798 185.531C196.235 185.531 207.952 197.192 207.952 211.572H208.004Z" fill="#5AB687"/>
<path d="M54.8477 39.5325C54.8477 53.9127 66.5646 65.5738 81.0538 65.5738C95.4907 65.5738 107.26 53.9127 107.208 39.5325C107.208 25.1523 95.4907 13.4913 81.0015 13.4913C66.5646 13.4913 54.8477 25.1523 54.8477 39.5325Z" fill="#E2969F"/>
<path d="M17.918 76.3458C17.918 90.726 29.6349 102.387 44.1241 102.387C58.6133 102.387 70.3302 90.726 70.3302 76.3458C70.3302 61.9656 58.6133 50.3046 44.1241 50.3046C29.6872 50.3046 17.9703 61.9656 17.9703 76.3458H17.918Z" fill="#DE98B0"/>
<path d="M0.65625 125.552C0.65625 139.933 12.3732 151.594 26.8624 151.594C41.2993 151.594 53.0685 139.933 53.0162 125.552C53.0162 111.172 41.2993 99.511 26.8624 99.511C12.3732 99.511 0.65625 111.172 0.65625 125.552Z" fill="#C3A4CC"/>
<path d="M18.5972 174.497C18.5972 188.878 30.3141 200.539 44.751 200.539C59.188 200.539 70.9049 188.878 70.9049 174.497C70.9049 160.117 59.188 148.456 44.751 148.456C30.3141 148.456 18.5449 160.117 18.5449 174.497H18.5972Z" fill="#93AFDB"/>
<path d="M54.8477 211.572C54.8477 225.952 66.5646 237.613 81.0538 237.613C95.543 237.613 107.26 225.952 107.26 211.572C107.26 197.192 95.543 185.531 81.0538 185.531C66.6169 185.531 54.9 197.192 54.9 211.572H54.8477Z" fill="#5DB1D6"/>
<path d="M122.22 143.802H120.127C119.709 143.802 119.447 143.593 119.447 143.122V107.041C119.447 106.623 119.657 106.361 120.127 106.361H122.22C122.638 106.361 122.9 106.57 122.9 107.041V143.122C122.9 143.541 122.69 143.802 122.22 143.802Z" fill="#231815"/>
<path d="M142.777 143.854C141.47 144.325 140.162 144.534 138.854 144.534C136.291 144.534 134.617 143.697 133.833 142.024C133.31 140.874 133.048 138.887 133.048 136.063V121.055H128.602C128.183 121.055 127.922 120.846 127.922 120.375V118.964C127.922 118.545 128.131 118.284 128.602 118.284H133.048V111.956C133.048 111.486 133.257 111.277 133.676 111.277H135.663C136.082 111.277 136.291 111.486 136.291 111.956V118.284H141.522C141.94 118.284 142.202 118.493 142.202 118.964V120.375C142.202 120.794 141.993 121.055 141.522 121.055H136.291V137.684C136.291 140.455 137.442 141.867 139.691 141.867C140.58 141.867 141.574 141.658 142.673 141.292C142.83 141.24 142.986 141.24 143.143 141.292C143.3 141.344 143.353 141.501 143.353 141.658L143.457 142.861C143.51 143.279 143.353 143.593 142.882 143.802L142.777 143.854Z" fill="#231815"/>
</g>
<defs>
<clipPath id="clip0_858_1386">
<rect width="261.538" height="251" fill="white" transform="translate(0.65625)"/>
</clipPath>
</defs>
</svg>
