<svg width="1714" height="1800" viewBox="0 0 1714 1800" fill="none" xmlns="http://www.w3.org/2000/svg">
<path opacity="0.6" d="M1574.94 1550.12H1605.5V1554.36H1574.94V1550.12ZM1573.54 1574.56H1607.06V1578.84H1573.54V1574.56ZM1587.58 1569.68H1592.86V1576.24H1587.58V1569.68ZM1590.18 1555.96C1597.9 1555.96 1602.74 1558.64 1602.74 1563.2C1602.74 1567.76 1597.9 1570.44 1590.18 1570.44C1582.46 1570.44 1577.62 1567.76 1577.62 1563.2C1577.62 1558.64 1582.46 1555.96 1590.18 1555.96ZM1590.18 1560.08C1585.54 1560.08 1583.06 1561.08 1583.06 1563.2C1583.06 1565.32 1585.54 1566.28 1590.18 1566.28C1594.82 1566.28 1597.3 1565.32 1597.3 1563.2C1597.3 1561.08 1594.82 1560.08 1590.18 1560.08ZM1587.58 1545.92H1592.86V1552.76H1587.58V1545.92Z" fill="black"/>
<path opacity="0.6" d="M1560.07 1579.56C1554.39 1579.56 1550.19 1576.32 1550.19 1571.68C1550.19 1567.88 1552.51 1565.36 1555.23 1563.92V1563.76C1552.99 1562.12 1551.31 1559.84 1551.31 1556.72C1551.31 1551.96 1555.11 1548.92 1560.27 1548.92C1565.51 1548.92 1568.87 1552.04 1568.87 1556.76C1568.87 1559.72 1566.99 1562.16 1565.07 1563.56V1563.76C1567.79 1565.24 1570.03 1567.6 1570.03 1571.68C1570.03 1576.16 1566.03 1579.56 1560.07 1579.56ZM1561.95 1562.12C1563.39 1560.6 1564.07 1558.92 1564.07 1557.16C1564.07 1554.72 1562.59 1553.04 1560.15 1553.04C1558.11 1553.04 1556.51 1554.36 1556.51 1556.72C1556.51 1559.48 1558.83 1560.88 1561.95 1562.12ZM1560.19 1575.4C1562.75 1575.4 1564.55 1574 1564.55 1571.44C1564.55 1568.36 1561.79 1567.12 1557.99 1565.52C1556.35 1566.8 1555.23 1568.8 1555.23 1571C1555.23 1573.68 1557.43 1575.4 1560.19 1575.4Z" fill="black"/>
<path opacity="0.6" d="M1537.31 1579.56C1531.71 1579.56 1526.67 1575.04 1526.67 1564.6C1526.67 1553.6 1532.15 1548.88 1538.15 1548.88C1541.75 1548.88 1544.39 1550.36 1546.19 1552.24L1543.03 1555.72C1542.03 1554.56 1540.19 1553.6 1538.51 1553.6C1534.91 1553.6 1532.07 1556.36 1532.07 1564.6C1532.07 1572.28 1534.31 1575.12 1537.23 1575.12C1539.43 1575.12 1541.23 1573.28 1541.23 1569.68C1541.23 1566.16 1539.55 1564.56 1537.03 1564.56C1535.39 1564.56 1533.51 1565.44 1532.03 1567.88L1531.79 1563.88C1533.35 1561.68 1536.11 1560.4 1538.11 1560.4C1543.07 1560.4 1546.63 1563.32 1546.63 1569.68C1546.63 1575.76 1542.35 1579.56 1537.31 1579.56Z" fill="black"/>
<path opacity="0.6" d="M1514.56 1579V1560.8C1514.56 1559.08 1514.72 1556.4 1514.8 1554.64H1514.64C1513.88 1556.24 1513.08 1557.88 1512.24 1559.48L1507.68 1566.84H1523.56V1571.36H1501.96V1567.32L1512.96 1549.4H1520.04V1579H1514.56Z" fill="black"/>
<path opacity="0.6" d="M1489.29 1579.56C1483.61 1579.56 1479.41 1576.32 1479.41 1571.68C1479.41 1567.88 1481.73 1565.36 1484.45 1563.92V1563.76C1482.21 1562.12 1480.53 1559.84 1480.53 1556.72C1480.53 1551.96 1484.33 1548.92 1489.49 1548.92C1494.73 1548.92 1498.09 1552.04 1498.09 1556.76C1498.09 1559.72 1496.21 1562.16 1494.29 1563.56V1563.76C1497.01 1565.24 1499.25 1567.6 1499.25 1571.68C1499.25 1576.16 1495.25 1579.56 1489.29 1579.56ZM1491.17 1562.12C1492.61 1560.6 1493.29 1558.92 1493.29 1557.16C1493.29 1554.72 1491.81 1553.04 1489.37 1553.04C1487.33 1553.04 1485.73 1554.36 1485.73 1556.72C1485.73 1559.48 1488.05 1560.88 1491.17 1562.12ZM1489.41 1575.4C1491.97 1575.4 1493.77 1574 1493.77 1571.44C1493.77 1568.36 1491.01 1567.12 1487.21 1565.52C1485.57 1566.8 1484.45 1568.8 1484.45 1571C1484.45 1573.68 1486.65 1575.4 1489.41 1575.4Z" fill="black"/>
<path opacity="0.6" d="M1467.37 1579V1560.8C1467.37 1559.08 1467.53 1556.4 1467.61 1554.64H1467.45C1466.69 1556.24 1465.89 1557.88 1465.05 1559.48L1460.49 1566.84H1476.37V1571.36H1454.77V1567.32L1465.77 1549.4H1472.85V1579H1467.37Z" fill="black"/>
<path opacity="0.6" d="M1432.02 1579V1575.64C1440.1 1568.4 1444.82 1562.84 1444.82 1558.28C1444.82 1555.32 1443.26 1553.48 1440.42 1553.48C1438.22 1553.48 1436.5 1554.88 1434.98 1556.56L1431.74 1553.36C1434.46 1550.44 1437.14 1548.88 1441.18 1548.88C1446.74 1548.88 1450.5 1552.44 1450.5 1557.96C1450.5 1563.36 1446.02 1569.12 1440.62 1574.4C1442.1 1574.24 1444.06 1574.04 1445.46 1574.04H1451.86V1579H1432.02Z" fill="black"/>
<path opacity="0.6" d="M1408.43 1579V1575.64C1416.51 1568.4 1421.23 1562.84 1421.23 1558.28C1421.23 1555.32 1419.67 1553.48 1416.83 1553.48C1414.63 1553.48 1412.91 1554.88 1411.39 1556.56L1408.15 1553.36C1410.87 1550.44 1413.55 1548.88 1417.59 1548.88C1423.15 1548.88 1426.91 1552.44 1426.91 1557.96C1426.91 1563.36 1422.43 1569.12 1417.03 1574.4C1418.51 1574.24 1420.47 1574.04 1421.87 1574.04H1428.27V1579H1408.43Z" fill="black"/>
<path opacity="0.6" d="M1393.86 1569.68V1565.48H1404.82V1569.68H1393.86Z" fill="black"/>
<path opacity="0.6" d="M1380.15 1579.56C1374.11 1579.56 1370.11 1574.32 1370.11 1564.08C1370.11 1553.88 1374.11 1548.88 1380.15 1548.88C1386.15 1548.88 1390.15 1553.88 1390.15 1564.08C1390.15 1574.32 1386.15 1579.56 1380.15 1579.56ZM1380.15 1574.96C1382.71 1574.96 1384.59 1572.4 1384.59 1564.08C1384.59 1555.8 1382.71 1553.4 1380.15 1553.4C1377.59 1553.4 1375.67 1555.8 1375.67 1564.08C1375.67 1572.4 1377.59 1574.96 1380.15 1574.96Z" fill="black"/>
<path opacity="0.6" d="M1347.99 1579V1574.24H1354.39V1555.52H1348.99V1551.88C1351.99 1551.32 1353.99 1550.56 1355.91 1549.4H1360.27V1574.24H1365.83V1579H1347.99Z" fill="black"/>
<path opacity="0.6" d="M1336.32 1545.52H1341.36V1582.56H1336.32V1545.52ZM1324.12 1558.16H1330.24V1562.48H1324.12V1558.16ZM1328.84 1546.12H1333.8V1580.88H1328.84V1546.12ZM1316.12 1551.56H1320.12V1555.36C1320.12 1563.68 1317.84 1571.96 1311.96 1575.64L1308.8 1571.72C1314.24 1568.32 1316.12 1561.68 1316.12 1555.36V1551.56ZM1317.32 1551.56H1321.28V1555.36C1321.28 1561.52 1323.12 1567.76 1328.48 1570.88L1325.36 1574.76C1319.48 1571.28 1317.32 1563.52 1317.32 1555.36V1551.56ZM1310.2 1549.24H1326.72V1553.52H1310.2V1549.24Z" fill="black"/>
<path opacity="0.6" d="M1263.78 1551H1285.34V1555.28H1263.78V1551ZM1274.54 1557.32C1279.62 1557.32 1283.42 1561.04 1283.42 1566.16C1283.42 1571.24 1279.62 1575 1274.54 1575C1269.5 1575 1265.66 1571.24 1265.66 1566.16C1265.66 1561.04 1269.5 1557.32 1274.54 1557.32ZM1274.54 1561.76C1272.3 1561.76 1270.58 1563.4 1270.58 1566.16C1270.58 1568.92 1272.3 1570.52 1274.54 1570.52C1276.82 1570.52 1278.54 1568.92 1278.54 1566.16C1278.54 1563.4 1276.82 1561.76 1274.54 1561.76ZM1271.9 1546.12H1277.22V1553.12H1271.9V1546.12ZM1289.5 1545.52H1294.78V1582.56H1289.5V1545.52ZM1284.62 1560.08H1293.78V1564.4H1284.62V1560.08Z" fill="black"/>
<path opacity="0.6" d="M1226.86 1564.76H1260.38V1568.96H1226.86V1564.76ZM1230.62 1571.32H1256.3V1582.56H1250.98V1575.52H1230.62V1571.32ZM1231.02 1558.48H1256.82V1562.52H1231.02V1558.48ZM1231.02 1546.36H1256.54V1550.4H1236.3V1560.52H1231.02V1546.36ZM1234.82 1552.44H1255.7V1556.32H1234.82V1552.44Z" fill="black"/>
<path opacity="0.6" d="M1608.78 1527.56C1605.66 1527.56 1602.78 1526.24 1600.74 1524.56L1602.38 1522.36C1604.26 1523.88 1606.18 1524.96 1608.86 1524.96C1611.86 1524.96 1613.34 1523.36 1613.34 1521.4C1613.34 1519.08 1610.74 1518.04 1608.3 1517.12C1605.26 1516 1601.94 1514.6 1601.94 1510.88C1601.94 1507.56 1604.62 1504.88 1609.26 1504.88C1611.86 1504.88 1614.22 1505.92 1615.86 1507.28L1614.26 1509.36C1612.78 1508.28 1611.26 1507.44 1609.3 1507.44C1606.42 1507.44 1605.06 1509 1605.06 1510.76C1605.06 1512.88 1607.34 1513.72 1609.78 1514.64C1612.98 1515.84 1616.46 1517.08 1616.46 1521.2C1616.46 1524.68 1613.78 1527.56 1608.78 1527.56Z" fill="black"/>
<path opacity="0.6" d="M1588.3 1527V1505.4H1590.98L1591.3 1509.36H1591.38C1592.9 1506.64 1595.06 1504.88 1597.5 1504.88C1598.46 1504.88 1599.1 1505 1599.78 1505.32L1599.18 1508.16C1598.46 1507.92 1597.98 1507.8 1597.1 1507.8C1595.26 1507.8 1593.06 1509.16 1591.54 1512.96V1527H1588.3Z" fill="black"/>
<path opacity="0.6" d="M1572.52 1527.56C1567.24 1527.56 1562.56 1523.4 1562.56 1516.24C1562.56 1509.04 1567.24 1504.88 1572.52 1504.88C1577.8 1504.88 1582.44 1509.04 1582.44 1516.24C1582.44 1523.4 1577.8 1527.56 1572.52 1527.56ZM1572.52 1524.8C1576.4 1524.8 1579.08 1521.36 1579.08 1516.24C1579.08 1511.08 1576.4 1507.6 1572.52 1507.6C1568.6 1507.6 1565.96 1511.08 1565.96 1516.24C1565.96 1521.36 1568.6 1524.8 1572.52 1524.8Z" fill="black"/>
<path opacity="0.6" d="M1556.62 1527.56C1554.1 1527.56 1553.06 1525.96 1553.06 1523.04V1495.2H1556.3V1523.28C1556.3 1524.36 1556.74 1524.8 1557.3 1524.8C1557.5 1524.8 1557.66 1524.8 1558.1 1524.72L1558.54 1527.24C1558.06 1527.4 1557.54 1527.56 1556.62 1527.56Z" fill="black"/>
<path opacity="0.6" d="M1537.28 1527.56C1532 1527.56 1527.32 1523.4 1527.32 1516.24C1527.32 1509.04 1532 1504.88 1537.28 1504.88C1542.56 1504.88 1547.2 1509.04 1547.2 1516.24C1547.2 1523.4 1542.56 1527.56 1537.28 1527.56ZM1537.28 1524.8C1541.16 1524.8 1543.84 1521.36 1543.84 1516.24C1543.84 1511.08 1541.16 1507.6 1537.28 1507.6C1533.36 1507.6 1530.72 1511.08 1530.72 1516.24C1530.72 1521.36 1533.36 1524.8 1537.28 1524.8Z" fill="black"/>
<path opacity="0.6" d="M1518.1 1527.56C1512.42 1527.56 1508.06 1523.4 1508.06 1516.24C1508.06 1509.04 1512.86 1504.88 1518.34 1504.88C1521.18 1504.88 1523.18 1506.08 1524.66 1507.44L1522.98 1509.6C1521.7 1508.44 1520.26 1507.6 1518.5 1507.6C1514.42 1507.6 1511.46 1511.08 1511.46 1516.24C1511.46 1521.36 1514.26 1524.8 1518.42 1524.8C1520.46 1524.8 1522.26 1523.84 1523.66 1522.6L1525.1 1524.8C1523.18 1526.48 1520.74 1527.56 1518.1 1527.56Z" fill="black"/>
<path opacity="0.6" d="M1476.88 1527V1525.08C1485.64 1516.32 1490.4 1511.16 1490.4 1506.4C1490.4 1503.12 1488.64 1500.68 1484.84 1500.68C1482.44 1500.68 1480.28 1502.2 1478.64 1504.16L1476.72 1502.32C1479.04 1499.76 1481.56 1498.04 1485.24 1498.04C1490.44 1498.04 1493.64 1501.32 1493.64 1506.28C1493.64 1511.72 1488.68 1517.08 1481.64 1524.48C1483.2 1524.32 1484.96 1524.2 1486.44 1524.2H1495.04V1527H1476.88Z" fill="black"/>
<path opacity="0.6" d="M1463.53 1527.56C1458.93 1527.56 1456.21 1525.6 1454.25 1523.68L1455.93 1521.52C1457.57 1523.2 1459.73 1524.8 1463.25 1524.8C1466.77 1524.8 1469.65 1522.16 1469.65 1518.08C1469.65 1513.96 1467.17 1511.52 1463.41 1511.52C1461.41 1511.52 1460.13 1512.2 1458.45 1513.32L1456.61 1512.16L1457.57 1498.56H1471.53V1501.4H1460.41L1459.65 1510.24C1460.97 1509.48 1462.37 1509.04 1464.17 1509.04C1469.05 1509.04 1472.97 1511.8 1472.97 1517.96C1472.97 1524.08 1468.33 1527.56 1463.53 1527.56Z" fill="black"/>
<path opacity="0.6" d="M1432.98 1527V1525.08C1441.74 1516.32 1446.5 1511.16 1446.5 1506.4C1446.5 1503.12 1444.74 1500.68 1440.94 1500.68C1438.54 1500.68 1436.38 1502.2 1434.74 1504.16L1432.82 1502.32C1435.14 1499.76 1437.66 1498.04 1441.34 1498.04C1446.54 1498.04 1449.74 1501.32 1449.74 1506.28C1449.74 1511.72 1444.78 1517.08 1437.74 1524.48C1439.3 1524.32 1441.06 1524.2 1442.54 1524.2H1451.14V1527H1432.98Z" fill="black"/>
<path opacity="0.6" d="M1419.67 1527.56C1415.51 1527.56 1411.99 1525.84 1409.51 1523.2L1411.51 1520.92C1413.59 1523.16 1416.59 1524.64 1419.71 1524.64C1423.71 1524.64 1426.11 1522.6 1426.11 1519.6C1426.11 1516.4 1423.91 1515.44 1421.11 1514.2L1416.87 1512.32C1414.19 1511.16 1410.95 1509.16 1410.95 1504.84C1410.95 1500.4 1414.75 1497.2 1419.99 1497.2C1423.47 1497.2 1426.51 1498.72 1428.47 1500.8L1426.71 1502.92C1424.95 1501.24 1422.75 1500.12 1419.99 1500.12C1416.55 1500.12 1414.31 1501.88 1414.31 1504.6C1414.31 1507.6 1416.95 1508.72 1419.19 1509.68L1423.39 1511.52C1426.79 1513 1429.47 1514.96 1429.47 1519.36C1429.47 1523.96 1425.67 1527.56 1419.67 1527.56Z" fill="black"/>
<path opacity="0.6" d="M1398.33 1527.56C1391.05 1527.56 1385.69 1521.84 1385.69 1512.4C1385.69 1502.96 1391.13 1497.2 1398.57 1497.2C1402.09 1497.2 1404.85 1498.92 1406.49 1500.8L1404.69 1502.92C1403.13 1501.28 1401.13 1500.12 1398.61 1500.12C1392.85 1500.12 1389.09 1504.8 1389.09 1512.32C1389.09 1519.84 1392.73 1524.64 1398.49 1524.64C1401.29 1524.64 1403.45 1523.4 1405.41 1521.24L1407.25 1523.36C1404.93 1526 1402.13 1527.56 1398.33 1527.56Z" fill="black"/>
<path opacity="0.6" d="M1374.3 1527.56C1367.02 1527.56 1361.66 1521.84 1361.66 1512.4C1361.66 1502.96 1367.1 1497.2 1374.54 1497.2C1378.06 1497.2 1380.82 1498.92 1382.46 1500.8L1380.66 1502.92C1379.1 1501.28 1377.1 1500.12 1374.58 1500.12C1368.82 1500.12 1365.06 1504.8 1365.06 1512.32C1365.06 1519.84 1368.7 1524.64 1374.46 1524.64C1377.26 1524.64 1379.42 1523.4 1381.38 1521.24L1383.22 1523.36C1380.9 1526 1378.1 1527.56 1374.3 1527.56Z" fill="black"/>
<path opacity="0.6" d="M1350.28 1527.56C1343 1527.56 1337.64 1521.84 1337.64 1512.4C1337.64 1502.96 1343.08 1497.2 1350.52 1497.2C1354.04 1497.2 1356.8 1498.92 1358.44 1500.8L1356.64 1502.92C1355.08 1501.28 1353.08 1500.12 1350.56 1500.12C1344.8 1500.12 1341.04 1504.8 1341.04 1512.32C1341.04 1519.84 1344.68 1524.64 1350.44 1524.64C1353.24 1524.64 1355.4 1523.4 1357.36 1521.24L1359.2 1523.36C1356.88 1526 1354.08 1527.56 1350.28 1527.56Z" fill="black"/>
<path opacity="0.6" d="M1318.18 1494H1321.1V1530.08H1318.18V1494ZM1293.78 1518.84H1296.74C1302.7 1518.84 1308.1 1518.6 1314.62 1517.56L1314.94 1520C1308.3 1521.08 1302.86 1521.32 1296.74 1521.32H1293.78V1518.84ZM1293.7 1497.44H1310.26V1510.12H1296.74V1519.8H1293.78V1507.68H1307.3V1499.88H1293.7V1497.44Z" fill="black"/>
<path opacity="0.6" d="M1258.78 1497.64H1281.66V1500.08H1258.78V1497.64ZM1254.86 1522.56H1287.38V1525H1254.86V1522.56ZM1280.46 1497.64H1283.34V1501.12C1283.34 1505.48 1283.34 1510.4 1281.9 1517.68L1278.94 1517.32C1280.46 1510.4 1280.46 1505.4 1280.46 1501.12V1497.64ZM1281.14 1506.24V1508.52L1258.3 1509.8L1257.82 1507.24L1281.14 1506.24ZM1267.74 1513.08H1270.66V1523.44H1267.74V1513.08Z" fill="black"/>
<path opacity="0.6" d="M1221.98 1497.64H1244.86V1500.08H1221.98V1497.64ZM1218.06 1522.56H1250.58V1525H1218.06V1522.56ZM1243.66 1497.64H1246.54V1501.12C1246.54 1505.48 1246.54 1510.4 1245.1 1517.68L1242.14 1517.32C1243.66 1510.4 1243.66 1505.4 1243.66 1501.12V1497.64ZM1244.34 1506.24V1508.52L1221.5 1509.8L1221.02 1507.24L1244.34 1506.24ZM1230.94 1513.08H1233.86V1523.44H1230.94V1513.08Z" fill="black"/>
<path fill-rule="evenodd" clip-rule="evenodd" d="M40 0H57V2.33806H42.0606V450.662H57V453H40V0Z" fill="black"/>
<path d="M3.79117 265.96H22.4212V268H3.79117V265.96ZM0.701172 274.93H25.2712V277.03H0.701172V274.93ZM11.6812 266.83H14.1712V275.77H11.6812V266.83ZM3.79117 255.46H22.1512V257.5H6.28117V266.86H3.79117V255.46Z" fill="black"/>
<path d="M13.6312 217.68H21.4612V219.72H13.6312V217.68ZM13.6312 223.08H21.5212V225.09H13.6312V223.08ZM20.5012 213.3H22.9912V229.35H20.5012V213.3ZM1.93115 215.34H14.3212V227.4H1.93115V215.34ZM11.8612 217.35H4.36115V225.42H11.8612V217.35ZM14.0812 230.13C19.6612 230.13 23.1112 232.02 23.1112 235.26C23.1112 238.5 19.6612 240.36 14.0812 240.36C8.47115 240.36 5.02115 238.5 5.02115 235.26C5.02115 232.02 8.47115 230.13 14.0812 230.13ZM14.0812 232.11C10.0012 232.11 7.51115 233.28 7.51115 235.26C7.51115 237.24 10.0012 238.41 14.0812 238.41C18.1612 238.41 20.6512 237.24 20.6512 235.26C20.6512 233.28 18.1612 232.11 14.0812 232.11Z" fill="black"/>
<path d="M3.28117 176H20.7412V178.07H3.28117V176ZM0.701172 194.57H25.2112V196.64H0.701172V194.57ZM10.2112 184.88H12.7012V195.59H10.2112V184.88ZM19.8112 176H22.2712V178.7C22.2712 182.06 22.2712 185.78 21.2812 191.27L18.7912 190.94C19.8112 185.75 19.8112 181.94 19.8112 178.7V176Z" fill="black"/>
<path fill-rule="evenodd" clip-rule="evenodd" d="M148 1751L148 1731L150.332 1731L150.332 1749.04L644.668 1749.04L644.668 1731L647 1731L647 1751L148 1751Z" fill="black"/>
<path d="M415.526 1784.88H434.156V1786.92H415.526V1784.88ZM412.436 1793.85H437.006V1795.95H412.436V1793.85ZM423.416 1785.75H425.906V1794.69H423.416V1785.75ZM415.526 1774.38H433.886V1776.42H418.016V1785.78H415.526V1774.38Z" fill="black"/>
<path d="M390.357 1779.15H392.277V1780.56C392.277 1785.93 390.027 1791.36 386.067 1793.73L384.567 1791.84C388.257 1789.68 390.357 1784.97 390.357 1780.56V1779.15ZM390.807 1779.15H392.727V1780.56C392.727 1784.85 394.917 1789.29 398.547 1791.27L397.137 1793.13C393.147 1790.91 390.807 1785.78 390.807 1780.56V1779.15ZM385.257 1777.26H397.827V1779.3H385.257V1777.26ZM390.357 1773.18H392.757V1778.79H390.357V1773.18ZM405.567 1772.22H407.937V1799.34H405.567V1772.22ZM401.277 1783.14H406.497V1785.24H401.277V1783.14ZM399.657 1772.79H401.997V1797.99H399.657V1772.79Z" fill="black"/>
<path d="M377.07 1772.19H379.53V1799.37H377.07V1772.19ZM371.22 1782.09H377.79V1784.13H371.22V1782.09ZM364.11 1776.09H366.12V1780.14C366.12 1785.99 362.76 1791.78 358.47 1794L357 1792.02C360.9 1790.1 364.11 1784.97 364.11 1780.14V1776.09ZM364.62 1776.09H366.6V1780.14C366.6 1784.67 369.75 1789.62 373.68 1791.48L372.21 1793.43C367.92 1791.3 364.62 1785.72 364.62 1780.14V1776.09ZM357.99 1774.98H372.75V1777.05H357.99V1774.98Z" fill="black"/>
<path fill-rule="evenodd" clip-rule="evenodd" d="M681 1751L681 1731L683.336 1731L683.336 1749.04L1178.66 1749.04L1178.66 1731L1181 1731L1181 1751L681 1751Z" fill="black"/>
<path d="M949.316 1784.88H967.946V1786.92H949.316V1784.88ZM946.226 1793.85H970.796V1795.95H946.226V1793.85ZM957.206 1785.75H959.696V1794.69H957.206V1785.75ZM949.316 1774.38H967.676V1776.42H951.806V1785.78H949.316V1774.38Z" fill="black"/>
<path d="M924.147 1779.15H926.067V1780.56C926.067 1785.93 923.817 1791.36 919.857 1793.73L918.357 1791.84C922.047 1789.68 924.147 1784.97 924.147 1780.56V1779.15ZM924.597 1779.15H926.517V1780.56C926.517 1784.85 928.707 1789.29 932.337 1791.27L930.927 1793.13C926.937 1790.91 924.597 1785.78 924.597 1780.56V1779.15ZM919.047 1777.26H931.617V1779.3H919.047V1777.26ZM924.147 1773.18H926.547V1778.79H924.147V1773.18ZM939.357 1772.22H941.727V1799.34H939.357V1772.22ZM935.067 1783.14H940.287V1785.24H935.067V1783.14ZM933.447 1772.79H935.787V1797.99H933.447V1772.79Z" fill="black"/>
<path d="M902.01 1785.78H904.5V1790.52H902.01V1785.78ZM891 1784.91H915.51V1786.92H891V1784.91ZM903.24 1789.77C909.06 1789.77 912.54 1791.48 912.54 1794.54C912.54 1797.57 909.06 1799.28 903.24 1799.28C897.42 1799.28 893.94 1797.57 893.94 1794.54C893.94 1791.48 897.42 1789.77 903.24 1789.77ZM903.24 1791.69C899.01 1791.69 896.46 1792.71 896.46 1794.54C896.46 1796.34 899.01 1797.36 903.24 1797.36C907.5 1797.36 910.02 1796.34 910.02 1794.54C910.02 1792.71 907.5 1791.69 903.24 1791.69ZM901.65 1774.44H903.87V1775.25C903.87 1779.63 898.89 1782.57 893.28 1783.26L892.38 1781.28C897.24 1780.77 901.65 1778.34 901.65 1775.25V1774.44ZM902.7 1774.44H904.89V1775.25C904.89 1778.34 909.3 1780.77 914.16 1781.28L913.26 1783.26C907.65 1782.57 902.7 1779.63 902.7 1775.25V1774.44ZM893.25 1773.45H913.32V1775.46H893.25V1773.45Z" fill="black"/>
<path fill-rule="evenodd" clip-rule="evenodd" d="M1215 1751L1215 1731L1217.33 1731L1217.33 1749.04L1711.67 1749.04L1711.67 1731L1714 1731L1714 1751L1215 1751Z" fill="black"/>
<path d="M1483.29 1784.88H1501.92V1786.92H1483.29V1784.88ZM1480.2 1793.85H1504.77V1795.95H1480.2V1793.85ZM1491.18 1785.75H1493.67V1794.69H1491.18V1785.75ZM1483.29 1774.38H1501.65V1776.42H1485.78V1785.78H1483.29V1774.38Z" fill="black"/>
<path d="M1458.12 1779.15H1460.04V1780.56C1460.04 1785.93 1457.79 1791.36 1453.83 1793.73L1452.33 1791.84C1456.02 1789.68 1458.12 1784.97 1458.12 1780.56V1779.15ZM1458.57 1779.15H1460.49V1780.56C1460.49 1784.85 1462.68 1789.29 1466.31 1791.27L1464.9 1793.13C1460.91 1790.91 1458.57 1785.78 1458.57 1780.56V1779.15ZM1453.02 1777.26H1465.59V1779.3H1453.02V1777.26ZM1458.12 1773.18H1460.52V1778.79H1458.12V1773.18ZM1473.33 1772.22H1475.7V1799.34H1473.33V1772.22ZM1469.04 1783.14H1474.26V1785.24H1469.04V1783.14ZM1467.42 1772.79H1469.76V1797.99H1467.42V1772.79Z" fill="black"/>
<path d="M1427.58 1774.92H1445.04V1776.99H1427.58V1774.92ZM1425 1793.49H1449.51V1795.56H1425V1793.49ZM1434.51 1783.8H1437V1794.51H1434.51V1783.8ZM1444.11 1774.92H1446.57V1777.62C1446.57 1780.98 1446.57 1784.7 1445.58 1790.19L1443.09 1789.86C1444.11 1784.67 1444.11 1780.86 1444.11 1777.62V1774.92Z" fill="black"/>
<path fill-rule="evenodd" clip-rule="evenodd" d="M40 605H57V607.343H42.0606V1056.66H57V1059H40V605Z" fill="black"/>
<path d="M3.79068 872.43H22.4207V874.47H3.79068V872.43ZM0.700684 881.4H25.2707V883.5H0.700684V881.4ZM11.6807 873.3H14.1707V882.24H11.6807V873.3ZM3.79068 861.93H22.1507V863.97H6.28068V873.33H3.79068V861.93Z" fill="black"/>
<path d="M13.6307 824.15H21.4607V826.19H13.6307V824.15ZM13.6307 829.55H21.5207V831.56H13.6307V829.55ZM20.5007 819.77H22.9907V835.82H20.5007V819.77ZM1.93066 821.81H14.3207V833.87H1.93066V821.81ZM11.8607 823.82H4.36066V831.89H11.8607V823.82ZM14.0807 836.6C19.6607 836.6 23.1107 838.49 23.1107 841.73C23.1107 844.97 19.6607 846.83 14.0807 846.83C8.47066 846.83 5.02066 844.97 5.02066 841.73C5.02066 838.49 8.47066 836.6 14.0807 836.6ZM14.0807 838.58C10.0007 838.58 7.51066 839.75 7.51066 841.73C7.51066 843.71 10.0007 844.88 14.0807 844.88C18.1607 844.88 20.6507 843.71 20.6507 841.73C20.6507 839.75 18.1607 838.58 14.0807 838.58Z" fill="black"/>
<path d="M11.6809 793.33H14.1709V798.07H11.6809V793.33ZM0.670898 792.46H25.1809V794.47H0.670898V792.46ZM12.9109 797.32C18.7309 797.32 22.2109 799.03 22.2109 802.09C22.2109 805.12 18.7309 806.83 12.9109 806.83C7.0909 806.83 3.6109 805.12 3.6109 802.09C3.6109 799.03 7.0909 797.32 12.9109 797.32ZM12.9109 799.24C8.6809 799.24 6.1309 800.26 6.1309 802.09C6.1309 803.89 8.6809 804.91 12.9109 804.91C17.1709 804.91 19.6909 803.89 19.6909 802.09C19.6909 800.26 17.1709 799.24 12.9109 799.24ZM11.3209 781.99H13.5409V782.8C13.5409 787.18 8.5609 790.12 2.9509 790.81L2.0509 788.83C6.9109 788.32 11.3209 785.89 11.3209 782.8V781.99ZM12.3709 781.99H14.5609V782.8C14.5609 785.89 18.9709 788.32 23.8309 788.83L22.9309 790.81C17.3209 790.12 12.3709 787.18 12.3709 782.8V781.99ZM2.9209 781H22.9909V783.01H2.9209V781Z" fill="black"/>
<path fill-rule="evenodd" clip-rule="evenodd" d="M40 1211H57V1213.34H42.0606V1661.66H57V1664H40V1211Z" fill="black"/>
<path d="M3.79117 1478.69H22.4212V1480.73H3.79117V1478.69ZM0.701172 1487.66H25.2712V1489.76H0.701172V1487.66ZM11.6812 1479.56H14.1712V1488.5H11.6812V1479.56ZM3.79117 1468.19H22.1512V1470.23H6.28117V1479.59H3.79117V1468.19Z" fill="black"/>
<path d="M13.6312 1430.41H21.4612V1432.45H13.6312V1430.41ZM13.6312 1435.81H21.5212V1437.82H13.6312V1435.81ZM20.5012 1426.03H22.9912V1442.08H20.5012V1426.03ZM1.93115 1428.07H14.3212V1440.13H1.93115V1428.07ZM11.8612 1430.08H4.36115V1438.15H11.8612V1430.08ZM14.0812 1442.86C19.6612 1442.86 23.1112 1444.75 23.1112 1447.99C23.1112 1451.23 19.6612 1453.09 14.0812 1453.09C8.47115 1453.09 5.02115 1451.23 5.02115 1447.99C5.02115 1444.75 8.47115 1442.86 14.0812 1442.86ZM14.0812 1444.84C10.0012 1444.84 7.51115 1446.01 7.51115 1447.99C7.51115 1449.97 10.0012 1451.14 14.0812 1451.14C18.1612 1451.14 20.6512 1449.97 20.6512 1447.99C20.6512 1446.01 18.1612 1444.84 14.0812 1444.84Z" fill="black"/>
<path d="M20.5309 1386H22.9909V1413.18H20.5309V1386ZM14.6809 1395.9H21.2509V1397.94H14.6809V1395.9ZM7.57094 1389.9H9.58094V1393.95C9.58094 1399.8 6.22094 1405.59 1.93094 1407.81L0.460938 1405.83C4.36094 1403.91 7.57094 1398.78 7.57094 1393.95V1389.9ZM8.08094 1389.9H10.0609V1393.95C10.0609 1398.48 13.2109 1403.43 17.1409 1405.29L15.6709 1407.24C11.3809 1405.11 8.08094 1399.53 8.08094 1393.95V1389.9ZM1.45094 1388.79H16.2109V1390.86H1.45094V1388.79Z" fill="black"/>
</svg>
