<svg width="262" height="251" viewBox="0 0 262 251" fill="none" xmlns="http://www.w3.org/2000/svg">
<g clip-path="url(#clip0_858_1303)">
<path d="M228.86 125.5C228.86 179.36 184.973 223.024 130.835 223.024C76.6967 223.024 32.8105 179.36 32.8105 125.5C32.8105 71.6396 76.6967 27.976 130.835 27.976C184.973 27.976 228.86 71.6396 228.86 125.5Z" fill="white"/>
<path d="M157.147 26.0412C157.147 40.4215 145.43 52.0825 130.993 52.0825C116.556 52.0825 104.787 40.4215 104.787 26.0412C104.787 11.661 116.452 0 130.941 0C145.378 0 157.095 11.661 157.147 26.0412Z" fill="#A53737"/>
<path d="M157.147 224.959C157.147 239.339 145.43 251 130.941 251C116.504 251 104.735 239.339 104.787 224.959C104.787 210.579 116.504 198.918 130.993 198.918C145.483 198.918 157.2 210.579 157.2 224.959H157.147Z" fill="#006465"/>
<path d="M207.467 39.5325C207.467 53.9127 195.75 65.5737 181.261 65.5737C166.772 65.5737 155.055 53.9127 155.055 39.5325C155.055 25.1523 166.772 13.4912 181.208 13.4912C195.698 13.4912 207.415 25.1523 207.415 39.5325H207.467Z" fill="#A53D1B"/>
<path d="M244.395 76.3458C244.395 90.726 232.678 102.387 218.189 102.387C203.752 102.387 191.983 90.726 192.035 76.3458C192.035 61.9656 203.752 50.3046 218.189 50.3046C232.626 50.3046 244.395 61.9656 244.395 76.3458Z" fill="#984C12"/>
<path d="M261.657 125.552C261.657 139.933 249.94 151.594 235.503 151.594C221.066 151.594 209.297 139.933 209.297 125.552C209.297 111.172 221.014 99.511 235.451 99.511C249.888 99.511 261.657 111.172 261.657 125.552Z" fill="#765F17"/>
<path d="M243.715 174.497C243.715 188.877 231.998 200.539 217.509 200.539C203.02 200.539 191.303 188.877 191.303 174.497C191.303 160.117 203.02 148.456 217.509 148.456C231.946 148.456 243.715 160.117 243.715 174.497Z" fill="#546B25"/>
<path d="M207.467 211.572C207.467 225.952 195.75 237.613 181.261 237.613C166.772 237.613 155.055 225.952 155.055 211.572C155.055 197.192 166.772 185.531 181.208 185.531C195.698 185.531 207.415 197.192 207.415 211.572H207.467Z" fill="#006B4A"/>
<path d="M54.3105 39.5325C54.3105 53.9127 66.0275 65.5737 80.5167 65.5737C95.0059 65.5737 106.723 53.9127 106.723 39.5325C106.723 25.1523 95.0059 13.4912 80.5167 13.4912C66.0798 13.4912 54.3629 25.1523 54.3629 39.5325H54.3105Z" fill="#A2344F"/>
<path d="M17.3809 76.3458C17.3809 90.726 29.0978 102.387 43.587 102.387C58.0239 102.387 69.7931 90.726 69.7408 76.3458C69.7408 61.9656 58.0239 50.3046 43.587 50.3046C29.0978 50.3046 17.3809 61.9656 17.3809 76.3458Z" fill="#9A3564"/>
<path d="M0.119141 125.552C0.119141 139.932 11.836 151.594 26.273 151.594C40.7099 151.594 52.4791 139.932 52.4791 125.552C52.4791 111.172 40.7622 99.511 26.3253 99.511C11.8361 99.4587 0.119141 111.12 0.119141 125.552Z" fill="#764186"/>
<path d="M18.0605 174.497C18.0605 188.877 29.7775 200.539 44.2667 200.539C58.7559 200.539 70.4728 188.877 70.4728 174.497C70.4728 160.117 58.7559 148.456 44.2667 148.456C29.8298 148.456 18.0605 160.117 18.0605 174.497Z" fill="#105497"/>
<path d="M54.3105 211.572C54.3105 225.952 66.0275 237.613 80.5167 237.613C95.0059 237.613 106.723 225.952 106.723 211.572C106.723 197.192 95.0059 185.531 80.5167 185.531C66.0798 185.531 54.3629 197.192 54.3629 211.572H54.3105Z" fill="#005E80"/>
<path d="M127.174 139.932C127.174 140.351 126.964 140.612 126.494 140.612H124.663C124.244 140.612 123.983 140.403 123.983 139.932V136.429C122.309 139.619 119.537 141.24 115.771 141.24C112.423 141.24 109.807 139.932 107.924 137.37C106.198 134.965 105.361 131.827 105.361 127.853C105.361 119.016 108.866 114.623 115.823 114.623C117.706 114.623 119.38 114.989 120.844 115.774C122.309 116.506 123.355 117.499 124.035 118.702V103.904C124.035 103.485 124.244 103.224 124.715 103.224H126.546C126.964 103.224 127.226 103.433 127.226 103.904V139.985L127.174 139.932ZM108.866 127.853C108.866 129.317 108.971 130.677 109.232 131.88C109.441 133.082 109.86 134.128 110.331 135.069C111.011 136.22 111.847 137.056 112.841 137.684C113.835 138.259 115.038 138.573 116.398 138.573C117.654 138.573 118.752 138.259 119.694 137.579C120.635 136.9 121.472 136.063 122.1 135.069C122.727 134.076 123.198 132.925 123.512 131.618C123.826 130.363 123.983 129.108 123.983 127.905C123.983 126.389 123.826 125.029 123.512 123.722C123.198 122.415 122.675 121.317 122.047 120.375C121.42 119.434 120.635 118.702 119.641 118.179C118.7 117.656 117.601 117.395 116.346 117.395C113.678 117.395 111.638 118.545 110.278 120.846C109.755 121.735 109.389 122.833 109.18 124.036C108.971 125.239 108.814 126.546 108.814 127.958L108.866 127.853Z" fill="#231815"/>
<path d="M134.757 115.826C134.757 115.408 134.967 115.146 135.437 115.146H137.216C137.634 115.146 137.896 115.355 137.896 115.826L137.687 119.382C138.314 118.022 139.36 116.872 140.877 116.035C142.342 115.199 144.12 114.78 146.056 114.78C147.887 114.78 149.508 115.094 150.764 115.774C152.019 116.454 153.117 117.342 153.954 118.493C154.791 119.643 155.419 121.003 155.785 122.572C156.204 124.14 156.36 125.814 156.36 127.592C156.36 129.526 156.151 131.357 155.68 133.03C155.21 134.703 154.582 136.115 153.693 137.37C152.804 138.625 151.757 139.566 150.45 140.246C149.142 140.926 147.677 141.292 145.951 141.292C144.016 141.292 142.394 140.926 140.982 140.194C139.622 139.462 138.576 138.416 137.844 137.109V147.201C137.844 147.619 137.634 147.881 137.164 147.881H135.385C135.385 147.881 135.019 147.829 134.914 147.672C134.757 147.567 134.705 147.41 134.705 147.201V115.878L134.757 115.826ZM152.908 127.539C152.908 126.232 152.804 125.029 152.542 123.827C152.28 122.624 151.862 121.526 151.287 120.585C150.711 119.643 149.927 118.859 148.985 118.284C148.044 117.709 146.84 117.395 145.48 117.395C144.173 117.395 143.074 117.656 142.133 118.179C141.191 118.702 140.407 119.434 139.779 120.375C139.151 121.317 138.68 122.362 138.367 123.617C138.053 124.82 137.896 126.127 137.896 127.539C137.896 131.2 138.576 133.919 139.936 135.801C141.296 137.684 143.127 138.625 145.428 138.625C146.631 138.625 147.677 138.364 148.619 137.841C149.56 137.318 150.345 136.586 150.973 135.592C151.6 134.599 152.124 133.448 152.437 132.089C152.751 130.729 152.908 129.213 152.908 127.539Z" fill="#231815"/>
</g>
<defs>
<clipPath id="clip0_858_1303">
<rect width="261.538" height="251" fill="white" transform="translate(0.119141)"/>
</clipPath>
</defs>
</svg>
