<svg width="263" height="251" viewBox="0 0 263 251" fill="none" xmlns="http://www.w3.org/2000/svg">
<g clip-path="url(#clip0_858_1324)">
<path d="M229.307 125.552C229.307 179.413 185.421 223.076 131.282 223.076C77.1439 223.076 33.2578 179.413 33.2578 125.552C33.2578 71.6919 77.1439 27.976 131.282 27.976C185.421 27.976 229.307 71.6396 229.307 125.5V125.552Z" fill="white"/>
<path d="M157.593 26.0412C157.593 40.4215 145.876 52.0825 131.386 52.0825C116.95 52.0825 105.18 40.4215 105.233 26.0412C105.233 11.661 116.95 0 131.439 0C145.876 0 157.645 11.661 157.593 26.0412Z" fill="#AC6660"/>
<path d="M157.592 224.959C157.592 239.339 145.875 251 131.386 251C116.897 251 105.18 239.339 105.18 224.959C105.18 210.579 116.897 198.918 131.386 198.918C145.823 198.918 157.54 210.579 157.54 224.959H157.592Z" fill="#10827C"/>
<path d="M181.759 65.5737C196.204 65.5737 207.913 53.9147 207.913 39.5325C207.913 25.1503 196.204 13.4912 181.759 13.4912C167.315 13.4912 155.605 25.1503 155.605 39.5325C155.605 53.9147 167.315 65.5737 181.759 65.5737Z" fill="#AC6A4E"/>
<path d="M244.895 76.3458C244.895 90.726 233.178 102.387 218.689 102.387C204.199 102.387 192.482 90.726 192.482 76.3458C192.482 61.9656 204.199 50.3046 218.689 50.3046C233.125 50.3046 244.895 61.9656 244.895 76.3458Z" fill="#A9703E"/>
<path d="M262.154 125.552C262.154 139.933 250.438 151.594 235.948 151.594C221.459 151.594 209.742 139.933 209.742 125.552C209.742 111.172 221.459 99.511 235.948 99.511C250.385 99.511 262.102 111.172 262.102 125.552H262.154Z" fill="#9A7B26"/>
<path d="M244.213 174.497C244.213 188.877 232.496 200.539 218.007 200.539C203.518 200.539 191.801 188.877 191.801 174.497C191.801 160.117 203.518 148.456 217.955 148.456C232.444 148.456 244.161 160.117 244.161 174.497H244.213Z" fill="#69822F"/>
<path d="M207.965 211.572C207.965 225.952 196.248 237.613 181.812 237.613C167.375 237.613 155.605 225.952 155.605 211.572C155.605 197.192 167.322 185.531 181.759 185.531C196.196 185.531 207.965 197.192 207.965 211.572Z" fill="#348560"/>
<path d="M54.8088 39.5325C54.8088 53.9127 66.5257 65.5737 81.0149 65.5737C95.4518 65.5737 107.221 53.9127 107.169 39.5325C107.169 25.1523 95.4518 13.4912 80.9626 13.4912C66.5257 13.4912 54.7565 25.1523 54.8088 39.5325Z" fill="#A8656C"/>
<path d="M17.8789 76.3458C17.8789 90.726 29.5958 102.387 44.085 102.387C58.5742 102.387 70.2912 90.726 70.2912 76.3458C70.2912 61.9656 58.5742 50.3046 44.085 50.3046C29.6481 50.3046 17.9312 61.9656 17.9312 76.3458H17.8789Z" fill="#A3667A"/>
<path d="M0.617188 125.552C0.617188 139.933 12.3341 151.594 26.8233 151.594C41.3125 151.594 53.0294 139.933 53.0294 125.552C53.0294 111.172 41.3125 99.511 26.8233 99.511C12.3864 99.511 0.669495 111.172 0.669495 125.552H0.617188Z" fill="#86728C"/>
<path d="M18.5586 174.497C18.5586 188.877 30.2755 200.539 44.7647 200.539C59.2539 200.539 70.9708 188.877 70.9708 174.497C70.9708 160.117 59.2539 148.456 44.7647 148.456C30.3278 148.456 18.5586 160.117 18.5586 174.497Z" fill="#5F779E"/>
<path d="M54.8086 211.572C54.8086 225.952 66.5255 237.613 80.9624 237.613C95.3993 237.613 107.169 225.952 107.169 211.572C107.169 197.192 95.4516 185.531 81.0147 185.531C66.5778 185.531 54.8609 197.192 54.8609 211.572H54.8086Z" fill="#357D99"/>
<path d="M142.267 143.227C142.267 143.645 142.058 143.907 141.587 143.907H139.756C139.338 143.907 139.076 143.697 139.076 143.227V139.723C137.402 142.913 134.63 144.534 130.864 144.534C127.516 144.534 124.901 143.227 123.018 140.665C121.292 138.259 120.402 135.122 120.402 131.147C120.402 122.31 123.907 117.918 130.864 117.918C132.747 117.918 134.421 118.284 135.885 119.068C137.35 119.8 138.396 120.794 139.076 121.996V107.198C139.076 106.78 139.285 106.518 139.756 106.518H141.587C142.005 106.518 142.267 106.727 142.267 107.198V143.279V143.227ZM123.959 131.147C123.959 132.612 124.064 133.971 124.325 135.174C124.587 136.377 124.953 137.422 125.424 138.364C126.104 139.514 126.941 140.351 127.935 140.978C128.928 141.554 130.132 141.867 131.492 141.867C132.747 141.867 133.845 141.554 134.787 140.874C135.728 140.194 136.565 139.357 137.193 138.364C137.821 137.37 138.292 136.22 138.605 134.912C138.919 133.657 139.076 132.402 139.076 131.2C139.076 129.683 138.919 128.324 138.605 127.016C138.292 125.709 137.768 124.611 137.141 123.67C136.513 122.729 135.728 121.996 134.787 121.474C133.845 120.951 132.747 120.689 131.492 120.689C128.824 120.689 126.784 121.84 125.424 124.14C124.901 125.029 124.535 126.127 124.325 127.33C124.116 128.533 123.959 129.84 123.959 131.252V131.147Z" fill="#231815"/>
</g>
<defs>
<clipPath id="clip0_858_1324">
<rect width="261.538" height="251" fill="white" transform="translate(0.617188)"/>
</clipPath>
</defs>
</svg>
