<svg width="264" height="251" viewBox="0 0 264 251" fill="none" xmlns="http://www.w3.org/2000/svg">
<g clip-path="url(#clip0_858_1427)">
<path d="M230.314 125.552C230.314 179.413 186.26 223.076 131.914 223.076C77.5679 223.076 33.5137 179.413 33.5137 125.552C33.5137 71.6919 77.5679 28.0283 131.914 28.0283C186.26 28.0283 230.314 71.6919 230.314 125.552Z" fill="white"/>
<path d="M158.324 26.0412C158.324 40.4215 146.562 52.0825 132.017 52.0825C117.473 52.0825 105.711 40.4215 105.711 26.0412C105.711 11.661 117.473 0 132.017 0C146.51 0 158.324 11.661 158.324 26.0412Z" fill="#97746E"/>
<path d="M158.324 224.959C158.324 239.339 146.562 251 132.018 251C117.473 251 105.764 239.339 105.764 224.959C105.764 210.579 117.525 198.918 132.07 198.918C146.615 198.918 158.377 210.579 158.377 224.959H158.324Z" fill="#57807B"/>
<path d="M208.838 39.5325C208.838 53.9127 197.076 65.5737 182.531 65.5737C167.986 65.5737 156.225 53.9127 156.225 39.5325C156.225 25.1523 167.986 13.4912 182.531 13.4912C197.023 13.4912 208.838 25.1523 208.838 39.5325Z" fill="#997666"/>
<path d="M245.908 76.3458C245.908 90.726 234.146 102.387 219.601 102.387C205.057 102.387 193.295 90.726 193.295 76.3458C193.295 61.9656 205.057 50.3046 219.601 50.3046C234.094 50.3046 245.855 61.9656 245.855 76.3458H245.908Z" fill="#98775C"/>
<path d="M263.236 125.552C263.236 139.933 251.475 151.594 236.982 151.594C222.49 151.594 210.676 139.933 210.676 125.552C210.676 111.172 222.438 99.511 236.93 99.511C251.422 99.511 263.236 111.172 263.236 125.552Z" fill="#937B54"/>
<path d="M245.225 174.497C245.225 188.878 233.463 200.539 218.918 200.539C204.426 200.539 192.612 188.878 192.664 174.497C192.664 160.117 204.426 148.456 218.918 148.456C233.463 148.456 245.225 160.117 245.225 174.497Z" fill="#788155"/>
<path d="M208.838 211.572C208.838 225.952 197.076 237.613 182.584 237.613C168.092 237.613 156.277 225.952 156.277 211.572C156.277 197.192 168.039 185.531 182.531 185.531C197.024 185.531 208.785 197.192 208.838 211.572Z" fill="#60816C"/>
<path d="M55.0938 39.5325C55.0938 53.9127 66.8556 65.5737 81.4003 65.5737C95.945 65.5737 107.707 53.9127 107.707 39.5325C107.707 25.1523 95.945 13.4912 81.4003 13.4912C66.9081 13.4912 55.0938 25.1523 55.0938 39.5325Z" fill="#957473"/>
<path d="M18.0234 76.3458C18.0234 90.726 29.7852 102.387 44.33 102.387C58.8747 102.387 70.6365 90.726 70.6365 76.3458C70.6365 61.9656 58.8747 50.3046 44.33 50.3046C29.8377 50.3046 18.0234 61.9656 18.0234 76.3458Z" fill="#92737A"/>
<path d="M0.695312 125.552C0.695312 139.932 12.4571 151.594 26.9493 151.594C41.4416 151.594 53.2559 139.932 53.2559 125.552C53.2559 111.172 41.4941 99.511 27.0018 99.511C12.4571 99.4587 0.695312 111.12 0.695312 125.552Z" fill="#847688"/>
<path d="M18.7051 174.497C18.7051 188.877 30.4669 200.539 45.0116 200.539C59.5038 200.539 71.2656 188.878 71.2656 174.445C71.2656 160.065 59.5038 148.404 45.0116 148.404C30.5194 148.404 18.7051 160.065 18.7051 174.445V174.497Z" fill="#717A8C"/>
<path d="M55.0938 211.572C55.0938 225.952 66.8556 237.613 81.3478 237.613C95.84 237.613 107.654 225.952 107.654 211.572C107.654 197.192 95.8925 185.531 81.4003 185.531C66.9081 185.531 55.1463 197.192 55.0938 211.572Z" fill="#607E89"/>
<path d="M104.398 121.892C104.398 120.585 104.398 119.539 104.398 118.754C104.398 117.97 104.293 117.238 104.24 116.558C104.24 116.14 104.45 115.878 104.923 115.878H106.656C107.076 115.878 107.338 116.087 107.338 116.558V119.12C108.073 117.97 109.018 117.029 110.279 116.349C111.539 115.669 113.009 115.355 114.794 115.355C116.685 115.355 118.365 115.826 119.783 116.767C121.2 117.709 122.04 119.068 122.356 120.846C123.038 119.068 124.088 117.709 125.559 116.767C127.029 115.826 128.709 115.355 130.652 115.355C131.859 115.355 133.015 115.565 133.96 116.035C134.905 116.506 135.798 117.081 136.533 117.865C137.215 118.65 137.793 119.539 138.16 120.585C138.528 121.63 138.738 122.729 138.738 123.879V140.769C138.738 141.187 138.528 141.449 138.055 141.449H136.27C135.85 141.449 135.588 141.24 135.588 140.821V124.559C135.588 120.271 133.802 118.127 130.179 118.127C129.077 118.127 128.079 118.388 127.239 118.859C126.346 119.33 125.611 120.009 125.033 120.846C124.403 121.683 123.983 122.676 123.668 123.827C123.353 124.977 123.248 126.127 123.248 127.382V140.769C123.248 141.187 123.038 141.449 122.566 141.449H120.675C120.255 141.449 119.993 141.24 119.993 140.769V124.559C119.993 120.271 118.155 118.127 114.532 118.127C112.379 118.127 110.699 118.807 109.491 120.219C108.283 121.578 107.653 123.408 107.653 125.657V140.821C107.653 141.24 107.443 141.501 106.971 141.501H105.133C104.713 141.501 104.45 141.292 104.45 140.821V121.996L104.398 121.892Z" fill="#231815"/>
<path d="M159.164 141.449C157.852 141.92 156.539 142.129 155.226 142.129C152.653 142.129 150.973 141.292 150.185 139.619C149.66 138.468 149.398 136.481 149.398 133.657V118.65H144.935C144.514 118.65 144.252 118.441 144.252 117.97V116.558C144.252 116.14 144.462 115.878 144.935 115.878H149.398V109.551C149.398 109.08 149.608 108.871 150.028 108.871H152.023C152.443 108.871 152.653 109.08 152.653 109.551V115.878H157.904C158.324 115.878 158.587 116.088 158.587 116.558V117.97C158.587 118.388 158.377 118.65 157.904 118.65H152.653V135.279C152.653 138.05 153.808 139.462 156.066 139.462C156.959 139.462 157.957 139.253 159.059 138.887C159.217 138.834 159.374 138.834 159.532 138.887C159.689 138.939 159.742 139.096 159.742 139.253L159.847 140.455C159.899 140.874 159.742 141.187 159.269 141.397L159.164 141.449Z" fill="#231815"/>
</g>
<defs>
<clipPath id="clip0_858_1427">
<rect width="262.54" height="251" fill="white" transform="translate(0.695312)"/>
</clipPath>
</defs>
</svg>
