<svg width="263" height="251" viewBox="0 0 263 251" fill="none" xmlns="http://www.w3.org/2000/svg">
<g clip-path="url(#clip0_858_1509)">
<path d="M131.373 223.076C185.718 223.076 229.773 179.413 229.773 125.552C229.773 71.6913 185.718 28.0283 131.373 28.0283C77.0279 28.0283 32.9727 71.6913 32.9727 125.552C32.9727 179.413 77.0279 223.076 131.373 223.076Z" fill="white"/>
<path d="M157.783 26.0412C157.783 40.4215 146.021 52.0825 131.529 52.0825C117.037 52.0825 105.223 40.4215 105.223 26.0412C105.223 11.661 116.984 0 131.477 0C145.969 0 157.783 11.661 157.783 26.0412Z" fill="#87554D"/>
<path d="M157.783 224.959C157.783 239.339 146.022 251 131.477 251C116.985 251 105.17 239.339 105.223 224.959C105.223 210.579 116.985 198.918 131.529 198.918C146.074 198.918 157.836 210.579 157.836 224.959H157.783Z" fill="#236763"/>
<path d="M208.297 39.5325C208.297 53.9127 196.535 65.5737 181.99 65.5737C167.498 65.5737 155.736 53.9127 155.736 39.5325C155.736 25.1523 167.498 13.4912 181.99 13.4912C196.483 13.4912 208.297 25.1523 208.297 39.5325Z" fill="#885544"/>
<path d="M245.367 76.3458C245.367 90.726 233.606 102.387 219.061 102.387C204.569 102.387 192.754 90.726 192.807 76.3458C192.807 61.9656 204.569 50.3046 219.113 50.3046C233.658 50.3046 245.42 61.9656 245.42 76.3458H245.367Z" fill="#865A39"/>
<path d="M262.695 125.552C262.695 139.933 250.934 151.594 236.441 151.594C221.949 151.594 210.135 139.933 210.135 125.552C210.135 111.172 221.897 99.511 236.389 99.511C250.881 99.511 262.695 111.172 262.695 125.552Z" fill="#75632A"/>
<path d="M244.683 174.497C244.683 188.878 232.922 200.539 218.377 200.539C203.832 200.539 192.07 188.878 192.07 174.497C192.07 160.117 203.832 148.456 218.377 148.456C232.869 148.456 244.683 160.117 244.683 174.497Z" fill="#5A6934"/>
<path d="M208.297 211.572C208.297 225.952 196.535 237.613 181.99 237.613C167.498 237.613 155.736 225.952 155.736 211.572C155.736 197.192 167.498 185.531 181.99 185.531C196.483 185.531 208.297 197.192 208.297 211.572Z" fill="#366950"/>
<path d="M54.6055 39.5325C54.6055 53.9127 66.3673 65.5737 80.912 65.5737C95.4567 65.5737 107.219 53.9127 107.219 39.5325C107.219 25.1523 95.4567 13.4912 80.912 13.4912C66.4198 13.4912 54.6055 25.1523 54.6055 39.5325Z" fill="#845257"/>
<path d="M17.4822 76.3458C17.4822 90.726 29.244 102.387 43.7887 102.387C58.281 102.387 70.0953 90.726 70.0428 76.3458C70.0428 61.9656 58.281 50.3046 43.7362 50.3046C29.1915 50.3046 17.4297 61.9656 17.4297 76.3458H17.4822Z" fill="#805361"/>
<path d="M0.154297 125.552C0.154297 139.932 11.9161 151.594 26.4083 151.594C40.9005 151.594 52.7148 139.932 52.7148 125.552C52.7148 111.172 40.953 99.511 26.4608 99.511C11.9161 99.4587 0.154297 111.12 0.154297 125.552Z" fill="#6C5574"/>
<path d="M18.1641 174.497C18.1641 188.878 29.9259 200.539 44.4706 200.539C59.0153 200.539 70.7771 188.878 70.7771 174.497C70.7771 160.117 59.0153 148.456 44.4706 148.456C29.9784 148.456 18.2166 160.117 18.2166 174.497H18.1641Z" fill="#305D83"/>
<path d="M54.6055 209.69C54.6055 224.07 66.3673 235.731 80.912 235.731C95.4567 235.731 107.219 224.07 107.219 209.69C107.219 195.309 95.4567 183.648 80.912 183.648C66.4198 183.648 54.6055 195.309 54.6055 209.69Z" fill="#286177"/>
<path d="M111.892 140.769C113.834 141.554 115.777 141.92 117.825 141.92C119.505 141.92 120.923 141.501 122.026 140.665C123.128 139.828 123.706 138.73 123.706 137.318C123.706 136.481 123.391 135.697 122.761 134.965C122.131 134.18 121.395 133.553 120.503 133.082C119.505 132.559 118.508 132.036 117.51 131.566C116.512 131.095 115.515 130.572 114.569 130.049C113.414 129.422 112.574 128.637 112.049 127.696C111.524 126.755 111.261 125.814 111.261 124.82C111.261 123.67 111.471 122.624 111.944 121.787C112.417 120.951 112.994 120.166 113.729 119.591C114.464 119.016 115.357 118.545 116.355 118.284C117.352 118.022 118.455 117.865 119.558 117.865C120.765 117.865 121.816 117.918 122.656 118.075C123.548 118.179 124.441 118.388 125.281 118.65C125.491 118.702 125.649 118.807 125.754 118.911C125.911 119.016 125.964 119.225 125.911 119.434L125.754 120.846C125.754 120.846 125.649 121.264 125.491 121.317C125.334 121.369 125.176 121.369 125.019 121.317C124.231 121.055 123.443 120.846 122.656 120.741C121.868 120.637 120.923 120.585 119.82 120.585C116.145 120.585 114.359 122.049 114.359 124.925C114.359 125.552 114.622 126.127 115.094 126.703C115.567 127.278 116.407 127.853 117.562 128.376C118.56 128.899 119.558 129.37 120.555 129.788C121.553 130.206 122.603 130.781 123.706 131.409C124.703 131.932 125.491 132.769 126.121 133.867C126.751 134.965 127.066 136.168 127.066 137.423C127.066 138.678 126.804 139.776 126.331 140.665C125.806 141.554 125.124 142.338 124.283 142.913C123.443 143.488 122.446 143.959 121.343 144.273C120.24 144.586 119.085 144.743 117.93 144.743C117.247 144.743 116.617 144.743 116.04 144.743C115.515 144.743 114.989 144.639 114.464 144.586C113.992 144.534 113.467 144.43 112.994 144.377C112.469 144.273 111.944 144.168 111.366 144.011C110.946 143.854 110.736 143.593 110.736 143.175L110.946 141.449C110.999 140.926 111.261 140.769 111.681 140.978L111.892 140.769Z" fill="#231815"/>
<path d="M141.612 129.736L151.799 143.175C151.799 143.175 151.904 143.488 151.904 143.645C151.904 143.802 151.746 143.854 151.589 143.854H149.541C149.226 143.854 148.963 143.854 148.701 143.697C148.438 143.593 148.228 143.436 148.07 143.175L139.564 131.984L136.414 135.488V143.175C136.414 143.593 136.204 143.854 135.731 143.854H133.841C133.421 143.854 133.158 143.645 133.158 143.175V107.041C133.158 106.623 133.368 106.361 133.841 106.361H135.731C136.151 106.361 136.414 106.57 136.414 107.041V131.566L147.178 119.068C147.598 118.65 148.123 118.388 148.753 118.388H150.958C150.958 118.388 151.273 118.441 151.326 118.598C151.378 118.754 151.326 118.911 151.168 119.016L141.559 129.683L141.612 129.736Z" fill="#231815"/>
</g>
<defs>
<clipPath id="clip0_858_1509">
<rect width="262.54" height="251" fill="white" transform="translate(0.154297)"/>
</clipPath>
</defs>
</svg>
