<svg width="262" height="251" viewBox="0 0 262 251" fill="none" xmlns="http://www.w3.org/2000/svg">
<g clip-path="url(#clip0_858_1551)">
<path d="M229.012 125.5C229.012 179.36 185.126 223.024 130.987 223.024C76.849 223.024 32.9629 179.413 32.9629 125.552C32.9629 71.6919 76.849 28.0283 130.987 28.0283C185.126 28.0283 229.012 71.6919 229.012 125.552V125.5Z" fill="white"/>
<path d="M157.299 26.0412C157.299 40.4215 145.582 52.0825 131.093 52.0825C116.604 52.0825 104.887 40.4215 104.887 26.0412C104.887 11.661 116.656 0 131.093 0C145.53 0 157.299 11.661 157.299 26.0412Z" fill="#C84744"/>
<path d="M157.299 224.959C157.299 239.339 145.582 251 131.146 251C116.709 251 104.939 239.339 104.939 224.959C104.939 210.579 116.656 198.918 131.093 198.918C145.53 198.918 157.299 210.579 157.299 224.959Z" fill="#008988"/>
<path d="M207.62 39.5325C207.62 53.9127 195.903 65.5738 181.466 65.5738C167.029 65.5738 155.26 53.9127 155.26 39.5325C155.26 25.1523 166.977 13.4913 181.414 13.4913C195.85 13.4913 207.62 25.1523 207.62 39.5325Z" fill="#C84B36"/>
<path d="M244.549 76.3458C244.549 90.726 232.832 102.387 218.343 102.387C203.854 102.387 192.137 90.726 192.137 76.3458C192.137 61.9656 203.854 50.3046 218.343 50.3046C232.78 50.3046 244.549 61.9656 244.549 76.3458Z" fill="#D47D05"/>
<path d="M261.809 125.5C261.809 139.88 250.092 151.541 235.655 151.541C221.218 151.541 209.449 139.88 209.449 125.5C209.449 111.12 221.166 99.4587 235.603 99.4587C250.04 99.4587 261.809 111.12 261.809 125.5Z" fill="#EEC200"/>
<path d="M243.868 174.497C243.868 188.878 232.151 200.539 217.662 200.539C203.225 200.539 191.456 188.878 191.508 174.497C191.508 160.117 203.225 148.456 217.714 148.456C232.203 148.456 243.92 160.117 243.92 174.497H243.868Z" fill="#93B021"/>
<path d="M207.62 211.572C207.62 225.952 195.903 237.613 181.466 237.613C167.029 237.613 155.26 225.952 155.26 211.572C155.26 197.192 166.977 185.531 181.414 185.531C195.85 185.531 207.567 197.192 207.62 211.572Z" fill="#00855A"/>
<path d="M54.4629 39.5325C54.4629 53.9127 66.1798 65.5738 80.6167 65.5738C95.0536 65.5738 106.823 53.9127 106.823 39.5325C106.823 25.1523 95.1059 13.4913 80.669 13.4913C66.2321 13.4913 54.4629 25.1523 54.4629 39.5325Z" fill="#C34461"/>
<path d="M17.5332 76.3458C17.5332 90.726 29.2501 102.387 43.7393 102.387C58.2285 102.387 69.9455 90.726 69.9455 76.3458C69.9455 61.9656 58.2285 50.3046 43.7393 50.3046C29.3024 50.3046 17.5855 61.9656 17.5855 76.3458H17.5332Z" fill="#BA467B"/>
<path d="M0.271484 125.5C0.271484 139.88 11.9884 151.541 26.4253 151.594C40.9145 151.594 52.6314 139.932 52.6314 125.552C52.6314 111.172 40.9145 99.511 26.4776 99.4587C11.9884 99.4587 0.271484 111.12 0.271484 125.5Z" fill="#94569E"/>
<path d="M18.2129 174.497C18.2129 188.878 29.9298 200.539 44.419 200.539C58.8559 200.539 70.6251 188.878 70.5728 174.497C70.5728 160.117 58.8559 148.456 44.419 148.456C29.9298 148.456 18.2129 160.117 18.2129 174.497Z" fill="#006DAF"/>
<path d="M54.4629 211.572C54.4629 225.952 66.1798 237.613 80.6167 237.613C95.0536 237.613 106.823 225.952 106.823 211.572C106.823 197.192 95.1059 185.531 80.669 185.531C66.2321 185.531 54.4629 197.192 54.4629 211.572Z" fill="#0080B2"/>
<path d="M123.875 135.069C125.811 135.854 127.746 136.22 129.786 136.22C131.46 136.22 132.872 135.801 133.971 134.965C135.069 134.128 135.592 133.03 135.592 131.618C135.592 130.781 135.278 129.997 134.703 129.265C134.075 128.481 133.343 127.853 132.454 127.383C131.46 126.86 130.466 126.337 129.472 125.866C128.426 125.395 127.485 124.873 126.543 124.35C125.392 123.722 124.555 122.938 124.032 121.996C123.509 121.055 123.248 120.114 123.248 119.12C123.248 117.97 123.457 116.924 123.928 116.088C124.398 115.251 124.974 114.466 125.706 113.891C126.438 113.316 127.328 112.845 128.322 112.584C129.315 112.323 130.414 112.166 131.512 112.166C132.715 112.166 133.762 112.218 134.598 112.375C135.488 112.479 136.377 112.689 137.214 112.95C137.423 113.002 137.58 113.107 137.685 113.211C137.842 113.316 137.894 113.525 137.842 113.734L137.685 115.146C137.685 115.146 137.58 115.565 137.423 115.617C137.266 115.669 137.109 115.669 136.952 115.617C136.168 115.355 135.383 115.146 134.598 115.042C133.814 114.937 132.872 114.885 131.774 114.885C128.112 114.885 126.334 116.349 126.334 119.225C126.334 119.853 126.595 120.428 127.066 121.003C127.537 121.578 128.374 122.153 129.525 122.676C130.518 123.199 131.512 123.67 132.506 124.088C133.5 124.559 134.546 125.082 135.645 125.709C136.638 126.232 137.423 127.069 138.051 128.167C138.678 129.265 138.992 130.468 138.992 131.723C138.992 132.978 138.731 134.076 138.26 134.965C137.737 135.854 137.057 136.638 136.22 137.213C135.383 137.789 134.389 138.259 133.291 138.573C132.192 138.887 131.042 139.044 129.891 139.044C129.211 139.044 128.583 139.044 128.008 139.044C127.432 139.044 126.962 138.939 126.438 138.887C125.968 138.834 125.445 138.73 124.974 138.678C124.451 138.573 123.928 138.468 123.352 138.311C122.934 138.155 122.725 137.893 122.725 137.475L122.934 135.749C122.986 135.226 123.248 135.069 123.666 135.279L123.875 135.069Z" fill="#231815"/>
</g>
<defs>
<clipPath id="clip0_858_1551">
<rect width="261.538" height="251" fill="white" transform="translate(0.271484)"/>
</clipPath>
</defs>
</svg>
