<svg width="262" height="251" viewBox="0 0 262 251" fill="none" xmlns="http://www.w3.org/2000/svg">
<g clip-path="url(#clip0_858_1571)">
<path d="M228.636 125.552C228.636 179.413 184.91 223.076 130.97 223.076C77.03 223.076 33.3047 179.413 33.3047 125.552C33.3047 71.6919 77.03 28.0283 130.97 28.0283C184.91 28.0283 228.636 71.6919 228.636 125.552Z" fill="white"/>
<path d="M157.185 26.0412C157.185 40.4215 145.511 52.0825 131.075 52.0825C116.639 52.0825 104.965 40.4215 104.965 26.0412C104.965 11.661 116.691 0 131.075 0C145.459 0 157.133 11.661 157.185 26.0412Z" fill="#5C1823"/>
<path d="M157.184 224.959C157.184 239.339 145.51 251 131.074 251C116.69 251 105.016 239.339 105.016 224.959C105.016 210.579 116.69 198.918 131.126 198.918C145.562 198.918 157.236 210.579 157.236 224.959H157.184Z" fill="#003735"/>
<path d="M181.21 65.5737C195.63 65.5737 207.32 53.9147 207.32 39.5325C207.32 25.1503 195.63 13.4912 181.21 13.4912C166.79 13.4912 155.1 25.1503 155.1 39.5325C155.1 53.9147 166.79 65.5737 181.21 65.5737Z" fill="#5D1B15"/>
<path d="M244.115 76.3458C244.115 90.726 232.441 102.387 218.005 102.387C203.569 102.387 191.895 90.726 191.895 76.3458C191.895 61.9656 203.569 50.3046 218.005 50.3046C232.389 50.3046 244.115 61.9656 244.115 76.3458Z" fill="#562306"/>
<path d="M261.312 125.552C261.312 139.933 249.638 151.594 235.202 151.594C220.818 151.594 209.092 139.933 209.092 125.552C209.092 111.172 220.766 99.511 235.202 99.511C249.586 99.511 261.312 111.172 261.312 125.552Z" fill="#423309"/>
<path d="M243.437 174.497C243.437 188.877 231.763 200.539 217.327 200.539C202.943 200.539 191.217 188.877 191.217 174.497C191.217 160.117 202.891 148.456 217.327 148.456C231.711 148.456 243.437 160.117 243.437 174.497Z" fill="#2B3514"/>
<path d="M207.32 211.572C207.32 225.952 195.646 237.613 181.21 237.613C166.774 237.613 155.1 225.952 155.1 211.572C155.1 197.192 166.774 185.531 181.21 185.531C195.594 185.531 207.32 197.192 207.32 211.572Z" fill="#103623"/>
<path d="M54.7246 39.5325C54.7246 53.9127 66.3986 65.5737 80.8347 65.5737C95.2709 65.5737 106.945 53.9127 106.945 39.5325C106.945 25.1523 95.2709 13.4912 80.8347 13.4912C66.4507 13.4912 54.7246 25.1523 54.7246 39.5325Z" fill="#591931"/>
<path d="M17.9316 76.3458C17.9316 90.726 29.6056 102.387 43.9897 102.439C58.3737 102.439 70.0998 90.7783 70.0998 76.3981C70.0998 62.0179 58.4258 50.3569 44.0418 50.3046C29.6577 50.3046 17.9838 61.9656 17.9316 76.3458Z" fill="#531B3B"/>
<path d="M0.732422 125.552C0.732422 139.933 12.4064 151.594 26.8426 151.594C41.2266 151.594 52.9527 139.933 52.9527 125.552C52.9527 111.172 41.2787 99.511 26.8426 99.511C12.4064 99.511 0.732422 111.172 0.732422 125.552Z" fill="#3E204B"/>
<path d="M18.6074 174.497C18.6074 188.877 30.2814 200.539 44.7175 200.539C59.1016 200.539 70.8277 188.877 70.8277 174.497C70.8277 160.117 59.1537 148.456 44.7175 148.456C30.3335 148.456 18.6074 160.117 18.6074 174.497Z" fill="#002C57"/>
<path d="M54.7246 211.572C54.7246 225.952 66.3986 237.613 80.8347 237.613C95.2709 237.613 106.945 225.952 106.945 211.572C106.945 197.192 95.2709 185.531 80.8347 185.531C66.3986 185.531 54.7246 197.192 54.7246 211.572Z" fill="#003346"/>
<path d="M106.945 143.331C106.789 143.75 106.476 143.959 106.007 143.959H103.714C103.245 143.959 102.932 143.75 102.828 143.331L94.5938 119.12C94.5938 119.12 94.5938 118.807 94.5938 118.702C94.698 118.545 94.8022 118.493 95.0107 118.493H97.1474C97.5122 118.493 97.8249 118.702 97.9813 119.173L104.913 140.717L112.157 119.173C112.157 119.173 112.313 118.807 112.47 118.702C112.626 118.598 112.782 118.493 112.991 118.493H115.075C115.075 118.493 115.388 118.545 115.492 118.702C115.597 118.859 115.597 119.016 115.492 119.12L106.893 143.331H106.945Z" fill="#231815"/>
<path d="M140.82 143.279C140.82 143.698 140.612 143.959 140.143 143.959H138.319C137.902 143.959 137.693 143.75 137.693 143.279V139.776C136.026 142.965 133.263 144.586 129.511 144.586C126.176 144.586 123.57 143.279 121.694 140.717C119.974 138.311 119.088 135.174 119.088 131.2C119.088 122.363 122.58 117.97 129.511 117.97C131.387 117.97 133.055 118.336 134.514 119.12C135.973 119.853 137.016 120.846 137.693 122.049V107.25C137.693 106.832 137.902 106.57 138.319 106.57H140.143C140.56 106.57 140.82 106.78 140.82 107.25V143.331V143.279ZM122.58 131.2C122.58 132.664 122.684 134.024 122.944 135.226C123.205 136.429 123.57 137.475 124.039 138.416C124.716 139.566 125.55 140.403 126.54 141.031C127.531 141.606 128.729 141.92 130.084 141.92C131.335 141.92 132.43 141.606 133.368 140.926C134.306 140.246 135.14 139.41 135.765 138.416C136.39 137.423 136.859 136.272 137.224 134.965C137.537 133.71 137.693 132.455 137.693 131.252C137.693 129.736 137.537 128.376 137.172 127.069C136.859 125.761 136.39 124.663 135.713 123.722C135.088 122.781 134.254 122.049 133.316 121.526C132.377 121.003 131.283 120.741 130.032 120.741C127.374 120.741 125.342 121.892 123.987 124.193C123.466 125.082 123.101 126.18 122.892 127.383C122.684 128.585 122.528 129.893 122.528 131.304L122.58 131.2Z" fill="#231815"/>
<path d="M157.289 129.788L167.4 143.227C167.4 143.227 167.504 143.541 167.504 143.698C167.504 143.854 167.348 143.907 167.191 143.907H165.159C164.846 143.907 164.585 143.907 164.325 143.75C164.064 143.645 163.856 143.488 163.699 143.227L155.257 132.036L152.13 135.54V143.227C152.13 143.645 151.921 143.907 151.452 143.907H149.576C149.159 143.907 148.898 143.698 148.898 143.227V107.093C148.898 106.675 149.107 106.414 149.576 106.414H151.452C151.869 106.414 152.13 106.623 152.13 107.093V131.618L162.813 119.12C163.23 118.702 163.752 118.441 164.377 118.441H166.566C166.566 118.441 166.878 118.493 166.931 118.65C166.983 118.807 166.931 118.964 166.774 119.068L157.237 129.736L157.289 129.788Z" fill="#231815"/>
</g>
<defs>
<clipPath id="clip0_858_1571">
<rect width="260.58" height="251" fill="white" transform="translate(0.732422)"/>
</clipPath>
</defs>
</svg>
