<svg width="262" height="251" viewBox="0 0 262 251" fill="none" xmlns="http://www.w3.org/2000/svg">
<g clip-path="url(#clip0_858_1407)">
<path d="M228.768 125.5C228.768 179.36 184.882 223.024 130.743 223.024C76.6049 223.024 32.7188 179.36 32.7188 125.5C32.7188 71.6396 76.6049 27.976 130.743 27.976C184.882 27.976 228.768 71.6396 228.768 125.5Z" fill="white"/>
<path d="M157.053 26.0412C157.053 40.4215 145.336 52.0825 130.847 52.0825C116.41 52.0825 104.693 40.4215 104.693 26.0412C104.693 11.661 116.41 0 130.899 0C145.336 0 157.106 11.661 157.106 26.0412H157.053Z" fill="#B65E56"/>
<path d="M157.053 224.959C157.053 239.339 145.336 251 130.847 251C116.358 251 104.641 239.339 104.641 224.959C104.641 210.579 116.358 198.918 130.847 198.918C145.336 198.918 157.053 210.579 157.053 224.959Z" fill="#008182"/>
<path d="M207.426 39.5325C207.426 53.9127 195.709 65.5737 181.22 65.5737C166.731 65.5737 155.014 53.9127 155.014 39.5325C155.014 25.1523 166.731 13.4912 181.22 13.4912C195.657 13.4912 207.426 25.1523 207.426 39.5325Z" fill="#B65E4B"/>
<path d="M244.303 76.3458C244.303 90.726 232.586 102.387 218.097 102.387C203.66 102.387 191.943 90.726 191.943 76.3458C191.943 61.9656 203.66 50.3046 218.149 50.3046C232.586 50.3046 244.303 61.9656 244.303 76.3458Z" fill="#B06A28"/>
<path d="M261.616 125.5C261.616 139.88 249.899 151.541 235.462 151.541C221.025 151.541 209.256 139.88 209.256 125.5C209.256 111.12 220.973 99.4588 235.41 99.4588C249.847 99.4588 261.563 111.12 261.616 125.5Z" fill="#9D7917"/>
<path d="M243.674 174.497C243.674 188.877 231.957 200.539 217.468 200.539C203.031 200.539 191.262 188.877 191.262 174.497C191.262 160.117 202.979 148.456 217.468 148.456C231.905 148.456 243.674 160.117 243.674 174.497Z" fill="#68852A"/>
<path d="M207.426 211.572C207.426 225.952 195.709 237.613 181.22 237.613C166.731 237.613 155.014 225.952 155.014 211.572C155.014 197.192 166.731 185.531 181.22 185.531C195.657 185.531 207.426 197.192 207.426 211.572Z" fill="#00855A"/>
<path d="M54.2695 39.5325C54.2695 53.9127 65.9864 65.5737 80.4757 65.5737C94.9649 65.5737 106.629 53.9127 106.629 39.5325C106.629 25.1523 94.9126 13.4912 80.4757 13.4912C66.0388 13.4912 54.2695 25.1523 54.2695 39.5325Z" fill="#B25A69"/>
<path d="M17.3394 76.3458C17.3394 90.726 29.0563 102.387 43.5455 102.387C57.9825 102.387 69.6994 90.726 69.6994 76.3458C69.6994 61.9656 57.9824 50.3046 43.4932 50.3046C29.004 50.3046 17.2871 61.9656 17.2871 76.3458H17.3394Z" fill="#AD5C7A"/>
<path d="M0.078125 125.5C0.078125 139.88 11.795 151.541 26.2319 151.541C40.6688 151.541 52.4381 139.88 52.4381 125.5C52.4381 111.12 40.7212 99.4588 26.2842 99.4588C11.795 99.4588 0.078125 111.12 0.078125 125.5Z" fill="#8C649A"/>
<path d="M18.0195 174.497C18.0195 188.877 29.7364 200.539 44.2257 200.539C58.6626 200.539 70.4318 188.877 70.4318 174.497C70.4318 160.117 58.7149 148.456 44.2257 148.456C29.7364 148.456 18.0195 160.117 18.0195 174.497Z" fill="#4F74A7"/>
<path d="M54.2695 211.572C54.2695 225.952 65.9864 237.613 80.4757 237.613C94.9649 237.613 106.682 225.952 106.682 211.572C106.682 197.192 94.9649 185.531 80.528 185.531C66.0911 185.531 54.3218 197.192 54.3218 211.572H54.2695Z" fill="#007BA3"/>
<path d="M113.899 119.016C113.899 117.709 113.899 116.663 113.899 115.878C113.899 115.094 113.794 114.362 113.742 113.682C113.742 113.264 113.951 113.002 114.422 113.002H116.148C116.567 113.002 116.828 113.211 116.828 113.682V116.244C117.561 115.094 118.502 114.153 119.758 113.473C121.013 112.793 122.478 112.479 124.256 112.479C126.139 112.479 127.813 112.95 129.225 113.891C130.638 114.833 131.474 116.192 131.841 117.97C132.468 116.192 133.567 114.833 135.031 113.891C136.496 112.95 138.17 112.479 140.105 112.479C141.308 112.479 142.459 112.689 143.401 113.159C144.342 113.63 145.231 114.205 145.964 114.989C146.644 115.774 147.219 116.663 147.585 117.709C147.951 118.754 148.161 119.853 148.161 121.003V137.893C148.161 138.311 147.951 138.573 147.533 138.573H145.754C145.336 138.573 145.074 138.364 145.074 137.945V121.683C145.074 117.395 143.244 115.251 139.634 115.251C138.536 115.251 137.542 115.512 136.705 115.983C135.868 116.454 135.084 117.133 134.508 117.97C133.881 118.807 133.41 119.8 133.148 120.951C132.887 122.101 132.73 123.251 132.73 124.506V137.893C132.73 138.311 132.521 138.573 132.05 138.573H130.167C129.748 138.573 129.487 138.364 129.487 137.893V121.683C129.487 117.395 127.656 115.251 124.047 115.251C121.902 115.251 120.228 115.931 119.025 117.343C117.822 118.702 117.194 120.532 117.194 122.781V137.945C117.194 138.364 116.985 138.625 116.514 138.625H114.684C114.265 138.625 114.004 138.416 114.004 137.945V119.12L113.899 119.016Z" fill="#231815"/>
</g>
<defs>
<clipPath id="clip0_858_1407">
<rect width="261.538" height="251" fill="white" transform="translate(0.078125)"/>
</clipPath>
</defs>
</svg>
