<svg width="261" height="251" viewBox="0 0 261 251" fill="none" xmlns="http://www.w3.org/2000/svg">
<g clip-path="url(#clip0_858_1364)">
<path d="M228.138 125.5C228.138 179.36 184.413 223.024 130.473 223.024C76.5327 223.024 32.8073 179.36 32.8594 125.5C32.8594 71.6396 76.5848 27.976 130.525 27.976C184.465 27.976 228.19 71.6396 228.19 125.5H228.138Z" fill="white"/>
<path d="M156.687 26.0412C156.687 40.4215 145.013 52.0825 130.577 52.0825C116.141 52.0825 104.467 40.4215 104.467 26.0412C104.467 11.661 116.193 0 130.577 0C144.961 0 156.687 11.661 156.687 26.0412Z" fill="#C8ABA3"/>
<path d="M156.687 224.959C156.687 239.339 145.013 251 130.577 251C116.141 251 104.467 239.339 104.467 224.959C104.467 210.579 116.141 198.918 130.577 198.918C145.013 198.918 156.687 210.579 156.687 224.959Z" fill="#8FB5B1"/>
<path d="M206.823 39.5325C206.823 53.9127 195.149 65.5737 180.712 65.5737C166.328 65.5737 154.602 53.9127 154.654 39.5325C154.654 25.1523 166.328 13.4912 180.765 13.4912C195.149 13.4912 206.875 25.1523 206.875 39.5325H206.823Z" fill="#CAAB9C"/>
<path d="M243.616 76.3458C243.616 90.726 231.942 102.387 217.505 102.387C203.121 102.387 191.395 90.726 191.447 76.3458C191.447 61.9656 203.121 50.3046 217.558 50.3046C231.942 50.3046 243.668 61.9656 243.668 76.3458H243.616Z" fill="#CAAC92"/>
<path d="M260.815 125.552C260.815 139.933 249.141 151.594 234.705 151.594C220.32 151.594 208.646 139.933 208.646 125.552C208.646 111.172 220.32 99.511 234.705 99.511C249.089 99.511 260.815 111.172 260.763 125.552H260.815Z" fill="#BEB282"/>
<path d="M242.94 174.497C242.94 188.877 231.266 200.539 216.882 200.539C202.498 200.539 190.771 188.877 190.771 174.497C190.771 160.117 202.445 148.456 216.83 148.456C231.214 148.456 242.94 160.117 242.94 174.497Z" fill="#ADB585"/>
<path d="M206.822 211.572C206.822 225.952 195.148 237.613 180.712 237.613C166.276 237.613 154.602 225.952 154.602 211.572C154.602 197.192 166.276 185.531 180.712 185.531C195.096 185.531 206.822 197.192 206.822 211.572Z" fill="#94B69E"/>
<path d="M54.2259 39.5325C54.2259 53.9127 65.8999 65.5737 80.3361 65.5737C94.7201 65.5737 106.446 53.9127 106.394 39.5325C106.394 25.1523 94.7201 13.4912 80.284 13.4912C65.8999 13.4912 54.1738 25.1523 54.1738 39.5325H54.2259Z" fill="#C7ACAA"/>
<path d="M17.4336 76.3458C17.4336 90.726 29.1076 102.387 43.5437 102.387C57.9277 102.387 69.6539 90.726 69.6017 76.3458C69.6017 61.9656 57.9277 50.3046 43.4916 50.3046C29.1076 50.3046 17.4336 61.9656 17.4336 76.3458Z" fill="#C5ACB1"/>
<path d="M0.234375 125.552C0.234375 139.932 11.9084 151.594 26.3445 151.594C40.7285 151.594 52.4546 139.932 52.4025 125.552C52.4025 111.172 40.7285 99.511 26.2924 99.511C11.9084 99.4587 0.234375 111.12 0.234375 125.552Z" fill="#BAAEC0"/>
<path d="M18.1094 174.497C18.1094 188.877 29.7834 200.539 44.1674 200.539C58.5514 200.539 70.2775 188.877 70.2775 174.497C70.2775 160.117 58.6035 148.456 44.2195 148.456C29.8355 148.456 18.1094 160.117 18.1094 174.497Z" fill="#AAB3C2"/>
<path d="M54.2266 211.572C54.2266 225.952 65.9006 237.613 80.3367 237.613C94.7728 237.613 106.447 225.952 106.447 211.572C106.447 197.192 94.7728 185.531 80.3367 185.531C65.9527 185.531 54.2266 197.192 54.2266 211.572Z" fill="#9BB4BE"/>
<path d="M108.897 140.56H106.812C106.395 140.56 106.135 140.351 106.135 139.88V103.799C106.135 103.381 106.343 103.119 106.812 103.119H108.897C109.314 103.119 109.574 103.328 109.574 103.799V139.88C109.574 140.299 109.366 140.56 108.897 140.56Z" fill="#231815"/>
<path d="M129.326 140.612C128.023 141.083 126.721 141.292 125.418 141.292C122.864 141.292 121.196 140.455 120.414 138.782C119.893 137.632 119.633 135.645 119.633 132.821V117.813H115.203C114.786 117.813 114.525 117.604 114.525 117.133V115.721C114.525 115.303 114.734 115.042 115.203 115.042H119.633V108.714C119.633 108.244 119.841 108.035 120.258 108.035H122.239C122.655 108.035 122.864 108.244 122.864 108.714V115.042H128.076C128.492 115.042 128.753 115.251 128.753 115.721V117.133C128.753 117.552 128.545 117.813 128.076 117.813H122.864V134.442C122.864 137.213 124.011 138.625 126.251 138.625C127.137 138.625 128.128 138.416 129.222 138.05C129.378 137.998 129.535 137.998 129.691 138.05C129.848 138.102 129.9 138.259 129.9 138.416L130.004 139.619C130.056 140.037 129.9 140.351 129.431 140.56L129.326 140.612Z" fill="#231815"/>
<path d="M135.684 146.73C135.319 146.626 135.163 146.417 135.215 145.998L135.371 143.907C135.371 143.488 135.58 143.384 135.997 143.645C137.195 144.168 138.342 144.534 139.436 144.796C140.531 145.005 141.729 145.162 142.98 145.162C145.847 145.162 147.983 144.273 149.39 142.547C150.798 140.821 151.631 138.416 151.788 135.435C151.058 136.847 150.016 137.893 148.609 138.625C147.202 139.357 145.638 139.723 143.918 139.723C142.407 139.723 140.948 139.462 139.645 138.887C138.342 138.311 137.195 137.527 136.205 136.481C135.215 135.435 134.485 134.18 133.912 132.716C133.339 131.252 133.078 129.631 133.078 127.801C133.078 125.709 133.287 123.827 133.651 122.153C134.016 120.532 134.642 119.12 135.528 117.97C136.414 116.82 137.456 115.983 138.811 115.355C140.166 114.728 141.782 114.466 143.71 114.466C145.378 114.466 146.837 114.728 148.088 115.303C149.338 115.878 150.641 116.82 151.944 118.231L151.84 115.669C151.84 115.251 152.048 114.989 152.517 114.989H154.289C154.706 114.989 154.967 115.199 154.967 115.669V134.494C154.967 136.534 154.706 138.364 154.185 140.037C153.664 141.658 152.882 143.07 151.892 144.22C150.902 145.371 149.599 146.26 148.14 146.835C146.628 147.463 144.908 147.776 142.98 147.776C141.573 147.776 140.322 147.672 139.28 147.515C138.238 147.358 137.039 147.044 135.788 146.626L135.684 146.73ZM151.84 127.696C151.84 124.35 151.162 121.735 149.755 119.957C148.4 118.127 146.524 117.238 144.179 117.238C141.625 117.238 139.749 118.075 138.446 119.8C137.143 121.526 136.518 124.193 136.518 127.853C136.518 129.213 136.726 130.468 137.091 131.566C137.456 132.716 137.977 133.658 138.655 134.442C139.332 135.226 140.114 135.854 141 136.324C141.886 136.795 142.876 137.004 143.97 137.004C145.065 137.004 146.107 136.795 147.045 136.324C147.983 135.854 148.869 135.226 149.547 134.39C150.276 133.553 150.798 132.559 151.214 131.461C151.631 130.311 151.84 129.108 151.84 127.749V127.696Z" fill="#231815"/>
</g>
<defs>
<clipPath id="clip0_858_1364">
<rect width="260.58" height="251" fill="white" transform="translate(0.234375)"/>
</clipPath>
</defs>
</svg>
