<svg width="262" height="251" viewBox="0 0 262 251" fill="none" xmlns="http://www.w3.org/2000/svg">
<g clip-path="url(#clip0_858_1260)">
<path d="M228.442 125.552C228.442 179.413 184.717 223.076 130.777 223.076C76.8367 223.076 33.1113 179.413 33.1113 125.552C33.1113 71.6919 76.8367 28.0283 130.777 28.0283C184.717 28.0283 228.442 71.6919 228.442 125.552Z" fill="white"/>
<path d="M156.991 26.0412C156.991 40.4215 145.317 52.0825 130.88 52.0825C116.444 52.0825 104.77 40.4215 104.822 26.0412C104.77 11.661 116.496 0 130.88 0C145.264 0 156.938 11.661 156.938 26.0412H156.991Z" fill="#61413E"/>
<path d="M156.992 224.959C156.992 239.339 145.318 251 130.882 251C116.445 251 104.771 239.339 104.771 224.959C104.771 210.579 116.445 198.918 130.882 198.918C145.266 198.918 156.992 210.579 156.992 224.959Z" fill="#334D4A"/>
<path d="M207.127 39.5325C207.127 53.9127 195.453 65.5737 181.016 65.5737C166.58 65.5737 154.906 53.9127 154.906 39.5325C154.906 25.1523 166.58 13.4912 181.016 13.4912C195.4 13.4912 207.127 25.1523 207.127 39.5325Z" fill="#614239"/>
<path d="M243.92 76.3458C243.92 90.726 232.246 102.387 217.862 102.387C203.478 102.387 191.752 90.726 191.752 76.3458C191.752 61.9656 203.426 50.3046 217.81 50.3046C232.194 50.3046 243.92 61.9656 243.92 76.3458Z" fill="#5D4335"/>
<path d="M261.119 125.552C261.119 139.933 249.445 151.594 235.009 151.594C220.625 151.594 208.899 139.933 208.951 125.552C208.951 111.172 220.625 99.511 235.061 99.511C249.445 99.511 261.119 111.172 261.119 125.552Z" fill="#534931"/>
<path d="M243.244 174.497C243.244 188.877 231.57 200.539 217.134 200.539C202.697 200.539 191.023 188.877 191.023 174.497C191.023 160.117 202.697 148.456 217.134 148.456C231.518 148.456 243.244 160.117 243.244 174.497Z" fill="#4A5233"/>
<path d="M207.127 211.572C207.127 225.952 195.453 237.613 181.017 237.613C166.633 237.613 154.907 225.952 154.959 211.572C154.959 197.192 166.633 185.531 181.069 185.531C195.505 185.531 207.179 197.192 207.179 211.572H207.127Z" fill="#3C4D3F"/>
<path d="M54.5312 39.5325C54.5312 53.9127 66.2052 65.5737 80.6414 65.5737C95.0775 65.5737 106.752 53.9127 106.752 39.5325C106.752 25.1523 95.0775 13.4912 80.6414 13.4912C66.2574 13.4912 54.5834 25.1523 54.5834 39.5325H54.5312Z" fill="#5F4143"/>
<path d="M17.7383 76.3458C17.7383 90.726 29.4123 102.387 43.7963 102.387C58.1803 102.387 69.9064 90.726 69.9064 76.3458C69.9064 61.9656 58.2324 50.3046 43.8484 50.3046C29.4644 50.3046 17.7904 61.9656 17.7904 76.3458H17.7383Z" fill="#5C4049"/>
<path d="M0.539062 125.552C0.539062 139.933 12.2131 151.594 26.6492 151.594C41.0332 151.594 52.7593 139.933 52.7072 125.552C52.7072 111.172 41.0332 99.511 26.5971 99.511C12.2131 99.511 0.539062 111.172 0.539062 125.552Z" fill="#4F4154"/>
<path d="M18.4141 174.497C18.4141 188.877 30.088 200.539 44.5242 200.539C58.9603 200.539 70.6343 188.877 70.6343 174.497C70.6343 160.117 58.9603 148.456 44.5242 148.456C30.1402 148.456 18.4141 160.117 18.4141 174.497Z" fill="#31465B"/>
<path d="M54.5314 211.572C54.5314 225.952 66.2054 237.613 80.6416 237.613C95.0256 237.613 106.752 225.952 106.7 211.572C106.7 197.192 95.0256 185.531 80.5894 185.531C66.2054 185.531 54.4793 197.192 54.5314 211.572Z" fill="#344954"/>
<path d="M115.247 139.932C115.247 140.351 115.039 140.612 114.57 140.612H112.746C112.329 140.612 112.068 140.403 112.068 139.932V136.429C110.401 139.619 107.638 141.24 103.886 141.24C100.551 141.24 97.9449 139.932 96.0687 137.37C94.3489 134.965 93.4629 131.827 93.4629 127.853C93.4629 119.016 96.9547 114.623 103.886 114.623C105.762 114.623 107.43 114.989 108.889 115.774C110.348 116.506 111.391 117.499 112.068 118.702V103.904C112.068 103.485 112.277 103.224 112.746 103.224H114.57C114.987 103.224 115.247 103.433 115.247 103.904V139.985V139.932ZM97.0068 127.853C97.0068 129.317 97.111 130.677 97.3716 131.88C97.6322 133.082 97.997 134.128 98.466 135.069C99.1435 136.22 99.9774 137.056 100.968 137.684C101.958 138.259 103.156 138.573 104.511 138.573C105.762 138.573 106.857 138.259 107.795 137.579C108.733 136.9 109.567 136.063 110.192 135.069C110.818 134.076 111.287 132.925 111.599 131.618C111.912 130.363 112.068 129.108 112.068 127.905C112.068 126.389 111.912 125.029 111.599 123.722C111.287 122.415 110.765 121.317 110.14 120.375C109.515 119.434 108.733 118.702 107.795 118.179C106.857 117.656 105.762 117.395 104.511 117.395C101.854 117.395 99.8211 118.545 98.466 120.846C97.9449 121.735 97.5801 122.833 97.3716 124.036C97.1631 125.239 97.0068 126.546 97.0068 127.958V127.853Z" fill="#231815"/>
<path d="M131.717 126.441L141.827 139.88C141.827 139.88 141.932 140.194 141.932 140.351C141.932 140.508 141.775 140.56 141.619 140.56H139.586C139.274 140.56 139.013 140.56 138.753 140.403C138.492 140.299 138.283 140.142 138.127 139.88L129.684 128.69L126.557 132.193V139.88C126.557 140.299 126.349 140.56 125.88 140.56H124.004C123.587 140.56 123.326 140.351 123.326 139.88V103.747C123.326 103.328 123.535 103.067 124.004 103.067H125.88C126.297 103.067 126.557 103.276 126.557 103.747V128.271L137.241 115.774C137.658 115.355 138.179 115.094 138.805 115.094H140.994C140.994 115.094 141.306 115.146 141.358 115.303C141.41 115.46 141.358 115.617 141.202 115.721L131.665 126.389L131.717 126.441Z" fill="#231815"/>
<path d="M148.914 146.73C148.55 146.626 148.393 146.417 148.445 145.998L148.602 143.907C148.602 143.488 148.81 143.384 149.227 143.645C150.426 144.168 151.572 144.534 152.667 144.796C153.761 145.005 154.96 145.162 156.211 145.162C159.077 145.162 161.214 144.273 162.621 142.547C164.028 140.821 164.862 138.416 165.018 135.435C164.289 136.847 163.246 137.893 161.839 138.625C160.432 139.357 158.869 139.723 157.149 139.723C155.637 139.723 154.178 139.462 152.875 138.887C151.572 138.311 150.426 137.527 149.436 136.481C148.445 135.435 147.716 134.18 147.142 132.716C146.569 131.252 146.309 129.631 146.309 127.801C146.309 125.709 146.517 123.827 146.882 122.153C147.247 120.532 147.872 119.12 148.758 117.97C149.644 116.82 150.686 115.983 152.041 115.355C153.396 114.728 155.012 114.466 156.94 114.466C158.608 114.466 160.067 114.728 161.318 115.303C162.569 115.878 163.872 116.82 165.175 118.231L165.07 115.669C165.07 115.251 165.279 114.989 165.748 114.989H167.52C167.937 114.989 168.197 115.199 168.197 115.669V134.494C168.197 136.534 167.937 138.364 167.416 140.037C166.894 141.658 166.113 143.07 165.122 144.22C164.132 145.371 162.829 146.26 161.37 146.835C159.859 147.462 158.139 147.776 156.211 147.776C154.804 147.776 153.553 147.672 152.51 147.515C151.468 147.358 150.269 147.044 149.019 146.626L148.914 146.73ZM165.07 127.696C165.07 124.35 164.393 121.735 162.986 119.957C161.631 118.127 159.755 117.238 157.409 117.238C154.856 117.238 152.979 118.075 151.677 119.8C150.374 121.526 149.748 124.193 149.748 127.853C149.748 129.213 149.957 130.468 150.322 131.566C150.686 132.716 151.208 133.657 151.885 134.442C152.563 135.226 153.344 135.854 154.23 136.324C155.116 136.795 156.106 137.004 157.201 137.004C158.295 137.004 159.338 136.795 160.276 136.324C161.214 135.854 162.1 135.226 162.777 134.39C163.507 133.553 164.028 132.559 164.445 131.461C164.862 130.311 165.07 129.108 165.07 127.749V127.696Z" fill="#231815"/>
</g>
<defs>
<clipPath id="clip0_858_1260">
<rect width="260.58" height="251" fill="white" transform="translate(0.539062)"/>
</clipPath>
</defs>
</svg>
