<svg width="263" height="251" viewBox="0 0 263 251" fill="none" xmlns="http://www.w3.org/2000/svg">
<g clip-path="url(#clip0_858_1240)">
<path d="M229.475 125.5C229.475 179.36 185.589 223.024 131.45 223.024C77.3119 223.024 33.4258 179.36 33.4258 125.5C33.4258 71.6396 77.3119 27.976 131.45 27.976C185.589 27.976 229.475 71.6396 229.475 125.5Z" fill="white"/>
<path d="M157.762 26.0412C157.762 40.4215 146.046 52.0825 131.556 52.0825C117.119 52.0825 105.35 40.4215 105.403 26.0412C105.403 11.661 117.119 0 131.609 0C146.098 0 157.815 11.661 157.815 26.0412H157.762Z" fill="#D57069"/>
<path d="M157.762 224.959C157.762 239.339 146.045 251 131.608 251C117.172 251 105.402 239.339 105.402 224.959C105.402 210.579 117.119 198.918 131.556 198.918C145.993 198.918 157.71 210.579 157.762 224.959Z" fill="#009895"/>
<path d="M208.083 39.5325C208.083 53.9127 196.366 65.5738 181.877 65.5738C167.44 65.5738 155.671 53.9127 155.723 39.5325C155.723 25.1523 167.44 13.4913 181.877 13.4913C196.366 13.4913 208.083 25.1523 208.083 39.5325Z" fill="#D67548"/>
<path d="M245.012 76.3458C245.012 90.726 233.295 102.387 218.806 102.387C204.317 102.387 192.6 90.726 192.6 76.3458C192.6 61.9656 204.317 50.3046 218.753 50.3046C233.19 50.3046 244.96 61.9656 244.96 76.3458H245.012Z" fill="#D0812C"/>
<path d="M262.272 125.5C262.272 139.88 250.555 151.541 236.118 151.541C221.681 151.541 209.912 139.88 209.912 125.5C209.912 111.12 221.629 99.4587 236.066 99.4587C250.503 99.4587 262.272 111.12 262.272 125.5Z" fill="#CAAF00"/>
<path d="M244.331 174.497C244.331 188.878 232.614 200.539 218.177 200.539C203.74 200.539 191.971 188.878 191.971 174.497C191.971 160.117 203.688 148.456 218.125 148.456C232.561 148.456 244.331 160.117 244.331 174.497Z" fill="#7E9F29"/>
<path d="M208.082 211.572C208.082 225.952 196.365 237.613 181.876 237.613C167.387 237.613 155.67 225.952 155.67 211.572C155.67 197.192 167.387 185.531 181.824 185.531C196.261 185.531 208.03 197.192 208.03 211.572H208.082Z" fill="#2F9E6F"/>
<path d="M54.9258 39.5325C54.9258 53.9127 66.6427 65.5738 81.1319 65.5738C95.5688 65.5738 107.338 53.9127 107.286 39.5325C107.286 25.1523 95.5688 13.4913 81.0796 13.4913C66.6427 13.4913 54.9258 25.1523 54.9258 39.5325Z" fill="#C97982"/>
<path d="M17.9961 76.3458C17.9961 90.726 29.713 102.387 44.2022 102.387C58.6914 102.387 70.4083 90.726 70.4083 76.3458C70.4083 61.9656 58.6914 50.3046 44.2545 50.3046C29.8176 50.3046 18.0484 61.9656 18.0484 76.3458H17.9961Z" fill="#C27992"/>
<path d="M0.734375 125.5C0.734375 139.88 12.4513 151.541 26.8882 151.541C41.3251 151.541 53.0943 139.88 53.0943 125.5C53.0943 111.12 41.3774 99.4587 26.9405 99.4587C12.4513 99.4587 0.734375 111.12 0.734375 125.5Z" fill="#A884B7"/>
<path d="M18.6758 174.497C18.6758 188.878 30.3927 200.539 44.8296 200.539C59.2665 200.539 71.0357 188.878 71.0357 174.497C71.0357 160.117 59.3188 148.456 44.8819 148.456C30.445 148.456 18.7281 160.117 18.6758 174.497Z" fill="#7290C3"/>
<path d="M54.9258 211.572C54.9258 225.952 66.6427 237.613 81.1319 237.613C95.6211 237.613 107.338 225.952 107.338 211.572C107.338 197.192 95.6211 185.531 81.1319 185.531C66.695 185.531 54.9781 197.192 54.9781 211.572H54.9258Z" fill="#3695BB"/>
<path d="M120.57 107.146C120.57 106.727 120.78 106.466 121.198 106.466H123.029C123.447 106.466 123.709 106.675 123.709 107.146V122.153C124.493 120.846 125.592 119.852 127.056 119.068C128.521 118.284 130.09 117.918 131.921 117.918C138.93 117.918 142.435 122.362 142.435 131.2C142.435 132.978 142.278 134.651 141.912 136.272C141.493 137.893 140.866 139.305 139.976 140.508C139.087 141.71 137.989 142.704 136.681 143.436C135.373 144.168 133.752 144.534 131.973 144.534C128.207 144.534 125.487 142.913 123.761 139.723V143.384C123.761 143.802 123.552 144.064 123.081 144.064H121.25C120.832 144.064 120.623 143.854 120.623 143.384V107.093L120.57 107.146ZM139.035 131.2C139.035 129.892 138.93 128.585 138.669 127.33C138.407 126.075 137.989 124.925 137.361 123.931C136.733 122.938 135.949 122.101 134.955 121.526C133.961 120.951 132.758 120.637 131.293 120.637C129.986 120.637 128.887 120.898 127.946 121.474C127.004 121.996 126.22 122.781 125.592 123.774C124.964 124.768 124.493 125.866 124.18 127.173C123.866 128.481 123.709 129.84 123.709 131.252C123.709 132.664 123.918 134.024 124.284 135.331C124.65 136.638 125.226 137.789 125.906 138.73C126.586 139.723 127.37 140.455 128.312 141.083C129.253 141.658 130.247 141.972 131.346 141.972C132.81 141.972 134.013 141.658 135.007 141.031C136.001 140.403 136.786 139.619 137.413 138.625C137.989 137.632 138.46 136.481 138.721 135.174C138.983 133.867 139.087 132.559 139.087 131.252L139.035 131.2Z" fill="#231815"/>
</g>
<defs>
<clipPath id="clip0_858_1240">
<rect width="261.538" height="251" fill="white" transform="translate(0.734375)"/>
</clipPath>
</defs>
</svg>
