<svg width="264" height="251" viewBox="0 0 264 251" fill="none" xmlns="http://www.w3.org/2000/svg">
<g clip-path="url(#clip0_858_1489)">
<path d="M230.158 125.552C230.158 179.413 186.103 223.076 131.757 223.076C77.4117 223.076 33.3574 179.413 33.3574 125.552C33.3574 71.6919 77.4117 27.976 131.757 27.976C186.103 27.976 230.158 71.6396 230.158 125.5V125.552Z" fill="white"/>
<path d="M158.115 26.0412C158.115 40.4215 146.354 52.0825 131.809 52.0825C117.317 52.0825 105.502 40.4215 105.555 26.0412C105.555 11.661 117.317 0 131.861 0C146.406 0 158.168 11.661 158.168 26.0412H158.115Z" fill="#BF524D"/>
<path d="M158.115 224.959C158.115 239.339 146.353 251 131.808 251C117.264 251 105.502 239.339 105.502 224.959C105.502 210.579 117.264 198.918 131.808 198.918C146.301 198.918 158.115 210.579 158.115 224.959Z" fill="#10827C"/>
<path d="M208.682 39.5325C208.682 53.9127 196.92 65.5737 182.375 65.5737C167.883 65.5737 156.069 53.9127 156.121 39.5325C156.121 25.1523 167.883 13.4912 182.428 13.4912C196.92 13.4912 208.682 25.1523 208.682 39.5325Z" fill="#BF5440"/>
<path d="M245.752 76.3458C245.752 90.726 233.99 102.387 219.445 102.387C204.9 102.387 193.139 90.726 193.139 76.3458C193.139 61.9656 204.9 50.3046 219.445 50.3046C233.937 50.3046 245.752 61.9656 245.752 76.3458Z" fill="#B66614"/>
<path d="M263.08 125.552C263.08 139.933 251.318 151.594 236.774 151.594C222.281 151.594 210.52 139.933 210.52 125.552C210.52 111.172 222.281 99.511 236.774 99.511C251.266 99.511 263.08 111.172 263.08 125.552Z" fill="#D3AB00"/>
<path d="M245.068 174.497C245.068 188.878 233.306 200.539 218.762 200.539C204.217 200.539 192.455 188.878 192.455 174.497C192.455 160.117 204.217 148.456 218.709 148.456C233.254 148.456 245.016 160.117 245.016 174.497H245.068Z" fill="#7E9F29"/>
<path d="M208.682 211.572C208.682 225.952 196.92 237.613 182.428 237.613C167.935 237.613 156.121 225.952 156.121 211.572C156.121 197.192 167.883 185.531 182.375 185.531C196.867 185.531 208.629 197.192 208.629 211.572H208.682Z" fill="#008F44"/>
<path d="M54.9373 39.5325C54.9373 53.9127 66.6991 65.5737 81.2438 65.5737C95.736 65.5737 107.55 53.9127 107.498 39.5325C107.498 25.1523 95.736 13.4912 81.1913 13.4912C66.6466 13.4912 54.8848 25.1523 54.8848 39.5325H54.9373Z" fill="#B85170"/>
<path d="M17.9199 76.3458C17.9199 90.726 29.6817 102.387 44.2265 102.387C58.7712 102.387 70.533 90.726 70.533 76.3458C70.533 61.9656 58.7712 50.3046 44.2265 50.3046C29.7342 50.3046 17.9199 61.9656 17.9199 76.3458Z" fill="#AC5485"/>
<path d="M0.539062 125.552C0.539062 139.933 12.3009 151.594 26.8456 151.594C41.3378 151.594 53.0996 139.933 53.0996 125.552C53.0996 111.172 41.3378 99.511 26.8456 99.511C12.3534 99.511 0.591571 111.172 0.591571 125.552H0.539062Z" fill="#905D9F"/>
<path d="M18.5488 174.497C18.5488 188.878 30.3106 200.539 44.8554 200.539C59.4001 200.539 71.1619 188.878 71.1619 174.497C71.1619 160.117 59.4001 148.456 44.8554 148.456C30.3631 148.456 18.6013 160.117 18.6013 174.497H18.5488Z" fill="#3F71B1"/>
<path d="M54.9375 211.572C54.9375 225.952 66.6993 237.613 81.1915 237.613C95.6837 237.613 107.498 225.952 107.498 211.572C107.498 197.192 95.7363 185.531 81.244 185.531C66.7518 185.531 54.9375 197.192 54.9375 211.572Z" fill="#007BA3"/>
<path d="M137.479 115.983C136.902 115.774 136.167 115.721 135.222 115.721C132.911 115.721 131.178 116.872 130.023 119.173C129.131 120.951 128.711 123.251 128.711 126.023V137.945C128.711 138.364 128.501 138.625 128.028 138.625H126.19C125.77 138.625 125.508 138.416 125.508 137.945V118.859C125.508 117.709 125.508 116.82 125.508 116.087C125.508 115.408 125.508 114.623 125.455 113.787C125.455 113.368 125.665 113.107 126.138 113.107H127.87C128.291 113.107 128.553 113.316 128.553 113.787V118.388C130.076 114.414 132.386 112.479 135.379 112.479C136.114 112.479 136.849 112.584 137.532 112.741C137.742 112.793 137.899 112.898 138.004 113.055C138.11 113.211 138.215 113.368 138.215 113.63V115.617C138.215 115.617 138.162 115.931 138.004 115.983C137.847 116.035 137.689 116.035 137.532 115.983H137.479Z" fill="#231815"/>
</g>
<defs>
<clipPath id="clip0_858_1489">
<rect width="262.54" height="251" fill="white" transform="translate(0.539062)"/>
</clipPath>
</defs>
</svg>
