<svg width="262" height="251" viewBox="0 0 262 251" fill="none" xmlns="http://www.w3.org/2000/svg">
<g clip-path="url(#clip0_858_1635)">
<path d="M228.74 125.552C228.74 179.413 184.854 223.076 130.716 223.076C76.5775 223.076 32.6914 179.413 32.6914 125.552C32.6914 71.6918 76.5775 27.976 130.716 27.976C184.854 27.976 228.74 71.6396 228.74 125.5V125.552Z" fill="white"/>
<path d="M157.028 26.0412C157.028 40.4215 145.311 52.0825 130.822 52.0825C116.385 52.0825 104.616 40.4215 104.668 26.0412C104.668 11.661 116.385 0 130.874 0C145.311 0 157.08 11.661 157.08 26.0412H157.028Z" fill="#F3E6E1"/>
<path d="M157.027 224.959C157.027 239.339 145.311 251 130.821 251C116.384 251 104.615 239.339 104.615 224.959C104.615 210.579 116.332 198.918 130.821 198.918C145.258 198.918 157.027 210.579 157.027 224.959Z" fill="#D2EAE4"/>
<path d="M207.348 39.5325C207.348 53.9127 195.631 65.5738 181.142 65.5738C166.705 65.5738 154.936 53.9127 154.988 39.5325C154.988 25.1523 166.705 13.4913 181.195 13.4913C195.684 13.4913 207.401 25.1523 207.401 39.5325H207.348Z" fill="#F5E6DF"/>
<path d="M244.277 76.3458C244.277 90.726 232.561 102.387 218.071 102.387C203.582 102.387 191.865 90.726 191.865 76.3458C191.865 61.9656 203.582 50.3046 218.071 50.3046C232.561 50.3046 244.277 61.9656 244.277 76.3458Z" fill="#F5E5D6"/>
<path d="M261.538 125.5C261.538 139.88 249.821 151.541 235.384 151.541C220.947 151.541 209.178 139.88 209.178 125.5C209.178 111.12 220.895 99.4587 235.332 99.4587C249.768 99.4587 261.538 111.12 261.538 125.5Z" fill="#EEE8C8"/>
<path d="M243.597 174.497C243.597 188.878 231.88 200.539 217.443 200.539C203.006 200.539 191.289 188.878 191.289 174.497C191.289 160.117 203.006 148.456 217.443 148.456C231.88 148.456 243.597 160.117 243.649 174.497H243.597Z" fill="#E4EBC8"/>
<path d="M207.348 211.572C207.348 225.952 195.631 237.613 181.142 237.613C166.705 237.613 154.936 225.952 154.936 211.572C154.936 197.192 166.652 185.531 181.142 185.531C195.579 185.531 207.348 197.192 207.348 211.572Z" fill="#D4EAD9"/>
<path d="M54.191 39.5325C54.191 53.9127 65.9079 65.5738 80.3971 65.5738C94.8863 65.5738 106.603 53.9127 106.551 39.5325C106.551 25.1523 94.834 13.4913 80.3448 13.4913C65.8556 13.4913 54.1387 25.1523 54.1387 39.5325H54.191Z" fill="#F2E6E6"/>
<path d="M17.2613 76.3458C17.2613 90.726 28.9782 102.387 43.4674 102.387C57.9566 102.387 69.6735 90.726 69.6212 76.3458C69.6212 61.9656 57.9043 50.3046 43.4151 50.3046C28.9259 50.3046 17.209 61.9656 17.209 76.3458H17.2613Z" fill="#F1E6E9"/>
<path d="M0 125.5C0 139.88 11.7169 151.541 26.1538 151.541C40.5907 151.541 52.3599 139.88 52.3599 125.5C52.3599 111.12 40.643 99.4587 26.2061 99.4587C11.7169 99.4587 0 111.12 0 125.5Z" fill="#ECE8F1"/>
<path d="M17.9414 174.497C17.9414 188.878 29.6583 200.539 44.0952 200.539C58.5321 200.539 70.249 188.878 70.249 174.497C70.249 160.117 58.5321 148.456 44.0952 148.456C29.6583 148.456 17.9414 160.117 17.9414 174.497Z" fill="#E4EAF2"/>
<path d="M54.1914 211.572C54.1914 225.952 65.9083 237.613 80.3975 237.613C94.8344 237.613 106.604 225.952 106.604 211.572C106.604 197.192 94.8867 185.531 80.3975 185.531C65.9606 185.531 54.1914 197.192 54.1914 211.572Z" fill="#DCEAF1"/>
<path d="M129.095 143.698C128.99 144.064 128.729 144.22 128.363 144.22H125.59C125.224 144.22 124.963 144.064 124.858 143.698L118.163 122.049C117.012 125.709 115.861 129.317 114.658 132.873C113.507 136.429 112.356 140.037 111.153 143.645C111.049 144.011 110.787 144.22 110.316 144.22H107.753C107.753 144.22 107.335 144.22 107.23 144.116C107.073 144.064 106.969 143.907 106.916 143.645L99.0703 119.382C99.0703 119.382 99.0703 119.068 99.0703 118.964C99.0703 118.859 99.2795 118.754 99.4888 118.754H101.633C102 118.754 102.313 118.964 102.47 119.434L109.166 140.874C110.316 137.266 111.467 133.71 112.566 130.259C113.664 126.807 114.815 123.251 115.966 119.643C116.123 119.068 116.489 118.754 117.064 118.754H119.261C119.836 118.754 120.255 119.068 120.412 119.643L126.95 140.874C128.153 137.161 129.304 133.605 130.403 130.154C131.501 126.703 132.652 123.147 133.855 119.434C133.907 119.225 134.012 119.068 134.169 118.964C134.326 118.859 134.483 118.754 134.692 118.754H136.575C136.575 118.754 136.889 118.807 136.993 118.964C137.098 119.12 137.098 119.277 136.993 119.382L128.99 143.645L129.095 143.698Z" fill="#231815"/>
<path d="M162.52 143.593C162.52 144.011 162.311 144.273 161.84 144.273H159.957C159.539 144.273 159.277 144.064 159.277 143.593V129.108C159.277 127.592 159.12 126.337 158.859 125.291C158.597 124.245 158.231 123.408 157.708 122.729C157.185 122.101 156.61 121.63 155.877 121.317C155.145 121.055 154.36 120.898 153.471 120.898C150.908 120.898 148.92 121.526 147.56 122.729C146.2 123.931 145.52 125.657 145.52 127.801V143.541C145.52 143.959 145.311 144.22 144.84 144.22H142.957C142.539 144.22 142.277 144.011 142.277 143.541V107.407C142.277 106.989 142.487 106.727 142.957 106.727H144.84C145.259 106.727 145.52 106.936 145.52 107.407V121.055C146.41 120.062 147.508 119.33 148.816 118.859C150.123 118.388 151.745 118.179 153.68 118.179C156.714 118.179 158.963 119.068 160.376 120.846C161.788 122.624 162.468 125.343 162.468 129.004V143.541L162.52 143.593Z" fill="#231815"/>
</g>
<defs>
<clipPath id="clip0_858_1635">
<rect width="261.538" height="251" fill="white"/>
</clipPath>
</defs>
</svg>
