<svg width="262" height="251" viewBox="0 0 262 251" fill="none" xmlns="http://www.w3.org/2000/svg">
<g clip-path="url(#clip0_858_1219)">
<path d="M229.053 125.552C229.053 179.413 185.167 223.076 131.028 223.076C76.89 223.076 33.0039 179.413 33.0039 125.552C33.0039 71.6919 76.89 27.976 131.028 27.976C185.167 27.976 229.053 71.6396 229.053 125.5V125.552Z" fill="white"/>
<path d="M157.34 26.0412C157.34 40.4215 145.623 52.0825 131.134 52.0825C116.645 52.0825 104.928 40.4215 104.928 26.0412C104.928 11.661 116.645 0 131.134 0C145.571 0 157.34 11.661 157.34 26.0412Z" fill="#2E1118"/>
<path d="M157.34 224.959C157.34 239.339 145.623 251 131.134 251C116.645 251 104.928 239.339 104.928 224.959C104.928 210.579 116.645 198.918 131.134 198.918C145.571 198.918 157.34 210.579 157.34 224.959Z" fill="#0A1D1B"/>
<path d="M207.66 39.5325C207.66 53.9127 195.943 65.5737 181.454 65.5737C166.965 65.5737 155.248 53.9127 155.248 39.5325C155.248 25.1523 166.965 13.4912 181.454 13.4912C195.891 13.4912 207.66 25.1523 207.66 39.5325Z" fill="#2E120F"/>
<path d="M244.59 76.3458C244.59 90.726 232.873 102.387 218.384 102.439C203.895 102.439 192.178 90.7783 192.178 76.3981C192.178 62.0179 203.895 50.3569 218.384 50.3046C232.873 50.3046 244.59 61.9656 244.59 76.3458Z" fill="#2D150A"/>
<path d="M261.85 125.552C261.85 139.933 250.133 151.594 235.696 151.594C221.259 151.594 209.49 139.933 209.49 125.552C209.49 111.172 221.207 99.511 235.644 99.511C250.081 99.511 261.85 111.172 261.85 125.552Z" fill="#28190A"/>
<path d="M243.909 174.497C243.909 188.877 232.192 200.539 217.703 200.539C203.266 200.539 191.549 188.877 191.549 174.497C191.549 160.117 203.266 148.456 217.703 148.456C232.14 148.456 243.909 160.117 243.909 174.497Z" fill="#1A1C0F"/>
<path d="M207.66 211.572C207.66 225.952 195.943 237.613 181.454 237.613C166.965 237.613 155.248 225.952 155.248 211.572C155.248 197.192 166.965 185.531 181.454 185.531C195.891 185.531 207.66 197.192 207.66 211.572Z" fill="#131D17"/>
<path d="M54.5039 39.5325C54.5039 53.9127 66.2208 65.5737 80.71 65.5737C95.1992 65.5737 106.916 53.9127 106.916 39.5325C106.916 25.1523 95.1992 13.4912 80.71 13.4912C66.2731 13.4912 54.5039 25.1523 54.5039 39.5325Z" fill="#2D111C"/>
<path d="M17.5742 76.3458C17.5742 90.726 29.2911 102.387 43.7803 102.387C58.2696 102.387 69.9865 90.726 69.9865 76.3458C69.9865 61.9656 58.2696 50.3046 43.7803 50.3046C29.3434 50.3046 17.5742 61.9656 17.5742 76.3458Z" fill="#291321"/>
<path d="M0.3125 125.552C0.3125 139.932 12.0294 151.594 26.4663 151.594C40.9032 151.594 52.6724 139.932 52.6724 125.552C52.6724 111.172 40.9555 99.511 26.5186 99.511C12.0294 99.4587 0.3125 111.12 0.3125 125.552Z" fill="#221527"/>
<path d="M18.2539 174.497C18.2539 188.877 29.9708 200.539 44.46 200.539C58.8969 200.539 70.6138 188.877 70.6138 174.497C70.6138 160.117 58.8969 148.456 44.4077 148.456C29.9708 148.456 18.2539 160.117 18.2539 174.497Z" fill="#0D1A29"/>
<path d="M54.5039 211.572C54.5039 225.952 66.2208 237.613 80.71 237.613C95.1992 237.613 106.916 225.952 106.916 211.572C106.916 197.192 95.1992 185.531 80.71 185.531C66.2731 185.531 54.5039 197.192 54.5039 211.572Z" fill="#071C24"/>
<path d="M107.334 107.146C107.334 106.727 107.543 106.466 108.014 106.466H109.845C110.263 106.466 110.525 106.675 110.525 107.146V122.153C111.309 120.846 112.408 119.853 113.872 119.068C115.337 118.284 116.959 117.918 118.737 117.918C125.746 117.918 129.251 122.363 129.251 131.2C129.251 132.978 129.094 134.651 128.728 136.272C128.309 137.893 127.682 139.305 126.845 140.508C125.956 141.71 124.857 142.704 123.549 143.436C122.242 144.168 120.62 144.534 118.842 144.534C115.076 144.534 112.356 142.913 110.629 139.723V143.384C110.629 143.802 110.42 144.064 109.949 144.064H108.119C107.7 144.064 107.439 143.854 107.439 143.384V107.093L107.334 107.146ZM125.799 131.2C125.799 129.893 125.694 128.585 125.432 127.33C125.171 126.075 124.752 124.925 124.125 123.931C123.497 122.938 122.712 122.101 121.771 121.526C120.777 120.898 119.574 120.637 118.109 120.637C116.802 120.637 115.703 120.898 114.762 121.474C113.82 121.996 113.036 122.781 112.408 123.774C111.78 124.768 111.309 125.866 110.996 127.173C110.682 128.481 110.525 129.84 110.525 131.252C110.525 132.664 110.734 134.024 111.1 135.331C111.466 136.638 112.042 137.789 112.722 138.73C113.402 139.723 114.186 140.455 115.128 141.083C116.069 141.658 117.063 141.972 118.162 141.972C119.626 141.972 120.829 141.658 121.823 141.031C122.817 140.403 123.602 139.619 124.177 138.625C124.752 137.632 125.223 136.481 125.485 135.174C125.746 133.867 125.851 132.559 125.851 131.252L125.799 131.2Z" fill="#231815"/>
<path d="M144.525 129.945L154.673 143.384C154.673 143.384 154.777 143.698 154.777 143.854C154.777 144.011 154.62 144.064 154.463 144.064H152.424C152.11 144.064 151.848 144.064 151.587 143.907C151.325 143.802 151.116 143.645 150.959 143.384L142.485 132.193L139.347 135.697V143.384C139.347 143.802 139.137 144.064 138.667 144.064H136.784C136.365 144.064 136.104 143.854 136.104 143.384V107.25C136.104 106.832 136.313 106.57 136.784 106.57H138.667C139.085 106.57 139.347 106.78 139.347 107.25V131.775L150.07 119.277C150.488 118.859 151.011 118.598 151.639 118.598H153.836C153.836 118.598 154.15 118.65 154.202 118.807C154.254 118.964 154.202 119.12 154.045 119.225L144.473 129.893L144.525 129.945Z" fill="#231815"/>
</g>
<defs>
<clipPath id="clip0_858_1219">
<rect width="261.538" height="251" fill="white" transform="translate(0.3125)"/>
</clipPath>
</defs>
</svg>
